<svg xmlns="http://www.w3.org/2000/svg" width="205.86" height="34.422" viewBox="0 0 205.86 34.422">
  <g id="グループ_82" data-name="グループ 82" transform="translate(-33 -25.528)">
    <g id="グループ_43" data-name="グループ 43" transform="translate(33 27)">
      <path id="path2461" d="M77.252,196.707a4.214,4.214,0,0,1-3.2-6.746,4.338,4.338,0,0,1,2.512-1.583,7.488,7.488,0,0,1,1.253-.1h.36l-.2.126a4.006,4.006,0,0,0-1.091,1.014.443.443,0,0,1-.344.245,2.969,2.969,0,0,0-1.743,4.228,3.009,3.009,0,0,0,1.866,1.479l.213.062,19.955.007,19.955.008v1.278l-19.678-.005C86.288,196.717,77.352,196.711,77.252,196.707Zm2.223-1.718a3.086,3.086,0,0,1-.96-.3,3.36,3.36,0,0,1,1.307-6.379c.18-.015,5.019-.025,11.725-.025h11.419l.065-.075a.2.2,0,0,0-.027-.295c-.056-.046-.9-.049-16.837-.049H69.39v-1.25H86.206c14.728,0,16.837.005,16.99.041a1.519,1.519,0,0,1,1.12,1.192,1.5,1.5,0,0,1-1,1.633l-.181.064-11.78.014c-11.262.014-11.788.017-11.947.065a2.163,2.163,0,0,0-1.459,1.421,2.716,2.716,0,0,0-.057,1,2.165,2.165,0,0,0,1.5,1.656l.208.064,17.733.007,17.733.007v1.25l-17.677,0C82.97,195.025,79.668,195.018,79.475,194.988Zm2.737-1.681a1.537,1.537,0,0,1-1.056-.817,1.487,1.487,0,0,1,.917-2.047c.093-.031,2.071-.04,11.891-.052,11.288-.014,11.787-.017,11.946-.065a2.174,2.174,0,0,0,1.332-1.074,1.629,1.629,0,0,0,.223-.986,1.568,1.568,0,0,0-.072-.63,2.116,2.116,0,0,0-1.585-1.424c-.194-.04-1.961-.044-19.15-.044H67.723v-1.251l19.066.008c18.334.007,19.074.009,19.275.058a3.4,3.4,0,0,1,2.575,2.488,3.965,3.965,0,0,1,.066,1.273,3.263,3.263,0,0,1-.972,1.9,3.3,3.3,0,0,1-1.7.933c-.2.048-.771.051-11.936.065-9.523.012-11.735.021-11.771.051a.233.233,0,0,0,.052.363c.051.023,4.1.031,15.529.031h15.46v1.25l-15.524,0C89.309,193.331,82.273,193.32,82.212,193.308Zm25.117-1.769a4.269,4.269,0,0,0,1.149-1.054.417.417,0,0,1,.323-.229,3.316,3.316,0,0,0,.974-.512,2.96,2.96,0,0,0-1.1-5.183l-.267-.074-21.206-.007L66,184.473v-1.25l21.247.008,21.247.007.278.064a4.235,4.235,0,0,1,3.276,5.006,4.472,4.472,0,0,1-1.169,2.116,4.426,4.426,0,0,1-2.072,1.119,5.782,5.782,0,0,1-1.187.1h-.458Zm-34.966-8.823c0-.034.018-.181.04-.326a2.894,2.894,0,0,1,1.641-2.225,2.764,2.764,0,0,1,.931-.272l.236-.026,2.431.483,6.71,1.333,4.279.851-.01.123-.01.123H72.362Zm16.492-.1a2.565,2.565,0,0,1,.746-1.606,2.608,2.608,0,0,1,1.279-.7,3.3,3.3,0,0,1,.987-.01,2.583,2.583,0,0,1,2.074,2.273l.018.2H88.838Zm5.318.038c0-.1.009-.124.062-.137.034-.008,3.026-.606,6.647-1.328,5.341-1.064,6.621-1.311,6.776-1.307a2.947,2.947,0,0,1,2.354,1.444,3.042,3.042,0,0,1,.4,1.262l.019.188H94.172Zm-12.155-1.95c-5.4-1.078-6.615-1.329-6.75-1.393a3.12,3.12,0,0,1-1.148-.97,2.949,2.949,0,0,1-.021-3.331,3.864,3.864,0,0,1,.779-.779,2.981,2.981,0,0,1,2.638-.334c.116.044,1.914,1.231,5.767,3.807,3.079,2.059,5.609,3.753,5.621,3.765a.844.844,0,0,1-.082.288c-.087.22-.116.267-.162.264C88.627,182.023,85.639,181.43,82.017,180.707Zm11.951,1.054a.844.844,0,0,1-.082-.288c.013-.012,2.542-1.707,5.621-3.767,6.23-4.169,5.725-3.856,6.371-3.949A2.953,2.953,0,0,1,108.6,174.9a2.909,2.909,0,0,1,.084,3.41,3.184,3.184,0,0,1-1.178,1.005c-.11.05-1.92.422-6.763,1.39-3.637.727-6.625,1.322-6.641,1.322A.913.913,0,0,1,93.968,181.761Zm-10.41-4.484c-6.081-4.066-5.737-3.822-6.023-4.261a3.475,3.475,0,0,1-.383-.906,3.88,3.88,0,0,1,.011-1.379,2.955,2.955,0,0,1,2.416-2.191,2.5,2.5,0,0,1,.876,0,3.022,3.022,0,0,1,1.392.6l.207.164,3.774,5.644c2.076,3.1,3.778,5.657,3.782,5.673a.981.981,0,0,1-.2.231l-.2.2Zm9.81,3.572a.979.979,0,0,1-.192-.229c.048-.116,7.546-11.3,7.627-11.376a3.014,3.014,0,0,1,2.277-.722,3.418,3.418,0,0,1,.97.274,3,3,0,0,1,1.612,2.133,3.347,3.347,0,0,1-.042,1.222,2.972,2.972,0,0,1-.678,1.251c-.137.14-1.254.9-5.741,3.9-3.064,2.046-5.584,3.729-5.6,3.738S93.48,180.961,93.368,180.849Zm-3.842-1.289c-.292-.438-1.98-2.963-3.751-5.611s-3.244-4.871-3.274-4.941a2.316,2.316,0,0,1-.178-1.053,2.1,2.1,0,0,1,.075-.744,2.954,2.954,0,0,1,2.063-2.092,3.377,3.377,0,0,1,1.3-.055,2.953,2.953,0,0,1,2.07,1.516l.113.209,1.322,6.651c.727,3.658,1.316,6.668,1.308,6.689a.061.061,0,0,1-.05.038,1.62,1.62,0,0,0-.252.095l-.217.095Zm3.166.785a2.158,2.158,0,0,0-.248-.111,1,1,0,0,1-.239-.118c0-.014.58-3.006,1.3-6.648.972-4.919,1.326-6.662,1.377-6.774a3.174,3.174,0,0,1,.984-1.155,2.845,2.845,0,0,1,1.663-.514,2.81,2.81,0,0,1,1.39.336,2.91,2.91,0,0,1,1.393,3.544c-.071.205-.455.791-3.808,5.808-2.051,3.069-3.744,5.6-3.762,5.615S92.7,180.354,92.693,180.345Zm-2.918-6.985-1.327-6.682.03-.261a2.947,2.947,0,0,1,2.188-2.534,3.568,3.568,0,0,1,1.311-.032,2.95,2.95,0,0,1,2.157,1.8,3.406,3.406,0,0,1,.205.916c0,.092-2.526,12.988-2.629,13.421-.012.051-.036.056-.311.056h-.3Z" transform="translate(-66 -163.806)" fill="#8d857b"/>
      <g id="グループ_87" data-name="グループ 87" transform="translate(-166 -118)">
        <path id="パス_39" data-name="パス 39" d="M5.652-11.556c.144,0,.162.036.162.306v8.028c0,.918-.018,1.386-.036,1.6-.054.666-.18.864-1.494,1.008-.684.054-.612.648-.018.648C4.59.036,5.922,0,6.588,0,7.29,0,7.74.036,8.82.036c.81,0,.81-.576.09-.648C7.524-.756,7.38-.972,7.362-1.62c-.018-.4-.036-.756-.036-1.512V-11.3c0-.2.018-.216.126-.216,3.1,0,3.546-.036,3.8.108.234.144.378.5.468,1.314.09.72.72.72.72-.108a10.744,10.744,0,0,1,.252-2.286.311.311,0,0,0-.486-.36,1.649,1.649,0,0,1-1.332.432h-8.1c-.54,0-.864-.036-1.116-.4a.343.343,0,0,0-.594.18,21.473,21.473,0,0,1-.2,2.682c-.072.648.522.648.7.054.342-1.134.54-1.458.864-1.566A18.712,18.712,0,0,1,5.652-11.556ZM18.666-4.5c-.27-.018-.522-.036-.7-.036-2.034,0-4.392.918-4.392,2.574A2.048,2.048,0,0,0,15.5.27a4.945,4.945,0,0,0,3.078-1.494c.036.9.108,1.4.684,1.422a3.217,3.217,0,0,0,1.71-.432c.378-.216.378-.7,0-.684-.342,0-.864.018-1.026-.27a.776.776,0,0,1-.054-.36c0-.216.054-3.006.054-4.176s-.414-2.934-2.556-2.934a7.279,7.279,0,0,0-3.132,1.4.622.622,0,0,0-.252.54,1.832,1.832,0,0,0,.18.81c.234.54.648.432.792.054.162-.4.252-.9.432-1.242A1.2,1.2,0,0,1,16.632-7.7c.882,0,1.962.5,2.034,2.286Zm0,1.908a.753.753,0,0,1-.216.648A2.52,2.52,0,0,1,16.434-.9a1.243,1.243,0,0,1-1.386-1.332c0-.936.828-1.512,2.07-1.53a6.669,6.669,0,0,1,1.422.072c.072.018.126.018.126.126Zm6.678-.522a12.518,12.518,0,0,1-.054,1.692c-.036.522-.09.648-.9.81-.54.09-.558.648.054.648C24.912.036,25.416,0,26.01,0c.648,0,1.242.036,1.638.036.576,0,.612-.558.09-.648-.9-.162-.972-.288-.99-.792a9.652,9.652,0,0,1-.054-1.44V-5.9a.607.607,0,0,1,.126-.468,2.9,2.9,0,0,1,2.034-1.1,1.922,1.922,0,0,1,2.034,2.2v1.206c0,1.746-.036,2.16-.054,2.52-.018.576-.072.756-1.026.936-.558.09-.558.648.09.648C30.24.036,30.942,0,31.41,0c.612,0,1.1.036,1.674.036.594,0,.612-.558.054-.648-.792-.144-.9-.216-.9-.792v-4.14c0-2.016-.99-3.114-2.5-3.114a2.824,2.824,0,0,0-1.512.468A13.144,13.144,0,0,0,26.73-7.11a6.148,6.148,0,0,0-.09-1.26c-.036-.2-.108-.288-.27-.288a1.223,1.223,0,0,0-.468.2,6.332,6.332,0,0,1-1.44.72.291.291,0,0,0-.036.558c.828.27.918.432.918.972ZM41.49-4.5c-.27-.018-.522-.036-.7-.036-2.034,0-4.392.918-4.392,2.574A2.048,2.048,0,0,0,38.322.27,4.945,4.945,0,0,0,41.4-1.224c.036.9.108,1.4.684,1.422a3.217,3.217,0,0,0,1.71-.432c.378-.216.378-.7,0-.684-.342,0-.864.018-1.026-.27a.776.776,0,0,1-.054-.36c0-.216.054-3.006.054-4.176s-.414-2.934-2.556-2.934a7.279,7.279,0,0,0-3.132,1.4.622.622,0,0,0-.252.54,1.832,1.832,0,0,0,.18.81c.234.54.648.432.792.054.162-.4.252-.9.432-1.242A1.2,1.2,0,0,1,39.456-7.7c.882,0,1.962.5,2.034,2.286Zm0,1.908a.753.753,0,0,1-.216.648A2.52,2.52,0,0,1,39.258-.9a1.243,1.243,0,0,1-1.386-1.332c0-.936.828-1.512,2.07-1.53a6.669,6.669,0,0,1,1.422.072c.072.018.126.018.126.126Zm7.866-9.72a7.9,7.9,0,0,1,.108-1.656c.108-.306,0-.5-.216-.5a1.117,1.117,0,0,0-.45.18,7.81,7.81,0,0,1-1.926.576c-.45.09-.432.5-.018.612.882.2,1.062.27,1.1.774.036.342.036.7.036,2.088v6.858c0,1.422-.036,1.818-.054,2.052-.054.4-.108.576-.9.72-.558.09-.486.648.054.648C47.664.036,47.97,0,48.744,0c.558,0,1.224.036,1.566.036.594,0,.63-.558.072-.648-.846-.162-.954-.324-.99-.738-.018-.234-.036-.558-.036-1.746v-.468c.288-.2.576-.378.882-.594.126-.108.18-.072.216,0C51.426-2.7,52.29-1.53,52.758-.9c.54.72.918.936,1.26.972A6.962,6.962,0,0,0,55.872.054c.63-.108.576-.648.036-.666-.918-.036-1.152-.144-1.926-1.008C53.3-2.43,52.2-3.8,51.39-4.986c.81-.7,1.6-1.386,2.322-1.98a3.741,3.741,0,0,1,1.26-.756c.324-.126.414-.252.414-.414,0-.144-.108-.252-.468-.252s-.9.054-1.422.072c-.54.018-1.152.018-1.566.018-.63,0-.648.576-.054.666.684.126.882.18.882.306,0,.144-.162.288-.54.666a20.465,20.465,0,0,1-2.862,2.376ZM63.864-4.5c-.27-.018-.522-.036-.7-.036-2.034,0-4.392.918-4.392,2.574A2.048,2.048,0,0,0,60.7.27a4.945,4.945,0,0,0,3.078-1.494c.036.9.108,1.4.684,1.422a3.217,3.217,0,0,0,1.71-.432c.378-.216.378-.7,0-.684-.342,0-.864.018-1.026-.27a.776.776,0,0,1-.054-.36c0-.216.054-3.006.054-4.176s-.414-2.934-2.556-2.934a7.279,7.279,0,0,0-3.132,1.4.622.622,0,0,0-.252.54,1.832,1.832,0,0,0,.18.81c.234.54.648.432.792.054.162-.4.252-.9.432-1.242A1.2,1.2,0,0,1,61.83-7.7c.882,0,1.962.5,2.034,2.286Zm0,1.908a.753.753,0,0,1-.216.648A2.52,2.52,0,0,1,61.632-.9a1.243,1.243,0,0,1-1.386-1.332c0-.936.828-1.512,2.07-1.53a6.669,6.669,0,0,1,1.422.072c.072.018.126.018.126.126ZM69.948-6.48c.648,1.4,1.764,3.96,2.628,6.048a.377.377,0,0,1-.018.288c-.306.594-.594,1.188-.936,1.836-.432.72-.648,1.1-1.1,1.8a2.945,2.945,0,0,0-.54,1.17c0,.306.4.648,1.008.648a.437.437,0,0,0,.486-.342c.144-.45.414-1.26,1.278-3.4,1.71-4.086,3.024-6.858,3.618-8.208.306-.666.432-.846,1.1-1.008.648-.144.576-.7-.036-.684-.468,0-1.026.036-1.422.036-.522,0-1.08-.036-1.422-.036-.594.018-.594.558-.018.666.9.18.99.306.81.954-.18.522-.954,2.52-1.926,4.662-.036.072-.09.054-.144-.036C72.846-3.276,72-5.328,71.316-7c-.144-.4-.054-.5.648-.666.5-.108.486-.666-.09-.666-.342,0-1.17.036-1.53.036-.522,0-1.224-.054-1.674-.036-.576.018-.594.558-.018.648C69.444-7.524,69.534-7.29,69.948-6.48ZM85.338-4.5c-.27-.018-.522-.036-.7-.036-2.034,0-4.392.918-4.392,2.574A2.048,2.048,0,0,0,82.17.27a4.945,4.945,0,0,0,3.078-1.494c.036.9.108,1.4.684,1.422a3.217,3.217,0,0,0,1.71-.432c.378-.216.378-.7,0-.684-.342,0-.864.018-1.026-.27a.776.776,0,0,1-.054-.36c0-.216.054-3.006.054-4.176S86.2-8.658,84.06-8.658a7.279,7.279,0,0,0-3.132,1.4.622.622,0,0,0-.252.54,1.832,1.832,0,0,0,.18.81c.234.54.648.432.792.054.162-.4.252-.9.432-1.242A1.2,1.2,0,0,1,83.3-7.7c.882,0,1.962.5,2.034,2.286Zm0,1.908a.753.753,0,0,1-.216.648A2.52,2.52,0,0,1,83.106-.9,1.243,1.243,0,0,1,81.72-2.232c0-.936.828-1.512,2.07-1.53a6.669,6.669,0,0,1,1.422.072c.072.018.126.018.126.126Z" transform="translate(221 131)" fill="#8c857c"/>
        <path id="パス_40" data-name="パス 40" d="M3.47-3c.09-.01.13.01.19.11.44.68.81,1.28,1.25,1.9.59.89.85.97,1.22,1.02A5.034,5.034,0,0,0,7.08.02c.38-.03.4-.34.03-.37a2.268,2.268,0,0,1-.47-.09c-.22-.07-.4-.25-.7-.63C5.35-1.8,4.87-2.51,4.39-3.22A2.1,2.1,0,0,0,5.87-5.13c0-.62-.31-1.8-2.38-1.8-.77,0-1.25.03-1.75.03-.24,0-.69-.02-.89-.02-.38,0-.39.31-.01.36.54.08.68.18.7.44s.03.44.03,1.18v2.96c0,.62,0,.89-.02,1.15-.02.29-.05.4-.71.49C.48-.3.47.02.88.02,1.21.02,1.54,0,1.99,0c.5,0,.85.02,1.15.02.37,0,.38-.31.03-.36-.66-.09-.72-.21-.74-.54-.01-.13-.02-.47-.02-.98v-1.1C2.76-2.96,3.16-2.97,3.47-3ZM2.41-3.6V-4.99a5.64,5.64,0,0,1,.04-1.38c.06-.08.34-.13.75-.13A1.561,1.561,0,0,1,4.94-4.83c0,1.21-.8,1.39-1.72,1.39a3.035,3.035,0,0,1-.74-.06C2.42-3.52,2.41-3.54,2.41-3.6Zm6.19,0c.36.78.98,2.2,1.46,3.36a.21.21,0,0,1-.01.16C9.88.25,9.72.58,9.53.94c-.24.4-.36.61-.61,1a1.636,1.636,0,0,0-.3.65c0,.17.22.36.56.36a.243.243,0,0,0,.27-.19c.08-.25.23-.7.71-1.89.95-2.27,1.68-3.81,2.01-4.56.17-.37.24-.47.61-.56s.32-.39-.02-.38c-.26,0-.57.02-.79.02-.29,0-.6-.02-.79-.02-.33.01-.33.31-.01.37.5.1.55.17.45.53-.1.29-.53,1.4-1.07,2.59-.02.04-.05.03-.08-.02-.26-.66-.73-1.8-1.11-2.73-.08-.22-.03-.28.36-.37.28-.06.27-.37-.05-.37-.19,0-.65.02-.85.02-.29,0-.68-.03-.93-.02-.32.01-.33.31-.01.36C8.32-4.18,8.37-4.05,8.6-3.6Zm8.33-1.21a2.723,2.723,0,0,0-1.77.68,2.383,2.383,0,0,0-.85,1.95A2.209,2.209,0,0,0,16.43.18a2.676,2.676,0,0,0,2.01-.96,2.626,2.626,0,0,0,.59-1.79A2.17,2.17,0,0,0,16.93-4.81Zm1.26,2.62c0,1.14-.54,1.88-1.34,1.88-1.24,0-1.71-1.12-1.71-2.19,0-.71.24-1.8,1.36-1.8C17.75-4.3,18.19-3.08,18.19-2.19Zm3.98-4.65a4.391,4.391,0,0,1,.06-.92c.06-.17,0-.28-.12-.28a.621.621,0,0,0-.25.1,4.339,4.339,0,0,1-1.07.32c-.25.05-.24.28-.01.34.49.11.59.15.61.43.02.19.02.39.02,1.16v3.81c0,.79-.02,1.01-.03,1.14-.03.22-.06.32-.5.4-.31.05-.27.36.03.36.32,0,.49-.02.92-.02.31,0,.68.02.87.02.33,0,.35-.31.04-.36-.47-.09-.53-.18-.55-.41-.01-.13-.02-.31-.02-.97v-.26c.16-.11.32-.21.49-.33.07-.06.1-.04.12,0,.54.81,1.02,1.46,1.28,1.81.3.4.51.52.7.54A3.868,3.868,0,0,0,25.79.03c.35-.06.32-.36.02-.37-.51-.02-.64-.08-1.07-.56-.38-.45-.99-1.21-1.44-1.87.45-.39.89-.77,1.29-1.1a2.078,2.078,0,0,1,.7-.42c.18-.07.23-.14.23-.23s-.06-.14-.26-.14-.5.03-.79.04-.64.01-.87.01c-.35,0-.36.32-.03.37.38.07.49.1.49.17s-.09.16-.3.37a11.37,11.37,0,0,1-1.59,1.32ZM30.23-2.5c-.15-.01-.29-.02-.39-.02-1.13,0-2.44.51-2.44,1.43A1.138,1.138,0,0,0,28.47.15a2.747,2.747,0,0,0,1.71-.83c.02.5.06.78.38.79a1.787,1.787,0,0,0,.95-.24c.21-.12.21-.39,0-.38-.19,0-.48.01-.57-.15a.431.431,0,0,1-.03-.2c0-.12.03-1.67.03-2.32s-.23-1.63-1.42-1.63a4.044,4.044,0,0,0-1.74.78.346.346,0,0,0-.14.3,1.018,1.018,0,0,0,.1.45c.13.3.36.24.44.03s.14-.5.24-.69a.668.668,0,0,1,.68-.34c.49,0,1.09.28,1.13,1.27Zm0,1.06a.418.418,0,0,1-.12.36,1.4,1.4,0,0,1-1.12.58.69.69,0,0,1-.77-.74c0-.52.46-.84,1.15-.85a3.7,3.7,0,0,1,.79.04c.04.01.07.01.07.07Zm3.71-.29a6.954,6.954,0,0,1-.03.94c-.02.29-.05.36-.5.45-.3.05-.31.36.03.36.26,0,.54-.02.87-.02.36,0,.69.02.91.02.32,0,.34-.31.05-.36-.5-.09-.54-.16-.55-.44a5.362,5.362,0,0,1-.03-.8v-1.7a.337.337,0,0,1,.07-.26,1.61,1.61,0,0,1,1.13-.61,1.068,1.068,0,0,1,1.13,1.22v.67c0,.97-.02,1.2-.03,1.4-.01.32-.04.42-.57.52-.31.05-.31.36.05.36.19,0,.58-.02.84-.02.34,0,.61.02.93.02s.34-.31.03-.36c-.44-.08-.5-.12-.5-.44v-2.3c0-1.12-.55-1.73-1.39-1.73a1.569,1.569,0,0,0-.84.26,7.3,7.3,0,0,0-.83.6,3.416,3.416,0,0,0-.05-.7c-.02-.11-.06-.16-.15-.16a.68.68,0,0,0-.26.11,3.518,3.518,0,0,1-.8.4.162.162,0,0,0-.02.31c.46.15.51.24.51.54Zm10.43.1a6.449,6.449,0,0,1-.03.79c-.02.32-.05.41-.47.49-.35.06-.35.37.03.37.18,0,.51-.02.92-.02.48,0,.68.02.9.02.4,0,.41-.33.02-.37-.52-.07-.57-.13-.59-.48-.01-.17-.02-.44-.02-.84V-4.06h.41c.52,0,.61-.02.65-.07a.847.847,0,0,0,.16-.42c0-.07-.04-.11-.11-.09a3.391,3.391,0,0,1-.54.03h-.57v-.15c0-2.4.55-2.61,1.08-2.61a1.342,1.342,0,0,1,.99.51.174.174,0,0,0,.26-.03.9.9,0,0,0,.27-.56.432.432,0,0,0-.13-.32,1.154,1.154,0,0,0-.86-.27,2.329,2.329,0,0,0-1.79,1.11,3.612,3.612,0,0,0-.58,2.32,2.4,2.4,0,0,0-.64.04.677.677,0,0,0-.24.36c0,.07.02.12.08.13s.32.02.8.02Zm5.97-3.18a2.723,2.723,0,0,0-1.77.68,2.383,2.383,0,0,0-.85,1.95A2.209,2.209,0,0,0,49.84.18a2.676,2.676,0,0,0,2.01-.96,2.626,2.626,0,0,0,.59-1.79A2.17,2.17,0,0,0,50.34-4.81ZM51.6-2.19c0,1.14-.54,1.88-1.34,1.88-1.24,0-1.71-1.12-1.71-2.19,0-.71.24-1.8,1.36-1.8C51.16-4.3,51.6-3.08,51.6-2.19Zm5.51-2.62c-.32,0-.62.16-1.45.98a5.084,5.084,0,0,0-.06-.79c-.02-.11-.07-.19-.15-.19a.319.319,0,0,0-.17.06,8.6,8.6,0,0,1-.91.46c-.16.07-.16.24,0,.3.38.12.48.19.49.34a3.309,3.309,0,0,1,.03.66v1.64a3.9,3.9,0,0,1-.03.63c-.02.24-.04.28-.46.39-.27.07-.24.35.03.35.24,0,.5-.02.93-.02s.78.02.99.02c.28,0,.32-.28.02-.34-.58-.11-.67-.15-.69-.44-.01-.15-.02-.35-.02-.6V-3.33a.21.21,0,0,1,.05-.15,1.139,1.139,0,0,1,.86-.48.69.69,0,0,1,.53.25c.15.17.17.19.26.19s.19-.11.22-.19a1.009,1.009,0,0,0,.14-.53A.58.58,0,0,0,57.11-4.81Zm6.94,3.02a7.645,7.645,0,0,1-.3,2.81.922.922,0,0,1-.87.59,1.807,1.807,0,0,1-.94-.31.1.1,0,0,0-.15.04.9.9,0,0,0-.11.46c.01.32.39.52.78.52a1.645,1.645,0,0,0,1.12-.49c.43-.38,1.31-1.25,1.31-3.62V-5.15c0-.64.01-.79.02-.96.02-.22.05-.38.68-.46.35-.04.36-.35,0-.35-.23,0-.97.02-1.28.02-.2,0-.85-.02-1.06-.02-.39,0-.43.31-.04.35.71.08.8.17.82.5.01.15.02.58.02.98ZM70-2.5c-.15-.01-.29-.02-.39-.02-1.13,0-2.44.51-2.44,1.43A1.138,1.138,0,0,0,68.24.15a2.747,2.747,0,0,0,1.71-.83c.02.5.06.78.38.79a1.787,1.787,0,0,0,.95-.24c.21-.12.21-.39,0-.38-.19,0-.48.01-.57-.15a.431.431,0,0,1-.03-.2c0-.12.03-1.67.03-2.32s-.23-1.63-1.42-1.63a4.044,4.044,0,0,0-1.74.78.346.346,0,0,0-.14.3,1.018,1.018,0,0,0,.1.45c.13.3.36.24.44.03s.14-.5.24-.69a.668.668,0,0,1,.68-.34c.49,0,1.09.28,1.13,1.27Zm0,1.06a.418.418,0,0,1-.12.36,1.4,1.4,0,0,1-1.12.58.69.69,0,0,1-.77-.74c0-.52.46-.84,1.15-.85a3.7,3.7,0,0,1,.79.04c.04.01.07.01.07.07Zm4.37-1.81c0-.17.01-.23.08-.28a1.773,1.773,0,0,1,1.28-.6c.7,0,1.42.54,1.42,1.81,0,1.14-.48,1.91-1.6,1.91a1.933,1.933,0,0,1-1.12-.31c-.05-.04-.06-.07-.06-.15Zm0,3.26a1.834,1.834,0,0,0,.74.16A2.913,2.913,0,0,0,76.8-.44a2.715,2.715,0,0,0,1.18-2.31,1.914,1.914,0,0,0-1.7-2.06c-.58,0-.89.19-1.91.89-.01-.55-.06-.89-.24-.89a4.528,4.528,0,0,0-1.14.46c-.16.11-.15.29.05.33.5.09.53.18.55.42.01.16.02.46.02.88V.59c0,.74-.01,1.2-.03,1.47-.03.22-.05.29-.52.42-.26.06-.24.35.04.35.2,0,.74-.08,1.57-.08h.4c.33,0,.33-.31,0-.36-.6-.09-.7-.13-.7-.66ZM82.65-2.5c-.15-.01-.29-.02-.39-.02-1.13,0-2.44.51-2.44,1.43A1.138,1.138,0,0,0,80.89.15,2.747,2.747,0,0,0,82.6-.68c.02.5.06.78.38.79a1.787,1.787,0,0,0,.95-.24c.21-.12.21-.39,0-.38-.19,0-.48.01-.57-.15a.431.431,0,0,1-.03-.2c0-.12.03-1.67.03-2.32s-.23-1.63-1.42-1.63a4.044,4.044,0,0,0-1.74.78.346.346,0,0,0-.14.3,1.018,1.018,0,0,0,.1.45c.13.3.36.24.44.03s.14-.5.24-.69a.668.668,0,0,1,.68-.34c.49,0,1.09.28,1.13,1.27Zm0,1.06a.418.418,0,0,1-.12.36,1.4,1.4,0,0,1-1.12.58.69.69,0,0,1-.77-.74c0-.52.46-.84,1.15-.85a3.7,3.7,0,0,1,.79.04c.04.01.07.01.07.07Zm3.71-.29a6.953,6.953,0,0,1-.03.94c-.02.29-.05.36-.5.45-.3.05-.31.36.03.36.26,0,.54-.02.87-.02.36,0,.69.02.91.02.32,0,.34-.31.05-.36-.5-.09-.54-.16-.55-.44a5.362,5.362,0,0,1-.03-.8v-1.7a.337.337,0,0,1,.07-.26,1.61,1.61,0,0,1,1.13-.61,1.068,1.068,0,0,1,1.13,1.22v.67c0,.97-.02,1.2-.03,1.4-.01.32-.04.42-.57.52-.31.05-.31.36.05.36.19,0,.58-.02.84-.02.34,0,.61.02.93.02s.34-.31.03-.36c-.44-.08-.5-.12-.5-.44v-2.3c0-1.12-.55-1.73-1.39-1.73a1.569,1.569,0,0,0-.84.26,7.3,7.3,0,0,0-.83.6,3.415,3.415,0,0,0-.05-.7c-.02-.11-.06-.16-.15-.16a.68.68,0,0,0-.26.11,3.518,3.518,0,0,1-.8.4.162.162,0,0,0-.02.31c.46.15.51.24.51.54ZM93.4-3.07c.11-.88.58-1.24,1.11-1.24A1.165,1.165,0,0,1,95.7-3.16c0,.05-.01.09-.05.11a12.039,12.039,0,0,1-1.82.09,3.413,3.413,0,0,1-.37-.02C93.41-2.99,93.4-3.01,93.4-3.07Zm-.03.57a9.951,9.951,0,0,0,2.82-.22c.18-.05.38-.18.38-.36,0-.09-.05-.12-.11-.15a1.58,1.58,0,0,0-1.62-1.58,2.189,2.189,0,0,0-1.4.57,2.63,2.63,0,0,0-.86,2A2.121,2.121,0,0,0,94.55.13,2.611,2.611,0,0,0,96.3-.56c.25-.25.16-.53-.15-.34a1.933,1.933,0,0,1-1.12.36C94.06-.54,93.39-1.17,93.37-2.5Zm6.51-.4c-.38-.15-.68-.33-.68-.79,0-.34.17-.68.76-.68a.9.9,0,0,1,.86.43,1.7,1.7,0,0,1,.17.51c.05.27.36.22.36-.11a7.4,7.4,0,0,1,.1-1.26c.03-.16-.15-.17-.27-.08-.06.04-.11.12-.18.17-.03.02-.04.03-.11.01a2.03,2.03,0,0,0-.66-.11,1.941,1.941,0,0,0-1.2.38,1.287,1.287,0,0,0-.55,1.04,1.294,1.294,0,0,0,.94,1.17c.29.11.67.25.96.37a.79.79,0,0,1,.53.74q0,.81-.87.81A1.12,1.12,0,0,1,98.9-.97c-.04-.11-.12-.33-.14-.39-.09-.3-.4-.24-.37.07.05.5.08.88.08,1.23,0,.28.25.21.36.08.06-.08.11-.06.17-.03a1.957,1.957,0,0,0,.81.16,2.116,2.116,0,0,0,1.08-.29,1.519,1.519,0,0,0,.8-1.33,1.252,1.252,0,0,0-.93-1.12Zm4.51-.17c.11-.88.58-1.24,1.11-1.24a1.165,1.165,0,0,1,1.19,1.15c0,.05-.01.09-.05.11a12.039,12.039,0,0,1-1.82.09,3.413,3.413,0,0,1-.37-.02C104.4-2.99,104.39-3.01,104.39-3.07Zm-.03.57a9.951,9.951,0,0,0,2.82-.22c.18-.05.38-.18.38-.36,0-.09-.05-.12-.11-.15a1.58,1.58,0,0,0-1.62-1.58,2.189,2.189,0,0,0-1.4.57,2.63,2.63,0,0,0-.86,2A2.121,2.121,0,0,0,105.54.13a2.611,2.611,0,0,0,1.75-.69c.25-.25.16-.53-.15-.34a1.933,1.933,0,0,1-1.12.36C105.05-.54,104.38-1.17,104.36-2.5Zm11.32-2.31a2.757,2.757,0,0,0-1.53.48,2.558,2.558,0,0,0-1.19,2.14A2.158,2.158,0,0,0,114.91.13a2.461,2.461,0,0,0,1.87-.8c.24-.27.11-.53-.17-.32a1.825,1.825,0,0,1-1.17.44c-.71,0-1.65-.44-1.65-1.96,0-1.22.54-1.75,1.31-1.75a1.292,1.292,0,0,1,1.21.64c.12.22.25.1.33-.03a1.1,1.1,0,0,0,.17-.52.421.421,0,0,0-.17-.34A1.345,1.345,0,0,0,115.68-4.81Zm4.21,1.37a4.513,4.513,0,0,1,.09-1.14c.03-.14-.05-.22-.14-.22a1.548,1.548,0,0,0-.27.1,3.671,3.671,0,0,1-.85.22c-.23.04-.28.28-.05.35.37.11.43.24.44.37.02.22.02.43.02.61V-1.5a1.7,1.7,0,0,0,.4,1.27,1.245,1.245,0,0,0,.94.37,2.686,2.686,0,0,0,1.65-.92c.02.5.05.91.3.91a2.049,2.049,0,0,0,1.11-.42c.16-.14.12-.34-.06-.33-.33.03-.42.03-.53-.12a2.425,2.425,0,0,1-.08-.9V-3.49a6.363,6.363,0,0,1,.06-1.04.142.142,0,0,0-.13-.2c-.04,0-.14.04-.31.08a3.651,3.651,0,0,1-.96.11c-.31.01-.32.32-.06.36.53.1.6.18.63.43a3.529,3.529,0,0,1,.02.43v1.93a.316.316,0,0,1-.04.21,1.513,1.513,0,0,1-1.2.64.883.883,0,0,1-.92-.67,3.079,3.079,0,0,1-.06-.78ZM126.26,0c.36,0,.6.02.85.02.35,0,.35-.32.04-.37-.46-.09-.5-.17-.5-.64V-3.31a6.967,6.967,0,0,1,.08-1.28c.02-.15-.04-.22-.14-.22a.528.528,0,0,0-.25.1,2.512,2.512,0,0,1-.85.31c-.24.04-.23.26-.05.33.4.16.43.2.44.36a2.7,2.7,0,0,1,.02.45V-.94c0,.42-.06.5-.49.59-.32.06-.31.37.03.37C125.62.02,125.98,0,126.26,0Zm.02-7.23a.569.569,0,0,0-.56.6.529.529,0,0,0,.53.56.565.565,0,0,0,.56-.61A.544.544,0,0,0,126.28-7.23Zm4.31,4.33c-.38-.15-.68-.33-.68-.79,0-.34.17-.68.76-.68a.9.9,0,0,1,.86.43,1.7,1.7,0,0,1,.17.51c.05.27.36.22.36-.11a7.4,7.4,0,0,1,.1-1.26c.03-.16-.15-.17-.27-.08-.06.04-.11.12-.18.17-.03.02-.04.03-.11.01a2.03,2.03,0,0,0-.66-.11,1.941,1.941,0,0,0-1.2.38,1.287,1.287,0,0,0-.55,1.04,1.294,1.294,0,0,0,.94,1.17c.29.11.67.25.96.37a.79.79,0,0,1,.53.74q0,.81-.87.81a1.12,1.12,0,0,1-1.14-.67c-.04-.11-.12-.33-.14-.39-.09-.3-.4-.24-.37.07.05.5.08.88.08,1.23,0,.28.25.21.36.08.06-.08.11-.06.17-.03a1.957,1.957,0,0,0,.81.16,2.116,2.116,0,0,0,1.08-.29,1.519,1.519,0,0,0,.8-1.33,1.252,1.252,0,0,0-.93-1.12ZM135.23,0c.36,0,.6.02.85.02.35,0,.35-.32.04-.37-.46-.09-.5-.17-.5-.64V-3.31a6.967,6.967,0,0,1,.08-1.28c.02-.15-.04-.22-.14-.22a.528.528,0,0,0-.25.1,2.512,2.512,0,0,1-.85.31c-.24.04-.23.26-.05.33.4.16.43.2.44.36a2.7,2.7,0,0,1,.02.45V-.94c0,.42-.06.5-.49.59-.32.06-.31.37.03.37C134.59.02,134.95,0,135.23,0Zm.02-7.23a.569.569,0,0,0-.56.6.529.529,0,0,0,.53.56.565.565,0,0,0,.56-.61A.544.544,0,0,0,135.25-7.23Zm3.4,5.5a6.954,6.954,0,0,1-.03.94c-.02.29-.05.36-.5.45-.3.05-.31.36.03.36.26,0,.54-.02.87-.02.36,0,.69.02.91.02.32,0,.34-.31.05-.36-.5-.09-.54-.16-.55-.44a5.362,5.362,0,0,1-.03-.8v-1.7a.337.337,0,0,1,.07-.26,1.61,1.61,0,0,1,1.13-.61,1.068,1.068,0,0,1,1.13,1.22v.67c0,.97-.02,1.2-.03,1.4-.01.32-.04.42-.57.52-.31.05-.31.36.05.36.19,0,.58-.02.84-.02.34,0,.61.02.93.02s.34-.31.03-.36c-.44-.08-.5-.12-.5-.44v-2.3c0-1.12-.55-1.73-1.39-1.73a1.569,1.569,0,0,0-.84.26,7.3,7.3,0,0,0-.83.6,3.416,3.416,0,0,0-.05-.7c-.02-.11-.06-.16-.15-.16a.68.68,0,0,0-.26.11,3.518,3.518,0,0,1-.8.4.162.162,0,0,0-.02.31c.46.15.51.24.51.54Zm7.04-1.34c.11-.88.58-1.24,1.11-1.24a1.165,1.165,0,0,1,1.19,1.15c0,.05-.01.09-.05.11a12.039,12.039,0,0,1-1.82.09,3.413,3.413,0,0,1-.37-.02C145.7-2.99,145.69-3.01,145.69-3.07Zm-.03.57a9.951,9.951,0,0,0,2.82-.22c.18-.05.38-.18.38-.36,0-.09-.05-.12-.11-.15a1.58,1.58,0,0,0-1.62-1.58,2.189,2.189,0,0,0-1.4.57,2.63,2.63,0,0,0-.86,2A2.121,2.121,0,0,0,146.84.13a2.611,2.611,0,0,0,1.75-.69c.25-.25.16-.53-.15-.34a1.933,1.933,0,0,1-1.12.36C146.35-.54,145.68-1.17,145.66-2.5Z" transform="translate(223 148)" fill="#8c857c"/>
      </g>
    </g>
  </g>
</svg>
