<svg xmlns="http://www.w3.org/2000/svg" width="285.29" height="45.721" viewBox="0 0 285.29 45.721">
  <g id="グループ_97" data-name="グループ 97" transform="translate(0 5.293)">
    <path id="path2461" d="M77.252,196.707a4.214,4.214,0,0,1-3.2-6.746,4.338,4.338,0,0,1,2.512-1.583,7.488,7.488,0,0,1,1.253-.1h.36l-.2.126a4.006,4.006,0,0,0-1.091,1.014.443.443,0,0,1-.344.245,2.969,2.969,0,0,0-1.743,4.228,3.009,3.009,0,0,0,1.866,1.479l.213.062,19.955.007,19.955.008v1.278l-19.678-.005C86.288,196.717,77.352,196.711,77.252,196.707Zm2.223-1.718a3.086,3.086,0,0,1-.96-.3,3.36,3.36,0,0,1,1.307-6.379c.18-.015,5.019-.025,11.725-.025h11.419l.065-.075a.2.2,0,0,0-.027-.295c-.056-.046-.9-.049-16.837-.049H69.39v-1.25H86.206c14.728,0,16.837.005,16.99.041a1.519,1.519,0,0,1,1.12,1.192,1.5,1.5,0,0,1-1,1.633l-.181.064-11.78.014c-11.262.014-11.788.017-11.947.065a2.163,2.163,0,0,0-1.459,1.421,2.716,2.716,0,0,0-.057,1,2.165,2.165,0,0,0,1.5,1.656l.208.064,17.733.007,17.733.007v1.25l-17.677,0C82.97,195.025,79.668,195.018,79.475,194.988Zm2.737-1.681a1.537,1.537,0,0,1-1.056-.817,1.487,1.487,0,0,1,.917-2.047c.093-.031,2.071-.04,11.891-.052,11.288-.014,11.787-.017,11.946-.065a2.174,2.174,0,0,0,1.332-1.074,1.629,1.629,0,0,0,.223-.986,1.568,1.568,0,0,0-.072-.63,2.116,2.116,0,0,0-1.585-1.424c-.194-.04-1.961-.044-19.15-.044H67.723v-1.251l19.066.008c18.334.007,19.074.009,19.275.058a3.4,3.4,0,0,1,2.575,2.488,3.965,3.965,0,0,1,.066,1.273,3.263,3.263,0,0,1-.972,1.9,3.3,3.3,0,0,1-1.7.933c-.2.048-.771.051-11.936.065-9.523.012-11.735.021-11.771.051a.233.233,0,0,0,.052.363c.051.023,4.1.031,15.529.031h15.46v1.25l-15.524,0C89.309,193.331,82.273,193.32,82.212,193.308Zm25.117-1.769a4.269,4.269,0,0,0,1.149-1.054.417.417,0,0,1,.323-.229,3.316,3.316,0,0,0,.974-.512,2.96,2.96,0,0,0-1.1-5.183l-.267-.074-21.206-.007L66,184.473v-1.25l21.247.008,21.247.007.278.064a4.235,4.235,0,0,1,3.276,5.006,4.472,4.472,0,0,1-1.169,2.116,4.426,4.426,0,0,1-2.072,1.119,5.782,5.782,0,0,1-1.187.1h-.458Zm-34.966-8.823c0-.034.018-.181.04-.326a2.894,2.894,0,0,1,1.641-2.225,2.764,2.764,0,0,1,.931-.272l.236-.026,2.431.483,6.71,1.333,4.279.851-.01.123-.01.123H72.362Zm16.492-.1a2.565,2.565,0,0,1,.746-1.606,2.608,2.608,0,0,1,1.279-.7,3.3,3.3,0,0,1,.987-.01,2.583,2.583,0,0,1,2.074,2.273l.018.2H88.838Zm5.318.038c0-.1.009-.124.062-.137.034-.008,3.026-.606,6.647-1.328,5.341-1.064,6.621-1.311,6.776-1.307a2.947,2.947,0,0,1,2.354,1.444,3.042,3.042,0,0,1,.4,1.262l.019.188H94.172Zm-12.155-1.95c-5.4-1.078-6.615-1.329-6.75-1.393a3.12,3.12,0,0,1-1.148-.97,2.949,2.949,0,0,1-.021-3.331,3.864,3.864,0,0,1,.779-.779,2.981,2.981,0,0,1,2.638-.334c.116.044,1.914,1.231,5.767,3.807,3.079,2.059,5.609,3.753,5.621,3.765a.844.844,0,0,1-.082.288c-.087.22-.116.267-.162.264C88.627,182.023,85.639,181.43,82.017,180.707Zm11.951,1.054a.844.844,0,0,1-.082-.288c.013-.012,2.542-1.707,5.621-3.767,6.23-4.169,5.725-3.856,6.371-3.949A2.953,2.953,0,0,1,108.6,174.9a2.909,2.909,0,0,1,.084,3.41,3.184,3.184,0,0,1-1.178,1.005c-.11.05-1.92.422-6.763,1.39-3.637.727-6.625,1.322-6.641,1.322A.913.913,0,0,1,93.968,181.761Zm-10.41-4.484c-6.081-4.066-5.737-3.822-6.023-4.261a3.475,3.475,0,0,1-.383-.906,3.88,3.88,0,0,1,.011-1.379,2.955,2.955,0,0,1,2.416-2.191,2.5,2.5,0,0,1,.876,0,3.022,3.022,0,0,1,1.392.6l.207.164,3.774,5.644c2.076,3.1,3.778,5.657,3.782,5.673a.981.981,0,0,1-.2.231l-.2.2Zm9.81,3.572a.979.979,0,0,1-.192-.229c.048-.116,7.546-11.3,7.627-11.376a3.014,3.014,0,0,1,2.277-.722,3.418,3.418,0,0,1,.97.274,3,3,0,0,1,1.612,2.133,3.347,3.347,0,0,1-.042,1.222,2.972,2.972,0,0,1-.678,1.251c-.137.14-1.254.9-5.741,3.9-3.064,2.046-5.584,3.729-5.6,3.738S93.48,180.961,93.368,180.849Zm-3.842-1.289c-.292-.438-1.98-2.963-3.751-5.611s-3.244-4.871-3.274-4.941a2.316,2.316,0,0,1-.178-1.053,2.1,2.1,0,0,1,.075-.744,2.954,2.954,0,0,1,2.063-2.092,3.377,3.377,0,0,1,1.3-.055,2.953,2.953,0,0,1,2.07,1.516l.113.209,1.322,6.651c.727,3.658,1.316,6.668,1.308,6.689a.061.061,0,0,1-.05.038,1.62,1.62,0,0,0-.252.095l-.217.095Zm3.166.785a2.158,2.158,0,0,0-.248-.111,1,1,0,0,1-.239-.118c0-.014.58-3.006,1.3-6.648.972-4.919,1.326-6.662,1.377-6.774a3.174,3.174,0,0,1,.984-1.155,2.845,2.845,0,0,1,1.663-.514,2.81,2.81,0,0,1,1.39.336,2.91,2.91,0,0,1,1.393,3.544c-.071.205-.455.791-3.808,5.808-2.051,3.069-3.744,5.6-3.762,5.615S92.7,180.354,92.693,180.345Zm-2.918-6.985-1.327-6.682.03-.261a2.947,2.947,0,0,1,2.188-2.534,3.568,3.568,0,0,1,1.311-.032,2.95,2.95,0,0,1,2.157,1.8,3.406,3.406,0,0,1,.205.916c0,.092-2.526,12.988-2.629,13.421-.012.051-.036.056-.311.056h-.3Z" transform="translate(-66 -163.806)" fill="#8d857b"/>
    <g id="グループ_87" data-name="グループ 87" transform="translate(-161 -114.997)">
      <path id="パス_37" data-name="パス 37" d="M7.536-15.408c.192,0,.216.048.216.408V-4.3c0,1.224-.024,1.848-.048,2.136-.072.888-.24,1.152-1.992,1.344C4.8-.744,4.9.048,5.688.048,6.12.048,7.9,0,8.784,0,9.72,0,10.32.048,11.76.048c1.08,0,1.08-.768.12-.864C10.032-1.008,9.84-1.3,9.816-2.16c-.024-.528-.048-1.008-.048-2.016v-10.9c0-.264.024-.288.168-.288,4.128,0,4.728-.048,5.064.144.312.192.5.672.624,1.752.12.96.96.96.96-.144a14.326,14.326,0,0,1,.336-3.048.414.414,0,0,0-.648-.48,2.2,2.2,0,0,1-1.776.576H3.7c-.72,0-1.152-.048-1.488-.528a.458.458,0,0,0-.792.24,28.63,28.63,0,0,1-.264,3.576c-.1.864.7.864.936.072.456-1.512.72-1.944,1.152-2.088A24.949,24.949,0,0,1,7.536-15.408ZM24.888-6c-.36-.024-.7-.048-.936-.048-2.712,0-5.856,1.224-5.856,3.432A2.731,2.731,0,0,0,20.664.36c1.1,0,2.376-.528,4.1-1.992.048,1.2.144,1.872.912,1.9a4.29,4.29,0,0,0,2.28-.576c.5-.288.5-.936,0-.912-.456,0-1.152.024-1.368-.36a1.035,1.035,0,0,1-.072-.48c0-.288.072-4.008.072-5.568s-.552-3.912-3.408-3.912a9.705,9.705,0,0,0-4.176,1.872.83.83,0,0,0-.336.72,2.443,2.443,0,0,0,.24,1.08c.312.72.864.576,1.056.072.216-.528.336-1.2.576-1.656a1.6,1.6,0,0,1,1.632-.816c1.176,0,2.616.672,2.712,3.048Zm0,2.544a1,1,0,0,1-.288.864A3.36,3.36,0,0,1,21.912-1.2a1.657,1.657,0,0,1-1.848-1.776c0-1.248,1.1-2.016,2.76-2.04a8.892,8.892,0,0,1,1.9.1c.1.024.168.024.168.168Zm8.9-.7A16.69,16.69,0,0,1,33.72-1.9c-.048.7-.12.864-1.2,1.08-.72.12-.744.864.072.864.624,0,1.3-.048,2.088-.048.864,0,1.656.048,2.184.048.768,0,.816-.744.12-.864-1.2-.216-1.3-.384-1.32-1.056a12.869,12.869,0,0,1-.072-1.92v-4.08A.81.81,0,0,1,35.76-8.5,3.864,3.864,0,0,1,38.472-9.96c1.824,0,2.712,1.152,2.712,2.928v1.608c0,2.328-.048,2.88-.072,3.36-.024.768-.1,1.008-1.368,1.248C39-.7,39,.048,39.864.048,40.32.048,41.256,0,41.88,0c.816,0,1.464.048,2.232.048.792,0,.816-.744.072-.864-1.056-.192-1.2-.288-1.2-1.056v-5.52c0-2.688-1.32-4.152-3.336-4.152a3.765,3.765,0,0,0-2.016.624A17.525,17.525,0,0,0,35.64-9.48a8.2,8.2,0,0,0-.12-1.68c-.048-.264-.144-.384-.36-.384a1.631,1.631,0,0,0-.624.264,8.443,8.443,0,0,1-1.92.96.389.389,0,0,0-.048.744c1.1.36,1.224.576,1.224,1.3ZM55.32-6c-.36-.024-.7-.048-.936-.048-2.712,0-5.856,1.224-5.856,3.432A2.731,2.731,0,0,0,51.1.36c1.1,0,2.376-.528,4.1-1.992.048,1.2.144,1.872.912,1.9a4.29,4.29,0,0,0,2.28-.576c.5-.288.5-.936,0-.912-.456,0-1.152.024-1.368-.36a1.035,1.035,0,0,1-.072-.48c0-.288.072-4.008.072-5.568s-.552-3.912-3.408-3.912A9.705,9.705,0,0,0,49.44-9.672a.83.83,0,0,0-.336.72,2.443,2.443,0,0,0,.24,1.08c.312.72.864.576,1.056.072.216-.528.336-1.2.576-1.656a1.6,1.6,0,0,1,1.632-.816c1.176,0,2.616.672,2.712,3.048Zm0,2.544a1,1,0,0,1-.288.864A3.36,3.36,0,0,1,52.344-1.2,1.657,1.657,0,0,1,50.5-2.976c0-1.248,1.1-2.016,2.76-2.04a8.892,8.892,0,0,1,1.9.1c.1.024.168.024.168.168Zm10.488-12.96a10.538,10.538,0,0,1,.144-2.208c.144-.408,0-.672-.288-.672a1.489,1.489,0,0,0-.6.24,10.414,10.414,0,0,1-2.568.768c-.6.12-.576.672-.024.816,1.176.264,1.416.36,1.464,1.032.048.456.048.936.048,2.784v9.144c0,1.9-.048,2.424-.072,2.736-.072.528-.144.768-1.2.96-.744.12-.648.864.072.864C63.552.048,63.96,0,64.992,0c.744,0,1.632.048,2.088.048.792,0,.84-.744.1-.864-1.128-.216-1.272-.432-1.32-.984-.024-.312-.048-.744-.048-2.328v-.624c.384-.264.768-.5,1.176-.792.168-.144.24-.1.288,0,1.3,1.944,2.448,3.5,3.072,4.344.72.96,1.224,1.248,1.68,1.3A9.283,9.283,0,0,0,74.5.072c.84-.144.768-.864.048-.888-1.224-.048-1.536-.192-2.568-1.344-.912-1.08-2.376-2.9-3.456-4.488,1.08-.936,2.136-1.848,3.1-2.64A4.987,4.987,0,0,1,73.3-10.3c.432-.168.552-.336.552-.552,0-.192-.144-.336-.624-.336s-1.2.072-1.9.1c-.72.024-1.536.024-2.088.024-.84,0-.864.768-.072.888.912.168,1.176.24,1.176.408,0,.192-.216.384-.72.888a27.287,27.287,0,0,1-3.816,3.168ZM85.152-6c-.36-.024-.7-.048-.936-.048-2.712,0-5.856,1.224-5.856,3.432A2.731,2.731,0,0,0,80.928.36c1.1,0,2.376-.528,4.1-1.992.048,1.2.144,1.872.912,1.9a4.29,4.29,0,0,0,2.28-.576c.5-.288.5-.936,0-.912-.456,0-1.152.024-1.368-.36a1.035,1.035,0,0,1-.072-.48c0-.288.072-4.008.072-5.568s-.552-3.912-3.408-3.912a9.705,9.705,0,0,0-4.176,1.872.83.83,0,0,0-.336.72,2.443,2.443,0,0,0,.24,1.08c.312.72.864.576,1.056.072.216-.528.336-1.2.576-1.656a1.6,1.6,0,0,1,1.632-.816c1.176,0,2.616.672,2.712,3.048Zm0,2.544a1,1,0,0,1-.288.864A3.36,3.36,0,0,1,82.176-1.2a1.657,1.657,0,0,1-1.848-1.776c0-1.248,1.1-2.016,2.76-2.04a8.892,8.892,0,0,1,1.9.1c.1.024.168.024.168.168ZM93.264-8.64c.864,1.872,2.352,5.28,3.5,8.064a.5.5,0,0,1-.024.384C96.336.6,95.952,1.392,95.5,2.256c-.576.96-.864,1.464-1.464,2.4a3.926,3.926,0,0,0-.72,1.56c0,.408.528.864,1.344.864a.583.583,0,0,0,.648-.456c.192-.6.552-1.68,1.7-4.536,2.28-5.448,4.032-9.144,4.824-10.944.408-.888.576-1.128,1.464-1.344.864-.192.768-.936-.048-.912-.624,0-1.368.048-1.9.048-.7,0-1.44-.048-1.9-.048-.792.024-.792.744-.024.888,1.2.24,1.32.408,1.08,1.272-.24.7-1.272,3.36-2.568,6.216-.048.1-.12.072-.192-.048C97.128-4.368,96-7.1,95.088-9.336c-.192-.528-.072-.672.864-.888.672-.144.648-.888-.12-.888-.456,0-1.56.048-2.04.048-.7,0-1.632-.072-2.232-.048-.768.024-.792.744-.024.864C92.592-10.032,92.712-9.72,93.264-8.64ZM113.784-6c-.36-.024-.7-.048-.936-.048-2.712,0-5.856,1.224-5.856,3.432A2.731,2.731,0,0,0,109.56.36c1.1,0,2.376-.528,4.1-1.992.048,1.2.144,1.872.912,1.9a4.29,4.29,0,0,0,2.28-.576c.5-.288.5-.936,0-.912-.456,0-1.152.024-1.368-.36a1.035,1.035,0,0,1-.072-.48c0-.288.072-4.008.072-5.568s-.552-3.912-3.408-3.912A9.705,9.705,0,0,0,107.9-9.672a.83.83,0,0,0-.336.72,2.443,2.443,0,0,0,.24,1.08c.312.72.864.576,1.056.072.216-.528.336-1.2.576-1.656a1.6,1.6,0,0,1,1.632-.816c1.176,0,2.616.672,2.712,3.048Zm0,2.544a1,1,0,0,1-.288.864A3.36,3.36,0,0,1,110.808-1.2a1.657,1.657,0,0,1-1.848-1.776c0-1.248,1.1-2.016,2.76-2.04a8.892,8.892,0,0,1,1.9.1c.1.024.168.024.168.168Z" transform="translate(223 129)" fill="#8d857b"/>
      <path id="パス_38" data-name="パス 38" d="M5.2-4.5c.135-.015.2.015.285.165.66,1.02,1.215,1.92,1.875,2.85C8.25-.15,8.64-.03,9.195.045A7.552,7.552,0,0,0,10.62.03c.57-.045.6-.51.045-.555a3.4,3.4,0,0,1-.7-.135c-.33-.105-.6-.375-1.05-.945C8.025-2.7,7.3-3.765,6.585-4.83A3.154,3.154,0,0,0,8.805-7.7c0-.93-.465-2.7-3.57-2.7-1.155,0-1.875.045-2.625.045-.36,0-1.035-.03-1.335-.03-.57,0-.585.465-.015.54.81.12,1.02.27,1.05.66s.045.66.045,1.77v4.44c0,.93,0,1.335-.03,1.725-.03.435-.075.6-1.065.735C.72-.45.7.03,1.32.03c.5,0,.99-.03,1.665-.03C3.735,0,4.26.03,4.71.03c.555,0,.57-.465.045-.54-.99-.135-1.08-.315-1.11-.81-.015-.2-.03-.705-.03-1.47V-4.44C4.14-4.44,4.74-4.455,5.2-4.5Zm-1.59-.9V-7.485a8.461,8.461,0,0,1,.06-2.07c.09-.12.51-.195,1.125-.195a2.342,2.342,0,0,1,2.61,2.5c0,1.815-1.2,2.085-2.58,2.085a4.553,4.553,0,0,1-1.11-.09C3.63-5.28,3.615-5.31,3.615-5.4Zm9.285,0c.54,1.17,1.47,3.3,2.19,5.04a.315.315,0,0,1-.015.24c-.255.5-.5.99-.78,1.53-.36.6-.54.915-.915,1.5a2.454,2.454,0,0,0-.45.975c0,.255.33.54.84.54a.364.364,0,0,0,.4-.285c.12-.375.345-1.05,1.065-2.835,1.425-3.4,2.52-5.715,3.015-6.84.255-.555.36-.705.915-.84s.48-.585-.03-.57c-.39,0-.855.03-1.185.03-.435,0-.9-.03-1.185-.03-.495.015-.495.465-.015.555.75.15.825.255.675.8-.15.435-.8,2.1-1.6,3.885-.03.06-.075.045-.12-.03-.39-.99-1.1-2.7-1.665-4.1-.12-.33-.045-.42.54-.555.42-.09.405-.555-.075-.555-.285,0-.975.03-1.275.03-.435,0-1.02-.045-1.4-.03-.48.015-.495.465-.015.54C12.48-6.27,12.555-6.075,12.9-5.4ZM25.395-7.215a4.085,4.085,0,0,0-2.655,1.02A3.575,3.575,0,0,0,21.465-3.27,3.313,3.313,0,0,0,24.645.27,4.014,4.014,0,0,0,27.66-1.17a3.938,3.938,0,0,0,.885-2.685A3.255,3.255,0,0,0,25.395-7.215Zm1.89,3.93c0,1.71-.81,2.82-2.01,2.82-1.86,0-2.565-1.68-2.565-3.285,0-1.065.36-2.7,2.04-2.7C26.625-6.45,27.285-4.62,27.285-3.285Zm5.97-6.975a6.587,6.587,0,0,1,.09-1.38c.09-.255,0-.42-.18-.42a.931.931,0,0,0-.375.15,6.509,6.509,0,0,1-1.6.48c-.375.075-.36.42-.015.51.735.165.885.225.915.645.03.285.03.585.03,1.74V-2.82c0,1.185-.03,1.515-.045,1.71-.045.33-.09.48-.75.6-.465.075-.4.54.045.54.48,0,.735-.03,1.38-.03.465,0,1.02.03,1.305.03.5,0,.525-.465.06-.54-.705-.135-.795-.27-.825-.615-.015-.195-.03-.465-.03-1.455v-.39c.24-.165.48-.315.735-.5.1-.09.15-.06.18,0,.81,1.215,1.53,2.19,1.92,2.715.45.6.765.78,1.05.81A5.8,5.8,0,0,0,38.685.045c.525-.09.48-.54.03-.555-.765-.03-.96-.12-1.6-.84-.57-.675-1.485-1.815-2.16-2.805.675-.585,1.335-1.155,1.935-1.65a3.117,3.117,0,0,1,1.05-.63c.27-.105.345-.21.345-.345s-.09-.21-.39-.21-.75.045-1.185.06c-.45.015-.96.015-1.305.015-.525,0-.54.48-.045.555.57.105.735.15.735.255,0,.12-.135.24-.45.555a17.054,17.054,0,0,1-2.385,1.98Zm12.09,6.51c-.225-.015-.435-.03-.585-.03-1.695,0-3.66.765-3.66,2.145a1.707,1.707,0,0,0,1.6,1.86A4.121,4.121,0,0,0,45.27-1.02c.03.75.09,1.17.57,1.185A2.681,2.681,0,0,0,47.265-.2c.315-.18.315-.585,0-.57-.285,0-.72.015-.855-.225a.647.647,0,0,1-.045-.3c0-.18.045-2.5.045-3.48s-.345-2.445-2.13-2.445a6.066,6.066,0,0,0-2.61,1.17.518.518,0,0,0-.21.45,1.527,1.527,0,0,0,.15.675c.195.45.54.36.66.045.135-.33.21-.75.36-1.035a1,1,0,0,1,1.02-.51c.735,0,1.635.42,1.695,1.905Zm0,1.59a.628.628,0,0,1-.18.54,2.1,2.1,0,0,1-1.68.87A1.036,1.036,0,0,1,42.33-1.86c0-.78.69-1.26,1.725-1.275a5.557,5.557,0,0,1,1.185.06c.06.015.1.015.1.105Zm5.565-.435a10.431,10.431,0,0,1-.045,1.41c-.03.435-.075.54-.75.675-.45.075-.465.54.045.54.39,0,.81-.03,1.305-.03C52,0,52.5.03,52.83.03c.48,0,.51-.465.075-.54-.75-.135-.81-.24-.825-.66a8.044,8.044,0,0,1-.045-1.2V-4.92a.506.506,0,0,1,.1-.39,2.415,2.415,0,0,1,1.695-.915,1.6,1.6,0,0,1,1.695,1.83V-3.39c0,1.455-.03,1.8-.045,2.1-.015.48-.06.63-.855.78-.465.075-.465.54.075.54.285,0,.87-.03,1.26-.03.51,0,.915.03,1.4.03s.51-.465.045-.54c-.66-.12-.75-.18-.75-.66V-4.62c0-1.68-.825-2.6-2.085-2.6a2.353,2.353,0,0,0-1.26.39,10.953,10.953,0,0,0-1.245.9,5.123,5.123,0,0,0-.075-1.05c-.03-.165-.09-.24-.225-.24a1.02,1.02,0,0,0-.39.165,5.277,5.277,0,0,1-1.2.6.243.243,0,0,0-.03.465c.69.225.765.36.765.81Zm15.645.15A9.674,9.674,0,0,1,66.51-1.26c-.03.48-.075.615-.705.735-.525.09-.525.555.045.555.27,0,.765-.03,1.38-.03.72,0,1.02.03,1.35.03.6,0,.615-.5.03-.555-.78-.105-.855-.2-.885-.72-.015-.255-.03-.66-.03-1.26V-6.09h.615c.78,0,.915-.03.975-.105a1.271,1.271,0,0,0,.24-.63c0-.105-.06-.165-.165-.135a5.086,5.086,0,0,1-.81.045h-.855V-7.14c0-3.6.825-3.915,1.62-3.915a2.013,2.013,0,0,1,1.485.765.261.261,0,0,0,.39-.045,1.348,1.348,0,0,0,.4-.84.649.649,0,0,0-.195-.48,1.731,1.731,0,0,0-1.29-.405A3.493,3.493,0,0,0,67.425-10.4a5.418,5.418,0,0,0-.87,3.48,3.606,3.606,0,0,0-.96.06,1.016,1.016,0,0,0-.36.54c0,.105.03.18.12.2s.48.03,1.2.03Zm8.955-4.77a4.085,4.085,0,0,0-2.655,1.02A3.575,3.575,0,0,0,71.58-3.27,3.313,3.313,0,0,0,74.76.27a4.014,4.014,0,0,0,3.015-1.44,3.938,3.938,0,0,0,.885-2.685A3.255,3.255,0,0,0,75.51-7.215Zm1.89,3.93c0,1.71-.81,2.82-2.01,2.82-1.86,0-2.565-1.68-2.565-3.285,0-1.065.36-2.7,2.04-2.7C76.74-6.45,77.4-4.62,77.4-3.285Zm8.265-3.93c-.48,0-.93.24-2.175,1.47A7.627,7.627,0,0,0,83.4-6.93c-.03-.165-.1-.285-.225-.285a.478.478,0,0,0-.255.09,12.907,12.907,0,0,1-1.365.69c-.24.105-.24.36,0,.45.57.18.72.285.735.51a4.963,4.963,0,0,1,.045.99v2.46a5.848,5.848,0,0,1-.045.945c-.03.36-.06.42-.69.585-.4.1-.36.525.045.525.36,0,.75-.03,1.395-.03s1.17.03,1.485.03c.42,0,.48-.42.03-.51-.87-.165-1-.225-1.035-.66-.015-.225-.03-.525-.03-.9V-4.995a.316.316,0,0,1,.075-.225,1.708,1.708,0,0,1,1.29-.72,1.035,1.035,0,0,1,.795.375c.225.255.255.285.39.285s.285-.165.33-.285a1.514,1.514,0,0,0,.21-.8A.869.869,0,0,0,85.665-7.215Zm10.41,4.53a11.467,11.467,0,0,1-.45,4.215,1.383,1.383,0,0,1-1.305.885,2.71,2.71,0,0,1-1.41-.465.157.157,0,0,0-.225.06,1.343,1.343,0,0,0-.165.69c.015.48.585.78,1.17.78a2.467,2.467,0,0,0,1.68-.735c.645-.57,1.965-1.875,1.965-5.43v-5.04c0-.96.015-1.185.03-1.44.03-.33.075-.57,1.02-.69.525-.06.54-.525,0-.525-.345,0-1.455.03-1.92.03-.3,0-1.275-.03-1.59-.03-.585,0-.645.465-.06.525,1.065.12,1.2.255,1.23.75.015.225.03.87.03,1.47ZM105-3.75c-.225-.015-.435-.03-.585-.03-1.695,0-3.66.765-3.66,2.145A1.707,1.707,0,0,0,102.36.225a4.121,4.121,0,0,0,2.565-1.245c.03.75.09,1.17.57,1.185A2.681,2.681,0,0,0,106.92-.2c.315-.18.315-.585,0-.57-.285,0-.72.015-.855-.225a.647.647,0,0,1-.045-.3c0-.18.045-2.5.045-3.48s-.345-2.445-2.13-2.445a6.066,6.066,0,0,0-2.61,1.17.518.518,0,0,0-.21.45,1.527,1.527,0,0,0,.15.675c.195.45.54.36.66.045s.21-.75.36-1.035a1,1,0,0,1,1.02-.51c.735,0,1.635.42,1.695,1.905Zm0,1.59a.628.628,0,0,1-.18.54,2.1,2.1,0,0,1-1.68.87,1.036,1.036,0,0,1-1.155-1.11c0-.78.69-1.26,1.725-1.275a5.557,5.557,0,0,1,1.185.06c.06.015.1.015.1.105Zm6.555-2.715c0-.255.015-.345.12-.42a2.659,2.659,0,0,1,1.92-.9c1.05,0,2.13.81,2.13,2.715,0,1.71-.72,2.865-2.4,2.865a2.9,2.9,0,0,1-1.68-.465c-.075-.06-.09-.105-.09-.225Zm0,4.89a2.751,2.751,0,0,0,1.11.24A4.369,4.369,0,0,0,115.2-.66a4.073,4.073,0,0,0,1.77-3.465,2.871,2.871,0,0,0-2.55-3.09c-.87,0-1.335.285-2.865,1.335-.015-.825-.09-1.335-.36-1.335a6.792,6.792,0,0,0-1.71.69c-.24.165-.225.435.075.495.75.135.8.27.825.63.015.24.03.69.03,1.32V.885c0,1.11-.015,1.8-.045,2.2-.045.33-.075.435-.78.63-.39.09-.36.525.06.525.3,0,1.11-.12,2.355-.12h.6c.495,0,.495-.465,0-.54-.9-.135-1.05-.195-1.05-.99Zm12.42-3.765c-.225-.015-.435-.03-.585-.03-1.695,0-3.66.765-3.66,2.145a1.707,1.707,0,0,0,1.605,1.86A4.121,4.121,0,0,0,123.9-1.02c.03.75.09,1.17.57,1.185a2.681,2.681,0,0,0,1.425-.36c.315-.18.315-.585,0-.57-.285,0-.72.015-.855-.225a.647.647,0,0,1-.045-.3c0-.18.045-2.5.045-3.48s-.345-2.445-2.13-2.445a6.066,6.066,0,0,0-2.61,1.17.518.518,0,0,0-.21.45,1.527,1.527,0,0,0,.15.675c.195.45.54.36.66.045s.21-.75.36-1.035a1,1,0,0,1,1.02-.51c.735,0,1.635.42,1.695,1.905Zm0,1.59a.628.628,0,0,1-.18.54,2.1,2.1,0,0,1-1.68.87,1.036,1.036,0,0,1-1.155-1.11c0-.78.69-1.26,1.725-1.275a5.557,5.557,0,0,1,1.185.06c.06.015.105.015.105.105Zm5.565-.435a10.431,10.431,0,0,1-.045,1.41c-.03.435-.075.54-.75.675-.45.075-.465.54.045.54.39,0,.81-.03,1.305-.03.54,0,1.035.03,1.365.03.48,0,.51-.465.075-.54-.75-.135-.81-.24-.825-.66a8.044,8.044,0,0,1-.045-1.2V-4.92a.506.506,0,0,1,.1-.39,2.415,2.415,0,0,1,1.7-.915,1.6,1.6,0,0,1,1.7,1.83V-3.39c0,1.455-.03,1.8-.045,2.1-.015.48-.06.63-.855.78-.465.075-.465.54.075.54.285,0,.87-.03,1.26-.03.51,0,.915.03,1.395.03.5,0,.51-.465.045-.54-.66-.12-.75-.18-.75-.66V-4.62c0-1.68-.825-2.6-2.085-2.6a2.353,2.353,0,0,0-1.26.39,10.953,10.953,0,0,0-1.245.9,5.124,5.124,0,0,0-.075-1.05c-.03-.165-.09-.24-.225-.24a1.02,1.02,0,0,0-.39.165,5.276,5.276,0,0,1-1.2.6.243.243,0,0,0-.03.465c.69.225.765.36.765.81Zm10.56-2.01c.165-1.32.87-1.86,1.665-1.86A1.748,1.748,0,0,1,143.55-4.74c0,.075-.015.135-.075.165a18.058,18.058,0,0,1-2.73.135,5.12,5.12,0,0,1-.555-.03C140.115-4.485,140.1-4.515,140.1-4.605Zm-.045.855a14.927,14.927,0,0,0,4.23-.33c.27-.075.57-.27.57-.54,0-.135-.075-.18-.165-.225a2.37,2.37,0,0,0-2.43-2.37,3.283,3.283,0,0,0-2.1.855,3.944,3.944,0,0,0-1.29,3c0,2.04,1.215,3.555,2.955,3.555A3.916,3.916,0,0,0,144.45-.84c.375-.375.24-.795-.225-.51a2.9,2.9,0,0,1-1.68.54C141.09-.81,140.085-1.755,140.055-3.75Zm9.765-.6c-.57-.225-1.02-.5-1.02-1.185,0-.51.255-1.02,1.14-1.02a1.356,1.356,0,0,1,1.29.645,2.542,2.542,0,0,1,.255.765c.075.4.54.33.54-.165a11.1,11.1,0,0,1,.15-1.89c.045-.24-.225-.255-.4-.12-.09.06-.165.18-.27.255-.045.03-.06.045-.165.015a3.045,3.045,0,0,0-.99-.165,2.912,2.912,0,0,0-1.8.57,1.931,1.931,0,0,0-.825,1.56,1.941,1.941,0,0,0,1.41,1.755c.435.165,1.005.375,1.44.555a1.184,1.184,0,0,1,.795,1.11q0,1.215-1.305,1.215a1.68,1.68,0,0,1-1.71-1.005c-.06-.165-.18-.495-.21-.585-.135-.45-.6-.36-.555.105.075.75.12,1.32.12,1.845,0,.42.375.315.54.12.09-.12.165-.09.255-.045a2.935,2.935,0,0,0,1.215.24,3.174,3.174,0,0,0,1.62-.435,2.279,2.279,0,0,0,1.2-1.995,1.878,1.878,0,0,0-1.4-1.68Zm6.765-.255c.165-1.32.87-1.86,1.665-1.86a1.748,1.748,0,0,1,1.785,1.725c0,.075-.015.135-.075.165a18.058,18.058,0,0,1-2.73.135,5.12,5.12,0,0,1-.555-.03C156.6-4.485,156.585-4.515,156.585-4.605Zm-.045.855a14.927,14.927,0,0,0,4.23-.33c.27-.075.57-.27.57-.54,0-.135-.075-.18-.165-.225a2.37,2.37,0,0,0-2.43-2.37,3.283,3.283,0,0,0-2.1.855,3.944,3.944,0,0,0-1.29,3C155.355-1.32,156.57.2,158.31.2A3.916,3.916,0,0,0,160.935-.84c.375-.375.24-.795-.225-.51a2.9,2.9,0,0,1-1.68.54C157.575-.81,156.57-1.755,156.54-3.75Zm16.98-3.465a4.136,4.136,0,0,0-2.3.72,3.837,3.837,0,0,0-1.785,3.21A3.236,3.236,0,0,0,172.365.2,3.692,3.692,0,0,0,175.17-1c.36-.4.165-.795-.255-.48a2.738,2.738,0,0,1-1.755.66c-1.065,0-2.475-.66-2.475-2.94,0-1.83.81-2.625,1.965-2.625a1.937,1.937,0,0,1,1.815.96c.18.33.375.15.495-.045a1.644,1.644,0,0,0,.255-.78.632.632,0,0,0-.255-.51A2.017,2.017,0,0,0,173.52-7.215Zm6.315,2.055a6.769,6.769,0,0,1,.135-1.71c.045-.21-.075-.33-.21-.33a2.322,2.322,0,0,0-.4.15,5.507,5.507,0,0,1-1.275.33c-.345.06-.42.42-.075.525.555.165.645.36.66.555.03.33.03.645.03.915V-2.25a2.546,2.546,0,0,0,.6,1.905,1.867,1.867,0,0,0,1.41.555,4.029,4.029,0,0,0,2.475-1.38c.03.75.075,1.365.45,1.365a3.073,3.073,0,0,0,1.665-.63c.24-.21.18-.51-.09-.5-.495.045-.63.045-.795-.18a3.637,3.637,0,0,1-.12-1.35V-5.235a9.544,9.544,0,0,1,.09-1.56.212.212,0,0,0-.195-.3c-.06,0-.21.06-.465.12a5.476,5.476,0,0,1-1.44.165c-.465.015-.48.48-.09.54.795.15.9.27.945.645a5.291,5.291,0,0,1,.03.645v2.895a.474.474,0,0,1-.06.315,2.27,2.27,0,0,1-1.8.96,1.325,1.325,0,0,1-1.38-1,4.619,4.619,0,0,1-.09-1.17ZM189.39,0c.54,0,.9.03,1.275.03.525,0,.525-.48.06-.555-.69-.135-.75-.255-.75-.96v-3.48a10.449,10.449,0,0,1,.12-1.92c.03-.225-.06-.33-.21-.33a.792.792,0,0,0-.375.15,3.769,3.769,0,0,1-1.275.465c-.36.06-.345.39-.075.495.6.24.645.3.66.54a4.049,4.049,0,0,1,.03.675v3.48c0,.63-.09.75-.735.885-.48.09-.465.555.045.555C188.43.03,188.97,0,189.39,0Zm.03-10.845a.854.854,0,0,0-.84.9.793.793,0,0,0,.8.84.847.847,0,0,0,.84-.915A.816.816,0,0,0,189.42-10.845Zm6.465,6.5c-.57-.225-1.02-.5-1.02-1.185,0-.51.255-1.02,1.14-1.02a1.356,1.356,0,0,1,1.29.645,2.542,2.542,0,0,1,.255.765c.075.4.54.33.54-.165a11.1,11.1,0,0,1,.15-1.89c.045-.24-.225-.255-.4-.12-.09.06-.165.18-.27.255-.045.03-.06.045-.165.015a3.045,3.045,0,0,0-.99-.165,2.912,2.912,0,0,0-1.8.57,1.931,1.931,0,0,0-.825,1.56A1.941,1.941,0,0,0,195.2-3.33c.435.165,1.005.375,1.44.555a1.184,1.184,0,0,1,.795,1.11q0,1.215-1.305,1.215a1.68,1.68,0,0,1-1.71-1.005c-.06-.165-.18-.495-.21-.585-.135-.45-.6-.36-.555.105.075.75.12,1.32.12,1.845,0,.42.375.315.54.12.09-.12.165-.09.255-.045a2.935,2.935,0,0,0,1.215.24A3.174,3.174,0,0,0,197.4-.21,2.279,2.279,0,0,0,198.6-2.2a1.878,1.878,0,0,0-1.4-1.68ZM202.845,0c.54,0,.9.03,1.275.03.525,0,.525-.48.06-.555-.69-.135-.75-.255-.75-.96v-3.48a10.449,10.449,0,0,1,.12-1.92c.03-.225-.06-.33-.21-.33a.792.792,0,0,0-.375.15,3.769,3.769,0,0,1-1.275.465c-.36.06-.345.39-.075.495.6.24.645.3.66.54a4.049,4.049,0,0,1,.03.675v3.48c0,.63-.09.75-.735.885-.48.09-.465.555.045.555C201.885.03,202.425,0,202.845,0Zm.03-10.845a.854.854,0,0,0-.84.9.793.793,0,0,0,.8.84.847.847,0,0,0,.84-.915A.816.816,0,0,0,202.875-10.845Zm5.1,8.25a10.431,10.431,0,0,1-.045,1.41c-.03.435-.075.54-.75.675-.45.075-.465.54.045.54.39,0,.81-.03,1.305-.03.54,0,1.035.03,1.365.03.48,0,.51-.465.075-.54-.75-.135-.81-.24-.825-.66a8.044,8.044,0,0,1-.045-1.2V-4.92a.506.506,0,0,1,.1-.39,2.415,2.415,0,0,1,1.7-.915,1.6,1.6,0,0,1,1.7,1.83V-3.39c0,1.455-.03,1.8-.045,2.1-.015.48-.06.63-.855.78-.465.075-.465.54.075.54.285,0,.87-.03,1.26-.03.51,0,.915.03,1.395.03.5,0,.51-.465.045-.54-.66-.12-.75-.18-.75-.66V-4.62c0-1.68-.825-2.6-2.085-2.6a2.353,2.353,0,0,0-1.26.39,10.953,10.953,0,0,0-1.245.9,5.124,5.124,0,0,0-.075-1.05c-.03-.165-.09-.24-.225-.24a1.02,1.02,0,0,0-.39.165,5.276,5.276,0,0,1-1.2.6.243.243,0,0,0-.03.465c.69.225.765.36.765.81Zm10.56-2.01c.165-1.32.87-1.86,1.665-1.86a1.748,1.748,0,0,1,1.785,1.725c0,.075-.015.135-.075.165a18.058,18.058,0,0,1-2.73.135,5.12,5.12,0,0,1-.555-.03C218.55-4.485,218.535-4.515,218.535-4.605Zm-.045.855a14.927,14.927,0,0,0,4.23-.33c.27-.075.57-.27.57-.54,0-.135-.075-.18-.165-.225a2.37,2.37,0,0,0-2.43-2.37,3.283,3.283,0,0,0-2.1.855,3.944,3.944,0,0,0-1.29,3C217.305-1.32,218.52.2,220.26.2A3.916,3.916,0,0,0,222.885-.84c.375-.375.24-.795-.225-.51a2.9,2.9,0,0,1-1.68.54C219.525-.81,218.52-1.755,218.49-3.75Z" transform="translate(223 151)" fill="#8d857b"/>
    </g>
  </g>
</svg>
