<svg xmlns="http://www.w3.org/2000/svg" width="64" height="76" viewBox="0 0 64 76">
  <g id="グループ_95" data-name="グループ 95" transform="translate(-642 -4335)">
    <g id="グループ_17" data-name="グループ 17" transform="translate(-29 -154.937)">
      <circle id="楕円形_1" data-name="楕円形 1" cx="32" cy="32" r="32" transform="translate(671 4489.937)"/>
      <path id="多角形_1" data-name="多角形 1" d="M12,0,24,20H0Z" transform="translate(715 4565.937) rotate(180)"/>
    </g>
    <path id="path2461" d="M77.252,196.707a4.214,4.214,0,0,1-3.2-6.746,4.338,4.338,0,0,1,2.512-1.583,7.488,7.488,0,0,1,1.253-.1h.36l-.2.126a4.006,4.006,0,0,0-1.091,1.014.443.443,0,0,1-.344.245,2.969,2.969,0,0,0-1.743,4.228,3.009,3.009,0,0,0,1.866,1.479l.213.062,19.955.007,19.955.008v1.278l-19.678-.005C86.288,196.717,77.352,196.711,77.252,196.707Zm2.223-1.718a3.086,3.086,0,0,1-.96-.3,3.36,3.36,0,0,1,1.307-6.379c.18-.015,5.019-.025,11.725-.025h11.419l.065-.075a.2.2,0,0,0-.027-.295c-.056-.046-.9-.049-16.837-.049H69.39v-1.25H86.206c14.728,0,16.837.005,16.99.041a1.519,1.519,0,0,1,1.12,1.192,1.5,1.5,0,0,1-1,1.633l-.181.064-11.78.014c-11.262.014-11.788.017-11.947.065a2.163,2.163,0,0,0-1.459,1.421,2.716,2.716,0,0,0-.057,1,2.165,2.165,0,0,0,1.5,1.656l.208.064,17.733.007,17.733.007v1.25l-17.677,0C82.97,195.025,79.668,195.018,79.475,194.988Zm2.737-1.681a1.537,1.537,0,0,1-1.056-.817,1.487,1.487,0,0,1,.917-2.047c.093-.031,2.071-.04,11.891-.052,11.288-.014,11.787-.017,11.946-.065a2.174,2.174,0,0,0,1.332-1.074,1.629,1.629,0,0,0,.223-.986,1.568,1.568,0,0,0-.072-.63,2.116,2.116,0,0,0-1.585-1.424c-.194-.04-1.961-.044-19.15-.044H67.723v-1.251l19.066.008c18.334.007,19.074.009,19.275.058a3.4,3.4,0,0,1,2.575,2.488,3.965,3.965,0,0,1,.066,1.273,3.263,3.263,0,0,1-.972,1.9,3.3,3.3,0,0,1-1.7.933c-.2.048-.771.051-11.936.065-9.523.012-11.735.021-11.771.051a.233.233,0,0,0,.052.363c.051.023,4.1.031,15.529.031h15.46v1.25l-15.524,0C89.309,193.331,82.273,193.32,82.212,193.308Zm25.117-1.769a4.269,4.269,0,0,0,1.149-1.054.417.417,0,0,1,.323-.229,3.316,3.316,0,0,0,.974-.512,2.96,2.96,0,0,0-1.1-5.183l-.267-.074-21.206-.007L66,184.473v-1.25l21.247.008,21.247.007.278.064a4.235,4.235,0,0,1,3.276,5.006,4.472,4.472,0,0,1-1.169,2.116,4.426,4.426,0,0,1-2.072,1.119,5.782,5.782,0,0,1-1.187.1h-.458Zm-34.966-8.823c0-.034.018-.181.04-.326a2.894,2.894,0,0,1,1.641-2.225,2.764,2.764,0,0,1,.931-.272l.236-.026,2.431.483,6.71,1.333,4.279.851-.01.123-.01.123H72.362Zm16.492-.1a2.565,2.565,0,0,1,.746-1.606,2.608,2.608,0,0,1,1.279-.7,3.3,3.3,0,0,1,.987-.01,2.583,2.583,0,0,1,2.074,2.273l.018.2H88.838Zm5.318.038c0-.1.009-.124.062-.137.034-.008,3.026-.606,6.647-1.328,5.341-1.064,6.621-1.311,6.776-1.307a2.947,2.947,0,0,1,2.354,1.444,3.042,3.042,0,0,1,.4,1.262l.019.188H94.172Zm-12.155-1.95c-5.4-1.078-6.615-1.329-6.75-1.393a3.12,3.12,0,0,1-1.148-.97,2.949,2.949,0,0,1-.021-3.331,3.864,3.864,0,0,1,.779-.779,2.981,2.981,0,0,1,2.638-.334c.116.044,1.914,1.231,5.767,3.807,3.079,2.059,5.609,3.753,5.621,3.765a.844.844,0,0,1-.082.288c-.087.22-.116.267-.162.264C88.627,182.023,85.639,181.43,82.017,180.707Zm11.951,1.054a.844.844,0,0,1-.082-.288c.013-.012,2.542-1.707,5.621-3.767,6.23-4.169,5.725-3.856,6.371-3.949A2.953,2.953,0,0,1,108.6,174.9a2.909,2.909,0,0,1,.084,3.41,3.184,3.184,0,0,1-1.178,1.005c-.11.05-1.92.422-6.763,1.39-3.637.727-6.625,1.322-6.641,1.322A.913.913,0,0,1,93.968,181.761Zm-10.41-4.484c-6.081-4.066-5.737-3.822-6.023-4.261a3.475,3.475,0,0,1-.383-.906,3.88,3.88,0,0,1,.011-1.379,2.955,2.955,0,0,1,2.416-2.191,2.5,2.5,0,0,1,.876,0,3.022,3.022,0,0,1,1.392.6l.207.164,3.774,5.644c2.076,3.1,3.778,5.657,3.782,5.673a.981.981,0,0,1-.2.231l-.2.2Zm9.81,3.572a.979.979,0,0,1-.192-.229c.048-.116,7.546-11.3,7.627-11.376a3.014,3.014,0,0,1,2.277-.722,3.418,3.418,0,0,1,.97.274,3,3,0,0,1,1.612,2.133,3.347,3.347,0,0,1-.042,1.222,2.972,2.972,0,0,1-.678,1.251c-.137.14-1.254.9-5.741,3.9-3.064,2.046-5.584,3.729-5.6,3.738S93.48,180.961,93.368,180.849Zm-3.842-1.289c-.292-.438-1.98-2.963-3.751-5.611s-3.244-4.871-3.274-4.941a2.316,2.316,0,0,1-.178-1.053,2.1,2.1,0,0,1,.075-.744,2.954,2.954,0,0,1,2.063-2.092,3.377,3.377,0,0,1,1.3-.055,2.953,2.953,0,0,1,2.07,1.516l.113.209,1.322,6.651c.727,3.658,1.316,6.668,1.308,6.689a.061.061,0,0,1-.05.038,1.62,1.62,0,0,0-.252.095l-.217.095Zm3.166.785a2.158,2.158,0,0,0-.248-.111,1,1,0,0,1-.239-.118c0-.014.58-3.006,1.3-6.648.972-4.919,1.326-6.662,1.377-6.774a3.174,3.174,0,0,1,.984-1.155,2.845,2.845,0,0,1,1.663-.514,2.81,2.81,0,0,1,1.39.336,2.91,2.91,0,0,1,1.393,3.544c-.071.205-.455.791-3.808,5.808-2.051,3.069-3.744,5.6-3.762,5.615S92.7,180.354,92.693,180.345Zm-2.918-6.985-1.327-6.682.03-.261a2.947,2.947,0,0,1,2.188-2.534,3.568,3.568,0,0,1,1.311-.032,2.95,2.95,0,0,1,2.157,1.8,3.406,3.406,0,0,1,.205.916c0,.092-2.526,12.988-2.629,13.421-.012.051-.036.056-.311.056h-.3Z" transform="translate(581.739 4184.191)" fill="#fff"/>
  </g>
</svg>
