<svg xmlns="http://www.w3.org/2000/svg" width="301.001" height="471" viewBox="0 0 301.001 471">
  <g id="グループ_90" data-name="グループ 90" transform="translate(-37 -760)">
    <rect id="長方形_1157" data-name="長方形 1157" width="301" height="78" transform="translate(37 808)" fill="#f4f4f4"/>
    <rect id="長方形_1158" data-name="長方形 1158" width="301" height="48" transform="translate(37 1086)" fill="#f4f4f4"/>
    <rect id="長方形_1159" data-name="長方形 1159" width="301" height="74" transform="translate(37 964)" fill="#f4f4f4"/>
    <rect id="長方形_1160" data-name="長方形 1160" width="301" height="48" transform="translate(37 1182)" fill="#f4f4f4"/>
    <path id="パス_33" data-name="パス 33" d="M0,0H301" transform="translate(37 808.5)" fill="none" stroke="#707070" stroke-width="1"/>
    <line id="線_3" data-name="線 3" x2="301" transform="translate(37 886.5)" fill="none" stroke="#707070" stroke-width="1"/>
    <line id="線_2" data-name="線 2" x2="301" transform="translate(37 964.5)" fill="none" stroke="#707070" stroke-width="1"/>
    <line id="線_3-2" data-name="線 3" x2="301" transform="translate(37 1037.73)" fill="none" stroke="#707070" stroke-width="1"/>
    <path id="パス_24" data-name="パス 24" d="M0,0,301-.066" transform="translate(37 1086.5)" fill="none" stroke="#707070" stroke-width="1"/>
    <line id="線_3-3" data-name="線 3" x2="301" transform="translate(37 1134.5)" fill="none" stroke="#707070" stroke-width="1"/>
    <line id="線_2-2" data-name="線 2" x2="301" transform="translate(37 1182.5)" fill="none" stroke="#707070" stroke-width="1"/>
    <line id="線_3-4" data-name="線 3" x2="301" transform="translate(37 1230.5)" fill="none" stroke="#707070" stroke-width="1"/>
    <path id="パス_26" data-name="パス 26" d="M68.552,13.744a9.946,9.946,0,0,1-.1,1.376h1.088V14.5h7.024v.624h1.1a8.984,8.984,0,0,1-.1-1.376V11.536c0-.4.016-.624.032-.976.88.272,1.232.368,2.256.624a3.8,3.8,0,0,1,.48-1.072,17.872,17.872,0,0,1-6.416-2.176,22.773,22.773,0,0,0,2.944-2.56c.144-.16.176-.192.288-.3L76.568,4.5a11.768,11.768,0,0,1-1.456.064H71.624c.3-.352.3-.352.384-.448.08-.112.144-.176.176-.224a1.43,1.43,0,0,1,.208-.224L71.352,3.3A9.007,9.007,0,0,1,69.528,5.52a12.031,12.031,0,0,1-3.136,2.016,2.64,2.64,0,0,1,.688.768A13.994,13.994,0,0,0,70.152,6.1a12.525,12.525,0,0,0,2.112,1.84,18.461,18.461,0,0,1-6.576,2.384,2.839,2.839,0,0,1,.528.944,22.8,22.8,0,0,0,2.3-.656c.016.32.032.592.032.928Zm2.336-8.368h4.688A17.248,17.248,0,0,1,73.1,7.424a12.26,12.26,0,0,1-2.32-1.936Zm-.992,4.96H69.3A19.959,19.959,0,0,0,73.1,8.5,16.824,16.824,0,0,0,76.92,10.32c-.256.016-.384.016-.736.016Zm-.352.864h7.024v2.416H69.544ZM72.36,2.256H68.008a14.525,14.525,0,0,1-1.7-.08,7.6,7.6,0,0,1,.064,1.1v.9a7.835,7.835,0,0,1-.064,1.12h1.024V3.136h11.28V5.312h1.04a7.418,7.418,0,0,1-.064-1.12V3.28a7.191,7.191,0,0,1,.064-1.1,15.2,15.2,0,0,1-1.792.08h-4.48V1.84A6.393,6.393,0,0,1,73.5.688H72.264a7.614,7.614,0,0,1,.1,1.152Zm31.984-.144H100.36a19.83,19.83,0,0,1-1.984-.064A8.031,8.031,0,0,1,98.44,3.12v.848a7.475,7.475,0,0,1-.048.912l-.016.192h1.056V3.008h11.2V5.072h1.056a6.968,6.968,0,0,1-.064-1.088v-.8a7.245,7.245,0,0,1,.064-1.136c-.544.048-1.04.064-2.128.064h-4.176V1.7a5.736,5.736,0,0,1,.1-1.088h-1.232a6.25,6.25,0,0,1,.1,1.088Zm-1.376,3.344a15.023,15.023,0,0,1-1.312,2.272c-.768.016-1.152.032-1.664.032A9.813,9.813,0,0,1,99,7.712l.16,1.024a3.724,3.724,0,0,1,.608-.064c2.976-.112,6.256-.3,9.1-.544a12.866,12.866,0,0,1,1.1,1.136l.768-.656a27.825,27.825,0,0,0-3.392-2.864l-.768.5a15.642,15.642,0,0,1,1.472,1.152c-2.192.16-3.536.24-5.312.288a15.712,15.712,0,0,0,1.3-2.224h4.112a12.73,12.73,0,0,1,1.824.08V4.512a12.711,12.711,0,0,1-1.84.08h-6.208a12.32,12.32,0,0,1-1.824-.08V5.536a12.952,12.952,0,0,1,1.872-.08Zm2.432,5.008v-.24a7.663,7.663,0,0,1,.1-1.264h-1.2a7.948,7.948,0,0,1,.1,1.264v.24H101.32a11.381,11.381,0,0,1-1.712-.08V11.44a11.78,11.78,0,0,1,1.712-.08h3.072v2.256h-4.384a12.384,12.384,0,0,1-2.016-.112v1.12a17.458,17.458,0,0,1,2.064-.1h9.984a17.271,17.271,0,0,1,2.064.1V13.5a12.159,12.159,0,0,1-2,.112h-4.7V11.36h3.392a11.8,11.8,0,0,1,1.7.08V10.384a11.534,11.534,0,0,1-1.7.08Z" transform="translate(41 778)" fill="#707070"/>
    <path id="パス_25" data-name="パス 25" d="M52.552,13.744a9.945,9.945,0,0,1-.1,1.376h1.088V14.5h7.024v.624h1.1a8.984,8.984,0,0,1-.1-1.376V11.536c0-.4.016-.624.032-.976.88.272,1.232.368,2.256.624a3.8,3.8,0,0,1,.48-1.072,17.872,17.872,0,0,1-6.416-2.176,22.773,22.773,0,0,0,2.944-2.56c.144-.16.176-.192.288-.3L60.568,4.5a11.768,11.768,0,0,1-1.456.064H55.624c.3-.352.3-.352.384-.448.08-.112.144-.176.176-.224a1.43,1.43,0,0,1,.208-.224L55.352,3.3A9.008,9.008,0,0,1,53.528,5.52a12.031,12.031,0,0,1-3.136,2.016,2.64,2.64,0,0,1,.688.768A13.994,13.994,0,0,0,54.152,6.1a12.525,12.525,0,0,0,2.112,1.84,18.461,18.461,0,0,1-6.576,2.384,2.839,2.839,0,0,1,.528.944,22.8,22.8,0,0,0,2.3-.656c.016.32.032.592.032.928Zm2.336-8.368h4.688A17.248,17.248,0,0,1,57.1,7.424a12.26,12.26,0,0,1-2.32-1.936Zm-.992,4.96H53.3A19.959,19.959,0,0,0,57.1,8.5,16.824,16.824,0,0,0,60.92,10.32c-.256.016-.384.016-.736.016Zm-.352.864h7.024v2.416H53.544ZM56.36,2.256H52.008a14.524,14.524,0,0,1-1.7-.08,7.6,7.6,0,0,1,.064,1.1v.9a7.836,7.836,0,0,1-.064,1.12h1.024V3.136h11.28V5.312h1.04a7.418,7.418,0,0,1-.064-1.12V3.28a7.191,7.191,0,0,1,.064-1.1,15.2,15.2,0,0,1-1.792.08h-4.48V1.84A6.393,6.393,0,0,1,57.5.688H56.264a7.615,7.615,0,0,1,.1,1.152Zm15.984-.144H68.36a19.83,19.83,0,0,1-1.984-.064A8.031,8.031,0,0,1,66.44,3.12v.848a7.475,7.475,0,0,1-.048.912l-.016.192h1.056V3.008h11.2V5.072h1.056a6.968,6.968,0,0,1-.064-1.088v-.8a7.245,7.245,0,0,1,.064-1.136c-.544.048-1.04.064-2.128.064H73.384V1.7a5.736,5.736,0,0,1,.1-1.088H72.248a6.25,6.25,0,0,1,.1,1.088ZM70.968,5.456a15.023,15.023,0,0,1-1.312,2.272c-.768.016-1.152.032-1.664.032A9.813,9.813,0,0,1,67,7.712l.16,1.024a3.724,3.724,0,0,1,.608-.064c2.976-.112,6.256-.3,9.1-.544a12.866,12.866,0,0,1,1.1,1.136l.768-.656a27.825,27.825,0,0,0-3.392-2.864l-.768.5a15.642,15.642,0,0,1,1.472,1.152c-2.192.16-3.536.24-5.312.288a15.712,15.712,0,0,0,1.3-2.224h4.112a12.73,12.73,0,0,1,1.824.08V4.512a12.711,12.711,0,0,1-1.84.08H69.928a12.32,12.32,0,0,1-1.824-.08V5.536a12.952,12.952,0,0,1,1.872-.08ZM73.4,10.464v-.24a7.663,7.663,0,0,1,.1-1.264H72.3a7.948,7.948,0,0,1,.1,1.264v.24H69.32a11.381,11.381,0,0,1-1.712-.08V11.44a11.78,11.78,0,0,1,1.712-.08h3.072v2.256H68.008a12.384,12.384,0,0,1-2.016-.112v1.12a17.458,17.458,0,0,1,2.064-.1H78.04a17.271,17.271,0,0,1,2.064.1V13.5a12.159,12.159,0,0,1-2,.112H73.4V11.36h3.392a11.8,11.8,0,0,1,1.7.08V10.384a11.534,11.534,0,0,1-1.7.08ZM94.7,7.52a6.315,6.315,0,0,1-1.2.064H89.032A5.81,5.81,0,0,1,87.9,7.5v1.04a7.727,7.727,0,0,1,.96-.08,9.744,9.744,0,0,0,2.368,3.648A12.262,12.262,0,0,1,87.24,14.24a2.736,2.736,0,0,1,.624.88,13.459,13.459,0,0,0,4.064-2.352,13.418,13.418,0,0,0,4.144,2.32,5.28,5.28,0,0,1,.576-1.008,11.933,11.933,0,0,1-4.016-2A12.453,12.453,0,0,0,94.984,8.7a5.347,5.347,0,0,1,.3-.592Zm-.672.944a9.634,9.634,0,0,1-2.1,3.008A8.156,8.156,0,0,1,89.8,8.464ZM82.536,2.208a8.848,8.848,0,0,1,1.216-.064h2.16a9.152,9.152,0,0,1,1.216.064V1.2a6.61,6.61,0,0,1-1.216.08h-2.16a6.505,6.505,0,0,1-1.216-.08ZM81.992,4.48a10.033,10.033,0,0,1,1.28-.064H86.44a7.183,7.183,0,0,1,1.168.064V3.408a6.531,6.531,0,0,1-1.28.08H83.272a6.837,6.837,0,0,1-1.28-.08Zm.56,2.208A7.741,7.741,0,0,1,83.7,6.624H85.96a7.927,7.927,0,0,1,1.136.064V5.712a6.866,6.866,0,0,1-1.136.064H83.7a6.962,6.962,0,0,1-1.152-.064Zm0,2.208A7.606,7.606,0,0,1,83.7,8.832H85.96A8.072,8.072,0,0,1,87.1,8.9V7.92a6.744,6.744,0,0,1-1.136.064H83.7a7.086,7.086,0,0,1-1.152-.064Zm1.008,6.3v-.864h2.576v.656h.992a8.375,8.375,0,0,1-.08-1.312V11.424c0-.608.016-.9.048-1.264a6.628,6.628,0,0,1-1.168.048h-2.1a10.878,10.878,0,0,1-1.28-.064,8.3,8.3,0,0,1,.08,1.344v2.16a10.724,10.724,0,0,1-.1,1.552Zm0-4.16h2.576V13.5H83.56Zm9.264-8.864V5.552c0,.72.288.88,1.584.88.912,0,1.312-.08,1.552-.288.3-.272.464-.864.56-2.16a2.79,2.79,0,0,1-.88-.432,4.965,4.965,0,0,1-.256,1.792c-.08.176-.272.224-.928.224-.528,0-.672-.064-.672-.336v-2.5a13.351,13.351,0,0,1,.064-1.5,10.578,10.578,0,0,1-1.36.064H90.536a11.055,11.055,0,0,1-1.248-.064,5.069,5.069,0,0,1,.08.96A6.428,6.428,0,0,1,89,4.624a3.612,3.612,0,0,1-1.568,1.9,3.358,3.358,0,0,1,.816.672A4.367,4.367,0,0,0,89.56,5.712a6.9,6.9,0,0,0,.768-3.536Zm14.256,9.968v1.024a11.417,11.417,0,0,1-.1,1.728h1.056a9.2,9.2,0,0,1-.1-1.728V12.144h2.624v1.632c0,.352-.08.432-.432.432a7.4,7.4,0,0,1-1.328-.144,2.727,2.727,0,0,1,.208.928c.656.032.752.032,1.04.032,1.136,0,1.424-.208,1.424-1.072V8.464a15.279,15.279,0,0,1,.064-1.792,9.726,9.726,0,0,1-1.616.08h-4.72c-.832,0-1.168-.016-1.584-.048.032.432.048.736.048,1.648v5.072a10.064,10.064,0,0,1-.1,1.664h1.088a8.146,8.146,0,0,1-.1-1.664v-1.28Zm0-.816h-2.512V9.856h2.512Zm.864,0V9.856h2.624v1.472Zm-.864-2.256h-2.512V7.584h2.512Zm.864,0V7.584h2.624V9.072ZM104.376,3.12v.272a5.315,5.315,0,0,1-.064.96H105.4a4.781,4.781,0,0,1-.064-.96V3.12h2.736v.272a5.666,5.666,0,0,1-.064.96h1.1a4.989,4.989,0,0,1-.064-.96V3.12h1.52a10.969,10.969,0,0,1,1.552.08V2.176a9.981,9.981,0,0,1-1.552.1h-1.52V1.744a4.834,4.834,0,0,1,.08-1.1h-1.136a4.993,4.993,0,0,1,.08,1.12v.512h-2.736V1.744a4.833,4.833,0,0,1,.08-1.1H104.3a4.993,4.993,0,0,1,.08,1.12v.512h-1.1a10.329,10.329,0,0,1-1.5-.1V3.2a8.9,8.9,0,0,1,1.5-.08Zm-5.056,10.1a16.053,16.053,0,0,1-.1,1.968h1.136c-.048-.5-.064-1.04-.064-1.984V4.352a13.663,13.663,0,0,0,1.1-2.7c.176-.528.192-.56.272-.768L100.616.592A11.89,11.89,0,0,1,99.8,3.248a14.788,14.788,0,0,1-2.48,4.08,2.771,2.771,0,0,1,.528.72.857.857,0,0,1,.112.192,9.835,9.835,0,0,0,1.408-2.368c-.032.768-.048,1.584-.048,2.4ZM112.152,4.7a11.081,11.081,0,0,1-1.7.1H103.4a13,13,0,0,1-1.584-.08c.048.512.064,1.056.064,1.856a27.014,27.014,0,0,1-.4,5.2,6.752,6.752,0,0,1-.96,2.448,3.5,3.5,0,0,1,.816.672,9.519,9.519,0,0,0,1.312-4.576,43.213,43.213,0,0,0,.176-4.672h7.712a15.317,15.317,0,0,1,1.616.08Z" transform="translate(41 826)" fill="#707070"/>
    <path id="パス_27" data-name="パス 27" d="M36.552,13.744a9.945,9.945,0,0,1-.1,1.376h1.088V14.5h7.024v.624h1.1a8.984,8.984,0,0,1-.1-1.376V11.536c0-.4.016-.624.032-.976.88.272,1.232.368,2.256.624a3.8,3.8,0,0,1,.48-1.072,17.872,17.872,0,0,1-6.416-2.176,22.773,22.773,0,0,0,2.944-2.56c.144-.16.176-.192.288-.3L44.568,4.5a11.768,11.768,0,0,1-1.456.064H39.624c.3-.352.3-.352.384-.448.08-.112.144-.176.176-.224a1.43,1.43,0,0,1,.208-.224L39.352,3.3A9.008,9.008,0,0,1,37.528,5.52a12.031,12.031,0,0,1-3.136,2.016,2.64,2.64,0,0,1,.688.768A13.994,13.994,0,0,0,38.152,6.1a12.525,12.525,0,0,0,2.112,1.84,18.461,18.461,0,0,1-6.576,2.384,2.839,2.839,0,0,1,.528.944,22.8,22.8,0,0,0,2.3-.656c.016.32.032.592.032.928Zm2.336-8.368h4.688A17.248,17.248,0,0,1,41.1,7.424a12.26,12.26,0,0,1-2.32-1.936Zm-.992,4.96H37.3A19.959,19.959,0,0,0,41.1,8.5,16.824,16.824,0,0,0,44.92,10.32c-.256.016-.384.016-.736.016Zm-.352.864h7.024v2.416H37.544ZM40.36,2.256H36.008a14.524,14.524,0,0,1-1.7-.08,7.6,7.6,0,0,1,.064,1.1v.9a7.836,7.836,0,0,1-.064,1.12h1.024V3.136h11.28V5.312h1.04a7.418,7.418,0,0,1-.064-1.12V3.28a7.191,7.191,0,0,1,.064-1.1,15.2,15.2,0,0,1-1.792.08h-4.48V1.84A6.393,6.393,0,0,1,41.5.688H40.264a7.615,7.615,0,0,1,.1,1.152Zm15.984-.144H52.36a19.831,19.831,0,0,1-1.984-.064A8.032,8.032,0,0,1,50.44,3.12v.848a7.475,7.475,0,0,1-.048.912l-.016.192h1.056V3.008h11.2V5.072h1.056a6.968,6.968,0,0,1-.064-1.088v-.8a7.246,7.246,0,0,1,.064-1.136c-.544.048-1.04.064-2.128.064H57.384V1.7a5.736,5.736,0,0,1,.1-1.088H56.248a6.249,6.249,0,0,1,.1,1.088ZM54.968,5.456a15.023,15.023,0,0,1-1.312,2.272c-.768.016-1.152.032-1.664.032A9.813,9.813,0,0,1,51,7.712l.16,1.024a3.724,3.724,0,0,1,.608-.064c2.976-.112,6.256-.3,9.1-.544a12.865,12.865,0,0,1,1.1,1.136l.768-.656a27.825,27.825,0,0,0-3.392-2.864l-.768.5a15.641,15.641,0,0,1,1.472,1.152c-2.192.16-3.536.24-5.312.288a15.712,15.712,0,0,0,1.3-2.224h4.112a12.73,12.73,0,0,1,1.824.08V4.512a12.711,12.711,0,0,1-1.84.08H53.928a12.32,12.32,0,0,1-1.824-.08V5.536a12.952,12.952,0,0,1,1.872-.08ZM57.4,10.464v-.24a7.663,7.663,0,0,1,.1-1.264H56.3a7.949,7.949,0,0,1,.1,1.264v.24H53.32a11.381,11.381,0,0,1-1.712-.08V11.44a11.78,11.78,0,0,1,1.712-.08h3.072v2.256H52.008a12.384,12.384,0,0,1-2.016-.112v1.12a17.457,17.457,0,0,1,2.064-.1H62.04a17.271,17.271,0,0,1,2.064.1V13.5a12.159,12.159,0,0,1-2,.112H57.4V11.36h3.392a11.8,11.8,0,0,1,1.7.08V10.384a11.534,11.534,0,0,1-1.7.08ZM72.36.912a11.218,11.218,0,0,1,.1,1.616V13.44c0,.32-.144.4-.72.4a12.71,12.71,0,0,1-2.368-.272,3.776,3.776,0,0,1,.288,1.184c.912.08,1.552.112,2.208.112,1.328,0,1.7-.288,1.7-1.312V2.544a10.855,10.855,0,0,1,.1-1.632ZM76.1,4.72c.048.128.048.128.112.32.512,1.616.752,2.432.768,2.448a16.823,16.823,0,0,0,2.72,5.088,4.132,4.132,0,0,1,.912-.8,14.5,14.5,0,0,1-2.384-4.064A13.282,13.282,0,0,1,77.24,4.4ZM68.488,4.5a12.6,12.6,0,0,1-.48,2.4,13.356,13.356,0,0,1-2.48,4.976,3.731,3.731,0,0,1,.976.656,16.611,16.611,0,0,0,2.7-5.984c.336-1.312.384-1.5.464-1.76Zm24.576-.3a15.77,15.77,0,0,1-1.7,4.944,12.909,12.909,0,0,1-4.592,4.9,2.725,2.725,0,0,1,.816.784,14.031,14.031,0,0,0,3.1-2.88,15.642,15.642,0,0,0,2.5-4.592,20.346,20.346,0,0,0,.816-3.152h.7a58.83,58.83,0,0,1-.528,8.256c-.192,1.136-.432,1.44-1.12,1.44a8.556,8.556,0,0,1-2.1-.32,3.6,3.6,0,0,1,.288,1.12,12.644,12.644,0,0,0,1.808.176c1.568,0,1.968-.56,2.272-3.2.176-1.5.3-3.744.368-6.16a16.522,16.522,0,0,1,.112-2.256,8.963,8.963,0,0,1-1.36.064H89.528c.208-.5.336-.832.48-1.232.32-.9.32-.9.432-1.152L89.32.688a9.8,9.8,0,0,1-.784,2.5A9.741,9.741,0,0,1,86.568,6.16a2.832,2.832,0,0,1,.816.64,12.936,12.936,0,0,0,1.728-2.608h1.44a10.49,10.49,0,0,1-1.184,2.976,8.933,8.933,0,0,1-2.912,3.088,2.913,2.913,0,0,1,.752.784,11.1,11.1,0,0,0,2.928-3.312,13.362,13.362,0,0,0,1.376-3.536Zm-8.576.672v3.92a13.113,13.113,0,0,1-2.72.752l.32,1.136c.144-.064.944-.368,2.4-.9v3.76a10.547,10.547,0,0,1-.112,1.68h1.2a14.371,14.371,0,0,1-.1-1.68V9.392c.736-.3.992-.416,1.808-.8v-.96c-.816.384-1.088.5-1.808.784V4.848h.736a6.328,6.328,0,0,1,.992.064V3.872a3.943,3.943,0,0,1-.992.08H85.48v-2a6.531,6.531,0,0,1,.1-1.328h-1.2a6.636,6.636,0,0,1,.112,1.328v2H83.336c.048-.352.064-.576.128-1.056.048-.448.064-.576.1-.848l-1.024-.16a3.758,3.758,0,0,1,.016.416,11.154,11.154,0,0,1-1.008,4.624,3.665,3.665,0,0,1,.88.5,12.608,12.608,0,0,0,.752-2.56Zm18.864,5.6a11.823,11.823,0,0,1,1.456.08V9.52a7.832,7.832,0,0,1-1.44.1H101.8c.032-.24.032-.352.048-.544a3.03,3.03,0,0,1,.064-.7h-1.056a2.735,2.735,0,0,1,.064.672,3.883,3.883,0,0,1-.032.576H99.272a8.774,8.774,0,0,1-1.424-.1v1.024a8.622,8.622,0,0,1,1.44-.08h1.472a4.145,4.145,0,0,1-.864,1.872,5.981,5.981,0,0,1-2.24,1.632,2.7,2.7,0,0,1,.688.784,5.82,5.82,0,0,0,3.152-3.584,6.012,6.012,0,0,0,2.4,2.56,3,3,0,0,1,.576-.88,5.118,5.118,0,0,1-2.528-2.384Zm-1.5-6.3V1.952a6.672,6.672,0,0,1,.08-1.072h-1.04a5.419,5.419,0,0,1,.08,1.072V4.16H99.192a6.717,6.717,0,0,1-1.3-.08v.976a6.753,6.753,0,0,1,1.264-.08h1.408a7.785,7.785,0,0,1-2.96,2.672,2.38,2.38,0,0,1,.56.816,9.411,9.411,0,0,0,2.848-2.88c-.032.352-.048.656-.048.976V7.1a4.642,4.642,0,0,1-.064.864h1.008a4.3,4.3,0,0,1-.064-.88V6.56c0-.336-.016-.72-.048-1.04a8.132,8.132,0,0,0,2.512,2.432,2.757,2.757,0,0,1,.512-.8,7.815,7.815,0,0,1-2.608-2.176h1.5a5.6,5.6,0,0,1,1.056.064V4.1a4.426,4.426,0,0,1-1.072.064Zm6.272-1.92a9.272,9.272,0,0,1-.576,1.744h-.72c-.7,0-.976-.016-1.392-.048a13.171,13.171,0,0,1,.064,1.5v5.3c0,.56-.016,1.008-.048,1.44.512-.032.864-.048,1.376-.048h3.44c.528,0,.88.016,1.376.048-.032-.4-.048-.912-.048-1.52V5.408c0-.624.016-1.088.048-1.488a10.248,10.248,0,0,1-1.44.064h-1.68a13.3,13.3,0,0,0,.624-1.744h1.584a8.121,8.121,0,0,1,1.552.1V1.248a9.039,9.039,0,0,1-1.552.1h-4.192a8.108,8.108,0,0,1-1.568-.1V2.336a7.566,7.566,0,0,1,1.52-.1Zm-1.7,2.592h4.24v1.52h-4.24Zm0,2.368h4.24V8.784h-4.24Zm0,2.432h4.24v1.632h-4.24Zm-8.224-8a8.44,8.44,0,0,1,1.232,2.176l.8-.384a11.8,11.8,0,0,0-1.264-2.16Zm5.6-.416a7.335,7.335,0,0,1-1.328,2.224l.7.432a13,13,0,0,0,1.408-2.24Zm3.008,11.232a5.186,5.186,0,0,1-1.488,1.28,7.9,7.9,0,0,1-1.648.816,4.547,4.547,0,0,1,.688.816,9.752,9.752,0,0,0,3.2-2.288Zm2.192.576a13.537,13.537,0,0,0,2.9,2.32,3.471,3.471,0,0,1,.688-.832,9.633,9.633,0,0,1-2.832-2.08Z" transform="translate(41 902)" fill="#707070"/>
    <path id="パス_28" data-name="パス 28" d="M38.936,13.52a8.878,8.878,0,0,1-.08,1.52h1.088V14.1h5.408v.976H46.44a9.432,9.432,0,0,1-.08-1.552V9.968a8.42,8.42,0,0,1,.032-.976,14.047,14.047,0,0,0,1.648,1.12,4.343,4.343,0,0,1,.608-.944,13.2,13.2,0,0,1-2.912-2.032A11.154,11.154,0,0,1,43.144,3.9H42.056A11.2,11.2,0,0,1,39.528,7.3a12.969,12.969,0,0,1-2.576,1.84,2.425,2.425,0,0,1,.624.832c.624-.4.848-.544,1.344-.912.016.288.016.544.016.944ZM40.1,8.688c-.288,0-.464,0-.72-.016a12.39,12.39,0,0,0,3.232-3.856,14.369,14.369,0,0,0,3.36,3.856c-.24.016-.464.016-.832.016Zm-.16.912h5.408v3.584H39.944ZM34.68,1.584a12.889,12.889,0,0,1,2.56,2.192l.624-.816A15.082,15.082,0,0,0,35.336.88Zm-.96,3.872a14.664,14.664,0,0,1,2.848,2.208l.64-.864a20.123,20.123,0,0,0-2.88-2.08Zm2.464,3.92a16.283,16.283,0,0,1-1.648,3.776,4.852,4.852,0,0,1-.688.96l.944.816c.064-.112.064-.128.176-.336l.16-.32a28.759,28.759,0,0,0,1.9-4.288ZM43.56,1.232A14.272,14.272,0,0,0,45.4,3.44a13.674,13.674,0,0,0,2.048,1.648,4.066,4.066,0,0,1,.64-.912,10.79,10.79,0,0,1-2.064-1.52A10.989,10.989,0,0,1,44.392.72ZM40.68.768A9.991,9.991,0,0,1,39.288,2.96a10.212,10.212,0,0,1-1.84,1.632,2.043,2.043,0,0,1,.752.72,10.116,10.116,0,0,0,1.824-1.744A12.052,12.052,0,0,0,41.56,1.28ZM56.344,2.112H52.36a19.831,19.831,0,0,1-1.984-.064A8.032,8.032,0,0,1,50.44,3.12v.848a7.475,7.475,0,0,1-.048.912l-.016.192h1.056V3.008h11.2V5.072h1.056a6.968,6.968,0,0,1-.064-1.088v-.8a7.246,7.246,0,0,1,.064-1.136c-.544.048-1.04.064-2.128.064H57.384V1.7a5.736,5.736,0,0,1,.1-1.088H56.248a6.249,6.249,0,0,1,.1,1.088ZM54.968,5.456a15.023,15.023,0,0,1-1.312,2.272c-.768.016-1.152.032-1.664.032A9.813,9.813,0,0,1,51,7.712l.16,1.024a3.724,3.724,0,0,1,.608-.064c2.976-.112,6.256-.3,9.1-.544a12.865,12.865,0,0,1,1.1,1.136l.768-.656a27.825,27.825,0,0,0-3.392-2.864l-.768.5a15.641,15.641,0,0,1,1.472,1.152c-2.192.16-3.536.24-5.312.288a15.712,15.712,0,0,0,1.3-2.224h4.112a12.73,12.73,0,0,1,1.824.08V4.512a12.711,12.711,0,0,1-1.84.08H53.928a12.32,12.32,0,0,1-1.824-.08V5.536a12.952,12.952,0,0,1,1.872-.08ZM57.4,10.464v-.24a7.663,7.663,0,0,1,.1-1.264H56.3a7.949,7.949,0,0,1,.1,1.264v.24H53.32a11.381,11.381,0,0,1-1.712-.08V11.44a11.78,11.78,0,0,1,1.712-.08h3.072v2.256H52.008a12.384,12.384,0,0,1-2.016-.112v1.12a17.457,17.457,0,0,1,2.064-.1H62.04a17.271,17.271,0,0,1,2.064.1V13.5a12.159,12.159,0,0,1-2,.112H57.4V11.36h3.392a11.8,11.8,0,0,1,1.7.08V10.384a11.534,11.534,0,0,1-1.7.08ZM72.36.912a11.218,11.218,0,0,1,.1,1.616V13.44c0,.32-.144.4-.72.4a12.71,12.71,0,0,1-2.368-.272,3.776,3.776,0,0,1,.288,1.184c.912.08,1.552.112,2.208.112,1.328,0,1.7-.288,1.7-1.312V2.544a10.855,10.855,0,0,1,.1-1.632ZM76.1,4.72c.048.128.048.128.112.32.512,1.616.752,2.432.768,2.448a16.823,16.823,0,0,0,2.72,5.088,4.132,4.132,0,0,1,.912-.8,14.5,14.5,0,0,1-2.384-4.064A13.282,13.282,0,0,1,77.24,4.4ZM68.488,4.5a12.6,12.6,0,0,1-.48,2.4,13.356,13.356,0,0,1-2.48,4.976,3.731,3.731,0,0,1,.976.656,16.611,16.611,0,0,0,2.7-5.984c.336-1.312.384-1.5.464-1.76Zm24.576-.3a15.77,15.77,0,0,1-1.7,4.944,12.909,12.909,0,0,1-4.592,4.9,2.725,2.725,0,0,1,.816.784,14.031,14.031,0,0,0,3.1-2.88,15.642,15.642,0,0,0,2.5-4.592,20.346,20.346,0,0,0,.816-3.152h.7a58.83,58.83,0,0,1-.528,8.256c-.192,1.136-.432,1.44-1.12,1.44a8.556,8.556,0,0,1-2.1-.32,3.6,3.6,0,0,1,.288,1.12,12.644,12.644,0,0,0,1.808.176c1.568,0,1.968-.56,2.272-3.2.176-1.5.3-3.744.368-6.16a16.522,16.522,0,0,1,.112-2.256,8.963,8.963,0,0,1-1.36.064H89.528c.208-.5.336-.832.48-1.232.32-.9.32-.9.432-1.152L89.32.688a9.8,9.8,0,0,1-.784,2.5A9.741,9.741,0,0,1,86.568,6.16a2.832,2.832,0,0,1,.816.64,12.936,12.936,0,0,0,1.728-2.608h1.44a10.49,10.49,0,0,1-1.184,2.976,8.933,8.933,0,0,1-2.912,3.088,2.913,2.913,0,0,1,.752.784,11.1,11.1,0,0,0,2.928-3.312,13.362,13.362,0,0,0,1.376-3.536Zm-8.576.672v3.92a13.113,13.113,0,0,1-2.72.752l.32,1.136c.144-.064.944-.368,2.4-.9v3.76a10.547,10.547,0,0,1-.112,1.68h1.2a14.371,14.371,0,0,1-.1-1.68V9.392c.736-.3.992-.416,1.808-.8v-.96c-.816.384-1.088.5-1.808.784V4.848h.736a6.328,6.328,0,0,1,.992.064V3.872a3.943,3.943,0,0,1-.992.08H85.48v-2a6.531,6.531,0,0,1,.1-1.328h-1.2a6.636,6.636,0,0,1,.112,1.328v2H83.336c.048-.352.064-.576.128-1.056.048-.448.064-.576.1-.848l-1.024-.16a3.758,3.758,0,0,1,.016.416,11.154,11.154,0,0,1-1.008,4.624,3.665,3.665,0,0,1,.88.5,12.608,12.608,0,0,0,.752-2.56Zm18.864,5.6a11.823,11.823,0,0,1,1.456.08V9.52a7.832,7.832,0,0,1-1.44.1H101.8c.032-.24.032-.352.048-.544a3.03,3.03,0,0,1,.064-.7h-1.056a2.735,2.735,0,0,1,.064.672,3.883,3.883,0,0,1-.032.576H99.272a8.774,8.774,0,0,1-1.424-.1v1.024a8.622,8.622,0,0,1,1.44-.08h1.472a4.145,4.145,0,0,1-.864,1.872,5.981,5.981,0,0,1-2.24,1.632,2.7,2.7,0,0,1,.688.784,5.82,5.82,0,0,0,3.152-3.584,6.012,6.012,0,0,0,2.4,2.56,3,3,0,0,1,.576-.88,5.118,5.118,0,0,1-2.528-2.384Zm-1.5-6.3V1.952a6.672,6.672,0,0,1,.08-1.072h-1.04a5.419,5.419,0,0,1,.08,1.072V4.16H99.192a6.717,6.717,0,0,1-1.3-.08v.976a6.753,6.753,0,0,1,1.264-.08h1.408a7.785,7.785,0,0,1-2.96,2.672,2.38,2.38,0,0,1,.56.816,9.411,9.411,0,0,0,2.848-2.88c-.032.352-.048.656-.048.976V7.1a4.642,4.642,0,0,1-.064.864h1.008a4.3,4.3,0,0,1-.064-.88V6.56c0-.336-.016-.72-.048-1.04a8.132,8.132,0,0,0,2.512,2.432,2.757,2.757,0,0,1,.512-.8,7.815,7.815,0,0,1-2.608-2.176h1.5a5.6,5.6,0,0,1,1.056.064V4.1a4.426,4.426,0,0,1-1.072.064Zm6.272-1.92a9.272,9.272,0,0,1-.576,1.744h-.72c-.7,0-.976-.016-1.392-.048a13.171,13.171,0,0,1,.064,1.5v5.3c0,.56-.016,1.008-.048,1.44.512-.032.864-.048,1.376-.048h3.44c.528,0,.88.016,1.376.048-.032-.4-.048-.912-.048-1.52V5.408c0-.624.016-1.088.048-1.488a10.248,10.248,0,0,1-1.44.064h-1.68a13.3,13.3,0,0,0,.624-1.744h1.584a8.121,8.121,0,0,1,1.552.1V1.248a9.039,9.039,0,0,1-1.552.1h-4.192a8.108,8.108,0,0,1-1.568-.1V2.336a7.566,7.566,0,0,1,1.52-.1Zm-1.7,2.592h4.24v1.52h-4.24Zm0,2.368h4.24V8.784h-4.24Zm0,2.432h4.24v1.632h-4.24Zm-8.224-8a8.44,8.44,0,0,1,1.232,2.176l.8-.384a11.8,11.8,0,0,0-1.264-2.16Zm5.6-.416a7.335,7.335,0,0,1-1.328,2.224l.7.432a13,13,0,0,0,1.408-2.24Zm3.008,11.232a5.186,5.186,0,0,1-1.488,1.28,7.9,7.9,0,0,1-1.648.816,4.547,4.547,0,0,1,.688.816,9.752,9.752,0,0,0,3.2-2.288Zm2.192.576a13.537,13.537,0,0,0,2.9,2.32,3.471,3.471,0,0,1,.688-.832,9.633,9.633,0,0,1-2.832-2.08Z" transform="translate(41 978)" fill="#707070"/>
    <path id="パス_29" data-name="パス 29" d="M55.9,10.144a8.169,8.169,0,0,0,1.936,2.336,13.007,13.007,0,0,0,5.68,2.736,4.222,4.222,0,0,1,.576-1.04,12.6,12.6,0,0,1-4.352-1.52,25.78,25.78,0,0,0,3.136-2.48l-.912-.608A14.19,14.19,0,0,1,58.9,12.144a6.679,6.679,0,0,1-1.968-2h2.928c.672,0,1.1.016,1.488.048-.032-.368-.048-.656-.048-1.3V6.144c0-.512,0-.816.032-1.168a21.374,21.374,0,0,0,2.432,1.2,3.473,3.473,0,0,1,.608-1.024,18.008,18.008,0,0,1-4.1-1.936A12.552,12.552,0,0,1,57.4.72H56.312a14.6,14.6,0,0,1-6.736,4.432,2.887,2.887,0,0,1,.592.976A19.691,19.691,0,0,0,52.456,5.04c.032.32.048.8.048,1.328v7.488a12.6,12.6,0,0,1-2.192.256l.272,1.12c.272-.064.416-.1.592-.128a59.68,59.68,0,0,0,6.176-1.44l.016-.928a35.47,35.47,0,0,1-3.856.944V10.144ZM57.3,4.816V4.272a6.2,6.2,0,0,1,.08-1.216H56.248a5.682,5.682,0,0,1,.1,1.216v.544H53.976c-.48,0-.688,0-1.1-.016a14.892,14.892,0,0,0,4-3.3,15.305,15.305,0,0,0,4.144,3.28c-.432.032-.656.032-1.216.032Zm-3.792.848h6.8V6.992h-6.8Zm0,2.176h6.8V9.3h-6.8ZM72.376,9.6h-4.8a10.409,10.409,0,0,1-1.744-.1v1.008a11.607,11.607,0,0,1,1.744-.08h4.8v1.152H68.488a9.572,9.572,0,0,1-1.536-.08V12.5a10.668,10.668,0,0,1,1.568-.08h3.856v1.312c0,.352-.144.432-.72.432A13.839,13.839,0,0,1,69.672,14a2.638,2.638,0,0,1,.272,1.008c.9.048,1.184.064,1.52.064,1.552,0,1.872-.224,1.872-1.328V12.416h4.288v.656h1.04a9.433,9.433,0,0,1-.1-1.6v-1.04a10.882,10.882,0,0,1,1.7.08V9.5a8.132,8.132,0,0,1-1.7.1V8.928A12.665,12.665,0,0,1,78.616,7.6a15.637,15.637,0,0,1-1.792.064H73.336V6.624h3.7a9.98,9.98,0,0,1,1.3.064,7.573,7.573,0,0,1-.064-1.072v-.7a7.805,7.805,0,0,1,.064-1.088,10.246,10.246,0,0,1-1.312.064h-3.68V2.832h4.928a14.312,14.312,0,0,1,1.808.1V1.872a12.12,12.12,0,0,1-1.84.1h-4.9a5.217,5.217,0,0,1,.112-1.44H72.28a6.442,6.442,0,0,1,.1,1.44H67.768a11.873,11.873,0,0,1-1.824-.1V2.928a13.694,13.694,0,0,1,1.792-.1h4.64V3.888H69.048a10.679,10.679,0,0,1-1.328-.064,7.958,7.958,0,0,1,.064,1.088v.7a7.574,7.574,0,0,1-.064,1.072,10.087,10.087,0,0,1,1.312-.064h3.344v1.04H68.648a9.331,9.331,0,0,1-1.536-.08v.992a10.128,10.128,0,0,1,1.5-.08h3.76Zm.96,0V8.5h4.288V9.6Zm0,.832h4.288v1.152H73.336Zm-.96-5.76V5.856H68.744V4.672Zm.96,0H77.3V5.856H73.336ZM90.136,9.9a9.074,9.074,0,0,1-4.048,3.248,2.324,2.324,0,0,1,.688.752,11.028,11.028,0,0,0,4.4-4H92.76A7.8,7.8,0,0,1,91.448,12a10.156,10.156,0,0,1-3.136,2.432,2.732,2.732,0,0,1,.736.752,12.993,12.993,0,0,0,1.3-.9,16.331,16.331,0,0,0,1.968-1.968A9.264,9.264,0,0,0,93.736,9.9h1.072a19.454,19.454,0,0,1-.352,3.072c-.208.96-.32,1.088-.96,1.088a11.052,11.052,0,0,1-1.9-.176,2.712,2.712,0,0,1,.32,1.04c.5.032,1.024.064,1.392.064,1.088,0,1.488-.16,1.776-.736a15.966,15.966,0,0,0,.7-4.272,7.259,7.259,0,0,1,.08-.944A12.487,12.487,0,0,1,94.3,9.1H89a7.832,7.832,0,0,0,.736-1.168h4.9A13.636,13.636,0,0,1,96.216,8V6.992a9.088,9.088,0,0,1-1.584.1H87.8a7.878,7.878,0,0,1-1.472-.1v1.04a7.832,7.832,0,0,1,1.44-.1h.976a7.681,7.681,0,0,1-3.712,3.376,2.844,2.844,0,0,1,.656.72A10.259,10.259,0,0,0,88.376,9.9ZM83.88,4.816h-.656a8.943,8.943,0,0,1-1.392-.08V5.792a11.532,11.532,0,0,1,1.36-.08h.688v4.576a7.972,7.972,0,0,1-2.064.784l.3,1.12c.144-.08.592-.3.848-.416A29.488,29.488,0,0,0,86.3,9.968l-.064-.96a13.833,13.833,0,0,1-1.36.816V5.712h.384a12.5,12.5,0,0,1,1.328.064V4.752a9.443,9.443,0,0,1-1.328.064h-.384V2.608a10.91,10.91,0,0,1,.1-1.776H83.784a12.676,12.676,0,0,1,.1,1.76Zm9.456,1.216c.624,0,1.12.016,1.472.048a9.419,9.419,0,0,1-.064-1.424v-2a11.689,11.689,0,0,1,.064-1.488,11.717,11.717,0,0,1-1.664.08H88.968a10.33,10.33,0,0,1-1.536-.08A10.766,10.766,0,0,1,87.5,2.576v2.08a12.327,12.327,0,0,1-.064,1.44,11.283,11.283,0,0,1,1.456-.064ZM88.44,2.08H93.8V3.248H88.44Zm0,1.952H93.8V5.248H88.44Zm20.912,2.48v6.88a11.184,11.184,0,0,1-.1,1.664h1.2a8.759,8.759,0,0,1-.1-1.632V6.512h.56a9.272,9.272,0,0,1,1.44.1V5.472a9.507,9.507,0,0,1-1.488.1h-4.16v-2.5a24.174,24.174,0,0,0,4.768-1.184c.32-.1.416-.128.656-.192l-.688-.928A15.621,15.621,0,0,1,105.64,2.24,17.553,17.553,0,0,1,105.7,4.1c0,3.5-.224,5.536-.768,7.056a7.307,7.307,0,0,1-2.192,3.152,3.077,3.077,0,0,1,.816.768,8.926,8.926,0,0,0,2.32-3.5,17,17,0,0,0,.8-5.056ZM98.12,2.608a10.175,10.175,0,0,1,1.5-.1h3.856a8.7,8.7,0,0,1,1.472.08V1.5a8.681,8.681,0,0,1-1.488.08H99.656a8.441,8.441,0,0,1-1.536-.1Zm6.128,2.784c0-.464.016-.88.048-1.2a12.817,12.817,0,0,1-1.5.064h-2.224A15.988,15.988,0,0,1,98.9,4.192c.048.512.064,1.008.064,2.032,0,4.7-.272,6.288-1.424,8.1a2.753,2.753,0,0,1,.864.656A11.333,11.333,0,0,0,99.9,9.184h2.96l.624.016h.352a3.481,3.481,0,0,1,.464.032,11.483,11.483,0,0,1-.048-1.168ZM99.928,8.3c.016-.608.016-.656.016-1.456V5.136h3.328V8.3Z" transform="translate(41 1054)" fill="#707070"/>
    <path id="パス_30" data-name="パス 30" d="M29.224,1.36a6.684,6.684,0,0,1-1.824.768,25.708,25.708,0,0,1-6.72,1.008c-.24,0-.48,0-.928-.032a4.173,4.173,0,0,1,.384,1.072,30.346,30.346,0,0,0,4.736-.448c0,1.408-.016,2.3-.048,3.008H20.232a7.593,7.593,0,0,1-1.68-.112V7.84a12.39,12.39,0,0,1,1.68-.08h4.5a6.017,6.017,0,0,1-.976,3.136,7.479,7.479,0,0,1-3.744,2.752,3.03,3.03,0,0,1,.864.992A8.627,8.627,0,0,0,24.856,11.3,7.619,7.619,0,0,0,25.9,7.76h3.92a12.39,12.39,0,0,1,1.68.08V6.624a7.593,7.593,0,0,1-1.68.112h-3.84c.016-.624.032-1.664.048-3.2a24.793,24.793,0,0,0,3.52-.992,3.306,3.306,0,0,1,.5-.16Zm12.24,6.128h2.464a7.627,7.627,0,0,1,1.408.064V6.432a8.119,8.119,0,0,1-1.424.1h-5.84a8.374,8.374,0,0,1-1.424-.1v1.12a10.426,10.426,0,0,1,1.424-.064H40.36v5.536H37.112a6.528,6.528,0,0,1-1.44-.1v1.136A11.283,11.283,0,0,1,37.128,14h7.744a11.6,11.6,0,0,1,1.456.064v-1.12a8.055,8.055,0,0,1-1.44.08H41.464ZM51.992,5.552a13.2,13.2,0,0,1,1.5,3.584l1.088-.368A17.57,17.57,0,0,0,53,5.216Zm3.3-.672a14.037,14.037,0,0,1,1.472,3.5l1.056-.368a16.045,16.045,0,0,0-1.552-3.44Zm5.552-.016v.16a6.725,6.725,0,0,1-.176,1.088,12.072,12.072,0,0,1-1.36,3.44,10.27,10.27,0,0,1-5.072,4.176,3.237,3.237,0,0,1,.736.9A11.6,11.6,0,0,0,60.264,10a14.406,14.406,0,0,0,1.408-3.584,9.441,9.441,0,0,1,.352-1.3ZM71.8.96A7.256,7.256,0,0,1,70.792,3.3,11.854,11.854,0,0,1,66.776,7.68a2.379,2.379,0,0,1,.9.832A15.425,15.425,0,0,0,71.5,4.352l5.392-.1a14.7,14.7,0,0,1-2.752,5.36,13.61,13.61,0,0,1-5.648,4.048,2.412,2.412,0,0,1,.8.944,15.668,15.668,0,0,0,5.568-4,16.927,16.927,0,0,0,3.2-6.016c.176-.576.176-.592.32-.784l-.688-.672a1.572,1.572,0,0,1-.832.112c-4.624.08-4.624.08-4.832.128a15.305,15.305,0,0,0,.736-1.424,3.057,3.057,0,0,1,.352-.656ZM93.528,1.3A13.43,13.43,0,0,1,90.472,4.32a22.529,22.529,0,0,1-8.3,4.144,3.7,3.7,0,0,1,.624,1.072,25.012,25.012,0,0,0,6.176-2.8v6.08a8.339,8.339,0,0,1-.1,1.664h1.392a10.629,10.629,0,0,1-.08-1.7V5.968a28.18,28.18,0,0,0,3.744-3.216,3.622,3.622,0,0,1,.7-.672ZM99.5,3.552A17.668,17.668,0,0,1,103.3,6.688l.832-.992a20.843,20.843,0,0,0-3.856-3.008Zm.112,10.4a8.407,8.407,0,0,1,.96-.256,16.131,16.131,0,0,0,5.968-2.384,14.033,14.033,0,0,0,4.88-6.112,3.2,3.2,0,0,1-.976-.944,12.09,12.09,0,0,1-6.528,7.12,13.926,13.926,0,0,1-4.656,1.232Z" transform="translate(41 1102)" fill="#707070"/>
    <path id="パス_31" data-name="パス 31" d="M22.224,1.36a6.684,6.684,0,0,1-1.824.768,25.708,25.708,0,0,1-6.72,1.008c-.24,0-.48,0-.928-.032a4.173,4.173,0,0,1,.384,1.072,30.346,30.346,0,0,0,4.736-.448c0,1.408-.016,2.3-.048,3.008H13.232a7.593,7.593,0,0,1-1.68-.112V7.84a12.39,12.39,0,0,1,1.68-.08h4.5a6.017,6.017,0,0,1-.976,3.136,7.479,7.479,0,0,1-3.744,2.752,3.03,3.03,0,0,1,.864.992A8.627,8.627,0,0,0,17.856,11.3,7.619,7.619,0,0,0,18.9,7.76h3.92a12.39,12.39,0,0,1,1.68.08V6.624a7.593,7.593,0,0,1-1.68.112h-3.84c.016-.624.032-1.664.048-3.2a24.793,24.793,0,0,0,3.52-.992,3.306,3.306,0,0,1,.5-.16Zm10.24,6.128h2.464a7.627,7.627,0,0,1,1.408.064V6.432a8.119,8.119,0,0,1-1.424.1h-5.84a8.374,8.374,0,0,1-1.424-.1v1.12a10.426,10.426,0,0,1,1.424-.064H31.36v5.536H28.112a6.528,6.528,0,0,1-1.44-.1v1.136A11.283,11.283,0,0,1,28.128,14h7.744a11.6,11.6,0,0,1,1.456.064v-1.12a8.055,8.055,0,0,1-1.44.08H32.464Zm8.528-1.936a13.2,13.2,0,0,1,1.5,3.584l1.088-.368A17.57,17.57,0,0,0,42,5.216Zm3.3-.672a14.037,14.037,0,0,1,1.472,3.5l1.056-.368a16.045,16.045,0,0,0-1.552-3.44Zm5.552-.016v.16a6.725,6.725,0,0,1-.176,1.088,12.072,12.072,0,0,1-1.36,3.44,10.27,10.27,0,0,1-5.072,4.176,3.237,3.237,0,0,1,.736.9A11.6,11.6,0,0,0,49.264,10a14.406,14.406,0,0,0,1.408-3.584,9.441,9.441,0,0,1,.352-1.3ZM59.8.96A7.256,7.256,0,0,1,58.792,3.3,11.854,11.854,0,0,1,54.776,7.68a2.379,2.379,0,0,1,.9.832A15.425,15.425,0,0,0,59.5,4.352l5.392-.1a14.7,14.7,0,0,1-2.752,5.36,13.61,13.61,0,0,1-5.648,4.048,2.412,2.412,0,0,1,.8.944,15.668,15.668,0,0,0,5.568-4,16.927,16.927,0,0,0,3.2-6.016c.176-.576.176-.592.32-.784l-.688-.672a1.572,1.572,0,0,1-.832.112c-4.624.08-4.624.08-4.832.128a15.3,15.3,0,0,0,.736-1.424,3.056,3.056,0,0,1,.352-.656ZM81.952,2.192c-.288.112-.288.112-1.36.112H72a11.727,11.727,0,0,1-1.9-.112V3.424a15.449,15.449,0,0,1,1.888-.08h9.088A8.488,8.488,0,0,1,79.28,5.728a6.927,6.927,0,0,1-2.528,1.52,3.143,3.143,0,0,1,.784.912A9.576,9.576,0,0,0,82.208,3.6a2.871,2.871,0,0,1,.384-.64ZM74.976,4.976a4.225,4.225,0,0,1,.064.864c0,3.12-.624,4.752-2.32,6.112a7.519,7.519,0,0,1-2.928,1.472,3.129,3.129,0,0,1,.736,1.072,8.716,8.716,0,0,0,4.1-2.768c1.088-1.376,1.536-2.96,1.584-5.632a5.8,5.8,0,0,1,.064-1.12ZM91.512,3.792V2.16a6.28,6.28,0,0,1,.08-1.008H90.248a5.02,5.02,0,0,1,.08,1.024V3.792H86.936a13.667,13.667,0,0,1-1.472-.064,10.464,10.464,0,0,1,.064,1.3v2.16c0,.416-.032.928-.064,1.2h1.312A11.4,11.4,0,0,1,86.728,7.2V4.8h8.736c-.3,3.248-1.472,5.44-3.712,6.992a10.565,10.565,0,0,1-3.536,1.552,3.277,3.277,0,0,1,.736,1.088,12.543,12.543,0,0,0,4.688-2.656,9.97,9.97,0,0,0,2.9-5.84c.208-1.36.208-1.36.352-1.616L96.232,3.7a3.563,3.563,0,0,1-1.344.1Zm11.6,10.7a10.881,10.881,0,0,1-.08-1.7V7.984a5.588,5.588,0,0,0-.064-.944L103,7.024a1.765,1.765,0,0,0,.5.272,32.622,32.622,0,0,1,5.968,3.168l.688-1.184a39.681,39.681,0,0,0-7.12-3.376V2.912a10.043,10.043,0,0,1,.08-1.664h-1.376a9.486,9.486,0,0,1,.1,1.632v9.936a10.29,10.29,0,0,1-.1,1.68Z" transform="translate(41 1150)" fill="#707070"/>
    <path id="パス_32" data-name="パス 32" d="M70.1,6.688h.624a6.88,6.88,0,0,1,1.248.08V5.84a8.761,8.761,0,0,1-1.248.064H70.1V4.4h.624a6.88,6.88,0,0,1,1.248.08V3.536a6.669,6.669,0,0,1-1.248.08H70.1v-1.5h1.04a9.519,9.519,0,0,1,1.3.064v-.96a8.718,8.718,0,0,1-1.456.08H67.9a9.8,9.8,0,0,1-1.472-.08,13.351,13.351,0,0,1,.064,1.5V7.632c0,.544-.016,1.12-.048,1.5.416-.032.768-.048,1.216-.048h3.776a20.9,20.9,0,0,1-.416,4.288c-.16.7-.32.88-.784.88a6.108,6.108,0,0,1-1.424-.224A3.035,3.035,0,0,1,69,15.056a7.7,7.7,0,0,0,1.152.1c.944,0,1.28-.192,1.536-.912A18.561,18.561,0,0,0,72.36,9.3a9.773,9.773,0,0,1,.064-1.072,9.031,9.031,0,0,1-1.408.064H70.1Zm-.9,0v1.6H67.384v-1.6Zm0-.784H67.384V4.4h1.824Zm0-2.288H67.384v-1.5h1.824ZM75.88,13.632H74.072a12.194,12.194,0,0,1-1.648-.1v1.136a10.674,10.674,0,0,1,1.648-.112h4.64a10.746,10.746,0,0,1,1.664.112V13.536a12.448,12.448,0,0,1-1.664.1H76.888V9.344H78.28a10.642,10.642,0,0,1,1.536.1v-1.1a10.041,10.041,0,0,1-1.536.1H76.888V4.96h1.76a11.282,11.282,0,0,1,1.568.1v-1.1a10.21,10.21,0,0,1-1.568.1H74.472a10.806,10.806,0,0,1-1.568-.1v1.1a11.282,11.282,0,0,1,1.568-.1H75.88V8.432H74.84a9.9,9.9,0,0,1-1.536-.1v1.1a10.487,10.487,0,0,1,1.536-.1h1.04ZM78.024,3.008a13.42,13.42,0,0,0-2.8-2.144l-.688.672A12.055,12.055,0,0,1,77.32,3.728ZM66.488,9.776a11.27,11.27,0,0,1-.848,3.952l.784.4a13.143,13.143,0,0,0,.784-4.208Zm1.168.192a13.543,13.543,0,0,1,.08,1.536,16.371,16.371,0,0,1-.112,2.128l.816-.112c.032-.56.032-.752.032-1.248a18.139,18.139,0,0,0-.128-2.416Zm1.136-.032a16.025,16.025,0,0,1,.352,3.008l.72-.208a15.936,15.936,0,0,0-.448-2.976Zm1.12-.1a11,11,0,0,1,.48,2.48l.64-.224a13.29,13.29,0,0,0-.56-2.464Zm18.5-7.44H83.8a8.946,8.946,0,0,1-1.632-.112v1.1a11.693,11.693,0,0,1,1.616-.1h4.624V4.672H85.352a9.279,9.279,0,0,1-1.776-.1A15.234,15.234,0,0,1,83.64,6.3V8.768a14.592,14.592,0,0,1-.064,1.7,11.8,11.8,0,0,1,1.856-.1h2.976v1.424H83.672a8.389,8.389,0,0,1-1.632-.112V12.8a11.305,11.305,0,0,1,1.632-.1h4.736v.768a9.073,9.073,0,0,1-.112,1.76h1.2a8.517,8.517,0,0,1-.112-1.76V12.7H94.36a12.448,12.448,0,0,1,1.664.1V11.68a8.334,8.334,0,0,1-1.664.112H89.384V10.368h3.248a11.45,11.45,0,0,1,1.824.1,14.769,14.769,0,0,1-.064-1.7V6.256a14.629,14.629,0,0,1,.064-1.68,9.571,9.571,0,0,1-1.808.1H89.384V3.3H94.2a12.707,12.707,0,0,1,1.648.1v-1.1a8.44,8.44,0,0,1-1.664.112h-4.8V2.192A8.616,8.616,0,0,1,89.5.656H88.3a8.382,8.382,0,0,1,.112,1.536Zm0,3.136V7.072H84.632V5.536Zm0,2.4V9.5H84.632V7.936ZM89.384,9.5V7.936H93.4V9.5Zm0-2.432V5.536H93.4V7.072ZM106.136,9.9a9.074,9.074,0,0,1-4.048,3.248,2.324,2.324,0,0,1,.688.752,11.028,11.028,0,0,0,4.4-4h1.584a7.8,7.8,0,0,1-1.312,2.1,10.156,10.156,0,0,1-3.136,2.432,2.732,2.732,0,0,1,.736.752,12.993,12.993,0,0,0,1.3-.9,16.331,16.331,0,0,0,1.968-1.968A9.264,9.264,0,0,0,109.736,9.9h1.072a19.454,19.454,0,0,1-.352,3.072c-.208.96-.32,1.088-.96,1.088a11.052,11.052,0,0,1-1.9-.176,2.712,2.712,0,0,1,.32,1.04c.5.032,1.024.064,1.392.064,1.088,0,1.488-.16,1.776-.736a15.966,15.966,0,0,0,.7-4.272,7.259,7.259,0,0,1,.08-.944A12.487,12.487,0,0,1,110.3,9.1H105a7.832,7.832,0,0,0,.736-1.168h4.9A13.636,13.636,0,0,1,112.216,8V6.992a9.088,9.088,0,0,1-1.584.1H103.8a7.878,7.878,0,0,1-1.472-.1v1.04a7.832,7.832,0,0,1,1.44-.1h.976a7.681,7.681,0,0,1-3.712,3.376,2.844,2.844,0,0,1,.656.72A10.259,10.259,0,0,0,104.376,9.9ZM99.88,4.816h-.656a8.943,8.943,0,0,1-1.392-.08V5.792a11.532,11.532,0,0,1,1.36-.08h.688v4.576a7.972,7.972,0,0,1-2.064.784l.3,1.12c.144-.08.592-.3.848-.416A29.488,29.488,0,0,0,102.3,9.968l-.064-.96a13.833,13.833,0,0,1-1.36.816V5.712h.384a12.5,12.5,0,0,1,1.328.064V4.752a9.443,9.443,0,0,1-1.328.064h-.384V2.608a10.91,10.91,0,0,1,.1-1.776H99.784a12.676,12.676,0,0,1,.1,1.76Zm9.456,1.216c.624,0,1.12.016,1.472.048a9.419,9.419,0,0,1-.064-1.424v-2a11.689,11.689,0,0,1,.064-1.488,11.717,11.717,0,0,1-1.664.08h-4.176a10.33,10.33,0,0,1-1.536-.08,10.766,10.766,0,0,1,.064,1.408v2.08a12.327,12.327,0,0,1-.064,1.44,11.283,11.283,0,0,1,1.456-.064Zm-4.9-3.952h5.36V3.248h-5.36Zm0,1.952h5.36V5.248h-5.36Z" transform="translate(41 1198)" fill="#707070"/>
    <text id="_部屋_和室_" data-name="５部屋（和室）" transform="translate(169.568 792)" fill="#707070" font-size="16" font-family="HiraKakuProN-W3, Hiragino Kaku Gothic ProN"><tspan x="0" y="0">５部屋（和室）</tspan></text>
    <text id="冷暖房_テレビ_金庫_外線電話" data-name="冷暖房・テレビ・
金庫・外線電話" transform="translate(169 826)" fill="#707070" font-size="16" font-family="HiraKakuProN-W3, Hiragino Kaku Gothic ProN"><tspan x="0" y="14">冷暖房・テレビ・</tspan><tspan x="0" y="41">金庫・外線電話</tspan></text>
    <text id="浴衣_歯ブラシ_タオル_バスタオル" data-name="浴衣・歯ブラシ・
タオル・バスタオル" transform="translate(169 902)" fill="#707070" font-size="16" font-family="HiraKakuProN-W3, Hiragino Kaku Gothic ProN"><tspan x="0" y="14">浴衣・歯ブラシ・</tspan><tspan x="0" y="41">タオル・バスタオル</tspan></text>
    <path id="パス_34" data-name="パス 34" d="M4.256,2.4H2.544A8.278,8.278,0,0,1,1.1,2.32V3.344a8.622,8.622,0,0,1,1.44-.08H4.256V4.8H3.2a11.85,11.85,0,0,1-1.488-.064,13.35,13.35,0,0,1,.064,1.5V8.688a13.118,13.118,0,0,1-.064,1.52A13.227,13.227,0,0,1,3.2,10.144H4.24v1.5H2.4a8.392,8.392,0,0,1-1.44-.08v1.056a8.979,8.979,0,0,1,1.44-.08H4.24v1.232a6.607,6.607,0,0,1-.1,1.456H5.3a5.958,5.958,0,0,1-.128-1.456V12.544H6.544a8.433,8.433,0,0,1,1.408.08V11.568a8.2,8.2,0,0,1-1.408.08H5.168v-1.5H6.3a11.248,11.248,0,0,1,1.472.064,12.759,12.759,0,0,1-.048-1.5V6.16a8.772,8.772,0,0,1,.048-1.424A10.341,10.341,0,0,1,6.3,4.8H5.184V3.264H6.768a9.006,9.006,0,0,1,1.424.08V2.32a8.3,8.3,0,0,1-1.424.08H5.184V2.032A6.032,6.032,0,0,1,5.3.7H4.144a5.489,5.489,0,0,1,.112,1.328ZM2.688,5.632H6.832V7.024H2.688ZM2.672,7.856H6.816V9.312H2.672Zm10.9,1.888V13.3c0,.56-.08.624-.784.624a9.919,9.919,0,0,1-1.888-.208,4.238,4.238,0,0,1,.256,1.12,15.264,15.264,0,0,0,1.568.08c1.472,0,1.824-.288,1.824-1.52V2.88a13.655,13.655,0,0,1,.064-1.648,12.943,12.943,0,0,1-1.52.064H10.672a13.423,13.423,0,0,1-1.536-.064A16.725,16.725,0,0,1,9.2,3.12a68.8,68.8,0,0,1-.24,6.944,7.257,7.257,0,0,1-1.792,4.448,3.552,3.552,0,0,1,.848.672A7.624,7.624,0,0,0,9.5,12.336a12.941,12.941,0,0,0,.464-2.592Zm-3.536-.88a28.655,28.655,0,0,0,.128-2.9h3.408v2.9Zm.144-3.792V2.192h3.392v2.88ZM21.392,7.12a24.278,24.278,0,0,1,3.776,2.672,15.04,15.04,0,0,1-1.888,1.792,18.035,18.035,0,0,1-4.96,2.72c.064.08.112.128.144.176.128.16.208.256.24.3a2.633,2.633,0,0,1,.272.5,19.022,19.022,0,0,0,5.712-3.52,17.03,17.03,0,0,0,3.984-5.344,17.173,17.173,0,0,0,1.072-2.384,1.709,1.709,0,0,1,.176-.416l-.56-.64A8.561,8.561,0,0,1,28,3.04H23.2c.256-.448.464-.832.7-1.28a6.757,6.757,0,0,1,.432-.8l-1.2-.368a7.135,7.135,0,0,1-.88,1.968A15.229,15.229,0,0,1,17.52,7.744a3.307,3.307,0,0,1,.768.88A18.55,18.55,0,0,0,22.64,3.968h5.952a19.076,19.076,0,0,1-2.72,5.008,34.418,34.418,0,0,0-3.76-2.592Zm17.5,3.024a8.169,8.169,0,0,0,1.936,2.336,13.007,13.007,0,0,0,5.68,2.736,4.222,4.222,0,0,1,.576-1.04,12.6,12.6,0,0,1-4.352-1.52,25.78,25.78,0,0,0,3.136-2.48l-.912-.608A14.19,14.19,0,0,1,41.9,12.144a6.679,6.679,0,0,1-1.968-2h2.928c.672,0,1.1.016,1.488.048-.032-.368-.048-.656-.048-1.3V6.144c0-.512,0-.816.032-1.168a21.374,21.374,0,0,0,2.432,1.2,3.473,3.473,0,0,1,.608-1.024,18.008,18.008,0,0,1-4.1-1.936A12.552,12.552,0,0,1,40.4.72H39.312a14.6,14.6,0,0,1-6.736,4.432,2.887,2.887,0,0,1,.592.976A19.691,19.691,0,0,0,35.456,5.04c.032.32.048.8.048,1.328v7.488a12.6,12.6,0,0,1-2.192.256l.272,1.12c.272-.064.416-.1.592-.128a59.68,59.68,0,0,0,6.176-1.44l.016-.928a35.47,35.47,0,0,1-3.856.944V10.144ZM40.3,4.816V4.272a6.2,6.2,0,0,1,.08-1.216H39.248a5.682,5.682,0,0,1,.1,1.216v.544H36.976c-.48,0-.688,0-1.1-.016a14.892,14.892,0,0,0,4-3.3,15.305,15.305,0,0,0,4.144,3.28c-.432.032-.656.032-1.216.032Zm-3.792.848h6.8V6.992h-6.8Zm0,2.176h6.8V9.3h-6.8ZM57.136,9.9a9.074,9.074,0,0,1-4.048,3.248,2.323,2.323,0,0,1,.688.752,11.028,11.028,0,0,0,4.4-4H59.76A7.8,7.8,0,0,1,58.448,12a10.156,10.156,0,0,1-3.136,2.432,2.732,2.732,0,0,1,.736.752,12.993,12.993,0,0,0,1.3-.9,16.331,16.331,0,0,0,1.968-1.968A9.264,9.264,0,0,0,60.736,9.9h1.072a19.455,19.455,0,0,1-.352,3.072c-.208.96-.32,1.088-.96,1.088a11.052,11.052,0,0,1-1.9-.176,2.711,2.711,0,0,1,.32,1.04c.5.032,1.024.064,1.392.064,1.088,0,1.488-.16,1.776-.736a15.966,15.966,0,0,0,.7-4.272,7.258,7.258,0,0,1,.08-.944A12.487,12.487,0,0,1,61.3,9.1H56a7.831,7.831,0,0,0,.736-1.168h4.9A13.636,13.636,0,0,1,63.216,8V6.992a9.088,9.088,0,0,1-1.584.1H54.8a7.878,7.878,0,0,1-1.472-.1v1.04a7.832,7.832,0,0,1,1.44-.1h.976a7.681,7.681,0,0,1-3.712,3.376,2.844,2.844,0,0,1,.656.72A10.259,10.259,0,0,0,55.376,9.9ZM50.88,4.816h-.656a8.943,8.943,0,0,1-1.392-.08V5.792a11.532,11.532,0,0,1,1.36-.08h.688v4.576a7.972,7.972,0,0,1-2.064.784l.3,1.12c.144-.08.592-.3.848-.416A29.488,29.488,0,0,0,53.3,9.968l-.064-.96a13.833,13.833,0,0,1-1.36.816V5.712h.384a12.5,12.5,0,0,1,1.328.064V4.752a9.443,9.443,0,0,1-1.328.064h-.384V2.608a10.911,10.911,0,0,1,.1-1.776H50.784a12.677,12.677,0,0,1,.1,1.76Zm9.456,1.216c.624,0,1.12.016,1.472.048a9.419,9.419,0,0,1-.064-1.424v-2a11.689,11.689,0,0,1,.064-1.488,11.717,11.717,0,0,1-1.664.08H55.968a10.33,10.33,0,0,1-1.536-.08A10.767,10.767,0,0,1,54.5,2.576v2.08a12.328,12.328,0,0,1-.064,1.44,11.283,11.283,0,0,1,1.456-.064ZM55.44,2.08H60.8V3.248H55.44Zm0,1.952H60.8V5.248H55.44Zm20.912,2.48v6.88a11.184,11.184,0,0,1-.1,1.664h1.2a8.759,8.759,0,0,1-.1-1.632V6.512h.56a9.272,9.272,0,0,1,1.44.1V5.472a9.507,9.507,0,0,1-1.488.1h-4.16v-2.5A24.174,24.174,0,0,0,78.48,1.888c.32-.1.416-.128.656-.192L78.448.768A15.621,15.621,0,0,1,72.64,2.24,17.553,17.553,0,0,1,72.7,4.1c0,3.5-.224,5.536-.768,7.056A7.307,7.307,0,0,1,69.744,14.3a3.077,3.077,0,0,1,.816.768,8.926,8.926,0,0,0,2.32-3.5,17,17,0,0,0,.8-5.056ZM65.12,2.608a10.175,10.175,0,0,1,1.5-.1H70.48a8.7,8.7,0,0,1,1.472.08V1.5a8.681,8.681,0,0,1-1.488.08H66.656a8.441,8.441,0,0,1-1.536-.1Zm6.128,2.784c0-.464.016-.88.048-1.2a12.817,12.817,0,0,1-1.5.064H67.568A15.988,15.988,0,0,1,65.9,4.192c.048.512.064,1.008.064,2.032,0,4.7-.272,6.288-1.424,8.1a2.753,2.753,0,0,1,.864.656A11.333,11.333,0,0,0,66.9,9.184h2.96l.624.016h.352a3.481,3.481,0,0,1,.464.032,11.483,11.483,0,0,1-.048-1.168ZM66.928,8.3c.016-.608.016-.656.016-1.456V5.136h3.328V8.3ZM87.784,3.6H86.2V5.184h1.584Zm0,8.64V10.656H86.2V12.24Zm5.544-9.216a9.671,9.671,0,0,1,1.392-.1h.864v9.264A10.093,10.093,0,0,1,95.456,14h1.52a10.208,10.208,0,0,1-.128-1.808V4.416a26.252,26.252,0,0,1,.144-2.656,9.11,9.11,0,0,1-1.328.08H94.656a7.749,7.749,0,0,1-1.328-.08ZM114.16,8.256c.16-.256.224-.368.32-.528.272-.48.336-.608.352-.624l-1.072-.24a4.409,4.409,0,0,1-.624,1.392h-1.072c-.736,0-1.088-.016-1.552-.048a13.476,13.476,0,0,1,.064,1.52v3.84a9.789,9.789,0,0,1-.1,1.568h1.056v-.672H117.2v.72h1.088a13.229,13.229,0,0,1-.1-1.68V9.76a12.325,12.325,0,0,1,.064-1.568,10.272,10.272,0,0,1-1.52.064Zm-2.624.864H117.2v1.728h-5.664Zm0,2.592H117.2v1.872h-5.664Zm-1.152-5.424a6.851,6.851,0,0,1-1.024.128l.24.976c.256-.064.448-.112.752-.176a29.754,29.754,0,0,0,3.68-1.024V5.328a21.965,21.965,0,0,1-2.736.784V3.584h1.456a8.206,8.206,0,0,1,1.28.08V2.608a5.373,5.373,0,0,1-1.28.1H111.3V2.24a10.826,10.826,0,0,1,.1-1.6h-1.1a11.218,11.218,0,0,1,.1,1.616Zm5.12-2.256a17.052,17.052,0,0,0,2.864-1.376c.192-.112.448-.256.576-.32l-.64-.816a8.988,8.988,0,0,1-2.8,1.616V2.208A10.654,10.654,0,0,1,115.6.64h-1.1a13.1,13.1,0,0,1,.1,1.616V5.872c0,.912.336,1.056,2.416,1.056,2,0,2.192-.192,2.24-2.24a3.089,3.089,0,0,1-.9-.336c-.016,1.232-.048,1.456-.24,1.584a2.9,2.9,0,0,1-1.248.128c-1.184,0-1.36-.064-1.36-.48Zm-10,9.008a16.55,16.55,0,0,1-.1,2.112h1.152a17.326,17.326,0,0,1-.08-2.1V1.952h2.208a20.622,20.622,0,0,1-1.744,4.1,5.643,5.643,0,0,1,1.52,2.32,4.584,4.584,0,0,1,.224,1.376c0,.432-.08.72-.256.848a1.3,1.3,0,0,1-.736.144,7.1,7.1,0,0,1-.88-.08,2.174,2.174,0,0,1,.192.976c.368.016.4.016.464.016a3.381,3.381,0,0,0,1.456-.208,1.808,1.808,0,0,0,.7-1.68,5,5,0,0,0-.368-1.808,5.912,5.912,0,0,0-1.28-2.032,26.888,26.888,0,0,0,1.648-3.728,3.6,3.6,0,0,1,.256-.608l-.56-.592a5.4,5.4,0,0,1-1.04.064H106.7a7.748,7.748,0,0,1-1.248-.048c.016.208.016.208.048,1.376Zm21.392-2.9a8.169,8.169,0,0,0,1.936,2.336,13.007,13.007,0,0,0,5.68,2.736,4.222,4.222,0,0,1,.576-1.04,12.6,12.6,0,0,1-4.352-1.52,25.779,25.779,0,0,0,3.136-2.48l-.912-.608a14.191,14.191,0,0,1-3.056,2.576,6.678,6.678,0,0,1-1.968-2h2.928c.672,0,1.1.016,1.488.048-.032-.368-.048-.656-.048-1.3V6.144c0-.512,0-.816.032-1.168a21.374,21.374,0,0,0,2.432,1.2,3.472,3.472,0,0,1,.608-1.024,18.008,18.008,0,0,1-4.1-1.936A12.552,12.552,0,0,1,128.4.72h-1.088a14.6,14.6,0,0,1-6.736,4.432,2.887,2.887,0,0,1,.592.976,19.691,19.691,0,0,0,2.288-1.088c.032.32.048.8.048,1.328v7.488a12.6,12.6,0,0,1-2.192.256l.272,1.12c.272-.064.416-.1.592-.128a59.68,59.68,0,0,0,6.176-1.44l.016-.928a35.47,35.47,0,0,1-3.856.944V10.144ZM128.3,4.816V4.272a6.2,6.2,0,0,1,.08-1.216h-1.136a5.682,5.682,0,0,1,.1,1.216v.544h-2.368c-.48,0-.688,0-1.1-.016a14.892,14.892,0,0,0,4-3.3,15.306,15.306,0,0,0,4.144,3.28c-.432.032-.656.032-1.216.032Zm-3.792.848h6.8V6.992h-6.8Zm0,2.176h6.8V9.3h-6.8ZM143.36,3.456h-1.6a17.41,17.41,0,0,0-1.824-2.5l-.864.464a10.182,10.182,0,0,1,1.6,2.032H139.04a14.277,14.277,0,0,1-1.68-.064,10.2,10.2,0,0,1,.064,1.28v1.28a7.452,7.452,0,0,1-.064.976h1.024V4.32h11.328V6.96h1.024a5.7,5.7,0,0,1-.064-.912v-1.2a12.627,12.627,0,0,1,.064-1.456,16.226,16.226,0,0,1-1.776.064h-1.536a17.3,17.3,0,0,0,1.456-2.08l-.992-.512a11.314,11.314,0,0,1-1.568,2.592h-1.952V1.872a8.988,8.988,0,0,1,.08-1.184H143.28a9.81,9.81,0,0,1,.08,1.184Zm0,5.856v1.5h-3.616a8.955,8.955,0,0,1-1.456-.08v1.072a8.955,8.955,0,0,1,1.456-.08h3.616v2.048H138.7a11.615,11.615,0,0,1-1.712-.1V14.8a11.54,11.54,0,0,1,1.712-.112h10.672a10.887,10.887,0,0,1,1.664.112V13.68a11.485,11.485,0,0,1-1.664.1h-5.024V11.728h3.984a8.859,8.859,0,0,1,1.44.08V10.736a8.74,8.74,0,0,1-1.44.08h-3.984v-1.5h2.32a15.391,15.391,0,0,1,1.568.064,9.959,9.959,0,0,1-.048-1.344V6.9a12.015,12.015,0,0,1,.048-1.28,8.878,8.878,0,0,1-1.328.064h-5.76a11.066,11.066,0,0,1-1.36-.064c.032.32.048.7.048,1.248V8.032a11.8,11.8,0,0,1-.048,1.344,10.545,10.545,0,0,1,1.44-.064Zm-2.544-2.784h6.4V8.48h-6.4Z" transform="translate(169 1054)" fill="#707070"/>
    <text id="_" data-name="１５：００" transform="translate(169 1102)" fill="#707070" font-size="16" font-family="HiraKakuProN-W3, Hiragino Kaku Gothic ProN"><tspan x="0" y="14">１５：００</tspan></text>
    <text id="_2" data-name="１０：００" transform="translate(169 1150)" fill="#707070" font-size="16" font-family="HiraKakuProN-W3, Hiragino Kaku Gothic ProN"><tspan x="0" y="14">１０：００</tspan></text>
    <text id="_台" data-name="３台" transform="translate(169 1198)" fill="#707070" font-size="16" font-family="HiraKakuProN-W3, Hiragino Kaku Gothic ProN"><tspan x="0" y="14">３台</tspan></text>
    <line id="線_17" data-name="線 17" x2="301" transform="translate(37 760.5)" fill="none" stroke="#707070" stroke-width="1"/>
    <text id="ボディシャンプー_シャンプー_リンス" data-name="ボディシャンプー・
シャンプー・リンス" transform="translate(169 978)" fill="#707070" font-size="16" font-family="HiraKakuProN-W3, Hiragino Kaku Gothic ProN"><tspan x="0" y="14">ボディシャンプー・</tspan><tspan x="0" y="41">シャンプー・リンス</tspan></text>
  </g>
</svg>
