<svg xmlns="http://www.w3.org/2000/svg" width="424" height="388" viewBox="0 0 424 388">
  <g id="グループ_92" data-name="グループ 92" transform="translate(-718 -1468)">
    <path id="パス_48" data-name="パス 48" d="M0,0H423V49H0Z" transform="translate(718 1516)" fill="#f4f4f4"/>
    <path id="パス_55" data-name="パス 55" d="M0,0H423V49H0Z" transform="translate(718 1710)" fill="#f4f4f4"/>
    <path id="パス_49" data-name="パス 49" d="M0,0H423V49H0Z" transform="translate(718 1613)" fill="#f4f4f4"/>
    <path id="パス_59" data-name="パス 59" d="M0,0H423V49H0Z" transform="translate(718 1807)" fill="#f4f4f4"/>
    <path id="パス_50" data-name="パス 50" d="M83.552,13.744a9.946,9.946,0,0,1-.1,1.376h1.088V14.5h7.024v.624h1.1a8.984,8.984,0,0,1-.1-1.376V11.536c0-.4.016-.624.032-.976.88.272,1.232.368,2.256.624a3.8,3.8,0,0,1,.48-1.072,17.872,17.872,0,0,1-6.416-2.176,22.773,22.773,0,0,0,2.944-2.56c.144-.16.176-.192.288-.3L91.568,4.5a11.768,11.768,0,0,1-1.456.064H86.624c.3-.352.3-.352.384-.448.08-.112.144-.176.176-.224a1.43,1.43,0,0,1,.208-.224L86.352,3.3A9.007,9.007,0,0,1,84.528,5.52a12.031,12.031,0,0,1-3.136,2.016,2.64,2.64,0,0,1,.688.768A13.994,13.994,0,0,0,85.152,6.1a12.525,12.525,0,0,0,2.112,1.84,18.461,18.461,0,0,1-6.576,2.384,2.839,2.839,0,0,1,.528.944,22.8,22.8,0,0,0,2.3-.656c.016.32.032.592.032.928Zm2.336-8.368h4.688A17.248,17.248,0,0,1,88.1,7.424a12.26,12.26,0,0,1-2.32-1.936Zm-.992,4.96H84.3A19.959,19.959,0,0,0,88.1,8.5,16.824,16.824,0,0,0,91.92,10.32c-.256.016-.384.016-.736.016Zm-.352.864h7.024v2.416H84.544ZM87.36,2.256H83.008a14.525,14.525,0,0,1-1.7-.08,7.6,7.6,0,0,1,.064,1.1v.9a7.835,7.835,0,0,1-.064,1.12h1.024V3.136h11.28V5.312h1.04a7.418,7.418,0,0,1-.064-1.12V3.28a7.191,7.191,0,0,1,.064-1.1,15.2,15.2,0,0,1-1.792.08h-4.48V1.84A6.393,6.393,0,0,1,88.5.688H87.264a7.614,7.614,0,0,1,.1,1.152Zm31.984-.144H115.36a19.83,19.83,0,0,1-1.984-.064,8.031,8.031,0,0,1,.064,1.072v.848a7.475,7.475,0,0,1-.048.912l-.016.192h1.056V3.008h11.2V5.072h1.056a6.968,6.968,0,0,1-.064-1.088v-.8a7.245,7.245,0,0,1,.064-1.136c-.544.048-1.04.064-2.128.064h-4.176V1.7a5.736,5.736,0,0,1,.1-1.088h-1.232a6.25,6.25,0,0,1,.1,1.088Zm-1.376,3.344a15.023,15.023,0,0,1-1.312,2.272c-.768.016-1.152.032-1.664.032A9.813,9.813,0,0,1,114,7.712l.16,1.024a3.724,3.724,0,0,1,.608-.064c2.976-.112,6.256-.3,9.1-.544a12.866,12.866,0,0,1,1.1,1.136l.768-.656a27.825,27.825,0,0,0-3.392-2.864l-.768.5a15.642,15.642,0,0,1,1.472,1.152c-2.192.16-3.536.24-5.312.288a15.712,15.712,0,0,0,1.3-2.224h4.112a12.73,12.73,0,0,1,1.824.08V4.512a12.711,12.711,0,0,1-1.84.08h-6.208a12.32,12.32,0,0,1-1.824-.08V5.536a12.952,12.952,0,0,1,1.872-.08Zm2.432,5.008v-.24a7.663,7.663,0,0,1,.1-1.264h-1.2a7.948,7.948,0,0,1,.1,1.264v.24H116.32a11.381,11.381,0,0,1-1.712-.08V11.44a11.78,11.78,0,0,1,1.712-.08h3.072v2.256h-4.384a12.384,12.384,0,0,1-2.016-.112v1.12a17.458,17.458,0,0,1,2.064-.1h9.984a17.271,17.271,0,0,1,2.064.1V13.5a12.159,12.159,0,0,1-2,.112h-4.7V11.36h3.392a11.8,11.8,0,0,1,1.7.08V10.384a11.534,11.534,0,0,1-1.7.08ZM67.552,61.744a9.946,9.946,0,0,1-.1,1.376h1.088V62.5h7.024v.624h1.1a8.984,8.984,0,0,1-.1-1.376V59.536c0-.4.016-.624.032-.976.88.272,1.232.368,2.256.624a3.8,3.8,0,0,1,.48-1.072,17.872,17.872,0,0,1-6.416-2.176,22.773,22.773,0,0,0,2.944-2.56c.144-.16.176-.192.288-.3l-.592-.576a11.769,11.769,0,0,1-1.456.064H70.624c.3-.352.3-.352.384-.448.08-.112.144-.176.176-.224a1.43,1.43,0,0,1,.208-.224l-1.04-.368a9.007,9.007,0,0,1-1.824,2.224,12.031,12.031,0,0,1-3.136,2.016,2.64,2.64,0,0,1,.688.768A13.994,13.994,0,0,0,69.152,54.1a12.525,12.525,0,0,0,2.112,1.84,18.461,18.461,0,0,1-6.576,2.384,2.839,2.839,0,0,1,.528.944,22.8,22.8,0,0,0,2.3-.656c.016.32.032.592.032.928Zm2.336-8.368h4.688a17.248,17.248,0,0,1-2.48,2.048,12.26,12.26,0,0,1-2.32-1.936Zm-.992,4.96H68.3A19.959,19.959,0,0,0,72.1,56.5,16.824,16.824,0,0,0,75.92,58.32c-.256.016-.384.016-.736.016Zm-.352.864h7.024v2.416H68.544Zm2.816-8.944H67.008a14.525,14.525,0,0,1-1.7-.08,7.6,7.6,0,0,1,.064,1.1v.9a7.835,7.835,0,0,1-.064,1.12h1.024v-2.16h11.28v2.176h1.04a7.418,7.418,0,0,1-.064-1.12V51.28a7.191,7.191,0,0,1,.064-1.1,15.2,15.2,0,0,1-1.792.08h-4.48V49.84a6.393,6.393,0,0,1,.112-1.152H71.264a7.614,7.614,0,0,1,.1,1.152Zm15.984-.144H83.36a19.83,19.83,0,0,1-1.984-.064,8.031,8.031,0,0,1,.064,1.072v.848a7.475,7.475,0,0,1-.048.912l-.016.192h1.056V51.008h11.2v2.064h1.056a6.968,6.968,0,0,1-.064-1.088v-.8a7.245,7.245,0,0,1,.064-1.136c-.544.048-1.04.064-2.128.064H88.384V49.7a5.736,5.736,0,0,1,.1-1.088H87.248a6.25,6.25,0,0,1,.1,1.088Zm-1.376,3.344a15.023,15.023,0,0,1-1.312,2.272c-.768.016-1.152.032-1.664.032A9.813,9.813,0,0,1,82,55.712l.16,1.024a3.724,3.724,0,0,1,.608-.064c2.976-.112,6.256-.3,9.1-.544a12.866,12.866,0,0,1,1.1,1.136l.768-.656a27.825,27.825,0,0,0-3.392-2.864l-.768.5a15.643,15.643,0,0,1,1.472,1.152c-2.192.16-3.536.24-5.312.288a15.712,15.712,0,0,0,1.3-2.224h4.112a12.73,12.73,0,0,1,1.824.08V52.512a12.712,12.712,0,0,1-1.84.08H84.928a12.32,12.32,0,0,1-1.824-.08v1.024a12.952,12.952,0,0,1,1.872-.08ZM88.4,58.464v-.24a7.663,7.663,0,0,1,.1-1.264H87.3a7.948,7.948,0,0,1,.1,1.264v.24H84.32a11.381,11.381,0,0,1-1.712-.08V59.44a11.781,11.781,0,0,1,1.712-.08h3.072v2.256H83.008a12.384,12.384,0,0,1-2.016-.112v1.12a17.457,17.457,0,0,1,2.064-.1H93.04a17.271,17.271,0,0,1,2.064.1V61.5a12.159,12.159,0,0,1-2,.112H88.4V59.36h3.392a11.8,11.8,0,0,1,1.7.08V58.384a11.534,11.534,0,0,1-1.7.08Zm21.3-2.944a6.315,6.315,0,0,1-1.2.064h-4.464a5.81,5.81,0,0,1-1.136-.08v1.04a7.727,7.727,0,0,1,.96-.08,9.744,9.744,0,0,0,2.368,3.648,12.262,12.262,0,0,1-3.984,2.128,2.736,2.736,0,0,1,.624.88,13.459,13.459,0,0,0,4.064-2.352,13.418,13.418,0,0,0,4.144,2.32,5.28,5.28,0,0,1,.576-1.008,11.933,11.933,0,0,1-4.016-2,12.453,12.453,0,0,0,2.352-3.376,5.348,5.348,0,0,1,.3-.592Zm-.672.944a9.634,9.634,0,0,1-2.1,3.008,8.156,8.156,0,0,1-2.128-3.008ZM97.536,50.208a8.848,8.848,0,0,1,1.216-.064h2.16a9.152,9.152,0,0,1,1.216.064V49.2a6.61,6.61,0,0,1-1.216.08h-2.16a6.505,6.505,0,0,1-1.216-.08Zm-.544,2.272a10.033,10.033,0,0,1,1.28-.064h3.168a7.183,7.183,0,0,1,1.168.064V51.408a6.531,6.531,0,0,1-1.28.08H98.272a6.837,6.837,0,0,1-1.28-.08Zm.56,2.208a7.741,7.741,0,0,1,1.152-.064h2.256a7.927,7.927,0,0,1,1.136.064v-.976a6.866,6.866,0,0,1-1.136.064H98.7a6.961,6.961,0,0,1-1.152-.064Zm0,2.208a7.606,7.606,0,0,1,1.152-.064h2.256a8.072,8.072,0,0,1,1.136.064V55.92a6.744,6.744,0,0,1-1.136.064H98.7a7.086,7.086,0,0,1-1.152-.064Zm1.008,6.3v-.864h2.576v.656h.992a8.375,8.375,0,0,1-.08-1.312V59.424c0-.608.016-.9.048-1.264a6.628,6.628,0,0,1-1.168.048h-2.1a10.878,10.878,0,0,1-1.28-.064,8.3,8.3,0,0,1,.08,1.344v2.16a10.724,10.724,0,0,1-.1,1.552Zm0-4.16h2.576V61.5H98.56Zm9.264-8.864v3.376c0,.72.288.88,1.584.88.912,0,1.312-.08,1.552-.288.3-.272.464-.864.56-2.16a2.79,2.79,0,0,1-.88-.432,4.965,4.965,0,0,1-.256,1.792c-.08.176-.272.224-.928.224-.528,0-.672-.064-.672-.336v-2.5a13.351,13.351,0,0,1,.064-1.5,10.579,10.579,0,0,1-1.36.064h-1.952a11.056,11.056,0,0,1-1.248-.064,5.069,5.069,0,0,1,.08.96A6.428,6.428,0,0,1,104,52.624a3.612,3.612,0,0,1-1.568,1.9,3.358,3.358,0,0,1,.816.672,4.367,4.367,0,0,0,1.312-1.488,6.9,6.9,0,0,0,.768-3.536Zm14.256,9.968v1.024a11.417,11.417,0,0,1-.1,1.728h1.056a9.2,9.2,0,0,1-.1-1.728V60.144h2.624v1.632c0,.352-.08.432-.432.432a7.4,7.4,0,0,1-1.328-.144,2.727,2.727,0,0,1,.208.928c.656.032.752.032,1.04.032,1.136,0,1.424-.208,1.424-1.072V56.464a15.279,15.279,0,0,1,.064-1.792,9.726,9.726,0,0,1-1.616.08h-4.72c-.832,0-1.168-.016-1.584-.048.032.432.048.736.048,1.648v5.072a10.064,10.064,0,0,1-.1,1.664h1.088a8.146,8.146,0,0,1-.1-1.664v-1.28Zm0-.816h-2.512V57.856h2.512Zm.864,0V57.856h2.624v1.472Zm-.864-2.256h-2.512V55.584h2.512Zm.864,0V55.584h2.624v1.488Zm-3.568-5.952v.272a5.315,5.315,0,0,1-.064.96H120.4a4.781,4.781,0,0,1-.064-.96V51.12h2.736v.272a5.666,5.666,0,0,1-.064.96h1.1a4.989,4.989,0,0,1-.064-.96V51.12h1.52a10.969,10.969,0,0,1,1.552.08V50.176a9.981,9.981,0,0,1-1.552.1h-1.52v-.528a4.834,4.834,0,0,1,.08-1.1h-1.136a4.993,4.993,0,0,1,.08,1.12v.512h-2.736v-.528a4.833,4.833,0,0,1,.08-1.1H119.3a4.993,4.993,0,0,1,.08,1.12v.512h-1.1a10.329,10.329,0,0,1-1.5-.1V51.2a8.9,8.9,0,0,1,1.5-.08Zm-5.056,10.1a16.053,16.053,0,0,1-.1,1.968h1.136c-.048-.5-.064-1.04-.064-1.984V52.352a13.663,13.663,0,0,0,1.1-2.7c.176-.528.192-.56.272-.768l-1.056-.288a11.89,11.89,0,0,1-.816,2.656,14.788,14.788,0,0,1-2.48,4.08,2.771,2.771,0,0,1,.528.72.857.857,0,0,1,.112.192,9.835,9.835,0,0,0,1.408-2.368c-.032.768-.048,1.584-.048,2.4ZM127.152,52.7a11.081,11.081,0,0,1-1.7.1H118.4a13,13,0,0,1-1.584-.08c.048.512.064,1.056.064,1.856a27.015,27.015,0,0,1-.4,5.2,6.752,6.752,0,0,1-.96,2.448,3.5,3.5,0,0,1,.816.672,9.519,9.519,0,0,0,1.312-4.576,43.213,43.213,0,0,0,.176-4.672h7.712a15.316,15.316,0,0,1,1.616.08Zm-75.6,57.04a9.946,9.946,0,0,1-.1,1.376h1.088V110.5h7.024v.624h1.1a8.984,8.984,0,0,1-.1-1.376v-2.208c0-.4.016-.624.032-.976.88.272,1.232.368,2.256.624a3.8,3.8,0,0,1,.48-1.072,17.872,17.872,0,0,1-6.416-2.176,22.773,22.773,0,0,0,2.944-2.56c.144-.16.176-.192.288-.3l-.592-.576a11.769,11.769,0,0,1-1.456.064H54.624c.3-.352.3-.352.384-.448.08-.112.144-.176.176-.224a1.43,1.43,0,0,1,.208-.224l-1.04-.368a9.008,9.008,0,0,1-1.824,2.224,12.032,12.032,0,0,1-3.136,2.016,2.639,2.639,0,0,1,.688.768,13.994,13.994,0,0,0,3.072-2.208,12.525,12.525,0,0,0,2.112,1.84,18.461,18.461,0,0,1-6.576,2.384,2.839,2.839,0,0,1,.528.944,22.8,22.8,0,0,0,2.3-.656c.016.32.032.592.032.928Zm2.336-8.368h4.688a17.247,17.247,0,0,1-2.48,2.048,12.26,12.26,0,0,1-2.32-1.936Zm-.992,4.96H52.3A19.959,19.959,0,0,0,56.1,104.5a16.824,16.824,0,0,0,3.824,1.824c-.256.016-.384.016-.736.016Zm-.352.864h7.024v2.416H52.544Zm2.816-8.944H51.008a14.525,14.525,0,0,1-1.7-.08,7.6,7.6,0,0,1,.064,1.1v.9a7.836,7.836,0,0,1-.064,1.12h1.024v-2.16h11.28v2.176h1.04a7.417,7.417,0,0,1-.064-1.12V99.28a7.191,7.191,0,0,1,.064-1.1,15.206,15.206,0,0,1-1.792.08h-4.48V97.84a6.393,6.393,0,0,1,.112-1.152H55.264a7.615,7.615,0,0,1,.1,1.152Zm15.984-.144H67.36a19.832,19.832,0,0,1-1.984-.064,8.031,8.031,0,0,1,.064,1.072v.848a7.474,7.474,0,0,1-.048.912l-.016.192h1.056V99.008h11.2v2.064h1.056a6.968,6.968,0,0,1-.064-1.088v-.8a7.245,7.245,0,0,1,.064-1.136c-.544.048-1.04.064-2.128.064H72.384V97.7a5.736,5.736,0,0,1,.1-1.088H71.248a6.25,6.25,0,0,1,.1,1.088Zm-1.376,3.344a15.023,15.023,0,0,1-1.312,2.272c-.768.016-1.152.032-1.664.032a9.811,9.811,0,0,1-.992-.048l.16,1.024a3.726,3.726,0,0,1,.608-.064c2.976-.112,6.256-.3,9.1-.544a12.866,12.866,0,0,1,1.1,1.136l.768-.656a27.825,27.825,0,0,0-3.392-2.864l-.768.5a15.642,15.642,0,0,1,1.472,1.152c-2.192.16-3.536.24-5.312.288a15.712,15.712,0,0,0,1.3-2.224h4.112a12.729,12.729,0,0,1,1.824.08v-1.024a12.711,12.711,0,0,1-1.84.08H68.928a12.32,12.32,0,0,1-1.824-.08v1.024a12.951,12.951,0,0,1,1.872-.08Zm2.432,5.008v-.24a7.663,7.663,0,0,1,.1-1.264H71.3a7.948,7.948,0,0,1,.1,1.264v.24H68.32a11.382,11.382,0,0,1-1.712-.08v1.056a11.78,11.78,0,0,1,1.712-.08h3.072v2.256H67.008a12.384,12.384,0,0,1-2.016-.112v1.12a17.457,17.457,0,0,1,2.064-.1H77.04a17.27,17.27,0,0,1,2.064.1V109.5a12.159,12.159,0,0,1-2,.112H72.4V107.36h3.392a11.8,11.8,0,0,1,1.7.08v-1.056a11.535,11.535,0,0,1-1.7.08Zm14.96-9.552a11.218,11.218,0,0,1,.1,1.616V109.44c0,.32-.144.4-.72.4a12.71,12.71,0,0,1-2.368-.272,3.776,3.776,0,0,1,.288,1.184c.912.08,1.552.112,2.208.112,1.328,0,1.7-.288,1.7-1.312V98.544a10.855,10.855,0,0,1,.1-1.632ZM91.1,100.72c.048.128.048.128.112.32.512,1.616.752,2.432.768,2.448a16.823,16.823,0,0,0,2.72,5.088,4.132,4.132,0,0,1,.912-.8,14.5,14.5,0,0,1-2.384-4.064,13.282,13.282,0,0,1-.992-3.312Zm-7.616-.224a12.6,12.6,0,0,1-.48,2.4,13.356,13.356,0,0,1-2.48,4.976,3.731,3.731,0,0,1,.976.656,16.611,16.611,0,0,0,2.7-5.984c.336-1.312.384-1.5.464-1.76Zm24.576-.3a15.77,15.77,0,0,1-1.7,4.944,12.909,12.909,0,0,1-4.592,4.9,2.725,2.725,0,0,1,.816.784,14.031,14.031,0,0,0,3.1-2.88,15.642,15.642,0,0,0,2.5-4.592,20.346,20.346,0,0,0,.816-3.152h.7a58.83,58.83,0,0,1-.528,8.256c-.192,1.136-.432,1.44-1.12,1.44a8.556,8.556,0,0,1-2.1-.32,3.6,3.6,0,0,1,.288,1.12,12.644,12.644,0,0,0,1.808.176c1.568,0,1.968-.56,2.272-3.2.176-1.5.3-3.744.368-6.16a16.522,16.522,0,0,1,.112-2.256,8.964,8.964,0,0,1-1.36.064h-4.928c.208-.5.336-.832.48-1.232.32-.9.32-.9.432-1.152l-1.12-.24a11.085,11.085,0,0,1-2.752,5.472,2.832,2.832,0,0,1,.816.64,12.936,12.936,0,0,0,1.728-2.608h1.44a10.49,10.49,0,0,1-1.184,2.976,8.933,8.933,0,0,1-2.912,3.088,2.913,2.913,0,0,1,.752.784,11.1,11.1,0,0,0,2.928-3.312,13.362,13.362,0,0,0,1.376-3.536Zm-8.576.672v3.92a13.113,13.113,0,0,1-2.72.752l.32,1.136c.144-.064.944-.368,2.4-.9v3.76a10.547,10.547,0,0,1-.112,1.68h1.2a14.371,14.371,0,0,1-.1-1.68v-4.144c.736-.3.992-.416,1.808-.8v-.96c-.816.384-1.088.5-1.808.784v-3.568h.736a6.328,6.328,0,0,1,.992.064v-1.04a3.944,3.944,0,0,1-.992.08h-.736v-2a6.531,6.531,0,0,1,.1-1.328h-1.2a6.636,6.636,0,0,1,.112,1.328v2H98.336c.048-.352.064-.576.128-1.056.048-.448.064-.576.1-.848l-1.024-.16a3.758,3.758,0,0,1,.016.416,11.154,11.154,0,0,1-1.008,4.624,3.665,3.665,0,0,1,.88.5,12.608,12.608,0,0,0,.752-2.56Zm18.864,5.6a11.824,11.824,0,0,1,1.456.08V105.52a7.832,7.832,0,0,1-1.44.1H116.8c.032-.24.032-.352.048-.544a3.03,3.03,0,0,1,.064-.7h-1.056a2.735,2.735,0,0,1,.064.672,3.883,3.883,0,0,1-.032.576h-1.616a8.773,8.773,0,0,1-1.424-.1v1.024a8.623,8.623,0,0,1,1.44-.08h1.472a4.145,4.145,0,0,1-.864,1.872,5.981,5.981,0,0,1-2.24,1.632,2.7,2.7,0,0,1,.688.784,5.82,5.82,0,0,0,3.152-3.584,6.012,6.012,0,0,0,2.4,2.56,3,3,0,0,1,.576-.88,5.118,5.118,0,0,1-2.528-2.384Zm-1.5-6.3V97.952a6.672,6.672,0,0,1,.08-1.072h-1.04a5.419,5.419,0,0,1,.08,1.072v2.208h-1.776a6.717,6.717,0,0,1-1.3-.08v.976a6.752,6.752,0,0,1,1.264-.08h1.408a7.785,7.785,0,0,1-2.96,2.672,2.38,2.38,0,0,1,.56.816,9.411,9.411,0,0,0,2.848-2.88c-.032.352-.048.656-.048.976v.544a4.642,4.642,0,0,1-.064.864h1.008a4.3,4.3,0,0,1-.064-.88v-.528c0-.336-.016-.72-.048-1.04a8.132,8.132,0,0,0,2.512,2.432,2.757,2.757,0,0,1,.512-.8,7.815,7.815,0,0,1-2.608-2.176h1.5a5.6,5.6,0,0,1,1.056.064V100.1a4.426,4.426,0,0,1-1.072.064Zm6.272-1.92a9.272,9.272,0,0,1-.576,1.744h-.72c-.7,0-.976-.016-1.392-.048a13.171,13.171,0,0,1,.064,1.5v5.3c0,.56-.016,1.008-.048,1.44.512-.032.864-.048,1.376-.048h3.44c.528,0,.88.016,1.376.048-.032-.4-.048-.912-.048-1.52v-5.248c0-.624.016-1.088.048-1.488a10.247,10.247,0,0,1-1.44.064h-1.68a13.3,13.3,0,0,0,.624-1.744h1.584a8.121,8.121,0,0,1,1.552.1V97.248a9.039,9.039,0,0,1-1.552.1h-4.192a8.108,8.108,0,0,1-1.568-.1v1.088a7.565,7.565,0,0,1,1.52-.1Zm-1.7,2.592h4.24v1.52h-4.24Zm0,2.368h4.24v1.584h-4.24Zm0,2.432h4.24v1.632h-4.24Zm-8.224-8a8.44,8.44,0,0,1,1.232,2.176l.8-.384a11.8,11.8,0,0,0-1.264-2.16Zm5.6-.416a7.335,7.335,0,0,1-1.328,2.224l.7.432a13,13,0,0,0,1.408-2.24Zm3.008,11.232a5.186,5.186,0,0,1-1.488,1.28,7.9,7.9,0,0,1-1.648.816,4.547,4.547,0,0,1,.688.816,9.752,9.752,0,0,0,3.2-2.288Zm2.192.576a13.537,13.537,0,0,0,2.9,2.32,3.471,3.471,0,0,1,.688-.832,9.633,9.633,0,0,1-2.832-2.08Zm-70.064,48.5a8.878,8.878,0,0,1-.08,1.52h1.088V158.1h5.408v.976H61.44a9.432,9.432,0,0,1-.08-1.552v-3.552a8.419,8.419,0,0,1,.032-.976,14.048,14.048,0,0,0,1.648,1.12,4.343,4.343,0,0,1,.608-.944,13.2,13.2,0,0,1-2.912-2.032,11.154,11.154,0,0,1-2.592-3.232H57.056a11.2,11.2,0,0,1-2.528,3.392,12.968,12.968,0,0,1-2.576,1.84,2.425,2.425,0,0,1,.624.832c.624-.4.848-.544,1.344-.912.016.288.016.544.016.944Zm1.168-4.832c-.288,0-.464,0-.72-.016a12.39,12.39,0,0,0,3.232-3.856,14.369,14.369,0,0,0,3.36,3.856c-.24.016-.464.016-.832.016Zm-.16.912h5.408v3.584H54.944Zm-5.264-8.016a12.889,12.889,0,0,1,2.56,2.192l.624-.816a15.08,15.08,0,0,0-2.528-2.08Zm-.96,3.872a14.664,14.664,0,0,1,2.848,2.208l.64-.864a20.123,20.123,0,0,0-2.88-2.08Zm2.464,3.92a16.283,16.283,0,0,1-1.648,3.776,4.852,4.852,0,0,1-.688.96l.944.816c.064-.112.064-.128.176-.336l.16-.32a28.759,28.759,0,0,0,1.9-4.288Zm7.376-8.144a14.272,14.272,0,0,0,1.84,2.208,13.673,13.673,0,0,0,2.048,1.648,4.066,4.066,0,0,1,.64-.912,10.789,10.789,0,0,1-2.064-1.52,10.99,10.99,0,0,1-1.632-1.936Zm-2.88-.464a9.992,9.992,0,0,1-1.392,2.192,10.213,10.213,0,0,1-1.84,1.632,2.043,2.043,0,0,1,.752.72,10.116,10.116,0,0,0,1.824-1.744,12.052,12.052,0,0,0,1.536-2.288Zm15.664,1.344H67.36a19.834,19.834,0,0,1-1.984-.064,8.031,8.031,0,0,1,.064,1.072v.848a7.475,7.475,0,0,1-.048.912l-.016.192h1.056v-2.064h11.2v2.064h1.056a6.968,6.968,0,0,1-.064-1.088v-.8a7.245,7.245,0,0,1,.064-1.136c-.544.048-1.04.064-2.128.064H72.384V145.7a5.736,5.736,0,0,1,.1-1.088H71.248a6.25,6.25,0,0,1,.1,1.088Zm-1.376,3.344a15.023,15.023,0,0,1-1.312,2.272c-.768.016-1.152.032-1.664.032a9.814,9.814,0,0,1-.992-.048l.16,1.024a3.726,3.726,0,0,1,.608-.064c2.976-.112,6.256-.3,9.1-.544a12.863,12.863,0,0,1,1.1,1.136l.768-.656a27.825,27.825,0,0,0-3.392-2.864l-.768.5a15.642,15.642,0,0,1,1.472,1.152c-2.192.16-3.536.24-5.312.288a15.711,15.711,0,0,0,1.3-2.224h4.112a12.731,12.731,0,0,1,1.824.08v-1.024a12.71,12.71,0,0,1-1.84.08H68.928a12.319,12.319,0,0,1-1.824-.08v1.024a12.953,12.953,0,0,1,1.872-.08Zm2.432,5.008v-.24a7.663,7.663,0,0,1,.1-1.264H71.3a7.948,7.948,0,0,1,.1,1.264v.24H68.32a11.382,11.382,0,0,1-1.712-.08v1.056a11.781,11.781,0,0,1,1.712-.08h3.072v2.256H67.008a12.384,12.384,0,0,1-2.016-.112v1.12a17.459,17.459,0,0,1,2.064-.1H77.04a17.272,17.272,0,0,1,2.064.1V157.5a12.159,12.159,0,0,1-2,.112H72.4V155.36h3.392a11.8,11.8,0,0,1,1.7.08v-1.056a11.534,11.534,0,0,1-1.7.08Zm14.96-9.552a11.218,11.218,0,0,1,.1,1.616V157.44c0,.32-.144.4-.72.4a12.71,12.71,0,0,1-2.368-.272,3.776,3.776,0,0,1,.288,1.184c.912.08,1.552.112,2.208.112,1.328,0,1.7-.288,1.7-1.312V146.544a10.855,10.855,0,0,1,.1-1.632ZM91.1,148.72c.048.128.048.128.112.32.512,1.616.752,2.432.768,2.448a16.823,16.823,0,0,0,2.72,5.088,4.132,4.132,0,0,1,.912-.8,14.5,14.5,0,0,1-2.384-4.064,13.282,13.282,0,0,1-.992-3.312Zm-7.616-.224a12.6,12.6,0,0,1-.48,2.4,13.356,13.356,0,0,1-2.48,4.976,3.732,3.732,0,0,1,.976.656,16.611,16.611,0,0,0,2.7-5.984c.336-1.312.384-1.5.464-1.76Zm24.576-.3a15.77,15.77,0,0,1-1.7,4.944,12.909,12.909,0,0,1-4.592,4.9,2.725,2.725,0,0,1,.816.784,14.031,14.031,0,0,0,3.1-2.88,15.642,15.642,0,0,0,2.5-4.592,20.346,20.346,0,0,0,.816-3.152h.7a58.83,58.83,0,0,1-.528,8.256c-.192,1.136-.432,1.44-1.12,1.44a8.555,8.555,0,0,1-2.1-.32,3.6,3.6,0,0,1,.288,1.12,12.645,12.645,0,0,0,1.808.176c1.568,0,1.968-.56,2.272-3.2.176-1.5.3-3.744.368-6.16a16.521,16.521,0,0,1,.112-2.256,8.963,8.963,0,0,1-1.36.064h-4.928c.208-.5.336-.832.48-1.232.32-.9.32-.9.432-1.152l-1.12-.24a11.085,11.085,0,0,1-2.752,5.472,2.832,2.832,0,0,1,.816.64,12.936,12.936,0,0,0,1.728-2.608h1.44a10.49,10.49,0,0,1-1.184,2.976,8.933,8.933,0,0,1-2.912,3.088,2.913,2.913,0,0,1,.752.784,11.1,11.1,0,0,0,2.928-3.312,13.362,13.362,0,0,0,1.376-3.536Zm-8.576.672v3.92a13.113,13.113,0,0,1-2.72.752l.32,1.136c.144-.064.944-.368,2.4-.9v3.76a10.547,10.547,0,0,1-.112,1.68h1.2a14.371,14.371,0,0,1-.1-1.68v-4.144c.736-.3.992-.416,1.808-.8v-.96c-.816.384-1.088.5-1.808.784v-3.568h.736a6.328,6.328,0,0,1,.992.064v-1.04a3.943,3.943,0,0,1-.992.08h-.736v-2a6.531,6.531,0,0,1,.1-1.328h-1.2a6.636,6.636,0,0,1,.112,1.328v2H98.336c.048-.352.064-.576.128-1.056.048-.448.064-.576.1-.848l-1.024-.16a3.758,3.758,0,0,1,.016.416,11.153,11.153,0,0,1-1.008,4.624,3.665,3.665,0,0,1,.88.5,12.608,12.608,0,0,0,.752-2.56Zm18.864,5.6a11.822,11.822,0,0,1,1.456.08V153.52a7.833,7.833,0,0,1-1.44.1H116.8c.032-.24.032-.352.048-.544a3.031,3.031,0,0,1,.064-.7h-1.056a2.735,2.735,0,0,1,.064.672,3.883,3.883,0,0,1-.032.576h-1.616a8.774,8.774,0,0,1-1.424-.1v1.024a8.621,8.621,0,0,1,1.44-.08h1.472a4.145,4.145,0,0,1-.864,1.872,5.981,5.981,0,0,1-2.24,1.632,2.7,2.7,0,0,1,.688.784,5.82,5.82,0,0,0,3.152-3.584,6.012,6.012,0,0,0,2.4,2.56,3,3,0,0,1,.576-.88,5.118,5.118,0,0,1-2.528-2.384Zm-1.5-6.3v-2.208a6.672,6.672,0,0,1,.08-1.072h-1.04a5.419,5.419,0,0,1,.08,1.072v2.208h-1.776a6.717,6.717,0,0,1-1.3-.08v.976a6.753,6.753,0,0,1,1.264-.08h1.408a7.785,7.785,0,0,1-2.96,2.672,2.38,2.38,0,0,1,.56.816,9.411,9.411,0,0,0,2.848-2.88c-.032.352-.048.656-.048.976v.544a4.642,4.642,0,0,1-.064.864h1.008a4.3,4.3,0,0,1-.064-.88v-.528c0-.336-.016-.72-.048-1.04a8.132,8.132,0,0,0,2.512,2.432,2.758,2.758,0,0,1,.512-.8,7.815,7.815,0,0,1-2.608-2.176h1.5a5.6,5.6,0,0,1,1.056.064V148.1a4.425,4.425,0,0,1-1.072.064Zm6.272-1.92a9.272,9.272,0,0,1-.576,1.744h-.72c-.7,0-.976-.016-1.392-.048a13.171,13.171,0,0,1,.064,1.5v5.3c0,.56-.016,1.008-.048,1.44.512-.032.864-.048,1.376-.048h3.44c.528,0,.88.016,1.376.048-.032-.4-.048-.912-.048-1.52v-5.248c0-.624.016-1.088.048-1.488a10.247,10.247,0,0,1-1.44.064h-1.68a13.3,13.3,0,0,0,.624-1.744h1.584a8.121,8.121,0,0,1,1.552.1v-1.088a9.039,9.039,0,0,1-1.552.1h-4.192a8.108,8.108,0,0,1-1.568-.1v1.088a7.566,7.566,0,0,1,1.52-.1Zm-1.7,2.592h4.24v1.52h-4.24Zm0,2.368h4.24v1.584h-4.24Zm0,2.432h4.24v1.632h-4.24Zm-8.224-8a8.44,8.44,0,0,1,1.232,2.176l.8-.384a11.8,11.8,0,0,0-1.264-2.16Zm5.6-.416a7.335,7.335,0,0,1-1.328,2.224l.7.432a13,13,0,0,0,1.408-2.24Zm3.008,11.232a5.186,5.186,0,0,1-1.488,1.28,7.9,7.9,0,0,1-1.648.816,4.546,4.546,0,0,1,.688.816,9.752,9.752,0,0,0,3.2-2.288Zm2.192.576a13.537,13.537,0,0,0,2.9,2.32,3.471,3.471,0,0,1,.688-.832,9.633,9.633,0,0,1-2.832-2.08Zm-53.1,45.12a8.168,8.168,0,0,0,1.936,2.336,13.007,13.007,0,0,0,5.68,2.736,4.222,4.222,0,0,1,.576-1.04,12.6,12.6,0,0,1-4.352-1.52,25.78,25.78,0,0,0,3.136-2.48l-.912-.608a14.19,14.19,0,0,1-3.056,2.576,6.678,6.678,0,0,1-1.968-2h2.928c.672,0,1.1.016,1.488.048-.032-.368-.048-.656-.048-1.3v-2.752c0-.512,0-.816.032-1.168a21.373,21.373,0,0,0,2.432,1.2,3.472,3.472,0,0,1,.608-1.024,18.009,18.009,0,0,1-4.1-1.936,12.552,12.552,0,0,1-2.88-2.5H71.312a14.6,14.6,0,0,1-6.736,4.432,2.887,2.887,0,0,1,.592.976,19.69,19.69,0,0,0,2.288-1.088c.032.32.048.8.048,1.328v7.488a12.6,12.6,0,0,1-2.192.256l.272,1.12c.272-.064.416-.1.592-.128a59.678,59.678,0,0,0,6.176-1.44l.016-.928a35.468,35.468,0,0,1-3.856.944v-3.536Zm1.408-5.328v-.544a6.2,6.2,0,0,1,.08-1.216H71.248a5.682,5.682,0,0,1,.1,1.216v.544H68.976c-.48,0-.688,0-1.1-.016a14.892,14.892,0,0,0,4-3.3,15.305,15.305,0,0,0,4.144,3.28c-.432.032-.656.032-1.216.032Zm-3.792.848h6.8v1.328h-6.8Zm0,2.176h6.8V201.3h-6.8Zm18.864,1.76h-4.8a10.41,10.41,0,0,1-1.744-.1v1.008a11.608,11.608,0,0,1,1.744-.08h4.8v1.152H83.488a9.572,9.572,0,0,1-1.536-.08v.992a10.668,10.668,0,0,1,1.568-.08h3.856v1.312c0,.352-.144.432-.72.432a13.839,13.839,0,0,1-1.984-.16,2.638,2.638,0,0,1,.272,1.008c.9.048,1.184.064,1.52.064,1.552,0,1.872-.224,1.872-1.328v-1.328h4.288v.656h1.04a9.433,9.433,0,0,1-.1-1.6v-1.04a10.883,10.883,0,0,1,1.7.08V201.5a8.131,8.131,0,0,1-1.7.1v-.672a12.664,12.664,0,0,1,.048-1.328,15.64,15.64,0,0,1-1.792.064H88.336v-1.04h3.7a9.979,9.979,0,0,1,1.3.064,7.573,7.573,0,0,1-.064-1.072v-.7a7.805,7.805,0,0,1,.064-1.088,10.248,10.248,0,0,1-1.312.064h-3.68v-1.056h4.928a14.313,14.313,0,0,1,1.808.1v-1.056a12.118,12.118,0,0,1-1.84.1h-4.9a5.217,5.217,0,0,1,.112-1.44H87.28a6.442,6.442,0,0,1,.1,1.44H82.768a11.871,11.871,0,0,1-1.824-.1v1.056a13.7,13.7,0,0,1,1.792-.1h4.64v1.056H84.048a10.682,10.682,0,0,1-1.328-.064,7.958,7.958,0,0,1,.064,1.088v.7a7.574,7.574,0,0,1-.064,1.072,10.086,10.086,0,0,1,1.312-.064h3.344v1.04H83.648a9.331,9.331,0,0,1-1.536-.08v.992a10.126,10.126,0,0,1,1.5-.08h3.76Zm.96,0v-1.1h4.288v1.1Zm0,.832h4.288v1.152H88.336Zm-.96-5.76v1.184H83.744v-1.184Zm.96,0H92.3v1.184H88.336Zm16.8,5.232a9.074,9.074,0,0,1-4.048,3.248,2.324,2.324,0,0,1,.688.752,11.028,11.028,0,0,0,4.4-4h1.584a7.8,7.8,0,0,1-1.312,2.1,10.156,10.156,0,0,1-3.136,2.432,2.732,2.732,0,0,1,.736.752,12.993,12.993,0,0,0,1.3-.9,16.331,16.331,0,0,0,1.968-1.968,9.264,9.264,0,0,0,1.424-2.416h1.072a19.455,19.455,0,0,1-.352,3.072c-.208.96-.32,1.088-.96,1.088a11.051,11.051,0,0,1-1.9-.176,2.712,2.712,0,0,1,.32,1.04c.5.032,1.024.064,1.392.064,1.088,0,1.488-.16,1.776-.736a15.966,15.966,0,0,0,.7-4.272,7.259,7.259,0,0,1,.08-.944,12.485,12.485,0,0,1-1.568.064H104a7.833,7.833,0,0,0,.736-1.168h4.9a13.635,13.635,0,0,1,1.584.064v-1.008a9.089,9.089,0,0,1-1.584.1H102.8a7.878,7.878,0,0,1-1.472-.1v1.04a7.833,7.833,0,0,1,1.44-.1h.976a7.681,7.681,0,0,1-3.712,3.376,2.844,2.844,0,0,1,.656.72,10.259,10.259,0,0,0,2.688-2.128Zm-6.256-5.088h-.656a8.942,8.942,0,0,1-1.392-.08v1.056a11.534,11.534,0,0,1,1.36-.08h.688v4.576a7.972,7.972,0,0,1-2.064.784l.3,1.12c.144-.08.592-.3.848-.416a29.488,29.488,0,0,0,3.328-1.808l-.064-.96a13.832,13.832,0,0,1-1.36.816v-4.112h.384a12.5,12.5,0,0,1,1.328.064v-1.024a9.442,9.442,0,0,1-1.328.064h-.384v-2.208a10.91,10.91,0,0,1,.1-1.776H98.784a12.676,12.676,0,0,1,.1,1.76Zm9.456,1.216c.624,0,1.12.016,1.472.048a9.419,9.419,0,0,1-.064-1.424v-2a11.689,11.689,0,0,1,.064-1.488,11.718,11.718,0,0,1-1.664.08h-4.176a10.33,10.33,0,0,1-1.536-.08,10.766,10.766,0,0,1,.064,1.408v2.08a12.327,12.327,0,0,1-.064,1.44,11.285,11.285,0,0,1,1.456-.064Zm-4.9-3.952h5.36v1.168h-5.36Zm0,1.952h5.36v1.216h-5.36Zm20.912,2.48v6.88a11.184,11.184,0,0,1-.1,1.664h1.2a8.759,8.759,0,0,1-.1-1.632v-6.912h.56a9.273,9.273,0,0,1,1.44.1v-1.136a9.508,9.508,0,0,1-1.488.1h-4.16v-2.5a24.174,24.174,0,0,0,4.768-1.184c.32-.1.416-.128.656-.192l-.688-.928a15.621,15.621,0,0,1-5.808,1.472,17.552,17.552,0,0,1,.064,1.856c0,3.5-.224,5.536-.768,7.056a7.307,7.307,0,0,1-2.192,3.152,3.077,3.077,0,0,1,.816.768,8.926,8.926,0,0,0,2.32-3.5,17,17,0,0,0,.8-5.056Zm-11.232-3.9a10.175,10.175,0,0,1,1.5-.1h3.856a8.7,8.7,0,0,1,1.472.08V193.5a8.682,8.682,0,0,1-1.488.08h-3.808a8.442,8.442,0,0,1-1.536-.1Zm6.128,2.784c0-.464.016-.88.048-1.2a12.816,12.816,0,0,1-1.5.064h-2.224a15.987,15.987,0,0,1-1.664-.064c.048.512.064,1.008.064,2.032,0,4.7-.272,6.288-1.424,8.1a2.753,2.753,0,0,1,.864.656,11.333,11.333,0,0,0,1.488-5.792h2.96l.624.016h.352a3.481,3.481,0,0,1,.464.032,11.483,11.483,0,0,1-.048-1.168Zm-4.32,2.912c.016-.608.016-.656.016-1.456v-1.712h3.328V200.3Zm-70.7,41.056a6.685,6.685,0,0,1-1.824.768,25.709,25.709,0,0,1-6.72,1.008c-.24,0-.48,0-.928-.032a4.173,4.173,0,0,1,.384,1.072,30.345,30.345,0,0,0,4.736-.448c0,1.408-.016,2.3-.048,3.008H35.232a7.593,7.593,0,0,1-1.68-.112v1.216a12.391,12.391,0,0,1,1.68-.08h4.5a6.017,6.017,0,0,1-.976,3.136,7.479,7.479,0,0,1-3.744,2.752,3.03,3.03,0,0,1,.864.992,8.627,8.627,0,0,0,3.984-3.344,7.619,7.619,0,0,0,1.04-3.536h3.92a12.391,12.391,0,0,1,1.68.08v-1.216a7.593,7.593,0,0,1-1.68.112h-3.84c.016-.624.032-1.664.048-3.2a24.792,24.792,0,0,0,3.52-.992,3.307,3.307,0,0,1,.5-.16Zm12.24,6.128h2.464a7.627,7.627,0,0,1,1.408.064v-1.12a8.119,8.119,0,0,1-1.424.1h-5.84a8.374,8.374,0,0,1-1.424-.1v1.12a10.425,10.425,0,0,1,1.424-.064H55.36v5.536H52.112a6.528,6.528,0,0,1-1.44-.1v1.136A11.285,11.285,0,0,1,52.128,254h7.744a11.607,11.607,0,0,1,1.456.064v-1.12a8.056,8.056,0,0,1-1.44.08H56.464Zm10.528-1.936a13.2,13.2,0,0,1,1.5,3.584l1.088-.368A17.57,17.57,0,0,0,68,245.216Zm3.3-.672a14.037,14.037,0,0,1,1.472,3.5l1.056-.368a16.044,16.044,0,0,0-1.552-3.44Zm5.552-.016v.16a6.724,6.724,0,0,1-.176,1.088,12.072,12.072,0,0,1-1.36,3.44,10.27,10.27,0,0,1-5.072,4.176,3.237,3.237,0,0,1,.736.9,11.6,11.6,0,0,0,5.3-4.624,14.406,14.406,0,0,0,1.408-3.584,9.443,9.443,0,0,1,.352-1.3Zm10.96-3.9a7.256,7.256,0,0,1-1.008,2.336,11.854,11.854,0,0,1-4.016,4.384,2.379,2.379,0,0,1,.9.832,15.425,15.425,0,0,0,3.824-4.16l5.392-.1a14.7,14.7,0,0,1-2.752,5.36,13.61,13.61,0,0,1-5.648,4.048,2.412,2.412,0,0,1,.8.944,15.668,15.668,0,0,0,5.568-4,16.927,16.927,0,0,0,3.2-6.016c.176-.576.176-.592.32-.784l-.688-.672a1.572,1.572,0,0,1-.832.112c-4.624.08-4.624.08-4.832.128a15.308,15.308,0,0,0,.736-1.424,3.056,3.056,0,0,1,.352-.656Zm21.728.336a13.431,13.431,0,0,1-3.056,3.024,22.529,22.529,0,0,1-8.3,4.144,3.7,3.7,0,0,1,.624,1.072,25.011,25.011,0,0,0,6.176-2.8v6.08a8.339,8.339,0,0,1-.1,1.664h1.392a10.629,10.629,0,0,1-.08-1.7v-6.816a28.18,28.18,0,0,0,3.744-3.216,3.622,3.622,0,0,1,.7-.672Zm5.968,2.256a17.667,17.667,0,0,1,3.808,3.136l.832-.992a20.843,20.843,0,0,0-3.856-3.008Zm.112,10.4a8.41,8.41,0,0,1,.96-.256,16.131,16.131,0,0,0,5.968-2.384,14.033,14.033,0,0,0,4.88-6.112,3.2,3.2,0,0,1-.976-.944,12.09,12.09,0,0,1-6.528,7.12,13.927,13.927,0,0,1-4.656,1.232ZM28.224,289.36a6.684,6.684,0,0,1-1.824.768,25.708,25.708,0,0,1-6.72,1.008c-.24,0-.48,0-.928-.032a4.173,4.173,0,0,1,.384,1.072,30.347,30.347,0,0,0,4.736-.448c0,1.408-.016,2.3-.048,3.008H19.232a7.593,7.593,0,0,1-1.68-.112v1.216a12.391,12.391,0,0,1,1.68-.08h4.5a6.017,6.017,0,0,1-.976,3.136,7.479,7.479,0,0,1-3.744,2.752,3.03,3.03,0,0,1,.864.992,8.627,8.627,0,0,0,3.984-3.344,7.619,7.619,0,0,0,1.04-3.536h3.92a12.391,12.391,0,0,1,1.68.08v-1.216a7.593,7.593,0,0,1-1.68.112h-3.84c.016-.624.032-1.664.048-3.2a24.8,24.8,0,0,0,3.52-.992,3.307,3.307,0,0,1,.5-.16Zm12.24,6.128h2.464a7.627,7.627,0,0,1,1.408.064v-1.12a8.119,8.119,0,0,1-1.424.1h-5.84a8.374,8.374,0,0,1-1.424-.1v1.12a10.425,10.425,0,0,1,1.424-.064H39.36v5.536H36.112a6.53,6.53,0,0,1-1.44-.1v1.136A11.282,11.282,0,0,1,36.128,302h7.744a11.6,11.6,0,0,1,1.456.064v-1.12a8.056,8.056,0,0,1-1.44.08H40.464Zm10.528-1.936a13.2,13.2,0,0,1,1.5,3.584l1.088-.368A17.57,17.57,0,0,0,52,293.216Zm3.3-.672a14.037,14.037,0,0,1,1.472,3.5l1.056-.368a16.045,16.045,0,0,0-1.552-3.44Zm5.552-.016v.16a6.725,6.725,0,0,1-.176,1.088,12.072,12.072,0,0,1-1.36,3.44,10.27,10.27,0,0,1-5.072,4.176,3.237,3.237,0,0,1,.736.9,11.6,11.6,0,0,0,5.3-4.624,14.405,14.405,0,0,0,1.408-3.584,9.443,9.443,0,0,1,.352-1.3Zm10.96-3.9a7.256,7.256,0,0,1-1.008,2.336,11.854,11.854,0,0,1-4.016,4.384,2.379,2.379,0,0,1,.9.832,15.424,15.424,0,0,0,3.824-4.16l5.392-.1a14.7,14.7,0,0,1-2.752,5.36,13.61,13.61,0,0,1-5.648,4.048,2.413,2.413,0,0,1,.8.944,15.668,15.668,0,0,0,5.568-4,16.927,16.927,0,0,0,3.2-6.016c.176-.576.176-.592.32-.784l-.688-.672a1.572,1.572,0,0,1-.832.112c-4.624.08-4.624.08-4.832.128a15.3,15.3,0,0,0,.736-1.424,3.057,3.057,0,0,1,.352-.656Zm23.152,1.232c-.288.112-.288.112-1.36.112H84a11.725,11.725,0,0,1-1.9-.112v1.232a15.443,15.443,0,0,1,1.888-.08h9.088a8.488,8.488,0,0,1-1.792,2.384,6.926,6.926,0,0,1-2.528,1.52,3.144,3.144,0,0,1,.784.912,9.576,9.576,0,0,0,4.672-4.56,2.872,2.872,0,0,1,.384-.64Zm-6.976,2.784a4.224,4.224,0,0,1,.064.864c0,3.12-.624,4.752-2.32,6.112a7.518,7.518,0,0,1-2.928,1.472,3.129,3.129,0,0,1,.736,1.072,8.716,8.716,0,0,0,4.1-2.768c1.088-1.376,1.536-2.96,1.584-5.632a5.8,5.8,0,0,1,.064-1.12Zm17.536-1.184V290.16a6.28,6.28,0,0,1,.08-1.008h-1.344a5.02,5.02,0,0,1,.08,1.024v1.616H99.936a13.666,13.666,0,0,1-1.472-.064,10.465,10.465,0,0,1,.064,1.3v2.16c0,.416-.032.928-.064,1.2h1.312a11.4,11.4,0,0,1-.048-1.184v-2.4h8.736c-.3,3.248-1.472,5.44-3.712,6.992a10.565,10.565,0,0,1-3.536,1.552,3.277,3.277,0,0,1,.736,1.088,12.544,12.544,0,0,0,4.688-2.656,9.97,9.97,0,0,0,2.9-5.84c.208-1.36.208-1.36.352-1.616l-.656-.624a3.564,3.564,0,0,1-1.344.1Zm13.6,10.7a10.881,10.881,0,0,1-.08-1.7v-4.816a5.588,5.588,0,0,0-.064-.944l.032-.016a1.765,1.765,0,0,0,.5.272,32.623,32.623,0,0,1,5.968,3.168l.688-1.184a39.681,39.681,0,0,0-7.12-3.376v-2.992a10.043,10.043,0,0,1,.08-1.664h-1.376a9.487,9.487,0,0,1,.1,1.632v9.936a10.291,10.291,0,0,1-.1,1.68ZM85.1,342.688h.624a6.88,6.88,0,0,1,1.248.08v-.928a8.76,8.76,0,0,1-1.248.064H85.1v-1.5h.624a6.88,6.88,0,0,1,1.248.08v-.944a6.67,6.67,0,0,1-1.248.08H85.1v-1.5h1.04a9.518,9.518,0,0,1,1.3.064v-.96a8.719,8.719,0,0,1-1.456.08H82.9a9.8,9.8,0,0,1-1.472-.08,13.351,13.351,0,0,1,.064,1.5v4.912c0,.544-.016,1.12-.048,1.5.416-.032.768-.048,1.216-.048h3.776a20.9,20.9,0,0,1-.416,4.288c-.16.7-.32.88-.784.88a6.109,6.109,0,0,1-1.424-.224A3.035,3.035,0,0,1,84,351.056a7.706,7.706,0,0,0,1.152.1c.944,0,1.28-.192,1.536-.912a18.561,18.561,0,0,0,.672-4.944,9.773,9.773,0,0,1,.064-1.072,9.03,9.03,0,0,1-1.408.064H85.1Zm-.9,0v1.6H82.384v-1.6Zm0-.784H82.384v-1.5h1.824Zm0-2.288H82.384v-1.5h1.824Zm6.672,10.016H89.072a12.2,12.2,0,0,1-1.648-.1v1.136a10.675,10.675,0,0,1,1.648-.112h4.64a10.748,10.748,0,0,1,1.664.112v-1.136a12.449,12.449,0,0,1-1.664.1H91.888v-4.288H93.28a10.643,10.643,0,0,1,1.536.1v-1.1a10.041,10.041,0,0,1-1.536.1H91.888V340.96h1.76a11.282,11.282,0,0,1,1.568.1v-1.1a10.211,10.211,0,0,1-1.568.1H89.472a10.807,10.807,0,0,1-1.568-.1v1.1a11.282,11.282,0,0,1,1.568-.1H90.88v3.472H89.84a9.9,9.9,0,0,1-1.536-.1v1.1a10.488,10.488,0,0,1,1.536-.1h1.04Zm2.144-10.624a13.419,13.419,0,0,0-2.8-2.144l-.688.672a12.054,12.054,0,0,1,2.784,2.192Zm-11.536,6.768a11.27,11.27,0,0,1-.848,3.952l.784.4a13.143,13.143,0,0,0,.784-4.208Zm1.168.192a13.543,13.543,0,0,1,.08,1.536,16.371,16.371,0,0,1-.112,2.128l.816-.112c.032-.56.032-.752.032-1.248a18.139,18.139,0,0,0-.128-2.416Zm1.136-.032a16.025,16.025,0,0,1,.352,3.008l.72-.208a15.936,15.936,0,0,0-.448-2.976Zm1.12-.1a11,11,0,0,1,.48,2.48l.64-.224a13.29,13.29,0,0,0-.56-2.464Zm18.5-7.44H98.8a8.945,8.945,0,0,1-1.632-.112v1.1a11.693,11.693,0,0,1,1.616-.1h4.624v1.376h-3.056a9.277,9.277,0,0,1-1.776-.1,15.235,15.235,0,0,1,.064,1.728v2.464a14.591,14.591,0,0,1-.064,1.7,11.8,11.8,0,0,1,1.856-.1h2.976v1.424H98.672a8.388,8.388,0,0,1-1.632-.112v1.12a11.306,11.306,0,0,1,1.632-.1h4.736v.768a9.073,9.073,0,0,1-.112,1.76h1.2a8.517,8.517,0,0,1-.112-1.76V348.7h4.976a12.449,12.449,0,0,1,1.664.1v-1.12a8.332,8.332,0,0,1-1.664.112h-4.976v-1.424h3.248a11.452,11.452,0,0,1,1.824.1,14.769,14.769,0,0,1-.064-1.7v-2.512a14.629,14.629,0,0,1,.064-1.68,9.569,9.569,0,0,1-1.808.1h-3.264V339.3H109.2a12.708,12.708,0,0,1,1.648.1v-1.1a8.438,8.438,0,0,1-1.664.112h-4.8v-.208a8.616,8.616,0,0,1,.112-1.536h-1.2a8.382,8.382,0,0,1,.112,1.536Zm0,3.136v1.536H99.632v-1.536Zm0,2.4V345.5H99.632v-1.568Zm.976,1.568v-1.568H108.4V345.5Zm0-2.432v-1.536H108.4v1.536Zm16.752,2.832a9.074,9.074,0,0,1-4.048,3.248,2.323,2.323,0,0,1,.688.752,11.028,11.028,0,0,0,4.4-4h1.584a7.8,7.8,0,0,1-1.312,2.1,10.156,10.156,0,0,1-3.136,2.432,2.732,2.732,0,0,1,.736.752,12.993,12.993,0,0,0,1.3-.9,16.331,16.331,0,0,0,1.968-1.968,9.264,9.264,0,0,0,1.424-2.416h1.072a19.455,19.455,0,0,1-.352,3.072c-.208.96-.32,1.088-.96,1.088a11.052,11.052,0,0,1-1.9-.176,2.712,2.712,0,0,1,.32,1.04c.5.032,1.024.064,1.392.064,1.088,0,1.488-.16,1.776-.736a15.966,15.966,0,0,0,.7-4.272,7.258,7.258,0,0,1,.08-.944,12.486,12.486,0,0,1-1.568.064H120a7.833,7.833,0,0,0,.736-1.168h4.9a13.635,13.635,0,0,1,1.584.064v-1.008a9.089,9.089,0,0,1-1.584.1H118.8a7.878,7.878,0,0,1-1.472-.1v1.04a7.83,7.83,0,0,1,1.44-.1h.976a7.681,7.681,0,0,1-3.712,3.376,2.844,2.844,0,0,1,.656.72,10.26,10.26,0,0,0,2.688-2.128Zm-6.256-5.088h-.656a8.944,8.944,0,0,1-1.392-.08v1.056a11.531,11.531,0,0,1,1.36-.08h.688v4.576a7.971,7.971,0,0,1-2.064.784l.3,1.12c.144-.08.592-.3.848-.416a29.488,29.488,0,0,0,3.328-1.808l-.064-.96a13.835,13.835,0,0,1-1.36.816v-4.112h.384a12.5,12.5,0,0,1,1.328.064v-1.024a9.447,9.447,0,0,1-1.328.064h-.384v-2.208a10.91,10.91,0,0,1,.1-1.776h-1.184a12.676,12.676,0,0,1,.1,1.76Zm9.456,1.216c.624,0,1.12.016,1.472.048a9.419,9.419,0,0,1-.064-1.424v-2a11.689,11.689,0,0,1,.064-1.488,11.718,11.718,0,0,1-1.664.08h-4.176a10.331,10.331,0,0,1-1.536-.08,10.766,10.766,0,0,1,.064,1.408v2.08a12.327,12.327,0,0,1-.064,1.44,11.283,11.283,0,0,1,1.456-.064Zm-4.9-3.952h5.36v1.168h-5.36Zm0,1.952h5.36v1.216h-5.36Z" transform="translate(705 1486)" fill="#707070"/>
    <path id="パス_51" data-name="パス 51" d="M5.872-11.056h3.76a11.1,11.1,0,0,1,1.872.128v-1.36a10.509,10.509,0,0,1-1.872.128h-3.3a10.882,10.882,0,0,1-1.7-.08,6.4,6.4,0,0,1,.032.688c0,.3-.016.5-.048.96L4.272-6.976a12.351,12.351,0,0,1-.24,1.648l1.2.112a2.053,2.053,0,0,1,.736-.96,3.321,3.321,0,0,1,2.1-.672,2.69,2.69,0,0,1,2.8,2.928A2.856,2.856,0,0,1,7.872-.864,2.976,2.976,0,0,1,5.6-1.808a2.505,2.505,0,0,1-.512-.944l-1.312.4A4.676,4.676,0,0,0,4.784-.864,4.267,4.267,0,0,0,7.84.24a3.991,3.991,0,0,0,4.32-4.224,3.775,3.775,0,0,0-1.072-2.832A4.015,4.015,0,0,0,8.208-7.9a3.888,3.888,0,0,0-2.8,1.1,4.606,4.606,0,0,0,.128-.72ZM21.7-11.52V-12.1a6.754,6.754,0,0,1,.1-1.232h-1.2a6.106,6.106,0,0,1,.1,1.216v.592H18.752a8.681,8.681,0,0,1-1.488-.08v1.056a8.506,8.506,0,0,1,1.44-.08h4.784a8.246,8.246,0,0,1,1.472.08V-11.6a8.681,8.681,0,0,1-1.488.08Zm1.072,4.352a16.544,16.544,0,0,0,1.184-2.848l-.976-.336a13.3,13.3,0,0,1-1.152,3.184H18.368a9.212,9.212,0,0,1-1.536-.08v1.072a9.111,9.111,0,0,1,1.52-.08h5.36a10.215,10.215,0,0,1,1.456.08V-7.248a8.231,8.231,0,0,1-1.488.08ZM18.3-10a11.257,11.257,0,0,1,1.04,2.656l.928-.32A12.293,12.293,0,0,0,19.2-10.32ZM18.928.112H23.04V1.1h1.072A9.01,9.01,0,0,1,24.048-.16V-3.6A8.254,8.254,0,0,1,24.1-4.928a9.685,9.685,0,0,1-1.168.048H19.136c-.56,0-.928-.016-1.264-.048a12.4,12.4,0,0,1,.048,1.344V-.336a10.545,10.545,0,0,1-.064,1.44h1.072Zm0-4.1h4.128v3.2H18.928ZM30.8-12.864a7.582,7.582,0,0,1-1.232.064H26.992c-.56,0-.864-.016-1.28-.048.048.544.064.992.064,1.472V-.5a12.677,12.677,0,0,1-.1,1.76H26.9a10.149,10.149,0,0,1-.112-1.776V-11.888h3.184a23.4,23.4,0,0,1-2.16,4.464,6.574,6.574,0,0,1,1.9,2.32,4.946,4.946,0,0,1,.528,2.176c0,.848-.3,1.136-1.216,1.136a8.238,8.238,0,0,1-1.552-.16A3.116,3.116,0,0,1,27.68-.88a12.91,12.91,0,0,0,1.328.064,3.2,3.2,0,0,0,1.44-.24,1.928,1.928,0,0,0,.816-1.792,5.533,5.533,0,0,0-.48-2.24A7.466,7.466,0,0,0,28.976-7.6a31.97,31.97,0,0,0,1.648-3.168,13.617,13.617,0,0,1,.656-1.424Zm8.016,5.616A13,13,0,0,1,37.7-5.312c-1.328.032-1.328.032-1.392.032a2.474,2.474,0,0,1-.56-.048L35.92-4.3a3.044,3.044,0,0,1,.592-.064c3.5-.192,5.728-.352,7.936-.56.352.384.48.512.944,1.04l.832-.512a22.748,22.748,0,0,0-3.072-2.736l-.816.432c.688.512.944.7,1.36,1.056-2.256.208-2.688.224-4.944.3a17.689,17.689,0,0,0,1.12-1.9h5.056a13.293,13.293,0,0,1,1.824.08V-8.192a12.542,12.542,0,0,1-1.872.08H35.328l.032-1.232h9.28c.5,0,.96.016,1.584.048a6.238,6.238,0,0,1-.048-1.008v-1.424a8.375,8.375,0,0,1,.048-1.088,11.2,11.2,0,0,1-1.648.08H36.24a14.9,14.9,0,0,1-1.936-.08,19.13,19.13,0,0,1,.08,1.984,35.958,35.958,0,0,1-.672,8.192A9.256,9.256,0,0,1,32.544.08a4.109,4.109,0,0,1,.864.8,11.638,11.638,0,0,0,1.36-3.6A29.689,29.689,0,0,0,35.3-7.248Zm-3.44-2.96v-1.648H45.2v1.648ZM41.248-2.88a7.184,7.184,0,0,1,.08-1.344H40.176a7.08,7.08,0,0,1,.08,1.344H37.68a9.9,9.9,0,0,1-1.7-.08v1.024a11.556,11.556,0,0,1,1.68-.08h2.592V-.224H36.624A11.748,11.748,0,0,1,34.752-.3V.752a14.622,14.622,0,0,1,1.936-.1h8.368a15.406,15.406,0,0,1,2.048.1V-.3a12.448,12.448,0,0,1-1.984.08H41.248V-2.016H44.4a11.828,11.828,0,0,1,1.68.08V-2.96a9.79,9.79,0,0,1-1.68.08ZM63.392,1.3A10.117,10.117,0,0,1,60.96-2.016,9.7,9.7,0,0,1,60.1-6.08a9.7,9.7,0,0,1,.864-4.064,10.117,10.117,0,0,1,2.432-3.312H61.968a10.769,10.769,0,0,0-2.224,3.44,10.034,10.034,0,0,0-.768,3.936,10.034,10.034,0,0,0,.768,3.936A10.769,10.769,0,0,0,61.968,1.3ZM67.84-8.976H66.464a9.813,9.813,0,0,1-1.52-.1v1.088a10.563,10.563,0,0,1,1.52-.1h1.184A12.258,12.258,0,0,1,64.5-2.72a4.256,4.256,0,0,1,.672.864,10.9,10.9,0,0,0,1.456-1.968,12.267,12.267,0,0,0,1.28-2.96c-.048.88-.08,2.048-.08,2.64V-.816a13.767,13.767,0,0,1-.1,1.952h1.184a11.681,11.681,0,0,1-.1-1.952V-4.24c-.032-1.856-.032-1.856-.08-2.72a10.006,10.006,0,0,0,2.08,3.152,3.3,3.3,0,0,1,.656-.816,9.3,9.3,0,0,1-1.936-2.192,6.1,6.1,0,0,1-.672-1.264h1.168A8.34,8.34,0,0,1,71.424-8V-9.056a7.776,7.776,0,0,1-1.392.08H68.816v-2.448a24.111,24.111,0,0,0,2.336-.816,2.612,2.612,0,0,1,.368-.144l-.688-.848a4.076,4.076,0,0,1-.96.48,20.163,20.163,0,0,1-4.88,1.2,2.1,2.1,0,0,1,.448.912c1.136-.208,1.536-.3,2.4-.512Zm5.3,8.464h4.288V.624h1.12a15.521,15.521,0,0,1-.1-1.968v-8.784a11.94,11.94,0,0,1,.08-1.7,9.843,9.843,0,0,1-1.52.08H73.552a10,10,0,0,1-1.5-.08,15.825,15.825,0,0,1,.08,1.7v8.9a17.208,17.208,0,0,1-.08,1.856h1.088Zm0-10.272h4.288v9.328H73.136Zm14.208-1.1H83.36a19.83,19.83,0,0,1-1.984-.064,8.031,8.031,0,0,1,.064,1.072v.848a7.475,7.475,0,0,1-.048.912l-.016.192h1.056v-2.064h11.2v2.064h1.056a6.968,6.968,0,0,1-.064-1.088v-.8a7.245,7.245,0,0,1,.064-1.136c-.544.048-1.04.064-2.128.064H88.384V-12.3a5.736,5.736,0,0,1,.1-1.088H87.248a6.25,6.25,0,0,1,.1,1.088ZM85.968-8.544a15.023,15.023,0,0,1-1.312,2.272c-.768.016-1.152.032-1.664.032A9.813,9.813,0,0,1,82-6.288l.16,1.024a3.724,3.724,0,0,1,.608-.064c2.976-.112,6.256-.3,9.1-.544a12.866,12.866,0,0,1,1.1,1.136l.768-.656a27.825,27.825,0,0,0-3.392-2.864l-.768.5a15.642,15.642,0,0,1,1.472,1.152c-2.192.16-3.536.24-5.312.288a15.712,15.712,0,0,0,1.3-2.224h4.112a12.73,12.73,0,0,1,1.824.08V-9.488a12.711,12.711,0,0,1-1.84.08H84.928a12.32,12.32,0,0,1-1.824-.08v1.024a12.952,12.952,0,0,1,1.872-.08ZM88.4-3.536v-.24a7.663,7.663,0,0,1,.1-1.264H87.3a7.948,7.948,0,0,1,.1,1.264v.24H84.32a11.381,11.381,0,0,1-1.712-.08V-2.56a11.78,11.78,0,0,1,1.712-.08h3.072V-.384H83.008A12.384,12.384,0,0,1,80.992-.5V.624a17.457,17.457,0,0,1,2.064-.1H93.04a17.271,17.271,0,0,1,2.064.1V-.5a12.159,12.159,0,0,1-2,.112H88.4V-2.64h3.392a11.8,11.8,0,0,1,1.7.08V-3.616a11.534,11.534,0,0,1-1.7.08ZM98.032,1.3a10.769,10.769,0,0,0,2.224-3.44,10.034,10.034,0,0,0,.768-3.936,10.034,10.034,0,0,0-.768-3.936,10.769,10.769,0,0,0-2.224-3.44H96.608a9.956,9.956,0,0,1,2.432,3.312A9.7,9.7,0,0,1,99.9-6.08a9.7,9.7,0,0,1-.864,4.064A9.956,9.956,0,0,1,96.608,1.3ZM8.1,43.168V47.28a10.763,10.763,0,0,1-.112,1.888H9.248a10.643,10.643,0,0,1-.112-1.888V43.168h3.808v3.2c0,.3-.128.384-.624.384a12.422,12.422,0,0,1-1.92-.192,3.64,3.64,0,0,1,.208,1.088c.608.048,1.136.08,1.552.08,1.36,0,1.792-.288,1.792-1.2V43.792a13.215,13.215,0,0,1,.064-1.616,9.242,9.242,0,0,1-1.632.08H6.832a10.055,10.055,0,0,1-1.728-.1v1.1a10.62,10.62,0,0,1,1.728-.1ZM1.1,36.016a13.47,13.47,0,0,1,2.3,3.008l.832-.7a19.24,19.24,0,0,0-2.3-2.944Zm2.464,6.128A23.767,23.767,0,0,1,1.76,46.08,5.953,5.953,0,0,1,.736,47.5l.976.832c.128-.272.224-.464.336-.656A27.007,27.007,0,0,0,4.368,42.9ZM6.56,40.512a5.986,5.986,0,0,1,1.152-.08h3.44A8.165,8.165,0,0,1,12.3,40.5V39.44a5.467,5.467,0,0,1-1.1.08H7.68a5.735,5.735,0,0,1-1.12-.08Zm2.064-5.68a12.136,12.136,0,0,1-5.12,5.28,4.162,4.162,0,0,1,.72.88A14.4,14.4,0,0,0,9.248,35.76,14.152,14.152,0,0,0,14.992,40.9a3.749,3.749,0,0,1,.624-1.008,12.846,12.846,0,0,1-3.3-2.032,9.94,9.94,0,0,1-2.544-3.024Zm20.944,8.512c-.336.032-.688.048-1.3.048h-3.6a9.122,9.122,0,0,0,.32-1.216H29.52a11.422,11.422,0,0,1,1.68.08V41.248a10.288,10.288,0,0,1-1.664.08H25.152c.064-.464.1-.64.16-1.312H29.6a12.926,12.926,0,0,1,1.424.08V39.12a9.29,9.29,0,0,1-1.408.08h-.768A26.482,26.482,0,0,0,30.4,36.656l-.976-.384A11.585,11.585,0,0,1,27.808,39.2H23.44a8.337,8.337,0,0,1-1.328-.08V40.1a8.93,8.93,0,0,1,1.344-.08h.912c-.064.784-.1.944-.144,1.312h-1.1a11.246,11.246,0,0,1-1.408-.064v.992a9.225,9.225,0,0,1,1.44-.08h.928a9.977,9.977,0,0,1-1.168,3.12,8.9,8.9,0,0,1-2.672,2.96,2.752,2.752,0,0,1,.688.736,10.846,10.846,0,0,0,3.184-4.128,11.16,11.16,0,0,0,2.08,1.968,12.067,12.067,0,0,1-3.936,1.584,2.189,2.189,0,0,1,.56.832,12.927,12.927,0,0,0,4.128-1.888,16.125,16.125,0,0,0,4.1,1.792,3.345,3.345,0,0,1,.5-.944,13.59,13.59,0,0,1-3.84-1.424,9.223,9.223,0,0,0,2.08-2.336c.224-.352.224-.352.32-.5Zm-.7.848a7.646,7.646,0,0,1-1.952,2.128,9.829,9.829,0,0,1-2.3-2.128ZM18.608,35.744c-.592,0-.9-.016-1.3-.048a13.245,13.245,0,0,1,.064,1.536v9.2a13.2,13.2,0,0,1-.08,1.712H18.32V46.56H20.3v.688h1.008a9.7,9.7,0,0,1-.064-1.424V37.056c0-.528.016-.992.048-1.36a11.184,11.184,0,0,1-1.184.048Zm-.288.9H20.3v3.952H18.32Zm0,4.832H20.3v4.192H18.32Zm11.84-6.64c-1.024.5-4.08.864-7.312.864h-.88a2.849,2.849,0,0,1,.352.912,38.759,38.759,0,0,0,7.424-.656c.4-.08.768-.176,1.184-.288Zm-5.6,3.808a12.693,12.693,0,0,0-1.1-1.792l-.8.368a6.975,6.975,0,0,1,1.088,1.824Zm2.512-.048a10.372,10.372,0,0,0-1.024-1.92l-.832.32a8.386,8.386,0,0,1,1.008,1.952ZM39.248,43.12a5.411,5.411,0,0,1-1.2,3.3,6.791,6.791,0,0,1-2.976,2.016,2.341,2.341,0,0,1,.64.864,7.018,7.018,0,0,0,4.048-4h4.752a6.3,6.3,0,0,1-.464,2.512c-.128.16-.384.224-.928.224a12.389,12.389,0,0,1-2.336-.208,2.987,2.987,0,0,1,.208,1.008,17.9,17.9,0,0,0,2.064.112,2.582,2.582,0,0,0,1.664-.352c.432-.32.624-1.1.832-3.264a5.752,5.752,0,0,1,.112-.944,9.05,9.05,0,0,1-1.584.08H40.032a7.108,7.108,0,0,0,.224-1.344H45.2a15.136,15.136,0,0,1,1.632.064V42.16a9.746,9.746,0,0,1-1.632.1H41.1v-.144a4.553,4.553,0,0,1,.1-1.056H40.016a6.312,6.312,0,0,1,.1,1.056v.144h-2.72a9.985,9.985,0,0,1-1.6-.08V43.2a10.536,10.536,0,0,1,1.568-.08Zm7.808-7.984a12.31,12.31,0,0,1-1.824.1H35.152a12.357,12.357,0,0,1-1.808-.1v1.072a13.667,13.667,0,0,1,1.776-.08H45.264a14.089,14.089,0,0,1,1.792.08Zm-2.624,5.536a13.979,13.979,0,0,1,1.488.064,9.484,9.484,0,0,1-.048-1.12V38.4a9.115,9.115,0,0,1,.048-1.072c-.3.032-.752.048-1.488.048H36.176a11.216,11.216,0,0,1-1.744-.08,11.283,11.283,0,0,1,.064,1.456c0,5.408-.464,7.712-1.936,9.6a2.767,2.767,0,0,1,.832.688,9.371,9.371,0,0,0,1.6-3.68,24.781,24.781,0,0,0,.464-4.688Zm-8.96-.848c.016-.224.016-.528.016-.928V38.24h9.424v1.584ZM56,40.608a1.312,1.312,0,1,0,1.312,1.312A1.318,1.318,0,0,0,56,40.608Zm20.688.448a14.6,14.6,0,0,1,1.84.08V39.952a11.527,11.527,0,0,1-1.856.1h-9.36a11.527,11.527,0,0,1-1.856-.1v1.184a14.6,14.6,0,0,1,1.84-.08h4.336a9.157,9.157,0,0,1-.64,3.312,6.07,6.07,0,0,1-4.048,3.152,2.8,2.8,0,0,1,.752,1.04,9.409,9.409,0,0,0,2.816-1.584,6.3,6.3,0,0,0,2.16-4.224,14.922,14.922,0,0,0,.176-1.7ZM67.072,37.2a12.869,12.869,0,0,1,1.824-.08h6.256a12.869,12.869,0,0,1,1.824.08V35.984a8.842,8.842,0,0,1-1.84.112H68.912a8.842,8.842,0,0,1-1.84-.112Zm16.576-1.488a8.271,8.271,0,0,1,.048.864v.592l-.032,9.168a3.07,3.07,0,0,1-.112,1.04l.64.8a4.02,4.02,0,0,1,.928-.24c4.272-.832,6.624-2.32,8.816-5.584a4.075,4.075,0,0,1-.88-1.008,9.685,9.685,0,0,1-3.6,3.84,12.08,12.08,0,0,1-4.576,1.6l.048-9.648a9.857,9.857,0,0,1,.08-1.424Zm16.784,1.408a7.08,7.08,0,0,1,.08-1.344H99.2a8.877,8.877,0,0,1,.064,1.328V44.48c0,.672.016.992.032,1.248a2.124,2.124,0,0,0,.656,1.536c.56.464,1.616.656,3.5.656,1.1,0,3.216-.112,4.24-.224l.768-.08.208-.016c.24-.032.288-.032.528-.048l-.1-1.28a7.708,7.708,0,0,1-1.584.32,31.652,31.652,0,0,1-3.664.256,16.685,16.685,0,0,1-1.888-.1,1.921,1.921,0,0,1-1.216-.416c-.272-.272-.336-.64-.336-1.76V44.4l.016-.1V41.968a24.838,24.838,0,0,0,7.632-2.7c.368-.192.448-.224.688-.336l-.816-1.088c-1.072,1.056-4.976,2.64-7.5,3.072Zm7.216-1.744A11.85,11.85,0,0,1,109.3,37.92l.8-.48a12.147,12.147,0,0,0-1.648-2.48Zm1.824-.864a11.986,11.986,0,0,1,1.632,2.512l.816-.448a13.836,13.836,0,0,0-1.664-2.5ZM120,40.608a1.312,1.312,0,1,0,1.312,1.312A1.318,1.318,0,0,0,120,40.608Zm15.344-.336v2.176H131.2a10.5,10.5,0,0,1-1.568-.1v1.12a10.88,10.88,0,0,1,1.552-.1h4.16V47.6h-4.368a14.768,14.768,0,0,1-1.824-.1v1.152a13.956,13.956,0,0,1,1.824-.112h10.08a11.77,11.77,0,0,1,1.76.112V47.5a13.409,13.409,0,0,1-1.744.1h-4.688V43.376h4.464a10.806,10.806,0,0,1,1.568.1v-1.12a10.21,10.21,0,0,1-1.568.1h-4.464V40.272h1.952a9.173,9.173,0,0,1,1.472.08V39.36a17.139,17.139,0,0,0,3.12,1.632,4.96,4.96,0,0,1,.64-1.024,14.335,14.335,0,0,1-4.176-2.144,10.846,10.846,0,0,1-2.864-2.9H135.3A13.1,13.1,0,0,1,128.544,40a3.446,3.446,0,0,1,.672.944,15.285,15.285,0,0,0,2.912-1.552v.96a9.643,9.643,0,0,1,1.488-.08Zm-1.744-.88a9.667,9.667,0,0,1-1.36-.064,13.337,13.337,0,0,0,3.68-3.5,14.508,14.508,0,0,0,3.824,3.5,10.308,10.308,0,0,1-1.408.064Zm-2.352,4.9a12.094,12.094,0,0,1,1.392,2.848l.928-.368a16.264,16.264,0,0,0-1.408-2.9Zm8.4-.384a10.806,10.806,0,0,1-1.6,3.024l.9.368a19.174,19.174,0,0,0,1.712-2.976Zm12.816-4.912v1.2H149.68a12.559,12.559,0,0,1-1.536-.064,9.045,9.045,0,0,1,.064,1.312v2.336a9.409,9.409,0,0,1-.064,1.344,12.817,12.817,0,0,1,1.5-.064h2.816v1.312H148.5a9.544,9.544,0,0,1-1.472-.08V47.3a12.792,12.792,0,0,1,1.52-.08h3.92v.48a10.054,10.054,0,0,1-.1,1.616H153.5a8.38,8.38,0,0,1-.1-1.6v-.5h4.112a12.448,12.448,0,0,1,1.664.1v-1.04a10.565,10.565,0,0,1-1.632.1h-4.144V45.056h3.024a12.692,12.692,0,0,1,1.488.064,9.088,9.088,0,0,1-.048-1.328V41.44a8.837,8.837,0,0,1,.048-1.312,12.18,12.18,0,0,1-1.488.064h-3.024v-1.2h3.936a8.277,8.277,0,0,1,1.376.1V38.08a6.942,6.942,0,0,1-1.376.1h-3.936a4.574,4.574,0,0,1,.064-.9h-1.088a6.177,6.177,0,0,1,.08.9h-3.472a8.11,8.11,0,0,1-1.392-.08v.976a8.11,8.11,0,0,1,1.392-.08Zm0,2v1.184h-3.312V40.992Zm.944,0h3.52v1.184h-3.52Zm-.944,1.952v1.312h-3.312V42.944Zm.944,0h3.52v1.312h-3.52Zm-1.6-6.928h-4.16a14.125,14.125,0,0,1-1.776-.08c.032.336.064.864.064,1.184a1,1,0,0,1,.016.256,54.711,54.711,0,0,1-.336,7.344,7.944,7.944,0,0,1-1.232,3.424,2.954,2.954,0,0,1,.832.784,9.638,9.638,0,0,0,1.312-3.5,50.686,50.686,0,0,0,.4-8.56h10.464a9.968,9.968,0,0,1,1.616.08V35.92a11.394,11.394,0,0,1-1.648.1h-4.544v-.384a4.453,4.453,0,0,1,.08-1.056h-1.184a4.5,4.5,0,0,1,.1,1.04ZM168,40.608a1.312,1.312,0,1,0,1.312,1.312A1.318,1.318,0,0,0,168,40.608Zm11.632.56a11.261,11.261,0,0,1,2.32,2.112,13.552,13.552,0,0,1-4.624,4.944,3.167,3.167,0,0,1,.784.88,15.763,15.763,0,0,0,4.48-4.816,16.875,16.875,0,0,0,1.9-5.408,10.562,10.562,0,0,0,2.208,3.376V47.2a13.816,13.816,0,0,1-.112,1.952h1.232a13.373,13.373,0,0,1-.112-1.952V43.168a12.567,12.567,0,0,0,3.3,2.24,4.092,4.092,0,0,1,.672-1.008,13.777,13.777,0,0,1-3.968-2.512V36.432a10.746,10.746,0,0,1,.112-1.664h-1.232a10.887,10.887,0,0,1,.112,1.664v4.5a9.571,9.571,0,0,1-1.952-3.488c.016-.176.032-.24.064-.448-.352.032-.688.048-1.264.048h-2.5c.224-.608.3-.848.432-1.264a6.621,6.621,0,0,1,.32-.912l-1.152-.224a10.52,10.52,0,0,1-.512,2,13.984,13.984,0,0,1-3.264,5.424,2.773,2.773,0,0,1,.7.848,16.161,16.161,0,0,0,3.12-4.96h3.008a18.282,18.282,0,0,1-1.312,4.416,13.387,13.387,0,0,0-2.176-1.952Zm13.392,1.424a4.087,4.087,0,0,1,.656-.08c1.344-.1,1.344-.1,1.856-.128v5.2a11.775,11.775,0,0,1-.1,1.6h1.12a8.891,8.891,0,0,1-.1-1.6v-5.3c.608-.064.736-.08,1.44-.176.08.272.112.4.208.784l.784-.384a16.709,16.709,0,0,0-1.12-2.848l-.72.336a8.773,8.773,0,0,1,.576,1.328c-.976.128-1.008.128-2.448.224.864-1.12,1.552-2.1,2.08-2.912q.624-.984,1.056-1.632l-.928-.5a15.31,15.31,0,0,1-1.6,2.832c-.432-.512-.576-.672-.976-1.1a23.68,23.68,0,0,0,1.568-2.624,5.536,5.536,0,0,1,.384-.656l-.992-.416a10.77,10.77,0,0,1-1.552,3.072c-.256-.256-.4-.384-.768-.736l-.576.752a19.643,19.643,0,0,1,2.4,2.464c-.272.368-.64.88-1.12,1.52-.3.016-.56.016-.672.016a3.8,3.8,0,0,1-.624-.048ZM200.7,36a12.139,12.139,0,0,1-1.5-.064,13.045,13.045,0,0,1,.064,1.488V40a12.691,12.691,0,0,1-.064,1.488,12.77,12.77,0,0,1,1.52-.064h1.5v6.224c0,.256-.128.336-.544.336a10.316,10.316,0,0,1-1.536-.144,2.782,2.782,0,0,1,.288,1.024c.3.016.9.048,1.2.048,1.168,0,1.552-.272,1.552-1.136V45.76c0-.736-.048-1.536-.16-2.976a9.875,9.875,0,0,0,1.92,3.792,9.581,9.581,0,0,0,1.984,1.952,2.733,2.733,0,0,1,.672-.9,10.23,10.23,0,0,1-2.864-2.88,23.507,23.507,0,0,0,2.24-2.16l-.72-.672a14.147,14.147,0,0,1-1.984,2.112,8.468,8.468,0,0,1-1.088-2.608H204.8a12.817,12.817,0,0,1,1.5.064,11.89,11.89,0,0,1-.064-1.472V37.44a12.473,12.473,0,0,1,.064-1.5,12.431,12.431,0,0,1-1.52.064h-2.032c.272-.576.368-.768.576-1.264l-1.1-.208a6.838,6.838,0,0,1-.5,1.472Zm-.544.816h5.168v1.456H200.16Zm0,2.288h5.168v1.5H200.16Zm-6.384,4.32a14.246,14.246,0,0,1-.864,4.416l.864.432a17,17,0,0,0,.9-4.672Zm3.328.208a19.126,19.126,0,0,1,.608,3.136l.816-.3a19.992,19.992,0,0,0-.672-3.072Zm4.256-.768a3.528,3.528,0,0,1-.832.064h-.816a5.186,5.186,0,0,1-1.1-.08v1.008a5.3,5.3,0,0,1,1.088-.08h1.04a8.143,8.143,0,0,1-3.136,3.9,2.489,2.489,0,0,1,.688.736,12.319,12.319,0,0,0,1.664-1.6,11.022,11.022,0,0,0,1.408-2.368,10.968,10.968,0,0,1,.48-1.056ZM215.312,36v.976H210.88a11.607,11.607,0,0,1-1.744-.08,9.467,9.467,0,0,1,.064,1.216v.944a6.883,6.883,0,0,1-.1,1.2h1.04v-2.5h5.168v1.92a9.386,9.386,0,0,1-.1,1.568h1.152a9.655,9.655,0,0,1-.08-1.568V37.76h5.472v2.5h1.04a5.613,5.613,0,0,1-.1-1.2v-.944a9,9,0,0,1,.064-1.216,11.988,11.988,0,0,1-1.76.08h-4.72V36h3.9a13.785,13.785,0,0,1,1.536.064v-.992a10.89,10.89,0,0,1-1.584.1h-8.32a12.624,12.624,0,0,1-1.632-.1v.992A15.518,15.518,0,0,1,211.776,36Zm-.032,10.528v1.328c0,.928.416,1.056,3.392,1.056,2.5,0,3.408-.1,3.856-.432.4-.288.576-.912.608-2.176a3.927,3.927,0,0,1-.992-.448c-.016,1.248-.08,1.728-.288,1.888-.272.224-1.12.3-3.024.3-2.24,0-2.576-.048-2.576-.432V46.528h3.7a12.328,12.328,0,0,1,1.44.064,10.926,10.926,0,0,1-.048-1.152V43.1a11.527,11.527,0,0,1,.064-1.424,11.6,11.6,0,0,1-1.456.064h-8.064a10.692,10.692,0,0,1-1.376-.064,12.386,12.386,0,0,1,.064,1.424v2.96a8.621,8.621,0,0,1-.1,1.36h1.072v-.9Zm0-4v1.136h-3.728V42.528Zm0,1.9v1.3h-3.728v-1.3Zm.976,1.3v-1.3h4.112v1.3Zm0-2.064V42.528h4.112v1.136Zm-5.232-4.384a5.626,5.626,0,0,1,.976-.064h1.488a5.16,5.16,0,0,1,.928.064v-.768a7.218,7.218,0,0,1-.928.048H212a7.707,7.707,0,0,1-.976-.048Zm0,1.552a5.4,5.4,0,0,1,.976-.064h1.488a5.047,5.047,0,0,1,.928.064v-.784a5.047,5.047,0,0,1-.928.064H212a5.176,5.176,0,0,1-.976-.064Zm6.24-1.552a5.4,5.4,0,0,1,.976-.064h1.744a5.048,5.048,0,0,1,.928.064V38.5a4.938,4.938,0,0,1-.928.064H218.24a5.176,5.176,0,0,1-.976-.064Zm0,1.552a5.4,5.4,0,0,1,.976-.064h1.744a5.047,5.047,0,0,1,.928.064v-.784a5.047,5.047,0,0,1-.928.064H218.24a5.176,5.176,0,0,1-.976-.064Zm16.96-1.3h-1.68a10.44,10.44,0,0,1-1.792-.1v1.088a10.91,10.91,0,0,1,1.776-.1h1.7v2.736h-1.792A7.927,7.927,0,0,1,231.3,43.1a11.126,11.126,0,0,1,.064,1.344V47.52a9.2,9.2,0,0,1-.08,1.552h1.088v-.8h4.96v.8h1.088a13.087,13.087,0,0,1-.08-1.568V44.528A10.579,10.579,0,0,1,238.4,43.1a8.173,8.173,0,0,1-1.2.064h-1.968V40.432h2.112a12.074,12.074,0,0,1,1.712.1V39.44a11.616,11.616,0,0,1-1.712.1h-2.112v-2.96c.672-.16,2.352-.624,2.928-.832.016,0,.192-.048.512-.144l-.688-.912a8.5,8.5,0,0,1-1.792.688,24.85,24.85,0,0,1-5.536.928,3.715,3.715,0,0,1,.432.928c1.488-.16,1.936-.224,3.136-.448Zm-1.856,4.512h4.96v3.328h-4.96Zm-6.88-7.76a9.1,9.1,0,0,1,1.232-.064h2.224a8.948,8.948,0,0,1,1.232.064V35.28a6.691,6.691,0,0,1-1.232.08H226.72a6.586,6.586,0,0,1-1.232-.08Zm-.544,2.208a9.562,9.562,0,0,1,1.28-.064h3.1a7.085,7.085,0,0,1,1.152.064V37.472a6.531,6.531,0,0,1-1.28.08h-2.976a6.942,6.942,0,0,1-1.28-.08Zm.624,2.176a7.88,7.88,0,0,1,1.152-.064h2.368a8.22,8.22,0,0,1,1.136.064V39.68a7.117,7.117,0,0,1-1.136.064H226.72a7.606,7.606,0,0,1-1.152-.064Zm0,2.208a7.472,7.472,0,0,1,1.152-.064h2.368a7.786,7.786,0,0,1,1.136.064v-.992a6.866,6.866,0,0,1-1.136.064H226.72a7.213,7.213,0,0,1-1.152-.064Zm1.1,5.408h2.544v.656h.992a8.757,8.757,0,0,1-.08-1.312V45.36a12.37,12.37,0,0,1,.048-1.248,6.628,6.628,0,0,1-1.168.048h-2.064a10.979,10.979,0,0,1-1.3-.064,8.1,8.1,0,0,1,.08,1.328v2.192a10.041,10.041,0,0,1-.1,1.536h1.04Zm-.016-3.3h2.56v2.464h-2.56ZM5.936,95.52a8.878,8.878,0,0,1-.08,1.52H6.944V96.1h5.408v.976H13.44a9.432,9.432,0,0,1-.08-1.552V91.968a8.419,8.419,0,0,1,.032-.976,14.046,14.046,0,0,0,1.648,1.12,4.343,4.343,0,0,1,.608-.944,13.2,13.2,0,0,1-2.912-2.032A11.154,11.154,0,0,1,10.144,85.9H9.056A11.2,11.2,0,0,1,6.528,89.3a12.968,12.968,0,0,1-2.576,1.84,2.425,2.425,0,0,1,.624.832c.624-.4.848-.544,1.344-.912.016.288.016.544.016.944ZM7.1,90.688c-.288,0-.464,0-.72-.016a12.39,12.39,0,0,0,3.232-3.856,14.369,14.369,0,0,0,3.36,3.856c-.24.016-.464.016-.832.016Zm-.16.912h5.408v3.584H6.944ZM1.68,83.584a12.889,12.889,0,0,1,2.56,2.192l.624-.816a15.082,15.082,0,0,0-2.528-2.08ZM.72,87.456a14.663,14.663,0,0,1,2.848,2.208l.64-.864a20.123,20.123,0,0,0-2.88-2.08Zm2.464,3.92a16.283,16.283,0,0,1-1.648,3.776,4.852,4.852,0,0,1-.688.96l.944.816c.064-.112.064-.128.176-.336l.16-.32a28.759,28.759,0,0,0,1.9-4.288Zm7.376-8.144A14.272,14.272,0,0,0,12.4,85.44a13.674,13.674,0,0,0,2.048,1.648,4.066,4.066,0,0,1,.64-.912,10.79,10.79,0,0,1-2.064-1.52,10.989,10.989,0,0,1-1.632-1.936Zm-2.88-.464A9.991,9.991,0,0,1,6.288,84.96a10.212,10.212,0,0,1-1.84,1.632,2.043,2.043,0,0,1,.752.72,10.116,10.116,0,0,0,1.824-1.744A12.052,12.052,0,0,0,8.56,83.28ZM23.92,86.3a15.735,15.735,0,0,0,.656,2.816,13.316,13.316,0,0,0,2.368,4.128A13.521,13.521,0,0,0,30.768,96.4a4.711,4.711,0,0,1,.672-1.024,12.308,12.308,0,0,1-3.68-2.72,10.835,10.835,0,0,1-1.168-1.52,15.119,15.119,0,0,0,2.624-2.48c.288-.3.4-.432.576-.608l-.912-.72a7.014,7.014,0,0,1-1.152,1.536,14.6,14.6,0,0,1-1.6,1.488A12.545,12.545,0,0,1,24.816,86.3h4.368a12.017,12.017,0,0,1,1.824.1V85.232a11.153,11.153,0,0,1-1.824.112H24.368V84.5a7.8,7.8,0,0,1,.1-1.328H23.216a6.685,6.685,0,0,1,.112,1.312v.864H18.8a11.112,11.112,0,0,1-1.792-.112V86.4a11.858,11.858,0,0,1,1.776-.1h3.968a12.877,12.877,0,0,1-6.288,5.072,3.242,3.242,0,0,1,.656.928,18.5,18.5,0,0,0,3.5-2.208v4.976a15.206,15.206,0,0,1-2.784.592l.352,1.184c.288-.112.608-.208,1.056-.336a49.6,49.6,0,0,0,6.432-2.176l-.048-1.04a38.494,38.494,0,0,1-3.984,1.472V89.2a11.488,11.488,0,0,0,2.208-2.9ZM40,88.608a1.312,1.312,0,1,0,1.312,1.312A1.318,1.318,0,0,0,40,88.608Zm15.584-2.352H52.768v-1.44a6.334,6.334,0,0,1,.1-1.344H51.68a7.928,7.928,0,0,1,.1,1.328v1.456h-1.12a12.074,12.074,0,0,1-1.712-.1v1.088a11.979,11.979,0,0,1,1.7-.1H61.472a11.063,11.063,0,0,1,1.616.1V86.16a10.765,10.765,0,0,1-1.616.1H56.56V84.784h3.488a9.9,9.9,0,0,1,1.568.08V83.856a10.5,10.5,0,0,1-1.568.1H56.56a7.516,7.516,0,0,1,.1-1.376H55.488a7.939,7.939,0,0,1,.1,1.36Zm-.656,5.04A9.316,9.316,0,0,1,51.3,93.968a2.59,2.59,0,0,1,.656.736,9.644,9.644,0,0,0,3.52-2.992c-.048.784-.064.976-.064,1.328v.8a6.61,6.61,0,0,1-.08,1.216H56.4a6.5,6.5,0,0,1-.08-1.216v-.816c0-.272-.016-.576-.064-1.328a5.577,5.577,0,0,0,1.024,1.168,10.028,10.028,0,0,0,2.784,1.856,3.11,3.11,0,0,1,.576-.768A9.468,9.468,0,0,1,56.8,91.3h2.416a10.224,10.224,0,0,1,1.3.08V90.4a9.475,9.475,0,0,1-1.328.08H56.32V88.848a7.867,7.867,0,0,1,.064-1.216h-1.04a7.868,7.868,0,0,1,.064,1.216V90.48H52.816A7.438,7.438,0,0,1,51.5,90.4v.976a7.922,7.922,0,0,1,1.3-.08Zm-.592-1.52a14.442,14.442,0,0,0-1.488-2.016l-.768.4a7.5,7.5,0,0,1,1.52,2.064Zm4.608-2.064a7.576,7.576,0,0,1-1.568,2.08l.656.464a10.708,10.708,0,0,0,1.7-2.064Zm-9.216.016a10.234,10.234,0,0,1,.08,1.6v5.936a11.852,11.852,0,0,1-.1,1.888H50.8V96.4H61.12v.752h1.1a11.5,11.5,0,0,1-.1-1.888V89.328a9.985,9.985,0,0,1,.08-1.6H61.056a14.358,14.358,0,0,1,.064,1.584V95.52H50.8V89.312a13.637,13.637,0,0,1,.064-1.584ZM77.056,85.5l.592-.352a11.754,11.754,0,0,0-1.728-2.56l-.8.416a11.126,11.126,0,0,1,1.5,2.176c-.4.016-.608.016-.944.016H67.952a11.344,11.344,0,0,1-1.808-.1v1.28a11.813,11.813,0,0,1,1.792-.1H76.08a12,12,0,0,1-8.656,9.328,3.166,3.166,0,0,1,.784,1.1,14.71,14.71,0,0,0,5.024-3.008,13.293,13.293,0,0,0,3.92-6.64,2.934,2.934,0,0,1,.336-.992Zm.144-3.04a11.864,11.864,0,0,1,1.648,2.512l.816-.48a13.936,13.936,0,0,0-1.68-2.464Zm6.384,2.656a10.662,10.662,0,0,1,1.664-.08h5.376a10.662,10.662,0,0,1,1.664.08V83.888a7.342,7.342,0,0,1-1.68.112H85.264a7.342,7.342,0,0,1-1.68-.112ZM82.208,88.8a14.728,14.728,0,0,1,1.856-.08h8.352a9.858,9.858,0,0,1-2.592,4.192,10.983,10.983,0,0,1-4.752,2.432,3.48,3.48,0,0,1,.688,1.1c4.144-1.392,6.352-3.44,7.712-7.168a4.641,4.641,0,0,1,.448-1.008l-.592-.688a2.7,2.7,0,0,1-1.04.112H84.08a11.512,11.512,0,0,1-1.872-.1Zm17.36-4.128a16.826,16.826,0,0,1,3.936,2.112l.656-1.072a23.659,23.659,0,0,0-3.968-2.016ZM98.3,88.5a17.764,17.764,0,0,1,4.08,2.192l.624-1.072a24.407,24.407,0,0,0-4.064-2.1Zm.544,7.664a3.755,3.755,0,0,1,.624-.176c.32-.064.608-.128.864-.176a18.276,18.276,0,0,0,4.048-1.376,12.542,12.542,0,0,0,6.16-6.9,4.824,4.824,0,0,1-.992-.848,11.914,11.914,0,0,1-1.92,3.584,10.538,10.538,0,0,1-4.8,3.568,13.837,13.837,0,0,1-4.3.992ZM120,88.608a1.312,1.312,0,1,0,1.312,1.312A1.318,1.318,0,0,0,120,88.608Zm14.784-5.824a8.738,8.738,0,0,1-.944,2.192,13.922,13.922,0,0,1-4.08,4.56,2.935,2.935,0,0,1,.928.768,15.892,15.892,0,0,0,3.808-4.256l5.6-.08a19.111,19.111,0,0,1-2.224,4.64,22.857,22.857,0,0,0-3.536-2.48l-.736.816a20.126,20.126,0,0,1,3.584,2.592,11.226,11.226,0,0,1-2.768,2.528,14.423,14.423,0,0,1-3.312,1.744,2.843,2.843,0,0,1,.784.992,17.846,17.846,0,0,0,5.056-3.3,18.206,18.206,0,0,0,4.176-6.88,3.591,3.591,0,0,1,.464-1.056l-.72-.72a2.772,2.772,0,0,1-.928.16c-4.72.048-4.72.048-4.944.08a8.142,8.142,0,0,0,.5-.88,5.291,5.291,0,0,1,.56-1.056Zm18.72,6.224v.1l.064,5.888v.352a9.457,9.457,0,0,1-.064,1.264h1.3a14.527,14.527,0,0,1-.08-1.632l-.112-7.792h2.384a13.09,13.09,0,0,1,1.328.048V86.064a8.086,8.086,0,0,1-1.6.1h-2.112l-.032-1.6v-.384a6.145,6.145,0,0,1,.064-.88h-1.28a7.626,7.626,0,0,1,.08,1.3l.016,1.568-5.824.032a9.042,9.042,0,0,1-1.808-.112v1.2a12.573,12.573,0,0,1,1.776-.064l5.248-.032a15.423,15.423,0,0,1-2.3,2.912,18.163,18.163,0,0,1-5.424,3.824,2.579,2.579,0,0,1,.8.96,24.613,24.613,0,0,0,2.64-1.648,18.673,18.673,0,0,0,3.792-3.536,9.965,9.965,0,0,0,1.2-1.792c-.032.688-.048.928-.048,1.04Zm10.16-5.2a7.117,7.117,0,0,1,.064,1.136,21.828,21.828,0,0,1-.72,6.864,7.915,7.915,0,0,1-2.7,3.68,2.956,2.956,0,0,1,.96.864,9.781,9.781,0,0,0,2.768-3.952c.608-1.616.736-2.8.864-7.136a7.969,7.969,0,0,1,.1-1.376Zm3.984-.112a6.419,6.419,0,0,1,.064,1.424l-.1,9.36a2.7,2.7,0,0,1-.112,1.088l.64.736a2.666,2.666,0,0,1,.368-.176c.224-.08.224-.08.512-.192a10.546,10.546,0,0,0,2.288-1.168,9.091,9.091,0,0,0,3.216-4.112,4.474,4.474,0,0,1-.9-.928,7.912,7.912,0,0,1-1.888,3.2,7.394,7.394,0,0,1-2.976,1.856l.1-9.664a6.2,6.2,0,0,1,.1-1.408Zm15.712,4.912a1.312,1.312,0,1,0,1.312,1.312A1.318,1.318,0,0,0,183.36,88.608Zm12.832-4.24a1.767,1.767,0,0,1,.016.256,12.692,12.692,0,0,1-.16,1.5A18.529,18.529,0,0,1,194.4,91.68a10.285,10.285,0,0,1-2.32,3.168,3.5,3.5,0,0,1,1.024.832c2.256-2.352,3.552-5.424,4.224-9.984a5.809,5.809,0,0,1,.208-1.088Zm4.592.24a6.954,6.954,0,0,1,.208,1.056c.624,4.1,2.224,7.792,4.352,10.048a3.46,3.46,0,0,1,.992-.9,14.121,14.121,0,0,1-3.632-6.608,19.336,19.336,0,0,1-.736-3.84Zm2.08-.688a12.07,12.07,0,0,1,1.584,2.576l.816-.464a11.855,11.855,0,0,0-1.6-2.512Zm1.84-.816a12.538,12.538,0,0,1,1.584,2.544l.8-.432a12.263,12.263,0,0,0-1.6-2.528Zm17.072,12.032a39.79,39.79,0,0,0-5.328-4.8,19.348,19.348,0,0,0,2.64-4.48,2.987,2.987,0,0,1,.448-.784l-.672-.688a2.984,2.984,0,0,1-1.024.128l-5.712.064h-.416a7.52,7.52,0,0,1-1.264-.08l.032,1.3a10.766,10.766,0,0,1,1.648-.128l5.344-.08a2.718,2.718,0,0,0,.384-.016.339.339,0,0,1-.048.112c-.032.08-.048.1-.08.192a17.342,17.342,0,0,1-5.712,7.216,12.88,12.88,0,0,1-3.248,1.84,3.561,3.561,0,0,1,.784,1.056,20.6,20.6,0,0,0,3.136-1.92,17.369,17.369,0,0,0,3.056-2.864,29.759,29.759,0,0,1,5.12,4.944Zm8.368-12.352a8.738,8.738,0,0,1-.944,2.192,13.922,13.922,0,0,1-4.08,4.56,2.935,2.935,0,0,1,.928.768,15.892,15.892,0,0,0,3.808-4.256l5.6-.08a19.111,19.111,0,0,1-2.224,4.64,22.857,22.857,0,0,0-3.536-2.48l-.736.816a20.126,20.126,0,0,1,3.584,2.592,11.226,11.226,0,0,1-2.768,2.528,14.423,14.423,0,0,1-3.312,1.744,2.843,2.843,0,0,1,.784.992,17.846,17.846,0,0,0,5.056-3.3,18.206,18.206,0,0,0,4.176-6.88,3.591,3.591,0,0,1,.464-1.056l-.72-.72a2.772,2.772,0,0,1-.928.16c-4.72.048-4.72.048-4.944.08a8.142,8.142,0,0,0,.5-.88,5.291,5.291,0,0,1,.56-1.056Zm18.72,6.224v.1l.064,5.888v.352a9.457,9.457,0,0,1-.064,1.264h1.3a14.527,14.527,0,0,1-.08-1.632l-.112-7.792h2.384a13.089,13.089,0,0,1,1.328.048V86.064a8.086,8.086,0,0,1-1.6.1h-2.112l-.032-1.6v-.384A6.145,6.145,0,0,1,250,83.3h-1.28a7.626,7.626,0,0,1,.08,1.3l.016,1.568-5.824.032a9.042,9.042,0,0,1-1.808-.112v1.2a12.573,12.573,0,0,1,1.776-.064l5.248-.032a15.424,15.424,0,0,1-2.3,2.912,18.163,18.163,0,0,1-5.424,3.824,2.579,2.579,0,0,1,.8.96,24.613,24.613,0,0,0,2.64-1.648,18.673,18.673,0,0,0,3.792-3.536,9.965,9.965,0,0,0,1.2-1.792c-.032.688-.048.928-.048,1.04Zm10.16-5.2a7.116,7.116,0,0,1,.064,1.136,21.828,21.828,0,0,1-.72,6.864,7.915,7.915,0,0,1-2.7,3.68,2.956,2.956,0,0,1,.96.864,9.781,9.781,0,0,0,2.768-3.952c.608-1.616.736-2.8.864-7.136a7.97,7.97,0,0,1,.1-1.376Zm3.984-.112a6.42,6.42,0,0,1,.064,1.424l-.1,9.36a2.7,2.7,0,0,1-.112,1.088l.64.736a2.665,2.665,0,0,1,.368-.176c.224-.08.224-.08.512-.192a10.547,10.547,0,0,0,2.288-1.168,9.091,9.091,0,0,0,3.216-4.112,4.473,4.473,0,0,1-.9-.928,7.912,7.912,0,0,1-1.888,3.2,7.4,7.4,0,0,1-2.976,1.856l.1-9.664a6.2,6.2,0,0,1,.1-1.408ZM7.312,134.032h-3.9a10.286,10.286,0,0,1-1.856-.1v1.216a12.437,12.437,0,0,1,1.84-.08h3.92v7.984a8.9,8.9,0,0,1-.1,1.68H8.528a9.66,9.66,0,0,1-.08-1.7v-7.968h4.064a12.437,12.437,0,0,1,1.84.08v-1.216a10.494,10.494,0,0,1-1.872.1H8.448v-1.04a9.219,9.219,0,0,1,.08-1.664H7.216a7.146,7.146,0,0,1,.1,1.632Zm-3.456,2.512a8.169,8.169,0,0,1-.56,2.176,10.208,10.208,0,0,1-2.352,3.936A3.547,3.547,0,0,1,2,143.344a14.289,14.289,0,0,0,2.8-5.52l.08-.352.1-.32a1.914,1.914,0,0,1,.1-.272Zm6.832.32c.112.256.256.608.4,1.04a19.19,19.19,0,0,0,2.784,5.5,3.457,3.457,0,0,1,1.008-.752,14.216,14.216,0,0,1-2.48-4.288,11.423,11.423,0,0,1-.592-1.808Zm.784-5.824a12.862,12.862,0,0,1,1.616,2.464l.816-.464a13.044,13.044,0,0,0-1.632-2.416Zm2-.56a11.8,11.8,0,0,1,1.632,2.512l.8-.464a13.478,13.478,0,0,0-1.648-2.5Zm15.168,6.544a12.573,12.573,0,0,1,1.84.08V135.92a10.5,10.5,0,0,1-1.856.1h-9.36a10.614,10.614,0,0,1-1.856-.1V137.1a12.573,12.573,0,0,1,1.84-.08h4.336c-.128,3.648-1.376,5.36-4.688,6.464a2.8,2.8,0,0,1,.752,1.04c3.616-1.408,4.96-3.36,5.152-7.5Zm-9.616-3.856a11.148,11.148,0,0,1,1.824-.08h4.864q1.512.024,1.824.048v-1.152a14.449,14.449,0,0,1-1.84.08H20.864a8.308,8.308,0,0,1-1.84-.112Zm8.576-2.176a12.191,12.191,0,0,1,1.552,2.592l.816-.448a12.451,12.451,0,0,0-1.568-2.528Zm1.968-.592a12.531,12.531,0,0,1,1.552,2.576l.816-.448A13.317,13.317,0,0,0,30.368,130Zm12.784,3.744a5.212,5.212,0,0,1-.9,1.04,17.593,17.593,0,0,1-4.576,3.328,15.789,15.789,0,0,1-3.712,1.408,2.954,2.954,0,0,1,.56.96,18.643,18.643,0,0,0,4.912-2.208v4.752a9.188,9.188,0,0,1-.064,1.392h1.248a8.551,8.551,0,0,1-.08-1.408V138a26.741,26.741,0,0,0,3.216-2.816,2.042,2.042,0,0,1,.384-.368Zm7.936-1.472a16.826,16.826,0,0,1,3.936,2.112l.656-1.072a23.658,23.658,0,0,0-3.968-2.016ZM49.024,136.5a17.764,17.764,0,0,1,4.08,2.192l.624-1.072a24.406,24.406,0,0,0-4.064-2.1Zm.544,7.664a3.756,3.756,0,0,1,.624-.176c.32-.064.608-.128.864-.176a18.276,18.276,0,0,0,4.048-1.376,12.542,12.542,0,0,0,6.16-6.9,4.824,4.824,0,0,1-.992-.848,11.914,11.914,0,0,1-1.92,3.584,10.538,10.538,0,0,1-4.8,3.568,13.837,13.837,0,0,1-4.3.992Zm18.592-7.472-1.536.256a7.716,7.716,0,0,1-1.488.144l.224,1.136a6.448,6.448,0,0,1,1.392-.32l1.584-.272,1.12,6.064a5.982,5.982,0,0,1,.144,1.28l1.232-.224a5.191,5.191,0,0,1-.3-1.264l-1.152-6.016,4.768-.784a4.173,4.173,0,0,0,.416-.1,1.011,1.011,0,0,0-.064.144,6.562,6.562,0,0,1-2.9,3.072,2.833,2.833,0,0,1,.864.688,8.194,8.194,0,0,0,3.1-3.76,3.062,3.062,0,0,1,.368-.7l-.672-.592a2.265,2.265,0,0,1-.688.192l-5.376.88-.256-1.376a5.23,5.23,0,0,1-.176-1.2l-1.168.176a4.431,4.431,0,0,1,.3,1.168Zm12.416-3.136a17.667,17.667,0,0,1,3.808,3.136l.832-.992a20.843,20.843,0,0,0-3.856-3.008Zm.112,10.4a8.41,8.41,0,0,1,.96-.256,16.131,16.131,0,0,0,5.968-2.384A14.033,14.033,0,0,0,92.5,135.2a3.2,3.2,0,0,1-.976-.944,12.09,12.09,0,0,1-6.528,7.12,13.927,13.927,0,0,1-4.656,1.232Zm25.28-11.136H98.1a11.343,11.343,0,0,1-1.808-.1V134a11.814,11.814,0,0,1,1.792-.1h8.144a12,12,0,0,1-8.656,9.328,3.166,3.166,0,0,1,.784,1.1,14.848,14.848,0,0,0,5.824-3.792,14.289,14.289,0,0,0,3.264-6.368l.032-.1a1.886,1.886,0,0,0,.56.08,1.816,1.816,0,1,0-1.808-1.808,1.7,1.7,0,0,0,.064.464Zm2.08-1.616a1.144,1.144,0,1,1-1.152,1.136A1.14,1.14,0,0,1,108.048,131.2Zm2.624,7.312a17.482,17.482,0,0,1,1.984-.064h9.28a18.307,18.307,0,0,1,1.952.064v-1.3a12.62,12.62,0,0,1-1.936.08h-9.3a11.318,11.318,0,0,1-1.984-.1Zm22.608-1.9a1.312,1.312,0,1,0,1.312,1.312A1.318,1.318,0,0,0,133.28,136.608Zm11.568-3.936a16.826,16.826,0,0,1,3.936,2.112l.656-1.072a23.658,23.658,0,0,0-3.968-2.016Zm-1.264,3.824a17.764,17.764,0,0,1,4.08,2.192l.624-1.072a24.406,24.406,0,0,0-4.064-2.1Zm.544,7.664a3.756,3.756,0,0,1,.624-.176c.32-.064.608-.128.864-.176a18.276,18.276,0,0,0,4.048-1.376,12.542,12.542,0,0,0,6.16-6.9,4.824,4.824,0,0,1-.992-.848,11.914,11.914,0,0,1-1.92,3.584,10.538,10.538,0,0,1-4.8,3.568,13.837,13.837,0,0,1-4.3.992Zm18.592-7.472-1.536.256a7.717,7.717,0,0,1-1.488.144l.224,1.136a6.448,6.448,0,0,1,1.392-.32l1.584-.272,1.12,6.064a5.981,5.981,0,0,1,.144,1.28l1.232-.224a5.191,5.191,0,0,1-.3-1.264l-1.152-6.016,4.768-.784a4.173,4.173,0,0,0,.416-.1,1.011,1.011,0,0,0-.064.144,6.562,6.562,0,0,1-2.9,3.072,2.833,2.833,0,0,1,.864.688,8.194,8.194,0,0,0,3.1-3.76,3.063,3.063,0,0,1,.368-.7l-.672-.592a2.265,2.265,0,0,1-.688.192l-5.376.88-.256-1.376a5.229,5.229,0,0,1-.176-1.2l-1.168.176a4.432,4.432,0,0,1,.3,1.168Zm12.416-3.136a17.668,17.668,0,0,1,3.808,3.136l.832-.992a20.843,20.843,0,0,0-3.856-3.008Zm.112,10.4a8.41,8.41,0,0,1,.96-.256,16.131,16.131,0,0,0,5.968-2.384,14.033,14.033,0,0,0,4.88-6.112,3.2,3.2,0,0,1-.976-.944,12.09,12.09,0,0,1-6.528,7.12,13.927,13.927,0,0,1-4.656,1.232Zm25.28-11.136h-7.872a11.343,11.343,0,0,1-1.808-.1V134a11.815,11.815,0,0,1,1.792-.1h8.144a12,12,0,0,1-8.656,9.328,3.166,3.166,0,0,1,.784,1.1,14.848,14.848,0,0,0,5.824-3.792A14.289,14.289,0,0,0,202,134.176l.032-.1a1.886,1.886,0,0,0,.56.08,1.816,1.816,0,1,0-1.808-1.808,1.7,1.7,0,0,0,.064.464Zm2.08-1.616a1.144,1.144,0,1,1-1.152,1.136A1.14,1.14,0,0,1,202.608,131.2Zm2.624,7.312a17.482,17.482,0,0,1,1.984-.064h9.28a18.307,18.307,0,0,1,1.952.064v-1.3a12.62,12.62,0,0,1-1.936.08h-9.3a11.318,11.318,0,0,1-1.984-.1Zm22.608-1.9a1.312,1.312,0,1,0,1.312,1.312A1.318,1.318,0,0,0,227.84,136.608Zm11.76-4.96a9.409,9.409,0,0,1,.064,1.344v4.272a9.7,9.7,0,0,1-.064,1.344h1.328a8.473,8.473,0,0,1-.064-1.328v-4.3a8.741,8.741,0,0,1,.064-1.328Zm7.072,0a8.9,8.9,0,0,1,.064,1.408v1.808a19.894,19.894,0,0,1-.224,4.08,4.773,4.773,0,0,1-2.56,3.376,9.316,9.316,0,0,1-3.04,1.088,3.06,3.06,0,0,1,.672,1.1,12.6,12.6,0,0,0,2.912-1.152,6.08,6.08,0,0,0,3.04-3.552,18.032,18.032,0,0,0,.4-4.88V133.04a7.142,7.142,0,0,1,.08-1.392Zm7.664,1.9a17.667,17.667,0,0,1,3.808,3.136l.832-.992a20.842,20.842,0,0,0-3.856-3.008Zm.112,10.4a8.41,8.41,0,0,1,.96-.256,16.131,16.131,0,0,0,5.968-2.384,14.033,14.033,0,0,0,4.88-6.112,3.2,3.2,0,0,1-.976-.944,12.09,12.09,0,0,1-6.528,7.12,13.927,13.927,0,0,1-4.656,1.232Zm27.168-.816a39.792,39.792,0,0,0-5.328-4.8,19.349,19.349,0,0,0,2.64-4.48,2.986,2.986,0,0,1,.448-.784l-.672-.688a2.983,2.983,0,0,1-1.024.128l-5.712.064h-.416a7.52,7.52,0,0,1-1.264-.08l.032,1.3a10.767,10.767,0,0,1,1.648-.128l5.344-.08a2.717,2.717,0,0,0,.384-.016.338.338,0,0,1-.048.112c-.032.08-.048.1-.08.192a17.342,17.342,0,0,1-5.712,7.216,12.879,12.879,0,0,1-3.248,1.84,3.56,3.56,0,0,1,.784,1.056,20.6,20.6,0,0,0,3.136-1.92,17.368,17.368,0,0,0,3.056-2.864,29.759,29.759,0,0,1,5.12,4.944ZM4.256,180.4H2.544a8.279,8.279,0,0,1-1.44-.08v1.024a8.623,8.623,0,0,1,1.44-.08H4.256V182.8H3.2a11.849,11.849,0,0,1-1.488-.064,13.351,13.351,0,0,1,.064,1.5v2.448a13.118,13.118,0,0,1-.064,1.52,13.23,13.23,0,0,1,1.488-.064H4.24v1.5H2.4a8.39,8.39,0,0,1-1.44-.08v1.056a8.98,8.98,0,0,1,1.44-.08H4.24v1.232a6.606,6.606,0,0,1-.1,1.456H5.3a5.958,5.958,0,0,1-.128-1.456v-1.232H6.544a8.434,8.434,0,0,1,1.408.08v-1.056a8.2,8.2,0,0,1-1.408.08H5.168v-1.5H6.3a11.25,11.25,0,0,1,1.472.064,12.759,12.759,0,0,1-.048-1.5V184.16a8.773,8.773,0,0,1,.048-1.424A10.34,10.34,0,0,1,6.3,182.8H5.184v-1.536H6.768a9.007,9.007,0,0,1,1.424.08V180.32a8.3,8.3,0,0,1-1.424.08H5.184v-.368A6.032,6.032,0,0,1,5.3,178.7H4.144a5.489,5.489,0,0,1,.112,1.328Zm-1.568,3.232H6.832v1.392H2.688Zm-.016,2.224H6.816v1.456H2.672Zm10.9,1.888V191.3c0,.56-.08.624-.784.624a9.92,9.92,0,0,1-1.888-.208,4.237,4.237,0,0,1,.256,1.12,15.266,15.266,0,0,0,1.568.08c1.472,0,1.824-.288,1.824-1.52V180.88a13.655,13.655,0,0,1,.064-1.648,12.942,12.942,0,0,1-1.52.064H10.672a13.421,13.421,0,0,1-1.536-.064A16.725,16.725,0,0,1,9.2,181.12a68.8,68.8,0,0,1-.24,6.944,7.257,7.257,0,0,1-1.792,4.448,3.553,3.553,0,0,1,.848.672A7.624,7.624,0,0,0,9.5,190.336a12.941,12.941,0,0,0,.464-2.592Zm-3.536-.88a28.655,28.655,0,0,0,.128-2.9h3.408v2.9Zm.144-3.792v-2.88h3.392v2.88Zm11.216,2.048a24.279,24.279,0,0,1,3.776,2.672,15.04,15.04,0,0,1-1.888,1.792,18.035,18.035,0,0,1-4.96,2.72c.064.08.112.128.144.176.128.16.208.256.24.3a2.633,2.633,0,0,1,.272.5,19.022,19.022,0,0,0,5.712-3.52,17.03,17.03,0,0,0,3.984-5.344,17.174,17.174,0,0,0,1.072-2.384,1.709,1.709,0,0,1,.176-.416l-.56-.64a8.561,8.561,0,0,1-1.36.064H23.2c.256-.448.464-.832.7-1.28a6.757,6.757,0,0,1,.432-.8l-1.2-.368a7.135,7.135,0,0,1-.88,1.968,15.229,15.229,0,0,1-4.736,5.184,3.307,3.307,0,0,1,.768.88,18.55,18.55,0,0,0,4.352-4.656h5.952a19.076,19.076,0,0,1-2.72,5.008,34.418,34.418,0,0,0-3.76-2.592Zm17.5,3.024a8.168,8.168,0,0,0,1.936,2.336,13.007,13.007,0,0,0,5.68,2.736,4.222,4.222,0,0,1,.576-1.04,12.6,12.6,0,0,1-4.352-1.52,25.781,25.781,0,0,0,3.136-2.48l-.912-.608a14.19,14.19,0,0,1-3.056,2.576,6.678,6.678,0,0,1-1.968-2h2.928c.672,0,1.1.016,1.488.048-.032-.368-.048-.656-.048-1.3v-2.752c0-.512,0-.816.032-1.168a21.373,21.373,0,0,0,2.432,1.2,3.473,3.473,0,0,1,.608-1.024,18.008,18.008,0,0,1-4.1-1.936,12.552,12.552,0,0,1-2.88-2.5H39.312a14.6,14.6,0,0,1-6.736,4.432,2.887,2.887,0,0,1,.592.976,19.69,19.69,0,0,0,2.288-1.088c.032.32.048.8.048,1.328v7.488a12.6,12.6,0,0,1-2.192.256l.272,1.12c.272-.064.416-.1.592-.128a59.678,59.678,0,0,0,6.176-1.44l.016-.928a35.468,35.468,0,0,1-3.856.944v-3.536Zm1.408-5.328v-.544a6.2,6.2,0,0,1,.08-1.216H39.248a5.682,5.682,0,0,1,.1,1.216v.544H36.976c-.48,0-.688,0-1.1-.016a14.892,14.892,0,0,0,4-3.3,15.305,15.305,0,0,0,4.144,3.28c-.432.032-.656.032-1.216.032Zm-3.792.848h6.8v1.328h-6.8Zm0,2.176h6.8V187.3h-6.8ZM57.136,187.9a9.074,9.074,0,0,1-4.048,3.248,2.324,2.324,0,0,1,.688.752,11.028,11.028,0,0,0,4.4-4H59.76a7.8,7.8,0,0,1-1.312,2.1,10.156,10.156,0,0,1-3.136,2.432,2.732,2.732,0,0,1,.736.752,12.993,12.993,0,0,0,1.3-.9,16.331,16.331,0,0,0,1.968-1.968,9.264,9.264,0,0,0,1.424-2.416h1.072a19.455,19.455,0,0,1-.352,3.072c-.208.96-.32,1.088-.96,1.088a11.051,11.051,0,0,1-1.9-.176,2.711,2.711,0,0,1,.32,1.04c.5.032,1.024.064,1.392.064,1.088,0,1.488-.16,1.776-.736a15.966,15.966,0,0,0,.7-4.272,7.259,7.259,0,0,1,.08-.944,12.485,12.485,0,0,1-1.568.064H56a7.832,7.832,0,0,0,.736-1.168h4.9a13.635,13.635,0,0,1,1.584.064v-1.008a9.089,9.089,0,0,1-1.584.1H54.8a7.879,7.879,0,0,1-1.472-.1v1.04a7.833,7.833,0,0,1,1.44-.1h.976a7.681,7.681,0,0,1-3.712,3.376,2.844,2.844,0,0,1,.656.72,10.259,10.259,0,0,0,2.688-2.128Zm-6.256-5.088h-.656a8.942,8.942,0,0,1-1.392-.08v1.056a11.534,11.534,0,0,1,1.36-.08h.688v4.576a7.972,7.972,0,0,1-2.064.784l.3,1.12c.144-.08.592-.3.848-.416a29.488,29.488,0,0,0,3.328-1.808l-.064-.96a13.832,13.832,0,0,1-1.36.816v-4.112h.384a12.5,12.5,0,0,1,1.328.064v-1.024a9.442,9.442,0,0,1-1.328.064h-.384v-2.208a10.911,10.911,0,0,1,.1-1.776H50.784a12.676,12.676,0,0,1,.1,1.76Zm9.456,1.216c.624,0,1.12.016,1.472.048a9.419,9.419,0,0,1-.064-1.424v-2a11.689,11.689,0,0,1,.064-1.488,11.718,11.718,0,0,1-1.664.08H55.968a10.33,10.33,0,0,1-1.536-.08,10.767,10.767,0,0,1,.064,1.408v2.08a12.328,12.328,0,0,1-.064,1.44,11.285,11.285,0,0,1,1.456-.064Zm-4.9-3.952H60.8v1.168H55.44Zm0,1.952H60.8v1.216H55.44Zm20.912,2.48v6.88a11.184,11.184,0,0,1-.1,1.664h1.2a8.759,8.759,0,0,1-.1-1.632v-6.912h.56a9.273,9.273,0,0,1,1.44.1v-1.136a9.508,9.508,0,0,1-1.488.1h-4.16v-2.5a24.174,24.174,0,0,0,4.768-1.184c.32-.1.416-.128.656-.192l-.688-.928a15.621,15.621,0,0,1-5.808,1.472A17.552,17.552,0,0,1,72.7,182.1c0,3.5-.224,5.536-.768,7.056a7.307,7.307,0,0,1-2.192,3.152,3.077,3.077,0,0,1,.816.768,8.926,8.926,0,0,0,2.32-3.5,17,17,0,0,0,.8-5.056Zm-11.232-3.9a10.175,10.175,0,0,1,1.5-.1H70.48a8.7,8.7,0,0,1,1.472.08V179.5a8.682,8.682,0,0,1-1.488.08H66.656a8.442,8.442,0,0,1-1.536-.1Zm6.128,2.784c0-.464.016-.88.048-1.2a12.816,12.816,0,0,1-1.5.064H67.568a15.987,15.987,0,0,1-1.664-.064c.048.512.064,1.008.064,2.032,0,4.7-.272,6.288-1.424,8.1a2.753,2.753,0,0,1,.864.656,11.333,11.333,0,0,0,1.488-5.792h2.96l.624.016h.352a3.481,3.481,0,0,1,.464.032,11.483,11.483,0,0,1-.048-1.168Zm-4.32,2.912c.016-.608.016-.656.016-1.456v-1.712h3.328V186.3Zm21.856-4.7H87.2v1.584h1.584Zm0,8.64v-1.584H87.2v1.584Zm12.544-9.216a9.672,9.672,0,0,1,1.392-.1h.864v9.264a10.093,10.093,0,0,1-.128,1.808h1.52a10.208,10.208,0,0,1-.128-1.808v-7.776a26.252,26.252,0,0,1,.144-2.656,9.109,9.109,0,0,1-1.328.08h-1.008a7.747,7.747,0,0,1-1.328-.08Zm20.832,5.232c.16-.256.224-.368.32-.528.272-.48.336-.608.352-.624l-1.072-.24a4.408,4.408,0,0,1-.624,1.392h-1.072c-.736,0-1.088-.016-1.552-.048a13.476,13.476,0,0,1,.064,1.52v3.84a9.789,9.789,0,0,1-.1,1.568h1.056v-.672H125.2v.72h1.088a13.229,13.229,0,0,1-.1-1.68V187.76a12.325,12.325,0,0,1,.064-1.568,10.271,10.271,0,0,1-1.52.064Zm-2.624.864H125.2v1.728h-5.664Zm0,2.592H125.2v1.872h-5.664Zm-1.152-5.424a6.852,6.852,0,0,1-1.024.128l.24.976c.256-.064.448-.112.752-.176a29.754,29.754,0,0,0,3.68-1.024v-.864a21.964,21.964,0,0,1-2.736.784v-2.528h1.456a8.207,8.207,0,0,1,1.28.08v-1.056a5.373,5.373,0,0,1-1.28.1H119.3v-.464a10.826,10.826,0,0,1,.1-1.6h-1.1a11.218,11.218,0,0,1,.1,1.616Zm5.12-2.256a17.051,17.051,0,0,0,2.864-1.376c.192-.112.448-.256.576-.32l-.64-.816a8.988,8.988,0,0,1-2.8,1.616v-.928a10.654,10.654,0,0,1,.1-1.568h-1.1a13.1,13.1,0,0,1,.1,1.616v3.616c0,.912.336,1.056,2.416,1.056,2,0,2.192-.192,2.24-2.24a3.089,3.089,0,0,1-.9-.336c-.016,1.232-.048,1.456-.24,1.584a2.9,2.9,0,0,1-1.248.128c-1.184,0-1.36-.064-1.36-.48Zm-10,9.008a16.55,16.55,0,0,1-.1,2.112h1.152a17.326,17.326,0,0,1-.08-2.1v-11.1h2.208a20.622,20.622,0,0,1-1.744,4.1,5.643,5.643,0,0,1,1.52,2.32,4.584,4.584,0,0,1,.224,1.376c0,.432-.08.72-.256.848a1.3,1.3,0,0,1-.736.144,7.106,7.106,0,0,1-.88-.08,2.174,2.174,0,0,1,.192.976c.368.016.4.016.464.016a3.381,3.381,0,0,0,1.456-.208,1.808,1.808,0,0,0,.7-1.68,5,5,0,0,0-.368-1.808,5.912,5.912,0,0,0-1.28-2.032,26.888,26.888,0,0,0,1.648-3.728,3.6,3.6,0,0,1,.256-.608l-.56-.592a5.406,5.406,0,0,1-1.04.064H114.7a7.749,7.749,0,0,1-1.248-.048c.016.208.016.208.048,1.376Zm21.392-2.9a8.169,8.169,0,0,0,1.936,2.336,13.007,13.007,0,0,0,5.68,2.736,4.222,4.222,0,0,1,.576-1.04,12.6,12.6,0,0,1-4.352-1.52,25.779,25.779,0,0,0,3.136-2.48l-.912-.608a14.19,14.19,0,0,1-3.056,2.576,6.678,6.678,0,0,1-1.968-2h2.928c.672,0,1.1.016,1.488.048-.032-.368-.048-.656-.048-1.3v-2.752c0-.512,0-.816.032-1.168a21.373,21.373,0,0,0,2.432,1.2,3.472,3.472,0,0,1,.608-1.024,18.008,18.008,0,0,1-4.1-1.936,12.552,12.552,0,0,1-2.88-2.5h-1.088a14.6,14.6,0,0,1-6.736,4.432,2.887,2.887,0,0,1,.592.976,19.69,19.69,0,0,0,2.288-1.088c.032.32.048.8.048,1.328v7.488a12.594,12.594,0,0,1-2.192.256l.272,1.12c.272-.064.416-.1.592-.128a59.679,59.679,0,0,0,6.176-1.44l.016-.928a35.468,35.468,0,0,1-3.856.944v-3.536Zm1.408-5.328v-.544a6.2,6.2,0,0,1,.08-1.216h-1.136a5.682,5.682,0,0,1,.1,1.216v.544h-2.368c-.48,0-.688,0-1.1-.016a14.892,14.892,0,0,0,4-3.3,15.306,15.306,0,0,0,4.144,3.28c-.432.032-.656.032-1.216.032Zm-3.792.848h6.8v1.328h-6.8Zm0,2.176h6.8V187.3h-6.8Zm18.848-4.384h-1.6a17.411,17.411,0,0,0-1.824-2.5l-.864.464a10.182,10.182,0,0,1,1.6,2.032H147.04a14.276,14.276,0,0,1-1.68-.064,10.2,10.2,0,0,1,.064,1.28v1.28a7.452,7.452,0,0,1-.064.976h1.024V182.32h11.328v2.64h1.024a5.7,5.7,0,0,1-.064-.912v-1.2a12.627,12.627,0,0,1,.064-1.456,16.225,16.225,0,0,1-1.776.064h-1.536a17.3,17.3,0,0,0,1.456-2.08l-.992-.512a11.314,11.314,0,0,1-1.568,2.592h-1.952v-1.584a8.988,8.988,0,0,1,.08-1.184H151.28a9.81,9.81,0,0,1,.08,1.184Zm0,5.856v1.5h-3.616a8.954,8.954,0,0,1-1.456-.08v1.072a8.956,8.956,0,0,1,1.456-.08h3.616v2.048H146.7a11.614,11.614,0,0,1-1.712-.1v1.12a11.539,11.539,0,0,1,1.712-.112h10.672a10.886,10.886,0,0,1,1.664.112v-1.12a11.484,11.484,0,0,1-1.664.1h-5.024v-2.048h3.984a8.86,8.86,0,0,1,1.44.08v-1.072a8.739,8.739,0,0,1-1.44.08h-3.984v-1.5h2.32a15.389,15.389,0,0,1,1.568.064,9.959,9.959,0,0,1-.048-1.344V184.9a12.015,12.015,0,0,1,.048-1.28,8.877,8.877,0,0,1-1.328.064h-5.76a11.065,11.065,0,0,1-1.36-.064c.032.32.048.7.048,1.248v1.168a11.8,11.8,0,0,1-.048,1.344,10.544,10.544,0,0,1,1.44-.064Zm-2.544-2.784h6.4v1.952h-6.4ZM5.328,229.024a9.672,9.672,0,0,1,1.392-.1h.864v9.264A10.093,10.093,0,0,1,7.456,240h1.52a10.208,10.208,0,0,1-.128-1.808v-7.776a26.252,26.252,0,0,1,.144-2.656,9.109,9.109,0,0,1-1.328.08H6.656a7.747,7.747,0,0,1-1.328-.08Zm16.544-.08h3.76a11.1,11.1,0,0,1,1.872.128v-1.36a10.51,10.51,0,0,1-1.872.128h-3.3a10.88,10.88,0,0,1-1.7-.08,6.4,6.4,0,0,1,.032.688c0,.3-.016.5-.048.96l-.352,3.616a12.351,12.351,0,0,1-.24,1.648l1.2.112a2.053,2.053,0,0,1,.736-.96,3.321,3.321,0,0,1,2.1-.672,2.69,2.69,0,0,1,2.8,2.928,2.856,2.856,0,0,1-2.992,3.056,2.976,2.976,0,0,1-2.272-.944,2.505,2.505,0,0,1-.512-.944l-1.312.4a4.676,4.676,0,0,0,1.008,1.488,4.267,4.267,0,0,0,3.056,1.1,3.991,3.991,0,0,0,4.32-4.224,3.775,3.775,0,0,0-1.072-2.832,4.015,4.015,0,0,0-2.88-1.088,3.889,3.889,0,0,0-2.8,1.1,4.606,4.606,0,0,0,.128-.72Zm18.912.656H39.2v1.584h1.584Zm0,8.64v-1.584H39.2v1.584Zm15.2,2a3.911,3.911,0,0,0,3.392-1.68,8.344,8.344,0,0,0,1.12-4.624,11.014,11.014,0,0,0-.608-3.712,4.033,4.033,0,0,0-.96-1.472,4.286,4.286,0,0,0-6.512.832,9.354,9.354,0,0,0-.928,4.352,11.055,11.055,0,0,0,.608,3.7,4.013,4.013,0,0,0,3.888,2.608Zm0-11.52a2.7,2.7,0,0,1,2.512,1.456,9.065,9.065,0,0,1,.72,3.728,9.924,9.924,0,0,1-.5,3.232,3.15,3.15,0,0,1-.752,1.248,2.666,2.666,0,0,1-1.968.752,2.725,2.725,0,0,1-2.48-1.392,8.841,8.841,0,0,1-.752-3.808,9.924,9.924,0,0,1,.5-3.232,3.267,3.267,0,0,1,.72-1.168A2.605,2.605,0,0,1,55.984,228.72Zm16,11.52a3.911,3.911,0,0,0,3.392-1.68,8.344,8.344,0,0,0,1.12-4.624,11.014,11.014,0,0,0-.608-3.712,4.033,4.033,0,0,0-.96-1.472,4.286,4.286,0,0,0-6.512.832,9.354,9.354,0,0,0-.928,4.352,11.055,11.055,0,0,0,.608,3.7,4.013,4.013,0,0,0,3.888,2.608Zm0-11.52a2.7,2.7,0,0,1,2.512,1.456,9.065,9.065,0,0,1,.72,3.728,9.924,9.924,0,0,1-.5,3.232,3.15,3.15,0,0,1-.752,1.248,2.666,2.666,0,0,1-1.968.752,2.725,2.725,0,0,1-2.48-1.392,8.841,8.841,0,0,1-.752-3.808,9.924,9.924,0,0,1,.5-3.232,3.267,3.267,0,0,1,.72-1.168A2.605,2.605,0,0,1,71.984,228.72Zm-66.656,48.3a9.672,9.672,0,0,1,1.392-.1h.864v9.264A10.093,10.093,0,0,1,7.456,288h1.52a10.208,10.208,0,0,1-.128-1.808v-7.776a26.252,26.252,0,0,1,.144-2.656,9.111,9.111,0,0,1-1.328.08H6.656a7.749,7.749,0,0,1-1.328-.08ZM23.984,288.24a3.911,3.911,0,0,0,3.392-1.68,8.344,8.344,0,0,0,1.12-4.624,11.014,11.014,0,0,0-.608-3.712,4.033,4.033,0,0,0-.96-1.472A3.942,3.942,0,0,0,24,275.616a3.931,3.931,0,0,0-3.584,1.968,9.354,9.354,0,0,0-.928,4.352,11.055,11.055,0,0,0,.608,3.7,4.013,4.013,0,0,0,3.888,2.608Zm0-11.52a2.7,2.7,0,0,1,2.512,1.456,9.065,9.065,0,0,1,.72,3.728,9.924,9.924,0,0,1-.5,3.232,3.15,3.15,0,0,1-.752,1.248,2.666,2.666,0,0,1-1.968.752,2.725,2.725,0,0,1-2.48-1.392,8.841,8.841,0,0,1-.752-3.808,9.924,9.924,0,0,1,.5-3.232,3.267,3.267,0,0,1,.72-1.168A2.6,2.6,0,0,1,23.984,276.72Zm16.8.88H39.2v1.584h1.584Zm0,8.64v-1.584H39.2v1.584Zm15.2,2a3.911,3.911,0,0,0,3.392-1.68,8.344,8.344,0,0,0,1.12-4.624,11.014,11.014,0,0,0-.608-3.712,4.033,4.033,0,0,0-.96-1.472,4.286,4.286,0,0,0-6.512.832,9.354,9.354,0,0,0-.928,4.352,11.055,11.055,0,0,0,.608,3.7,4.013,4.013,0,0,0,3.888,2.608Zm0-11.52a2.7,2.7,0,0,1,2.512,1.456,9.065,9.065,0,0,1,.72,3.728,9.924,9.924,0,0,1-.5,3.232,3.15,3.15,0,0,1-.752,1.248,2.666,2.666,0,0,1-1.968.752,2.725,2.725,0,0,1-2.48-1.392,8.841,8.841,0,0,1-.752-3.808,9.924,9.924,0,0,1,.5-3.232,3.267,3.267,0,0,1,.72-1.168A2.6,2.6,0,0,1,55.984,276.72Zm16,11.52a3.911,3.911,0,0,0,3.392-1.68,8.344,8.344,0,0,0,1.12-4.624,11.014,11.014,0,0,0-.608-3.712,4.033,4.033,0,0,0-.96-1.472,4.286,4.286,0,0,0-6.512.832,9.354,9.354,0,0,0-.928,4.352,11.055,11.055,0,0,0,.608,3.7,4.013,4.013,0,0,0,3.888,2.608Zm0-11.52a2.7,2.7,0,0,1,2.512,1.456,9.065,9.065,0,0,1,.72,3.728,9.924,9.924,0,0,1-.5,3.232,3.15,3.15,0,0,1-.752,1.248,2.666,2.666,0,0,1-1.968.752,2.725,2.725,0,0,1-2.48-1.392,8.841,8.841,0,0,1-.752-3.808,9.924,9.924,0,0,1,.5-3.232,3.267,3.267,0,0,1,.72-1.168A2.6,2.6,0,0,1,71.984,276.72ZM3.472,333.376a4.157,4.157,0,0,0,.816,1.552,4.516,4.516,0,0,0,3.584,1.312c2.672,0,4.336-1.344,4.336-3.5a2.931,2.931,0,0,0-1.072-2.416,3.432,3.432,0,0,0-1.968-.688,3.286,3.286,0,0,0,1.5-.576,2.811,2.811,0,0,0,1.12-2.336c0-1.92-1.472-3.136-3.792-3.136a4.156,4.156,0,0,0-3.184,1.168,3.647,3.647,0,0,0-.864,1.6l1.328.3a3,3,0,0,1,.512-1.152,2.514,2.514,0,0,1,2.128-.848c1.616,0,2.576.8,2.576,2.176a2.2,2.2,0,0,1-.64,1.552,3.2,3.2,0,0,1-2.336.736,8.988,8.988,0,0,1-1.184-.08v1.248a11.219,11.219,0,0,1,1.28-.08c2.128,0,3.264.864,3.264,2.448,0,1.52-1.168,2.48-3.024,2.48a3.528,3.528,0,0,1-2.064-.576,2.42,2.42,0,0,1-.976-1.5Zm15.3-5.472-.384.016a9.56,9.56,0,0,1-1.232-.08l.224,1.184a7.107,7.107,0,0,1,.752-.064c.5-.016.944-.032,1.328-.048,1.264-.032,2.08-.064,3.648-.16,2.72-.16,3.472-.224,5.664-.464.48.576.688.832,1.312,1.68l.9-.7a38.4,38.4,0,0,0-4.672-4.816l-.88.56a17.984,17.984,0,0,1,2.624,2.464c-2.7.256-3.056.272-7.328.4a35.917,35.917,0,0,0,2.8-4.384c.128-.24.128-.24.176-.336l-1.168-.432A19.586,19.586,0,0,1,19.5,327.9Zm1.2,9.184v-.976h8.064v.976h1.12a10.9,10.9,0,0,1-.1-1.488v-3.824a7.719,7.719,0,0,1,.08-1.28,9.009,9.009,0,0,1-1.264.064H20.144a8.865,8.865,0,0,1-1.264-.064,10.774,10.774,0,0,1,.08,1.28V335.6a12,12,0,0,1-.1,1.488Zm0-5.584h8.064v3.664H19.968Z" transform="translate(853 1500)" fill="#707070"/>
    <path id="パス_52" data-name="パス 52" d="M0,0H423.5" transform="translate(718.5 1516.5)" fill="none" stroke="#707070" stroke-width="1"/>
    <path id="パス_47" data-name="パス 47" d="M0,0H423.5" transform="translate(718.5 1468.5)" fill="none" stroke="#707070" stroke-width="1"/>
    <path id="パス_53" data-name="パス 53" d="M0,0H424" transform="translate(718 1564.5)" fill="none" stroke="#707070" stroke-width="1"/>
    <path id="パス_54" data-name="パス 54" d="M0,0H422.838" transform="translate(718 1613.5)" fill="none" stroke="#707070" stroke-width="1"/>
    <path id="パス_56" data-name="パス 56" d="M0,0H422.838" transform="translate(718 1661.5)" fill="none" stroke="#707070" stroke-width="1"/>
    <path id="パス_57" data-name="パス 57" d="M0,0H422.838" transform="translate(718 1710.5)" fill="none" stroke="#707070" stroke-width="1"/>
    <path id="パス_58" data-name="パス 58" d="M0,0H422.838" transform="translate(718 1758.5)" fill="none" stroke="#707070" stroke-width="1"/>
    <path id="パス_60" data-name="パス 60" d="M0,0H422.838" transform="translate(718 1807.5)" fill="none" stroke="#707070" stroke-width="1"/>
    <path id="パス_61" data-name="パス 61" d="M0,0H422.838" transform="translate(718 1855.5)" fill="none" stroke="#707070" stroke-width="1"/>
  </g>
</svg>
