<svg xmlns="http://www.w3.org/2000/svg" width="70.336" height="410.089" viewBox="0 0 70.336 410.089">
  <path id="パス_31" data-name="パス 31" d="M20.1-41.088c.512,0,.576.128.576,1.088v28.544c0,3.264-.064,4.928-.128,5.7-.192,2.368-.64,3.072-5.312,3.584-2.432.192-2.176,2.3-.064,2.3C16.32.128,21.056,0,23.424,0c2.5,0,4.1.128,7.936.128,2.88,0,2.88-2.048.32-2.3-4.928-.512-5.44-1.28-5.5-3.584-.064-1.408-.128-2.688-.128-5.376V-40.192c0-.7.064-.768.448-.768,11.008,0,12.608-.128,13.5.384.832.512,1.344,1.792,1.664,4.672.32,2.56,2.56,2.56,2.56-.384a38.2,38.2,0,0,1,.9-8.128,1.1,1.1,0,0,0-1.728-1.28c-1.344.96-1.728,1.536-4.736,1.536H9.856c-1.92,0-3.072-.128-3.968-1.408a1.221,1.221,0,0,0-2.112.64,76.348,76.348,0,0,1-.7,9.536c-.256,2.3,1.856,2.3,2.5.192,1.216-4.032,1.92-5.184,3.072-5.568C9.6-41.024,11.136-41.088,20.1-41.088ZM64.448-22.976A9.317,9.317,0,0,1,71.68-26.5c4.224,0,7.3,1.856,7.3,8.384v7.872c0,3.9-.064,5.184-.128,5.76-.128,1.408-.64,1.856-2.816,2.368-2.048.448-1.792,2.24.32,2.24C78.848.128,79.808,0,81.6,0c1.6,0,3.584.128,4.928.128,2.432,0,2.24-1.92.064-2.3-2.24-.448-2.624-1.024-2.688-2.3C83.84-5.5,83.84-6.016,83.84-6.72V-20.544c0-5.376-2.944-10.24-9.088-10.24a10.494,10.494,0,0,0-5.12,1.408A33.4,33.4,0,0,0,64.64-25.92c-.384.32-.512.192-.512-.064v-16.7a33.68,33.68,0,0,1,.512-7.552.934.934,0,0,0-.832-1.216,4.632,4.632,0,0,0-2.176.832,16.712,16.712,0,0,1-6.016,1.92c-2.176.256-1.728,2.048-.32,2.176,3.328.7,3.712,1.024,3.84,2.432.128,1.472.128,2.816.128,7.04v25.28c0,3.264,0,4.48-.128,6.784-.128,2.112-.64,2.432-2.56,2.816-2.368.384-2.368,2.3,0,2.3C58.112.128,59.264,0,61.7,0c2.368,0,3.9.128,5.376.128,1.92,0,2.176-1.92,0-2.3-2.56-.512-2.688-1.024-2.816-2.752-.064-.768-.128-2.688-.128-6.016v-10.3C64.128-22.272,64.128-22.592,64.448-22.976Zm40,3.328c.7-5.632,3.712-7.936,7.1-7.936a7.459,7.459,0,0,1,7.616,7.36c0,.32-.064.576-.32.7a77.047,77.047,0,0,1-11.648.576,21.846,21.846,0,0,1-2.368-.128C104.512-19.136,104.448-19.264,104.448-19.648ZM104.256-16c12.224,0,15.488-.7,18.048-1.408,1.152-.32,2.432-1.152,2.432-2.3,0-.576-.32-.768-.7-.96-.064-3.968-2.88-10.112-10.368-10.112a14.006,14.006,0,0,0-8.96,3.648,16.83,16.83,0,0,0-5.5,12.8c0,8.7,5.184,15.168,12.608,15.168a16.71,16.71,0,0,0,11.2-4.416c1.6-1.6,1.024-3.392-.96-2.176a12.371,12.371,0,0,1-7.168,2.3C108.672-3.456,104.384-7.488,104.256-16Zm93.12-6.208c.256,0,.32.128.32.448v10.432c0,3.328-.064,4.416-.192,6.016-.128,2.048-.576,2.432-4.352,3.072-2.176.256-2.112,2.432,0,2.432,1.536,0,3.84-.192,7.04-.192,3.84,0,5.568.128,7.552.128,2.368,0,2.5-2.112.064-2.368-3.968-.64-4.352-.96-4.544-3.2-.064-1.152-.128-2.432-.128-6.528v-21.12a55.914,55.914,0,0,1,.192-6.336c.192-1.344.9-2.048,4.48-2.5,2.432-.256,2.368-2.368.064-2.368-1.536,0-4.16.128-7.168.128-3.392,0-6.208-.128-7.488-.128-2.56,0-2.432,2.048.064,2.3,3.712.576,4.16,1.024,4.288,2.88.064,1.216.128,1.984.128,6.208v6.848c0,.32,0,.512-.32.512H172.608c-.512,0-.576-.192-.576-.768V-33.28c0-3.392,0-4.8.128-6.016.128-1.664,1.216-2.176,4.672-2.688,2.3-.32,2.3-2.3.064-2.3-1.472,0-4.416.128-8.192.128-3.2,0-5.888-.128-6.912-.128-2.112,0-2.24,2.048,0,2.3,3.968.512,4.608,1.152,4.736,2.752.064,1.088.128,2.816.128,6.464V-11.84c0,3.712-.064,4.864-.128,6.272-.128,2.24-.832,2.816-4.544,3.328-2.112.192-2.176,2.368.064,2.368,1.088,0,4.416-.128,7.3-.128,3.136,0,6.336.128,7.616.128,2.368,0,2.368-2.176,0-2.368-4.352-.448-4.672-1.408-4.8-3.328-.064-1.152-.128-2.432-.128-6.144v-9.92c0-.448.128-.576.512-.576ZM226.5,0c2.3,0,3.84.128,5.44.128,2.24,0,2.24-2.048.256-2.368-2.944-.576-3.2-1.088-3.2-4.1V-21.184a44.589,44.589,0,0,1,.512-8.192c.128-.96-.256-1.408-.9-1.408a3.379,3.379,0,0,0-1.6.64,16.08,16.08,0,0,1-5.44,1.984c-1.536.256-1.472,1.664-.32,2.112,2.56,1.024,2.752,1.28,2.816,2.3a17.273,17.273,0,0,1,.128,2.88V-6.016c0,2.688-.384,3.2-3.136,3.776-2.048.384-1.984,2.368.192,2.368C222.4.128,224.7,0,226.5,0Zm.128-46.272a3.642,3.642,0,0,0-3.584,3.84,3.383,3.383,0,0,0,3.392,3.584,3.615,3.615,0,0,0,3.584-3.9A3.481,3.481,0,0,0,226.624-46.272ZM254.208-18.56c-2.432-.96-4.352-2.112-4.352-5.056,0-2.176,1.088-4.352,4.864-4.352,2.56,0,4.608.96,5.5,2.752a10.847,10.847,0,0,1,1.088,3.264c.32,1.728,2.3,1.408,2.3-.7a47.357,47.357,0,0,1,.64-8.064c.192-1.024-.96-1.088-1.728-.512-.384.256-.7.768-1.152,1.088-.192.128-.256.192-.7.064a12.993,12.993,0,0,0-4.224-.7,12.424,12.424,0,0,0-7.68,2.432,8.239,8.239,0,0,0-3.52,6.656c0,4.416,3.584,6.528,6.016,7.488,1.856.7,4.288,1.6,6.144,2.368C259.52-10.816,260.8-9.408,260.8-7.1q0,5.184-5.568,5.184c-3.9,0-6.144-1.664-7.3-4.288-.256-.7-.768-2.112-.9-2.5-.576-1.92-2.56-1.536-2.368.448.32,3.2.512,5.632.512,7.872,0,1.792,1.6,1.344,2.3.512.384-.512.7-.384,1.088-.192A12.524,12.524,0,0,0,253.76.96,13.54,13.54,0,0,0,260.672-.9c3.712-2.368,5.12-5.312,5.12-8.512,0-3.9-3.008-5.952-5.952-7.168Zm31.936-7.488h3.328c2.816,0,3.52-.128,3.776-.448a4.442,4.442,0,0,0,.9-2.56c0-.448-.128-.64-.512-.576s-1.984.128-3.456.128h-4.032c.064-7.808.256-9.28.576-9.984.512-1.216-.192-1.856-1.28-1.152-1.024.7-3.136,2.5-3.584,3.52-.192.512-.448,1.92-.512,7.616-3.008,0-3.52.128-3.9.256-.384.192-1.728,1.6-1.728,2.3,0,.384.128.768.576.832.512.064,1.344.064,4.224.064h.832V-8.384c0,7.936,2.944,9.28,6.016,9.28a10.045,10.045,0,0,0,6.4-2.432c1.728-1.664.96-2.944-.384-2.56a8.132,8.132,0,0,1-3.456.64c-2.688,0-3.776-1.664-3.776-5.568Zm35.392-4.736a17.428,17.428,0,0,0-11.328,4.352c-3.264,2.816-5.44,6.528-5.44,12.48,0,7.68,5.056,15.1,13.568,15.1A17.127,17.127,0,0,0,331.2-4.992c1.92-2.176,3.776-5.824,3.776-11.456C334.976-24.064,329.28-30.784,321.536-30.784ZM329.6-14.016c0,7.3-3.456,12.032-8.576,12.032-7.936,0-10.944-7.168-10.944-14.016,0-4.544,1.536-11.52,8.7-11.52C326.784-27.52,329.6-19.712,329.6-14.016Zm35.264-16.768c-2.048,0-3.968,1.024-9.28,6.272a32.544,32.544,0,0,0-.384-5.056c-.128-.7-.448-1.216-.96-1.216a2.04,2.04,0,0,0-1.088.384,55.069,55.069,0,0,1-5.824,2.944c-1.024.448-1.024,1.536,0,1.92,2.432.768,3.072,1.216,3.136,2.176a21.172,21.172,0,0,1,.192,4.224v10.5a24.949,24.949,0,0,1-.192,4.032c-.128,1.536-.256,1.792-2.944,2.5-1.728.448-1.536,2.24.192,2.24,1.536,0,3.2-.128,5.952-.128s4.992.128,6.336.128c1.792,0,2.048-1.792.128-2.176-3.712-.7-4.288-.96-4.416-2.816-.064-.96-.128-2.24-.128-3.84V-21.312a1.346,1.346,0,0,1,.32-.96c2.048-2.368,3.9-3.072,5.5-3.072a4.416,4.416,0,0,1,3.392,1.6c.96,1.088,1.088,1.216,1.664,1.216.64,0,1.216-.7,1.408-1.216a6.459,6.459,0,0,0,.9-3.392A3.709,3.709,0,0,0,364.864-30.784Zm19.9,7.744c2.3,4.992,6.272,14.08,9.344,21.5a1.342,1.342,0,0,1-.064,1.024c-1.088,2.112-2.112,4.224-3.328,6.528-1.536,2.56-2.3,3.9-3.9,6.4-1.152,1.92-1.92,3.2-1.92,4.16,0,1.088,1.408,2.3,3.584,2.3a1.555,1.555,0,0,0,1.728-1.216c.512-1.6,1.472-4.48,4.544-12.1,6.08-14.528,10.752-24.384,12.864-29.184,1.088-2.368,1.536-3.008,3.9-3.584,2.3-.512,2.048-2.5-.128-2.432-1.664,0-3.648.128-5.056.128-1.856,0-3.84-.128-5.056-.128-2.112.064-2.112,1.984-.064,2.368,3.2.64,3.52,1.088,2.88,3.392-.64,1.856-3.392,8.96-6.848,16.576-.128.256-.32.192-.512-.128-1.664-4.224-4.672-11.52-7.1-17.472-.512-1.408-.192-1.792,2.3-2.368,1.792-.384,1.728-2.368-.32-2.368-1.216,0-4.16.128-5.44.128-1.856,0-4.352-.192-5.952-.128-2.048.064-2.112,1.984-.064,2.3C382.976-26.752,383.3-25.92,384.768-23.04Z" transform="translate(18.88 -3.051) rotate(90)" fill="#aaa"/>
</svg>
