<svg xmlns="http://www.w3.org/2000/svg" width="382.368" height="121.864" viewBox="0 0 382.368 121.864">
  <g id="グループ_77" data-name="グループ 77" transform="translate(-153.728 -202.976)">
    <path id="パス_38" data-name="パス 38" d="M17.752-36.736c2.016-.224,1.9-2.016.112-2.016-1.232,0-4.2.112-6.776.112-2.128,0-5.376-.112-6.552-.112-2.016,0-2.016,1.792.112,2.016,3.7.448,3.864,1.232,4.032,3.3.112,1.288.112,1.512.112,7.392v13.216c0,5.32-.056,6.16-.112,7.224C8.568-3.248,8.4-2.464,4.536-1.96,2.632-1.736,2.688.112,4.48.112,5.992.112,9.072,0,11.424,0c3.08,0,5.1.112,6.272.112,2.016,0,1.96-1.848.168-2.072-3.808-.56-4.144-1.064-4.256-3.584-.056-1.232-.112-2.072-.112-7.28V-26.04c0-5.32.056-6.1.112-7.392C13.664-35.5,14.056-36.288,17.752-36.736Zm8.12,27.048A38.943,38.943,0,0,1,25.7-4.424c-.112,1.624-.28,2.016-2.8,2.52-1.68.28-1.736,2.016.168,2.016C24.528.112,26.1,0,27.944,0c2.016,0,3.864.112,5.1.112,1.792,0,1.9-1.736.28-2.016-2.8-.5-3.024-.9-3.08-2.464a30.028,30.028,0,0,1-.168-4.48v-9.52a1.89,1.89,0,0,1,.392-1.456c1.344-1.568,3.7-3.416,6.328-3.416,4.256,0,6.328,2.688,6.328,6.832v3.752c0,5.432-.112,6.72-.168,7.84C42.9-3.024,42.728-2.464,39.76-1.9c-1.736.28-1.736,2.016.28,2.016C41.1.112,43.288,0,44.744,0c1.9,0,3.416.112,5.208.112,1.848,0,1.9-1.736.168-2.016-2.464-.448-2.8-.672-2.8-2.464v-12.88c0-6.272-3.08-9.688-7.784-9.688a8.786,8.786,0,0,0-4.7,1.456,40.892,40.892,0,0,0-4.648,3.36,19.128,19.128,0,0,0-.28-3.92c-.112-.616-.336-.9-.84-.9a3.806,3.806,0,0,0-1.456.616,19.7,19.7,0,0,1-4.48,2.24.907.907,0,0,0-.112,1.736c2.576.84,2.856,1.344,2.856,3.024Zm36.064-13.1h2.912c2.464,0,3.08-.112,3.3-.392a3.887,3.887,0,0,0,.784-2.24c0-.392-.112-.56-.448-.5s-1.736.112-3.024.112H61.936c.056-6.832.224-8.12.5-8.736.448-1.064-.168-1.624-1.12-1.008a11.742,11.742,0,0,0-3.136,3.08c-.168.448-.392,1.68-.448,6.664a11.259,11.259,0,0,0-3.416.224c-.336.168-1.512,1.4-1.512,2.016,0,.336.112.672.5.728.448.056,1.176.056,3.7.056h.728V-7.336c0,6.944,2.576,8.12,5.264,8.12a8.79,8.79,0,0,0,5.6-2.128c1.512-1.456.84-2.576-.336-2.24a7.115,7.115,0,0,1-3.024.56c-2.352,0-3.3-1.456-3.3-4.872Zm26.88-4.144c-1.792,0-3.472.9-8.12,5.488a28.475,28.475,0,0,0-.336-4.424c-.112-.616-.392-1.064-.84-1.064a1.785,1.785,0,0,0-.952.336,48.186,48.186,0,0,1-5.1,2.576c-.9.392-.9,1.344,0,1.68,2.128.672,2.688,1.064,2.744,1.9a18.528,18.528,0,0,1,.168,3.7V-7.56a21.833,21.833,0,0,1-.168,3.528c-.112,1.344-.224,1.568-2.576,2.184-1.512.392-1.344,1.96.168,1.96,1.344,0,2.8-.112,5.208-.112s4.368.112,5.544.112c1.568,0,1.792-1.568.112-1.9-3.248-.616-3.752-.84-3.864-2.464-.056-.84-.112-1.96-.112-3.36V-18.648a1.178,1.178,0,0,1,.28-.84c1.792-2.072,3.416-2.688,4.816-2.688a3.864,3.864,0,0,1,2.968,1.4c.84.952.952,1.064,1.456,1.064.56,0,1.064-.616,1.232-1.064a5.651,5.651,0,0,0,.784-2.968A3.246,3.246,0,0,0,88.816-26.936Zm20.944,0a15.249,15.249,0,0,0-9.912,3.808c-2.856,2.464-4.76,5.712-4.76,10.92,0,6.72,4.424,13.216,11.872,13.216a14.986,14.986,0,0,0,11.256-5.376c1.68-1.9,3.3-5.1,3.3-10.024C121.52-21.056,116.536-26.936,109.76-26.936Zm7.056,14.672c0,6.384-3.024,10.528-7.5,10.528-6.944,0-9.576-6.272-9.576-12.264,0-3.976,1.344-10.08,7.616-10.08C114.352-24.08,116.816-17.248,116.816-12.264ZM146.664-26.04a10.016,10.016,0,0,0-4.312-.9,16.2,16.2,0,0,0-8.512,2.576,14.1,14.1,0,0,0-7.112,12.544c0,7.28,4.928,12.544,10.024,12.544,3.136,0,6.16-1.456,9.8-4.368.168,2.856.5,4.592,1.792,4.592a14,14,0,0,0,6.1-2.016c1.512-.9,1.064-2.072-.056-2.072-.392,0-1.064.056-1.288.056-2.128,0-2.24-1.008-2.24-5.712V-39.144a14.015,14.015,0,0,1,.56-4.816.814.814,0,0,0-.616-1.064,8.329,8.329,0,0,0-2.3.784,24.886,24.886,0,0,1-5.544,1.568c-1.568.224-1.512,1.68,0,1.96,2.576.5,3.416.84,3.528,1.736a25.959,25.959,0,0,1,.168,3.752Zm-6.944,2.128a9.235,9.235,0,0,1,6.216,1.9,1.789,1.789,0,0,1,.728,1.624V-7.56a2.8,2.8,0,0,1-.392,1.848,9,9,0,0,1-6.608,2.744c-5.32,0-8.288-5.04-8.288-10.7C131.376-20.5,134.4-23.912,139.72-23.912Zm25.872,4.648a25.272,25.272,0,0,1,.5-6.384c.168-.784-.28-1.232-.784-1.232a8.667,8.667,0,0,0-1.512.56,20.56,20.56,0,0,1-4.76,1.232c-1.288.224-1.568,1.568-.28,1.96,2.072.616,2.408,1.344,2.464,2.072.112,1.232.112,2.408.112,3.416V-8.4c0,4.032,1.176,6.048,2.24,7.112A6.969,6.969,0,0,0,168.84.784c3.752,0,6.832-2.968,9.24-5.152.112,2.8.28,5.1,1.68,5.1a11.474,11.474,0,0,0,6.216-2.352c.9-.784.672-1.9-.336-1.848-1.848.168-2.352.168-2.968-.672-.336-.392-.448-2.184-.448-5.04v-10.36a35.63,35.63,0,0,1,.336-5.824.793.793,0,0,0-.728-1.12c-.224,0-.784.224-1.736.448a20.443,20.443,0,0,1-5.376.616c-1.736.056-1.792,1.792-.336,2.016,2.968.56,3.36,1.008,3.528,2.408a19.754,19.754,0,0,1,.112,2.408V-7.784a1.769,1.769,0,0,1-.224,1.176,8.474,8.474,0,0,1-6.72,3.584,4.947,4.947,0,0,1-5.152-3.752,17.243,17.243,0,0,1-.336-4.368Zm39.76-7.672a15.44,15.44,0,0,0-8.568,2.688,14.324,14.324,0,0,0-6.664,11.984c0,7.112,4.816,12.992,10.92,12.992a13.783,13.783,0,0,0,10.472-4.48c1.344-1.512.616-2.968-.952-1.792a10.221,10.221,0,0,1-6.552,2.464c-3.976,0-9.24-2.464-9.24-10.976,0-6.832,3.024-9.8,7.336-9.8,4.032,0,5.992,2.128,6.776,3.584.672,1.232,1.4.56,1.848-.168a6.139,6.139,0,0,0,.952-2.912,2.358,2.358,0,0,0-.952-1.9C210.112-25.816,208.6-26.936,205.352-26.936ZM224.5-22.792h2.912c2.464,0,3.08-.112,3.3-.392a3.887,3.887,0,0,0,.784-2.24c0-.392-.112-.56-.448-.5s-1.736.112-3.024.112H224.5c.056-6.832.224-8.12.5-8.736.448-1.064-.168-1.624-1.12-1.008a11.742,11.742,0,0,0-3.136,3.08c-.168.448-.392,1.68-.448,6.664a11.259,11.259,0,0,0-3.416.224c-.336.168-1.512,1.4-1.512,2.016,0,.336.112.672.5.728.448.056,1.176.056,3.7.056h.728V-7.336c0,6.944,2.576,8.12,5.264,8.12a8.79,8.79,0,0,0,5.6-2.128c1.512-1.456.84-2.576-.336-2.24a7.115,7.115,0,0,1-3.024.56c-2.352,0-3.3-1.456-3.3-4.872ZM241.08,0c2.016,0,3.36.112,4.76.112,1.96,0,1.96-1.792.224-2.072-2.576-.5-2.8-.952-2.8-3.584V-18.536a39.016,39.016,0,0,1,.448-7.168c.112-.84-.224-1.232-.784-1.232a2.956,2.956,0,0,0-1.4.56,14.07,14.07,0,0,1-4.76,1.736c-1.344.224-1.288,1.456-.28,1.848,2.24.9,2.408,1.12,2.464,2.016a15.115,15.115,0,0,1,.112,2.52V-5.264c0,2.352-.336,2.8-2.744,3.3-1.792.336-1.736,2.072.168,2.072C237.5.112,239.512,0,241.08,0Zm.112-40.488a3.186,3.186,0,0,0-3.136,3.36,2.96,2.96,0,0,0,2.968,3.136,3.163,3.163,0,0,0,3.136-3.416A3.046,3.046,0,0,0,241.192-40.488Zm24.584,13.552a15.249,15.249,0,0,0-9.912,3.808c-2.856,2.464-4.76,5.712-4.76,10.92,0,6.72,4.424,13.216,11.872,13.216a14.986,14.986,0,0,0,11.256-5.376c1.68-1.9,3.3-5.1,3.3-10.024C277.536-21.056,272.552-26.936,265.776-26.936Zm7.056,14.672c0,6.384-3.024,10.528-7.5,10.528-6.944,0-9.576-6.272-9.576-12.264,0-3.976,1.344-10.08,7.616-10.08C270.368-24.08,272.832-17.248,272.832-12.264Zm12.824,2.576a38.943,38.943,0,0,1-.168,5.264c-.112,1.624-.28,2.016-2.8,2.52-1.68.28-1.736,2.016.168,2.016,1.456,0,3.024-.112,4.872-.112,2.016,0,3.864.112,5.1.112,1.792,0,1.9-1.736.28-2.016-2.8-.5-3.024-.9-3.08-2.464a30.029,30.029,0,0,1-.168-4.48v-9.52a1.89,1.89,0,0,1,.392-1.456c1.344-1.568,3.7-3.416,6.328-3.416,4.256,0,6.328,2.688,6.328,6.832v3.752c0,5.432-.112,6.72-.168,7.84-.056,1.792-.224,2.352-3.192,2.912-1.736.28-1.736,2.016.28,2.016,1.064,0,3.248-.112,4.7-.112,1.9,0,3.416.112,5.208.112,1.848,0,1.9-1.736.168-2.016-2.464-.448-2.8-.672-2.8-2.464v-12.88c0-6.272-3.08-9.688-7.784-9.688a8.786,8.786,0,0,0-4.7,1.456,40.9,40.9,0,0,0-4.648,3.36,19.128,19.128,0,0,0-.28-3.92c-.112-.616-.336-.9-.84-.9a3.806,3.806,0,0,0-1.456.616,19.7,19.7,0,0,1-4.48,2.24.907.907,0,0,0-.112,1.736c2.576.84,2.856,1.344,2.856,3.024Zm58.3-17.248a15.249,15.249,0,0,0-9.912,3.808c-2.856,2.464-4.76,5.712-4.76,10.92,0,6.72,4.424,13.216,11.872,13.216a14.986,14.986,0,0,0,11.256-5.376c1.68-1.9,3.3-5.1,3.3-10.024C355.712-21.056,350.728-26.936,343.952-26.936Zm7.056,14.672c0,6.384-3.024,10.528-7.5,10.528-6.944,0-9.576-6.272-9.576-12.264,0-3.976,1.344-10.08,7.616-10.08C348.544-24.08,351.008-17.248,351.008-12.264ZM364.28-9.128a36.113,36.113,0,0,1-.168,4.424c-.112,1.792-.28,2.3-2.632,2.744-1.96.336-1.96,2.072.168,2.072C362.656.112,364.5,0,366.8,0c2.688,0,3.808.112,5.04.112,2.24,0,2.3-1.848.112-2.072-2.912-.392-3.192-.728-3.3-2.688-.056-.952-.112-2.464-.112-4.7V-22.736h2.3c2.912,0,3.416-.112,3.64-.392a4.745,4.745,0,0,0,.9-2.352c0-.392-.224-.616-.616-.5a18.99,18.99,0,0,1-3.024.168h-3.192v-.84c0-13.44,3.08-14.616,6.048-14.616a7.514,7.514,0,0,1,5.544,2.856.975.975,0,0,0,1.456-.168A5.034,5.034,0,0,0,383.1-41.72a2.422,2.422,0,0,0-.728-1.792c-.9-.9-2.352-1.512-4.816-1.512-2.856,0-7,1.792-10.024,6.216C364.9-35,364.392-31.976,364.28-25.816a13.461,13.461,0,0,0-3.584.224,3.793,3.793,0,0,0-1.344,2.016c0,.392.112.672.448.728s1.792.112,4.48.112ZM9.856,53.208h2.912c2.464,0,3.08-.112,3.3-.392a3.887,3.887,0,0,0,.784-2.24c0-.392-.112-.56-.448-.5s-1.736.112-3.024.112H9.856c.056-6.832.224-8.12.5-8.736.448-1.064-.168-1.624-1.12-1.008A11.742,11.742,0,0,0,6.1,43.52c-.168.448-.392,1.68-.448,6.664a11.259,11.259,0,0,0-3.416.224c-.336.168-1.512,1.4-1.512,2.016,0,.336.112.672.5.728.448.056,1.176.056,3.7.056h.728V68.664c0,6.944,2.576,8.12,5.264,8.12a8.79,8.79,0,0,0,5.6-2.128c1.512-1.456.84-2.576-.336-2.24a7.115,7.115,0,0,1-3.024.56c-2.352,0-3.3-1.456-3.3-4.872ZM27.888,55.9a8.152,8.152,0,0,1,6.328-3.08c3.7,0,6.384,1.624,6.384,7.336V67.04c0,3.416-.056,4.536-.112,5.04-.112,1.232-.56,1.624-2.464,2.072-1.792.392-1.568,1.96.28,1.96,2.184,0,3.024-.112,4.592-.112,1.4,0,3.136.112,4.312.112,2.128,0,1.96-1.68.056-2.016-1.96-.392-2.3-.9-2.352-2.016-.056-.9-.056-1.344-.056-1.96v-12.1c0-4.7-2.576-8.96-7.952-8.96a9.182,9.182,0,0,0-4.48,1.232,29.222,29.222,0,0,0-4.368,3.024c-.336.28-.448.168-.448-.056V38.648a29.47,29.47,0,0,1,.448-6.608.817.817,0,0,0-.728-1.064,4.053,4.053,0,0,0-1.9.728,14.623,14.623,0,0,1-5.264,1.68c-1.9.224-1.512,1.792-.28,1.9,2.912.616,3.248.9,3.36,2.128.112,1.288.112,2.464.112,6.16V65.7c0,2.856,0,3.92-.112,5.936C23.128,73.48,22.68,73.76,21,74.1c-2.072.336-2.072,2.016,0,2.016,1.344,0,2.352-.112,4.48-.112,2.072,0,3.416.112,4.7.112,1.68,0,1.9-1.68,0-2.016-2.24-.448-2.352-.9-2.464-2.408-.056-.672-.112-2.352-.112-5.264V57.408C27.608,56.512,27.608,56.232,27.888,55.9Zm29.4,2.912c.616-4.928,3.248-6.944,6.216-6.944a6.526,6.526,0,0,1,6.664,6.44c0,.28-.056.5-.28.616a67.416,67.416,0,0,1-10.192.5,19.116,19.116,0,0,1-2.072-.112C57.344,59.256,57.288,59.144,57.288,58.808ZM57.12,62c10.7,0,13.552-.616,15.792-1.232,1.008-.28,2.128-1.008,2.128-2.016,0-.5-.28-.672-.616-.84a8.848,8.848,0,0,0-9.072-8.848,12.256,12.256,0,0,0-7.84,3.192,14.726,14.726,0,0,0-4.816,11.2c0,7.616,4.536,13.272,11.032,13.272a14.621,14.621,0,0,0,9.8-3.864c1.4-1.4.9-2.968-.84-1.9a10.825,10.825,0,0,1-6.272,2.016C60.984,72.976,57.232,69.448,57.12,62Zm48.048-15.624c0-4.76.056-5.432.448-5.824.5-.5,2.744-.952,6.384-.952,13.72,0,17.024,9.352,17.024,18.088,0,7.448-3.864,15.848-15.848,15.848-3.64,0-6.664-.616-7.448-1.568-.56-.5-.56-1.624-.56-5.712ZM100.52,64.3a55.43,55.43,0,0,1-.224,7.5c-.224,1.12-.728,1.68-4.144,2.128-2.072.336-1.736,2.072,0,2.072h3.92c2.016,0,6.888.392,10.36.392,5.544,0,11.088-.84,16.184-5.1a20.4,20.4,0,0,0,7.672-16.632c0-6.944-4.256-17.528-20.272-17.528-4.872,0-8.344.224-11.7.224-2.016,0-4.592-.168-5.88-.168-2.184,0-2.3,1.736-.224,2.016,3.472.448,4.088,1.232,4.2,2.688s.112,2.24.112,5.32ZM145.992,76c2.016,0,3.36.112,4.76.112,1.96,0,1.96-1.792.224-2.072-2.576-.5-2.8-.952-2.8-3.584V57.464a39.016,39.016,0,0,1,.448-7.168c.112-.84-.224-1.232-.784-1.232a2.956,2.956,0,0,0-1.4.56,14.07,14.07,0,0,1-4.76,1.736c-1.344.224-1.288,1.456-.28,1.848,2.24.9,2.408,1.12,2.464,2.016a15.115,15.115,0,0,1,.112,2.52V70.736c0,2.352-.336,2.8-2.744,3.3-1.792.336-1.736,2.072.168,2.072C142.408,76.112,144.424,76,145.992,76Zm.112-40.488a3.186,3.186,0,0,0-3.136,3.36,2.96,2.96,0,0,0,2.968,3.136,3.163,3.163,0,0,0,3.136-3.416A3.046,3.046,0,0,0,146.1,35.512ZM164.64,59.76c-2.128-.84-3.808-1.848-3.808-4.424,0-1.9.952-3.808,4.256-3.808,2.24,0,4.032.84,4.816,2.408a9.491,9.491,0,0,1,.952,2.856c.28,1.512,2.016,1.232,2.016-.616a41.44,41.44,0,0,1,.56-7.056c.168-.9-.84-.952-1.512-.448-.336.224-.616.672-1.008.952-.168.112-.224.168-.616.056a11.369,11.369,0,0,0-3.7-.616,10.871,10.871,0,0,0-6.72,2.128,7.209,7.209,0,0,0-3.08,5.824c0,3.864,3.136,5.712,5.264,6.552,1.624.616,3.752,1.4,5.376,2.072,1.848.9,2.968,2.128,2.968,4.144q0,4.536-4.872,4.536c-3.416,0-5.376-1.456-6.384-3.752-.224-.616-.672-1.848-.784-2.184-.5-1.68-2.24-1.344-2.072.392.28,2.8.448,4.928.448,6.888,0,1.568,1.4,1.176,2.016.448.336-.448.616-.336.952-.168a10.959,10.959,0,0,0,4.536.9,11.848,11.848,0,0,0,6.048-1.624c3.248-2.072,4.48-4.648,4.48-7.448,0-3.416-2.632-5.208-5.208-6.272Zm21.9-3.864a8.152,8.152,0,0,1,6.328-3.08c3.7,0,6.384,1.624,6.384,7.336V67.04c0,3.416-.056,4.536-.112,5.04-.112,1.232-.56,1.624-2.464,2.072-1.792.392-1.568,1.96.28,1.96,2.184,0,3.024-.112,4.592-.112,1.4,0,3.136.112,4.312.112,2.128,0,1.96-1.68.056-2.016-1.96-.392-2.3-.9-2.352-2.016-.056-.9-.056-1.344-.056-1.96v-12.1c0-4.7-2.576-8.96-7.952-8.96a9.182,9.182,0,0,0-4.48,1.232A29.222,29.222,0,0,0,186.7,53.32c-.336.28-.448.168-.448-.056V38.648a29.47,29.47,0,0,1,.448-6.608.817.817,0,0,0-.728-1.064,4.053,4.053,0,0,0-1.9.728,14.623,14.623,0,0,1-5.264,1.68c-1.9.224-1.512,1.792-.28,1.9,2.912.616,3.248.9,3.36,2.128C182,38.7,182,39.88,182,43.576V65.7c0,2.856,0,3.92-.112,5.936-.112,1.848-.56,2.128-2.24,2.464-2.072.336-2.072,2.016,0,2.016,1.344,0,2.352-.112,4.48-.112,2.072,0,3.416.112,4.7.112,1.68,0,1.9-1.68,0-2.016-2.24-.448-2.352-.9-2.464-2.408-.056-.672-.112-2.352-.112-5.264V57.408C186.256,56.512,186.256,56.232,186.536,55.9Zm29.4,2.912c.616-4.928,3.248-6.944,6.216-6.944a6.526,6.526,0,0,1,6.664,6.44c0,.28-.056.5-.28.616a67.416,67.416,0,0,1-10.192.5,19.115,19.115,0,0,1-2.072-.112C215.992,59.256,215.936,59.144,215.936,58.808ZM215.768,62c10.7,0,13.552-.616,15.792-1.232,1.008-.28,2.128-1.008,2.128-2.016,0-.5-.28-.672-.616-.84A8.848,8.848,0,0,0,224,49.064a12.256,12.256,0,0,0-7.84,3.192,14.726,14.726,0,0,0-4.816,11.2c0,7.616,4.536,13.272,11.032,13.272a14.621,14.621,0,0,0,9.8-3.864c1.4-1.4.9-2.968-.84-1.9a10.825,10.825,0,0,1-6.272,2.016C219.632,72.976,215.88,69.448,215.768,62Zm30.856-2.24c-2.128-.84-3.808-1.848-3.808-4.424,0-1.9.952-3.808,4.256-3.808,2.24,0,4.032.84,4.816,2.408a9.491,9.491,0,0,1,.952,2.856c.28,1.512,2.016,1.232,2.016-.616a41.44,41.44,0,0,1,.56-7.056c.168-.9-.84-.952-1.512-.448-.336.224-.616.672-1.008.952-.168.112-.224.168-.616.056a11.369,11.369,0,0,0-3.7-.616,10.871,10.871,0,0,0-6.72,2.128,7.209,7.209,0,0,0-3.08,5.824c0,3.864,3.136,5.712,5.264,6.552,1.624.616,3.752,1.4,5.376,2.072,1.848.9,2.968,2.128,2.968,4.144q0,4.536-4.872,4.536c-3.416,0-5.376-1.456-6.384-3.752-.224-.616-.672-1.848-.784-2.184-.5-1.68-2.24-1.344-2.072.392.28,2.8.448,4.928.448,6.888,0,1.568,1.4,1.176,2.016.448.336-.448.616-.336.952-.168a10.959,10.959,0,0,0,4.536.9,11.848,11.848,0,0,0,6.048-1.624c3.248-2.072,4.48-4.648,4.48-7.448,0-3.416-2.632-5.208-5.208-6.272Z" transform="translate(153 248)"/>
    <path id="パス_39" data-name="パス 39" d="M5.024-1.552c-.176.224-.448.24-.8.112a1.769,1.769,0,0,1-.608-.368c-.208-.208-.176-.288,0-.432A15.632,15.632,0,0,1,5.9-3.6,5.147,5.147,0,0,1,5.024-1.552ZM7.056-7.568a14.034,14.034,0,0,0,1.968-.576.627.627,0,0,0,.448-.592c0-.3-.272-.432-.56-.432-.336,0-.7.1-1.056.128s-.64,0-.784-.592a11.766,11.766,0,0,0-.128-1.792c-.08-.5-.208-.592-.528-.7a2.6,2.6,0,0,0-.912-.144c-.32,0-.768.352-.768.576,0,.144.176.256.384.352.464.224.608.272.768.736a8.48,8.48,0,0,1,.336,2.256,13.354,13.354,0,0,1-1.984.176A2.945,2.945,0,0,1,2.16-9.344c-.32-.32-.544-.192-.544.176A2.271,2.271,0,0,0,2.656-7.44a2.785,2.785,0,0,0,1.664.288,10.275,10.275,0,0,0,1.92-.24c0,.464-.016.864-.016,1.168C6.208-5.7,6.16-5.1,6.08-4.5A30.322,30.322,0,0,0,3.1-3.024c-.832.48-1.008.88-.3,1.536.464.432.832.736,1.152,1.008a1.767,1.767,0,0,0,.992.5c.512,0,.9-.448,1.264-1.312a10.86,10.86,0,0,0,.624-2.72,8.909,8.909,0,0,1,3.728-.928c1.024,0,1.84.56,1.84,1.472a1.557,1.557,0,0,1-1.776,1.6,2.421,2.421,0,0,1-2.208-1.44c-.224-.384-.576-.272-.512.176a2.777,2.777,0,0,0,2.88,2.32A2.516,2.516,0,0,0,13.6-3.36c0-1.424-1.12-2.336-2.9-2.336a10.517,10.517,0,0,0-3.776.864c.048-.592.08-1.152.1-1.648Zm7.488-.656a3.7,3.7,0,0,0-3.5-.112c-.336.16-.256.512.1.5A3.7,3.7,0,0,1,14-6.912a.636.636,0,0,0,1.072-.3C15.184-7.616,14.96-7.936,14.544-8.224ZM25.712-9.376c.3.5.528.88.944.832a.691.691,0,0,0,.64-.816c-.08-.768-1.056-1.312-2-1.536-.432-.1-.56.224-.336.5A9.347,9.347,0,0,1,25.712-9.376Zm-.4,3.44c.32.5.56.88.976.816a.667.667,0,0,0,.592-.816c-.1-.768-1.056-1.3-2.016-1.52-.432-.08-.56.256-.32.528A9.127,9.127,0,0,1,25.312-5.936ZM21.984-8.592a9.918,9.918,0,0,0,1.2-1.6c.48.032.72-.048.72-.288.016-.288-.864-.8-1.44-.96a.23.23,0,0,0-.288.224,12.2,12.2,0,0,1-.7,2.32C21.3-8.48,21.632-8.3,21.984-8.592Zm-4.656-.88c.16.56.256.992.656,1.072a.663.663,0,0,0,.784-.608c.128-.7-.592-1.52-1.44-2.048-.368-.224-.592.064-.448.4A7.518,7.518,0,0,1,17.328-9.472Zm3.408,2.736H23.36c.368,0,.7-.128.7-.368a2.433,2.433,0,0,0-1.28-1.36c-.224,0-.624.576-.96,1.088H20.736c0-1.472.016-3.824.032-4.624.5-.112.816-.272.816-.544,0-.384-.832-.48-1.856-.48a.185.185,0,0,0-.208.224,42.5,42.5,0,0,1,.208,5.424H16.992c-.208,0-.352.08-.352.32,0,.256.144.32.352.32h2.48A14.508,14.508,0,0,1,16.4-1.552c-.368.416-.032.752.4.448a11.008,11.008,0,0,0,2.9-3.2C19.664-2.5,19.584.064,19.584.576a.438.438,0,0,0,.48.48c.512,0,.736-.208.736-.56,0-.672-.064-5.616-.064-6.72Zm2.16,3.2a.659.659,0,0,0,.64-.768c-.064-.72-.944-1.216-1.824-1.44-.416-.1-.56.224-.336.5a10.724,10.724,0,0,1,.64.928C22.3-3.872,22.5-3.5,22.9-3.536ZM29.216-4c0-.928-.016-1.76-.016-2.144,0-.608,0-4.512.048-5.6.5-.112.832-.3.832-.576,0-.4-.912-.5-1.968-.5a.2.2,0,0,0-.224.24A64.236,64.236,0,0,1,28.1-5.92c0,.432-.016,1.216-.032,2.1l-5.3.8c-.208.032-.336.128-.3.368.032.256.192.288.384.256l5.2-.768C28-1.584,27.952.1,27.952.512a.455.455,0,0,0,.512.48c.528,0,.816-.208.816-.56,0-.384-.032-2.144-.048-3.776l2-.3c.352-.048.64-.208.608-.448a2.388,2.388,0,0,0-1.392-1.12c-.208.032-.528.624-.768,1.152Zm6.8-2.784H37.6c.336,0,.656-.1.656-.336a2.381,2.381,0,0,0-1.184-1.248c-.208,0-.56.48-.864.944h-.192v-3.36a.469.469,0,0,0,.32-.272h1.28c.5,0,.816-.128.816-.352,0-.384-1.072-1.328-1.392-1.328-.24,0-.64.56-.976,1.04H33.04c-.208,0-.352.08-.352.32,0,.256.144.32.352.32h1.9v3.632h-1.76c-.208,0-.352.08-.352.32,0,.256.144.32.352.32h1.76V-3.04c-.72.208-1.488.416-2.3.608a.177.177,0,0,0-.176.224c.144.848.4,1.488.736,1.488.272,0,.416-.368.464-.768A20.222,20.222,0,0,0,38.08-3.52c.528-.352.336-.784-.256-.544-.528.224-1.136.448-1.808.672Zm3.792.816-.016-2.288V-8.3h2.064v2.336Zm3.1-5.1c.192-.064.3-.176.32-.3H45.12c.016.5.016,1.424,0,2.432H42.912Zm-1.056-.3v2.432H39.792c0-.8.016-1.968.048-2.432Zm1.056,5.408V-8.3H45.12L45.1-5.968Zm0,5.632v-2.08h2.9c.464,0,.768-.128.768-.352-.016-.368-1.024-1.3-1.328-1.3-.224,0-.624.528-.944,1.008H42.912V-5.328h2.176v.464c0,.256.112.544.48.544.416,0,.672-.112.672-.608,0-.752-.08-4.8-.016-6.224.272-.112.528-.256.528-.464,0-.352-.912-1.04-1.216-1.04-.176,0-.448.336-.688.64H40.176a3.316,3.316,0,0,0-1.3-.544.181.181,0,0,0-.224.192c.176,1.76.064,6.544.048,7.9,0,.288.144.448.416.448.464,0,.688-.16.688-.512v-.8H41.84v2.272H38.5c-.208,0-.352.08-.352.32,0,.256.144.32.352.32H41.84v2.08h-5.2c-.208,0-.352.08-.352.32,0,.256.144.32.352.32H46.656c.5,0,.768-.128.768-.352,0-.368-1.024-1.328-1.344-1.328-.224,0-.64.544-.96,1.04ZM56.864-8.352c-.752,2.144-3.056,5.264-4.592,5.264-.464,0-.9-.752-.976-1.984a4.233,4.233,0,0,1,1.264-3.52,4.6,4.6,0,0,1,3.248-1.184,7.1,7.1,0,0,1,1.344.128A5,5,0,0,1,56.864-8.352Zm-1.008-2.224a6.1,6.1,0,0,0-3.92,1.424A5.218,5.218,0,0,0,50.256-4.7c.144,1.888.976,3.056,1.824,3.056,1.92,0,4.592-3.184,5.52-5.744a7.716,7.716,0,0,0,.448-1.968,3.942,3.942,0,0,1,2.48,3.808c0,2.624-1.792,3.792-4.56,4.336-.5.1-.464.592.1.592,3.3,0,5.76-1.584,5.76-4.656C61.824-8.16,59.68-10.576,55.856-10.576Zm9.76,1.92c.288.592.4,1.04.816,1.04.432.016.672-.288.688-.72a1.337,1.337,0,0,0-.288-.816,32.132,32.132,0,0,0,1.84-2.832c.352.016.672,0,.7-.192.048-.32-.752-.864-1.5-1.1a.208.208,0,0,0-.288.16,13.917,13.917,0,0,1-1.312,3.392,3.976,3.976,0,0,0-.912-.56c-.416-.16-.624.16-.416.48A8.055,8.055,0,0,1,65.616-8.656Zm.192,4.7a.223.223,0,0,0-.3.208A8.6,8.6,0,0,1,64.48-.176c-.192.384.144.592.464.3a6.38,6.38,0,0,0,1.6-2.9c.48.032.752-.064.752-.3C67.3-3.376,66.336-3.824,65.808-3.952Zm4.016.192c-.336-.224-.56.016-.464.336s.176.656.24.976c.1.48.128.88.5.976a.651.651,0,0,0,.864-.464C71.152-2.608,70.512-3.3,69.824-3.76ZM67.536-2.7c0,1.712-.048,2.832-.048,3.344,0,.3.112.48.416.48.5,0,.7-.24.7-.576,0-.448-.032-1.6-.032-3.248V-5.072c.256-.048.384-.144.384-.272a.059.059,0,0,0-.016-.048c.288-.048.544-.112.8-.176.08.4.128.7.448.8a.642.642,0,0,0,.8-.528c.176-.672-.4-1.424-1.152-2.032-.352-.272-.624.016-.5.368.08.24.176.512.256.768-.624.032-1.312.064-2.1.08a33.913,33.913,0,0,0,2.288-3.136c.368.032.8.016.832-.24.032-.32-.672-.784-1.36-1.024a.219.219,0,0,0-.32.112,17.816,17.816,0,0,1-2.416,4.3c-.56.016-1.136,0-1.76-.016-.128,0-.192.032-.192.192,0,.848.128,1.472.464,1.52.256.032.432-.272.544-.656.64-.032,1.3-.08,1.952-.144Zm5.7,1.664V-2.128c0-.384.016-1.728.048-2.24h3.856c0,.736-.016,2.208-.016,3.328Zm.416-3.968a3.493,3.493,0,0,0-1.328-.576.175.175,0,0,0-.224.192c.16,1.52.064,4.864.048,6.016a.384.384,0,0,0,.416.432c.464,0,.688-.16.688-.5V-.4H77.1V.368c0,.256.1.544.48.544C78,.912,78.256.8,78.256.3c0-.592-.064-3.456-.032-4.544.24-.112.464-.24.464-.416,0-.336-.88-.992-1.168-.992-.16,0-.448.336-.656.64ZM71.12-11.936c-.208,0-.352.08-.352.32,0,.256.144.32.352.32h2.768c0,.048-.016.1-.016.16a7.125,7.125,0,0,1-.656,2.784,5.33,5.33,0,0,1-2,2.016c-.384.256-.176.688.24.528a5.084,5.084,0,0,0,2.688-2.208,7.5,7.5,0,0,0,.784-2.5c.5-.048.72-.144.72-.4,0-.16-.208-.288-.48-.384H77.7a13,13,0,0,1-.336,3.328.888.888,0,0,1-.912.656,5.976,5.976,0,0,1-1.072-.16.247.247,0,0,0-.112.48.906.906,0,0,1,.512.528c.08.288.256.336.512.336a1.93,1.93,0,0,0,2.064-1.456,19.042,19.042,0,0,0,.384-3.472c.32-.16.56-.384.56-.56,0-.272-.864-.944-1.216-.944-.144,0-.448.32-.672.624ZM85.408-7.408c-.176,0-.24.08-.224.24a8.961,8.961,0,0,1-.64,5.328A7.074,7.074,0,0,1,81.616.56c-.416.24-.176.7.272.512a7.306,7.306,0,0,0,3.7-2.56A9.371,9.371,0,0,0,86.5-6.5c.448-.112.624-.256.624-.464C87.136-7.264,85.872-7.408,85.408-7.408Zm4.224-.08c-.16-.016-.24.064-.224.224a35.232,35.232,0,0,1,.144,4.048c0,.7-.1,3.472-.1,3.888,0,.288.192.432.48.432.48,0,.768-.128.768-.48,0-.448-.032-3.328-.032-3.824,0-.4,0-2.672.016-3.3.448-.08.7-.224.7-.448C91.392-7.312,90.192-7.472,89.632-7.488Zm5.632-.16a10.333,10.333,0,0,1-6.608-4.608c.32-.016.544-.1.544-.272.016-.272-.784-.64-1.456-.784-.16-.032-.24.032-.3.192a16.047,16.047,0,0,1-6.624,7.2c-.448.24-.256.72.256.544a15.9,15.9,0,0,0,7.168-6.288,10.716,10.716,0,0,0,5.68,5.3c.384.128.528.032.752-.3a1.2,1.2,0,0,1,.672-.464C95.664-7.248,95.76-7.552,95.264-7.648Z" transform="translate(432 322)"/>
  </g>
</svg>
