<svg xmlns="http://www.w3.org/2000/svg" width="87.754" height="158.1" viewBox="0 0 87.754 158.1">
  <g id="グループ_62" data-name="グループ 62" transform="translate(-143.705 -3832.73)">
    <path id="パス_85" data-name="パス 85" d="M14.04-9c.18-1.56-1.38-2.7-3-3.39-.87-.33-1.26.27-.93.93a17.872,17.872,0,0,1,.96,1.86c.39.96.48,1.8,1.32,1.92A1.421,1.421,0,0,0,14.04-9Zm4.68-6.84c0-1.2,0-2.28.03-3.18.51-.09,1.23-.3,1.23-.75,0-.54-1.53-.81-3.03-.81-.36,0-.48.18-.42.54.09.81.18,2.49.21,4.2H7.02c-.39,0-.66.15-.66.6,0,.48.27.6.66.6h9.75c.06,1.41.06,2.7.06,3.36,0,2.1.03,4.32-.06,5.79-.06.75-.33.96-.99.96-.3,0-1.14-.06-1.8-.12-.6-.03-.72.72-.03.99,1.89.72,1.74,1.59,2.64,1.59a2.1,2.1,0,0,0,2.13-2.37v-10.2h4.05c.87,0,1.44-.24,1.44-.66,0-.69-1.89-2.46-2.49-2.46-.42,0-1.17,1.02-1.77,1.92ZM5.19-1.35c-.03-3.48-.06-9.3-.06-10.08,0-1.23,0-8.16.15-10.26a3.242,3.242,0,0,0,.63-.15H24.99c.06,2.91-.03,15.27-.09,20.49Zm.87-21.69a8.752,8.752,0,0,0-2.79-1.14.407.407,0,0,0-.42.42c.51,4.56.12,21.3.12,25.05,0,.57.24.9.84.9.96,0,1.38-.39,1.38-1.08V-.15H24.9V.96a.9.9,0,0,0,.93,1.02c.84,0,1.41-.24,1.41-1.17,0-2.34-.36-17.49-.12-22.02.6-.24,1.17-.57,1.17-.99,0-.66-1.86-2.07-2.49-2.07-.33,0-.87.63-1.32,1.23ZM6.93,37.5c0-.96,0-5.67.09-7.11.63-.09,1.14-.27,1.14-.69s-.93-.9-1.65-1.2a40.555,40.555,0,0,0,2.97-6.15c.9.12,1.5-.03,1.47-.54,0-.66-2.01-1.59-3.09-1.8-.36-.03-.48.12-.54.45C6.48,25.14,3.84,30.12.54,34.41c-.54.75.18,1.32.81.69a27.6,27.6,0,0,0,3.51-4.05c.15,4.26-.03,13.29-.03,15.21a.738.738,0,0,0,.81.84c.9,0,1.32-.33,1.32-.99Zm19.98-8.79c1.14,0,1.71-.27,1.71-.69,0-.75-2.25-2.61-2.85-2.61-.48,0-1.32,1.14-1.98,2.1H19.08c.03-2.16.03-4.29.06-5.28.93-.18,1.53-.48,1.53-.99,0-.72-1.56-.9-3.42-.9-.27,0-.45.15-.39.42a54.752,54.752,0,0,1,.36,6.75H9.36c-.39,0-.66.15-.66.6,0,.48.27.6.66.6h6.69A28.47,28.47,0,0,1,7.86,40.8c-.69.6-.12,1.29.69.78a23.109,23.109,0,0,0,8.67-9.93V33.9c0,.99-.06,3.42-.12,5.91H12.66c-.39,0-.66.15-.66.6,0,.48.27.6.66.6h4.41c-.06,2.46-.12,4.71-.12,5.31a.821.821,0,0,0,.9.9c.93,0,1.35-.39,1.35-1.08,0-.57-.03-2.7-.06-5.13h4.53c.84,0,1.38-.21,1.38-.63,0-.66-1.83-2.31-2.4-2.31-.39,0-1.08.9-1.65,1.74H19.14c-.03-2.73-.06-5.49-.06-6.51V30.15c1.86,4.56,4.71,8.13,7.53,9.72.81.36,1.05.18,1.41-.36a2.154,2.154,0,0,1,1.17-.9c.48-.18.9-.6-.06-.9a17.272,17.272,0,0,1-9.48-9ZM15.09,67.68c.33.78.51,1.53,1.23,1.59a1.313,1.313,0,0,0,1.53-1.2c.15-1.32-1.29-2.28-2.7-2.88-.78-.33-1.14.24-.84.84A11.806,11.806,0,0,1,15.09,67.68Zm-7.8,5.55h3.18c.48,0,1.11-.18,1.11-.66,0-.6-1.53-2.4-2.1-2.4-.39,0-1.05.93-1.62,1.86H7.29c.03-2.04.03-4.05.06-4.98.9-.21,1.53-.54,1.53-1.02,0-.75-1.56-.93-3.51-.93-.27,0-.45.15-.39.42a55.833,55.833,0,0,1,.39,6.51H1.92c-.39,0-.66.15-.66.6,0,.48.27.6.66.6H5.4v.09A23.5,23.5,0,0,1,.69,83.04c-.63.81.06,1.38.81.78a18.418,18.418,0,0,0,3.9-4.68c-.03,2.67-.3,10.77-.3,12.06a.821.821,0,0,0,.9.9c.99,0,1.38-.36,1.38-1.05,0-1.29-.09-10.77-.09-12.93Zm3.96,6.93c.15-1.2-1.11-2.28-2.49-3-.72-.33-1.08.18-.81.78a12.319,12.319,0,0,1,.75,1.71c.33.84.48,1.53,1.2,1.62A1.154,1.154,0,0,0,11.25,80.16Zm5.4,4.71c-1.8.81-4.35,1.92-6.99,2.82-.24.06-.36.18-.27.45.48,1.56,1.05,2.49,1.68,2.4.48-.06.6-.81.63-1.53a32.176,32.176,0,0,0,5.52-3.21C18,85.11,17.58,84.51,16.65,84.87Zm-1.77-.45a1.213,1.213,0,0,0,1.26-1.32c.03-1.23-1.38-2.13-2.85-2.67-.81-.3-1.11.3-.75.87.33.54.72,1.08.99,1.62C13.89,83.7,14.16,84.42,14.88,84.42Zm12.48-5.79c.93,0,1.41-.21,1.41-.63,0-.63-1.86-2.28-2.4-2.28-.39,0-1.08.9-1.62,1.71H20.07V74.76h5.97c.87,0,1.32-.18,1.32-.57a4.38,4.38,0,0,0-2.25-2.16c-.36,0-.96.78-1.47,1.53H20.1c0-.78,0-1.53.03-2.19a2.126,2.126,0,0,0,.87-.42h6.09c.81,0,1.32-.18,1.32-.63a4.5,4.5,0,0,0-2.31-2.28c-.36,0-1.02.9-1.59,1.71H21.39a9.328,9.328,0,0,0,2.34-2.67c.93,0,1.32-.18,1.32-.6,0-.48-1.47-1.26-2.52-1.53a.464.464,0,0,0-.6.39,12.184,12.184,0,0,1-1.5,3.81.762.762,0,0,0-.09.6h-8.7c-.39,0-.66.15-.66.6,0,.48.27.6.66.6h6.42c.03.57.06,1.5.06,2.61h-5.4c-.39,0-.66.15-.66.6,0,.48.27.6.66.6h5.43l.06,2.67H11.55c-.39,0-.66.15-.66.6,0,.48.27.6.66.6h6.66c.03.99.03,1.92.03,2.7,0,2.58,0,5.43-.09,7.2-.06.84-.33,1.02-1.02,1.05-.27,0-.99-.06-1.74-.12-.57-.03-.72.72-.03.99,1.92.78,1.74,1.65,2.61,1.65,1.26,0,2.13-.96,2.13-2.52,0-2.16,0-4.56-.03-6.99,1.2,3.63,3.27,6.42,6.45,7.59.96.33,1.11.12,1.41-.3a2.059,2.059,0,0,1,1.05-.81c.48-.18.9-.63-.03-.84a10.958,10.958,0,0,1-6.51-3.78,21.252,21.252,0,0,0,4.02-2.55c.87.24,1.38.18,1.47-.24.12-.54-1.23-1.68-2.19-2.19-.3-.15-.48.06-.63.27a18.574,18.574,0,0,1-3.36,3.75,14.6,14.6,0,0,1-1.68-3.72V78.63ZM16.62,119.34c-1.41,4.02-5.73,9.87-8.61,9.87-.87,0-1.68-1.41-1.83-3.72a7.937,7.937,0,0,1,2.37-6.6,8.634,8.634,0,0,1,6.09-2.22,13.309,13.309,0,0,1,2.52.24A9.366,9.366,0,0,1,16.62,119.34Zm-1.89-4.17a11.43,11.43,0,0,0-7.35,2.67,9.783,9.783,0,0,0-3.15,8.34c.27,3.54,1.83,5.73,3.42,5.73,3.6,0,8.61-5.97,10.35-10.77a14.467,14.467,0,0,0,.84-3.69,7.392,7.392,0,0,1,4.65,7.14c0,4.92-3.36,7.11-8.55,8.13-.93.18-.87,1.11.18,1.11,6.18,0,10.8-2.97,10.8-8.73C25.92,119.7,21.9,115.17,14.73,115.17Z" transform="translate(201.75 3857)" fill="#8d857b"/>
    <path id="パス_86" data-name="パス 86" d="M9.42-2.91c-.33.42-.84.45-1.5.21a3.316,3.316,0,0,1-1.14-.69c-.39-.39-.33-.54,0-.81a29.309,29.309,0,0,1,4.29-2.55A9.651,9.651,0,0,1,9.42-2.91Zm3.81-11.28a26.315,26.315,0,0,0,3.69-1.08,1.176,1.176,0,0,0,.84-1.11c0-.57-.51-.81-1.05-.81-.63,0-1.32.18-1.98.24s-1.2,0-1.47-1.11a22.061,22.061,0,0,0-.24-3.36c-.15-.93-.39-1.11-.99-1.32a4.874,4.874,0,0,0-1.71-.27c-.6,0-1.44.66-1.44,1.08,0,.27.33.48.72.66.87.42,1.14.51,1.44,1.38a15.9,15.9,0,0,1,.63,4.23,25.038,25.038,0,0,1-3.72.33c-1.8-.09-2.7-.99-3.9-2.19-.6-.6-1.02-.36-1.02.33a4.259,4.259,0,0,0,1.95,3.24c.78.45,1.29.54,3.12.54a19.265,19.265,0,0,0,3.6-.45c0,.87-.03,1.62-.03,2.19-.03.99-.12,2.1-.27,3.24A56.854,56.854,0,0,0,5.82-5.67c-1.56.9-1.89,1.65-.57,2.88.87.81,1.56,1.38,2.16,1.89A3.312,3.312,0,0,0,9.27.03c.96,0,1.68-.84,2.37-2.46a20.362,20.362,0,0,0,1.17-5.1A16.7,16.7,0,0,1,19.8-9.27c1.92,0,3.45,1.05,3.45,2.76,0,1.68-1.05,3-3.33,3-1.92,0-3.12-.96-4.14-2.7-.42-.72-1.08-.51-.96.33a5.207,5.207,0,0,0,5.4,4.35c3.21,0,5.28-1.86,5.28-4.77,0-2.67-2.1-4.38-5.43-4.38a19.719,19.719,0,0,0-7.08,1.62c.09-1.11.15-2.16.18-3.09Zm14.04-1.23a6.939,6.939,0,0,0-6.57-.21c-.63.3-.48.96.18.93a6.932,6.932,0,0,1,5.37,1.74,1.193,1.193,0,0,0,2.01-.57C28.47-14.28,28.05-14.88,27.27-15.42ZM18.21,27.42c.57.93.99,1.65,1.77,1.56a1.3,1.3,0,0,0,1.2-1.53c-.15-1.44-1.98-2.46-3.75-2.88-.81-.18-1.05.42-.63.93A17.525,17.525,0,0,1,18.21,27.42Zm-.75,6.45c.6.93,1.05,1.65,1.83,1.53a1.25,1.25,0,0,0,1.11-1.53c-.18-1.44-1.98-2.43-3.78-2.85-.81-.15-1.05.48-.6.99A17.114,17.114,0,0,1,17.46,33.87Zm-6.24-4.98a18.6,18.6,0,0,0,2.25-3c.9.06,1.35-.09,1.35-.54.03-.54-1.62-1.5-2.7-1.8a.431.431,0,0,0-.54.42,22.869,22.869,0,0,1-1.32,4.35C9.93,29.1,10.56,29.43,11.22,28.89ZM2.49,27.24c.3,1.05.48,1.86,1.23,2.01a1.243,1.243,0,0,0,1.47-1.14c.24-1.32-1.11-2.85-2.7-3.84-.69-.42-1.11.12-.84.75A14.1,14.1,0,0,1,2.49,27.24Zm6.39,5.13H13.8c.69,0,1.32-.24,1.32-.69,0-.69-1.77-2.55-2.4-2.55-.42,0-1.17,1.08-1.8,2.04H8.88c0-2.76.03-7.17.06-8.67.93-.21,1.53-.51,1.53-1.02,0-.72-1.56-.9-3.48-.9A.347.347,0,0,0,6.6,21a79.68,79.68,0,0,1,.39,10.17H1.86c-.39,0-.66.15-.66.6,0,.48.27.6.66.6H6.51A27.2,27.2,0,0,1,.75,42.09c-.69.78-.06,1.41.75.84a20.64,20.64,0,0,0,5.43-6c-.06,3.39-.21,8.19-.21,9.15a.821.821,0,0,0,.9.9c.96,0,1.38-.39,1.38-1.05,0-1.26-.12-10.53-.12-12.6Zm4.05,6a1.235,1.235,0,0,0,1.2-1.44c-.12-1.35-1.77-2.28-3.42-2.7-.78-.18-1.05.42-.63.93a20.107,20.107,0,0,1,1.2,1.74C11.82,37.74,12.18,38.43,12.93,38.37Zm11.85-.87c0-1.74-.03-3.3-.03-4.02,0-1.14,0-8.46.09-10.5.93-.21,1.56-.57,1.56-1.08,0-.75-1.71-.93-3.69-.93a.376.376,0,0,0-.42.45c.48,2.94.39,11.22.39,12.48,0,.81-.03,2.28-.06,3.93l-9.93,1.5c-.39.06-.63.24-.57.69.06.48.36.54.72.48l9.75-1.44c-.09,2.97-.18,6.12-.18,6.9a.853.853,0,0,0,.96.9c.99,0,1.53-.39,1.53-1.05,0-.72-.06-4.02-.09-7.08l3.75-.57c.66-.09,1.2-.39,1.14-.84a4.477,4.477,0,0,0-2.61-2.1c-.39.06-.99,1.17-1.44,2.16ZM7.53,77.28H10.5c.63,0,1.23-.18,1.23-.63a4.464,4.464,0,0,0-2.22-2.34c-.39,0-1.05.9-1.62,1.77H7.53v-6.3a.88.88,0,0,0,.6-.51h2.4c.93,0,1.53-.24,1.53-.66,0-.72-2.01-2.49-2.61-2.49-.45,0-1.2,1.05-1.83,1.95H1.95c-.39,0-.66.15-.66.6,0,.48.27.6.66.6H5.52v6.81H2.22c-.39,0-.66.15-.66.6,0,.48.27.6.66.6h3.3V84.3c-1.35.39-2.79.78-4.32,1.14a.331.331,0,0,0-.33.42c.27,1.59.75,2.79,1.38,2.79.51,0,.78-.69.87-1.44A37.915,37.915,0,0,0,11.4,83.4c.99-.66.63-1.47-.48-1.02-.99.42-2.13.84-3.39,1.26Zm7.11,1.53-.03-4.29v-.09h3.87v4.38Zm5.82-9.57c.36-.12.57-.33.6-.57H24.6c.03.93.03,2.67,0,4.56H20.46Zm-1.98-.57v4.56H14.61c0-1.5.03-3.69.09-4.56Zm1.98,10.14V74.43H24.6l-.03,4.38Zm0,10.56v-3.9h5.43c.87,0,1.44-.24,1.44-.66-.03-.69-1.92-2.43-2.49-2.43-.42,0-1.17.99-1.77,1.89H20.46V80.01h4.08v.87c0,.48.21,1.02.9,1.02.78,0,1.26-.21,1.26-1.14,0-1.41-.15-9-.03-11.67.51-.21.99-.48.99-.87,0-.66-1.71-1.95-2.28-1.95-.33,0-.84.63-1.29,1.2H15.33a6.217,6.217,0,0,0-2.43-1.02.339.339,0,0,0-.42.36c.33,3.3.12,12.27.09,14.82,0,.54.27.84.78.84.87,0,1.29-.3,1.29-.96v-1.5h3.81v4.26H12.18c-.39,0-.66.15-.66.6,0,.48.27.6.66.6h6.27v3.9H8.7c-.39,0-.66.15-.66.6,0,.48.27.6.66.6H27.48c.93,0,1.44-.24,1.44-.66,0-.69-1.92-2.49-2.52-2.49-.42,0-1.2,1.02-1.8,1.95Z" transform="translate(143.25 3890)" fill="#8d857b"/>
  </g>
</svg>
