<svg xmlns="http://www.w3.org/2000/svg" width="270.52" height="92.61" viewBox="0 0 270.52 92.61">
  <path id="パス_33" data-name="パス 33" d="M9.42-19.26c.24,0,.27.06.27.51V-5.37c0,1.53-.03,2.31-.06,2.67-.09,1.11-.3,1.44-2.49,1.68C6-.93,6.12.06,7.11.06,7.65.06,9.87,0,10.98,0c1.17,0,1.92.06,3.72.06,1.35,0,1.35-.96.15-1.08-2.31-.24-2.55-.6-2.58-1.68-.03-.66-.06-1.26-.06-2.52V-18.84c0-.33.03-.36.21-.36,5.16,0,5.91-.06,6.33.18.39.24.63.84.78,2.19.15,1.2,1.2,1.2,1.2-.18a17.907,17.907,0,0,1,.42-3.81.518.518,0,0,0-.81-.6,2.748,2.748,0,0,1-2.22.72H4.62c-.9,0-1.44-.06-1.86-.66a.572.572,0,0,0-.99.3,35.788,35.788,0,0,1-.33,4.47c-.12,1.08.87,1.08,1.17.09.57-1.89.9-2.43,1.44-2.61C4.5-19.23,5.22-19.26,9.42-19.26ZM31.11-7.5c-.45-.03-.87-.06-1.17-.06-3.39,0-7.32,1.53-7.32,4.29A3.414,3.414,0,0,0,25.83.45c1.38,0,2.97-.66,5.13-2.49C31.02-.54,31.14.3,32.1.33a5.362,5.362,0,0,0,2.85-.72c.63-.36.63-1.17,0-1.14-.57,0-1.44.03-1.71-.45a1.293,1.293,0,0,1-.09-.6c0-.36.09-5.01.09-6.96s-.69-4.89-4.26-4.89a12.132,12.132,0,0,0-5.22,2.34,1.037,1.037,0,0,0-.42.9,3.054,3.054,0,0,0,.3,1.35c.39.9,1.08.72,1.32.09.27-.66.42-1.5.72-2.07a2,2,0,0,1,2.04-1.02c1.47,0,3.27.84,3.39,3.81Zm0,3.18a1.255,1.255,0,0,1-.36,1.08A4.2,4.2,0,0,1,27.39-1.5a2.071,2.071,0,0,1-2.31-2.22c0-1.56,1.38-2.52,3.45-2.55a11.115,11.115,0,0,1,2.37.12c.12.03.21.03.21.21Zm11.13-.87a20.862,20.862,0,0,1-.09,2.82c-.06.87-.15,1.08-1.5,1.35-.9.15-.93,1.08.09,1.08.78,0,1.62-.06,2.61-.06,1.08,0,2.07.06,2.73.06.96,0,1.02-.93.15-1.08-1.5-.27-1.62-.48-1.65-1.32a16.087,16.087,0,0,1-.09-2.4v-5.1a1.012,1.012,0,0,1,.21-.78,4.83,4.83,0,0,1,3.39-1.83c2.28,0,3.39,1.44,3.39,3.66v2.01c0,2.91-.06,3.6-.09,4.2-.03.96-.12,1.26-1.71,1.56-.93.15-.93,1.08.15,1.08C50.4.06,51.57,0,52.35,0c1.02,0,1.83.06,2.79.06.99,0,1.02-.93.09-1.08-1.32-.24-1.5-.36-1.5-1.32v-6.9c0-3.36-1.65-5.19-4.17-5.19a4.707,4.707,0,0,0-2.52.78,21.906,21.906,0,0,0-2.49,1.8,10.247,10.247,0,0,0-.15-2.1c-.06-.33-.18-.48-.45-.48a2.039,2.039,0,0,0-.78.33,10.554,10.554,0,0,1-2.4,1.2.486.486,0,0,0-.06.93c1.38.45,1.53.72,1.53,1.62ZM69.15-7.5c-.45-.03-.87-.06-1.17-.06-3.39,0-7.32,1.53-7.32,4.29A3.414,3.414,0,0,0,63.87.45c1.38,0,2.97-.66,5.13-2.49.06,1.5.18,2.34,1.14,2.37a5.362,5.362,0,0,0,2.85-.72c.63-.36.63-1.17,0-1.14-.57,0-1.44.03-1.71-.45a1.293,1.293,0,0,1-.09-.6c0-.36.09-5.01.09-6.96s-.69-4.89-4.26-4.89a12.132,12.132,0,0,0-5.22,2.34,1.037,1.037,0,0,0-.42.9,3.053,3.053,0,0,0,.3,1.35c.39.9,1.08.72,1.32.09.27-.66.42-1.5.72-2.07a2,2,0,0,1,2.04-1.02c1.47,0,3.27.84,3.39,3.81Zm0,3.18a1.255,1.255,0,0,1-.36,1.08A4.2,4.2,0,0,1,65.43-1.5a2.071,2.071,0,0,1-2.31-2.22c0-1.56,1.38-2.52,3.45-2.55a11.115,11.115,0,0,1,2.37.12c.12.03.21.03.21.21Zm13.11-16.2a13.173,13.173,0,0,1,.18-2.76c.18-.51,0-.84-.36-.84a1.862,1.862,0,0,0-.75.3,13.017,13.017,0,0,1-3.21.96c-.75.15-.72.84-.03,1.02,1.47.33,1.77.45,1.83,1.29.06.57.06,1.17.06,3.48V-5.64c0,2.37-.06,3.03-.09,3.42-.09.66-.18.96-1.5,1.2-.93.15-.81,1.08.09,1.08.96,0,1.47-.06,2.76-.06.93,0,2.04.06,2.61.06.99,0,1.05-.93.12-1.08-1.41-.27-1.59-.54-1.65-1.23-.03-.39-.06-.93-.06-2.91v-.78c.48-.33.96-.63,1.47-.99.21-.18.3-.12.36,0,1.62,2.43,3.06,4.38,3.84,5.43.9,1.2,1.53,1.56,2.1,1.62A11.6,11.6,0,0,0,93.12.09c1.05-.18.96-1.08.06-1.11-1.53-.06-1.92-.24-3.21-1.68C88.83-4.05,87-6.33,85.65-8.31c1.35-1.17,2.67-2.31,3.87-3.3a6.234,6.234,0,0,1,2.1-1.26c.54-.21.69-.42.69-.69,0-.24-.18-.42-.78-.42s-1.5.09-2.37.12c-.9.03-1.92.03-2.61.03-1.05,0-1.08.96-.09,1.11,1.14.21,1.47.3,1.47.51,0,.24-.27.48-.9,1.11a34.109,34.109,0,0,1-4.77,3.96ZM106.44-7.5c-.45-.03-.87-.06-1.17-.06-3.39,0-7.32,1.53-7.32,4.29A3.414,3.414,0,0,0,101.16.45c1.38,0,2.97-.66,5.13-2.49.06,1.5.18,2.34,1.14,2.37a5.362,5.362,0,0,0,2.85-.72c.63-.36.63-1.17,0-1.14-.57,0-1.44.03-1.71-.45a1.293,1.293,0,0,1-.09-.6c0-.36.09-5.01.09-6.96s-.69-4.89-4.26-4.89a12.131,12.131,0,0,0-5.22,2.34,1.037,1.037,0,0,0-.42.9,3.054,3.054,0,0,0,.3,1.35c.39.9,1.08.72,1.32.09.27-.66.42-1.5.72-2.07a2,2,0,0,1,2.04-1.02c1.47,0,3.27.84,3.39,3.81Zm0,3.18a1.255,1.255,0,0,1-.36,1.08,4.2,4.2,0,0,1-3.36,1.74,2.071,2.071,0,0,1-2.31-2.22c0-1.56,1.38-2.52,3.45-2.55a11.115,11.115,0,0,1,2.37.12c.12.03.21.03.21.21Zm10.14-6.48c1.08,2.34,2.94,6.6,4.38,10.08a.629.629,0,0,1-.03.48c-.51.99-.99,1.98-1.56,3.06-.72,1.2-1.08,1.83-1.83,3a4.908,4.908,0,0,0-.9,1.95c0,.51.66,1.08,1.68,1.08a.729.729,0,0,0,.81-.57c.24-.75.69-2.1,2.13-5.67,2.85-6.81,5.04-11.43,6.03-13.68.51-1.11.72-1.41,1.83-1.68,1.08-.24.96-1.17-.06-1.14-.78,0-1.71.06-2.37.06-.87,0-1.8-.06-2.37-.06-.99.03-.99.93-.03,1.11,1.5.3,1.65.51,1.35,1.59-.3.87-1.59,4.2-3.21,7.77-.06.12-.15.09-.24-.06-.78-1.98-2.19-5.4-3.33-8.19-.24-.66-.09-.84,1.08-1.11.84-.18.81-1.11-.15-1.11-.57,0-1.95.06-2.55.06-.87,0-2.04-.09-2.79-.06-.96.03-.99.93-.03,1.08C115.74-12.54,115.89-12.15,116.58-10.8Zm25.65,3.3c-.45-.03-.87-.06-1.17-.06-3.39,0-7.32,1.53-7.32,4.29A3.414,3.414,0,0,0,136.95.45c1.38,0,2.97-.66,5.13-2.49.06,1.5.18,2.34,1.14,2.37a5.362,5.362,0,0,0,2.85-.72c.63-.36.63-1.17,0-1.14-.57,0-1.44.03-1.71-.45a1.293,1.293,0,0,1-.09-.6c0-.36.09-5.01.09-6.96s-.69-4.89-4.26-4.89a12.132,12.132,0,0,0-5.22,2.34,1.037,1.037,0,0,0-.42.9,3.054,3.054,0,0,0,.3,1.35c.39.9,1.08.72,1.32.09.27-.66.42-1.5.72-2.07a2,2,0,0,1,2.04-1.02c1.47,0,3.27.84,3.39,3.81Zm0,3.18a1.255,1.255,0,0,1-.36,1.08,4.2,4.2,0,0,1-3.36,1.74,2.071,2.071,0,0,1-2.31-2.22c0-1.56,1.38-2.52,3.45-2.55a11.114,11.114,0,0,1,2.37.12c.12.03.21.03.21.21Zm22.05.66c-.93,2.16-1.38,2.34-3.03,2.67-.99.21-.9,1.08.06,1.08.42,0,1.86-.09,3.21-.09,1.32,0,2.13.06,3,.06,1.08,0,1.17-.93.12-1.08-2.16-.36-2.31-.6-1.71-2.25.66-1.89,1.29-3.45,1.77-4.62.09-.15.18-.27.33-.27h6.3c.42,0,.51.06.6.33.72,1.77,1.8,4.32,2.22,5.55.24.69.15.99-1.08,1.23-1.08.18-1.02,1.11.12,1.11.63,0,2.07-.06,3.03-.06,1.17,0,2.31.06,3,.06,1.08,0,1.26-.96-.06-1.11a2.575,2.575,0,0,1-2.37-1.92c-1.89-4.29-4.83-11.43-6.54-16.02a5.144,5.144,0,0,1-.42-1.65c-.06-.36-.18-.45-.48-.45-.45,0-1.47,1.02-1.53,1.32-.06.18-.21.75-.48,1.41C169.02-15.24,165.57-6.66,164.28-3.66Zm6.99-13.53c1.2,3,2.07,5.43,2.88,7.26.06.15.09.27-.27.27h-5.34c-.18,0-.21-.03-.18-.18C169.11-11.58,170.7-15.84,171.27-17.19Zm18.15,12a20.863,20.863,0,0,1-.09,2.82c-.06.87-.15,1.08-1.5,1.35-.9.15-.93,1.08.09,1.08.78,0,1.62-.06,2.61-.06,1.08,0,2.07.06,2.73.06.96,0,1.02-.93.15-1.08-1.5-.27-1.62-.48-1.65-1.32a16.085,16.085,0,0,1-.09-2.4v-5.1a1.012,1.012,0,0,1,.21-.78,4.83,4.83,0,0,1,3.39-1.83c2.28,0,3.39,1.44,3.39,3.66v2.01c0,2.91-.06,3.6-.09,4.2-.03.96-.12,1.26-1.71,1.56-.93.15-.93,1.08.15,1.08.57,0,1.74-.06,2.52-.06,1.02,0,1.83.06,2.79.06.99,0,1.02-.93.09-1.08-1.32-.24-1.5-.36-1.5-1.32v-6.9c0-3.36-1.65-5.19-4.17-5.19a4.707,4.707,0,0,0-2.52.78,21.906,21.906,0,0,0-2.49,1.8,10.247,10.247,0,0,0-.15-2.1c-.06-.33-.18-.48-.45-.48a2.039,2.039,0,0,0-.78.33,10.553,10.553,0,0,1-2.4,1.2.486.486,0,0,0-.06.93c1.38.45,1.53.72,1.53,1.62Zm29.34-8.76a5.366,5.366,0,0,0-2.31-.48,8.68,8.68,0,0,0-4.56,1.38,7.555,7.555,0,0,0-3.81,6.72c0,3.9,2.64,6.72,5.37,6.72,1.68,0,3.3-.78,5.25-2.34.09,1.53.27,2.46.96,2.46a7.5,7.5,0,0,0,3.27-1.08c.81-.48.57-1.11-.03-1.11-.21,0-.57.03-.69.03-1.14,0-1.2-.54-1.2-3.06V-20.97a7.508,7.508,0,0,1,.3-2.58.436.436,0,0,0-.33-.57,4.462,4.462,0,0,0-1.23.42,13.332,13.332,0,0,1-2.97.84c-.84.12-.81.9,0,1.05,1.38.27,1.83.45,1.89.93a13.907,13.907,0,0,1,.09,2.01Zm-3.72,1.14a4.947,4.947,0,0,1,3.33,1.02.959.959,0,0,1,.39.87v6.87a1.5,1.5,0,0,1-.21.99,4.821,4.821,0,0,1-3.54,1.47c-2.85,0-4.44-2.7-4.44-5.73C210.57-10.98,212.19-12.81,215.04-12.81ZM19.11,49.59c.12,0,.15.06.15.21v4.89c0,1.56-.03,2.07-.09,2.82-.06.96-.27,1.14-2.04,1.44-1.02.12-.99,1.14,0,1.14.72,0,1.8-.09,3.3-.09,1.8,0,2.61.06,3.54.06,1.11,0,1.17-.99.03-1.11-1.86-.3-2.04-.45-2.13-1.5-.03-.54-.06-1.14-.06-3.06v-9.9a26.21,26.21,0,0,1,.09-2.97c.09-.63.42-.96,2.1-1.17,1.14-.12,1.11-1.11.03-1.11-.72,0-1.95.06-3.36.06-1.59,0-2.91-.06-3.51-.06-1.2,0-1.14.96.03,1.08,1.74.27,1.95.48,2.01,1.35.03.57.06.93.06,2.91v3.21c0,.15,0,.24-.15.24H7.5c-.24,0-.27-.09-.27-.36V44.4c0-1.59,0-2.25.06-2.82.06-.78.57-1.02,2.19-1.26,1.08-.15,1.08-1.08.03-1.08-.69,0-2.07.06-3.84.06-1.5,0-2.76-.06-3.24-.06-.99,0-1.05.96,0,1.08,1.86.24,2.16.54,2.22,1.29.03.51.06,1.32.06,3.03v9.81c0,1.74-.03,2.28-.06,2.94-.06,1.05-.39,1.32-2.13,1.56-.99.09-1.02,1.11.03,1.11.51,0,2.07-.06,3.42-.06,1.47,0,2.97.06,3.57.06,1.11,0,1.11-1.02,0-1.11-2.04-.21-2.19-.66-2.25-1.56-.03-.54-.06-1.14-.06-2.88V49.86c0-.21.06-.27.24-.27ZM38.22,52.5c-.45-.03-.87-.06-1.17-.06-3.39,0-7.32,1.53-7.32,4.29a3.414,3.414,0,0,0,3.21,3.72c1.38,0,2.97-.66,5.13-2.49.06,1.5.18,2.34,1.14,2.37a5.362,5.362,0,0,0,2.85-.72c.63-.36.63-1.17,0-1.14-.57,0-1.44.03-1.71-.45a1.293,1.293,0,0,1-.09-.6c0-.36.09-5.01.09-6.96s-.69-4.89-4.26-4.89a12.131,12.131,0,0,0-5.22,2.34,1.037,1.037,0,0,0-.42.9,3.054,3.054,0,0,0,.3,1.35c.39.9,1.08.72,1.32.09.27-.66.42-1.5.72-2.07a2,2,0,0,1,2.04-1.02c1.47,0,3.27.84,3.39,3.81Zm0,3.18a1.255,1.255,0,0,1-.36,1.08A4.2,4.2,0,0,1,34.5,58.5a2.071,2.071,0,0,1-2.31-2.22c0-1.56,1.38-2.52,3.45-2.55a11.115,11.115,0,0,1,2.37.12c.12.03.21.03.21.21ZM51.99,51.3c-1.14-.45-2.04-.99-2.04-2.37,0-1.02.51-2.04,2.28-2.04a2.712,2.712,0,0,1,2.58,1.29,5.084,5.084,0,0,1,.51,1.53c.15.81,1.08.66,1.08-.33a22.2,22.2,0,0,1,.3-3.78c.09-.48-.45-.51-.81-.24-.18.12-.33.36-.54.51-.09.06-.12.09-.33.03a6.091,6.091,0,0,0-1.98-.33,5.824,5.824,0,0,0-3.6,1.14,3.666,3.666,0,0,0,1.17,6.63c.87.33,2.01.75,2.88,1.11a2.369,2.369,0,0,1,1.59,2.22q0,2.43-2.61,2.43a3.361,3.361,0,0,1-3.42-2.01c-.12-.33-.36-.99-.42-1.17-.27-.9-1.2-.72-1.11.21.15,1.5.24,2.64.24,3.69,0,.84.75.63,1.08.24.18-.24.33-.18.51-.09a5.871,5.871,0,0,0,2.43.48,6.347,6.347,0,0,0,3.24-.87,4.558,4.558,0,0,0,2.4-3.99c0-1.83-1.41-2.79-2.79-3.36Zm13.53-.51c.33-2.64,1.74-3.72,3.33-3.72a3.5,3.5,0,0,1,3.57,3.45c0,.15-.03.27-.15.33a36.115,36.115,0,0,1-5.46.27,10.24,10.24,0,0,1-1.11-.06C65.55,51.03,65.52,50.97,65.52,50.79Zm-.09,1.71c5.73,0,7.26-.33,8.46-.66.54-.15,1.14-.54,1.14-1.08,0-.27-.15-.36-.33-.45a4.74,4.74,0,0,0-4.86-4.74,6.566,6.566,0,0,0-4.2,1.71,7.889,7.889,0,0,0-2.58,6c0,4.08,2.43,7.11,5.91,7.11a7.833,7.833,0,0,0,5.25-2.07c.75-.75.48-1.59-.45-1.02a5.8,5.8,0,0,1-3.36,1.08C67.5,58.38,65.49,56.49,65.43,52.5Zm25.68-6.45a5.366,5.366,0,0,0-2.31-.48,8.68,8.68,0,0,0-4.56,1.38,7.555,7.555,0,0,0-3.81,6.72c0,3.9,2.64,6.72,5.37,6.72,1.68,0,3.3-.78,5.25-2.34.09,1.53.27,2.46.96,2.46a7.5,7.5,0,0,0,3.27-1.08c.81-.48.57-1.11-.03-1.11-.21,0-.57.03-.69.03-1.14,0-1.2-.54-1.2-3.06V39.03a7.508,7.508,0,0,1,.3-2.58.436.436,0,0,0-.33-.57,4.462,4.462,0,0,0-1.23.42,13.332,13.332,0,0,1-2.97.84c-.84.12-.81.9,0,1.05,1.38.27,1.83.45,1.89.93a13.905,13.905,0,0,1,.09,2.01Zm-3.72,1.14a4.947,4.947,0,0,1,3.33,1.02.959.959,0,0,1,.39.87v6.87a1.5,1.5,0,0,1-.21.99,4.821,4.821,0,0,1-3.54,1.47c-2.85,0-4.44-2.7-4.44-5.73C82.92,49.02,84.54,47.19,87.39,47.19Zm15.66,3.6c.33-2.64,1.74-3.72,3.33-3.72a3.5,3.5,0,0,1,3.57,3.45c0,.15-.03.27-.15.33a36.116,36.116,0,0,1-5.46.27,10.24,10.24,0,0,1-1.11-.06C103.08,51.03,103.05,50.97,103.05,50.79Zm-.09,1.71c5.73,0,7.26-.33,8.46-.66.54-.15,1.14-.54,1.14-1.08,0-.27-.15-.36-.33-.45a4.74,4.74,0,0,0-4.86-4.74,6.566,6.566,0,0,0-4.2,1.71,7.889,7.889,0,0,0-2.58,6c0,4.08,2.43,7.11,5.91,7.11a7.833,7.833,0,0,0,5.25-2.07c.75-.75.48-1.59-.45-1.02a5.8,5.8,0,0,1-3.36,1.08C105.03,58.38,103.02,56.49,102.96,52.5Zm23.34-6.93c-.96,0-1.86.48-4.35,2.94a15.254,15.254,0,0,0-.18-2.37c-.06-.33-.21-.57-.45-.57a.956.956,0,0,0-.51.18,25.815,25.815,0,0,1-2.73,1.38c-.48.21-.48.72,0,.9,1.14.36,1.44.57,1.47,1.02a9.925,9.925,0,0,1,.09,1.98v4.92a11.7,11.7,0,0,1-.09,1.89c-.06.72-.12.84-1.38,1.17-.81.21-.72,1.05.09,1.05.72,0,1.5-.06,2.79-.06s2.34.06,2.97.06c.84,0,.96-.84.06-1.02-1.74-.33-2.01-.45-2.07-1.32-.03-.45-.06-1.05-.06-1.8V50.01a.631.631,0,0,1,.15-.45,3.417,3.417,0,0,1,2.58-1.44,2.07,2.07,0,0,1,1.59.75c.45.51.51.57.78.57.3,0,.57-.33.66-.57a3.028,3.028,0,0,0,.42-1.59A1.739,1.739,0,0,0,126.3,45.57Zm14.97,6.93c-.45-.03-.87-.06-1.17-.06-3.39,0-7.32,1.53-7.32,4.29a3.414,3.414,0,0,0,3.21,3.72c1.38,0,2.97-.66,5.13-2.49.06,1.5.18,2.34,1.14,2.37a5.362,5.362,0,0,0,2.85-.72c.63-.36.63-1.17,0-1.14-.57,0-1.44.03-1.71-.45a1.293,1.293,0,0,1-.09-.6c0-.36.09-5.01.09-6.96s-.69-4.89-4.26-4.89a12.132,12.132,0,0,0-5.22,2.34,1.037,1.037,0,0,0-.42.9,3.054,3.054,0,0,0,.3,1.35c.39.9,1.08.72,1.32.09.27-.66.42-1.5.72-2.07a2,2,0,0,1,2.04-1.02c1.47,0,3.27.84,3.39,3.81Zm0,3.18a1.255,1.255,0,0,1-.36,1.08,4.2,4.2,0,0,1-3.36,1.74,2.071,2.071,0,0,1-2.31-2.22c0-1.56,1.38-2.52,3.45-2.55a11.115,11.115,0,0,1,2.37.12c.12.03.21.03.21.21Zm28.2-14.94c.24,0,.27.06.27.51V54.63c0,1.53-.03,2.31-.06,2.67-.09,1.11-.3,1.44-2.49,1.68-1.14.09-1.02,1.08-.03,1.08.54,0,2.76-.06,3.87-.06,1.17,0,1.92.06,3.72.06,1.35,0,1.35-.96.15-1.08-2.31-.24-2.55-.6-2.58-1.68-.03-.66-.06-1.26-.06-2.52V41.16c0-.33.03-.36.21-.36,5.16,0,5.91-.06,6.33.18.39.24.63.84.78,2.19.15,1.2,1.2,1.2,1.2-.18a17.907,17.907,0,0,1,.42-3.81.518.518,0,0,0-.81-.6,2.748,2.748,0,0,1-2.22.72h-13.5c-.9,0-1.44-.06-1.86-.66a.572.572,0,0,0-.99.3,35.788,35.788,0,0,1-.33,4.47c-.12,1.08.87,1.08,1.17.09.57-1.89.9-2.43,1.44-2.61C164.55,40.77,165.27,40.74,169.47,40.74Zm15.27,10.05c.33-2.64,1.74-3.72,3.33-3.72a3.5,3.5,0,0,1,3.57,3.45c0,.15-.03.27-.15.33a36.116,36.116,0,0,1-5.46.27,10.24,10.24,0,0,1-1.11-.06C184.77,51.03,184.74,50.97,184.74,50.79Zm-.09,1.71c5.73,0,7.26-.33,8.46-.66.54-.15,1.14-.54,1.14-1.08,0-.27-.15-.36-.33-.45a4.74,4.74,0,0,0-4.86-4.74,6.566,6.566,0,0,0-4.2,1.71,7.889,7.889,0,0,0-2.58,6c0,4.08,2.43,7.11,5.91,7.11a7.833,7.833,0,0,0,5.25-2.07c.75-.75.48-1.59-.45-1.02a5.8,5.8,0,0,1-3.36,1.08C186.72,58.38,184.71,56.49,184.65,52.5Zm27.48-4.47a3.686,3.686,0,0,0-3.48-2.46,4.383,4.383,0,0,0-2.76.87c-1.14.84-1.98,1.44-2.31,1.71a15.579,15.579,0,0,0-.15-2.07c-.06-.3-.24-.51-.45-.51a1.173,1.173,0,0,0-.66.3,13.147,13.147,0,0,1-2.52,1.29.461.461,0,0,0,0,.9c1.23.36,1.41.69,1.44,1.02a8.762,8.762,0,0,1,.09,1.65v4.41a21.6,21.6,0,0,1-.06,2.64c-.12.84-.27.93-1.59,1.23-.81.15-.78,1.05.09,1.05.75,0,1.8-.06,2.64-.06.81,0,2.28.06,2.82.06.87,0,.93-.93.18-1.05-1.5-.3-1.68-.54-1.74-1.35-.03-.33-.09-1.08-.09-2.22V49.89c0-.24,0-.36.15-.51a4.419,4.419,0,0,1,3.36-1.77c2.04,0,3.3.96,3.3,4.2V55.8c0,1.17-.03,1.8-.06,2.1-.06.57-.15.78-1.59,1.08-.93.15-.81,1.08.09,1.08.6,0,1.68-.06,2.49-.06s2.28.06,2.73.06c.87,0,.96-.84.06-1.05-1.38-.33-1.47-.45-1.47-1.65V50.49a5.416,5.416,0,0,0-.15-1.35c0-.06.06-.12.12-.24a4.626,4.626,0,0,1,3.18-1.29c1.95,0,3.27.96,3.27,4.02v3.36a22.971,22.971,0,0,1-.12,3.12c-.06.33-.3.63-1.62.9-.87.15-.78,1.05.06,1.05.54,0,2.28-.06,2.88-.06,1.14,0,1.89.06,2.55.06.87,0,.96-.84.12-1.05-1.26-.3-1.44-.33-1.53-.93a17.2,17.2,0,0,1-.06-1.92V50.49c0-2.58-1.41-4.92-4.17-4.92a4.927,4.927,0,0,0-2.61.72C213.75,46.83,212.7,47.55,212.13,48.03Zm20.37,2.22c0-.51.03-.69.24-.84a5.317,5.317,0,0,1,3.84-1.8c2.1,0,4.26,1.62,4.26,5.43,0,3.42-1.44,5.73-4.8,5.73a5.8,5.8,0,0,1-3.36-.93c-.15-.12-.18-.21-.18-.45Zm0,9.78a5.5,5.5,0,0,0,2.22.48,8.738,8.738,0,0,0,5.07-1.83,8.145,8.145,0,0,0,3.54-6.93c0-3.66-2.55-6.18-5.1-6.18-1.74,0-2.67.57-5.73,2.67-.03-1.65-.18-2.67-.72-2.67a13.583,13.583,0,0,0-3.42,1.38c-.48.33-.45.87.15.99,1.5.27,1.59.54,1.65,1.26.03.48.06,1.38.06,2.64v9.93c0,2.22-.03,3.6-.09,4.41-.09.66-.15.87-1.56,1.26-.78.18-.72,1.05.12,1.05.6,0,2.22-.24,4.71-.24h1.2c.99,0,.99-.93,0-1.08-1.8-.27-2.1-.39-2.1-1.98Zm20.34-2.28c-.03-.39-.06-.93-.06-2.94V39.48a13.174,13.174,0,0,1,.18-2.76c.18-.54,0-.84-.36-.84a2.041,2.041,0,0,0-.75.3,13.017,13.017,0,0,1-3.21.96c-.72.15-.69.84-.03.99,1.47.33,1.71.48,1.83,1.29.06.6.06,1.2.06,3.51V54.36a28.3,28.3,0,0,1-.09,3.42c-.12.66-.24.96-1.53,1.2-.9.15-.78,1.08.09,1.08.99,0,1.53-.06,2.82-.06.93,0,2.01.06,2.61.06.96,0,1.02-.93.12-1.08C253.08,58.71,252.9,58.44,252.84,57.75Zm9.6-6.96c.33-2.64,1.74-3.72,3.33-3.72a3.5,3.5,0,0,1,3.57,3.45c0,.15-.03.27-.15.33a36.116,36.116,0,0,1-5.46.27,10.24,10.24,0,0,1-1.11-.06C262.47,51.03,262.44,50.97,262.44,50.79Zm-.09,1.71c5.73,0,7.26-.33,8.46-.66.54-.15,1.14-.54,1.14-1.08,0-.27-.15-.36-.33-.45a4.74,4.74,0,0,0-4.86-4.74,6.566,6.566,0,0,0-4.2,1.71,7.889,7.889,0,0,0-2.58,6c0,4.08,2.43,7.11,5.91,7.11a7.833,7.833,0,0,0,5.25-2.07c.75-.75.48-1.59-.45-1.02a5.8,5.8,0,0,1-3.36,1.08C264.42,58.38,262.41,56.49,262.35,52.5Z" transform="translate(-1.43 24.12)" fill="#8d857b"/>
</svg>
