<svg xmlns="http://www.w3.org/2000/svg" width="125.243" height="27.423" viewBox="0 0 125.243 27.423">
  <path id="パス_42" data-name="パス 42" d="M9.42-2.91c-.33.42-.84.45-1.5.21a3.316,3.316,0,0,1-1.14-.69c-.39-.39-.33-.54,0-.81a29.309,29.309,0,0,1,4.29-2.55A9.651,9.651,0,0,1,9.42-2.91Zm3.81-11.28a26.315,26.315,0,0,0,3.69-1.08,1.176,1.176,0,0,0,.84-1.11c0-.57-.51-.81-1.05-.81-.63,0-1.32.18-1.98.24s-1.2,0-1.47-1.11a22.061,22.061,0,0,0-.24-3.36c-.15-.93-.39-1.11-.99-1.32a4.874,4.874,0,0,0-1.71-.27c-.6,0-1.44.66-1.44,1.08,0,.27.33.48.72.66.87.42,1.14.51,1.44,1.38a15.9,15.9,0,0,1,.63,4.23,25.038,25.038,0,0,1-3.72.33c-1.8-.09-2.7-.99-3.9-2.19-.6-.6-1.02-.36-1.02.33a4.259,4.259,0,0,0,1.95,3.24c.78.45,1.29.54,3.12.54a19.265,19.265,0,0,0,3.6-.45c0,.87-.03,1.62-.03,2.19-.03.99-.12,2.1-.27,3.24A56.854,56.854,0,0,0,5.82-5.67c-1.56.9-1.89,1.65-.57,2.88.87.81,1.56,1.38,2.16,1.89A3.312,3.312,0,0,0,9.27.03c.96,0,1.68-.84,2.37-2.46a20.362,20.362,0,0,0,1.17-5.1A16.7,16.7,0,0,1,19.8-9.27c1.92,0,3.45,1.05,3.45,2.76,0,1.68-1.05,3-3.33,3-1.92,0-3.12-.96-4.14-2.7-.42-.72-1.08-.51-.96.33a5.207,5.207,0,0,0,5.4,4.35c3.21,0,5.28-1.86,5.28-4.77,0-2.67-2.1-4.38-5.43-4.38a19.719,19.719,0,0,0-7.08,1.62c.09-1.11.15-2.16.18-3.09Zm14.04-1.23a6.939,6.939,0,0,0-6.57-.21c-.63.3-.48.96.18.93a6.932,6.932,0,0,1,5.37,1.74,1.193,1.193,0,0,0,2.01-.57C28.47-14.28,28.05-14.88,27.27-15.42ZM43.5-7.74v-2.61h9.6l-.03,2.61Zm9.63-6.51v2.7H43.5c.03-1.08.06-2.13.09-2.7ZM43.5-6.54h3.66A14.34,14.34,0,0,0,58.17,1.92a1.11,1.11,0,0,0,1.44-.57A2.5,2.5,0,0,1,60.9.45c.69-.24.78-.84-.18-.93a20.54,20.54,0,0,1-7.41-1.89,23.045,23.045,0,0,0,4.77-2.49c.9.33,1.23.24,1.38-.06.24-.48-.78-1.5-1.71-2.16a.516.516,0,0,0-.75.03,19.427,19.427,0,0,1-5.04,3.93A10.753,10.753,0,0,1,48.6-6.54h4.47v.09c0,.48.18,1.02.87,1.02.81,0,1.26-.21,1.26-1.14,0-.99-.06-5.37-.03-7.32.51-.18.99-.45.99-.84,0-.66-1.68-1.92-2.25-1.92-.33,0-.87.63-1.29,1.2H48.87v-2.16c.93-.18,1.56-.42,1.56-.96,0-.72-2.55-.84-3.06-.84a.377.377,0,0,0-.42.45c.06.9.12,2.31.09,3.51H44.43a7.311,7.311,0,0,0-2.34-1.11A29.619,29.619,0,0,0,48.6-22.5a19.259,19.259,0,0,0,10.14,7.32c.78.21.99.03,1.44-.57a2.463,2.463,0,0,1,1.23-.9c.6-.21.78-.78-.15-.93-4.23-.78-8.79-2.37-11.73-5.58.36-.06.57-.18.57-.42,0-.51-1.41-1.14-2.55-1.38a.57.57,0,0,0-.69.3c-3.15,5.1-7.5,8.19-12.21,10.86-.78.42-.45,1.35.45,1.02a39.939,39.939,0,0,0,6.15-3.21c.33,3.33.12,11.55.09,14.43q-2.16.27-4.68.45c-.24,0-.36.09-.33.36.21,1.65.69,3.03,1.32,3.06.51,0,.81-.63.93-1.35a50.667,50.667,0,0,0,9.81-2.64c1.17-.54.96-1.44-.33-1.14-1.26.3-2.76.63-4.53.93ZM87.9-4.05H81.99V-6.39H87.9ZM81.99-9.9h5.94v2.31H81.99Zm-7.62-5.34c0-.48.03-1.53.03-2.04h5.61v2.79H74.37Zm13.14-2.04-.06,2.79H81.99v-2.79Zm2.46,9.69V-9.45c.51-.18.99-.45.99-.84,0-.66-1.68-1.95-2.25-1.95-.3,0-.81.57-1.23,1.14H81.99v-2.19h5.46c0,.48.18.99.87.99.81,0,1.23-.21,1.23-1.14,0-.63,0-2.31.03-3.42.48-.18.96-.42.96-.81,0-.66-1.68-1.92-2.28-1.92-.3,0-.78.57-1.2,1.11H81.99l.03-2.1H92.79c1.2,0,1.65-.27,1.65-.69,0-.72-2.16-2.49-2.76-2.49-.45,0-1.26,1.08-1.89,1.98H82.05l.03-1.32c1.11-.27,1.56-.57,1.56-1.05,0-.72-1.86-.93-3.33-.93-.42,0-.63.06-.6.42.09.87.15,1.86.18,2.88H68.22c-.39,0-.66.15-.66.6,0,.48.27.6.66.6h11.7c.03.69.06,1.41.06,2.1H75.09a6.938,6.938,0,0,0-2.46-1.08.382.382,0,0,0-.45.39,60.173,60.173,0,0,1,.12,6.42.707.707,0,0,0,.78.81c.84,0,1.32-.27,1.32-.9v-.45h5.61v2.19H70.86c-.39,0-.66.15-.66.6,0,.48.27.6.66.6h9.15v2.31H67.83c-.39,0-.66.15-.66.6,0,.48.27.6.66.6H80.01v2.34h-9.3c-.39,0-.66.15-.66.6,0,.48.27.6.66.6h9.27c0,.42,0,.78-.03,1.08-.06.96-.45,1.26-1.29,1.23-.6,0-1.5-.12-2.49-.24A.529.529,0,0,0,76.05.27c2.91.72,2.37,1.86,3.45,1.86a2.48,2.48,0,0,0,2.49-2.7V-2.85h5.88v.87c0,.48.18,1.02.87,1.02C89.55-.96,90-1.2,90-2.13c0-.6-.03-2.46-.03-4.26h3.48c.87,0,1.35-.21,1.35-.66,0-.66-1.8-2.4-2.37-2.4-.39,0-1.11.96-1.68,1.86Zm30.75-13.62c.03,4.77,0,11.49,0,14.1,0,2.55.57,3.45,3.51,3.45,2.64,0,4.02-.84,4.02-1.62,0-.9-.63-.54-.63-3.75,0-.75-.81-.81-.96-.09a17.9,17.9,0,0,1-.6,2.34c-.3.84-.78,1.02-2.22,1.02-.78,0-.96-.42-.99-1.62-.09-2.49-.12-9.24.03-13.2.6-.18,1.17-.42,1.17-.84,0-.66-1.83-2.25-2.49-2.25-.36,0-.93.66-1.38,1.26h-2.25a7.851,7.851,0,0,0-2.55-1.29c-.39-.06-.57.09-.57.51.18,2.46.27,6.12.24,8.49-.09,3.96-1.65,7.77-4.29,9.9-.69.66-.03,1.41.72.84,3.66-2.13,5.55-5.55,5.73-10.35.12-2.49.09-4.95.03-6.9Zm-10.68,2.64a27.814,27.814,0,0,1-2.46,11.31c-.96-2.1-1.5-5.04-1.86-9.3.24-.66.45-1.35.63-2.01Zm-3.39-1.2c.24-1.08.48-2.13.69-3.18.87,0,1.56-.21,1.53-.72-.06-.6-2.22-1.32-3.36-1.44a.412.412,0,0,0-.51.42A32.871,32.871,0,0,1,99.75-8.4c-.33.72.48.99.93.36a21.063,21.063,0,0,0,3.78-5.4,21.93,21.93,0,0,0,2.1,8.13,17.559,17.559,0,0,1-6.6,6.48c-.84.51-.36,1.2.45.87a15.814,15.814,0,0,0,7.29-5.61,13.721,13.721,0,0,0,1.98,1.98c4.11,3.39,12.09,3.09,15.51,3.09a1.112,1.112,0,0,0,1.2-.69c.3-.6.42-.78,1.35-1.08.72-.24.75-1.05-.15-.99-7.83.51-13.11.24-16.8-2.19a9.3,9.3,0,0,1-1.98-1.77c.21-.36.39-.72.57-1.08a33.6,33.6,0,0,0,3.03-11.43c.57-.27,1.05-.63,1.05-.99,0-.63-1.83-2.16-2.46-2.16-.3,0-.84.57-1.32,1.11Z" transform="translate(-3.03 25.113)" fill="#8d857b"/>
</svg>
