<svg xmlns="http://www.w3.org/2000/svg" width="417.75" height="69.66" viewBox="0 0 417.75 69.66">
  <path id="パス_42" data-name="パス 42" d="M15.06-6.63c0-1.83-.81-3.48-4.08-4.8-1.08-.45-1.98-.78-3.3-1.35-1.74-.69-2.76-1.68-2.76-3.63,0-1.92.93-3.48,3.6-3.48,2.22,0,3.03.78,3.21.99a3.321,3.321,0,0,1,.9,2.37c.12,1.05,1.11.99,1.14-.18A22.69,22.69,0,0,1,14.13-21c.12-.66-.6-.69-1.02-.15-.3.36-.45.45-.54.42a7.349,7.349,0,0,0-3.12-.57c-3.99,0-6.9,2.58-6.9,5.88A5.374,5.374,0,0,0,6.3-10.44c.81.36,2.49.93,3.66,1.53a3.646,3.646,0,0,1,2.52,3.63c0,1.92-1.2,4.23-4.62,4.23-2.91,0-3.45-.99-3.81-1.5a6.652,6.652,0,0,1-.66-2.82c-.06-.84-.87-.87-1.08.09a16.836,16.836,0,0,0-.15,4.17C2.25-.21,4.26.51,6.48.51a8.769,8.769,0,0,0,5.61-1.74A6.316,6.316,0,0,0,15.06-6.63ZM29.4-7.5c-.45-.03-.87-.06-1.17-.06-3.39,0-7.32,1.53-7.32,4.29A3.414,3.414,0,0,0,24.12.45c1.38,0,2.97-.66,5.13-2.49.06,1.5.18,2.34,1.14,2.37a5.362,5.362,0,0,0,2.85-.72c.63-.36.63-1.17,0-1.14-.57,0-1.44.03-1.71-.45a1.293,1.293,0,0,1-.09-.6c0-.36.09-5.01.09-6.96s-.69-4.89-4.26-4.89a12.132,12.132,0,0,0-5.22,2.34,1.037,1.037,0,0,0-.42.9,3.054,3.054,0,0,0,.3,1.35c.39.9,1.08.72,1.32.09.27-.66.42-1.5.72-2.07a2,2,0,0,1,2.04-1.02c1.47,0,3.27.84,3.39,3.81Zm0,3.18a1.255,1.255,0,0,1-.36,1.08A4.2,4.2,0,0,1,25.68-1.5a2.071,2.071,0,0,1-2.31-2.22c0-1.56,1.38-2.52,3.45-2.55a11.115,11.115,0,0,1,2.37.12c.12.03.21.03.21.21Zm12.24-7.35c-.27-.66-.03-.81,1.17-1.14.81-.18.9-1.11-.06-1.08-.48,0-2.04.06-2.64.06-.87,0-2.01-.06-2.79-.06-1.02,0-1.05.9-.21,1.08,1.29.3,1.53.39,2.25,2.01.78,1.77,3.78,9.42,4.08,10.44.18.69.33.96.63.96s.45-.27.84-.78c.15-.33.69-1.47,1.02-2.31,1.38-3.36,3.06-6.99,4.02-8.94a2.2,2.2,0,0,1,1.89-1.38c.78-.15.75-1.08-.15-1.08-.69,0-1.68.06-2.46.06-.96,0-1.56-.06-2.28-.06-.96,0-1.05.9-.12,1.08,1.56.33,1.8.48,1.29,1.8-.66,1.65-1.89,4.68-3.03,7.5-.09.18-.18.33-.3.03C43.71-6.24,42.63-8.97,41.64-11.67Zm22.44-2.76a8.169,8.169,0,0,0-5.31,2.04,7.149,7.149,0,0,0-2.55,5.85c0,3.6,2.37,7.08,6.36,7.08a8.028,8.028,0,0,0,6.03-2.88,7.877,7.877,0,0,0,1.77-5.37A6.511,6.511,0,0,0,64.08-14.43Zm3.78,7.86c0,3.42-1.62,5.64-4.02,5.64-3.72,0-5.13-3.36-5.13-6.57,0-2.13.72-5.4,4.08-5.4C66.54-12.9,67.86-9.24,67.86-6.57Zm16.53-7.86c-.96,0-1.86.48-4.35,2.94a15.254,15.254,0,0,0-.18-2.37c-.06-.33-.21-.57-.45-.57a.956.956,0,0,0-.51.18,25.814,25.814,0,0,1-2.73,1.38c-.48.21-.48.72,0,.9,1.14.36,1.44.57,1.47,1.02a9.925,9.925,0,0,1,.09,1.98v4.92a11.7,11.7,0,0,1-.09,1.89c-.06.72-.12.84-1.38,1.17-.81.21-.72,1.05.09,1.05.72,0,1.5-.06,2.79-.06s2.34.06,2.97.06c.84,0,.96-.84.06-1.02-1.74-.33-2.01-.45-2.07-1.32-.03-.45-.06-1.05-.06-1.8V-9.99a.631.631,0,0,1,.15-.45,3.417,3.417,0,0,1,2.58-1.44,2.07,2.07,0,0,1,1.59.75c.45.51.51.57.78.57.3,0,.57-.33.66-.57a3.028,3.028,0,0,0,.42-1.59A1.739,1.739,0,0,0,84.39-14.43ZM94.26,0c1.08,0,1.8.06,2.55.06,1.05,0,1.05-.96.12-1.11-1.38-.27-1.5-.51-1.5-1.92V-9.93a20.9,20.9,0,0,1,.24-3.84c.06-.45-.12-.66-.42-.66a1.584,1.584,0,0,0-.75.3,7.537,7.537,0,0,1-2.55.93c-.72.12-.69.78-.15.99,1.2.48,1.29.6,1.32,1.08a8.1,8.1,0,0,1,.06,1.35v6.96c0,1.26-.18,1.5-1.47,1.77-.96.18-.93,1.11.09,1.11C92.34.06,93.42,0,94.26,0Zm.06-21.69a1.707,1.707,0,0,0-1.68,1.8,1.586,1.586,0,0,0,1.59,1.68,1.7,1.7,0,0,0,1.68-1.83A1.632,1.632,0,0,0,94.32-21.69Zm10.2,16.5a20.861,20.861,0,0,1-.09,2.82c-.06.87-.15,1.08-1.5,1.35-.9.15-.93,1.08.09,1.08.78,0,1.62-.06,2.61-.06,1.08,0,2.07.06,2.73.06.96,0,1.02-.93.15-1.08-1.5-.27-1.62-.48-1.65-1.32a16.087,16.087,0,0,1-.09-2.4v-5.1a1.012,1.012,0,0,1,.21-.78,4.83,4.83,0,0,1,3.39-1.83c2.28,0,3.39,1.44,3.39,3.66v2.01c0,2.91-.06,3.6-.09,4.2-.03.96-.12,1.26-1.71,1.56-.93.15-.93,1.08.15,1.08.57,0,1.74-.06,2.52-.06,1.02,0,1.83.06,2.79.06.99,0,1.02-.93.09-1.08-1.32-.24-1.5-.36-1.5-1.32v-6.9c0-3.36-1.65-5.19-4.17-5.19a4.707,4.707,0,0,0-2.52.78,21.907,21.907,0,0,0-2.49,1.8,10.247,10.247,0,0,0-.15-2.1c-.06-.33-.18-.48-.45-.48a2.039,2.039,0,0,0-.78.33,10.554,10.554,0,0,1-2.4,1.2.486.486,0,0,0-.06.93c1.38.45,1.53.72,1.53,1.62Zm24.21-.18c-2.52,0-3.39-2.1-3.39-3.99,0-2.31.84-3.63,2.85-3.63,2.22,0,3.39,1.65,3.39,4.05C131.58-6.51,130.56-5.37,128.73-5.37ZM127.35.39c1.26.12,1.92.21,2.88.3,2.25.27,3.39,1.23,3.39,2.88,0,2.1-1.65,3.63-4.05,3.63-3.36,0-4.95-1.92-4.95-3.33a2.442,2.442,0,0,1,.69-1.71,20.381,20.381,0,0,1,1.74-1.8Zm8.22-12.9a4.834,4.834,0,0,0,.72-1.35c.18-.51-.18-.93-.72-.42a2.211,2.211,0,0,1-1.56.84,8.5,8.5,0,0,1-2.94-.66,7.261,7.261,0,0,0-2.07-.33,6.63,6.63,0,0,0-3.24,1.02,5.51,5.51,0,0,0-2.7,4.74,4.661,4.661,0,0,0,3.21,4.56c-.54.48-1.71,1.47-2.13,1.95a.966.966,0,0,0,.06.75A2.65,2.65,0,0,0,125.97.12a29.45,29.45,0,0,0-3.21,3.09,1.852,1.852,0,0,0-.45,1.14c0,1.92,1.8,4.5,5.85,4.5a7.9,7.9,0,0,0,4.68-1.56,6.427,6.427,0,0,0,2.94-4.98c0-2.25-1.5-3.54-4.44-3.81-1.14-.09-2.4-.15-3.12-.21-.9-.12-1.65-.33-1.65-.93a2.4,2.4,0,0,1,.75-1.26h.36a6.629,6.629,0,0,0,4.71-2.01,5.2,5.2,0,0,0,1.41-4.05,6.8,6.8,0,0,0-.42-1.86,6.1,6.1,0,0,0,1.65-.24A.934.934,0,0,0,135.57-12.51Zm19.65.3h1.56c1.32,0,1.65-.06,1.77-.21a2.082,2.082,0,0,0,.42-1.2c0-.21-.06-.3-.24-.27s-.93.06-1.62.06h-1.89c.03-3.66.12-4.35.27-4.68.24-.57-.09-.87-.6-.54a6.29,6.29,0,0,0-1.68,1.65,14.289,14.289,0,0,0-.24,3.57,6.032,6.032,0,0,0-1.83.12c-.18.09-.81.75-.81,1.08,0,.18.06.36.27.39.24.03.63.03,1.98.03h.39v8.28c0,3.72,1.38,4.35,2.82,4.35a4.709,4.709,0,0,0,3-1.14c.81-.78.45-1.38-.18-1.2a3.812,3.812,0,0,1-1.62.3c-1.26,0-1.77-.78-1.77-2.61Zm12.66,1.44a4.367,4.367,0,0,1,3.39-1.65c1.98,0,3.42.87,3.42,3.93V-4.8c0,1.83-.03,2.43-.06,2.7-.06.66-.3.87-1.32,1.11-.96.21-.84,1.05.15,1.05,1.17,0,1.62-.06,2.46-.06.75,0,1.68.06,2.31.06,1.14,0,1.05-.9.03-1.08-1.05-.21-1.23-.48-1.26-1.08-.03-.48-.03-.72-.03-1.05V-9.63c0-2.52-1.38-4.8-4.26-4.8a4.919,4.919,0,0,0-2.4.66,15.654,15.654,0,0,0-2.34,1.62c-.18.15-.24.09-.24-.03v-7.83a15.787,15.787,0,0,1,.24-3.54.438.438,0,0,0-.39-.57,2.171,2.171,0,0,0-1.02.39,7.834,7.834,0,0,1-2.82.9c-1.02.12-.81.96-.15,1.02,1.56.33,1.74.48,1.8,1.14.06.69.06,1.32.06,3.3V-5.52c0,1.53,0,2.1-.06,3.18-.06.99-.3,1.14-1.2,1.32-1.11.18-1.11,1.08,0,1.08.72,0,1.26-.06,2.4-.06,1.11,0,1.83.06,2.52.06.9,0,1.02-.9,0-1.08-1.2-.24-1.26-.48-1.32-1.29-.03-.36-.06-1.26-.06-2.82V-9.96C167.73-10.44,167.73-10.59,167.88-10.77Zm18.75,1.56c.33-2.64,1.74-3.72,3.33-3.72a3.5,3.5,0,0,1,3.57,3.45c0,.15-.03.27-.15.33a36.116,36.116,0,0,1-5.46.27,10.24,10.24,0,0,1-1.11-.06C186.66-8.97,186.63-9.03,186.63-9.21Zm-.09,1.71c5.73,0,7.26-.33,8.46-.66.54-.15,1.14-.54,1.14-1.08,0-.27-.15-.36-.33-.45a4.74,4.74,0,0,0-4.86-4.74,6.566,6.566,0,0,0-4.2,1.71,7.889,7.889,0,0,0-2.58,6c0,4.08,2.43,7.11,5.91,7.11a7.833,7.833,0,0,0,5.25-2.07c.75-.75.48-1.59-.45-1.02a5.8,5.8,0,0,1-3.36,1.08C188.61-1.62,186.6-3.51,186.54-7.5Zm31.77-2.07c0-.18.06-.24.27-.24h4.65c2.04,0,2.25.33,2.46,1.02a6,6,0,0,1,.3,1.02c.24,1.11,1.23,1.05,1.17-.24a25.051,25.051,0,0,1,.15-4.5c.15-.93-.72-1.11-1.05-.3a3.936,3.936,0,0,1-.66,1.14c-.3.27-.63.42-3.27.42h-3.87c-.12,0-.15-.06-.15-.18v-7.02c0-.48.06-.66.39-.69.96-.09,6-.18,6.81-.06.63.06.78.45.96,1.05.12.54.21.99.33,1.62.12.93,1.08.84,1.11-.03a23.852,23.852,0,0,1,.42-3.96c.12-.48-.15-.63-.54-.51-.81.27-1.95.33-4.98.33h-5.73c-1.32,0-2.58-.09-3.48-.09-1.14,0-1.11.96-.18,1.08,1.26.18,1.74.3,2.04.66.3.33.33.84.33,2.82V-5.52c0,1.95-.03,2.52-.06,3.03-.06.93-.33,1.17-2.25,1.47-.96.12-.87,1.08.18,1.08.78,0,2.25-.06,3.39-.06,1.59,0,2.55.06,3.72.06,1.11,0,1.2-.99,0-1.14-2.04-.27-2.34-.48-2.4-1.56-.03-.51-.06-1.02-.06-2.37Zm22.74-4.86a8.169,8.169,0,0,0-5.31,2.04,7.149,7.149,0,0,0-2.55,5.85c0,3.6,2.37,7.08,6.36,7.08a8.028,8.028,0,0,0,6.03-2.88,7.877,7.877,0,0,0,1.77-5.37A6.511,6.511,0,0,0,241.05-14.43Zm3.78,7.86c0,3.42-1.62,5.64-4.02,5.64-3.72,0-5.13-3.36-5.13-6.57,0-2.13.72-5.4,4.08-5.4C243.51-12.9,244.83-9.24,244.83-6.57Zm11.94-3.75a13.538,13.538,0,0,1,.27-3.42c.09-.42-.15-.66-.42-.66a4.644,4.644,0,0,0-.81.3,11.014,11.014,0,0,1-2.55.66c-.69.12-.84.84-.15,1.05,1.11.33,1.29.72,1.32,1.11.06.66.06,1.29.06,1.83V-4.5a5.092,5.092,0,0,0,1.2,3.81A3.734,3.734,0,0,0,258.51.42c2.01,0,3.66-1.59,4.95-2.76.06,1.5.15,2.73.9,2.73a6.147,6.147,0,0,0,3.33-1.26c.48-.42.36-1.02-.18-.99-.99.09-1.26.09-1.59-.36a7.273,7.273,0,0,1-.24-2.7v-5.55a19.083,19.083,0,0,1,.18-3.12.425.425,0,0,0-.39-.6c-.12,0-.42.12-.93.24a10.952,10.952,0,0,1-2.88.33c-.93.03-.96.96-.18,1.08,1.59.3,1.8.54,1.89,1.29a10.583,10.583,0,0,1,.06,1.29v5.79a.948.948,0,0,1-.12.63,4.539,4.539,0,0,1-3.6,1.92,2.65,2.65,0,0,1-2.76-2.01,9.236,9.236,0,0,1-.18-2.34Zm24.69-4.11c-.96,0-1.86.48-4.35,2.94a15.255,15.255,0,0,0-.18-2.37c-.06-.33-.21-.57-.45-.57a.956.956,0,0,0-.51.18,25.815,25.815,0,0,1-2.73,1.38c-.48.21-.48.72,0,.9,1.14.36,1.44.57,1.47,1.02a9.926,9.926,0,0,1,.09,1.98v4.92a11.7,11.7,0,0,1-.09,1.89c-.06.72-.12.84-1.38,1.17-.81.21-.72,1.05.09,1.05.72,0,1.5-.06,2.79-.06s2.34.06,2.97.06c.84,0,.96-.84.06-1.02-1.74-.33-2.01-.45-2.07-1.32-.03-.45-.06-1.05-.06-1.8V-9.99a.631.631,0,0,1,.15-.45,3.417,3.417,0,0,1,2.58-1.44,2.07,2.07,0,0,1,1.59.75c.45.51.51.57.78.57.3,0,.57-.33.66-.57a3.028,3.028,0,0,0,.42-1.59A1.739,1.739,0,0,0,281.46-14.43Zm31.14,7.8c0-1.83-.81-3.48-4.08-4.8-1.08-.45-1.98-.78-3.3-1.35-1.74-.69-2.76-1.68-2.76-3.63,0-1.92.93-3.48,3.6-3.48,2.22,0,3.03.78,3.21.99a3.322,3.322,0,0,1,.9,2.37c.12,1.05,1.11.99,1.14-.18a22.688,22.688,0,0,1,.36-4.29c.12-.66-.6-.69-1.02-.15-.3.36-.45.45-.54.42a7.349,7.349,0,0,0-3.12-.57c-3.99,0-6.9,2.58-6.9,5.88a5.374,5.374,0,0,0,3.75,4.98c.81.36,2.49.93,3.66,1.53a3.646,3.646,0,0,1,2.52,3.63c0,1.92-1.2,4.23-4.62,4.23-2.91,0-3.45-.99-3.81-1.5a6.652,6.652,0,0,1-.66-2.82c-.06-.84-.87-.87-1.08.09a16.837,16.837,0,0,0-.15,4.17c.09.9,2.1,1.62,4.32,1.62a8.769,8.769,0,0,0,5.61-1.74A6.316,6.316,0,0,0,312.6-6.63Zm8.37-2.58c.33-2.64,1.74-3.72,3.33-3.72a3.5,3.5,0,0,1,3.57,3.45c0,.15-.03.27-.15.33a36.116,36.116,0,0,1-5.46.27,10.24,10.24,0,0,1-1.11-.06C321-8.97,320.97-9.03,320.97-9.21Zm-.09,1.71c5.73,0,7.26-.33,8.46-.66.54-.15,1.14-.54,1.14-1.08,0-.27-.15-.36-.33-.45a4.74,4.74,0,0,0-4.86-4.74,6.566,6.566,0,0,0-4.2,1.71,7.889,7.889,0,0,0-2.58,6c0,4.08,2.43,7.11,5.91,7.11a7.833,7.833,0,0,0,5.25-2.07c.75-.75.48-1.59-.45-1.02a5.8,5.8,0,0,1-3.36,1.08C322.95-1.62,320.94-3.51,320.88-7.5Zm23.28,0c-.45-.03-.87-.06-1.17-.06-3.39,0-7.32,1.53-7.32,4.29A3.414,3.414,0,0,0,338.88.45c1.38,0,2.97-.66,5.13-2.49.06,1.5.18,2.34,1.14,2.37A5.362,5.362,0,0,0,348-.39c.63-.36.63-1.17,0-1.14-.57,0-1.44.03-1.71-.45a1.293,1.293,0,0,1-.09-.6c0-.36.09-5.01.09-6.96s-.69-4.89-4.26-4.89a12.132,12.132,0,0,0-5.22,2.34,1.037,1.037,0,0,0-.42.9,3.054,3.054,0,0,0,.3,1.35c.39.9,1.08.72,1.32.09.27-.66.42-1.5.72-2.07a2,2,0,0,1,2.04-1.02c1.47,0,3.27.84,3.39,3.81Zm0,3.18a1.255,1.255,0,0,1-.36,1.08,4.2,4.2,0,0,1-3.36,1.74,2.071,2.071,0,0,1-2.31-2.22c0-1.56,1.38-2.52,3.45-2.55a11.115,11.115,0,0,1,2.37.12c.12.03.21.03.21.21ZM357.93-8.7c-1.14-.45-2.04-.99-2.04-2.37,0-1.02.51-2.04,2.28-2.04a2.712,2.712,0,0,1,2.58,1.29,5.084,5.084,0,0,1,.51,1.53c.15.81,1.08.66,1.08-.33a22.2,22.2,0,0,1,.3-3.78c.09-.48-.45-.51-.81-.24-.18.12-.33.36-.54.51-.09.06-.12.09-.33.03a6.091,6.091,0,0,0-1.98-.33,5.824,5.824,0,0,0-3.6,1.14,3.862,3.862,0,0,0-1.65,3.12,3.883,3.883,0,0,0,2.82,3.51c.87.33,2.01.75,2.88,1.11a2.369,2.369,0,0,1,1.59,2.22q0,2.43-2.61,2.43a3.361,3.361,0,0,1-3.42-2.01c-.12-.33-.36-.99-.42-1.17-.27-.9-1.2-.72-1.11.21.15,1.5.24,2.64.24,3.69,0,.84.75.63,1.08.24.18-.24.33-.18.51-.09a5.871,5.871,0,0,0,2.43.48,6.347,6.347,0,0,0,3.24-.87,4.558,4.558,0,0,0,2.4-3.99c0-1.83-1.41-2.79-2.79-3.36Zm18.93-5.73a8.169,8.169,0,0,0-5.31,2.04A7.149,7.149,0,0,0,369-6.54c0,3.6,2.37,7.08,6.36,7.08a8.028,8.028,0,0,0,6.03-2.88,7.877,7.877,0,0,0,1.77-5.37A6.511,6.511,0,0,0,376.86-14.43Zm3.78,7.86c0,3.42-1.62,5.64-4.02,5.64-3.72,0-5.13-3.36-5.13-6.57,0-2.13.72-5.4,4.08-5.4C379.32-12.9,380.64-9.24,380.64-6.57Zm9.87,1.38a20.863,20.863,0,0,1-.09,2.82c-.06.87-.15,1.08-1.5,1.35-.9.15-.93,1.08.09,1.08.78,0,1.62-.06,2.61-.06,1.08,0,2.07.06,2.73.06.96,0,1.02-.93.15-1.08-1.5-.27-1.62-.48-1.65-1.32a16.087,16.087,0,0,1-.09-2.4v-5.1a1.012,1.012,0,0,1,.21-.78,4.83,4.83,0,0,1,3.39-1.83c2.28,0,3.39,1.44,3.39,3.66v2.01c0,2.91-.06,3.6-.09,4.2-.03.96-.12,1.26-1.71,1.56-.93.15-.93,1.08.15,1.08.57,0,1.74-.06,2.52-.06,1.02,0,1.83.06,2.79.06.99,0,1.02-.93.09-1.08-1.32-.24-1.5-.36-1.5-1.32v-6.9c0-3.36-1.65-5.19-4.17-5.19a4.707,4.707,0,0,0-2.52.78,21.906,21.906,0,0,0-2.49,1.8,10.247,10.247,0,0,0-.15-2.1c-.06-.33-.18-.48-.45-.48a2.039,2.039,0,0,0-.78.33,10.553,10.553,0,0,1-2.4,1.2.486.486,0,0,0-.06.93c1.38.45,1.53.72,1.53,1.62ZM413.58-8.7c-1.14-.45-2.04-.99-2.04-2.37,0-1.02.51-2.04,2.28-2.04a2.712,2.712,0,0,1,2.58,1.29,5.084,5.084,0,0,1,.51,1.53c.15.81,1.08.66,1.08-.33a22.2,22.2,0,0,1,.3-3.78c.09-.48-.45-.51-.81-.24-.18.12-.33.36-.54.51-.09.06-.12.09-.33.03a6.091,6.091,0,0,0-1.98-.33,5.824,5.824,0,0,0-3.6,1.14,3.862,3.862,0,0,0-1.65,3.12,3.883,3.883,0,0,0,2.82,3.51c.87.33,2.01.75,2.88,1.11a2.369,2.369,0,0,1,1.59,2.22q0,2.43-2.61,2.43a3.361,3.361,0,0,1-3.42-2.01c-.12-.33-.36-.99-.42-1.17-.27-.9-1.2-.72-1.11.21.15,1.5.24,2.64.24,3.69,0,.84.75.63,1.08.24.18-.24.33-.18.51-.09a5.871,5.871,0,0,0,2.43.48,6.347,6.347,0,0,0,3.24-.87,4.558,4.558,0,0,0,2.4-3.99c0-1.83-1.41-2.79-2.79-3.36ZM9.12,30.57a8.169,8.169,0,0,0-5.31,2.04,7.149,7.149,0,0,0-2.55,5.85c0,3.6,2.37,7.08,6.36,7.08a8.028,8.028,0,0,0,6.03-2.88,7.877,7.877,0,0,0,1.77-5.37A6.511,6.511,0,0,0,9.12,30.57Zm3.78,7.86c0,3.42-1.62,5.64-4.02,5.64-3.72,0-5.13-3.36-5.13-6.57,0-2.13.72-5.4,4.08-5.4C11.58,32.1,12.9,35.76,12.9,38.43Zm10.11,1.68a19.346,19.346,0,0,1-.09,2.37c-.06.96-.15,1.23-1.41,1.47-1.05.18-1.05,1.11.09,1.11.54,0,1.53-.06,2.76-.06,1.44,0,2.04.06,2.7.06,1.2,0,1.23-.99.06-1.11-1.56-.21-1.71-.39-1.77-1.44-.03-.51-.06-1.32-.06-2.52V32.82h1.23c1.56,0,1.83-.06,1.95-.21a2.542,2.542,0,0,0,.48-1.26c0-.21-.12-.33-.33-.27a10.173,10.173,0,0,1-1.62.09H25.29v-.45c0-7.2,1.65-7.83,3.24-7.83a4.025,4.025,0,0,1,2.97,1.53.522.522,0,0,0,.78-.09,2.7,2.7,0,0,0,.81-1.68,1.3,1.3,0,0,0-.39-.96,3.463,3.463,0,0,0-2.58-.81,6.986,6.986,0,0,0-5.37,3.33c-1.41,2.04-1.68,3.66-1.74,6.96a7.211,7.211,0,0,0-1.92.12,2.032,2.032,0,0,0-.72,1.08c0,.21.06.36.24.39s.96.06,2.4.06Zm26.73-.69V29.76c0-1.86,0-2.34.06-3.12s.33-1.08,2.28-1.32c1.05-.12,1.05-1.11-.03-1.11-.69,0-2.01.09-3.69.09-1.35,0-2.34-.06-3.24-.06-1.2,0-1.2.93-.06,1.08,1.86.27,2.04.54,2.1,1.26.03.39.06,1.32.06,3.12v9.93c0,1.47,0,2.04-.06,2.85-.09,1.08-.27,1.26-2.13,1.5-1.11.12-1.11,1.08.09,1.08.06,0,2.91-.06,3.36-.06,1.26,0,9.27.21,10.11.06a1.12,1.12,0,0,0,1.05-.75,13.007,13.007,0,0,0,1.02-4.02c.06-1.11-.78-1.2-1.14-.09-.93,2.58-1.59,3.24-2.73,3.36a40.037,40.037,0,0,1-6.33-.15c-.45-.09-.63-.48-.66-1.08C49.77,41.52,49.74,40.98,49.74,39.42Zm24.78-8.85a8.169,8.169,0,0,0-5.31,2.04,7.149,7.149,0,0,0-2.55,5.85c0,3.6,2.37,7.08,6.36,7.08a8.028,8.028,0,0,0,6.03-2.88,7.877,7.877,0,0,0,1.77-5.37A6.511,6.511,0,0,0,74.52,30.57Zm3.78,7.86c0,3.42-1.62,5.64-4.02,5.64-3.72,0-5.13-3.36-5.13-6.57,0-2.13.72-5.4,4.08-5.4C76.98,32.1,78.3,35.76,78.3,38.43Zm16.47-7.86a8.271,8.271,0,0,0-4.59,1.44,7.674,7.674,0,0,0-3.57,6.42c0,3.81,2.58,6.96,5.85,6.96a7.384,7.384,0,0,0,5.61-2.4c.72-.81.33-1.59-.51-.96a5.476,5.476,0,0,1-3.51,1.32c-2.13,0-4.95-1.32-4.95-5.88,0-3.66,1.62-5.25,3.93-5.25a3.875,3.875,0,0,1,3.63,1.92c.36.66.75.3.99-.09a3.289,3.289,0,0,0,.51-1.56,1.263,1.263,0,0,0-.51-1.02A4.035,4.035,0,0,0,94.77,30.57Zm17.16,6.93c-.45-.03-.87-.06-1.17-.06-3.39,0-7.32,1.53-7.32,4.29a3.414,3.414,0,0,0,3.21,3.72c1.38,0,2.97-.66,5.13-2.49.06,1.5.18,2.34,1.14,2.37a5.362,5.362,0,0,0,2.85-.72c.63-.36.63-1.17,0-1.14-.57,0-1.44.03-1.71-.45a1.293,1.293,0,0,1-.09-.6c0-.36.09-5.01.09-6.96s-.69-4.89-4.26-4.89a12.131,12.131,0,0,0-5.22,2.34,1.037,1.037,0,0,0-.42.9,3.054,3.054,0,0,0,.3,1.35c.39.9,1.08.72,1.32.09.27-.66.42-1.5.72-2.07a2,2,0,0,1,2.04-1.02c1.47,0,3.27.84,3.39,3.81Zm0,3.18a1.255,1.255,0,0,1-.36,1.08,4.2,4.2,0,0,1-3.36,1.74,2.071,2.071,0,0,1-2.31-2.22c0-1.56,1.38-2.52,3.45-2.55a11.115,11.115,0,0,1,2.37.12c.12.03.21.03.21.21Zm13.17,2.07c-.03-.39-.06-.93-.06-2.94V24.48a13.173,13.173,0,0,1,.18-2.76c.18-.54,0-.84-.36-.84a2.041,2.041,0,0,0-.75.3,13.017,13.017,0,0,1-3.21.96c-.72.15-.69.84-.03.99,1.47.33,1.71.48,1.83,1.29.06.6.06,1.2.06,3.51V39.36a28.3,28.3,0,0,1-.09,3.42c-.12.66-.24.96-1.53,1.2-.9.15-.78,1.08.09,1.08.99,0,1.53-.06,2.82-.06.93,0,2.01.06,2.61.06.96,0,1.02-.93.12-1.08C125.34,43.71,125.16,43.44,125.1,42.75Zm23.1-14.04c3,3.45,8.76,10.44,12.18,14.46,1.14,1.41,2.16,2.34,2.55,2.34.45,0,.81-.3.93-1.53.03-.42.03-1.17.03-1.62.09-8.88.12-13.83.18-15.39.03-.96.24-1.41,1.68-1.65,1.02-.15,1.05-1.08-.03-1.08-.42,0-2.07.06-2.7.06-1.47,0-2.28-.09-3.48-.09-1.17,0-1.17.96-.03,1.08,2.25.24,2.58.63,2.67,1.8.09.96.21,7.65.21,13.98,0,.12-.12.18-.21.06-4.26-4.95-9.15-10.68-12.9-15.12-1.38-1.65-1.86-1.71-2.31-1.74-.6-.03-3.24-.06-3.66-.06-1.08,0-1.2.96-.03,1.08,1.62.21,1.89.36,2.7,1.17a1.973,1.973,0,0,1,.54,1.65v3.66c0,5.07-.15,8.4-.21,9.72-.09,1.86-.24,2.19-2.01,2.46-1.17.15-1.11,1.11.03,1.11.99,0,2.34-.06,3.24-.06,1.14,0,2.25.06,3.06.06,1.2,0,1.23-.99.09-1.11-2.4-.27-2.49-.6-2.58-2.76-.06-.84-.09-5.07-.09-9.51V28.95C148.05,28.65,148.14,28.62,148.2,28.71Zm31.11,8.79c-.45-.03-.87-.06-1.17-.06-3.39,0-7.32,1.53-7.32,4.29a3.414,3.414,0,0,0,3.21,3.72c1.38,0,2.97-.66,5.13-2.49.06,1.5.18,2.34,1.14,2.37a5.362,5.362,0,0,0,2.85-.72c.63-.36.63-1.17,0-1.14-.57,0-1.44.03-1.71-.45a1.293,1.293,0,0,1-.09-.6c0-.36.09-5.01.09-6.96s-.69-4.89-4.26-4.89a12.132,12.132,0,0,0-5.22,2.34,1.037,1.037,0,0,0-.42.9,3.054,3.054,0,0,0,.3,1.35c.39.9,1.08.72,1.32.09.27-.66.42-1.5.72-2.07a2,2,0,0,1,2.04-1.02c1.47,0,3.27.84,3.39,3.81Zm0,3.18a1.255,1.255,0,0,1-.36,1.08,4.2,4.2,0,0,1-3.36,1.74,2.071,2.071,0,0,1-2.31-2.22c0-1.56,1.38-2.52,3.45-2.55a11.115,11.115,0,0,1,2.37.12c.12.03.21.03.21.21ZM197.1,30.57c-.96,0-1.86.48-4.35,2.94a15.255,15.255,0,0,0-.18-2.37c-.06-.33-.21-.57-.45-.57a.956.956,0,0,0-.51.18,25.813,25.813,0,0,1-2.73,1.38c-.48.21-.48.72,0,.9,1.14.36,1.44.57,1.47,1.02a9.926,9.926,0,0,1,.09,1.98v4.92a11.7,11.7,0,0,1-.09,1.89c-.06.72-.12.84-1.38,1.17-.81.21-.72,1.05.09,1.05.72,0,1.5-.06,2.79-.06s2.34.06,2.97.06c.84,0,.96-.84.06-1.02-1.74-.33-2.01-.45-2.07-1.32-.03-.45-.06-1.05-.06-1.8V35.01a.631.631,0,0,1,.15-.45,3.417,3.417,0,0,1,2.58-1.44,2.07,2.07,0,0,1,1.59.75c.45.51.51.57.78.57.3,0,.57-.33.66-.57a3.027,3.027,0,0,0,.42-1.59A1.739,1.739,0,0,0,197.1,30.57Zm14.97,6.93c-.45-.03-.87-.06-1.17-.06-3.39,0-7.32,1.53-7.32,4.29a3.414,3.414,0,0,0,3.21,3.72c1.38,0,2.97-.66,5.13-2.49.06,1.5.18,2.34,1.14,2.37a5.362,5.362,0,0,0,2.85-.72c.63-.36.63-1.17,0-1.14-.57,0-1.44.03-1.71-.45a1.293,1.293,0,0,1-.09-.6c0-.36.09-5.01.09-6.96s-.69-4.89-4.26-4.89a12.132,12.132,0,0,0-5.22,2.34,1.037,1.037,0,0,0-.42.9,3.054,3.054,0,0,0,.3,1.35c.39.9,1.08.72,1.32.09.27-.66.42-1.5.72-2.07a2,2,0,0,1,2.04-1.02c1.47,0,3.27.84,3.39,3.81Zm0,3.18a1.255,1.255,0,0,1-.36,1.08,4.2,4.2,0,0,1-3.36,1.74,2.071,2.071,0,0,1-2.31-2.22c0-1.56,1.38-2.52,3.45-2.55a11.115,11.115,0,0,1,2.37.12c.12.03.21.03.21.21Z" transform="translate(-1.26 24.12)" fill="#8d857b"/>
</svg>
