<svg xmlns="http://www.w3.org/2000/svg" width="167.988" height="21.24" viewBox="0 0 167.988 21.24">
  <path id="パス_43" data-name="パス 43" d="M10.41-9c.27-.03.39.03.57.33,1.32,2.04,2.43,3.84,3.75,5.7C16.5-.3,17.28-.06,18.39.09A15.1,15.1,0,0,0,21.24.06c1.14-.09,1.2-1.02.09-1.11a6.8,6.8,0,0,1-1.41-.27c-.66-.21-1.2-.75-2.1-1.89-1.77-2.19-3.21-4.32-4.65-6.45,3.27-1.35,4.44-3.72,4.44-5.73,0-1.86-.93-5.4-7.14-5.4-2.31,0-3.75.09-5.25.09-.72,0-2.07-.06-2.67-.06-1.14,0-1.17.93-.03,1.08,1.62.24,2.04.54,2.1,1.32s.09,1.32.09,3.54v8.88c0,1.86,0,2.67-.06,3.45-.06.87-.15,1.2-2.13,1.47C1.44-.9,1.41.06,2.64.06,3.63.06,4.62,0,5.97,0c1.5,0,2.55.06,3.45.06,1.11,0,1.14-.93.09-1.08-1.98-.27-2.16-.63-2.22-1.62-.03-.39-.06-1.41-.06-2.94v-3.3C8.28-8.88,9.48-8.91,10.41-9ZM7.23-10.8v-4.17c0-3.3-.03-3.87.12-4.14.18-.24,1.02-.39,2.25-.39,3.81,0,5.22,2.4,5.22,5.01,0,3.63-2.4,4.17-5.16,4.17a9.106,9.106,0,0,1-2.22-.18C7.26-10.56,7.23-10.62,7.23-10.8ZM28.17-9.21c.33-2.64,1.74-3.72,3.33-3.72a3.5,3.5,0,0,1,3.57,3.45c0,.15-.03.27-.15.33a36.116,36.116,0,0,1-5.46.27,10.24,10.24,0,0,1-1.11-.06C28.2-8.97,28.17-9.03,28.17-9.21ZM28.08-7.5c5.73,0,7.26-.33,8.46-.66.54-.15,1.14-.54,1.14-1.08,0-.27-.15-.36-.33-.45a4.74,4.74,0,0,0-4.86-4.74,6.566,6.566,0,0,0-4.2,1.71,7.889,7.889,0,0,0-2.58,6c0,4.08,2.43,7.11,5.91,7.11a7.833,7.833,0,0,0,5.25-2.07c.75-.75.48-1.59-.45-1.02a5.8,5.8,0,0,1-3.36,1.08C30.15-1.62,28.14-3.51,28.08-7.5ZM47.61-8.7c-1.14-.45-2.04-.99-2.04-2.37,0-1.02.51-2.04,2.28-2.04a2.712,2.712,0,0,1,2.58,1.29,5.084,5.084,0,0,1,.51,1.53c.15.81,1.08.66,1.08-.33a22.2,22.2,0,0,1,.3-3.78c.09-.48-.45-.51-.81-.24-.18.12-.33.36-.54.51-.09.06-.12.09-.33.03a6.091,6.091,0,0,0-1.98-.33,5.824,5.824,0,0,0-3.6,1.14,3.862,3.862,0,0,0-1.65,3.12,3.883,3.883,0,0,0,2.82,3.51c.87.33,2.01.75,2.88,1.11A2.369,2.369,0,0,1,50.7-3.33Q50.7-.9,48.09-.9a3.361,3.361,0,0,1-3.42-2.01c-.12-.33-.36-.99-.42-1.17-.27-.9-1.2-.72-1.11.21.15,1.5.24,2.64.24,3.69,0,.84.75.63,1.08.24.18-.24.33-.18.51-.09A5.871,5.871,0,0,0,47.4.45a6.347,6.347,0,0,0,3.24-.87,4.558,4.558,0,0,0,2.4-3.99c0-1.83-1.41-2.79-2.79-3.36Zm14.97-3.51h1.56c1.32,0,1.65-.06,1.77-.21a2.082,2.082,0,0,0,.42-1.2c0-.21-.06-.3-.24-.27s-.93.06-1.62.06H62.58c.03-3.66.12-4.35.27-4.68.24-.57-.09-.87-.6-.54a6.291,6.291,0,0,0-1.68,1.65,14.29,14.29,0,0,0-.24,3.57,6.032,6.032,0,0,0-1.83.12c-.18.09-.81.75-.81,1.08,0,.18.06.36.27.39.24.03.63.03,1.98.03h.39v8.28c0,3.72,1.38,4.35,2.82,4.35a4.709,4.709,0,0,0,3-1.14c.81-.78.45-1.38-.18-1.2a3.812,3.812,0,0,1-1.62.3c-1.26,0-1.77-.78-1.77-2.61ZM79.83-7.5c-.45-.03-.87-.06-1.17-.06-3.39,0-7.32,1.53-7.32,4.29A3.414,3.414,0,0,0,74.55.45c1.38,0,2.97-.66,5.13-2.49.06,1.5.18,2.34,1.14,2.37a5.362,5.362,0,0,0,2.85-.72c.63-.36.63-1.17,0-1.14-.57,0-1.44.03-1.71-.45a1.293,1.293,0,0,1-.09-.6c0-.36.09-5.01.09-6.96s-.69-4.89-4.26-4.89a12.131,12.131,0,0,0-5.22,2.34,1.037,1.037,0,0,0-.42.9,3.054,3.054,0,0,0,.3,1.35c.39.9,1.08.72,1.32.09.27-.66.42-1.5.72-2.07a2,2,0,0,1,2.04-1.02c1.47,0,3.27.84,3.39,3.81Zm0,3.18a1.255,1.255,0,0,1-.36,1.08A4.2,4.2,0,0,1,76.11-1.5,2.071,2.071,0,0,1,73.8-3.72c0-1.56,1.38-2.52,3.45-2.55a11.115,11.115,0,0,1,2.37.12c.12.03.21.03.21.21Zm12.69-6a13.538,13.538,0,0,1,.27-3.42c.09-.42-.15-.66-.42-.66a4.643,4.643,0,0,0-.81.3,11.014,11.014,0,0,1-2.55.66c-.69.12-.84.84-.15,1.05,1.11.33,1.29.72,1.32,1.11.06.66.06,1.29.06,1.83V-4.5a5.092,5.092,0,0,0,1.2,3.81A3.734,3.734,0,0,0,94.26.42c2.01,0,3.66-1.59,4.95-2.76.06,1.5.15,2.73.9,2.73a6.147,6.147,0,0,0,3.33-1.26c.48-.42.36-1.02-.18-.99-.99.09-1.26.09-1.59-.36a7.273,7.273,0,0,1-.24-2.7v-5.55a19.088,19.088,0,0,1,.18-3.12.425.425,0,0,0-.39-.6c-.12,0-.42.12-.93.24a10.952,10.952,0,0,1-2.88.33c-.93.03-.96.96-.18,1.08,1.59.3,1.8.54,1.89,1.29a10.583,10.583,0,0,1,.06,1.29v5.79a.948.948,0,0,1-.12.63,4.539,4.539,0,0,1-3.6,1.92A2.65,2.65,0,0,1,92.7-3.63a9.237,9.237,0,0,1-.18-2.34Zm24.69-4.11c-.96,0-1.86.48-4.35,2.94a15.254,15.254,0,0,0-.18-2.37c-.06-.33-.21-.57-.45-.57a.956.956,0,0,0-.51.18,25.814,25.814,0,0,1-2.73,1.38c-.48.21-.48.72,0,.9,1.14.36,1.44.57,1.47,1.02a9.925,9.925,0,0,1,.09,1.98v4.92a11.7,11.7,0,0,1-.09,1.89c-.06.72-.12.84-1.38,1.17-.81.21-.72,1.05.09,1.05.72,0,1.5-.06,2.79-.06s2.34.06,2.97.06c.84,0,.96-.84.06-1.02-1.74-.33-2.01-.45-2.07-1.32-.03-.45-.06-1.05-.06-1.8V-9.99a.631.631,0,0,1,.15-.45,3.417,3.417,0,0,1,2.58-1.44,2.07,2.07,0,0,1,1.59.75c.45.51.51.57.78.57.3,0,.57-.33.66-.57a3.028,3.028,0,0,0,.42-1.59A1.739,1.739,0,0,0,117.21-14.43ZM132.18-7.5c-.45-.03-.87-.06-1.17-.06-3.39,0-7.32,1.53-7.32,4.29A3.414,3.414,0,0,0,126.9.45c1.38,0,2.97-.66,5.13-2.49.06,1.5.18,2.34,1.14,2.37a5.362,5.362,0,0,0,2.85-.72c.63-.36.63-1.17,0-1.14-.57,0-1.44.03-1.71-.45a1.293,1.293,0,0,1-.09-.6c0-.36.09-5.01.09-6.96s-.69-4.89-4.26-4.89a12.131,12.131,0,0,0-5.22,2.34,1.037,1.037,0,0,0-.42.9,3.054,3.054,0,0,0,.3,1.35c.39.9,1.08.72,1.32.09.27-.66.42-1.5.72-2.07a2,2,0,0,1,2.04-1.02c1.47,0,3.27.84,3.39,3.81Zm0,3.18a1.255,1.255,0,0,1-.36,1.08,4.2,4.2,0,0,1-3.36,1.74,2.071,2.071,0,0,1-2.31-2.22c0-1.56,1.38-2.52,3.45-2.55a11.115,11.115,0,0,1,2.37.12c.12.03.21.03.21.21Zm11.13-.87a20.863,20.863,0,0,1-.09,2.82c-.06.87-.15,1.08-1.5,1.35-.9.15-.93,1.08.09,1.08.78,0,1.62-.06,2.61-.06,1.08,0,2.07.06,2.73.06.96,0,1.02-.93.15-1.08-1.5-.27-1.62-.48-1.65-1.32a16.085,16.085,0,0,1-.09-2.4v-5.1a1.012,1.012,0,0,1,.21-.78,4.83,4.83,0,0,1,3.39-1.83c2.28,0,3.39,1.44,3.39,3.66v2.01c0,2.91-.06,3.6-.09,4.2-.03.96-.12,1.26-1.71,1.56-.93.15-.93,1.08.15,1.08.57,0,1.74-.06,2.52-.06,1.02,0,1.83.06,2.79.06.99,0,1.02-.93.09-1.08-1.32-.24-1.5-.36-1.5-1.32v-6.9c0-3.36-1.65-5.19-4.17-5.19a4.707,4.707,0,0,0-2.52.78,21.906,21.906,0,0,0-2.49,1.8,10.247,10.247,0,0,0-.15-2.1c-.06-.33-.18-.48-.45-.48a2.039,2.039,0,0,0-.78.33,10.553,10.553,0,0,1-2.4,1.2.486.486,0,0,0-.06.93c1.38.45,1.53.72,1.53,1.62Zm22.32-7.02h1.56c1.32,0,1.65-.06,1.77-.21a2.082,2.082,0,0,0,.42-1.2c0-.21-.06-.3-.24-.27s-.93.06-1.62.06h-1.89c.03-3.66.12-4.35.27-4.68.24-.57-.09-.87-.6-.54a6.29,6.29,0,0,0-1.68,1.65,14.289,14.289,0,0,0-.24,3.57,6.032,6.032,0,0,0-1.83.12c-.18.09-.81.75-.81,1.08,0,.18.06.36.27.39.24.03.63.03,1.98.03h.39v8.28c0,3.72,1.38,4.35,2.82,4.35a4.709,4.709,0,0,0,3-1.14c.81-.78.45-1.38-.18-1.2a3.812,3.812,0,0,1-1.62.3c-1.26,0-1.77-.78-1.77-2.61Z" transform="translate(-1.68 20.79)" fill="#8d857b"/>
</svg>
