<svg xmlns="http://www.w3.org/2000/svg" width="32.97" height="320.035" viewBox="0 0 32.97 320.035">
  <path id="パス_44" data-name="パス 44" d="M7.2-15.87c0-2.55.03-2.91.24-3.12.27-.27,1.47-.51,3.42-.51,7.35,0,9.12,5.01,9.12,9.69,0,3.99-2.07,8.49-8.49,8.49-1.95,0-3.57-.33-3.99-.84-.3-.27-.3-.87-.3-3.06ZM4.71-6.27a29.7,29.7,0,0,1-.12,4.02c-.12.6-.39.9-2.22,1.14C1.26-.93,1.44,0,2.37,0h2.1c1.08,0,3.69.21,5.55.21,2.97,0,5.94-.45,8.67-2.73a10.928,10.928,0,0,0,4.11-8.91c0-3.72-2.28-9.39-10.86-9.39-2.61,0-4.47.12-6.27.12-1.08,0-2.46-.09-3.15-.09-1.17,0-1.23.93-.12,1.08,1.86.24,2.19.66,2.25,1.44s.06,1.2.06,2.85ZM32.07,0c1.08,0,1.8.06,2.55.06,1.05,0,1.05-.96.12-1.11-1.38-.27-1.5-.51-1.5-1.92V-9.93a20.9,20.9,0,0,1,.24-3.84c.06-.45-.12-.66-.42-.66a1.584,1.584,0,0,0-.75.3,7.537,7.537,0,0,1-2.55.93c-.72.12-.69.78-.15.99,1.2.48,1.29.6,1.32,1.08a8.1,8.1,0,0,1,.06,1.35v6.96c0,1.26-.18,1.5-1.47,1.77-.96.18-.93,1.11.09,1.11C30.15.06,31.23,0,32.07,0Zm.06-21.69a1.707,1.707,0,0,0-1.68,1.8,1.586,1.586,0,0,0,1.59,1.68,1.7,1.7,0,0,0,1.68-1.83A1.632,1.632,0,0,0,32.13-21.69ZM45.06-8.7c-1.14-.45-2.04-.99-2.04-2.37,0-1.02.51-2.04,2.28-2.04a2.712,2.712,0,0,1,2.58,1.29,5.084,5.084,0,0,1,.51,1.53c.15.81,1.08.66,1.08-.33a22.2,22.2,0,0,1,.3-3.78c.09-.48-.45-.51-.81-.24-.18.12-.33.36-.54.51-.09.06-.12.09-.33.03a6.091,6.091,0,0,0-1.98-.33,5.824,5.824,0,0,0-3.6,1.14,3.862,3.862,0,0,0-1.65,3.12,3.883,3.883,0,0,0,2.82,3.51c.87.33,2.01.75,2.88,1.11a2.369,2.369,0,0,1,1.59,2.22q0,2.43-2.61,2.43a3.361,3.361,0,0,1-3.42-2.01c-.12-.33-.36-.99-.42-1.17-.27-.9-1.2-.72-1.11.21.15,1.5.24,2.64.24,3.69,0,.84.75.63,1.08.24.18-.24.33-.18.51-.09a5.871,5.871,0,0,0,2.43.48,6.347,6.347,0,0,0,3.24-.87,4.558,4.558,0,0,0,2.4-3.99c0-1.83-1.41-2.79-2.79-3.36Zm14.73-2.07a4.367,4.367,0,0,1,3.39-1.65c1.98,0,3.42.87,3.42,3.93V-4.8c0,1.83-.03,2.43-.06,2.7-.06.66-.3.87-1.32,1.11-.96.21-.84,1.05.15,1.05C66.54.06,66.99,0,67.83,0c.75,0,1.68.06,2.31.06,1.14,0,1.05-.9.03-1.08-1.05-.21-1.23-.48-1.26-1.08-.03-.48-.03-.72-.03-1.05V-9.63c0-2.52-1.38-4.8-4.26-4.8a4.919,4.919,0,0,0-2.4.66,15.655,15.655,0,0,0-2.34,1.62c-.18.15-.24.09-.24-.03v-7.83a15.788,15.788,0,0,1,.24-3.54.438.438,0,0,0-.39-.57,2.171,2.171,0,0,0-1.02.39,7.834,7.834,0,0,1-2.82.9c-1.02.12-.81.96-.15,1.02,1.56.33,1.74.48,1.8,1.14.06.69.06,1.32.06,3.3V-5.52c0,1.53,0,2.1-.06,3.18-.06.99-.3,1.14-1.2,1.32-1.11.18-1.11,1.08,0,1.08.72,0,1.26-.06,2.4-.06,1.11,0,1.83.06,2.52.06.9,0,1.02-.9,0-1.08-1.2-.24-1.26-.48-1.32-1.29-.03-.36-.06-1.26-.06-2.82V-9.96C59.64-10.44,59.64-10.59,59.79-10.77ZM78.54-9.21c.33-2.64,1.74-3.72,3.33-3.72a3.5,3.5,0,0,1,3.57,3.45c0,.15-.03.27-.15.33a36.116,36.116,0,0,1-5.46.27,10.24,10.24,0,0,1-1.11-.06C78.57-8.97,78.54-9.03,78.54-9.21ZM78.45-7.5c5.73,0,7.26-.33,8.46-.66.54-.15,1.14-.54,1.14-1.08,0-.27-.15-.36-.33-.45a4.74,4.74,0,0,0-4.86-4.74,6.565,6.565,0,0,0-4.2,1.71,7.889,7.889,0,0,0-2.58,6c0,4.08,2.43,7.11,5.91,7.11a7.833,7.833,0,0,0,5.25-2.07c.75-.75.48-1.59-.45-1.02a5.8,5.8,0,0,1-3.36,1.08C80.52-1.62,78.51-3.51,78.45-7.5ZM97.98-8.7c-1.14-.45-2.04-.99-2.04-2.37,0-1.02.51-2.04,2.28-2.04a2.712,2.712,0,0,1,2.58,1.29,5.084,5.084,0,0,1,.51,1.53c.15.81,1.08.66,1.08-.33a22.2,22.2,0,0,1,.3-3.78c.09-.48-.45-.51-.81-.24-.18.12-.33.36-.54.51-.09.06-.12.09-.33.03a6.091,6.091,0,0,0-1.98-.33,5.824,5.824,0,0,0-3.6,1.14,3.862,3.862,0,0,0-1.65,3.12A3.883,3.883,0,0,0,96.6-6.66c.87.33,2.01.75,2.88,1.11a2.369,2.369,0,0,1,1.59,2.22q0,2.43-2.61,2.43a3.361,3.361,0,0,1-3.42-2.01c-.12-.33-.36-.99-.42-1.17-.27-.9-1.2-.72-1.11.21.15,1.5.24,2.64.24,3.69,0,.84.75.63,1.08.24.18-.24.33-.18.51-.09a5.871,5.871,0,0,0,2.43.48,6.347,6.347,0,0,0,3.24-.87,4.558,4.558,0,0,0,2.4-3.99c0-1.83-1.41-2.79-2.79-3.36Zm23.58,3.81a19.345,19.345,0,0,1-.09,2.37c-.06.96-.15,1.23-1.41,1.47-1.05.18-1.05,1.11.09,1.11.54,0,1.53-.06,2.76-.06,1.44,0,2.04.06,2.7.06,1.2,0,1.23-.99.06-1.11-1.56-.21-1.71-.39-1.77-1.44-.03-.51-.06-1.32-.06-2.52v-7.17h1.23c1.56,0,1.83-.06,1.95-.21a2.542,2.542,0,0,0,.48-1.26c0-.21-.12-.33-.33-.27a10.173,10.173,0,0,1-1.62.09h-1.71v-.45c0-7.2,1.65-7.83,3.24-7.83a4.025,4.025,0,0,1,2.97,1.53.522.522,0,0,0,.78-.09,2.7,2.7,0,0,0,.81-1.68,1.3,1.3,0,0,0-.39-.96,3.463,3.463,0,0,0-2.58-.81,6.986,6.986,0,0,0-5.37,3.33c-1.41,2.04-1.68,3.66-1.74,6.96a7.211,7.211,0,0,0-1.92.12,2.032,2.032,0,0,0-.72,1.08c0,.21.06.36.24.39s.96.06,2.4.06Zm17.91-9.54a8.169,8.169,0,0,0-5.31,2.04,7.149,7.149,0,0,0-2.55,5.85c0,3.6,2.37,7.08,6.36,7.08A8.028,8.028,0,0,0,144-2.34a7.877,7.877,0,0,0,1.77-5.37A6.511,6.511,0,0,0,139.47-14.43Zm3.78,7.86c0,3.42-1.62,5.64-4.02,5.64-3.72,0-5.13-3.36-5.13-6.57,0-2.13.72-5.4,4.08-5.4C141.93-12.9,143.25-9.24,143.25-6.57Zm16.53-7.86c-.96,0-1.86.48-4.35,2.94a15.255,15.255,0,0,0-.18-2.37c-.06-.33-.21-.57-.45-.57a.956.956,0,0,0-.51.18,25.815,25.815,0,0,1-2.73,1.38c-.48.21-.48.72,0,.9,1.14.36,1.44.57,1.47,1.02a9.926,9.926,0,0,1,.09,1.98v4.92a11.7,11.7,0,0,1-.09,1.89c-.06.72-.12.84-1.38,1.17-.81.21-.72,1.05.09,1.05.72,0,1.5-.06,2.79-.06s2.34.06,2.97.06c.84,0,.96-.84.06-1.02-1.74-.33-2.01-.45-2.07-1.32-.03-.45-.06-1.05-.06-1.8V-9.99a.631.631,0,0,1,.15-.45,3.417,3.417,0,0,1,2.58-1.44,2.07,2.07,0,0,1,1.59.75c.45.51.51.57.78.57.3,0,.57-.33.66-.57a3.028,3.028,0,0,0,.42-1.59A1.739,1.739,0,0,0,159.78-14.43Zm18.84,3.63C179.7-8.46,181.56-4.2,183-.72a.629.629,0,0,1-.03.48c-.51.99-.99,1.98-1.56,3.06-.72,1.2-1.08,1.83-1.83,3a4.907,4.907,0,0,0-.9,1.95c0,.51.66,1.08,1.68,1.08a.729.729,0,0,0,.81-.57c.24-.75.69-2.1,2.13-5.67,2.85-6.81,5.04-11.43,6.03-13.68.51-1.11.72-1.41,1.83-1.68,1.08-.24.96-1.17-.06-1.14-.78,0-1.71.06-2.37.06-.87,0-1.8-.06-2.37-.06-.99.03-.99.93-.03,1.11,1.5.3,1.65.51,1.35,1.59-.3.87-1.59,4.2-3.21,7.77-.06.12-.15.09-.24-.06-.78-1.98-2.19-5.4-3.33-8.19-.24-.66-.09-.84,1.08-1.11.84-.18.81-1.11-.15-1.11-.57,0-1.95.06-2.55.06-.87,0-2.04-.09-2.79-.06-.96.03-.99.93-.03,1.08C177.78-12.54,177.93-12.15,178.62-10.8Zm24.99-3.63a8.169,8.169,0,0,0-5.31,2.04,7.149,7.149,0,0,0-2.55,5.85c0,3.6,2.37,7.08,6.36,7.08a8.028,8.028,0,0,0,6.03-2.88,7.877,7.877,0,0,0,1.77-5.37A6.511,6.511,0,0,0,203.61-14.43Zm3.78,7.86c0,3.42-1.62,5.64-4.02,5.64-3.72,0-5.13-3.36-5.13-6.57,0-2.13.72-5.4,4.08-5.4C206.07-12.9,207.39-9.24,207.39-6.57Zm11.94-3.75a13.538,13.538,0,0,1,.27-3.42c.09-.42-.15-.66-.42-.66a4.643,4.643,0,0,0-.81.3,11.014,11.014,0,0,1-2.55.66c-.69.12-.84.84-.15,1.05,1.11.33,1.29.72,1.32,1.11.06.66.06,1.29.06,1.83V-4.5a5.092,5.092,0,0,0,1.2,3.81A3.734,3.734,0,0,0,221.07.42c2.01,0,3.66-1.59,4.95-2.76.06,1.5.15,2.73.9,2.73a6.147,6.147,0,0,0,3.33-1.26c.48-.42.36-1.02-.18-.99-.99.09-1.26.09-1.59-.36a7.274,7.274,0,0,1-.24-2.7v-5.55a19.089,19.089,0,0,1,.18-3.12.425.425,0,0,0-.39-.6c-.12,0-.42.12-.93.24a10.952,10.952,0,0,1-2.88.33c-.93.03-.96.96-.18,1.08,1.59.3,1.8.54,1.89,1.29a10.579,10.579,0,0,1,.06,1.29v5.79a.948.948,0,0,1-.12.63,4.539,4.539,0,0,1-3.6,1.92,2.65,2.65,0,0,1-2.76-2.01,9.238,9.238,0,0,1-.18-2.34Zm24.69-4.11c-.96,0-1.86.48-4.35,2.94a15.255,15.255,0,0,0-.18-2.37c-.06-.33-.21-.57-.45-.57a.956.956,0,0,0-.51.18,25.813,25.813,0,0,1-2.73,1.38c-.48.21-.48.72,0,.9,1.14.36,1.44.57,1.47,1.02a9.926,9.926,0,0,1,.09,1.98v4.92a11.7,11.7,0,0,1-.09,1.89c-.06.72-.12.84-1.38,1.17-.81.21-.72,1.05.09,1.05.72,0,1.5-.06,2.79-.06s2.34.06,2.97.06c.84,0,.96-.84.06-1.02-1.74-.33-2.01-.45-2.07-1.32-.03-.45-.06-1.05-.06-1.8V-9.99a.631.631,0,0,1,.15-.45,3.417,3.417,0,0,1,2.58-1.44,2.07,2.07,0,0,1,1.59.75c.45.51.51.57.78.57.3,0,.57-.33.66-.57a3.028,3.028,0,0,0,.42-1.59A1.739,1.739,0,0,0,244.02-14.43ZM265.98-8.7c-1.14-.45-2.04-.99-2.04-2.37,0-1.02.51-2.04,2.28-2.04a2.712,2.712,0,0,1,2.58,1.29,5.084,5.084,0,0,1,.51,1.53c.15.81,1.08.66,1.08-.33a22.2,22.2,0,0,1,.3-3.78c.09-.48-.45-.51-.81-.24-.18.12-.33.36-.54.51-.09.06-.12.09-.33.03a6.091,6.091,0,0,0-1.98-.33,5.824,5.824,0,0,0-3.6,1.14,3.862,3.862,0,0,0-1.65,3.12,3.883,3.883,0,0,0,2.82,3.51c.87.33,2.01.75,2.88,1.11a2.369,2.369,0,0,1,1.59,2.22q0,2.43-2.61,2.43a3.361,3.361,0,0,1-3.42-2.01c-.12-.33-.36-.99-.42-1.17-.27-.9-1.2-.72-1.11.21.15,1.5.24,2.64.24,3.69,0,.84.75.63,1.08.24.18-.24.33-.18.51-.09a5.871,5.871,0,0,0,2.43.48,6.347,6.347,0,0,0,3.24-.87,4.558,4.558,0,0,0,2.4-3.99c0-1.83-1.41-2.79-2.79-3.36Zm14.97-3.51h1.56c1.32,0,1.65-.06,1.77-.21a2.082,2.082,0,0,0,.42-1.2c0-.21-.06-.3-.24-.27s-.93.06-1.62.06h-1.89c.03-3.66.12-4.35.27-4.68.24-.57-.09-.87-.6-.54a6.291,6.291,0,0,0-1.68,1.65,14.291,14.291,0,0,0-.24,3.57,6.032,6.032,0,0,0-1.83.12c-.18.09-.81.75-.81,1.08,0,.18.06.36.27.39.24.03.63.03,1.98.03h.39v8.28c0,3.72,1.38,4.35,2.82,4.35a4.709,4.709,0,0,0,3-1.14c.81-.78.45-1.38-.18-1.2a3.812,3.812,0,0,1-1.62.3c-1.26,0-1.77-.78-1.77-2.61ZM298.2-7.5c-.45-.03-.87-.06-1.17-.06-3.39,0-7.32,1.53-7.32,4.29A3.414,3.414,0,0,0,292.92.45c1.38,0,2.97-.66,5.13-2.49.06,1.5.18,2.34,1.14,2.37a5.362,5.362,0,0,0,2.85-.72c.63-.36.63-1.17,0-1.14-.57,0-1.44.03-1.71-.45a1.293,1.293,0,0,1-.09-.6c0-.36.09-5.01.09-6.96s-.69-4.89-4.26-4.89a12.132,12.132,0,0,0-5.22,2.34,1.037,1.037,0,0,0-.42.9,3.054,3.054,0,0,0,.3,1.35c.39.9,1.08.72,1.32.09.27-.66.42-1.5.72-2.07a2,2,0,0,1,2.04-1.02c1.47,0,3.27.84,3.39,3.81Zm0,3.18a1.255,1.255,0,0,1-.36,1.08,4.2,4.2,0,0,1-3.36,1.74,2.071,2.071,0,0,1-2.31-2.22c0-1.56,1.38-2.52,3.45-2.55a11.115,11.115,0,0,1,2.37.12c.12.03.21.03.21.21Zm10.14-6.48c1.08,2.34,2.94,6.6,4.38,10.08a.629.629,0,0,1-.03.48c-.51.99-.99,1.98-1.56,3.06-.72,1.2-1.08,1.83-1.83,3a4.907,4.907,0,0,0-.9,1.95c0,.51.66,1.08,1.68,1.08a.729.729,0,0,0,.81-.57c.24-.75.69-2.1,2.13-5.67,2.85-6.81,5.04-11.43,6.03-13.68.51-1.11.72-1.41,1.83-1.68,1.08-.24.96-1.17-.06-1.14-.78,0-1.71.06-2.37.06-.87,0-1.8-.06-2.37-.06-.99.03-.99.93-.03,1.11,1.5.3,1.65.51,1.35,1.59-.3.87-1.59,4.2-3.21,7.77-.06.12-.15.09-.24-.06-.78-1.98-2.19-5.4-3.33-8.19-.24-.66-.09-.84,1.08-1.11.84-.18.81-1.11-.15-1.11-.57,0-1.95.06-2.55.06-.87,0-2.04-.09-2.79-.06-.96.03-.99.93-.03,1.08C307.5-12.54,307.65-12.15,308.34-10.8Z" transform="translate(8.85 -1.604) rotate(90)" fill="#8d857b"/>
</svg>
