<svg xmlns="http://www.w3.org/2000/svg" width="258.48" height="72.405" viewBox="0 0 258.48 72.405">
  <path id="パス_82" data-name="パス 82" d="M16.71-8.79a38.76,38.76,0,0,0-.48-5.07h8.13c1.23,0,1.77-.27,1.77-.72,0-.78-2.31-2.7-2.97-2.7-.51,0-1.38,1.2-2.07,2.22h-5.1a23.277,23.277,0,0,0-1.56-4.62,48.6,48.6,0,0,0,7.32-1.71c1.56,1.14,2.1.09,1.5-.75a7.626,7.626,0,0,0-1.65-1.8.9.9,0,0,0-1.05-.03c-4.17,1.95-8.31,3.15-16.11,3.81-1.05.09-.96,1.2.06,1.2a68.05,68.05,0,0,0,8.19-.48,27.144,27.144,0,0,1,1.26,4.38H4.44c-.39,0-.66.15-.66.6,0,.48.27.6.66.6h9.72a35.6,35.6,0,0,1,.39,5.07H2.1c-.39,0-.66.15-.66.6,0,.48.27.6.66.6H14.58v.63c0,3.93-.72,6.15-1.92,6.15-.84,0-2.34-.15-2.94-.21C8.91-1.11,8.7-.27,9.54.09a4.132,4.132,0,0,1,1.77,1.08,1.846,1.846,0,0,0,1.5.72c2.7,0,3.93-3.33,3.93-8.85v-.63h9.78c1.35,0,1.89-.27,1.89-.72,0-.78-2.37-2.79-3.09-2.79-.54,0-1.47,1.26-2.19,2.31Zm23.34.81c0-.9,0-5.91.09-7.44.69-.09,1.2-.3,1.23-.72,0-.36-.72-.81-1.41-1.11a42.358,42.358,0,0,0,2.52-5.4c.9.12,1.5-.03,1.47-.54,0-.66-2.01-1.59-3.09-1.8-.36-.03-.48.12-.54.45-.84,4.68-3.48,9.66-6.78,13.95-.54.75.18,1.32.81.69a28.043,28.043,0,0,0,3.54-4.08c.12,4.71-.06,13.35-.06,15.24a.768.768,0,0,0,.84.87c.96,0,1.41-.36,1.41-1.02Zm7.86-10.95c.72-1.44,1.29-2.79,1.71-3.87.87.03,1.5-.18,1.44-.69-.03-.63-2.19-1.29-3.18-1.41-.33-.03-.48.09-.54.42a31.5,31.5,0,0,1-5.67,12.45c-.48.72.21,1.2.84.6a24.78,24.78,0,0,0,4.77-6.3h2.58v8.97c0,5.67-.12,8.82-.12,10.02a.786.786,0,0,0,.87.9c.99,0,1.5-.45,1.5-1.08,0-.81-.06-2.76-.09-6h7.86c1.02,0,1.59-.24,1.59-.66,0-.72-2.07-2.46-2.67-2.46-.45,0-1.23,1.02-1.83,1.92H51.99v-5.07h7.44c1.02,0,1.59-.24,1.59-.66,0-.69-2.07-2.46-2.67-2.46-.45,0-1.2,1.02-1.8,1.92H51.99v-4.62c.6-.12.87-.33.87-.63v-.09h7.41c1.02,0,1.59-.27,1.59-.69,0-.72-2.1-2.55-2.7-2.55-.45,0-1.26,1.11-1.89,2.04Zm29.91-4.38a4.781,4.781,0,0,1,1.08,3.03c0,1.62-1.53,4.95-2.46,7.47a11.817,11.817,0,0,0-.93,3.93c0,1.11.45,2.04,1.29,2.04.69,0,1.05-.57,1.14-1.56a27.853,27.853,0,0,1,1.11-5.55,2.5,2.5,0,0,1,2.49-1.83c2.52,0,3.9,3.51,3.84,6.87-.09,5.16-3.24,6.96-9.21,8.25-1.11.24-.99,1.23.15,1.17,6.69-.36,11.4-3.03,11.4-8.85,0-4.44-2.07-8.91-5.97-8.91a4.019,4.019,0,0,0-1.83.42c.3-.93,1.35-2.37,1.35-3.63,0-1.35-.78-2.67-2.61-3.63C77.7-24.6,77.34-24.03,77.82-23.31Zm37.8,7.65c-1.41,4.02-5.73,9.87-8.61,9.87-.87,0-1.68-1.41-1.83-3.72a7.937,7.937,0,0,1,2.37-6.6,8.634,8.634,0,0,1,6.09-2.22,13.309,13.309,0,0,1,2.52.24A9.366,9.366,0,0,1,115.62-15.66Zm-1.89-4.17a11.43,11.43,0,0,0-7.35,2.67,9.783,9.783,0,0,0-3.15,8.34c.27,3.54,1.83,5.73,3.42,5.73,3.6,0,8.61-5.97,10.35-10.77a14.467,14.467,0,0,0,.84-3.69,7.392,7.392,0,0,1,4.65,7.14c0,4.92-3.36,7.11-8.55,8.13-.93.18-.87,1.11.18,1.11,6.18,0,10.8-2.97,10.8-8.73C124.92-15.3,120.9-19.83,113.73-19.83ZM144.12-1.77V-3.93c0-.6,0-3.24.06-4.08h11.07c0,1.38-.03,4.17-.03,6.24Zm.93-7.44a26.621,26.621,0,0,0,9.24-10.02c.75-.09,1.53-.42,1.53-.78a4.771,4.771,0,0,0-2.43-2.58c-.36,0-1.14.84-1.68,1.53H144c.36-.6.69-1.2.99-1.74.87.09,1.5-.06,1.5-.54,0-.63-1.89-1.44-2.94-1.65-.33-.06-.45.06-.57.36a37.86,37.86,0,0,1-9.57,14.04c-.66.66-.03,1.32.72.78a35.768,35.768,0,0,0,9.12-10.05h8.64a23.473,23.473,0,0,1-8.61,9.78,5.808,5.808,0,0,0-1.02-.27.358.358,0,0,0-.42.39,5.9,5.9,0,0,1,.06.78,48.719,48.719,0,0,1-7.08,3.48c-.84.36-.42,1.38.42,1.05a51.607,51.607,0,0,0,6.75-2.76c.06,3.03-.03,6.96-.06,8.55a.759.759,0,0,0,.84.84c.9,0,1.38-.3,1.38-.96V-.57h11.04V.78a.9.9,0,0,0,.93,1.02c.84,0,1.35-.24,1.35-1.17-.03-1.14-.12-5.82-.06-8.19.63-.24,1.26-.51,1.26-.99,0-.69-1.89-2.1-2.55-2.1-.36,0-1.05.78-1.53,1.44Zm-.06-3.18a1.279,1.279,0,0,0,1.2-1.53c-.15-1.53-2.04-2.64-3.9-3.03-.81-.15-1.02.45-.6.96a19.489,19.489,0,0,1,1.47,1.95C143.79-13.05,144.18-12.3,144.99-12.39Zm44.85-3.6c0-.45-1.56-.87-2.61-.9-.3,0-.54.18-.51.48-.96,9.21-4.86,13.59-10.95,17.46-.69.39-.27,1.14.51.87,7.86-3.39,11.22-9.75,12.75-17.43C189.6-15.51,189.84-15.75,189.84-15.99Zm-8.85-2.16a48.019,48.019,0,0,0,2.04-4.41c.87.03,1.38-.15,1.38-.6,0-.57-1.83-1.32-2.85-1.5-.39-.06-.54.06-.6.36a27.081,27.081,0,0,1-2.55,6.99v-.09c0-.6-1.53-2.4-2.1-2.4-.39,0-1.05.93-1.62,1.86h-.78c0-2.01.03-3.93.03-4.83.93-.18,1.56-.51,1.56-1.02,0-.75-1.56-.93-3.54-.93-.27,0-.45.15-.39.42a53.357,53.357,0,0,1,.39,6.36h-2.31c.21-1.05.36-1.95.45-2.67.87-.09,1.29-.33,1.23-.75-.12-.6-2.13-1.23-3.27-1.2-.3.03-.48.21-.42.51a21.277,21.277,0,0,1-1.41,9.96c-.24.87.51,1.2.99.45a19.824,19.824,0,0,0,2.16-5.1h2.61c.03,2.64,0,5.01,0,5.64,0,.33,0,.84-.03,1.41-1.65.48-3.48.9-5.52,1.32a.437.437,0,0,0-.36.48c.24,1.56.72,2.76,1.35,2.79.48,0,.78-.75.9-1.5,1.14-.36,2.37-.75,3.6-1.2-.09,3.42-.24,8.04-.24,9a.83.83,0,0,0,.93.9c.96,0,1.38-.39,1.38-1.05,0-.9-.06-6-.09-9.6a35.494,35.494,0,0,0,4.44-2.01c1.11-.6.75-1.32-.45-.99-1.26.45-2.58.9-4.02,1.32v-1.53l.03-4.98h3.39a1.47,1.47,0,0,0,.96-.3,34.034,34.034,0,0,1-3.06,4.71c-.48.69.21,1.17.81.6a22.451,22.451,0,0,0,4.29-5.22h2.19a.439.439,0,0,0-.27.39,22.01,22.01,0,0,1-6.78,12.57c-.54.6.12,1.17.78.69,4.68-3.15,6.93-8.04,8.01-12.24.57,0,.87-.21.87-.51.03-.45-.99-.81-1.92-.9h7.8c.15,4.56-.24,11.73-1.59,14.37a2.051,2.051,0,0,1-1.83,1.47,11.777,11.777,0,0,1-1.89-.15.473.473,0,0,0-.57.33c-.09.33.06.51.42.69a1.85,1.85,0,0,1,.96.84c.27.48.45.72,1.11.72,1.68,0,2.88-.96,3.75-2.85,1.41-3.03,1.77-10.38,1.8-14.67.57-.3,1.02-.69,1.02-1.05,0-.51-1.83-1.86-2.49-1.86-.24,0-.69.45-1.08.96Zm35.22.57c.57.93.99,1.65,1.77,1.56a1.3,1.3,0,0,0,1.2-1.53c-.15-1.44-1.98-2.46-3.75-2.88-.81-.18-1.05.42-.63.93A17.526,17.526,0,0,1,216.21-17.58Zm-.75,6.45c.6.93,1.05,1.65,1.83,1.53a1.25,1.25,0,0,0,1.11-1.53c-.18-1.44-1.98-2.43-3.78-2.85-.81-.15-1.05.48-.6.99A17.115,17.115,0,0,1,215.46-11.13Zm-6.24-4.98a18.6,18.6,0,0,0,2.25-3c.9.06,1.35-.09,1.35-.54.03-.54-1.62-1.5-2.7-1.8a.431.431,0,0,0-.54.42,22.868,22.868,0,0,1-1.32,4.35C207.93-15.9,208.56-15.57,209.22-16.11Zm-8.73-1.65c.3,1.05.48,1.86,1.23,2.01a1.243,1.243,0,0,0,1.47-1.14c.24-1.32-1.11-2.85-2.7-3.84-.69-.42-1.11.12-.84.75A14.1,14.1,0,0,1,200.49-17.76Zm6.39,5.13h4.92c.69,0,1.32-.24,1.32-.69,0-.69-1.77-2.55-2.4-2.55-.42,0-1.17,1.08-1.8,2.04h-2.04c0-2.76.03-7.17.06-8.67.93-.21,1.53-.51,1.53-1.02,0-.72-1.56-.9-3.48-.9a.347.347,0,0,0-.39.42,79.68,79.68,0,0,1,.39,10.17h-5.13c-.39,0-.66.15-.66.6,0,.48.27.6.66.6h4.65a27.2,27.2,0,0,1-5.76,9.72c-.69.78-.06,1.41.75.84a20.64,20.64,0,0,0,5.43-6c-.06,3.39-.21,8.19-.21,9.15a.821.821,0,0,0,.9.9c.96,0,1.38-.39,1.38-1.05,0-1.26-.12-10.53-.12-12.6Zm4.05,6a1.235,1.235,0,0,0,1.2-1.44c-.12-1.35-1.77-2.28-3.42-2.7-.78-.18-1.05.42-.63.93a20.108,20.108,0,0,1,1.2,1.74C209.82-7.26,210.18-6.57,210.93-6.63Zm11.85-.87c0-1.74-.03-3.3-.03-4.02,0-1.14,0-8.46.09-10.5.93-.21,1.56-.57,1.56-1.08,0-.75-1.71-.93-3.69-.93a.376.376,0,0,0-.42.45c.48,2.94.39,11.22.39,12.48,0,.81-.03,2.28-.06,3.93l-9.93,1.5c-.39.06-.63.24-.57.69.06.48.36.54.72.48l9.75-1.44c-.09,2.97-.18,6.12-.18,6.9a.853.853,0,0,0,.96.9c.99,0,1.53-.39,1.53-1.05,0-.72-.06-4.02-.09-7.08l3.75-.57c.66-.09,1.2-.39,1.14-.84a4.477,4.477,0,0,0-2.61-2.1c-.39.06-.99,1.17-1.44,2.16Zm15.75-5.22h2.97c.63,0,1.23-.18,1.23-.63a4.464,4.464,0,0,0-2.22-2.34c-.39,0-1.05.9-1.62,1.77h-.36v-6.3a.88.88,0,0,0,.6-.51h2.4c.93,0,1.53-.24,1.53-.66,0-.72-2.01-2.49-2.61-2.49-.45,0-1.2,1.05-1.83,1.95h-5.67c-.39,0-.66.15-.66.6,0,.48.27.6.66.6h3.57v6.81h-3.3c-.39,0-.66.15-.66.6,0,.48.27.6.66.6h3.3V-5.7c-1.35.39-2.79.78-4.32,1.14a.331.331,0,0,0-.33.42c.27,1.59.75,2.79,1.38,2.79.51,0,.78-.69.87-1.44A37.915,37.915,0,0,0,242.4-6.6c.99-.66.63-1.47-.48-1.02-.99.42-2.13.84-3.39,1.26Zm7.11,1.53-.03-4.29v-.09h3.87v4.38Zm5.82-9.57c.36-.12.57-.33.6-.57h3.54c.03.93.03,2.67,0,4.56h-4.14Zm-1.98-.57v4.56h-3.87c0-1.5.03-3.69.09-4.56Zm1.98,10.14v-4.38h4.14l-.03,4.38Zm0,10.56v-3.9h5.43c.87,0,1.44-.24,1.44-.66-.03-.69-1.92-2.43-2.49-2.43-.42,0-1.17.99-1.77,1.89h-2.61V-9.99h4.08v.87c0,.48.21,1.02.9,1.02.78,0,1.26-.21,1.26-1.14,0-1.41-.15-9-.03-11.67.51-.21.99-.48.99-.87,0-.66-1.71-1.95-2.28-1.95-.33,0-.84.63-1.29,1.2h-8.76a6.217,6.217,0,0,0-2.43-1.02.339.339,0,0,0-.42.36c.33,3.3.12,12.27.09,14.82,0,.54.27.84.78.84.87,0,1.29-.3,1.29-.96v-1.5h3.81v4.26h-6.27c-.39,0-.66.15-.66.6,0,.48.27.6.66.6h6.27v3.9H239.7c-.39,0-.66.15-.66.6,0,.48.27.6.66.6h18.78c.93,0,1.44-.24,1.44-.66,0-.69-1.92-2.49-2.52-2.49-.42,0-1.2,1.02-1.8,1.95ZM52.26,39.33V21.84c0-.42.09-.54.51-.54h7.47a.583.583,0,0,0,.63-.63v-.24a.583.583,0,0,0-.63-.63H51.39a.583.583,0,0,0-.63.63v18.9a.583.583,0,0,0,.63.63h.24A.583.583,0,0,0,52.26,39.33Zm18.57,1.26v-1.8c0-.6,0-3.3.03-4.17l.15-.03h6.21c0,1.38-.03,4.17-.03,6Zm6.33,1.2v.48a.923.923,0,0,0,.96,1.02c.84,0,1.32-.24,1.32-1.17,0-1.05-.09-5.04-.03-7.14.57-.24,1.08-.51,1.08-.9,0-.66-1.83-1.98-2.46-1.98-.33,0-.93.69-1.38,1.29h-1.5V27.54h5.13c.84,0,1.44-.24,1.44-.69,0-.69-1.92-2.52-2.52-2.52-.45,0-1.23,1.05-1.86,2.01H75.15V22.08c.93-.21,1.59-.45,1.59-1.11,0-.78-2.94-.87-3.45-.87-.27,0-.45.15-.42.42.15,1.11.24,3.36.27,5.82H66.78c-.39,0-.66.15-.66.6,0,.48.27.6.66.6h6.36c.03,2.07.03,4.17,0,5.85h-1.5a7.848,7.848,0,0,0-2.7-1.23c-.27-.03-.51.15-.45.42.3,2.79.12,9.36.09,11.4,0,.54.3.81.87.81.9,0,1.38-.27,1.38-.93V41.79Zm7.62-6.36c.09-.87.12-1.74.15-2.55.03-.93.06-1.92.06-2.94h5.28v5.49Zm5.49-11.76v5.07H84.99c.03-1.74,0-3.51-.03-5.07Zm-4.71-1.2a7.873,7.873,0,0,0-2.64-1.23c-.39-.06-.54.09-.48.54a87.851,87.851,0,0,1,.42,10.2c-.03,7.38-1.71,10.68-5.88,14.13-.75.6-.15,1.29.57.9a13.225,13.225,0,0,0,7.08-10.38H90.3c0,2.43.03,4.98-.09,6.45-.06.93-.36,1.2-1.14,1.2-.63,0-1.8-.15-2.07-.15-.57,0-.69.78-.06.99,2.07.54,1.41,1.83,2.52,1.83a2.732,2.732,0,0,0,2.85-2.7c.03-6.57-.03-15.03.12-20.1.66-.24,1.29-.6,1.29-.99,0-.57-2.01-2.28-2.76-2.28-.24,0-1.05.93-1.56,1.59Zm39.51,2.43c1.2,0,1.74-.3,1.74-.72,0-.78-2.28-2.64-2.91-2.64-.48,0-1.35,1.17-2.01,2.16h-7.35V21.96c.93-.21,1.59-.45,1.59-1.08,0-.81-3.03-.9-3.54-.9a.377.377,0,0,0-.42.45,28.127,28.127,0,0,1,.09,3.27h-7.32a8.26,8.26,0,0,0-2.4-1.11c-.39-.06-.57.09-.54.57.18,2.76.27,5.82.27,8.4-.06,6.36-1.08,9.96-3.48,13.47-.6.81.18,1.38.9.72,3.96-3.57,4.62-8.97,4.77-13.47.09-2.7.15-4.89.09-7.38Zm-14.13,7.35h3.39c.63,0,1.26-.21,1.26-.66-.03-.63-1.68-2.37-2.25-2.37-.39,0-1.08.93-1.65,1.83h-.75c0-1.5.03-2.88.03-3.57.93-.15,1.5-.45,1.5-.93,0-.69-1.77-.87-3.3-.87-.27,0-.45.15-.39.42a48.723,48.723,0,0,1,.27,4.95H105.3c-.39,0-.66.15-.66.6,0,.48.27.6.66.6h3.03a22.943,22.943,0,0,1-4.89,10.5c-.6.81.12,1.32.81.72a18.873,18.873,0,0,0,4.8-6.72c-.03,2.07-.21,8.46-.21,9.45a.782.782,0,0,0,.84.87c.87,0,1.32-.3,1.32-.99,0-1.05-.09-8.37-.09-9.93ZM114,38.16a1.165,1.165,0,0,0,1.23-1.23c.03-1.29-1.5-2.25-2.94-2.7-.72-.21-.99.33-.66.81.33.54.69,1.11.99,1.65C113.01,37.5,113.31,38.16,114,38.16Zm11.61-6c.69,0,1.32-.21,1.32-.66a4.5,4.5,0,0,0-2.37-2.49c-.42,0-1.17,1.02-1.77,1.95h-2.1c.03-1.47.03-2.85.06-3.51.9-.15,1.5-.45,1.5-.93,0-.69-1.77-.87-3.33-.87-.27,0-.45.15-.39.42a46.855,46.855,0,0,1,.27,4.89h-2.46c-.39,0-.66.15-.66.6,0,.48.27.6.66.6h1.89a20.165,20.165,0,0,1-5.46,10.14c-.63.72.03,1.29.78.72a16.847,16.847,0,0,0,5.25-6.45c-.03,2.04-.21,8.46-.21,9.45a.759.759,0,0,0,.84.84c.9,0,1.32-.3,1.32-.96,0-1.05-.09-8.31-.09-9.87V34.77a18.057,18.057,0,0,0,3.84,7.53.741.741,0,0,0,1.2.03,2.4,2.4,0,0,1,1.08-.78c.87-.24.96-.48.21-.99a14.486,14.486,0,0,1-5.94-8.4Zm31.71-8.49c1.2,0,1.74-.3,1.74-.72,0-.78-2.28-2.64-2.91-2.64-.48,0-1.35,1.17-2.04,2.16H134.28c-.39,0-.66.15-.66.6,0,.48.27.6.66.6ZM140.1,33.84V31.83c0-.51,0-2.64.06-3.42h12.09c0,1.29-.03,3.78-.03,5.43Zm.84-6.63a7.315,7.315,0,0,0-2.76-1.17.358.358,0,0,0-.42.39c.27,2.67.12,7.77.12,9.72a.738.738,0,0,0,.84.81c.93,0,1.41-.3,1.41-.93v-.99h12.06v.33a.923.923,0,0,0,.96,1.02c.87,0,1.38-.21,1.38-1.14,0-1.02-.09-4.41-.03-6.45.57-.21,1.08-.48,1.08-.9,0-.66-1.86-2.01-2.49-2.01-.36,0-.96.69-1.44,1.32Zm9.42,9.48c-.33-.09-.48.09-.54.39a20.956,20.956,0,0,1-2.37,6.12c-.39.75.3,1.17.93.63a19.412,19.412,0,0,0,3.57-4.71c.87.09,1.41-.09,1.41-.54C153.36,38.01,151.41,36.96,150.36,36.69Zm-9.87,1.62a20.948,20.948,0,0,1,.99,2.16c.33,1.05.45,1.95,1.32,2.07a1.422,1.422,0,0,0,1.65-1.26c.21-1.59-1.32-3-3.03-3.84C140.58,37.05,140.16,37.62,140.49,38.31Zm-7.23,5.88c-.39,0-.66.15-.66.6,0,.48.27.6.66.6h24.6c1.2,0,1.74-.3,1.74-.72,0-.78-2.28-2.64-2.91-2.64-.48,0-1.38,1.17-2.04,2.16Zm57.69-19.92c1.2,0,1.74-.27,1.74-.72,0-.75-2.28-2.64-2.91-2.64-.48,0-1.38,1.17-2.04,2.16H180.6V22.02c.93-.21,1.59-.45,1.59-1.08,0-.81-3.03-.9-3.54-.9a.377.377,0,0,0-.42.45c.06.72.09,1.71.09,2.58h-7.95a7.693,7.693,0,0,0-2.16-.99c-.39-.06-.6.09-.57.57.21,3.12.27,6.69.21,9.42-.03,6-.81,9.96-2.94,13.44-.54.84.3,1.44.96.72,3.51-3.48,4.02-8.94,4.17-13.53.12-2.88.15-5.58.09-8.31.12-.03.27-.09.39-.12Zm-16.71,5.85c0,1.47-.03,3.3-.03,3.87q0,.81.72.81c.78,0,1.2-.27,1.2-.9,0-.45-.03-1.83-.03-2.55,0-.63.03-2.07.06-2.55.39-.06.72-.18.75-.42,0-.24-.3-.54-.72-.78.3-.48.54-.93.72-1.29.87.03,1.38-.18,1.35-.6-.03-.57-1.5-1.17-2.55-1.38a.459.459,0,0,0-.6.36,15.941,15.941,0,0,1-4.77,7.32c-.54.66,0,1.29.69.81A18.163,18.163,0,0,0,174.24,30.12Zm8.52,10.59c.06-.54-1.38-.99-2.4-1.05-.36-.03-.42.15-.51.48a5.749,5.749,0,0,1-1.53,2.82,9.3,9.3,0,0,1-3.06,1.89c-.81.36-.36,1.17.27.99a8.485,8.485,0,0,0,4.11-1.95,7.442,7.442,0,0,0,1.83-2.58C182.31,41.28,182.73,41.13,182.76,40.71Zm.33-1.32c.51.36,1.05.84,1.44,1.11a1.062,1.062,0,0,0,1.14.09,1.024,1.024,0,0,0,.3-1.47c-.54-.84-1.92-1.56-4.14-1.59-.6,0-.66.57-.3.81C182.01,38.64,182.64,39.09,183.09,39.39Zm-1.26,2.7a.424.424,0,0,0-.3.78c.42.3,1.05.78,1.44,1.08.45.39.96.87,1.35,1.14a.916.916,0,0,0,1.08.15.972.972,0,0,0,.36-1.41C185.31,42.93,183.99,42.21,181.83,42.09Zm-.24-6.81c.03-.21.09-.42.12-.63.99-.03,1.47-.21,1.47-.72,0-.63-1.68-1.08-2.85-1.08-.45,0-.51.18-.54.6a10.6,10.6,0,0,1-.21,1.83h-5.13a7.405,7.405,0,0,0-2.01-.75.358.358,0,0,0-.42.39c.3,2.88.12,9.24.09,11.4a.759.759,0,0,0,.84.84c.9,0,1.38-.3,1.38-.96,0-.63-.03-4.38-.03-5.1,0-.66,0-3.57.06-4.47a2.613,2.613,0,0,0,.57-.15h4.29a3.8,3.8,0,0,1-.36.69,7.141,7.141,0,0,1-3.51,2.73c-.78.36-.42,1.2.33.99a8.032,8.032,0,0,0,4.86-3.03,6.593,6.593,0,0,0,.69-1.38h7.26v3.18c0,1.32,0,3-.06,4.05-.06.66-.27.93-.84.93-.3,0-.93-.06-1.11-.06-.57,0-.66.69-.06.96,1.23.54.54,1.56,1.71,1.56a2.3,2.3,0,0,0,2.37-2.49c.03-2.58,0-5.52.03-7.41.63-.24,1.2-.54,1.2-.96,0-.54-1.89-2.1-2.61-2.1-.21,0-.75.6-1.2,1.14Zm.33-2.94a1.193,1.193,0,0,0,1.11-1.38c-.09-1.11-1.32-1.68-2.7-2.1-.84-.21-1.11.45-.69.99a11.047,11.047,0,0,1,.93,1.23C180.99,31.71,181.23,32.37,181.92,32.34Zm5.52-5.04v-.99c.45-.15.96-.33.96-.75,0-.63-1.38-.75-2.61-.75-.3,0-.45.12-.42.48.03.51.06,1.23.09,2.01h-7.44c-.39,0-.66.15-.66.6,0,.48.27.6.66.6h7.47v3.03c-.03.6-.09.84-.54.87a9.722,9.722,0,0,1-1.32-.06c-.6,0-.72.78-.03.99,1.29.39,1.08,1.38,2.04,1.38,1.08,0,1.77-.57,1.74-2.1l.03-4.11h3.93c.93,0,1.41-.18,1.38-.6,0-.63-1.83-2.22-2.37-2.22-.39,0-1.02.84-1.56,1.62Zm19.53.57V45.36c0,.42-.09.54-.51.54h-7.47a.583.583,0,0,0-.63.63v.24a.583.583,0,0,0,.63.63h8.85a.583.583,0,0,0,.63-.63V27.87a.583.583,0,0,0-.63-.63h-.24A.583.583,0,0,0,206.97,27.87Z" transform="translate(-1.44 25.005)" fill="#8d857b"/>
</svg>
