<svg xmlns="http://www.w3.org/2000/svg" width="382.368" height="126.032" viewBox="0 0 382.368 126.032">
  <g id="グループ_78" data-name="グループ 78" transform="translate(-153.728 -185.976)">
    <path id="パス_45" data-name="パス 45" d="M17.752-36.736c2.016-.224,1.9-2.016.112-2.016-1.232,0-4.2.112-6.776.112-2.128,0-5.376-.112-6.552-.112-2.016,0-2.016,1.792.112,2.016,3.7.448,3.864,1.232,4.032,3.3.112,1.288.112,1.512.112,7.392v13.216c0,5.32-.056,6.16-.112,7.224C8.568-3.248,8.4-2.464,4.536-1.96,2.632-1.736,2.688.112,4.48.112,5.992.112,9.072,0,11.424,0c3.08,0,5.1.112,6.272.112,2.016,0,1.96-1.848.168-2.072-3.808-.56-4.144-1.064-4.256-3.584-.056-1.232-.112-2.072-.112-7.28V-26.04c0-5.32.056-6.1.112-7.392C13.664-35.5,14.056-36.288,17.752-36.736Zm8.12,27.048A38.943,38.943,0,0,1,25.7-4.424c-.112,1.624-.28,2.016-2.8,2.52-1.68.28-1.736,2.016.168,2.016C24.528.112,26.1,0,27.944,0c2.016,0,3.864.112,5.1.112,1.792,0,1.9-1.736.28-2.016-2.8-.5-3.024-.9-3.08-2.464a30.028,30.028,0,0,1-.168-4.48v-9.52a1.89,1.89,0,0,1,.392-1.456c1.344-1.568,3.7-3.416,6.328-3.416,4.256,0,6.328,2.688,6.328,6.832v3.752c0,5.432-.112,6.72-.168,7.84C42.9-3.024,42.728-2.464,39.76-1.9c-1.736.28-1.736,2.016.28,2.016C41.1.112,43.288,0,44.744,0c1.9,0,3.416.112,5.208.112,1.848,0,1.9-1.736.168-2.016-2.464-.448-2.8-.672-2.8-2.464v-12.88c0-6.272-3.08-9.688-7.784-9.688a8.786,8.786,0,0,0-4.7,1.456,40.892,40.892,0,0,0-4.648,3.36,19.128,19.128,0,0,0-.28-3.92c-.112-.616-.336-.9-.84-.9a3.806,3.806,0,0,0-1.456.616,19.7,19.7,0,0,1-4.48,2.24.907.907,0,0,0-.112,1.736c2.576.84,2.856,1.344,2.856,3.024Zm36.064-13.1h2.912c2.464,0,3.08-.112,3.3-.392a3.887,3.887,0,0,0,.784-2.24c0-.392-.112-.56-.448-.5s-1.736.112-3.024.112H61.936c.056-6.832.224-8.12.5-8.736.448-1.064-.168-1.624-1.12-1.008a11.742,11.742,0,0,0-3.136,3.08c-.168.448-.392,1.68-.448,6.664a11.259,11.259,0,0,0-3.416.224c-.336.168-1.512,1.4-1.512,2.016,0,.336.112.672.5.728.448.056,1.176.056,3.7.056h.728V-7.336c0,6.944,2.576,8.12,5.264,8.12a8.79,8.79,0,0,0,5.6-2.128c1.512-1.456.84-2.576-.336-2.24a7.115,7.115,0,0,1-3.024.56c-2.352,0-3.3-1.456-3.3-4.872Zm26.88-4.144c-1.792,0-3.472.9-8.12,5.488a28.475,28.475,0,0,0-.336-4.424c-.112-.616-.392-1.064-.84-1.064a1.785,1.785,0,0,0-.952.336,48.186,48.186,0,0,1-5.1,2.576c-.9.392-.9,1.344,0,1.68,2.128.672,2.688,1.064,2.744,1.9a18.528,18.528,0,0,1,.168,3.7V-7.56a21.833,21.833,0,0,1-.168,3.528c-.112,1.344-.224,1.568-2.576,2.184-1.512.392-1.344,1.96.168,1.96,1.344,0,2.8-.112,5.208-.112s4.368.112,5.544.112c1.568,0,1.792-1.568.112-1.9-3.248-.616-3.752-.84-3.864-2.464-.056-.84-.112-1.96-.112-3.36V-18.648a1.178,1.178,0,0,1,.28-.84c1.792-2.072,3.416-2.688,4.816-2.688a3.864,3.864,0,0,1,2.968,1.4c.84.952.952,1.064,1.456,1.064.56,0,1.064-.616,1.232-1.064a5.651,5.651,0,0,0,.784-2.968A3.246,3.246,0,0,0,88.816-26.936Zm20.944,0a15.249,15.249,0,0,0-9.912,3.808c-2.856,2.464-4.76,5.712-4.76,10.92,0,6.72,4.424,13.216,11.872,13.216a14.986,14.986,0,0,0,11.256-5.376c1.68-1.9,3.3-5.1,3.3-10.024C121.52-21.056,116.536-26.936,109.76-26.936Zm7.056,14.672c0,6.384-3.024,10.528-7.5,10.528-6.944,0-9.576-6.272-9.576-12.264,0-3.976,1.344-10.08,7.616-10.08C114.352-24.08,116.816-17.248,116.816-12.264ZM146.664-26.04a10.016,10.016,0,0,0-4.312-.9,16.2,16.2,0,0,0-8.512,2.576,14.1,14.1,0,0,0-7.112,12.544c0,7.28,4.928,12.544,10.024,12.544,3.136,0,6.16-1.456,9.8-4.368.168,2.856.5,4.592,1.792,4.592a14,14,0,0,0,6.1-2.016c1.512-.9,1.064-2.072-.056-2.072-.392,0-1.064.056-1.288.056-2.128,0-2.24-1.008-2.24-5.712V-39.144a14.015,14.015,0,0,1,.56-4.816.814.814,0,0,0-.616-1.064,8.329,8.329,0,0,0-2.3.784,24.886,24.886,0,0,1-5.544,1.568c-1.568.224-1.512,1.68,0,1.96,2.576.5,3.416.84,3.528,1.736a25.959,25.959,0,0,1,.168,3.752Zm-6.944,2.128a9.235,9.235,0,0,1,6.216,1.9,1.789,1.789,0,0,1,.728,1.624V-7.56a2.8,2.8,0,0,1-.392,1.848,9,9,0,0,1-6.608,2.744c-5.32,0-8.288-5.04-8.288-10.7C131.376-20.5,134.4-23.912,139.72-23.912Zm25.872,4.648a25.272,25.272,0,0,1,.5-6.384c.168-.784-.28-1.232-.784-1.232a8.667,8.667,0,0,0-1.512.56,20.56,20.56,0,0,1-4.76,1.232c-1.288.224-1.568,1.568-.28,1.96,2.072.616,2.408,1.344,2.464,2.072.112,1.232.112,2.408.112,3.416V-8.4c0,4.032,1.176,6.048,2.24,7.112A6.969,6.969,0,0,0,168.84.784c3.752,0,6.832-2.968,9.24-5.152.112,2.8.28,5.1,1.68,5.1a11.474,11.474,0,0,0,6.216-2.352c.9-.784.672-1.9-.336-1.848-1.848.168-2.352.168-2.968-.672-.336-.392-.448-2.184-.448-5.04v-10.36a35.63,35.63,0,0,1,.336-5.824.793.793,0,0,0-.728-1.12c-.224,0-.784.224-1.736.448a20.443,20.443,0,0,1-5.376.616c-1.736.056-1.792,1.792-.336,2.016,2.968.56,3.36,1.008,3.528,2.408a19.754,19.754,0,0,1,.112,2.408V-7.784a1.769,1.769,0,0,1-.224,1.176,8.474,8.474,0,0,1-6.72,3.584,4.947,4.947,0,0,1-5.152-3.752,17.243,17.243,0,0,1-.336-4.368Zm39.76-7.672a15.44,15.44,0,0,0-8.568,2.688,14.324,14.324,0,0,0-6.664,11.984c0,7.112,4.816,12.992,10.92,12.992a13.783,13.783,0,0,0,10.472-4.48c1.344-1.512.616-2.968-.952-1.792a10.221,10.221,0,0,1-6.552,2.464c-3.976,0-9.24-2.464-9.24-10.976,0-6.832,3.024-9.8,7.336-9.8,4.032,0,5.992,2.128,6.776,3.584.672,1.232,1.4.56,1.848-.168a6.139,6.139,0,0,0,.952-2.912,2.358,2.358,0,0,0-.952-1.9C210.112-25.816,208.6-26.936,205.352-26.936ZM224.5-22.792h2.912c2.464,0,3.08-.112,3.3-.392a3.887,3.887,0,0,0,.784-2.24c0-.392-.112-.56-.448-.5s-1.736.112-3.024.112H224.5c.056-6.832.224-8.12.5-8.736.448-1.064-.168-1.624-1.12-1.008a11.742,11.742,0,0,0-3.136,3.08c-.168.448-.392,1.68-.448,6.664a11.259,11.259,0,0,0-3.416.224c-.336.168-1.512,1.4-1.512,2.016,0,.336.112.672.5.728.448.056,1.176.056,3.7.056h.728V-7.336c0,6.944,2.576,8.12,5.264,8.12a8.79,8.79,0,0,0,5.6-2.128c1.512-1.456.84-2.576-.336-2.24a7.115,7.115,0,0,1-3.024.56c-2.352,0-3.3-1.456-3.3-4.872ZM241.08,0c2.016,0,3.36.112,4.76.112,1.96,0,1.96-1.792.224-2.072-2.576-.5-2.8-.952-2.8-3.584V-18.536a39.016,39.016,0,0,1,.448-7.168c.112-.84-.224-1.232-.784-1.232a2.956,2.956,0,0,0-1.4.56,14.07,14.07,0,0,1-4.76,1.736c-1.344.224-1.288,1.456-.28,1.848,2.24.9,2.408,1.12,2.464,2.016a15.115,15.115,0,0,1,.112,2.52V-5.264c0,2.352-.336,2.8-2.744,3.3-1.792.336-1.736,2.072.168,2.072C237.5.112,239.512,0,241.08,0Zm.112-40.488a3.186,3.186,0,0,0-3.136,3.36,2.96,2.96,0,0,0,2.968,3.136,3.163,3.163,0,0,0,3.136-3.416A3.046,3.046,0,0,0,241.192-40.488Zm24.584,13.552a15.249,15.249,0,0,0-9.912,3.808c-2.856,2.464-4.76,5.712-4.76,10.92,0,6.72,4.424,13.216,11.872,13.216a14.986,14.986,0,0,0,11.256-5.376c1.68-1.9,3.3-5.1,3.3-10.024C277.536-21.056,272.552-26.936,265.776-26.936Zm7.056,14.672c0,6.384-3.024,10.528-7.5,10.528-6.944,0-9.576-6.272-9.576-12.264,0-3.976,1.344-10.08,7.616-10.08C270.368-24.08,272.832-17.248,272.832-12.264Zm12.824,2.576a38.943,38.943,0,0,1-.168,5.264c-.112,1.624-.28,2.016-2.8,2.52-1.68.28-1.736,2.016.168,2.016,1.456,0,3.024-.112,4.872-.112,2.016,0,3.864.112,5.1.112,1.792,0,1.9-1.736.28-2.016-2.8-.5-3.024-.9-3.08-2.464a30.029,30.029,0,0,1-.168-4.48v-9.52a1.89,1.89,0,0,1,.392-1.456c1.344-1.568,3.7-3.416,6.328-3.416,4.256,0,6.328,2.688,6.328,6.832v3.752c0,5.432-.112,6.72-.168,7.84-.056,1.792-.224,2.352-3.192,2.912-1.736.28-1.736,2.016.28,2.016,1.064,0,3.248-.112,4.7-.112,1.9,0,3.416.112,5.208.112,1.848,0,1.9-1.736.168-2.016-2.464-.448-2.8-.672-2.8-2.464v-12.88c0-6.272-3.08-9.688-7.784-9.688a8.786,8.786,0,0,0-4.7,1.456,40.9,40.9,0,0,0-4.648,3.36,19.128,19.128,0,0,0-.28-3.92c-.112-.616-.336-.9-.84-.9a3.806,3.806,0,0,0-1.456.616,19.7,19.7,0,0,1-4.48,2.24.907.907,0,0,0-.112,1.736c2.576.84,2.856,1.344,2.856,3.024Zm58.3-17.248a15.249,15.249,0,0,0-9.912,3.808c-2.856,2.464-4.76,5.712-4.76,10.92,0,6.72,4.424,13.216,11.872,13.216a14.986,14.986,0,0,0,11.256-5.376c1.68-1.9,3.3-5.1,3.3-10.024C355.712-21.056,350.728-26.936,343.952-26.936Zm7.056,14.672c0,6.384-3.024,10.528-7.5,10.528-6.944,0-9.576-6.272-9.576-12.264,0-3.976,1.344-10.08,7.616-10.08C348.544-24.08,351.008-17.248,351.008-12.264ZM364.28-9.128a36.113,36.113,0,0,1-.168,4.424c-.112,1.792-.28,2.3-2.632,2.744-1.96.336-1.96,2.072.168,2.072C362.656.112,364.5,0,366.8,0c2.688,0,3.808.112,5.04.112,2.24,0,2.3-1.848.112-2.072-2.912-.392-3.192-.728-3.3-2.688-.056-.952-.112-2.464-.112-4.7V-22.736h2.3c2.912,0,3.416-.112,3.64-.392a4.745,4.745,0,0,0,.9-2.352c0-.392-.224-.616-.616-.5a18.99,18.99,0,0,1-3.024.168h-3.192v-.84c0-13.44,3.08-14.616,6.048-14.616a7.514,7.514,0,0,1,5.544,2.856.975.975,0,0,0,1.456-.168A5.034,5.034,0,0,0,383.1-41.72a2.422,2.422,0,0,0-.728-1.792c-.9-.9-2.352-1.512-4.816-1.512-2.856,0-7,1.792-10.024,6.216C364.9-35,364.392-31.976,364.28-25.816a13.461,13.461,0,0,0-3.584.224,3.793,3.793,0,0,0-1.344,2.016c0,.392.112.672.448.728s1.792.112,4.48.112ZM9.856,57.208h2.912c2.464,0,3.08-.112,3.3-.392a3.887,3.887,0,0,0,.784-2.24c0-.392-.112-.56-.448-.5s-1.736.112-3.024.112H9.856c.056-6.832.224-8.12.5-8.736.448-1.064-.168-1.624-1.12-1.008A11.742,11.742,0,0,0,6.1,47.52c-.168.448-.392,1.68-.448,6.664a11.259,11.259,0,0,0-3.416.224c-.336.168-1.512,1.4-1.512,2.016,0,.336.112.672.5.728.448.056,1.176.056,3.7.056h.728V72.664c0,6.944,2.576,8.12,5.264,8.12a8.79,8.79,0,0,0,5.6-2.128c1.512-1.456.84-2.576-.336-2.24a7.115,7.115,0,0,1-3.024.56c-2.352,0-3.3-1.456-3.3-4.872ZM27.888,59.9a8.152,8.152,0,0,1,6.328-3.08c3.7,0,6.384,1.624,6.384,7.336V71.04c0,3.416-.056,4.536-.112,5.04-.112,1.232-.56,1.624-2.464,2.072-1.792.392-1.568,1.96.28,1.96,2.184,0,3.024-.112,4.592-.112,1.4,0,3.136.112,4.312.112,2.128,0,1.96-1.68.056-2.016-1.96-.392-2.3-.9-2.352-2.016-.056-.9-.056-1.344-.056-1.96v-12.1c0-4.7-2.576-8.96-7.952-8.96a9.182,9.182,0,0,0-4.48,1.232,29.222,29.222,0,0,0-4.368,3.024c-.336.28-.448.168-.448-.056V42.648a29.47,29.47,0,0,1,.448-6.608.817.817,0,0,0-.728-1.064,4.053,4.053,0,0,0-1.9.728,14.623,14.623,0,0,1-5.264,1.68c-1.9.224-1.512,1.792-.28,1.9,2.912.616,3.248.9,3.36,2.128.112,1.288.112,2.464.112,6.16V69.7c0,2.856,0,3.92-.112,5.936C23.128,77.48,22.68,77.76,21,78.1c-2.072.336-2.072,2.016,0,2.016,1.344,0,2.352-.112,4.48-.112,2.072,0,3.416.112,4.7.112,1.68,0,1.9-1.68,0-2.016-2.24-.448-2.352-.9-2.464-2.408-.056-.672-.112-2.352-.112-5.264V61.408C27.608,60.512,27.608,60.232,27.888,59.9Zm29.4,2.912c.616-4.928,3.248-6.944,6.216-6.944a6.526,6.526,0,0,1,6.664,6.44c0,.28-.056.5-.28.616a67.416,67.416,0,0,1-10.192.5,19.116,19.116,0,0,1-2.072-.112C57.344,63.256,57.288,63.144,57.288,62.808ZM57.12,66c10.7,0,13.552-.616,15.792-1.232,1.008-.28,2.128-1.008,2.128-2.016,0-.5-.28-.672-.616-.84a8.848,8.848,0,0,0-9.072-8.848,12.256,12.256,0,0,0-7.84,3.192,14.726,14.726,0,0,0-4.816,11.2c0,7.616,4.536,13.272,11.032,13.272a14.621,14.621,0,0,0,9.8-3.864c1.4-1.4.9-2.968-.84-1.9a10.825,10.825,0,0,1-6.272,2.016C60.984,76.976,57.232,73.448,57.12,66Zm54.04-2.8c.5-.056.728.056,1.064.616,2.464,3.808,4.536,7.168,7,10.64,3.3,4.984,4.76,5.432,6.832,5.712a28.193,28.193,0,0,0,5.32-.056c2.128-.168,2.24-1.9.168-2.072a12.7,12.7,0,0,1-2.632-.5c-1.232-.392-2.24-1.4-3.92-3.528-3.3-4.088-5.992-8.064-8.68-12.04,6.1-2.52,8.288-6.944,8.288-10.7,0-3.472-1.736-10.08-13.328-10.08-4.312,0-7,.168-9.8.168-1.344,0-3.864-.112-4.984-.112-2.128,0-2.184,1.736-.056,2.016,3.024.448,3.808,1.008,3.92,2.464s.168,2.464.168,6.608V68.912c0,3.472,0,4.984-.112,6.44-.112,1.624-.28,2.24-3.976,2.744-2.016.224-2.072,2.016.224,2.016,1.848,0,3.7-.112,6.216-.112,2.8,0,4.76.112,6.44.112,2.072,0,2.128-1.736.168-2.016-3.7-.5-4.032-1.176-4.144-3.024-.056-.728-.112-2.632-.112-5.488v-6.16C107.184,63.424,109.424,63.368,111.16,63.2Zm-5.936-3.36V52.056c0-6.16-.056-7.224.224-7.728.336-.448,1.9-.728,4.2-.728,7.112,0,9.744,4.48,9.744,9.352,0,6.776-4.48,7.784-9.632,7.784a17,17,0,0,1-4.144-.336C105.28,60.288,105.224,60.176,105.224,59.84Zm43.568-6.776a15.249,15.249,0,0,0-9.912,3.808c-2.856,2.464-4.76,5.712-4.76,10.92,0,6.72,4.424,13.216,11.872,13.216a14.986,14.986,0,0,0,11.256-5.376c1.68-1.9,3.3-5.1,3.3-10.024C160.552,58.944,155.568,53.064,148.792,53.064Zm7.056,14.672c0,6.384-3.024,10.528-7.5,10.528-6.944,0-9.576-6.272-9.576-12.264,0-3.976,1.344-10.08,7.616-10.08C153.384,55.92,155.848,62.752,155.848,67.736Zm24.584-14.672a15.249,15.249,0,0,0-9.912,3.808c-2.856,2.464-4.76,5.712-4.76,10.92,0,6.72,4.424,13.216,11.872,13.216a14.986,14.986,0,0,0,11.256-5.376c1.68-1.9,3.3-5.1,3.3-10.024C192.192,58.944,187.208,53.064,180.432,53.064Zm7.056,14.672c0,6.384-3.024,10.528-7.5,10.528-6.944,0-9.576-6.272-9.576-12.264,0-3.976,1.344-10.08,7.616-10.08C185.024,55.92,187.488,62.752,187.488,67.736Zm32.984-10.08a6.881,6.881,0,0,0-6.5-4.592,8.182,8.182,0,0,0-5.152,1.624c-2.128,1.568-3.7,2.688-4.312,3.192a29.08,29.08,0,0,0-.28-3.864c-.112-.56-.448-.952-.84-.952a2.19,2.19,0,0,0-1.232.56,24.541,24.541,0,0,1-4.7,2.408.861.861,0,0,0,0,1.68c2.3.672,2.632,1.288,2.688,1.9a16.355,16.355,0,0,1,.168,3.08v8.232a40.32,40.32,0,0,1-.112,4.928c-.224,1.568-.5,1.736-2.968,2.3-1.512.28-1.456,1.96.168,1.96,1.4,0,3.36-.112,4.928-.112,1.512,0,4.256.112,5.264.112,1.624,0,1.736-1.736.336-1.96-2.8-.56-3.136-1.008-3.248-2.52-.056-.616-.168-2.016-.168-4.144V61.128c0-.448,0-.672.28-.952a8.248,8.248,0,0,1,6.272-3.3c3.808,0,6.16,1.792,6.16,7.84V72.16c0,2.184-.056,3.36-.112,3.92-.112,1.064-.28,1.456-2.968,2.016-1.736.28-1.512,2.016.168,2.016,1.12,0,3.136-.112,4.648-.112s4.256.112,5.1.112c1.624,0,1.792-1.568.112-1.96-2.576-.616-2.744-.84-2.744-3.08V62.248a10.109,10.109,0,0,0-.28-2.52c0-.112.112-.224.224-.448a8.634,8.634,0,0,1,5.936-2.408c3.64,0,6.1,1.792,6.1,7.5v6.272a42.885,42.885,0,0,1-.224,5.824c-.112.616-.56,1.176-3.024,1.68-1.624.28-1.456,1.96.112,1.96,1.008,0,4.256-.112,5.376-.112,2.128,0,3.528.112,4.76.112,1.624,0,1.792-1.568.224-1.96-2.352-.56-2.688-.616-2.856-1.736a32.109,32.109,0,0,1-.112-3.584V62.248c0-4.816-2.632-9.184-7.784-9.184a9.2,9.2,0,0,0-4.872,1.344C223.5,55.416,221.536,56.76,220.472,57.656Zm33.264,6.1c-2.128-.84-3.808-1.848-3.808-4.424,0-1.9.952-3.808,4.256-3.808,2.24,0,4.032.84,4.816,2.408a9.491,9.491,0,0,1,.952,2.856c.28,1.512,2.016,1.232,2.016-.616a41.44,41.44,0,0,1,.56-7.056c.168-.9-.84-.952-1.512-.448-.336.224-.616.672-1.008.952-.168.112-.224.168-.616.056a11.369,11.369,0,0,0-3.7-.616,10.871,10.871,0,0,0-6.72,2.128,7.209,7.209,0,0,0-3.08,5.824c0,3.864,3.136,5.712,5.264,6.552,1.624.616,3.752,1.4,5.376,2.072,1.848.9,2.968,2.128,2.968,4.144q0,4.536-4.872,4.536c-3.416,0-5.376-1.456-6.384-3.752-.224-.616-.672-1.848-.784-2.184-.5-1.68-2.24-1.344-2.072.392.28,2.8.448,4.928.448,6.888,0,1.568,1.4,1.176,2.016.448.336-.448.616-.336.952-.168a10.959,10.959,0,0,0,4.536.9,11.848,11.848,0,0,0,6.048-1.624c3.248-2.072,4.48-4.648,4.48-7.448,0-3.416-2.632-5.208-5.208-6.272Z" transform="translate(153 231)"/>
    <path id="パス_46" data-name="パス 46" d="M5.024-1.552c-.176.224-.448.24-.8.112a1.769,1.769,0,0,1-.608-.368c-.208-.208-.176-.288,0-.432A15.632,15.632,0,0,1,5.9-3.6,5.147,5.147,0,0,1,5.024-1.552ZM7.056-7.568a14.034,14.034,0,0,0,1.968-.576.627.627,0,0,0,.448-.592c0-.3-.272-.432-.56-.432-.336,0-.7.1-1.056.128s-.64,0-.784-.592a11.766,11.766,0,0,0-.128-1.792c-.08-.5-.208-.592-.528-.7a2.6,2.6,0,0,0-.912-.144c-.32,0-.768.352-.768.576,0,.144.176.256.384.352.464.224.608.272.768.736a8.48,8.48,0,0,1,.336,2.256,13.354,13.354,0,0,1-1.984.176A2.945,2.945,0,0,1,2.16-9.344c-.32-.32-.544-.192-.544.176A2.271,2.271,0,0,0,2.656-7.44a2.785,2.785,0,0,0,1.664.288,10.275,10.275,0,0,0,1.92-.24c0,.464-.016.864-.016,1.168C6.208-5.7,6.16-5.1,6.08-4.5A30.322,30.322,0,0,0,3.1-3.024c-.832.48-1.008.88-.3,1.536.464.432.832.736,1.152,1.008a1.767,1.767,0,0,0,.992.5c.512,0,.9-.448,1.264-1.312a10.86,10.86,0,0,0,.624-2.72,8.909,8.909,0,0,1,3.728-.928c1.024,0,1.84.56,1.84,1.472a1.557,1.557,0,0,1-1.776,1.6,2.421,2.421,0,0,1-2.208-1.44c-.224-.384-.576-.272-.512.176a2.777,2.777,0,0,0,2.88,2.32A2.516,2.516,0,0,0,13.6-3.36c0-1.424-1.12-2.336-2.9-2.336a10.517,10.517,0,0,0-3.776.864c.048-.592.08-1.152.1-1.648Zm7.488-.656a3.7,3.7,0,0,0-3.5-.112c-.336.16-.256.512.1.5A3.7,3.7,0,0,1,14-6.912a.636.636,0,0,0,1.072-.3C15.184-7.616,14.96-7.936,14.544-8.224ZM24.624-10.5c.432,0,.752-.128.752-.352,0-.368-1.008-1.344-1.328-1.344-.224,0-.64.56-.96,1.056H21.536v-1.12c.5-.112.848-.24.848-.576,0-.432-1.552-.48-1.824-.48a.2.2,0,0,0-.224.24,18.343,18.343,0,0,1,.048,1.936H17.2c-.208,0-.352.08-.352.32,0,.256.144.32.352.32Zm-6.3,1.152A8.33,8.33,0,0,1,18.7-8.288c.128.5.224.912.64.992a.68.68,0,0,0,.864-.592c.144-.736-.624-1.456-1.408-1.872C18.4-9.968,18.176-9.68,18.32-9.344ZM19.392-.992v-.816c0-.3,0-1.344.032-1.808h3.424c0,.624-.016,1.744-.016,2.624ZM19.9-4.256a3.715,3.715,0,0,0-1.488-.672.191.191,0,0,0-.224.208c.16,1.424.064,4.176.064,5.232a.388.388,0,0,0,.432.432c.464,0,.72-.16.72-.5v-.8h3.408v.56c0,.256.112.544.48.544.432,0,.688-.128.688-.624-.016-.512-.048-2.576-.016-3.584.272-.112.544-.24.544-.448,0-.352-.928-1.04-1.248-1.04-.176,0-.48.368-.72.688Zm1.76-2.352a.645.645,0,0,0,.272-.144,8.859,8.859,0,0,0,1.552-2.192c.48-.016.736-.112.7-.352-.016-.288-.928-.7-1.472-.8-.16-.032-.256.08-.288.24a8.524,8.524,0,0,1-.976,2.784c-.112.24-.048.432.112.464H16.752c-.208,0-.352.08-.352.32,0,.256.144.32.352.32h8.176c.4,0,.736-.128.736-.368a2.482,2.482,0,0,0-1.3-1.344c-.224,0-.64.56-.976,1.072Zm5.968-5.456a4.079,4.079,0,0,0-1.568-.672.217.217,0,0,0-.224.224c.256,2.4.064,11.184.064,13.168,0,.288.128.464.448.464.512,0,.736-.192.736-.56,0-.656-.032-6.032-.032-6.592,0-.64,0-4.288.08-5.376l.1-.016h2.48A22.281,22.281,0,0,1,28.4-7.776c-.224.448-.224.608.08.912a4.55,4.55,0,0,1,1.568,3.152c0,1.264-.144,1.84-.848,1.84-.464,0-.9-.048-1.1-.048-.368,0-.416.432-.016.56a1.263,1.263,0,0,1,.768.576.563.563,0,0,0,.528.3c1.344,0,1.856-1.216,1.856-2.592,0-2.1-.864-2.912-2.016-4.112-.176-.176-.192-.256-.08-.48.384-.7,1.28-2.16,1.888-3.312.432-.144.72-.272.72-.512,0-.416-1.04-1.3-1.328-1.3-.208,0-.544.352-.832.72Zm8.4.4H44.48c0,.512-.016,1.328-.016,1.9H35.888c0-.608,0-1.216-.016-1.856ZM44.448-9.12a.516.516,0,0,0,.192.416c-.224.064-.576.528-.864.944h-7.2c-.208,0-.352.08-.352.32,0,.256.144.32.352.32H39.52a9.607,9.607,0,0,1-.64,1.792c-.688.016-1.424,0-2.208-.032-.128,0-.208.032-.208.176,0,.88.16,1.44.48,1.488.256.048.432-.256.544-.608a37.336,37.336,0,0,0,6.56-.736,7.4,7.4,0,0,0,.448.688.6.6,0,0,0,.672.3A.646.646,0,0,0,45.7-4.88,2.7,2.7,0,0,0,43.28-6.608c-.32-.064-.448.24-.256.416.176.16.352.352.528.544a36.359,36.359,0,0,1-3.664.3q.336-.5.672-1.056c.352-.032.768-.144.768-.4,0-.112-.112-.224-.288-.32h4.192c.576,0,.832-.112.816-.336,0-.288-.688-.912-1.1-1.152.464,0,.72-.112.72-.608-.016-.416-.032-1.472-.016-2.24.288-.128.56-.272.56-.48,0-.352-.96-1.056-1.3-1.056-.176,0-.5.368-.736.688h-8.16a4.694,4.694,0,0,0-1.216-.544c-.208-.032-.3.048-.288.3.128,1.632.16,3.424.144,4.88-.032,3.776-.64,5.76-2.16,7.776-.32.432.1.736.464.4,2.512-2.08,2.784-5.248,2.864-7.712.032-.672.048-1.3.048-1.92ZM41.376-.08V-1.9h3.3c.592,0,.88-.144.88-.368,0-.384-1.152-1.344-1.472-1.344-.24,0-.688.576-1.024,1.072h-1.68v-.784c.432-.1.72-.208.72-.512,0-.384-1.424-.448-1.7-.448-.144,0-.24.08-.224.224.032.352.064.9.08,1.52h-3.52c-.208,0-.352.08-.352.32,0,.256.144.32.352.32h3.52c.016.624.016,1.28,0,1.824H35.232c-.208,0-.352.08-.352.32,0,.256.144.32.352.32H46.32c.592,0,.9-.144.9-.384,0-.4-1.184-1.392-1.52-1.408-.256.016-.7.64-1.056,1.152ZM56.864-8.352c-.752,2.144-3.056,5.264-4.592,5.264-.464,0-.9-.752-.976-1.984a4.233,4.233,0,0,1,1.264-3.52,4.6,4.6,0,0,1,3.248-1.184,7.1,7.1,0,0,1,1.344.128A5,5,0,0,1,56.864-8.352Zm-1.008-2.224a6.1,6.1,0,0,0-3.92,1.424A5.218,5.218,0,0,0,50.256-4.7c.144,1.888.976,3.056,1.824,3.056,1.92,0,4.592-3.184,5.52-5.744a7.716,7.716,0,0,0,.448-1.968,3.942,3.942,0,0,1,2.48,3.808c0,2.624-1.792,3.792-4.56,4.336-.5.1-.464.592.1.592,3.3,0,5.76-1.584,5.76-4.656C61.824-8.16,59.68-10.576,55.856-10.576Zm9.76,1.92c.288.592.4,1.04.816,1.04.432.016.672-.288.688-.72a1.337,1.337,0,0,0-.288-.816,32.132,32.132,0,0,0,1.84-2.832c.352.016.672,0,.7-.192.048-.32-.752-.864-1.5-1.1a.208.208,0,0,0-.288.16,13.917,13.917,0,0,1-1.312,3.392,3.976,3.976,0,0,0-.912-.56c-.416-.16-.624.16-.416.48A8.055,8.055,0,0,1,65.616-8.656Zm.192,4.7a.223.223,0,0,0-.3.208A8.6,8.6,0,0,1,64.48-.176c-.192.384.144.592.464.3a6.38,6.38,0,0,0,1.6-2.9c.48.032.752-.064.752-.3C67.3-3.376,66.336-3.824,65.808-3.952Zm4.016.192c-.336-.224-.56.016-.464.336s.176.656.24.976c.1.48.128.88.5.976a.651.651,0,0,0,.864-.464C71.152-2.608,70.512-3.3,69.824-3.76ZM67.536-2.7c0,1.712-.048,2.832-.048,3.344,0,.3.112.48.416.48.5,0,.7-.24.7-.576,0-.448-.032-1.6-.032-3.248V-5.072c.256-.048.384-.144.384-.272a.059.059,0,0,0-.016-.048c.288-.048.544-.112.8-.176.08.4.128.7.448.8a.642.642,0,0,0,.8-.528c.176-.672-.4-1.424-1.152-2.032-.352-.272-.624.016-.5.368.08.24.176.512.256.768-.624.032-1.312.064-2.1.08a33.913,33.913,0,0,0,2.288-3.136c.368.032.8.016.832-.24.032-.32-.672-.784-1.36-1.024a.219.219,0,0,0-.32.112,17.816,17.816,0,0,1-2.416,4.3c-.56.016-1.136,0-1.76-.016-.128,0-.192.032-.192.192,0,.848.128,1.472.464,1.52.256.032.432-.272.544-.656.64-.032,1.3-.08,1.952-.144Zm5.7,1.664V-2.128c0-.384.016-1.728.048-2.24h3.856c0,.736-.016,2.208-.016,3.328Zm.416-3.968a3.493,3.493,0,0,0-1.328-.576.175.175,0,0,0-.224.192c.16,1.52.064,4.864.048,6.016a.384.384,0,0,0,.416.432c.464,0,.688-.16.688-.5V-.4H77.1V.368c0,.256.1.544.48.544C78,.912,78.256.8,78.256.3c0-.592-.064-3.456-.032-4.544.24-.112.464-.24.464-.416,0-.336-.88-.992-1.168-.992-.16,0-.448.336-.656.64ZM71.12-11.936c-.208,0-.352.08-.352.32,0,.256.144.32.352.32h2.768c0,.048-.016.1-.016.16a7.125,7.125,0,0,1-.656,2.784,5.33,5.33,0,0,1-2,2.016c-.384.256-.176.688.24.528a5.084,5.084,0,0,0,2.688-2.208,7.5,7.5,0,0,0,.784-2.5c.5-.048.72-.144.72-.4,0-.16-.208-.288-.48-.384H77.7a13,13,0,0,1-.336,3.328.888.888,0,0,1-.912.656,5.976,5.976,0,0,1-1.072-.16.247.247,0,0,0-.112.48.906.906,0,0,1,.512.528c.08.288.256.336.512.336a1.93,1.93,0,0,0,2.064-1.456,19.042,19.042,0,0,0,.384-3.472c.32-.16.56-.384.56-.56,0-.272-.864-.944-1.216-.944-.144,0-.448.32-.672.624ZM85.408-7.408c-.176,0-.24.08-.224.24a8.961,8.961,0,0,1-.64,5.328A7.074,7.074,0,0,1,81.616.56c-.416.24-.176.7.272.512a7.306,7.306,0,0,0,3.7-2.56A9.371,9.371,0,0,0,86.5-6.5c.448-.112.624-.256.624-.464C87.136-7.264,85.872-7.408,85.408-7.408Zm4.224-.08c-.16-.016-.24.064-.224.224a35.232,35.232,0,0,1,.144,4.048c0,.7-.1,3.472-.1,3.888,0,.288.192.432.48.432.48,0,.768-.128.768-.48,0-.448-.032-3.328-.032-3.824,0-.4,0-2.672.016-3.3.448-.08.7-.224.7-.448C91.392-7.312,90.192-7.472,89.632-7.488Zm5.632-.16a10.333,10.333,0,0,1-6.608-4.608c.32-.016.544-.1.544-.272.016-.272-.784-.64-1.456-.784-.16-.032-.24.032-.3.192a16.047,16.047,0,0,1-6.624,7.2c-.448.24-.256.72.256.544a15.9,15.9,0,0,0,7.168-6.288,10.716,10.716,0,0,0,5.68,5.3c.384.128.528.032.752-.3a1.2,1.2,0,0,1,.672-.464C95.664-7.248,95.76-7.552,95.264-7.648Z" transform="translate(432 309)"/>
  </g>
</svg>
