<svg xmlns="http://www.w3.org/2000/svg" width="157.053" height="87.18" viewBox="0 0 157.053 87.18">
  <path id="パス_24" data-name="パス 24" d="M16.05-1.86v-9.03h8.28c-.03,3.33-.06,6.78-.06,9.03ZM5.79-10.89h8.1v9.03H5.82Zm10.26-9.03c.51-.18.78-.39.78-.72a.11.11,0,0,0-.03-.09h7.53c.03,1.32,0,4.83,0,8.64H16.05Zm-9.96-.81h7.83v8.64H5.79c0-2.25.03-6.99.12-8.61Zm.84-1.2a7.778,7.778,0,0,0-3.12-1.32.407.407,0,0,0-.42.42c.48,4.41.12,20.31.12,23.91a.786.786,0,0,0,.87.9c.99,0,1.44-.39,1.44-1.05V-.66H24.24V.72a.923.923,0,0,0,.96,1.02c.84,0,1.41-.24,1.41-1.17,0-2.25-.33-16.14-.12-20.55.66-.27,1.29-.57,1.29-1.05,0-.69-1.92-2.13-2.61-2.13-.33,0-.9.63-1.35,1.23ZM48.96-9.48l-.03-2.25v-4.92H57.3c0,1.5-.03,4.8-.03,7.17Zm-10.17,0V-11.7c0-.66,0-3.69.06-4.65a2.258,2.258,0,0,0,.93-.3h6.99c.03,2.46.03,4.65.03,5.25,0,.48,0,1.14-.03,1.92Zm10.17-8.37c0-1.98.03-3.87.06-4.77.93-.18,1.56-.57,1.56-1.08,0-.75-1.74-.93-3.75-.93a.388.388,0,0,0-.42.48,62.383,62.383,0,0,1,.36,6.3H39.36a8.762,8.762,0,0,0-2.46-1.2c-.27-.09-.54.06-.48.39.33,2.76.12,10.92.09,12.75a.782.782,0,0,0,.87.84c.96,0,1.44-.3,1.44-.96V-8.28h7.92c-.06,3.6-.21,8.49-.21,9.48a.877.877,0,0,0,.99.9c.99,0,1.56-.39,1.56-1.08,0-.87-.06-5.73-.12-9.3h8.28v1.41a.923.923,0,0,0,.96,1.02c.87,0,1.38-.21,1.38-1.14,0-1.29-.12-6.57-.03-9.21.6-.24,1.23-.54,1.23-.96,0-.66-1.92-2.1-2.61-2.1-.36,0-1.02.75-1.5,1.41Zm24.6-4.02H89.4c0,.96-.03,2.49-.03,3.57H73.29c0-1.14,0-2.28-.03-3.48ZM89.34-17.1a.967.967,0,0,0,.36.78c-.42.12-1.08.99-1.62,1.77H74.58c-.39,0-.66.15-.66.6,0,.48.27.6.66.6H80.1a18.013,18.013,0,0,1-1.2,3.36c-1.29.03-2.67,0-4.14-.06-.24,0-.39.06-.39.33,0,1.65.3,2.7.9,2.79.48.09.81-.48,1.02-1.14a70,70,0,0,0,12.3-1.38,13.874,13.874,0,0,0,.84,1.29,1.125,1.125,0,0,0,1.26.57,1.211,1.211,0,0,0,.99-1.56c-.3-1.35-1.8-2.79-4.53-3.24-.6-.12-.84.45-.48.78.33.3.66.66.99,1.02a68.174,68.174,0,0,1-6.87.57q.63-.945,1.26-1.98c.66-.06,1.44-.27,1.44-.75,0-.21-.21-.42-.54-.6h7.86c1.08,0,1.56-.21,1.53-.63,0-.54-1.29-1.71-2.07-2.16.87,0,1.35-.21,1.35-1.14-.03-.78-.06-2.76-.03-4.2.54-.24,1.05-.51,1.05-.9,0-.66-1.8-1.98-2.43-1.98-.33,0-.93.69-1.38,1.29H73.53a8.8,8.8,0,0,0-2.28-1.02c-.39-.06-.57.09-.54.57.24,3.06.3,6.42.27,9.15-.06,7.08-1.2,10.8-4.05,14.58-.6.81.18,1.38.87.75,4.71-3.9,5.22-9.84,5.37-14.46.06-1.26.09-2.43.09-3.6ZM83.58-.15V-3.57h6.18c1.11,0,1.65-.27,1.65-.69,0-.72-2.16-2.52-2.76-2.52-.45,0-1.29,1.08-1.92,2.01H83.58V-6.24c.81-.18,1.35-.39,1.35-.96,0-.72-2.67-.84-3.18-.84-.27,0-.45.15-.42.42.06.66.12,1.68.15,2.85h-6.6c-.39,0-.66.15-.66.6,0,.48.27.6.66.6h6.6c.03,1.17.03,2.4,0,3.42H72.06c-.39,0-.66.15-.66.6,0,.48.27.6.66.6H92.85c1.11,0,1.68-.27,1.68-.72,0-.75-2.22-2.61-2.85-2.64-.48.03-1.32,1.2-1.98,2.16Zm26.04-22.32c0,.39.48.54,1.11.93.51.33.66.69.66,1.59,0,1.14-.15,4.08-.15,5.49a3.412,3.412,0,0,0,1.08,2.58c-3.06,1.47-4.8,3.66-4.71,7.02.12,3.78,3.99,4.83,6.9,4.83,3.3,0,6.75-.48,6.75-1.98,0-.66-.75-1.11-1.77-1.11-1.11,0-2.73.72-4.98.72-2.64,0-4.86-.45-4.98-3.27a4.758,4.758,0,0,1,4.41-4.95c.96-.09,2.19-.12,2.97-.18,1.53-.12,2.64-.57,2.64-1.5,0-.75-1.08-1.29-2.31-1.26-1.5.03-2.13.75-3,.78s-1.14-.6-1.14-1.8c0-1.92.96-5.22.96-6.33,0-1.47-1.68-2.31-3.06-2.31C110.4-23.22,109.62-22.89,109.62-22.47ZM135.21-4.59c-.72-.06-.9.39-.39.84a20.639,20.639,0,0,1,2.16,2.07A12.1,12.1,0,0,1,138.45.63c.36.75.81,1.2,1.47,1.2,1.32,0,1.89-1.5,1.08-3.06A7.2,7.2,0,0,0,135.21-4.59ZM84.69,55.11a13.144,13.144,0,0,1-2.61-4.62H93c1.2,0,1.68-.27,1.68-.69,0-.72-2.19-2.52-2.79-2.52-.45,0-1.29,1.08-1.92,2.01H75.54V46.38H88.59c1.05,0,1.56-.24,1.56-.63,0-.69-2.04-2.4-2.61-2.4-.42,0-1.17.96-1.77,1.83H75.54l.03-2.85H88.26c1.08,0,1.59-.24,1.59-.63-.03-.69-2.07-2.4-2.64-2.4-.42,0-1.17.96-1.77,1.83H75.57c.03-1.17.06-2.19.09-2.76l.3-.06H89.97c1.08,0,1.59-.24,1.59-.66,0-.72-2.1-2.46-2.67-2.46-.45,0-1.23,1.02-1.83,1.92H76.5a7.656,7.656,0,0,0-2.82-1.2.409.409,0,0,0-.42.42c.24,2.34.27,7.89.21,12.96H67.98c-.39,0-.66.15-.66.6,0,.48.27.6.66.6h5.49c-.03,3.39-.09,6.39-.09,7.92-1.38.3-2.91.54-4.53.75-.24.03-.36.12-.33.39.27,1.62.78,3,1.41,3,.51,0,.78-.66.9-1.35a43.1,43.1,0,0,0,11.01-3.99c1.17-.63.87-1.62-.39-1.11a53.082,53.082,0,0,1-5.85,1.83l-.03-7.44H80.7c1.65,6.3,5.34,10.14,11.1,11.4.9.21,1.08,0,1.47-.51a2.339,2.339,0,0,1,1.26-.87c.69-.27.78-.84-.15-.93a15.061,15.061,0,0,1-8.88-3.63,22.45,22.45,0,0,0,5.64-2.73c.84.36,1.35.33,1.47-.06.18-.54-.99-1.71-1.86-2.25-.3-.21-.48-.06-.69.15A18.621,18.621,0,0,1,84.69,55.11Zm33.99-18a19.605,19.605,0,0,1,2.52,2.49c1.02,1.2,1.68,2.19,2.67,1.92a1.475,1.475,0,0,0,.96-2.01c-.51-1.8-3.45-3.24-5.61-3.54C118.29,35.85,118.11,36.6,118.68,37.11Zm-15.57,6.42a15.887,15.887,0,0,0,6.81-5.19c.87.18,1.53.09,1.56-.48.03-.66-2.1-1.77-3.06-2.07a.452.452,0,0,0-.6.36c-.99,2.61-3.3,4.8-5.43,6.6C101.91,43.35,102.36,43.92,103.11,43.53Zm6.78,15V56.34c0-.51-.03-3.24.03-4.11h9.54c0,1.29-.03,4.23-.03,6.3Zm.48-7.5a6.905,6.905,0,0,0-2.46-.99.358.358,0,0,0-.42.39c.3,2.82.12,8.76.12,10.86a.738.738,0,0,0,.84.81c.96,0,1.44-.3,1.44-.93V59.73h9.51v.99a.923.923,0,0,0,.96,1.02c.87,0,1.38-.21,1.38-1.14,0-1.14-.12-5.61-.03-7.83.51-.21.99-.48.99-.87,0-.63-1.8-1.98-2.43-1.98-.3,0-.81.57-1.23,1.11Zm17.25-1.8c-4.65-.93-9.3-3.36-12-7.41.36-.06.54-.21.54-.42,0-.51-1.47-1.08-2.61-1.29a.56.56,0,0,0-.69.33c-2.76,5.46-7.02,9.33-12.24,12.63-.75.45-.3,1.35.48.99a33.366,33.366,0,0,0,13.53-11.43,18.552,18.552,0,0,0,10.47,9.03c.75.24.99.06,1.41-.57a2.372,2.372,0,0,1,1.29-.9C128.4,49.95,128.58,49.41,127.62,49.23ZM141.03,54c-.87-.21-1.17.45-.66,1.02a20.1,20.1,0,0,1,1.8,2.28c.78,1.14,1.2,2.04,2.04,1.92a1.352,1.352,0,0,0,1.2-1.68C145.2,55.86,143.19,54.54,141.03,54Zm12.27-3c0-.9,0-1.74.03-2.43.48-.09,1.26-.3,1.26-.78,0-.54-1.59-.78-3.09-.78-.36,0-.45.18-.39.54.09.6.15,2.01.18,3.45h-17.1c-.39,0-.66.15-.66.6,0,.48.27.6.66.6h17.13l.06,2.34c0,1.65,0,3.09-.06,4.29-.03.66-.33.87-.96.9-.33,0-1.26-.09-1.89-.15-.6-.03-.75.72-.03.99,1.89.69,1.74,1.56,2.67,1.56a2.118,2.118,0,0,0,2.22-2.25c-.03-2.34-.03-5.22-.03-7.68h5.19c1.14,0,1.56-.24,1.56-.63,0-.69-2.04-2.4-2.61-2.4-.42,0-1.17.96-1.77,1.83Zm-5.28-5.7V40.8h7.8c1.11,0,1.59-.24,1.59-.66,0-.69-2.07-2.43-2.64-2.43-.42,0-1.2,1.02-1.8,1.89h-4.95V37.08c.93-.21,1.59-.45,1.59-1.11,0-.78-2.94-.87-3.45-.87-.27,0-.45.15-.42.42.09.84.15,2.37.18,4.08h-9.27c-.39,0-.66.15-.66.6,0,.48.27.6.66.6h9.3c.03,1.56.03,3.15,0,4.5H134.13c-.39,0-.66.15-.66.6,0,.48.27.6.66.6h24.66c1.2,0,1.65-.24,1.65-.66,0-.75-2.16-2.52-2.73-2.52-.45,0-1.26,1.08-1.89,1.98Z" transform="translate(-3.387 24.63)" fill="#8d857b"/>
</svg>
