<svg xmlns="http://www.w3.org/2000/svg" width="86.575" height="157.08" viewBox="0 0 86.575 157.08">
  <g id="グループ_85" data-name="グループ 85" transform="translate(-143.705 -3833.75)">
    <path id="パス_83" data-name="パス 83" d="M21.21-3.51c-1.05,0-2.85.48-5.91.48-4.11,0-6.51-1.56-6.51-4.14,0-2.4,2.49-5.19,5.37-6.72a9.546,9.546,0,0,1,4.53-1.05c.99-.06,1.68-.27,1.68-.99,0-.75-1.11-1.47-2.1-1.47a16.8,16.8,0,0,1-4.71.12,7.162,7.162,0,0,1-4.44-2.58c-.51-.57-.99-.3-.87.45a4.361,4.361,0,0,0,2.7,3.36,11.182,11.182,0,0,0,1.86.54c.33.06.45.18.09.45-3,2.25-5.85,5.28-5.85,8.7,0,2.82,2.7,5.64,8.46,5.64,5.28,0,7.41-.66,7.41-1.65C22.92-3.21,22.05-3.51,21.21-3.51Zm1.35-19.74c-.57,0-.78.51-.3.87a15.209,15.209,0,0,1,2.22,1.86c.57.63.87.87,1.32.87a.962.962,0,0,0,.99-1.05C26.79-22.23,24.48-23.22,22.56-23.25Zm-2.37,2.49a.453.453,0,0,0-.36.81c.6.57,1.29,1.2,1.8,1.8.69.81.9,1.32,1.59,1.32a1,1,0,0,0,1.02-1.05C24.24-19.29,22.14-20.61,20.19-20.76Zm4.17,45.27a24.333,24.333,0,0,1-1.32,2.31c-.45.6.12,1.14.78.75.75-.45,1.83-1.23,2.73-1.92.84-.21,1.62-.3,1.65-.9.03-.93-1.95-2.52-2.46-2.52-.3,0-.9.54-1.41,1.08H15.96V21.9c.9-.18,1.53-.42,1.53-1.02,0-.78-2.76-.87-3.27-.87a.377.377,0,0,0-.42.45c.06.81.12,1.92.09,2.85H6a6.336,6.336,0,0,0-.3-1.35c-.24-.63-1.05-.57-1.08.12a5.757,5.757,0,0,1-.42,2.46c-.72,1.53-2.07,1.71-2.07,2.91a1.143,1.143,0,0,0,1.17,1.2c1.56,0,2.64-1.56,2.79-3.6v-.54ZM7.83,39.9c0-.75,0-4.11.09-5.19.6-.09,1.11-.27,1.11-.66,0-.42-.99-.96-1.86-1.32a29.169,29.169,0,0,0,2.22-3.87c.87.15,1.38,0,1.41-.45.06-.57-1.62-1.47-2.55-1.77a.445.445,0,0,0-.6.33A25.149,25.149,0,0,1,1.08,37.5c-.63.66-.06,1.29.69.81a18.582,18.582,0,0,0,3.96-3.66c.15,3.72,0,9.63-.03,11.64a.738.738,0,0,0,.81.84c.9,0,1.35-.3,1.35-.96Zm7.2,3.99v-4.2h8.31l-.03,4.2Zm8.31-9.36c.03.78.03,2.28,0,3.96H15.03c0-1.32.03-3.15.06-3.9.12-.03.21-.03.33-.06ZM11.43,28.71c-.39,0-.66.15-.66.6,0,.48.27.6.66.6h6.3a17.96,17.96,0,0,1-.75,3.42h-1.2a7.2,7.2,0,0,0-2.61-1.08.372.372,0,0,0-.42.39c.33,3.15.12,11.22.09,13.62a.759.759,0,0,0,.84.84c.9,0,1.35-.3,1.35-.96V45.09h8.25v.9a.917.917,0,0,0,.93,1.02c.84,0,1.35-.24,1.35-1.17,0-1.35-.12-7.77-.03-10.56.63-.24,1.26-.51,1.26-.99,0-.69-1.92-2.1-2.58-2.1-.33,0-.84.57-1.29,1.14H18.57a19.434,19.434,0,0,0,1.23-2.61c.57-.06,1.11-.24,1.11-.6a.556.556,0,0,0-.06-.21h6.24c1.02,0,1.44-.18,1.44-.6-.03-.63-1.89-2.19-2.4-2.19-.36,0-1.02.81-1.53,1.59ZM3.12,75.9c.63.87,1.11,1.59,1.92,1.44a1.431,1.431,0,0,0,1.14-1.77c-.33-1.47-2.22-2.25-4.05-2.43-.93-.12-1.11.57-.57,1.11C2.07,74.76,2.64,75.33,3.12,75.9Zm3.27,4.5c-.57.99-1.8,3.51-2.4,4.41-.24.39-.39.45-.72.39-.36-.12-1.02-.36-1.44-.48a.485.485,0,0,0-.42.87c.75.66,1.41,1.02,1.74,2.1a8.927,8.927,0,0,1-.03,2.7,1.224,1.224,0,0,0,1.2,1.35c.93,0,1.56-.6,1.56-1.89,0-1.5-.45-2.28-.45-3.24,0-.9,1.5-3.87,2.04-5.82C7.68,80.01,6.78,79.71,6.39,80.4ZM4.11,66.03c-.87-.12-1.08.54-.57,1.08A22.1,22.1,0,0,1,5.1,68.85c.69.84,1.14,1.59,1.92,1.44a1.368,1.368,0,0,0,1.14-1.71C7.86,67.05,5.97,66.27,4.11,66.03Zm8.64,21.93c0-2.79-.03-6.51-.03-7.17v-.33H24.3l-.03,7.5Zm-.03-8.7c0-2.13.03-5.67.12-6.96H24.33v6.96Zm4.83-8.16a40.351,40.351,0,0,0,2.19-3.81c.63-.06,1.38-.21,1.38-.63,0-.6-1.59-1.29-2.94-1.56a.406.406,0,0,0-.54.3,22.2,22.2,0,0,1-1.86,5.7H13.62a7.373,7.373,0,0,0-2.85-1.2.409.409,0,0,0-.42.42c.45,4.08.12,17.55.12,20.85,0,.6.27.9.87.9.96,0,1.44-.36,1.44-1.05V89.16H24.24v1.68a.923.923,0,0,0,.96,1.02c.87,0,1.44-.24,1.44-1.17,0-2.04-.3-13.77-.09-17.88.66-.27,1.29-.57,1.29-1.05,0-.69-1.95-2.13-2.64-2.13-.39,0-1.08.81-1.56,1.47Zm-.93,48.24c-1.41,4.02-5.73,9.87-8.61,9.87-.87,0-1.68-1.41-1.83-3.72a7.937,7.937,0,0,1,2.37-6.6,8.634,8.634,0,0,1,6.09-2.22,13.309,13.309,0,0,1,2.52.24A9.366,9.366,0,0,1,16.62,119.34Zm-1.89-4.17a11.43,11.43,0,0,0-7.35,2.67,9.783,9.783,0,0,0-3.15,8.34c.27,3.54,1.83,5.73,3.42,5.73,3.6,0,8.61-5.97,10.35-10.77a14.467,14.467,0,0,0,.84-3.69,7.392,7.392,0,0,1,4.65,7.14c0,4.92-3.36,7.11-8.55,8.13-.93.18-.87,1.11.18,1.11,6.18,0,10.8-2.97,10.8-8.73C25.92,119.7,21.9,115.17,14.73,115.17Z" transform="translate(201.75 3857)" fill="#8d857b"/>
    <path id="パス_84" data-name="パス 84" d="M9.42-2.91c-.33.42-.84.45-1.5.21a3.316,3.316,0,0,1-1.14-.69c-.39-.39-.33-.54,0-.81a29.309,29.309,0,0,1,4.29-2.55A9.651,9.651,0,0,1,9.42-2.91Zm3.81-11.28a26.315,26.315,0,0,0,3.69-1.08,1.176,1.176,0,0,0,.84-1.11c0-.57-.51-.81-1.05-.81-.63,0-1.32.18-1.98.24s-1.2,0-1.47-1.11a22.061,22.061,0,0,0-.24-3.36c-.15-.93-.39-1.11-.99-1.32a4.874,4.874,0,0,0-1.71-.27c-.6,0-1.44.66-1.44,1.08,0,.27.33.48.72.66.87.42,1.14.51,1.44,1.38a15.9,15.9,0,0,1,.63,4.23,25.038,25.038,0,0,1-3.72.33c-1.8-.09-2.7-.99-3.9-2.19-.6-.6-1.02-.36-1.02.33a4.259,4.259,0,0,0,1.95,3.24c.78.45,1.29.54,3.12.54a19.265,19.265,0,0,0,3.6-.45c0,.87-.03,1.62-.03,2.19-.03.99-.12,2.1-.27,3.24A56.854,56.854,0,0,0,5.82-5.67c-1.56.9-1.89,1.65-.57,2.88.87.81,1.56,1.38,2.16,1.89A3.312,3.312,0,0,0,9.27.03c.96,0,1.68-.84,2.37-2.46a20.362,20.362,0,0,0,1.17-5.1A16.7,16.7,0,0,1,19.8-9.27c1.92,0,3.45,1.05,3.45,2.76,0,1.68-1.05,3-3.33,3-1.92,0-3.12-.96-4.14-2.7-.42-.72-1.08-.51-.96.33a5.207,5.207,0,0,0,5.4,4.35c3.21,0,5.28-1.86,5.28-4.77,0-2.67-2.1-4.38-5.43-4.38a19.719,19.719,0,0,0-7.08,1.62c.09-1.11.15-2.16.18-3.09Zm14.04-1.23a6.939,6.939,0,0,0-6.57-.21c-.63.3-.48.96.18.93a6.932,6.932,0,0,1,5.37,1.74,1.193,1.193,0,0,0,2.01-.57C28.47-14.28,28.05-14.88,27.27-15.42ZM18.21,27.42c.57.93.99,1.65,1.77,1.56a1.3,1.3,0,0,0,1.2-1.53c-.15-1.44-1.98-2.46-3.75-2.88-.81-.18-1.05.42-.63.93A17.525,17.525,0,0,1,18.21,27.42Zm-.75,6.45c.6.93,1.05,1.65,1.83,1.53a1.25,1.25,0,0,0,1.11-1.53c-.18-1.44-1.98-2.43-3.78-2.85-.81-.15-1.05.48-.6.99A17.114,17.114,0,0,1,17.46,33.87Zm-6.24-4.98a18.6,18.6,0,0,0,2.25-3c.9.06,1.35-.09,1.35-.54.03-.54-1.62-1.5-2.7-1.8a.431.431,0,0,0-.54.42,22.869,22.869,0,0,1-1.32,4.35C9.93,29.1,10.56,29.43,11.22,28.89ZM2.49,27.24c.3,1.05.48,1.86,1.23,2.01a1.243,1.243,0,0,0,1.47-1.14c.24-1.32-1.11-2.85-2.7-3.84-.69-.42-1.11.12-.84.75A14.1,14.1,0,0,1,2.49,27.24Zm6.39,5.13H13.8c.69,0,1.32-.24,1.32-.69,0-.69-1.77-2.55-2.4-2.55-.42,0-1.17,1.08-1.8,2.04H8.88c0-2.76.03-7.17.06-8.67.93-.21,1.53-.51,1.53-1.02,0-.72-1.56-.9-3.48-.9A.347.347,0,0,0,6.6,21a79.68,79.68,0,0,1,.39,10.17H1.86c-.39,0-.66.15-.66.6,0,.48.27.6.66.6H6.51A27.2,27.2,0,0,1,.75,42.09c-.69.78-.06,1.41.75.84a20.64,20.64,0,0,0,5.43-6c-.06,3.39-.21,8.19-.21,9.15a.821.821,0,0,0,.9.9c.96,0,1.38-.39,1.38-1.05,0-1.26-.12-10.53-.12-12.6Zm4.05,6a1.235,1.235,0,0,0,1.2-1.44c-.12-1.35-1.77-2.28-3.42-2.7-.78-.18-1.05.42-.63.93a20.107,20.107,0,0,1,1.2,1.74C11.82,37.74,12.18,38.43,12.93,38.37Zm11.85-.87c0-1.74-.03-3.3-.03-4.02,0-1.14,0-8.46.09-10.5.93-.21,1.56-.57,1.56-1.08,0-.75-1.71-.93-3.69-.93a.376.376,0,0,0-.42.45c.48,2.94.39,11.22.39,12.48,0,.81-.03,2.28-.06,3.93l-9.93,1.5c-.39.06-.63.24-.57.69.06.48.36.54.72.48l9.75-1.44c-.09,2.97-.18,6.12-.18,6.9a.853.853,0,0,0,.96.9c.99,0,1.53-.39,1.53-1.05,0-.72-.06-4.02-.09-7.08l3.75-.57c.66-.09,1.2-.39,1.14-.84a4.477,4.477,0,0,0-2.61-2.1c-.39.06-.99,1.17-1.44,2.16ZM7.53,77.28H10.5c.63,0,1.23-.18,1.23-.63a4.464,4.464,0,0,0-2.22-2.34c-.39,0-1.05.9-1.62,1.77H7.53v-6.3a.88.88,0,0,0,.6-.51h2.4c.93,0,1.53-.24,1.53-.66,0-.72-2.01-2.49-2.61-2.49-.45,0-1.2,1.05-1.83,1.95H1.95c-.39,0-.66.15-.66.6,0,.48.27.6.66.6H5.52v6.81H2.22c-.39,0-.66.15-.66.6,0,.48.27.6.66.6h3.3V84.3c-1.35.39-2.79.78-4.32,1.14a.331.331,0,0,0-.33.42c.27,1.59.75,2.79,1.38,2.79.51,0,.78-.69.87-1.44A37.915,37.915,0,0,0,11.4,83.4c.99-.66.63-1.47-.48-1.02-.99.42-2.13.84-3.39,1.26Zm7.11,1.53-.03-4.29v-.09h3.87v4.38Zm5.82-9.57c.36-.12.57-.33.6-.57H24.6c.03.93.03,2.67,0,4.56H20.46Zm-1.98-.57v4.56H14.61c0-1.5.03-3.69.09-4.56Zm1.98,10.14V74.43H24.6l-.03,4.38Zm0,10.56v-3.9h5.43c.87,0,1.44-.24,1.44-.66-.03-.69-1.92-2.43-2.49-2.43-.42,0-1.17.99-1.77,1.89H20.46V80.01h4.08v.87c0,.48.21,1.02.9,1.02.78,0,1.26-.21,1.26-1.14,0-1.41-.15-9-.03-11.67.51-.21.99-.48.99-.87,0-.66-1.71-1.95-2.28-1.95-.33,0-.84.63-1.29,1.2H15.33a6.217,6.217,0,0,0-2.43-1.02.339.339,0,0,0-.42.36c.33,3.3.12,12.27.09,14.82,0,.54.27.84.78.84.87,0,1.29-.3,1.29-.96v-1.5h3.81v4.26H12.18c-.39,0-.66.15-.66.6,0,.48.27.6.66.6h6.27v3.9H8.7c-.39,0-.66.15-.66.6,0,.48.27.6.66.6H27.48c.93,0,1.44-.24,1.44-.66,0-.69-1.92-2.49-2.52-2.49-.42,0-1.2,1.02-1.8,1.95Z" transform="translate(143.25 3890)" fill="#8d857b"/>
  </g>
</svg>
