<svg xmlns="http://www.w3.org/2000/svg" width="278.086" height="32.97" viewBox="0 0 278.086 32.97">
  <path id="パス_64" data-name="パス 64" d="M7.2-15.87c0-2.55.03-2.91.24-3.12.27-.27,1.47-.51,3.42-.51,7.35,0,9.12,5.01,9.12,9.69,0,3.99-2.07,8.49-8.49,8.49-1.95,0-3.57-.33-3.99-.84-.3-.27-.3-.87-.3-3.06ZM4.71-6.27a29.7,29.7,0,0,1-.12,4.02c-.12.6-.39.9-2.22,1.14C1.26-.93,1.44,0,2.37,0h2.1c1.08,0,3.69.21,5.55.21,2.97,0,5.94-.45,8.67-2.73a10.928,10.928,0,0,0,4.11-8.91c0-3.72-2.28-9.39-10.86-9.39-2.61,0-4.47.12-6.27.12-1.08,0-2.46-.09-3.15-.09-1.17,0-1.23.93-.12,1.08,1.86.24,2.19.66,2.25,1.44s.06,1.2.06,2.85ZM32.07,0c1.08,0,1.8.06,2.55.06,1.05,0,1.05-.96.12-1.11-1.38-.27-1.5-.51-1.5-1.92V-9.93a20.9,20.9,0,0,1,.24-3.84c.06-.45-.12-.66-.42-.66a1.584,1.584,0,0,0-.75.3,7.537,7.537,0,0,1-2.55.93c-.72.12-.69.78-.15.99,1.2.48,1.29.6,1.32,1.08a8.1,8.1,0,0,1,.06,1.35v6.96c0,1.26-.18,1.5-1.47,1.77-.96.18-.93,1.11.09,1.11C30.15.06,31.23,0,32.07,0Zm.06-21.69a1.707,1.707,0,0,0-1.68,1.8,1.586,1.586,0,0,0,1.59,1.68,1.7,1.7,0,0,0,1.68-1.83A1.632,1.632,0,0,0,32.13-21.69ZM45.06-8.7c-1.14-.45-2.04-.99-2.04-2.37,0-1.02.51-2.04,2.28-2.04a2.712,2.712,0,0,1,2.58,1.29,5.084,5.084,0,0,1,.51,1.53c.15.81,1.08.66,1.08-.33a22.2,22.2,0,0,1,.3-3.78c.09-.48-.45-.51-.81-.24-.18.12-.33.36-.54.51-.09.06-.12.09-.33.03a6.091,6.091,0,0,0-1.98-.33,5.824,5.824,0,0,0-3.6,1.14,3.862,3.862,0,0,0-1.65,3.12,3.883,3.883,0,0,0,2.82,3.51c.87.33,2.01.75,2.88,1.11a2.369,2.369,0,0,1,1.59,2.22q0,2.43-2.61,2.43a3.361,3.361,0,0,1-3.42-2.01c-.12-.33-.36-.99-.42-1.17-.27-.9-1.2-.72-1.11.21.15,1.5.24,2.64.24,3.69,0,.84.75.63,1.08.24.18-.24.33-.18.51-.09a5.871,5.871,0,0,0,2.43.48,6.347,6.347,0,0,0,3.24-.87,4.558,4.558,0,0,0,2.4-3.99c0-1.83-1.41-2.79-2.79-3.36Zm14.73-2.07a4.367,4.367,0,0,1,3.39-1.65c1.98,0,3.42.87,3.42,3.93V-4.8c0,1.83-.03,2.43-.06,2.7-.06.66-.3.87-1.32,1.11-.96.21-.84,1.05.15,1.05C66.54.06,66.99,0,67.83,0c.75,0,1.68.06,2.31.06,1.14,0,1.05-.9.03-1.08-1.05-.21-1.23-.48-1.26-1.08-.03-.48-.03-.72-.03-1.05V-9.63c0-2.52-1.38-4.8-4.26-4.8a4.919,4.919,0,0,0-2.4.66,15.655,15.655,0,0,0-2.34,1.62c-.18.15-.24.09-.24-.03v-7.83a15.788,15.788,0,0,1,.24-3.54.438.438,0,0,0-.39-.57,2.171,2.171,0,0,0-1.02.39,7.834,7.834,0,0,1-2.82.9c-1.02.12-.81.96-.15,1.02,1.56.33,1.74.48,1.8,1.14.06.69.06,1.32.06,3.3V-5.52c0,1.53,0,2.1-.06,3.18-.06.99-.3,1.14-1.2,1.32-1.11.18-1.11,1.08,0,1.08.72,0,1.26-.06,2.4-.06,1.11,0,1.83.06,2.52.06.9,0,1.02-.9,0-1.08-1.2-.24-1.26-.48-1.32-1.29-.03-.36-.06-1.26-.06-2.82V-9.96C59.64-10.44,59.64-10.59,59.79-10.77ZM78.54-9.21c.33-2.64,1.74-3.72,3.33-3.72a3.5,3.5,0,0,1,3.57,3.45c0,.15-.03.27-.15.33a36.116,36.116,0,0,1-5.46.27,10.24,10.24,0,0,1-1.11-.06C78.57-8.97,78.54-9.03,78.54-9.21ZM78.45-7.5c5.73,0,7.26-.33,8.46-.66.54-.15,1.14-.54,1.14-1.08,0-.27-.15-.36-.33-.45a4.74,4.74,0,0,0-4.86-4.74,6.565,6.565,0,0,0-4.2,1.71,7.889,7.889,0,0,0-2.58,6c0,4.08,2.43,7.11,5.91,7.11a7.833,7.833,0,0,0,5.25-2.07c.75-.75.48-1.59-.45-1.02a5.8,5.8,0,0,1-3.36,1.08C80.52-1.62,78.51-3.51,78.45-7.5ZM97.98-8.7c-1.14-.45-2.04-.99-2.04-2.37,0-1.02.51-2.04,2.28-2.04a2.712,2.712,0,0,1,2.58,1.29,5.084,5.084,0,0,1,.51,1.53c.15.81,1.08.66,1.08-.33a22.2,22.2,0,0,1,.3-3.78c.09-.48-.45-.51-.81-.24-.18.12-.33.36-.54.51-.09.06-.12.09-.33.03a6.091,6.091,0,0,0-1.98-.33,5.824,5.824,0,0,0-3.6,1.14,3.862,3.862,0,0,0-1.65,3.12A3.883,3.883,0,0,0,96.6-6.66c.87.33,2.01.75,2.88,1.11a2.369,2.369,0,0,1,1.59,2.22q0,2.43-2.61,2.43a3.361,3.361,0,0,1-3.42-2.01c-.12-.33-.36-.99-.42-1.17-.27-.9-1.2-.72-1.11.21.15,1.5.24,2.64.24,3.69,0,.84.75.63,1.08.24.18-.24.33-.18.51-.09a5.871,5.871,0,0,0,2.43.48,6.347,6.347,0,0,0,3.24-.87,4.558,4.558,0,0,0,2.4-3.99c0-1.83-1.41-2.79-2.79-3.36Zm23.58,3.81a19.345,19.345,0,0,1-.09,2.37c-.06.96-.15,1.23-1.41,1.47-1.05.18-1.05,1.11.09,1.11.54,0,1.53-.06,2.76-.06,1.44,0,2.04.06,2.7.06,1.2,0,1.23-.99.06-1.11-1.56-.21-1.71-.39-1.77-1.44-.03-.51-.06-1.32-.06-2.52v-7.17h1.23c1.56,0,1.83-.06,1.95-.21a2.542,2.542,0,0,0,.48-1.26c0-.21-.12-.33-.33-.27a10.173,10.173,0,0,1-1.62.09h-1.71v-.45c0-7.2,1.65-7.83,3.24-7.83a4.025,4.025,0,0,1,2.97,1.53.522.522,0,0,0,.78-.09,2.7,2.7,0,0,0,.81-1.68,1.3,1.3,0,0,0-.39-.96,3.463,3.463,0,0,0-2.58-.81,6.986,6.986,0,0,0-5.37,3.33c-1.41,2.04-1.68,3.66-1.74,6.96a7.211,7.211,0,0,0-1.92.12,2.032,2.032,0,0,0-.72,1.08c0,.21.06.36.24.39s.96.06,2.4.06Zm17.91-9.54a8.169,8.169,0,0,0-5.31,2.04,7.149,7.149,0,0,0-2.55,5.85c0,3.6,2.37,7.08,6.36,7.08A8.028,8.028,0,0,0,144-2.34a7.877,7.877,0,0,0,1.77-5.37A6.511,6.511,0,0,0,139.47-14.43Zm3.78,7.86c0,3.42-1.62,5.64-4.02,5.64-3.72,0-5.13-3.36-5.13-6.57,0-2.13.72-5.4,4.08-5.4C141.93-12.9,143.25-9.24,143.25-6.57Zm16.53-7.86c-.96,0-1.86.48-4.35,2.94a15.255,15.255,0,0,0-.18-2.37c-.06-.33-.21-.57-.45-.57a.956.956,0,0,0-.51.18,25.815,25.815,0,0,1-2.73,1.38c-.48.21-.48.72,0,.9,1.14.36,1.44.57,1.47,1.02a9.926,9.926,0,0,1,.09,1.98v4.92a11.7,11.7,0,0,1-.09,1.89c-.06.72-.12.84-1.38,1.17-.81.21-.72,1.05.09,1.05.72,0,1.5-.06,2.79-.06s2.34.06,2.97.06c.84,0,.96-.84.06-1.02-1.74-.33-2.01-.45-2.07-1.32-.03-.45-.06-1.05-.06-1.8V-9.99a.631.631,0,0,1,.15-.45,3.417,3.417,0,0,1,2.58-1.44,2.07,2.07,0,0,1,1.59.75c.45.51.51.57.78.57.3,0,.57-.33.66-.57a3.028,3.028,0,0,0,.42-1.59A1.739,1.739,0,0,0,159.78-14.43Zm23.1,9.06c-2.52,0-3.39-2.1-3.39-3.99,0-2.31.84-3.63,2.85-3.63,2.22,0,3.39,1.65,3.39,4.05C185.73-6.51,184.71-5.37,182.88-5.37ZM181.5.39c1.26.12,1.92.21,2.88.3,2.25.27,3.39,1.23,3.39,2.88,0,2.1-1.65,3.63-4.05,3.63-3.36,0-4.95-1.92-4.95-3.33a2.442,2.442,0,0,1,.69-1.71A20.38,20.38,0,0,1,181.2.36Zm8.22-12.9a4.834,4.834,0,0,0,.72-1.35c.18-.51-.18-.93-.72-.42a2.211,2.211,0,0,1-1.56.84,8.5,8.5,0,0,1-2.94-.66,7.261,7.261,0,0,0-2.07-.33,6.63,6.63,0,0,0-3.24,1.02,5.51,5.51,0,0,0-2.7,4.74,4.661,4.661,0,0,0,3.21,4.56c-.54.48-1.71,1.47-2.13,1.95a.966.966,0,0,0,.06.75A2.65,2.65,0,0,0,180.12.12a29.449,29.449,0,0,0-3.21,3.09,1.852,1.852,0,0,0-.45,1.14c0,1.92,1.8,4.5,5.85,4.5a7.9,7.9,0,0,0,4.68-1.56,6.427,6.427,0,0,0,2.94-4.98c0-2.25-1.5-3.54-4.44-3.81-1.14-.09-2.4-.15-3.12-.21-.9-.12-1.65-.33-1.65-.93a2.4,2.4,0,0,1,.75-1.26h.36a6.629,6.629,0,0,0,4.71-2.01,5.2,5.2,0,0,0,1.41-4.05,6.8,6.8,0,0,0-.42-1.86,6.1,6.1,0,0,0,1.65-.24A.934.934,0,0,0,189.72-12.51Zm13.56-1.92c-.96,0-1.86.48-4.35,2.94a15.255,15.255,0,0,0-.18-2.37c-.06-.33-.21-.57-.45-.57a.956.956,0,0,0-.51.18,25.815,25.815,0,0,1-2.73,1.38c-.48.21-.48.72,0,.9,1.14.36,1.44.57,1.47,1.02a9.926,9.926,0,0,1,.09,1.98v4.92a11.7,11.7,0,0,1-.09,1.89c-.06.72-.12.84-1.38,1.17-.81.21-.72,1.05.09,1.05.72,0,1.5-.06,2.79-.06s2.34.06,2.97.06c.84,0,.96-.84.06-1.02-1.74-.33-2.01-.45-2.07-1.32-.03-.45-.06-1.05-.06-1.8V-9.99a.631.631,0,0,1,.15-.45,3.417,3.417,0,0,1,2.58-1.44,2.07,2.07,0,0,1,1.59.75c.45.51.51.57.78.57.3,0,.57-.33.66-.57a3.028,3.028,0,0,0,.42-1.59A1.739,1.739,0,0,0,203.28-14.43Zm14.22,0a8.169,8.169,0,0,0-5.31,2.04,7.149,7.149,0,0,0-2.55,5.85c0,3.6,2.37,7.08,6.36,7.08a8.028,8.028,0,0,0,6.03-2.88,7.877,7.877,0,0,0,1.77-5.37A6.511,6.511,0,0,0,217.5-14.43Zm3.78,7.86c0,3.42-1.62,5.64-4.02,5.64-3.72,0-5.13-3.36-5.13-6.57,0-2.13.72-5.4,4.08-5.4C219.96-12.9,221.28-9.24,221.28-6.57Zm11.94-3.75a13.538,13.538,0,0,1,.27-3.42c.09-.42-.15-.66-.42-.66a4.643,4.643,0,0,0-.81.3,11.014,11.014,0,0,1-2.55.66c-.69.12-.84.84-.15,1.05,1.11.33,1.29.72,1.32,1.11.06.66.06,1.29.06,1.83V-4.5a5.092,5.092,0,0,0,1.2,3.81A3.734,3.734,0,0,0,234.96.42c2.01,0,3.66-1.59,4.95-2.76.06,1.5.15,2.73.9,2.73a6.147,6.147,0,0,0,3.33-1.26c.48-.42.36-1.02-.18-.99-.99.09-1.26.09-1.59-.36a7.274,7.274,0,0,1-.24-2.7v-5.55a19.089,19.089,0,0,1,.18-3.12.425.425,0,0,0-.39-.6c-.12,0-.42.12-.93.24a10.952,10.952,0,0,1-2.88.33c-.93.03-.96.96-.18,1.08,1.59.3,1.8.54,1.89,1.29a10.583,10.583,0,0,1,.06,1.29v5.79a.948.948,0,0,1-.12.63,4.539,4.539,0,0,1-3.6,1.92,2.65,2.65,0,0,1-2.76-2.01,9.238,9.238,0,0,1-.18-2.34Zm20.1.57c0-.51.03-.69.24-.84a5.318,5.318,0,0,1,3.84-1.8c2.1,0,4.26,1.62,4.26,5.43,0,3.42-1.44,5.73-4.8,5.73a5.8,5.8,0,0,1-3.36-.93c-.15-.12-.18-.21-.18-.45Zm0,9.78a5.5,5.5,0,0,0,2.22.48,8.738,8.738,0,0,0,5.07-1.83,8.145,8.145,0,0,0,3.54-6.93c0-3.66-2.55-6.18-5.1-6.18-1.74,0-2.67.57-5.73,2.67-.03-1.65-.18-2.67-.72-2.67a13.583,13.583,0,0,0-3.42,1.38c-.48.33-.45.87.15.99,1.5.27,1.59.54,1.65,1.26.03.48.06,1.38.06,2.64V1.77c0,2.22-.03,3.6-.09,4.41-.09.66-.15.87-1.56,1.26-.78.18-.72,1.05.12,1.05.6,0,2.22-.24,4.71-.24h1.2c.99,0,.99-.93,0-1.08-1.8-.27-2.1-.39-2.1-1.98ZM274.26-8.7c-1.14-.45-2.04-.99-2.04-2.37,0-1.02.51-2.04,2.28-2.04a2.712,2.712,0,0,1,2.58,1.29,5.084,5.084,0,0,1,.51,1.53c.15.81,1.08.66,1.08-.33a22.2,22.2,0,0,1,.3-3.78c.09-.48-.45-.51-.81-.24-.18.12-.33.36-.54.51-.09.06-.12.09-.33.03a6.091,6.091,0,0,0-1.98-.33,5.824,5.824,0,0,0-3.6,1.14,3.862,3.862,0,0,0-1.65,3.12,3.883,3.883,0,0,0,2.82,3.51c.87.33,2.01.75,2.88,1.11a2.369,2.369,0,0,1,1.59,2.22q0,2.43-2.61,2.43a3.361,3.361,0,0,1-3.42-2.01c-.12-.33-.36-.99-.42-1.17-.27-.9-1.2-.72-1.11.21.15,1.5.24,2.64.24,3.69,0,.84.75.63,1.08.24.18-.24.33-.18.51-.09a5.871,5.871,0,0,0,2.43.48,6.347,6.347,0,0,0,3.24-.87,4.558,4.558,0,0,0,2.4-3.99c0-1.83-1.41-2.79-2.79-3.36Z" transform="translate(-1.604 24.12)" fill="#8d857b"/>
</svg>
