<svg xmlns="http://www.w3.org/2000/svg" width="293.604" height="93.346" viewBox="0 0 293.604 93.346">
  <g id="グループ_97" data-name="グループ 97" transform="translate(-36.559 -145.428)">
    <path id="パス_80" data-name="パス 80" d="M13.631-28.208c1.548-.172,1.462-1.548.086-1.548-.946,0-3.225.086-5.2.086-1.634,0-4.128-.086-5.031-.086-1.548,0-1.548,1.376.086,1.548,2.838.344,2.967.946,3.1,2.537.086.989.086,1.161.086,5.676V-9.847c0,4.085-.043,4.73-.086,5.547C6.579-2.494,6.45-1.892,3.483-1.5,2.021-1.333,2.064.086,3.44.086,4.6.086,6.966,0,8.772,0c2.365,0,3.913.086,4.816.086,1.548,0,1.505-1.419.129-1.591-2.924-.43-3.182-.817-3.268-2.752-.043-.946-.086-1.591-.086-5.59V-20c0-4.085.043-4.687.086-5.676C10.492-27.262,10.793-27.864,13.631-28.208ZM19.866-7.439A29.9,29.9,0,0,1,19.737-3.4c-.086,1.247-.215,1.548-2.15,1.935-1.29.215-1.333,1.548.129,1.548C18.834.086,20.038,0,21.457,0c1.548,0,2.967.086,3.913.086,1.376,0,1.462-1.333.215-1.548-2.15-.387-2.322-.688-2.365-1.892a23.058,23.058,0,0,1-.129-3.44V-14.1a1.451,1.451,0,0,1,.3-1.118,6.923,6.923,0,0,1,4.859-2.623c3.268,0,4.859,2.064,4.859,5.246v2.881c0,4.171-.086,5.16-.129,6.02-.043,1.376-.172,1.806-2.451,2.236C29.2-1.247,29.2.086,30.745.086,31.562.086,33.239,0,34.357,0c1.462,0,2.623.086,4,.086,1.419,0,1.462-1.333.129-1.548-1.892-.344-2.15-.516-2.15-1.892v-9.89c0-4.816-2.365-7.439-5.977-7.439a6.746,6.746,0,0,0-3.612,1.118,31.4,31.4,0,0,0-3.569,2.58A14.687,14.687,0,0,0,22.962-20c-.086-.473-.258-.688-.645-.688a2.923,2.923,0,0,0-1.118.473,15.127,15.127,0,0,1-3.44,1.72.7.7,0,0,0-.086,1.333c1.978.645,2.193,1.032,2.193,2.322ZM47.558-17.5h2.236c1.892,0,2.365-.086,2.537-.3a2.985,2.985,0,0,0,.6-1.72c0-.3-.086-.43-.344-.387s-1.333.086-2.322.086H47.558c.043-5.246.172-6.235.387-6.708.344-.817-.129-1.247-.86-.774a9.017,9.017,0,0,0-2.408,2.365c-.129.344-.3,1.29-.344,5.117a8.646,8.646,0,0,0-2.623.172c-.258.129-1.161,1.075-1.161,1.548,0,.258.086.516.387.559.344.043.9.043,2.838.043h.559V-5.633C44.333-.3,46.311.6,48.375.6a6.749,6.749,0,0,0,4.3-1.634c1.161-1.118.645-1.978-.258-1.72a5.463,5.463,0,0,1-2.322.43c-1.806,0-2.537-1.118-2.537-3.741ZM68.2-20.683c-1.376,0-2.666.688-6.235,4.214a21.865,21.865,0,0,0-.258-3.4c-.086-.473-.3-.817-.645-.817a1.371,1.371,0,0,0-.731.258,37,37,0,0,1-3.913,1.978c-.688.3-.688,1.032,0,1.29,1.634.516,2.064.817,2.107,1.462a14.227,14.227,0,0,1,.129,2.838v7.052A16.765,16.765,0,0,1,58.523-3.1c-.086,1.032-.172,1.2-1.978,1.677-1.161.3-1.032,1.505.129,1.505,1.032,0,2.15-.086,4-.086s3.354.086,4.257.086c1.2,0,1.376-1.2.086-1.462-2.494-.473-2.881-.645-2.967-1.892-.043-.645-.086-1.505-.086-2.58v-8.471a.9.9,0,0,1,.215-.645,4.9,4.9,0,0,1,3.7-2.064,2.967,2.967,0,0,1,2.279,1.075c.645.731.731.817,1.118.817.43,0,.817-.473.946-.817a4.339,4.339,0,0,0,.6-2.279A2.492,2.492,0,0,0,68.2-20.683Zm16.082,0a11.709,11.709,0,0,0-7.611,2.924,10.247,10.247,0,0,0-3.655,8.385c0,5.16,3.4,10.148,9.116,10.148a11.507,11.507,0,0,0,8.643-4.128,11.29,11.29,0,0,0,2.537-7.7C93.31-16.168,89.483-20.683,84.28-20.683ZM89.7-9.417c0,4.9-2.322,8.084-5.762,8.084-5.332,0-7.353-4.816-7.353-9.417,0-3.053,1.032-7.74,5.848-7.74C87.806-18.49,89.7-13.244,89.7-9.417ZM112.617-20a7.691,7.691,0,0,0-3.311-.688A12.441,12.441,0,0,0,102.77-18.7a10.829,10.829,0,0,0-5.461,9.632c0,5.59,3.784,9.632,7.7,9.632,2.408,0,4.73-1.118,7.525-3.354.129,2.193.387,3.526,1.376,3.526a10.747,10.747,0,0,0,4.687-1.548c1.161-.688.817-1.591-.043-1.591-.3,0-.817.043-.989.043-1.634,0-1.72-.774-1.72-4.386V-30.057a10.761,10.761,0,0,1,.43-3.7.625.625,0,0,0-.473-.817,6.4,6.4,0,0,0-1.763.6,19.109,19.109,0,0,1-4.257,1.2c-1.2.172-1.161,1.29,0,1.505,1.978.387,2.623.645,2.709,1.333a19.933,19.933,0,0,1,.129,2.881Zm-5.332,1.634a7.091,7.091,0,0,1,4.773,1.462,1.374,1.374,0,0,1,.559,1.247v9.847a2.151,2.151,0,0,1-.3,1.419,6.91,6.91,0,0,1-5.074,2.107c-4.085,0-6.364-3.87-6.364-8.213C100.878-15.738,103.2-18.361,107.285-18.361Zm19.866,3.569a19.4,19.4,0,0,1,.387-4.9c.129-.6-.215-.946-.6-.946a6.655,6.655,0,0,0-1.161.43,15.787,15.787,0,0,1-3.655.946c-.989.172-1.2,1.2-.215,1.505,1.591.473,1.849,1.032,1.892,1.591.086.946.086,1.849.086,2.623V-6.45c0,3.1.9,4.644,1.72,5.461A5.351,5.351,0,0,0,129.645.6c2.881,0,5.246-2.279,7.1-3.956.086,2.15.215,3.913,1.29,3.913A8.811,8.811,0,0,0,142.8-1.247c.688-.6.516-1.462-.258-1.419-1.419.129-1.806.129-2.279-.516-.258-.3-.344-1.677-.344-3.87v-7.955a27.36,27.36,0,0,1,.258-4.472.609.609,0,0,0-.559-.86c-.172,0-.6.172-1.333.344a15.7,15.7,0,0,1-4.128.473c-1.333.043-1.376,1.376-.258,1.548,2.279.43,2.58.774,2.709,1.849a15.168,15.168,0,0,1,.086,1.849v8.3a1.359,1.359,0,0,1-.172.9,6.507,6.507,0,0,1-5.16,2.752A3.8,3.8,0,0,1,127.409-5.2a13.24,13.24,0,0,1-.258-3.354Zm30.53-5.891a11.856,11.856,0,0,0-6.579,2.064,11,11,0,0,0-5.117,9.2c0,5.461,3.7,9.976,8.385,9.976a10.583,10.583,0,0,0,8.041-3.44c1.032-1.161.473-2.279-.731-1.376a7.848,7.848,0,0,1-5.031,1.892c-3.053,0-7.1-1.892-7.1-8.428,0-5.246,2.322-7.525,5.633-7.525a5.554,5.554,0,0,1,5.2,2.752c.516.946,1.075.43,1.419-.129a4.714,4.714,0,0,0,.731-2.236,1.811,1.811,0,0,0-.731-1.462A5.783,5.783,0,0,0,157.681-20.683ZM172.387-17.5h2.236c1.892,0,2.365-.086,2.537-.3a2.985,2.985,0,0,0,.6-1.72c0-.3-.086-.43-.344-.387s-1.333.086-2.322.086h-2.709c.043-5.246.172-6.235.387-6.708.344-.817-.129-1.247-.86-.774a9.017,9.017,0,0,0-2.408,2.365c-.129.344-.3,1.29-.344,5.117a8.646,8.646,0,0,0-2.623.172c-.258.129-1.161,1.075-1.161,1.548,0,.258.086.516.387.559.344.043.9.043,2.838.043h.559V-5.633C169.162-.3,171.14.6,173.2.6a6.749,6.749,0,0,0,4.3-1.634c1.161-1.118.645-1.978-.258-1.72a5.463,5.463,0,0,1-2.322.43c-1.806,0-2.537-1.118-2.537-3.741ZM185.115,0c1.548,0,2.58.086,3.655.086,1.505,0,1.505-1.376.172-1.591-1.978-.387-2.15-.731-2.15-2.752v-9.976a29.959,29.959,0,0,1,.344-5.5c.086-.645-.172-.946-.6-.946a2.27,2.27,0,0,0-1.075.43A10.8,10.8,0,0,1,181.8-18.92c-1.032.172-.989,1.118-.215,1.419,1.72.688,1.849.86,1.892,1.548a11.606,11.606,0,0,1,.086,1.935v9.976c0,1.806-.258,2.15-2.107,2.537-1.376.258-1.333,1.591.129,1.591C182.363.086,183.911,0,185.115,0Zm.086-31.089a2.447,2.447,0,0,0-2.408,2.58,2.273,2.273,0,0,0,2.279,2.408,2.429,2.429,0,0,0,2.408-2.623A2.339,2.339,0,0,0,185.2-31.089Zm18.877,10.406a11.709,11.709,0,0,0-7.611,2.924,10.247,10.247,0,0,0-3.655,8.385c0,5.16,3.4,10.148,9.116,10.148a11.507,11.507,0,0,0,8.643-4.128,11.29,11.29,0,0,0,2.537-7.7C213.108-16.168,209.281-20.683,204.078-20.683ZM209.5-9.417c0,4.9-2.322,8.084-5.762,8.084-5.332,0-7.353-4.816-7.353-9.417,0-3.053,1.032-7.74,5.848-7.74C207.6-18.49,209.5-13.244,209.5-9.417Zm9.847,1.978a29.9,29.9,0,0,1-.129,4.042c-.086,1.247-.215,1.548-2.15,1.935-1.29.215-1.333,1.548.129,1.548,1.118,0,2.322-.086,3.741-.086,1.548,0,2.967.086,3.913.086,1.376,0,1.462-1.333.215-1.548-2.15-.387-2.322-.688-2.365-1.892a23.058,23.058,0,0,1-.129-3.44V-14.1a1.451,1.451,0,0,1,.3-1.118,6.923,6.923,0,0,1,4.859-2.623c3.268,0,4.859,2.064,4.859,5.246v2.881c0,4.171-.086,5.16-.129,6.02-.043,1.376-.172,1.806-2.451,2.236-1.333.215-1.333,1.548.215,1.548.817,0,2.494-.086,3.612-.086,1.462,0,2.623.086,4,.086,1.419,0,1.462-1.333.129-1.548-1.892-.344-2.15-.516-2.15-1.892v-9.89c0-4.816-2.365-7.439-5.977-7.439a6.746,6.746,0,0,0-3.612,1.118,31.4,31.4,0,0,0-3.569,2.58,14.686,14.686,0,0,0-.215-3.01c-.086-.473-.258-.688-.645-.688a2.923,2.923,0,0,0-1.118.473,15.127,15.127,0,0,1-3.44,1.72.7.7,0,0,0-.086,1.333c1.978.645,2.193,1.032,2.193,2.322Zm44.763-13.244a11.709,11.709,0,0,0-7.611,2.924,10.247,10.247,0,0,0-3.655,8.385c0,5.16,3.4,10.148,9.116,10.148A11.507,11.507,0,0,0,270.6-3.354a11.29,11.29,0,0,0,2.537-7.7C273.136-16.168,269.309-20.683,264.106-20.683Zm5.418,11.266c0,4.9-2.322,8.084-5.762,8.084-5.332,0-7.353-4.816-7.353-9.417,0-3.053,1.032-7.74,5.848-7.74C267.632-18.49,269.524-13.244,269.524-9.417Zm10.191,2.408a27.722,27.722,0,0,1-.129,3.4c-.086,1.376-.215,1.763-2.021,2.107-1.5.258-1.5,1.591.129,1.591.774,0,2.193-.086,3.956-.086,2.064,0,2.924.086,3.87.086,1.72,0,1.763-1.419.086-1.591-2.236-.3-2.451-.559-2.537-2.064-.043-.731-.086-1.892-.086-3.612V-17.458h1.763c2.236,0,2.623-.086,2.8-.3a3.643,3.643,0,0,0,.688-1.806c0-.3-.172-.473-.473-.387a14.581,14.581,0,0,1-2.322.129h-2.451v-.645c0-10.32,2.365-11.223,4.644-11.223a5.77,5.77,0,0,1,4.257,2.193A.749.749,0,0,0,293-29.627a3.866,3.866,0,0,0,1.161-2.408,1.86,1.86,0,0,0-.559-1.376,4.963,4.963,0,0,0-3.7-1.161c-2.193,0-5.375,1.376-7.7,4.773-2.021,2.924-2.408,5.246-2.494,9.976a10.336,10.336,0,0,0-2.752.172,2.913,2.913,0,0,0-1.032,1.548c0,.3.086.516.344.559s1.376.086,3.44.086ZM7.568,40.5H9.8c1.892,0,2.365-.086,2.537-.3a2.985,2.985,0,0,0,.6-1.72c0-.3-.086-.43-.344-.387s-1.333.086-2.322.086H7.568c.043-5.246.172-6.235.387-6.708.344-.817-.129-1.247-.86-.774A9.017,9.017,0,0,0,4.687,33.06c-.129.344-.3,1.29-.344,5.117a8.646,8.646,0,0,0-2.623.172C1.462,38.478.559,39.424.559,39.9c0,.258.086.516.387.559.344.043.9.043,2.838.043h.559V52.367c0,5.332,1.978,6.235,4.042,6.235a6.749,6.749,0,0,0,4.3-1.634c1.161-1.118.645-1.978-.258-1.72a5.463,5.463,0,0,1-2.322.43c-1.806,0-2.537-1.118-2.537-3.741Zm13.846,2.064A6.26,6.26,0,0,1,26.273,40.2c2.838,0,4.9,1.247,4.9,5.633V51.12c0,2.623-.043,3.483-.086,3.87-.086.946-.43,1.247-1.892,1.591-1.376.3-1.2,1.5.215,1.5,1.677,0,2.322-.086,3.526-.086,1.075,0,2.408.086,3.311.086,1.634,0,1.505-1.29.043-1.548-1.505-.3-1.763-.688-1.806-1.548-.043-.688-.043-1.032-.043-1.505V44.2c0-3.612-1.978-6.88-6.106-6.88a7.051,7.051,0,0,0-3.44.946,22.438,22.438,0,0,0-3.354,2.322c-.258.215-.344.129-.344-.043V29.319a22.629,22.629,0,0,1,.344-5.074.628.628,0,0,0-.559-.817,3.112,3.112,0,0,0-1.462.559,11.228,11.228,0,0,1-4.042,1.29c-1.462.172-1.161,1.376-.215,1.462,2.236.473,2.494.688,2.58,1.634.086.989.086,1.892.086,4.73V50.088c0,2.193,0,3.01-.086,4.558-.086,1.419-.43,1.634-1.72,1.892-1.591.258-1.591,1.548,0,1.548,1.032,0,1.806-.086,3.44-.086,1.591,0,2.623.086,3.612.086,1.29,0,1.462-1.29,0-1.548-1.72-.344-1.806-.688-1.892-1.849-.043-.516-.086-1.806-.086-4.042V43.724C21.2,43.036,21.2,42.821,21.414,42.563ZM43.989,44.8c.473-3.784,2.494-5.332,4.773-5.332a5.011,5.011,0,0,1,5.117,4.945c0,.215-.043.387-.215.473a51.766,51.766,0,0,1-7.826.387,14.678,14.678,0,0,1-1.591-.086C44.032,45.143,43.989,45.057,43.989,44.8ZM43.86,47.25c8.213,0,10.406-.473,12.126-.946.774-.215,1.634-.774,1.634-1.548,0-.387-.215-.516-.473-.645a6.794,6.794,0,0,0-6.966-6.794,9.411,9.411,0,0,0-6.02,2.451,11.307,11.307,0,0,0-3.7,8.6c0,5.848,3.483,10.191,8.471,10.191a11.227,11.227,0,0,0,7.525-2.967c1.075-1.075.688-2.279-.645-1.462A8.312,8.312,0,0,1,51,55.678C46.827,55.678,43.946,52.969,43.86,47.25ZM85.355,45.1c.387-.043.559.043.817.473,1.892,2.924,3.483,5.5,5.375,8.17,2.537,3.827,3.655,4.171,5.246,4.386a21.648,21.648,0,0,0,4.085-.043c1.634-.129,1.72-1.462.129-1.591a9.751,9.751,0,0,1-2.021-.387c-.946-.3-1.72-1.075-3.01-2.709-2.537-3.139-4.6-6.192-6.665-9.245,4.687-1.935,6.364-5.332,6.364-8.213,0-2.666-1.333-7.74-10.234-7.74-3.311,0-5.375.129-7.525.129-1.032,0-2.967-.086-3.827-.086-1.634,0-1.677,1.333-.043,1.548,2.322.344,2.924.774,3.01,1.892s.129,1.892.129,5.074V49.486c0,2.666,0,3.827-.086,4.945-.086,1.247-.215,1.72-3.053,2.107-1.548.172-1.591,1.548.172,1.548,1.419,0,2.838-.086,4.773-.086,2.15,0,3.655.086,4.945.086,1.591,0,1.634-1.333.129-1.548-2.838-.387-3.1-.9-3.182-2.322C80.84,53.657,80.8,52.195,80.8,50v-4.73C82.3,45.272,84.022,45.229,85.355,45.1ZM80.8,42.52V36.543c0-4.73-.043-5.547.172-5.934.258-.344,1.462-.559,3.225-.559,5.461,0,7.482,3.44,7.482,7.181,0,5.2-3.44,5.977-7.4,5.977A13.051,13.051,0,0,1,81.1,42.95C80.84,42.864,80.8,42.778,80.8,42.52Zm33.454-5.2a11.709,11.709,0,0,0-7.611,2.924,10.247,10.247,0,0,0-3.655,8.385c0,5.16,3.4,10.148,9.116,10.148a11.507,11.507,0,0,0,8.643-4.128,11.29,11.29,0,0,0,2.537-7.7C123.281,41.832,119.454,37.317,114.251,37.317Zm5.418,11.266c0,4.9-2.322,8.084-5.762,8.084-5.332,0-7.353-4.816-7.353-9.417,0-3.053,1.032-7.74,5.848-7.74C117.777,39.51,119.669,44.756,119.669,48.583Zm18.877-11.266a11.709,11.709,0,0,0-7.611,2.924,10.247,10.247,0,0,0-3.655,8.385c0,5.16,3.4,10.148,9.116,10.148a11.507,11.507,0,0,0,8.643-4.128,11.29,11.29,0,0,0,2.537-7.7C147.576,41.832,143.749,37.317,138.546,37.317Zm5.418,11.266c0,4.9-2.322,8.084-5.762,8.084-5.332,0-7.353-4.816-7.353-9.417,0-3.053,1.032-7.74,5.848-7.74C142.072,39.51,143.964,44.756,143.964,48.583Zm25.327-7.74a5.283,5.283,0,0,0-4.988-3.526,6.282,6.282,0,0,0-3.956,1.247c-1.634,1.2-2.838,2.064-3.311,2.451a22.327,22.327,0,0,0-.215-2.967c-.086-.43-.344-.731-.645-.731a1.681,1.681,0,0,0-.946.43,18.844,18.844,0,0,1-3.612,1.849.661.661,0,0,0,0,1.29c1.763.516,2.021.989,2.064,1.462a12.559,12.559,0,0,1,.129,2.365v6.321a30.96,30.96,0,0,1-.086,3.784c-.172,1.2-.387,1.333-2.279,1.763-1.161.215-1.118,1.5.129,1.5,1.075,0,2.58-.086,3.784-.086,1.161,0,3.268.086,4.042.086,1.247,0,1.333-1.333.258-1.5-2.15-.43-2.408-.774-2.494-1.935-.043-.473-.129-1.548-.129-3.182V43.509c0-.344,0-.516.215-.731a6.333,6.333,0,0,1,4.816-2.537c2.924,0,4.73,1.376,4.73,6.02V51.98c0,1.677-.043,2.58-.086,3.01-.086.817-.215,1.118-2.279,1.548-1.333.215-1.161,1.548.129,1.548.86,0,2.408-.086,3.569-.086s3.268.086,3.913.086c1.247,0,1.376-1.2.086-1.5-1.978-.473-2.107-.645-2.107-2.365V44.369a7.763,7.763,0,0,0-.215-1.935c0-.086.086-.172.172-.344a6.63,6.63,0,0,1,4.558-1.849c2.795,0,4.687,1.376,4.687,5.762v4.816a32.93,32.93,0,0,1-.172,4.472c-.086.473-.43.9-2.322,1.29-1.247.215-1.118,1.5.086,1.5.774,0,3.268-.086,4.128-.086,1.634,0,2.709.086,3.655.086,1.247,0,1.376-1.2.172-1.5-1.806-.43-2.064-.473-2.193-1.333a24.656,24.656,0,0,1-.086-2.752V44.369c0-3.7-2.021-7.052-5.977-7.052a7.063,7.063,0,0,0-3.741,1.032C171.613,39.123,170.108,40.155,169.291,40.843Zm25.542,4.687c-1.634-.645-2.924-1.419-2.924-3.4,0-1.462.731-2.924,3.268-2.924a3.888,3.888,0,0,1,3.7,1.849,7.288,7.288,0,0,1,.731,2.193c.215,1.161,1.548.946,1.548-.473a31.82,31.82,0,0,1,.43-5.418c.129-.688-.645-.731-1.161-.344-.258.172-.473.516-.774.731-.129.086-.172.129-.473.043a8.73,8.73,0,0,0-2.838-.473,8.347,8.347,0,0,0-5.16,1.634,5.536,5.536,0,0,0-2.365,4.472c0,2.967,2.408,4.386,4.042,5.031,1.247.473,2.881,1.075,4.128,1.591a3.4,3.4,0,0,1,2.279,3.182q0,3.483-3.741,3.483c-2.623,0-4.128-1.118-4.9-2.881-.172-.473-.516-1.419-.6-1.677-.387-1.29-1.72-1.032-1.591.3.215,2.15.344,3.784.344,5.289,0,1.2,1.075.9,1.548.344.258-.344.473-.258.731-.129a8.415,8.415,0,0,0,3.483.688,9.1,9.1,0,0,0,4.644-1.247,6.533,6.533,0,0,0,3.44-5.719c0-2.623-2.021-4-4-4.816Z" transform="translate(36 180)"/>
    <path id="パス_81" data-name="パス 81" d="M3.768-1.164c-.132.168-.336.18-.6.084a1.326,1.326,0,0,1-.456-.276c-.156-.156-.132-.216,0-.324A11.724,11.724,0,0,1,4.428-2.7,3.861,3.861,0,0,1,3.768-1.164ZM5.292-5.676a10.526,10.526,0,0,0,1.476-.432A.47.47,0,0,0,7.1-6.552c0-.228-.2-.324-.42-.324-.252,0-.528.072-.792.1s-.48,0-.588-.444a8.824,8.824,0,0,0-.1-1.344c-.06-.372-.156-.444-.4-.528A1.95,1.95,0,0,0,4.128-9.2c-.24,0-.576.264-.576.432,0,.108.132.192.288.264.348.168.456.2.576.552a6.36,6.36,0,0,1,.252,1.692,10.015,10.015,0,0,1-1.488.132,2.209,2.209,0,0,1-1.56-.876c-.24-.24-.408-.144-.408.132a1.7,1.7,0,0,0,.78,1.3,2.089,2.089,0,0,0,1.248.216,7.706,7.706,0,0,0,1.44-.18c0,.348-.012.648-.012.876-.012.4-.048.84-.108,1.3a22.741,22.741,0,0,0-2.232,1.1c-.624.36-.756.66-.228,1.152.348.324.624.552.864.756a1.325,1.325,0,0,0,.744.372c.384,0,.672-.336.948-.984a8.145,8.145,0,0,0,.468-2.04,6.682,6.682,0,0,1,2.8-.7c.768,0,1.38.42,1.38,1.1A1.168,1.168,0,0,1,7.968-1.4a1.816,1.816,0,0,1-1.656-1.08c-.168-.288-.432-.2-.384.132a2.083,2.083,0,0,0,2.16,1.74A1.887,1.887,0,0,0,10.2-2.52c0-1.068-.84-1.752-2.172-1.752A7.888,7.888,0,0,0,5.2-3.624c.036-.444.06-.864.072-1.236Zm5.616-.492A2.776,2.776,0,0,0,8.28-6.252c-.252.12-.192.384.072.372a2.773,2.773,0,0,1,2.148.7.477.477,0,0,0,.8-.228C11.388-5.712,11.22-5.952,10.908-6.168Zm7.56-1.7c.324,0,.564-.1.564-.264,0-.276-.756-1.008-1-1.008-.168,0-.48.42-.72.792H16.152v-.84c.372-.084.636-.18.636-.432,0-.324-1.164-.36-1.368-.36a.151.151,0,0,0-.168.18,13.757,13.757,0,0,1,.036,1.452H12.9c-.156,0-.264.06-.264.24s.108.24.264.24Zm-4.728.864a6.248,6.248,0,0,1,.288.792c.1.372.168.684.48.744a.51.51,0,0,0,.648-.444c.108-.552-.468-1.092-1.056-1.4C13.8-7.476,13.632-7.26,13.74-7.008Zm.8,6.264v-.612c0-.228,0-1.008.024-1.356h2.568c0,.468-.012,1.308-.012,1.968Zm.384-2.448a2.787,2.787,0,0,0-1.116-.5.143.143,0,0,0-.168.156c.12,1.068.048,3.132.048,3.924a.291.291,0,0,0,.324.324c.348,0,.54-.12.54-.372v-.6h2.556v.42c0,.192.084.408.36.408.324,0,.516-.1.516-.468s-.036-1.932-.012-2.688c.2-.084.408-.18.408-.336,0-.264-.7-.78-.936-.78-.132,0-.36.276-.54.516Zm1.32-1.764a.484.484,0,0,0,.2-.108,6.644,6.644,0,0,0,1.164-1.644c.36-.012.552-.084.528-.264-.012-.216-.7-.528-1.1-.6-.12-.024-.192.06-.216.18A6.393,6.393,0,0,1,16.092-5.3c-.084.18-.036.324.084.348H12.564c-.156,0-.264.06-.264.24s.108.24.264.24H18.7c.3,0,.552-.1.552-.276a1.862,1.862,0,0,0-.972-1.008c-.168,0-.48.42-.732.8Zm4.476-4.092a3.059,3.059,0,0,0-1.176-.5.163.163,0,0,0-.168.168c.192,1.8.048,8.388.048,9.876,0,.216.1.348.336.348.384,0,.552-.144.552-.42,0-.492-.024-4.524-.024-4.944,0-.48,0-3.216.06-4.032l.072-.012h1.86A16.711,16.711,0,0,1,21.3-5.832c-.168.336-.168.456.06.684a3.412,3.412,0,0,1,1.176,2.364c0,.948-.108,1.38-.636,1.38-.348,0-.672-.036-.828-.036-.276,0-.312.324-.012.42a.947.947,0,0,1,.576.432.423.423,0,0,0,.4.228c1.008,0,1.392-.912,1.392-1.944a3.863,3.863,0,0,0-1.512-3.084c-.132-.132-.144-.192-.06-.36.288-.528.96-1.62,1.416-2.484.324-.108.54-.2.54-.384,0-.312-.78-.972-1-.972-.156,0-.408.264-.624.54Zm6.3.3H33.36c0,.384-.012,1-.012,1.428H26.916c0-.456,0-.912-.012-1.392ZM33.336-6.84a.387.387,0,0,0,.144.312c-.168.048-.432.4-.648.708h-5.4c-.156,0-.264.06-.264.24s.108.24.264.24H29.64A7.205,7.205,0,0,1,29.16-4c-.516.012-1.068,0-1.656-.024-.1,0-.156.024-.156.132,0,.66.12,1.08.36,1.116.192.036.324-.192.408-.456a28,28,0,0,0,4.92-.552,5.548,5.548,0,0,0,.336.516.45.45,0,0,0,.5.228.484.484,0,0,0,.4-.624,2.026,2.026,0,0,0-1.812-1.3c-.24-.048-.336.18-.192.312s.264.264.4.408a27.269,27.269,0,0,1-2.748.228q.252-.378.5-.792c.264-.024.576-.108.576-.3,0-.084-.084-.168-.216-.24h3.144c.432,0,.624-.084.612-.252,0-.216-.516-.684-.828-.864.348,0,.54-.084.54-.456-.012-.312-.024-1.1-.012-1.68.216-.1.42-.2.42-.36,0-.264-.72-.792-.972-.792-.132,0-.372.276-.552.516h-6.12a3.52,3.52,0,0,0-.912-.408c-.156-.024-.228.036-.216.228.1,1.224.12,2.568.108,3.66-.024,2.832-.48,4.32-1.62,5.832-.24.324.072.552.348.3C26.6-1.176,26.808-3.552,26.868-5.4c.024-.5.036-.972.036-1.44Zm-2.3,6.78V-1.428H33.5c.444,0,.66-.108.66-.276,0-.288-.864-1.008-1.1-1.008-.18,0-.516.432-.768.8h-1.26V-2.5c.324-.072.54-.156.54-.384,0-.288-1.068-.336-1.272-.336-.108,0-.18.06-.168.168.024.264.048.672.06,1.14h-2.64c-.156,0-.264.06-.264.24s.108.24.264.24h2.64c.012.468.012.96,0,1.368H26.424c-.156,0-.264.06-.264.24s.108.24.264.24H34.74c.444,0,.672-.108.672-.288,0-.3-.888-1.044-1.14-1.056-.192.012-.528.48-.792.864Zm11.616-6.2c-.564,1.608-2.292,3.948-3.444,3.948-.348,0-.672-.564-.732-1.488a3.175,3.175,0,0,1,.948-2.64,3.453,3.453,0,0,1,2.436-.888,5.324,5.324,0,0,1,1.008.1A3.746,3.746,0,0,1,42.648-6.264Zm-.756-1.668a4.572,4.572,0,0,0-2.94,1.068,3.913,3.913,0,0,0-1.26,3.336c.108,1.416.732,2.292,1.368,2.292,1.44,0,3.444-2.388,4.14-4.308a5.787,5.787,0,0,0,.336-1.476A2.957,2.957,0,0,1,45.4-4.164c0,1.968-1.344,2.844-3.42,3.252-.372.072-.348.444.072.444,2.472,0,4.32-1.188,4.32-3.492C46.368-6.12,44.76-7.932,41.892-7.932Zm7.32,1.44c.216.444.3.78.612.78s.5-.216.516-.54a1,1,0,0,0-.216-.612A24.1,24.1,0,0,0,51.5-8.988c.264.012.5,0,.528-.144.036-.24-.564-.648-1.128-.828a.156.156,0,0,0-.216.12A10.438,10.438,0,0,1,49.7-7.3a2.982,2.982,0,0,0-.684-.42c-.312-.12-.468.12-.312.36A6.041,6.041,0,0,1,49.212-6.492Zm.144,3.528a.167.167,0,0,0-.228.156A6.447,6.447,0,0,1,48.36-.132c-.144.288.108.444.348.228a4.785,4.785,0,0,0,1.2-2.172c.36.024.564-.048.564-.228C50.472-2.532,49.752-2.868,49.356-2.964Zm3.012.144c-.252-.168-.42.012-.348.252s.132.492.18.732c.072.36.1.66.372.732a.488.488,0,0,0,.648-.348C53.364-1.956,52.884-2.472,52.368-2.82Zm-1.716.792c0,1.284-.036,2.124-.036,2.508,0,.228.084.36.312.36.372,0,.528-.18.528-.432,0-.336-.024-1.2-.024-2.436V-3.8c.192-.036.288-.108.288-.2a.044.044,0,0,0-.012-.036c.216-.036.408-.084.6-.132.06.3.1.528.336.6a.481.481,0,0,0,.6-.4c.132-.5-.3-1.068-.864-1.524-.264-.2-.468.012-.372.276.06.18.132.384.192.576-.468.024-.984.048-1.572.06a25.435,25.435,0,0,0,1.716-2.352c.276.024.6.012.624-.18.024-.24-.5-.588-1.02-.768a.165.165,0,0,0-.24.084A13.362,13.362,0,0,1,49.9-4.572c-.42.012-.852,0-1.32-.012-.1,0-.144.024-.144.144,0,.636.1,1.1.348,1.14.192.024.324-.2.408-.492.48-.024.972-.06,1.464-.108ZM54.924-.78V-1.6c0-.288.012-1.3.036-1.68h2.892c0,.552-.012,1.656-.012,2.5Zm.312-2.976a2.62,2.62,0,0,0-1-.432.131.131,0,0,0-.168.144c.12,1.14.048,3.648.036,4.512a.288.288,0,0,0,.312.324c.348,0,.516-.12.516-.372V-.3h2.892V.276c0,.192.072.408.36.408.312,0,.5-.084.5-.456,0-.444-.048-2.592-.024-3.408.18-.084.348-.18.348-.312,0-.252-.66-.744-.876-.744-.12,0-.336.252-.492.48Zm-1.9-5.2c-.156,0-.264.06-.264.24s.108.24.264.24h2.076c0,.036-.012.072-.012.12a5.344,5.344,0,0,1-.492,2.088,4,4,0,0,1-1.5,1.512c-.288.192-.132.516.18.4a3.813,3.813,0,0,0,2.016-1.656A5.627,5.627,0,0,0,56.2-7.884c.372-.036.54-.108.54-.3,0-.12-.156-.216-.36-.288h1.9a9.75,9.75,0,0,1-.252,2.5.666.666,0,0,1-.684.492,4.482,4.482,0,0,1-.8-.12.185.185,0,0,0-.084.36.68.68,0,0,1,.384.4c.06.216.192.252.384.252a1.447,1.447,0,0,0,1.548-1.092,14.283,14.283,0,0,0,.288-2.6c.24-.12.42-.288.42-.42,0-.2-.648-.708-.912-.708-.108,0-.336.24-.5.468Zm10.716,3.4c-.132,0-.18.06-.168.18a6.721,6.721,0,0,1-.48,4,5.305,5.305,0,0,1-2.2,1.8c-.312.18-.132.528.2.384a5.48,5.48,0,0,0,2.772-1.92,7.029,7.029,0,0,0,.684-3.756c.336-.084.468-.192.468-.348C65.352-5.448,64.4-5.556,64.056-5.556Zm3.168-.06c-.12-.012-.18.048-.168.168a26.423,26.423,0,0,1,.108,3.036c0,.528-.072,2.6-.072,2.916,0,.216.144.324.36.324.36,0,.576-.1.576-.36C68.028.132,68-2.028,68-2.4c0-.3,0-2,.012-2.472.336-.06.528-.168.528-.336C68.544-5.484,67.644-5.6,67.224-5.616Zm4.224-.12a7.75,7.75,0,0,1-4.956-3.456c.24-.012.408-.072.408-.2.012-.2-.588-.48-1.092-.588-.12-.024-.18.024-.228.144a12.036,12.036,0,0,1-4.968,5.4c-.336.18-.192.54.192.408A11.924,11.924,0,0,0,66.18-8.748a8.037,8.037,0,0,0,4.26,3.972c.288.1.4.024.564-.228a.9.9,0,0,1,.5-.348C71.748-5.436,71.82-5.664,71.448-5.736Z" transform="translate(253 237)"/>
  </g>
</svg>
