<svg xmlns="http://www.w3.org/2000/svg" width="351.455" height="27.575" viewBox="0 0 351.455 27.575">
  <path id="パス_41" data-name="パス 41" d="M7.98-14.91h3.51c.6,0,1.26-.21,1.26-.66a4.65,4.65,0,0,0-2.31-2.52c-.42.03-1.14,1.02-1.74,1.98H7.98v-6c.93-.21,1.59-.45,1.59-1.11,0-.78-2.97-.87-3.48-.87-.27,0-.45.15-.42.42.15,1.17.21,4.17.24,7.56H2.22c-.39,0-.66.15-.66.6,0,.48.27.6.66.6H5.94c0,3.9-.03,8.04-.06,10.41-1.47.51-3.06.99-4.8,1.41a.368.368,0,0,0-.33.45C.99-1.05,1.53.21,2.16.21c.51,0,.78-.72.87-1.47A38.045,38.045,0,0,0,12-5.79c1.02-.72.63-1.53-.51-1.02q-1.575.765-3.51,1.53Zm11.34.39v1.11c0,1.92-.27,9.09-.27,10.29a.813.813,0,0,0,.9.87c.96,0,1.44-.33,1.44-1.02,0-1.08-.12-8.79-.12-10.65v-1.41l4.2-1.8a52.519,52.519,0,0,1-.24,8.61c-.12.81-.45,1.23-1.23,1.26a12.51,12.51,0,0,1-1.56-.15c-.54-.03-.69.54-.12.81.57.24.84.51.9.93a.844.844,0,0,0,.96.78,3.14,3.14,0,0,0,3.18-2.94,77.009,77.009,0,0,0,.21-9.21c.54-.27.9-.54.9-.87,0-.51-1.65-1.92-2.43-1.92-.45.03-1.02.96-1.38,1.74l-3.39,1.44c0-2.28.03-5.25.06-6.39.93-.18,1.56-.51,1.56-1.02,0-.78-1.71-.93-3.54-.93-.27,0-.45.15-.39.42a75.419,75.419,0,0,1,.36,8.76l-3.84,1.62c.03-2.79.03-5.16.06-5.7.75-.09,1.53-.42,1.5-1.02,0-.66-1.32-.93-3.36-.93-.51,0-.6.12-.54.54.18,1.2.24,4.47.27,7.98L9.63-11.7a.547.547,0,0,0-.36.81c.18.42.48.45.84.3L13.41-12c0,4.59-.06,9.21-.06,9.87,0,2.91,1.05,3.66,8.04,3.66,6.78,0,8.07-1.17,8.07-1.92,0-.69-.57-.54-.69-1.44-.06-.51-.12-1.38-.12-1.74-.09-.6-.63-.63-.81-.06a19,19,0,0,1-.66,1.98c-.33.69-1.26,1.14-5.85,1.14-5.52,0-5.88-.24-5.88-1.95,0-.72,0-5.88.03-10.41Zm24.24,1.47c-.42,0-.54.09-.48.57.54,8.16-1.98,11.1-8.19,13.59-.93.27-.66,1.23.24,1.02C42.12.18,45.42-3.06,45.51-11.13c1.05-.27,1.23-.48,1.23-.9C46.74-12.69,44.58-13.05,43.56-13.05Zm6.09.6c.24,1.86.15,9.63.15,10.71,0,2.46.54,3.27,5.67,3.27,5.16,0,6.42-1.14,6.42-1.8s-.51-.66-.63-1.59c-.06-.51-.12-1.2-.15-1.59-.06-.6-.63-.63-.81-.03-.12.39-.33,1.23-.57,1.83-.3.72-1.14,1.11-4.32,1.11-3.36,0-3.51-.21-3.51-1.29,0-.72.03-7.8.06-9.27.99-.15,1.5-.45,1.47-.96,0-.63-1.23-.93-3.3-.93C49.68-12.99,49.62-12.87,49.65-12.45ZM35.43-14.76c-.39,0-.66.15-.66.6,0,.48.27.6.66.6H59.79c1.23,0,1.74-.27,1.74-.72,0-.75-2.28-2.64-2.91-2.64-.48,0-1.38,1.17-2.04,2.16Zm2.91-7.74c-.39,0-.66.15-.66.6,0,.48.27.6.66.6H57c1.17,0,1.74-.3,1.74-.72,0-.78-2.28-2.64-2.91-2.64-.48,0-1.35,1.17-2.04,2.16ZM77.76-4.26c0-.57-1.56-1.35-2.67-1.68-.33-.09-.51-.06-.63.24A15.915,15.915,0,0,1,69.69.09c-.66.51-.12,1.2.57.84a16.85,16.85,0,0,0,5.85-4.65C76.92-3.63,77.79-3.78,77.76-4.26Zm8.46-.99c-.87-.21-1.14.51-.63,1.05a24.24,24.24,0,0,1,1.89,2.37C88.29-.66,88.83.15,89.67,0a1.368,1.368,0,0,0,1.14-1.71C90.54-3.33,88.47-4.68,86.22-5.25Zm-14.7-3.6c-.39,0-.66.15-.66.6,0,.48.27.6.66.6h8.43c0,1.62.06,5.25,0,6.12-.06.96-.36,1.35-1.05,1.35-.42,0-1.38-.12-1.86-.12a.4.4,0,0,0-.45.42.509.509,0,0,0,.42.48,3.754,3.754,0,0,1,1.77.84c.39.36.54.69,1.08.69,1.02,0,2.16-.69,2.16-2.67V-6.96c.81-.12,1.29-.3,1.29-.63v-.06h6.45c1.14,0,1.65-.27,1.65-.69,0-.72-2.16-2.52-2.76-2.52-.45,0-1.26,1.08-1.89,2.01Zm13.68-3.3c.87,0,1.44-.21,1.44-.66,0-.66-1.92-2.4-2.49-2.4-.42,0-1.14.96-1.74,1.86H76.2c-.39,0-.66.15-.66.6,0,.48.27.6.66.6Zm7.68-7.35c1.2,0,1.71-.27,1.71-.72,0-.75-2.25-2.61-2.88-2.61-.48,0-1.32,1.17-1.98,2.13H79.89c.36-.72.69-1.47.99-2.22.87.03,1.56-.15,1.53-.63,0-.6-1.98-1.38-3.18-1.59-.33-.03-.51.06-.57.39a26.782,26.782,0,0,1-1.41,4.05H68.22c-.39,0-.66.15-.66.6,0,.48.27.6.66.6h8.46a26.673,26.673,0,0,1-9.27,9.78c-.78.51-.33,1.38.54.99A24.571,24.571,0,0,0,79.26-19.5h4.29c1.65,4.62,4.8,7.86,8.55,9.09.87.3,1.08.06,1.44-.48a2.363,2.363,0,0,1,1.26-.96c.6-.24.87-.75-.12-.9-4.26-.84-7.89-3.09-9.84-6.75Zm27.24,4.29-.03,3.69H107.31v-3.69Zm.03-4.86v3.66H107.34c0-1.5.03-2.94.09-3.66Zm-.06,9.75a.849.849,0,0,0,.9.81c.78,0,1.26-.21,1.26-1.14,0-1.17-.12-6.93-.03-9.12.48-.21.93-.48.93-.84,0-.63-1.68-1.92-2.25-1.92-.33,0-.87.66-1.29,1.26h-4.92v-1.98c.78-.18,1.32-.39,1.32-.93,0-.72-2.61-.84-3.12-.84a.377.377,0,0,0-.42.45c.06.87.09,2.22.06,3.3h-5.04a8.008,8.008,0,0,0-2.04-.9.389.389,0,0,0-.45.42c.45,3.81.12,16.68.12,20.1-1.32.27-2.76.48-4.32.69-.24.03-.36.12-.33.39.27,1.62.78,3,1.41,3,.51,0,.78-.66.9-1.35A48.128,48.128,0,0,0,114.21-3c1.17-.63.87-1.62-.42-1.11a57.85,57.85,0,0,1-6.42,1.98l-.06-8.19h6.3c1.53,6.63,5.22,10.83,11.22,12.15.87.18,1.08-.03,1.44-.54a2.432,2.432,0,0,1,1.32-.9c.69-.27.78-.84-.15-.93a14.854,14.854,0,0,1-8.82-3.63,26.125,26.125,0,0,0,6.36-3.24c.78.36,1.29.36,1.44-.06.24-.54-.93-1.77-1.8-2.37-.3-.21-.51-.09-.72.15a20.768,20.768,0,0,1-6.18,4.59,14.024,14.024,0,0,1-2.76-5.22Zm28.53-5.34c-1.41,4.02-5.73,9.87-8.61,9.87-.87,0-1.68-1.41-1.83-3.72a7.937,7.937,0,0,1,2.37-6.6,8.634,8.634,0,0,1,6.09-2.22,13.309,13.309,0,0,1,2.52.24A9.366,9.366,0,0,1,148.62-15.66Zm-1.89-4.17a11.43,11.43,0,0,0-7.35,2.67,9.783,9.783,0,0,0-3.15,8.34c.27,3.54,1.83,5.73,3.42,5.73,3.6,0,8.61-5.97,10.35-10.77a14.467,14.467,0,0,0,.84-3.69,7.392,7.392,0,0,1,4.65,7.14c0,4.92-3.36,7.11-8.55,8.13-.93.18-.87,1.11.18,1.11,6.18,0,10.8-2.97,10.8-8.73C157.92-15.3,153.9-19.83,146.73-19.83Zm28.98-.69c-.33,0-.42.12-.42.42.36,3.21.3,7.02-.75,9.3a10.472,10.472,0,0,1-3.69,3.99c-.75.54-.24,1.35.6.93a10.821,10.821,0,0,0,4.92-4.26c1.2-2.25,1.29-5.64,1.26-8.64.84-.18,1.17-.39,1.2-.81C178.92-20.16,176.58-20.49,175.71-20.52Zm12.39,8.28c0-.75-.78-.81-.96-.12a10.73,10.73,0,0,1-.6,2.13c-.24.6-.78.87-1.92.87-1.35,0-1.53-.21-1.53-1.35,0-1.59,0-5.67.09-8.13.81-.15,1.23-.39,1.23-.78,0-.63-1.95-.87-2.91-.87-.42,0-.54.12-.51.54.21,3.09.06,8.88.06,9.81,0,2.22.63,2.64,3.6,2.64,2.7,0,4.05-.66,4.05-1.53C188.7-9.84,188.13-9.48,188.1-12.24ZM170.04-2.73l-.03-8.43c0-1.14,0-7.77.15-9.75h19.68c.06,2.79-.03,12.93-.06,18.18Zm1.11-19.38a7.416,7.416,0,0,0-3.06-1.32.407.407,0,0,0-.42.42c.48,4.41.12,20.34.12,23.97a.786.786,0,0,0,.87.9c.96,0,1.41-.39,1.41-1.08V-1.53h19.68V.42a.923.923,0,0,0,.96,1.02c.87,0,1.44-.24,1.44-1.17,0-2.25-.33-16.11-.12-20.58.66-.24,1.29-.57,1.29-1.05,0-.69-1.95-2.13-2.61-2.13-.39,0-1.02.72-1.5,1.38ZM214.29-5.88l-.03-.06a44.592,44.592,0,0,0,4.71-3.63c.9,0,1.59-.27,1.59-.78a3.508,3.508,0,0,0-2.22-2.28c-.33,0-.96.54-1.53,1.11H205.77c-.39,0-.66.15-.66.6,0,.48.27.6.66.6H216.6a25.4,25.4,0,0,1-2.88,3.45A8.585,8.585,0,0,0,211.68-9c-.69-.45-1.53.21-.93.93a11.957,11.957,0,0,1,1.44,2.19H200.55c-.39,0-.66.15-.66.6,0,.48.27.6.66.6h12.12a7.665,7.665,0,0,1,.3,2.07c0,1.59-.66,2.31-1.56,2.31-.87,0-1.83-.15-2.49-.21-.78-.06-.87.72-.15.99a2.538,2.538,0,0,1,1.41.87c.42.54.57.75,1.26.75,1.86,0,3.6-1.26,3.6-4.59a7.433,7.433,0,0,0-.3-2.19h9.81c1.2,0,1.74-.3,1.74-.72,0-.78-2.28-2.64-2.91-2.64-.48,0-1.38,1.17-2.04,2.16Zm10.44-12.15c1.11,0,1.62-.27,1.62-.69,0-.75-2.16-2.61-2.76-2.61-.48,0-1.32,1.14-1.95,2.1h-7.59v-1.5c.78-.09,1.14-.36,1.14-.72,0-.18-.15-.36-.39-.51,1.98-.18,3.84-.45,5.46-.72,1.05.57,1.62.12,1.29-.51a6.63,6.63,0,0,0-1.41-1.56c-.63-.51-.69-.39-1.41-.12-3.75,1.29-9.72,1.95-15.24,2.37-.87.09-.81,1.11.06,1.11,2.91,0,5.82-.12,8.52-.3v2.46H200.31c-.39,0-.66.15-.66.6,0,.48.27.6.66.6h10.17a32.256,32.256,0,0,1-11.04,6.96c-.9.42-.57,1.26.39.96a31.8,31.8,0,0,0,12.24-6.45c-.03,1.56-.09,2.76-.09,3.42,0,.57.21.93.78.93.96,0,1.35-.45,1.35-1.08,0-.78-.06-2.52-.06-4.68a14.782,14.782,0,0,0,9.93,6.24c.78.18.99,0,1.44-.6a2.547,2.547,0,0,1,1.23-.87c.63-.21.72-.84-.18-.93-4.35-.45-8.31-1.23-11.04-3.9Zm27.69,7.29c-.72.33-2.64,1.05-4.56,1.89a6.906,6.906,0,0,1,1.02-2.76,4.973,4.973,0,0,1,3.93-2.55c1.26,0,1.98.51,1.98,1.35C254.79-11.67,253.89-11.4,252.42-10.74Zm.69-4.59c-2.1,0-4.2,1.14-6,4.26-1.05-2.55-2.94-2.76-4.95-2.22.48-.93,1.62-2.88,2.19-3.87a45.061,45.061,0,0,0,6.15-1.41c.84-.33,1.89-.72,1.86-1.41a1.309,1.309,0,0,0-1.44-1.11c-1.26,0-2.43,1.32-5.64,2.04a17.686,17.686,0,0,0,1.14-4.08c0-.72-1.29-1.05-2.25-1.05-.45,0-1.38.18-1.38.6,0,.36.39.66.9,1.2a1.719,1.719,0,0,1,.3,1.65,9.079,9.079,0,0,1-.6,1.98,30.96,30.96,0,0,1-3.33.18c-1.74,0-2.58-.63-4.05-1.98-.48-.45-.9-.3-.81.39.36,2.37,1.56,3.45,3.72,3.45a28.365,28.365,0,0,0,3.72-.24,29.136,29.136,0,0,1-5.91,7.83,2.513,2.513,0,0,0-.96,1.92,1.023,1.023,0,0,0,1.08,1.08c.72,0,1.08-.54,1.53-1.11,2.19-2.76,3.15-5.22,5.04-5.22,1.53,0,2.25,1.59,2.37,3.06a12.373,12.373,0,0,1,.03,1.47c-3.9,1.92-5.1,3.33-5.1,5.1,0,2.22,1.89,3.63,5.85,3.63,4.08,0,6.18-.72,6.18-1.59,0-.93-.9-1.2-1.83-1.2-1.23,0-2.76.6-5.25.6-1.59,0-3.18-.51-3.18-1.83,0-1.41,1.2-2.37,3.24-3.39-.03.51-.09.9-.09,1.23a1.213,1.213,0,0,0,1.26,1.26c.66-.03.96-.54.96-1.26,0-.6-.03-1.41-.03-2.1,1.98-.75,4.83-1.62,6.06-2.04,1.92-.63,3.3-1.32,3.3-2.76C257.19-14.01,255.27-15.33,253.11-15.33Zm15.84,7.02-.03-4.08c0-.93,0-5.67.12-7.35h3.33c.03,2.16-.03,8.25-.06,11.43Zm3.36,1.2v.75a.917.917,0,0,0,.93,1.02c.87,0,1.38-.24,1.38-1.17,0-1.56-.21-9.75-.06-12.84.54-.21,1.05-.51,1.05-.9,0-.66-1.8-1.98-2.43-1.98-.33,0-.93.69-1.38,1.29h-1.95a6.741,6.741,0,0,0-2.79-1.26.409.409,0,0,0-.42.42c.42,3.75.12,15.54.12,18.54,0,.57.27.87.84.87.93,0,1.38-.33,1.38-1.02l-.03-3.72Zm18.81-4.44c.96,0,1.56-.27,1.56-.69,0-.72-2.07-2.58-2.7-2.58-.45,0-1.26,1.11-1.89,2.07h-4.62v-5.22h6.9c.93,0,1.5-.24,1.5-.69,0-.69-1.98-2.49-2.58-2.49-.42,0-1.2,1.05-1.83,1.98H283.5c0-1.53,0-2.88.03-3.6.93-.21,1.56-.54,1.56-1.05,0-.75-1.56-.93-3.57-.93-.27,0-.45.15-.39.42a40.912,40.912,0,0,1,.36,5.16h-5.4c-.39,0-.66.15-.66.6,0,.48.27.6.66.6h5.43c.03,1.95.03,3.87.03,5.22h-6.12c-.39,0-.66.15-.66.6,0,.48.27.6.66.6h5.04A24.917,24.917,0,0,1,270.93-.6c-.75.51-.24,1.26.57.87a21.221,21.221,0,0,0,10.02-9.18c-.09,3.45-.27,9.06-.27,10.14a.83.83,0,0,0,.93.9c.99,0,1.41-.39,1.41-1.08,0-1.11-.09-8.55-.12-11.79,1.44,4.41,3.9,7.98,6.6,9.63.84.39,1.08.15,1.41-.36a2.228,2.228,0,0,1,1.26-.96c.54-.21.96-.63-.03-.93a15.358,15.358,0,0,1-8.43-8.19Zm15.63,7.11c-.48-.54-1.14-1.32-1.86-2.25,1.11-1.62,2.34-3.39,3.12-4.47a37.032,37.032,0,0,1-.48,6.6C307.38-3.96,307.14-3.99,306.75-4.44Zm3.36-9.78a2.991,2.991,0,0,0-.66-1.68c.06-1.92.18-4.11.18-5.16,0-1.62-.57-1.98-2.82-1.98-1.05,0-1.74.45-1.74.84s.66.6,1.35.87a1.5,1.5,0,0,1,1.17,1.41,31.249,31.249,0,0,1,.3,3.45,9.616,9.616,0,0,0-2.19,1.02,15.468,15.468,0,0,1-3.15,1.71,4.828,4.828,0,0,1-1.95-.81c-.18-.09-.33-.09-.42.15a1.871,1.871,0,0,0,0,1.29,2.337,2.337,0,0,0,2.07,1.5,5.078,5.078,0,0,0,2.79-1.38c1.02-.81,1.35-1.08,1.62-1.26.39-.27.63-.24.42.42-1.32,4.11-5.76,8.34-6.57,9.33-.63.78-.84,1.65-.42,2.01.96.81,1.92-.12,2.43-.81.3-.42.96-1.35,1.71-2.43a17.159,17.159,0,0,1,1.92,3.39c.24.78.36,2.64,1.23,2.64.9,0,1.29-.57,1.59-1.62.39-1.38.45-6.3.45-10.71a11.483,11.483,0,0,1,7.29-3c2.58,0,4.65,1.38,4.65,5.43,0,3.51-2.85,6.3-8.73,7.98-.63.18-.45.93.21.87,6.57-.6,10.89-3.9,10.89-8.64,0-5.34-3.78-6.99-6.84-6.99a12.074,12.074,0,0,0-6.78,2.25Zm36.63,1.62c2.04,0,3.12,1.92,3.12,4.32,0,4.71-3.39,7.11-8.97,7.98-1.17.18-1.05,1.14.09,1.14,6.42,0,11.22-2.94,11.22-8.7,0-4.41-2.79-6.3-5.79-6.3-1.71,0-3.33.48-5.19.48-1.29,0-1.98-1.14-2.46-1.71-.3-.36-.84-.24-.93.48a3.52,3.52,0,0,0,.3,2.04,2.547,2.547,0,0,0,2.55,1.59C342.36-11.28,344.73-12.6,346.74-12.6ZM341.7-23.01c-.78.06-.81.75-.18.96a11.459,11.459,0,0,1,3.39,1.62.665.665,0,0,1,.03,1.17,7.84,7.84,0,0,1-1.23.84c-.39.24-.24.75.27.72a21.644,21.644,0,0,0,3.66-.6c.72-.18,1.05-.54,1.05-1.02,0-1.35-1.62-2.64-3.54-3.24A10.16,10.16,0,0,0,341.7-23.01Z" transform="translate(-0.745 25.145)" fill="#8d857b"/>
</svg>
