<svg xmlns="http://www.w3.org/2000/svg" width="160.255" height="30.127" viewBox="0 0 160.255 30.127">
  <g id="グループ_94" data-name="グループ 94" transform="translate(-671.155 -2026.997)">
    <path id="パス_34" data-name="パス 34" d="M7.2-15.87c0-2.55.03-2.91.24-3.12.27-.27,1.47-.51,3.42-.51,7.35,0,9.12,5.01,9.12,9.69,0,3.99-2.07,8.49-8.49,8.49-1.95,0-3.57-.33-3.99-.84-.3-.27-.3-.87-.3-3.06ZM4.71-6.27a29.7,29.7,0,0,1-.12,4.02c-.12.6-.39.9-2.22,1.14C1.26-.93,1.44,0,2.37,0h2.1c1.08,0,3.69.21,5.55.21,2.97,0,5.94-.45,8.67-2.73a10.928,10.928,0,0,0,4.11-8.91c0-3.72-2.28-9.39-10.86-9.39-2.61,0-4.47.12-6.27.12-1.08,0-2.46-.09-3.15-.09-1.17,0-1.23.93-.12,1.08,1.86.24,2.19.66,2.25,1.44s.06,1.2.06,2.85ZM32.07,0c1.08,0,1.8.06,2.55.06,1.05,0,1.05-.96.12-1.11-1.38-.27-1.5-.51-1.5-1.92V-9.93a20.9,20.9,0,0,1,.24-3.84c.06-.45-.12-.66-.42-.66a1.584,1.584,0,0,0-.75.3,7.537,7.537,0,0,1-2.55.93c-.72.12-.69.78-.15.99,1.2.48,1.29.6,1.32,1.08a8.1,8.1,0,0,1,.06,1.35v6.96c0,1.26-.18,1.5-1.47,1.77-.96.18-.93,1.11.09,1.11C30.15.06,31.23,0,32.07,0Zm.06-21.69a1.707,1.707,0,0,0-1.68,1.8,1.586,1.586,0,0,0,1.59,1.68,1.7,1.7,0,0,0,1.68-1.83A1.632,1.632,0,0,0,32.13-21.69ZM45.06-8.7c-1.14-.45-2.04-.99-2.04-2.37,0-1.02.51-2.04,2.28-2.04a2.712,2.712,0,0,1,2.58,1.29,5.084,5.084,0,0,1,.51,1.53c.15.81,1.08.66,1.08-.33a22.2,22.2,0,0,1,.3-3.78c.09-.48-.45-.51-.81-.24-.18.12-.33.36-.54.51-.09.06-.12.09-.33.03a6.091,6.091,0,0,0-1.98-.33,5.824,5.824,0,0,0-3.6,1.14,3.862,3.862,0,0,0-1.65,3.12,3.883,3.883,0,0,0,2.82,3.51c.87.33,2.01.75,2.88,1.11a2.369,2.369,0,0,1,1.59,2.22q0,2.43-2.61,2.43a3.361,3.361,0,0,1-3.42-2.01c-.12-.33-.36-.99-.42-1.17-.27-.9-1.2-.72-1.11.21.15,1.5.24,2.64.24,3.69,0,.84.75.63,1.08.24.18-.24.33-.18.51-.09a5.871,5.871,0,0,0,2.43.48,6.347,6.347,0,0,0,3.24-.87,4.558,4.558,0,0,0,2.4-3.99c0-1.83-1.41-2.79-2.79-3.36Zm14.73-2.07a4.367,4.367,0,0,1,3.39-1.65c1.98,0,3.42.87,3.42,3.93V-4.8c0,1.83-.03,2.43-.06,2.7-.06.66-.3.87-1.32,1.11-.96.21-.84,1.05.15,1.05C66.54.06,66.99,0,67.83,0c.75,0,1.68.06,2.31.06,1.14,0,1.05-.9.03-1.08-1.05-.21-1.23-.48-1.26-1.08-.03-.48-.03-.72-.03-1.05V-9.63c0-2.52-1.38-4.8-4.26-4.8a4.919,4.919,0,0,0-2.4.66,15.655,15.655,0,0,0-2.34,1.62c-.18.15-.24.09-.24-.03v-7.83a15.788,15.788,0,0,1,.24-3.54.438.438,0,0,0-.39-.57,2.171,2.171,0,0,0-1.02.39,7.834,7.834,0,0,1-2.82.9c-1.02.12-.81.96-.15,1.02,1.56.33,1.74.48,1.8,1.14.06.69.06,1.32.06,3.3V-5.52c0,1.53,0,2.1-.06,3.18-.06.99-.3,1.14-1.2,1.32-1.11.18-1.11,1.08,0,1.08.72,0,1.26-.06,2.4-.06,1.11,0,1.83.06,2.52.06.9,0,1.02-.9,0-1.08-1.2-.24-1.26-.48-1.32-1.29-.03-.36-.06-1.26-.06-2.82V-9.96C59.64-10.44,59.64-10.59,59.79-10.77ZM78.54-9.21c.33-2.64,1.74-3.72,3.33-3.72a3.5,3.5,0,0,1,3.57,3.45c0,.15-.03.27-.15.33a36.116,36.116,0,0,1-5.46.27,10.24,10.24,0,0,1-1.11-.06C78.57-8.97,78.54-9.03,78.54-9.21ZM78.45-7.5c5.73,0,7.26-.33,8.46-.66.54-.15,1.14-.54,1.14-1.08,0-.27-.15-.36-.33-.45a4.74,4.74,0,0,0-4.86-4.74,6.565,6.565,0,0,0-4.2,1.71,7.889,7.889,0,0,0-2.58,6c0,4.08,2.43,7.11,5.91,7.11a7.833,7.833,0,0,0,5.25-2.07c.75-.75.48-1.59-.45-1.02a5.8,5.8,0,0,1-3.36,1.08C80.52-1.62,78.51-3.51,78.45-7.5ZM97.98-8.7c-1.14-.45-2.04-.99-2.04-2.37,0-1.02.51-2.04,2.28-2.04a2.712,2.712,0,0,1,2.58,1.29,5.084,5.084,0,0,1,.51,1.53c.15.81,1.08.66,1.08-.33a22.2,22.2,0,0,1,.3-3.78c.09-.48-.45-.51-.81-.24-.18.12-.33.36-.54.51-.09.06-.12.09-.33.03a6.091,6.091,0,0,0-1.98-.33,5.824,5.824,0,0,0-3.6,1.14,3.862,3.862,0,0,0-1.65,3.12A3.883,3.883,0,0,0,96.6-6.66c.87.33,2.01.75,2.88,1.11a2.369,2.369,0,0,1,1.59,2.22q0,2.43-2.61,2.43a3.361,3.361,0,0,1-3.42-2.01c-.12-.33-.36-.99-.42-1.17-.27-.9-1.2-.72-1.11.21.15,1.5.24,2.64.24,3.69,0,.84.75.63,1.08.24.18-.24.33-.18.51-.09a5.871,5.871,0,0,0,2.43.48,6.347,6.347,0,0,0,3.24-.87,4.558,4.558,0,0,0,2.4-3.99c0-1.83-1.41-2.79-2.79-3.36Z" transform="translate(728 2055)" fill="#8d857b"/>
    <path id="path2461" d="M76.3,193.915a3.856,3.856,0,0,1-2.925-6.174,3.97,3.97,0,0,1,2.3-1.449,6.852,6.852,0,0,1,1.146-.089h.329l-.187.115a3.666,3.666,0,0,0-1,.928.406.406,0,0,1-.315.224,2.717,2.717,0,0,0-1.6,3.869,2.753,2.753,0,0,0,1.708,1.353l.195.057,18.262.007,18.262.007v1.169l-18.008,0C84.567,193.925,76.388,193.919,76.3,193.915Zm2.034-1.573a2.824,2.824,0,0,1-.879-.278,3.075,3.075,0,0,1,1.2-5.838c.164-.014,4.593-.023,10.73-.023H99.83l.06-.068a.186.186,0,0,0-.024-.27c-.051-.042-.822-.044-15.408-.044H69.1v-1.144H84.491c13.478,0,15.409,0,15.548.038a1.39,1.39,0,0,1,1.025,1.09,1.376,1.376,0,0,1-.917,1.495l-.165.059-10.781.013c-10.306.013-10.787.015-10.933.059a1.98,1.98,0,0,0-1.335,1.3,2.486,2.486,0,0,0-.052.917,1.981,1.981,0,0,0,1.375,1.515l.191.059,16.228.007,16.228.006v1.144l-16.177,0C81.53,192.376,78.508,192.37,78.332,192.343Zm2.5-1.538a1.407,1.407,0,0,1-.967-.748,1.361,1.361,0,0,1,.839-1.874c.085-.029,1.9-.037,10.882-.048,10.331-.013,10.787-.015,10.932-.06a1.989,1.989,0,0,0,1.219-.983,1.49,1.49,0,0,0,.2-.9,1.435,1.435,0,0,0-.066-.576,1.936,1.936,0,0,0-1.45-1.3c-.178-.037-1.795-.04-17.525-.04H67.576v-1.144l17.449.007c16.779.007,17.456.009,17.639.053a3.111,3.111,0,0,1,2.357,2.277,3.629,3.629,0,0,1,.06,1.165,2.986,2.986,0,0,1-.889,1.737,3.023,3.023,0,0,1-1.553.854c-.182.044-.706.046-10.923.059-8.715.011-10.74.02-10.772.046a.213.213,0,0,0,.047.333c.047.021,3.75.029,14.211.029h14.149v1.144l-14.207,0C87.331,190.826,80.892,190.816,80.836,190.8Zm22.986-1.619a3.907,3.907,0,0,0,1.052-.965.381.381,0,0,1,.3-.21,3.035,3.035,0,0,0,.891-.469,2.708,2.708,0,0,0-1-4.743l-.245-.068-19.407-.007L66,182.719v-1.144l19.445.007,19.445.007.254.059a3.875,3.875,0,0,1,3,4.581,4.093,4.093,0,0,1-1.07,1.937,4.05,4.05,0,0,1-1.9,1.024,5.291,5.291,0,0,1-1.086.09h-.419Zm-32-8.074c0-.032.017-.166.037-.3a2.648,2.648,0,0,1,1.5-2.036,2.53,2.53,0,0,1,.852-.249l.216-.024,2.225.442,6.14,1.22,3.916.778-.009.112-.009.112H71.823Zm15.093-.089a2.347,2.347,0,0,1,.682-1.47,2.387,2.387,0,0,1,1.171-.64,3.02,3.02,0,0,1,.9-.009,2.364,2.364,0,0,1,1.9,2.081l.016.184H86.9Zm4.867.035c0-.095.009-.114.057-.126.031-.008,2.769-.554,6.083-1.215,4.887-.974,6.059-1.2,6.2-1.2a2.7,2.7,0,0,1,2.154,1.321,2.784,2.784,0,0,1,.367,1.155l.018.172H91.782Zm-11.124-1.784c-4.939-.987-6.053-1.217-6.178-1.275a2.855,2.855,0,0,1-1.05-.888,2.7,2.7,0,0,1-.019-3.048,3.536,3.536,0,0,1,.712-.713,2.728,2.728,0,0,1,2.414-.306c.106.04,1.752,1.126,5.278,3.484,2.818,1.885,5.133,3.435,5.144,3.446a.772.772,0,0,1-.075.264c-.079.2-.106.244-.148.242S83.973,179.935,80.658,179.273Zm10.937.965a.772.772,0,0,1-.075-.264c.012-.011,2.327-1.562,5.144-3.448,5.7-3.815,5.239-3.528,5.83-3.614a2.7,2.7,0,0,1,2.491,1.048,2.662,2.662,0,0,1,.077,3.121,2.914,2.914,0,0,1-1.078.92c-.1.046-1.757.386-6.189,1.272-3.328.665-6.063,1.21-6.078,1.21A.835.835,0,0,1,91.595,180.237Zm-9.526-4.1c-5.565-3.721-5.25-3.5-5.512-3.9a3.18,3.18,0,0,1-.351-.829,3.551,3.551,0,0,1,.01-1.262,2.7,2.7,0,0,1,2.211-2.005,2.29,2.29,0,0,1,.8,0,2.765,2.765,0,0,1,1.274.553l.189.15L84.145,174c1.9,2.841,3.457,5.177,3.461,5.192a.9.9,0,0,1-.179.211l-.186.185Zm8.978,3.269a.9.9,0,0,1-.176-.209c.044-.106,6.905-10.341,6.98-10.411a2.759,2.759,0,0,1,2.083-.661,3.128,3.128,0,0,1,.888.251,2.746,2.746,0,0,1,1.476,1.952,3.063,3.063,0,0,1-.038,1.118,2.72,2.72,0,0,1-.621,1.145c-.125.128-1.147.822-5.254,3.565-2.8,1.873-5.11,3.412-5.125,3.421S91.148,179.506,91.046,179.4Zm-3.516-1.18L84.1,173.089c-1.621-2.423-2.969-4.458-3-4.522a2.12,2.12,0,0,1-.163-.964,1.917,1.917,0,0,1,.069-.681,2.7,2.7,0,0,1,1.888-1.914,3.091,3.091,0,0,1,1.192-.051,2.7,2.7,0,0,1,1.894,1.388l.1.191,1.21,6.087c.666,3.348,1.2,6.1,1.2,6.121a.055.055,0,0,1-.046.035,1.483,1.483,0,0,0-.231.087l-.2.087Zm2.9.718a1.977,1.977,0,0,0-.227-.1.91.91,0,0,1-.218-.108c0-.013.531-2.751,1.19-6.084.89-4.5,1.214-6.1,1.26-6.2a2.9,2.9,0,0,1,.9-1.057,2.6,2.6,0,0,1,1.522-.471,2.571,2.571,0,0,1,1.272.307,2.663,2.663,0,0,1,1.274,3.243c-.065.188-.417.724-3.485,5.315-1.877,2.808-3.426,5.121-3.442,5.139S90.437,178.95,90.428,178.941Zm-2.67-6.392-1.214-6.115.028-.238a2.7,2.7,0,0,1,2-2.319,3.265,3.265,0,0,1,1.2-.029,2.7,2.7,0,0,1,1.974,1.644,3.117,3.117,0,0,1,.188.839c0,.084-2.312,11.886-2.406,12.283-.011.047-.033.051-.284.051h-.272Z" transform="translate(605.155 1863.191)" fill="#b7a997"/>
  </g>
</svg>
