<svg xmlns="http://www.w3.org/2000/svg" width="151.765" height="30.127" viewBox="0 0 151.765 30.127">
  <g id="グループ_88" data-name="グループ 88" transform="translate(-671.155 -2026.997)">
    <path id="パス_25" data-name="パス 25" d="M9.42-2.91c-.33.42-.84.45-1.5.21a3.316,3.316,0,0,1-1.14-.69c-.39-.39-.33-.54,0-.81a29.309,29.309,0,0,1,4.29-2.55A9.651,9.651,0,0,1,9.42-2.91Zm3.81-11.28a26.315,26.315,0,0,0,3.69-1.08,1.176,1.176,0,0,0,.84-1.11c0-.57-.51-.81-1.05-.81-.63,0-1.32.18-1.98.24s-1.2,0-1.47-1.11a22.061,22.061,0,0,0-.24-3.36c-.15-.93-.39-1.11-.99-1.32a4.874,4.874,0,0,0-1.71-.27c-.6,0-1.44.66-1.44,1.08,0,.27.33.48.72.66.87.42,1.14.51,1.44,1.38a15.9,15.9,0,0,1,.63,4.23,25.038,25.038,0,0,1-3.72.33c-1.8-.09-2.7-.99-3.9-2.19-.6-.6-1.02-.36-1.02.33a4.259,4.259,0,0,0,1.95,3.24c.78.45,1.29.54,3.12.54a19.265,19.265,0,0,0,3.6-.45c0,.87-.03,1.62-.03,2.19-.03.99-.12,2.1-.27,3.24A56.854,56.854,0,0,0,5.82-5.67c-1.56.9-1.89,1.65-.57,2.88.87.81,1.56,1.38,2.16,1.89A3.312,3.312,0,0,0,9.27.03c.96,0,1.68-.84,2.37-2.46a20.362,20.362,0,0,0,1.17-5.1A16.7,16.7,0,0,1,19.8-9.27c1.92,0,3.45,1.05,3.45,2.76,0,1.68-1.05,3-3.33,3-1.92,0-3.12-.96-4.14-2.7-.42-.72-1.08-.51-.96.33a5.207,5.207,0,0,0,5.4,4.35c3.21,0,5.28-1.86,5.28-4.77,0-2.67-2.1-4.38-5.43-4.38a19.719,19.719,0,0,0-7.08,1.62c.09-1.11.15-2.16.18-3.09Zm14.04-1.23a6.939,6.939,0,0,0-6.57-.21c-.63.3-.48.96.18.93a6.932,6.932,0,0,1,5.37,1.74,1.193,1.193,0,0,0,2.01-.57C28.47-14.28,28.05-14.88,27.27-15.42Zm23.94-2.16c.57.93.99,1.65,1.77,1.56a1.3,1.3,0,0,0,1.2-1.53c-.15-1.44-1.98-2.46-3.75-2.88-.81-.18-1.05.42-.63.93A17.525,17.525,0,0,1,51.21-17.58Zm-.75,6.45c.6.93,1.05,1.65,1.83,1.53a1.25,1.25,0,0,0,1.11-1.53c-.18-1.44-1.98-2.43-3.78-2.85-.81-.15-1.05.48-.6.99A17.114,17.114,0,0,1,50.46-11.13Zm-6.24-4.98a18.6,18.6,0,0,0,2.25-3c.9.06,1.35-.09,1.35-.54.03-.54-1.62-1.5-2.7-1.8a.431.431,0,0,0-.54.42,22.869,22.869,0,0,1-1.32,4.35C42.93-15.9,43.56-15.57,44.22-16.11Zm-8.73-1.65c.3,1.05.48,1.86,1.23,2.01a1.243,1.243,0,0,0,1.47-1.14c.24-1.32-1.11-2.85-2.7-3.84-.69-.42-1.11.12-.84.75A14.1,14.1,0,0,1,35.49-17.76Zm6.39,5.13H46.8c.69,0,1.32-.24,1.32-.69,0-.69-1.77-2.55-2.4-2.55-.42,0-1.17,1.08-1.8,2.04H41.88c0-2.76.03-7.17.06-8.67.93-.21,1.53-.51,1.53-1.02,0-.72-1.56-.9-3.48-.9a.347.347,0,0,0-.39.42,79.679,79.679,0,0,1,.39,10.17H34.86c-.39,0-.66.15-.66.6,0,.48.27.6.66.6h4.65a27.2,27.2,0,0,1-5.76,9.72c-.69.78-.06,1.41.75.84a20.64,20.64,0,0,0,5.43-6c-.06,3.39-.21,8.19-.21,9.15a.821.821,0,0,0,.9.9c.96,0,1.38-.39,1.38-1.05,0-1.26-.12-10.53-.12-12.6Zm4.05,6a1.235,1.235,0,0,0,1.2-1.44c-.12-1.35-1.77-2.28-3.42-2.7-.78-.18-1.05.42-.63.93a20.107,20.107,0,0,1,1.2,1.74C44.82-7.26,45.18-6.57,45.93-6.63ZM57.78-7.5c0-1.74-.03-3.3-.03-4.02,0-1.14,0-8.46.09-10.5.93-.21,1.56-.57,1.56-1.08,0-.75-1.71-.93-3.69-.93a.376.376,0,0,0-.42.45c.48,2.94.39,11.22.39,12.48,0,.81-.03,2.28-.06,3.93l-9.93,1.5c-.39.06-.63.24-.57.69.06.48.36.54.72.48l9.75-1.44c-.09,2.97-.18,6.12-.18,6.9a.853.853,0,0,0,.96.9c.99,0,1.53-.39,1.53-1.05,0-.72-.06-4.02-.09-7.08l3.75-.57c.66-.09,1.2-.39,1.14-.84a4.477,4.477,0,0,0-2.61-2.1c-.39.06-.99,1.17-1.44,2.16Zm15.75-5.22H76.5c.63,0,1.23-.18,1.23-.63a4.464,4.464,0,0,0-2.22-2.34c-.39,0-1.05.9-1.62,1.77h-.36v-6.3a.88.88,0,0,0,.6-.51h2.4c.93,0,1.53-.24,1.53-.66,0-.72-2.01-2.49-2.61-2.49-.45,0-1.2,1.05-1.83,1.95H67.95c-.39,0-.66.15-.66.6,0,.48.27.6.66.6h3.57v6.81h-3.3c-.39,0-.66.15-.66.6,0,.48.27.6.66.6h3.3V-5.7c-1.35.39-2.79.78-4.32,1.14a.331.331,0,0,0-.33.42c.27,1.59.75,2.79,1.38,2.79.51,0,.78-.69.87-1.44A37.916,37.916,0,0,0,77.4-6.6c.99-.66.63-1.47-.48-1.02-.99.42-2.13.84-3.39,1.26Zm7.11,1.53-.03-4.29v-.09h3.87v4.38Zm5.82-9.57c.36-.12.57-.33.6-.57H90.6c.03.93.03,2.67,0,4.56H86.46Zm-1.98-.57v4.56H80.61c0-1.5.03-3.69.09-4.56Zm1.98,10.14v-4.38H90.6l-.03,4.38Zm0,10.56v-3.9h5.43c.87,0,1.44-.24,1.44-.66-.03-.69-1.92-2.43-2.49-2.43-.42,0-1.17.99-1.77,1.89H86.46V-9.99h4.08v.87c0,.48.21,1.02.9,1.02.78,0,1.26-.21,1.26-1.14,0-1.41-.15-9-.03-11.67.51-.21.99-.48.99-.87,0-.66-1.71-1.95-2.28-1.95-.33,0-.84.63-1.29,1.2H81.33a6.217,6.217,0,0,0-2.43-1.02.339.339,0,0,0-.42.36c.33,3.3.12,12.27.09,14.82,0,.54.27.84.78.84.87,0,1.29-.3,1.29-.96v-1.5h3.81v4.26H78.18c-.39,0-.66.15-.66.6,0,.48.27.6.66.6h6.27v3.9H74.7c-.39,0-.66.15-.66.6,0,.48.27.6.66.6H93.48c.93,0,1.44-.24,1.44-.66,0-.69-1.92-2.49-2.52-2.49-.42,0-1.2,1.02-1.8,1.95Z" transform="translate(728 2055)" fill="#8d857b"/>
    <path id="path2461" d="M76.3,193.915a3.856,3.856,0,0,1-2.925-6.174,3.97,3.97,0,0,1,2.3-1.449,6.852,6.852,0,0,1,1.146-.089h.329l-.187.115a3.666,3.666,0,0,0-1,.928.406.406,0,0,1-.315.224,2.717,2.717,0,0,0-1.6,3.869,2.753,2.753,0,0,0,1.708,1.353l.195.057,18.262.007,18.262.007v1.169l-18.008,0C84.567,193.925,76.388,193.919,76.3,193.915Zm2.034-1.573a2.824,2.824,0,0,1-.879-.278,3.075,3.075,0,0,1,1.2-5.838c.164-.014,4.593-.023,10.73-.023H99.83l.06-.068a.186.186,0,0,0-.024-.27c-.051-.042-.822-.044-15.408-.044H69.1v-1.144H84.491c13.478,0,15.409,0,15.548.038a1.39,1.39,0,0,1,1.025,1.09,1.376,1.376,0,0,1-.917,1.495l-.165.059-10.781.013c-10.306.013-10.787.015-10.933.059a1.98,1.98,0,0,0-1.335,1.3,2.486,2.486,0,0,0-.052.917,1.981,1.981,0,0,0,1.375,1.515l.191.059,16.228.007,16.228.006v1.144l-16.177,0C81.53,192.376,78.508,192.37,78.332,192.343Zm2.5-1.538a1.407,1.407,0,0,1-.967-.748,1.361,1.361,0,0,1,.839-1.874c.085-.029,1.9-.037,10.882-.048,10.331-.013,10.787-.015,10.932-.06a1.989,1.989,0,0,0,1.219-.983,1.49,1.49,0,0,0,.2-.9,1.435,1.435,0,0,0-.066-.576,1.936,1.936,0,0,0-1.45-1.3c-.178-.037-1.795-.04-17.525-.04H67.576v-1.144l17.449.007c16.779.007,17.456.009,17.639.053a3.111,3.111,0,0,1,2.357,2.277,3.629,3.629,0,0,1,.06,1.165,2.986,2.986,0,0,1-.889,1.737,3.023,3.023,0,0,1-1.553.854c-.182.044-.706.046-10.923.059-8.715.011-10.74.02-10.772.046a.213.213,0,0,0,.047.333c.047.021,3.75.029,14.211.029h14.149v1.144l-14.207,0C87.331,190.826,80.892,190.816,80.836,190.8Zm22.986-1.619a3.907,3.907,0,0,0,1.052-.965.381.381,0,0,1,.3-.21,3.035,3.035,0,0,0,.891-.469,2.708,2.708,0,0,0-1-4.743l-.245-.068-19.407-.007L66,182.719v-1.144l19.445.007,19.445.007.254.059a3.875,3.875,0,0,1,3,4.581,4.093,4.093,0,0,1-1.07,1.937,4.05,4.05,0,0,1-1.9,1.024,5.291,5.291,0,0,1-1.086.09h-.419Zm-32-8.074c0-.032.017-.166.037-.3a2.648,2.648,0,0,1,1.5-2.036,2.53,2.53,0,0,1,.852-.249l.216-.024,2.225.442,6.14,1.22,3.916.778-.009.112-.009.112H71.823Zm15.093-.089a2.347,2.347,0,0,1,.682-1.47,2.387,2.387,0,0,1,1.171-.64,3.02,3.02,0,0,1,.9-.009,2.364,2.364,0,0,1,1.9,2.081l.016.184H86.9Zm4.867.035c0-.095.009-.114.057-.126.031-.008,2.769-.554,6.083-1.215,4.887-.974,6.059-1.2,6.2-1.2a2.7,2.7,0,0,1,2.154,1.321,2.784,2.784,0,0,1,.367,1.155l.018.172H91.782Zm-11.124-1.784c-4.939-.987-6.053-1.217-6.178-1.275a2.855,2.855,0,0,1-1.05-.888,2.7,2.7,0,0,1-.019-3.048,3.536,3.536,0,0,1,.712-.713,2.728,2.728,0,0,1,2.414-.306c.106.04,1.752,1.126,5.278,3.484,2.818,1.885,5.133,3.435,5.144,3.446a.772.772,0,0,1-.075.264c-.079.2-.106.244-.148.242S83.973,179.935,80.658,179.273Zm10.937.965a.772.772,0,0,1-.075-.264c.012-.011,2.327-1.562,5.144-3.448,5.7-3.815,5.239-3.528,5.83-3.614a2.7,2.7,0,0,1,2.491,1.048,2.662,2.662,0,0,1,.077,3.121,2.914,2.914,0,0,1-1.078.92c-.1.046-1.757.386-6.189,1.272-3.328.665-6.063,1.21-6.078,1.21A.835.835,0,0,1,91.595,180.237Zm-9.526-4.1c-5.565-3.721-5.25-3.5-5.512-3.9a3.18,3.18,0,0,1-.351-.829,3.551,3.551,0,0,1,.01-1.262,2.7,2.7,0,0,1,2.211-2.005,2.29,2.29,0,0,1,.8,0,2.765,2.765,0,0,1,1.274.553l.189.15L84.145,174c1.9,2.841,3.457,5.177,3.461,5.192a.9.9,0,0,1-.179.211l-.186.185Zm8.978,3.269a.9.9,0,0,1-.176-.209c.044-.106,6.905-10.341,6.98-10.411a2.759,2.759,0,0,1,2.083-.661,3.128,3.128,0,0,1,.888.251,2.746,2.746,0,0,1,1.476,1.952,3.063,3.063,0,0,1-.038,1.118,2.72,2.72,0,0,1-.621,1.145c-.125.128-1.147.822-5.254,3.565-2.8,1.873-5.11,3.412-5.125,3.421S91.148,179.506,91.046,179.4Zm-3.516-1.18L84.1,173.089c-1.621-2.423-2.969-4.458-3-4.522a2.12,2.12,0,0,1-.163-.964,1.917,1.917,0,0,1,.069-.681,2.7,2.7,0,0,1,1.888-1.914,3.091,3.091,0,0,1,1.192-.051,2.7,2.7,0,0,1,1.894,1.388l.1.191,1.21,6.087c.666,3.348,1.2,6.1,1.2,6.121a.055.055,0,0,1-.046.035,1.483,1.483,0,0,0-.231.087l-.2.087Zm2.9.718a1.977,1.977,0,0,0-.227-.1.91.91,0,0,1-.218-.108c0-.013.531-2.751,1.19-6.084.89-4.5,1.214-6.1,1.26-6.2a2.9,2.9,0,0,1,.9-1.057,2.6,2.6,0,0,1,1.522-.471,2.571,2.571,0,0,1,1.272.307,2.663,2.663,0,0,1,1.274,3.243c-.065.188-.417.724-3.485,5.315-1.877,2.808-3.426,5.121-3.442,5.139S90.437,178.95,90.428,178.941Zm-2.67-6.392-1.214-6.115.028-.238a2.7,2.7,0,0,1,2-2.319,3.265,3.265,0,0,1,1.2-.029,2.7,2.7,0,0,1,1.974,1.644,3.117,3.117,0,0,1,.188.839c0,.084-2.312,11.886-2.406,12.283-.011.047-.033.051-.284.051h-.272Z" transform="translate(605.155 1863.191)" fill="#b7a997"/>
  </g>
</svg>
