<svg xmlns="http://www.w3.org/2000/svg" width="46.479" height="160.232" viewBox="0 0 46.479 160.232">
  <g id="グループ_89" data-name="グループ 89" transform="translate(-177.155 -3375.997)">
    <path id="パス_26" data-name="パス 26" d="M9.42-2.91c-.33.42-.84.45-1.5.21a3.316,3.316,0,0,1-1.14-.69c-.39-.39-.33-.54,0-.81a29.309,29.309,0,0,1,4.29-2.55A9.651,9.651,0,0,1,9.42-2.91Zm3.81-11.28a26.315,26.315,0,0,0,3.69-1.08,1.176,1.176,0,0,0,.84-1.11c0-.57-.51-.81-1.05-.81-.63,0-1.32.18-1.98.24s-1.2,0-1.47-1.11a22.061,22.061,0,0,0-.24-3.36c-.15-.93-.39-1.11-.99-1.32a4.874,4.874,0,0,0-1.71-.27c-.6,0-1.44.66-1.44,1.08,0,.27.33.48.72.66.87.42,1.14.51,1.44,1.38a15.9,15.9,0,0,1,.63,4.23,25.038,25.038,0,0,1-3.72.33c-1.8-.09-2.7-.99-3.9-2.19-.6-.6-1.02-.36-1.02.33a4.259,4.259,0,0,0,1.95,3.24c.78.45,1.29.54,3.12.54a19.265,19.265,0,0,0,3.6-.45c0,.87-.03,1.62-.03,2.19-.03.99-.12,2.1-.27,3.24A56.854,56.854,0,0,0,5.82-5.67c-1.56.9-1.89,1.65-.57,2.88.87.81,1.56,1.38,2.16,1.89A3.312,3.312,0,0,0,9.27.03c.96,0,1.68-.84,2.37-2.46a20.362,20.362,0,0,0,1.17-5.1A16.7,16.7,0,0,1,19.8-9.27c1.92,0,3.45,1.05,3.45,2.76,0,1.68-1.05,3-3.33,3-1.92,0-3.12-.96-4.14-2.7-.42-.72-1.08-.51-.96.33a5.207,5.207,0,0,0,5.4,4.35c3.21,0,5.28-1.86,5.28-4.77,0-2.67-2.1-4.38-5.43-4.38a19.719,19.719,0,0,0-7.08,1.62c.09-1.11.15-2.16.18-3.09Zm14.04-1.23a6.939,6.939,0,0,0-6.57-.21c-.63.3-.48.96.18.93a6.932,6.932,0,0,1,5.37,1.74,1.193,1.193,0,0,0,2.01-.57C28.47-14.28,28.05-14.88,27.27-15.42ZM16.17,25.32c.81,0,1.41-.24,1.41-.66,0-.69-1.89-2.52-2.49-2.52-.42,0-1.2,1.05-1.8,1.98H10.38v-2.1c.93-.21,1.59-.45,1.59-1.08,0-.81-2.91-.9-3.42-.9a.377.377,0,0,0-.42.45,34.392,34.392,0,0,1,.09,3.63H2.25c-.39,0-.66.15-.66.6,0,.48.27.6.66.6ZM4.35,27.48a15.62,15.62,0,0,1,.72,1.98c.24.93.42,1.71,1.2,1.86a1.275,1.275,0,0,0,1.62-1.11c.27-1.38-1.17-2.73-2.64-3.51C4.5,26.31,4.08,26.85,4.35,27.48ZM6.36,43.14V41.61c0-.57,0-2.52.06-3.39h6.42c0,1.17-.03,3.27-.03,4.92Zm.96-6.12a6.966,6.966,0,0,0-2.79-1.26.358.358,0,0,0-.42.39c.3,2.67.12,7.83.12,9.81a.728.728,0,0,0,.81.81c.87,0,1.35-.3,1.35-.93v-1.5h6.39v1.05c0,.48.21,1.02.9,1.02.81,0,1.29-.24,1.29-1.17-.03-.96-.09-4.83-.03-6.72.51-.21,1.02-.45,1.02-.84,0-.66-1.74-1.95-2.34-1.95-.33,0-.9.69-1.35,1.29Zm3.3-4.41a1.21,1.21,0,0,0,.51-.27,16.61,16.61,0,0,0,2.91-4.11c.9-.03,1.38-.21,1.32-.66-.03-.54-1.74-1.32-2.76-1.5-.3-.06-.48.15-.54.45a15.983,15.983,0,0,1-1.83,5.22c-.21.45-.09.81.21.87H1.41c-.39,0-.66.15-.66.6,0,.48.27.6.66.6H16.74c.75,0,1.38-.24,1.38-.69a4.654,4.654,0,0,0-2.43-2.52c-.42,0-1.2,1.05-1.83,2.01ZM21.81,22.38a7.648,7.648,0,0,0-2.94-1.26.407.407,0,0,0-.42.42c.48,4.5.12,20.97.12,24.69,0,.54.24.87.84.87.96,0,1.38-.36,1.38-1.05,0-1.23-.06-11.31-.06-12.36,0-1.2,0-8.04.15-10.08l.18-.03h4.65a41.777,41.777,0,0,1-2.46,6.84c-.42.84-.42,1.14.15,1.71a8.531,8.531,0,0,1,2.94,5.91c0,2.37-.27,3.45-1.59,3.45-.87,0-1.68-.09-2.07-.09-.69,0-.78.81-.03,1.05a2.367,2.367,0,0,1,1.44,1.08,1.057,1.057,0,0,0,.99.57c2.52,0,3.48-2.28,3.48-4.86,0-3.93-1.62-5.46-3.78-7.71-.33-.33-.36-.48-.15-.9.72-1.32,2.4-4.05,3.54-6.21.81-.27,1.35-.51,1.35-.96,0-.78-1.95-2.43-2.49-2.43-.39,0-1.02.66-1.56,1.35ZM7.56,68.13H23.4c0,.96-.03,2.49-.03,3.57H7.29c0-1.14,0-2.28-.03-3.48ZM23.34,72.9a.967.967,0,0,0,.36.78c-.42.12-1.08.99-1.62,1.77H8.58c-.39,0-.66.15-.66.6,0,.48.27.6.66.6H14.1a18.014,18.014,0,0,1-1.2,3.36c-1.29.03-2.67,0-4.14-.06-.24,0-.39.06-.39.33,0,1.65.3,2.7.9,2.79.48.09.81-.48,1.02-1.14a70.005,70.005,0,0,0,12.3-1.38,13.872,13.872,0,0,0,.84,1.29,1.125,1.125,0,0,0,1.26.57,1.211,1.211,0,0,0,.99-1.56c-.3-1.35-1.8-2.79-4.53-3.24-.6-.12-.84.45-.48.78.33.3.66.66.99,1.02a68.175,68.175,0,0,1-6.87.57q.63-.945,1.26-1.98c.66-.06,1.44-.27,1.44-.75,0-.21-.21-.42-.54-.6h7.86c1.08,0,1.56-.21,1.53-.63,0-.54-1.29-1.71-2.07-2.16.87,0,1.35-.21,1.35-1.14-.03-.78-.06-2.76-.03-4.2.54-.24,1.05-.51,1.05-.9,0-.66-1.8-1.98-2.43-1.98-.33,0-.93.69-1.38,1.29H7.53a8.8,8.8,0,0,0-2.28-1.02c-.39-.06-.57.09-.54.57.24,3.06.3,6.42.27,9.15-.06,7.08-1.2,10.8-4.05,14.58-.6.81.18,1.38.87.75,4.71-3.9,5.22-9.84,5.37-14.46.06-1.26.09-2.43.09-3.6ZM17.58,89.85V86.43h6.18c1.11,0,1.65-.27,1.65-.69,0-.72-2.16-2.52-2.76-2.52-.45,0-1.29,1.08-1.92,2.01H17.58V83.76c.81-.18,1.35-.39,1.35-.96,0-.72-2.67-.84-3.18-.84-.27,0-.45.15-.42.42.06.66.12,1.68.15,2.85H8.88c-.39,0-.66.15-.66.6,0,.48.27.6.66.6h6.6c.03,1.17.03,2.4,0,3.42H6.06c-.39,0-.66.15-.66.6,0,.48.27.6.66.6H26.85c1.11,0,1.68-.27,1.68-.72,0-.75-2.22-2.61-2.85-2.64-.48.03-1.32,1.2-1.98,2.16Z" transform="translate(185 3445)" fill="#8d857b"/>
    <path id="path2461" d="M76.3,193.915a3.856,3.856,0,0,1-2.925-6.174,3.97,3.97,0,0,1,2.3-1.449,6.852,6.852,0,0,1,1.146-.089h.329l-.187.115a3.666,3.666,0,0,0-1,.928.406.406,0,0,1-.315.224,2.717,2.717,0,0,0-1.6,3.869,2.753,2.753,0,0,0,1.708,1.353l.195.057,18.262.007,18.262.007v1.169l-18.008,0C84.567,193.925,76.388,193.919,76.3,193.915Zm2.034-1.573a2.824,2.824,0,0,1-.879-.278,3.075,3.075,0,0,1,1.2-5.838c.164-.014,4.593-.023,10.73-.023H99.83l.06-.068a.186.186,0,0,0-.024-.27c-.051-.042-.822-.044-15.408-.044H69.1v-1.144H84.491c13.478,0,15.409,0,15.548.038a1.39,1.39,0,0,1,1.025,1.09,1.376,1.376,0,0,1-.917,1.495l-.165.059-10.781.013c-10.306.013-10.787.015-10.933.059a1.98,1.98,0,0,0-1.335,1.3,2.486,2.486,0,0,0-.052.917,1.981,1.981,0,0,0,1.375,1.515l.191.059,16.228.007,16.228.006v1.144l-16.177,0C81.53,192.376,78.508,192.37,78.332,192.343Zm2.5-1.538a1.407,1.407,0,0,1-.967-.748,1.361,1.361,0,0,1,.839-1.874c.085-.029,1.9-.037,10.882-.048,10.331-.013,10.787-.015,10.932-.06a1.989,1.989,0,0,0,1.219-.983,1.49,1.49,0,0,0,.2-.9,1.435,1.435,0,0,0-.066-.576,1.936,1.936,0,0,0-1.45-1.3c-.178-.037-1.795-.04-17.525-.04H67.576v-1.144l17.449.007c16.779.007,17.456.009,17.639.053a3.111,3.111,0,0,1,2.357,2.277,3.629,3.629,0,0,1,.06,1.165,2.986,2.986,0,0,1-.889,1.737,3.023,3.023,0,0,1-1.553.854c-.182.044-.706.046-10.923.059-8.715.011-10.74.02-10.772.046a.213.213,0,0,0,.047.333c.047.021,3.75.029,14.211.029h14.149v1.144l-14.207,0C87.331,190.826,80.892,190.816,80.836,190.8Zm22.986-1.619a3.907,3.907,0,0,0,1.052-.965.381.381,0,0,1,.3-.21,3.035,3.035,0,0,0,.891-.469,2.708,2.708,0,0,0-1-4.743l-.245-.068-19.407-.007L66,182.719v-1.144l19.445.007,19.445.007.254.059a3.875,3.875,0,0,1,3,4.581,4.093,4.093,0,0,1-1.07,1.937,4.05,4.05,0,0,1-1.9,1.024,5.291,5.291,0,0,1-1.086.09h-.419Zm-32-8.074c0-.032.017-.166.037-.3a2.648,2.648,0,0,1,1.5-2.036,2.53,2.53,0,0,1,.852-.249l.216-.024,2.225.442,6.14,1.22,3.916.778-.009.112-.009.112H71.823Zm15.093-.089a2.347,2.347,0,0,1,.682-1.47,2.387,2.387,0,0,1,1.171-.64,3.02,3.02,0,0,1,.9-.009,2.364,2.364,0,0,1,1.9,2.081l.016.184H86.9Zm4.867.035c0-.095.009-.114.057-.126.031-.008,2.769-.554,6.083-1.215,4.887-.974,6.059-1.2,6.2-1.2a2.7,2.7,0,0,1,2.154,1.321,2.784,2.784,0,0,1,.367,1.155l.018.172H91.782Zm-11.124-1.784c-4.939-.987-6.053-1.217-6.178-1.275a2.855,2.855,0,0,1-1.05-.888,2.7,2.7,0,0,1-.019-3.048,3.536,3.536,0,0,1,.712-.713,2.728,2.728,0,0,1,2.414-.306c.106.04,1.752,1.126,5.278,3.484,2.818,1.885,5.133,3.435,5.144,3.446a.772.772,0,0,1-.075.264c-.079.2-.106.244-.148.242S83.973,179.935,80.658,179.273Zm10.937.965a.772.772,0,0,1-.075-.264c.012-.011,2.327-1.562,5.144-3.448,5.7-3.815,5.239-3.528,5.83-3.614a2.7,2.7,0,0,1,2.491,1.048,2.662,2.662,0,0,1,.077,3.121,2.914,2.914,0,0,1-1.078.92c-.1.046-1.757.386-6.189,1.272-3.328.665-6.063,1.21-6.078,1.21A.835.835,0,0,1,91.595,180.237Zm-9.526-4.1c-5.565-3.721-5.25-3.5-5.512-3.9a3.18,3.18,0,0,1-.351-.829,3.551,3.551,0,0,1,.01-1.262,2.7,2.7,0,0,1,2.211-2.005,2.29,2.29,0,0,1,.8,0,2.765,2.765,0,0,1,1.274.553l.189.15L84.145,174c1.9,2.841,3.457,5.177,3.461,5.192a.9.9,0,0,1-.179.211l-.186.185Zm8.978,3.269a.9.9,0,0,1-.176-.209c.044-.106,6.905-10.341,6.98-10.411a2.759,2.759,0,0,1,2.083-.661,3.128,3.128,0,0,1,.888.251,2.746,2.746,0,0,1,1.476,1.952,3.063,3.063,0,0,1-.038,1.118,2.72,2.72,0,0,1-.621,1.145c-.125.128-1.147.822-5.254,3.565-2.8,1.873-5.11,3.412-5.125,3.421S91.148,179.506,91.046,179.4Zm-3.516-1.18L84.1,173.089c-1.621-2.423-2.969-4.458-3-4.522a2.12,2.12,0,0,1-.163-.964,1.917,1.917,0,0,1,.069-.681,2.7,2.7,0,0,1,1.888-1.914,3.091,3.091,0,0,1,1.192-.051,2.7,2.7,0,0,1,1.894,1.388l.1.191,1.21,6.087c.666,3.348,1.2,6.1,1.2,6.121a.055.055,0,0,1-.046.035,1.483,1.483,0,0,0-.231.087l-.2.087Zm2.9.718a1.977,1.977,0,0,0-.227-.1.91.91,0,0,1-.218-.108c0-.013.531-2.751,1.19-6.084.89-4.5,1.214-6.1,1.26-6.2a2.9,2.9,0,0,1,.9-1.057,2.6,2.6,0,0,1,1.522-.471,2.571,2.571,0,0,1,1.272.307,2.663,2.663,0,0,1,1.274,3.243c-.065.188-.417.724-3.485,5.315-1.877,2.808-3.426,5.121-3.442,5.139S90.437,178.95,90.428,178.941Zm-2.67-6.392-1.214-6.115.028-.238a2.7,2.7,0,0,1,2-2.319,3.265,3.265,0,0,1,1.2-.029,2.7,2.7,0,0,1,1.974,1.644,3.117,3.117,0,0,1,.188.839c0,.084-2.312,11.886-2.406,12.283-.011.047-.033.051-.284.051h-.272Z" transform="translate(111.155 3212.191)" fill="#b7a997"/>
  </g>
</svg>
