<svg xmlns="http://www.w3.org/2000/svg" width="46.479" height="155.223" viewBox="0 0 46.479 155.223">
  <g id="グループ_95" data-name="グループ 95" transform="translate(-177.155 -3375.997)">
    <path id="パス_35" data-name="パス 35" d="M10.41-9c.27-.03.39.03.57.33,1.32,2.04,2.43,3.84,3.75,5.7C16.5-.3,17.28-.06,18.39.09A15.1,15.1,0,0,0,21.24.06c1.14-.09,1.2-1.02.09-1.11a6.8,6.8,0,0,1-1.41-.27c-.66-.21-1.2-.75-2.1-1.89-1.77-2.19-3.21-4.32-4.65-6.45,3.27-1.35,4.44-3.72,4.44-5.73,0-1.86-.93-5.4-7.14-5.4-2.31,0-3.75.09-5.25.09-.72,0-2.07-.06-2.67-.06-1.14,0-1.17.93-.03,1.08,1.62.24,2.04.54,2.1,1.32s.09,1.32.09,3.54v8.88c0,1.86,0,2.67-.06,3.45-.06.87-.15,1.2-2.13,1.47C1.44-.9,1.41.06,2.64.06,3.63.06,4.62,0,5.97,0c1.5,0,2.55.06,3.45.06,1.11,0,1.14-.93.09-1.08-1.98-.27-2.16-.63-2.22-1.62-.03-.39-.06-1.41-.06-2.94v-3.3C8.28-8.88,9.48-8.91,10.41-9ZM7.23-10.8v-4.17c0-3.3-.03-3.87.12-4.14.18-.24,1.02-.39,2.25-.39,3.81,0,5.22,2.4,5.22,5.01,0,3.63-2.4,4.17-5.16,4.17a9.106,9.106,0,0,1-2.22-.18C7.26-10.56,7.23-10.62,7.23-10.8Zm26.34-3.63a8.169,8.169,0,0,0-5.31,2.04,7.149,7.149,0,0,0-2.55,5.85c0,3.6,2.37,7.08,6.36,7.08A8.028,8.028,0,0,0,38.1-2.34a7.877,7.877,0,0,0,1.77-5.37A6.511,6.511,0,0,0,33.57-14.43Zm3.78,7.86c0,3.42-1.62,5.64-4.02,5.64-3.72,0-5.13-3.36-5.13-6.57,0-2.13.72-5.4,4.08-5.4C36.03-12.9,37.35-9.24,37.35-6.57Zm16.17-7.86a8.169,8.169,0,0,0-5.31,2.04,7.149,7.149,0,0,0-2.55,5.85c0,3.6,2.37,7.08,6.36,7.08a8.028,8.028,0,0,0,6.03-2.88,7.877,7.877,0,0,0,1.77-5.37A6.511,6.511,0,0,0,53.52-14.43ZM57.3-6.57c0,3.42-1.62,5.64-4.02,5.64-3.72,0-5.13-3.36-5.13-6.57,0-2.13.72-5.4,4.08-5.4C55.98-12.9,57.3-9.24,57.3-6.57Zm20.67-5.4a3.686,3.686,0,0,0-3.48-2.46,4.383,4.383,0,0,0-2.76.87c-1.14.84-1.98,1.44-2.31,1.71a15.579,15.579,0,0,0-.15-2.07c-.06-.3-.24-.51-.45-.51a1.173,1.173,0,0,0-.66.3,13.147,13.147,0,0,1-2.52,1.29.461.461,0,0,0,0,.9c1.23.36,1.41.69,1.44,1.02a8.761,8.761,0,0,1,.09,1.65v4.41a21.6,21.6,0,0,1-.06,2.64c-.12.84-.27.93-1.59,1.23-.81.15-.78,1.05.09,1.05.75,0,1.8-.06,2.64-.06.81,0,2.28.06,2.82.06.87,0,.93-.93.18-1.05-1.5-.3-1.68-.54-1.74-1.35-.03-.33-.09-1.08-.09-2.22v-5.55c0-.24,0-.36.15-.51a4.419,4.419,0,0,1,3.36-1.77c2.04,0,3.3.96,3.3,4.2V-4.2c0,1.17-.03,1.8-.06,2.1-.06.57-.15.78-1.59,1.08-.93.15-.81,1.08.09,1.08.6,0,1.68-.06,2.49-.06s2.28.06,2.73.06c.87,0,.96-.84.06-1.05-1.38-.33-1.47-.45-1.47-1.65V-9.51a5.416,5.416,0,0,0-.15-1.35c0-.06.06-.12.12-.24a4.625,4.625,0,0,1,3.18-1.29c1.95,0,3.27.96,3.27,4.02v3.36a22.975,22.975,0,0,1-.12,3.12c-.06.33-.3.63-1.62.9-.87.15-.78,1.05.06,1.05C83.76.06,85.5,0,86.1,0c1.14,0,1.89.06,2.55.06.87,0,.96-.84.12-1.05-1.26-.3-1.44-.33-1.53-.93a17.2,17.2,0,0,1-.06-1.92V-9.51c0-2.58-1.41-4.92-4.17-4.92a4.927,4.927,0,0,0-2.61.72C79.59-13.17,78.54-12.45,77.97-11.97ZM98.79-8.7c-1.14-.45-2.04-.99-2.04-2.37,0-1.02.51-2.04,2.28-2.04a2.712,2.712,0,0,1,2.58,1.29,5.084,5.084,0,0,1,.51,1.53c.15.81,1.08.66,1.08-.33a22.2,22.2,0,0,1,.3-3.78c.09-.48-.45-.51-.81-.24-.18.12-.33.36-.54.51-.09.06-.12.09-.33.03a6.091,6.091,0,0,0-1.98-.33,5.824,5.824,0,0,0-3.6,1.14,3.862,3.862,0,0,0-1.65,3.12,3.883,3.883,0,0,0,2.82,3.51c.87.33,2.01.75,2.88,1.11a2.369,2.369,0,0,1,1.59,2.22q0,2.43-2.61,2.43a3.361,3.361,0,0,1-3.42-2.01c-.12-.33-.36-.99-.42-1.17-.27-.9-1.2-.72-1.11.21.15,1.5.24,2.64.24,3.69,0,.84.75.63,1.08.24.18-.24.33-.18.51-.09a5.871,5.871,0,0,0,2.43.48,6.347,6.347,0,0,0,3.24-.87,4.558,4.558,0,0,0,2.4-3.99c0-1.83-1.41-2.79-2.79-3.36Z" transform="translate(190 3427) rotate(90)" fill="#8d857b"/>
    <path id="path2461" d="M76.3,193.915a3.856,3.856,0,0,1-2.925-6.174,3.97,3.97,0,0,1,2.3-1.449,6.852,6.852,0,0,1,1.146-.089h.329l-.187.115a3.666,3.666,0,0,0-1,.928.406.406,0,0,1-.315.224,2.717,2.717,0,0,0-1.6,3.869,2.753,2.753,0,0,0,1.708,1.353l.195.057,18.262.007,18.262.007v1.169l-18.008,0C84.567,193.925,76.388,193.919,76.3,193.915Zm2.034-1.573a2.824,2.824,0,0,1-.879-.278,3.075,3.075,0,0,1,1.2-5.838c.164-.014,4.593-.023,10.73-.023H99.83l.06-.068a.186.186,0,0,0-.024-.27c-.051-.042-.822-.044-15.408-.044H69.1v-1.144H84.491c13.478,0,15.409,0,15.548.038a1.39,1.39,0,0,1,1.025,1.09,1.376,1.376,0,0,1-.917,1.495l-.165.059-10.781.013c-10.306.013-10.787.015-10.933.059a1.98,1.98,0,0,0-1.335,1.3,2.486,2.486,0,0,0-.052.917,1.981,1.981,0,0,0,1.375,1.515l.191.059,16.228.007,16.228.006v1.144l-16.177,0C81.53,192.376,78.508,192.37,78.332,192.343Zm2.5-1.538a1.407,1.407,0,0,1-.967-.748,1.361,1.361,0,0,1,.839-1.874c.085-.029,1.9-.037,10.882-.048,10.331-.013,10.787-.015,10.932-.06a1.989,1.989,0,0,0,1.219-.983,1.49,1.49,0,0,0,.2-.9,1.435,1.435,0,0,0-.066-.576,1.936,1.936,0,0,0-1.45-1.3c-.178-.037-1.795-.04-17.525-.04H67.576v-1.144l17.449.007c16.779.007,17.456.009,17.639.053a3.111,3.111,0,0,1,2.357,2.277,3.629,3.629,0,0,1,.06,1.165,2.986,2.986,0,0,1-.889,1.737,3.023,3.023,0,0,1-1.553.854c-.182.044-.706.046-10.923.059-8.715.011-10.74.02-10.772.046a.213.213,0,0,0,.047.333c.047.021,3.75.029,14.211.029h14.149v1.144l-14.207,0C87.331,190.826,80.892,190.816,80.836,190.8Zm22.986-1.619a3.907,3.907,0,0,0,1.052-.965.381.381,0,0,1,.3-.21,3.035,3.035,0,0,0,.891-.469,2.708,2.708,0,0,0-1-4.743l-.245-.068-19.407-.007L66,182.719v-1.144l19.445.007,19.445.007.254.059a3.875,3.875,0,0,1,3,4.581,4.093,4.093,0,0,1-1.07,1.937,4.05,4.05,0,0,1-1.9,1.024,5.291,5.291,0,0,1-1.086.09h-.419Zm-32-8.074c0-.032.017-.166.037-.3a2.648,2.648,0,0,1,1.5-2.036,2.53,2.53,0,0,1,.852-.249l.216-.024,2.225.442,6.14,1.22,3.916.778-.009.112-.009.112H71.823Zm15.093-.089a2.347,2.347,0,0,1,.682-1.47,2.387,2.387,0,0,1,1.171-.64,3.02,3.02,0,0,1,.9-.009,2.364,2.364,0,0,1,1.9,2.081l.016.184H86.9Zm4.867.035c0-.095.009-.114.057-.126.031-.008,2.769-.554,6.083-1.215,4.887-.974,6.059-1.2,6.2-1.2a2.7,2.7,0,0,1,2.154,1.321,2.784,2.784,0,0,1,.367,1.155l.018.172H91.782Zm-11.124-1.784c-4.939-.987-6.053-1.217-6.178-1.275a2.855,2.855,0,0,1-1.05-.888,2.7,2.7,0,0,1-.019-3.048,3.536,3.536,0,0,1,.712-.713,2.728,2.728,0,0,1,2.414-.306c.106.04,1.752,1.126,5.278,3.484,2.818,1.885,5.133,3.435,5.144,3.446a.772.772,0,0,1-.075.264c-.079.2-.106.244-.148.242S83.973,179.935,80.658,179.273Zm10.937.965a.772.772,0,0,1-.075-.264c.012-.011,2.327-1.562,5.144-3.448,5.7-3.815,5.239-3.528,5.83-3.614a2.7,2.7,0,0,1,2.491,1.048,2.662,2.662,0,0,1,.077,3.121,2.914,2.914,0,0,1-1.078.92c-.1.046-1.757.386-6.189,1.272-3.328.665-6.063,1.21-6.078,1.21A.835.835,0,0,1,91.595,180.237Zm-9.526-4.1c-5.565-3.721-5.25-3.5-5.512-3.9a3.18,3.18,0,0,1-.351-.829,3.551,3.551,0,0,1,.01-1.262,2.7,2.7,0,0,1,2.211-2.005,2.29,2.29,0,0,1,.8,0,2.765,2.765,0,0,1,1.274.553l.189.15L84.145,174c1.9,2.841,3.457,5.177,3.461,5.192a.9.9,0,0,1-.179.211l-.186.185Zm8.978,3.269a.9.9,0,0,1-.176-.209c.044-.106,6.905-10.341,6.98-10.411a2.759,2.759,0,0,1,2.083-.661,3.128,3.128,0,0,1,.888.251,2.746,2.746,0,0,1,1.476,1.952,3.063,3.063,0,0,1-.038,1.118,2.72,2.72,0,0,1-.621,1.145c-.125.128-1.147.822-5.254,3.565-2.8,1.873-5.11,3.412-5.125,3.421S91.148,179.506,91.046,179.4Zm-3.516-1.18L84.1,173.089c-1.621-2.423-2.969-4.458-3-4.522a2.12,2.12,0,0,1-.163-.964,1.917,1.917,0,0,1,.069-.681,2.7,2.7,0,0,1,1.888-1.914,3.091,3.091,0,0,1,1.192-.051,2.7,2.7,0,0,1,1.894,1.388l.1.191,1.21,6.087c.666,3.348,1.2,6.1,1.2,6.121a.055.055,0,0,1-.046.035,1.483,1.483,0,0,0-.231.087l-.2.087Zm2.9.718a1.977,1.977,0,0,0-.227-.1.91.91,0,0,1-.218-.108c0-.013.531-2.751,1.19-6.084.89-4.5,1.214-6.1,1.26-6.2a2.9,2.9,0,0,1,.9-1.057,2.6,2.6,0,0,1,1.522-.471,2.571,2.571,0,0,1,1.272.307,2.663,2.663,0,0,1,1.274,3.243c-.065.188-.417.724-3.485,5.315-1.877,2.808-3.426,5.121-3.442,5.139S90.437,178.95,90.428,178.941Zm-2.67-6.392-1.214-6.115.028-.238a2.7,2.7,0,0,1,2-2.319,3.265,3.265,0,0,1,1.2-.029,2.7,2.7,0,0,1,1.974,1.644,3.117,3.117,0,0,1,.188.839c0,.084-2.312,11.886-2.406,12.283-.011.047-.033.051-.284.051h-.272Z" transform="translate(111.155 3212.191)" fill="#b7a997"/>
  </g>
</svg>
