<svg xmlns="http://www.w3.org/2000/svg" width="28.842" height="250.95" viewBox="0 0 28.842 250.95">
  <path id="パス_27" data-name="パス 27" d="M15.99-13.05v-3.18h5.43c1.02,0,1.5-.21,1.5-.63,0-.66-1.98-2.31-2.52-2.31-.39,0-1.11.93-1.68,1.74H15.99v-1.86c.93-.21,1.59-.45,1.59-1.05,0-.78-2.82-.87-3.33-.87-.27,0-.45.15-.42.42.09.75.15,1.98.18,3.36H8.55c-.39,0-.66.15-.66.6,0,.48.27.6.66.6h5.46c.03,1.11.03,2.22,0,3.18H8.04c-.39,0-.66.15-.66.6,0,.48.27.6.66.6H22.08c1.05,0,1.53-.21,1.53-.63,0-.66-1.98-2.31-2.55-2.31-.39,0-1.08.93-1.65,1.74ZM12-4.2v-.72c0-.51,0-2.22.03-2.91h6.33c0,.93-.03,2.43-.03,3.63Zm.75-4.83a6.6,6.6,0,0,0-2.55-1.11.37.37,0,0,0-.45.39c.27,2.49.12,6.63.12,8.43a.728.728,0,0,0,.81.81c.87,0,1.32-.27,1.32-.93V-3h6.3v.63c0,.48.21,1.02.9,1.02.81,0,1.26-.21,1.26-1.14,0-.78-.06-3.45,0-4.98.51-.21.99-.45.99-.84,0-.66-1.71-1.95-2.31-1.95-.33,0-.87.66-1.29,1.23ZM6.99-23.16a9.822,9.822,0,0,0-2.4-1.08c-.24-.03-.48.06-.45.39a64.526,64.526,0,0,1,.42,9.78C4.44-6.63,3.54-2.88.9,1.29c-.54.87.27,1.26.9.66C6.06-2.49,6.63-8.58,6.72-13.44c.06-2.67.12-5.82.03-8.46l.21-.06H24.63v10.5c0,3.03.09,7.41-.06,9.48-.06.93-.39,1.2-1.2,1.2-.66,0-1.89-.15-2.16-.15a.482.482,0,0,0-.06.96c2.16.57,1.5,1.86,2.61,1.86a2.765,2.765,0,0,0,2.91-2.7c0-6.66-.03-15.24.12-20.34.66-.27,1.29-.6,1.29-.99,0-.57-2.01-2.28-2.76-2.28-.21,0-.84.66-1.32,1.26ZM16.2,24a25.154,25.154,0,0,1-1.68,11.31,17.4,17.4,0,0,1-4.89,5.67c-.63.54-.09,1.26.66.84a15.363,15.363,0,0,0,6-5.91c1.56-2.97,2.07-7.14,2.25-10.83.87-.21,1.2-.48,1.2-.87a.272.272,0,0,0-.09-.21h5.16c.21,4.38,0,11.28-1.29,13.95a2.189,2.189,0,0,1-2.28,1.44,18.491,18.491,0,0,1-2.79-.3c-.39-.03-.57.15-.63.36-.06.24,0,.51.45.69a2.313,2.313,0,0,1,1.41.96,1.344,1.344,0,0,0,1.29.81,4.388,4.388,0,0,0,4.53-2.88c1.41-3.06,1.59-10.29,1.53-14.28.6-.3,1.05-.72,1.05-1.05,0-.54-1.92-1.92-2.58-1.92-.27,0-.75.51-1.14,1.02H9.99c-.39,0-.66.15-.66.6,0,.48.27.6.66.6Zm-11.37.75c.63,1.02.96,1.89,1.8,1.83a1.318,1.318,0,0,0,1.26-1.56C7.8,23.46,6,22.23,4.05,21.63c-.87-.27-1.2.42-.72,1.02A23.582,23.582,0,0,1,4.83,24.75ZM2.01,33.03c-.39,0-.66.15-.66.6,0,.48.27.6.66.6H6.15c0,1.65-.03,5.61-.06,7.32A29.413,29.413,0,0,1,1.5,44.16c-.51.24-.54.39-.39.81a6.746,6.746,0,0,0,.9,1.8c.39.51.81.51,1.23-.42,1.23-1.26,2.7-2.7,3.99-4.08h.06a6.493,6.493,0,0,0,5.25,3.72,76.359,76.359,0,0,0,14.13.42c.66-.03.81-.18,1.05-.66.24-.45.33-.72.87-.84.75-.18.78-1.14-.09-1.05a93.861,93.861,0,0,1-15.03.15c-2.97-.33-4.26-1.02-5.34-2.61-.03-1.86,0-5.13.03-6.6.54-.21,1.11-.57,1.11-.99,0-.66-1.74-1.98-2.34-1.98-.33,0-.87.63-1.29,1.2ZM16.62,74.34c-1.41,4.02-5.73,9.87-8.61,9.87-.87,0-1.68-1.41-1.83-3.72a7.937,7.937,0,0,1,2.37-6.6,8.634,8.634,0,0,1,6.09-2.22,13.309,13.309,0,0,1,2.52.24A9.366,9.366,0,0,1,16.62,74.34Zm-1.89-4.17a11.43,11.43,0,0,0-7.35,2.67,9.783,9.783,0,0,0-3.15,8.34c.27,3.54,1.83,5.73,3.42,5.73,3.6,0,8.61-5.97,10.35-10.77a14.467,14.467,0,0,0,.84-3.69,7.392,7.392,0,0,1,4.65,7.14c0,4.92-3.36,7.11-8.55,8.13-.93.18-.87,1.11.18,1.11,6.18,0,10.8-2.97,10.8-8.73C25.92,74.7,21.9,70.17,14.73,70.17Zm10.35,43.11c.03.69.03,1.89,0,3.33H18.96c.03-1.32.06-2.67.09-3.33Zm-6.12,6.6v-2.07h6.12v3.3H18.96Zm.03,5.91-.03-3.48h6.09l-.03,3.48ZM6.27,130.53H9.18v2.58H6.3Zm.03-4.77c0-.99.03-1.95.06-2.43.09-.03.21-.03.27-.06H9.18v2.49Zm2.88,3.57H6.27v-2.37H9.18Zm9.81-1.29v-1.05h6.03v.39c0,.48.21,1.02.9,1.02.81,0,1.29-.24,1.29-1.17,0-1.56-.18-10.44-.06-13.44.51-.21,1.02-.48,1.02-.87,0-.66-1.74-1.95-2.31-1.95-.3,0-.81.57-1.2,1.11H19.8a7.117,7.117,0,0,0-2.58-1.11.37.37,0,0,0-.45.39c.39,3.51.12,13.86.12,16.65a.738.738,0,0,0,.81.84,1.539,1.539,0,0,0,.9-.21,9.023,9.023,0,0,1-1.89,4.32,5.113,5.113,0,0,1-.57.57,4.658,4.658,0,0,0-2.22-1.95c-.36,0-.96.78-1.47,1.53H11.01v-2.58h3.45c.93,0,1.32-.15,1.29-.54,0-.54-1.68-1.95-2.13-1.95-.3,0-.84.66-1.29,1.29H11.01v-2.37H14.4c.9,0,1.29-.15,1.29-.54-.03-.54-1.68-1.95-2.16-1.95-.3,0-.84.66-1.29,1.29H11.01v-1.89c.39-.12.6-.33.63-.6h3.27c.9,0,1.32-.15,1.29-.54,0-.57-1.68-1.98-2.16-1.98-.3,0-.84.66-1.32,1.32H10.65c.3-.39.57-.75.9-1.26.57,0,1.11-.15,1.14-.48.06-.54-1.08-1.17-2.28-1.35-.33-.03-.54.15-.54.39a14.271,14.271,0,0,1-.69,2.7H6.72c-.09-.06-.21-.12-.3-.18a25.113,25.113,0,0,0,1.68-3h7.26c1.02,0,1.47-.21,1.47-.6,0-.66-1.95-2.25-2.46-2.25-.39,0-1.08.87-1.62,1.65H8.61c.33-.78.6-1.53.84-2.28.87.06,1.41-.15,1.41-.57a.633.633,0,0,0-.21-.39h4.29c.99,0,1.47-.21,1.47-.6-.03-.66-1.95-2.25-2.46-2.25-.39,0-1.05.87-1.59,1.65H6.42c.27-.48.51-.93.72-1.32.93-.03,1.26-.21,1.26-.6.03-.48-1.35-1.17-2.4-1.41q-.54-.09-.63.36a15.865,15.865,0,0,1-3,6.27c-.45.72.12,1.17.81.69a12.793,12.793,0,0,0,2.52-2.79H7.53a25.556,25.556,0,0,1-.99,3.24H1.8c-.39,0-.66.15-.66.6,0,.48.27.6.66.6H6.03a23.462,23.462,0,0,1-5.19,7.2c-.57.63.06,1.2.72.72a19.5,19.5,0,0,0,2.73-2.34c.09,3.15-.03,10.44-.06,11.58,0,.54.27.84.78.84.87,0,1.29-.3,1.29-.96v-1.62h8.94a15.556,15.556,0,0,1-3.42,1.8c-.81.36-.48,1.26.27,1.02a11.469,11.469,0,0,0,6.12-3.21,10.528,10.528,0,0,0,2.28-4.29c.72-.09,1.08-.27,1.08-.66.03-.54-1.41-.9-2.46-.93Zm9.54,4.32c0-.72-.75-.81-.96-.15a9,9,0,0,1-.6,1.86c-.24.45-.72.66-1.62.66-1.23,0-1.38-.12-1.38-1.02,0-.99,0-3.42.03-4.8.6-.09.9-.27.9-.57,0-.54-1.8-.84-2.43-.84-.42,0-.54.12-.51.54.15,1.86.06,5.34.06,6.27,0,1.92.63,2.22,3.33,2.22,2.4,0,3.69-.51,3.69-1.44C29.04,134.37,28.5,134.55,28.53,132.36Zm-9,32.37a20.736,20.736,0,0,0,4.44-4.59c.9.06,1.44-.09,1.44-.54,0-.57-1.95-1.62-3.03-1.92-.33-.09-.45.09-.54.39a19.7,19.7,0,0,1-3.21,5.97C18.18,164.76,18.81,165.27,19.53,164.73ZM6.6,162c.57,1.32.84,2.31,1.77,2.37a1.417,1.417,0,0,0,1.56-1.5c.09-1.86-1.92-3.69-3.99-4.53-.84-.33-1.23.27-.87.93A22.726,22.726,0,0,1,6.6,162Zm20.31,6.36c1.23,0,1.74-.3,1.74-.72,0-.78-2.28-2.64-2.91-2.64-.48,0-1.38,1.17-2.04,2.16H15.87V157.14c.93-.21,1.59-.45,1.59-1.11,0-.78-3.03-.87-3.54-.87-.27,0-.45.15-.42.42.27,2.01.33,7.74.27,11.58H1.95c-.39,0-.66.15-.66.6,0,.48.27.6.66.6Zm-15.9.66c-.42,0-.48.21-.48.51.33,6.63-2.67,9.66-8.64,11.49-1.02.33-.84,1.26.24,1.05,7.02-1.32,10.5-4.68,10.68-11.28,1.05-.18,1.38-.48,1.38-.87C14.19,169.32,12,169.02,11.01,169.02Zm17.34,7.47c0-.72-.78-.81-.96-.09a12.38,12.38,0,0,1-.75,2.25c-.42.81-1.35,1.11-4.32,1.11-3.3,0-3.39-.24-3.42-1.44-.03-1.62,0-5.31.09-7.68.84-.15,1.23-.36,1.23-.78,0-.66-2.01-.87-2.94-.87-.42,0-.54.12-.51.54.21,2.97.06,8.25.06,9.18,0,2.64.57,3.06,5.55,3.06,5.04,0,6.48-.84,6.48-1.65C28.86,179.19,28.32,179.61,28.35,176.49ZM7.98,210.09h3.51c.6,0,1.26-.21,1.26-.66a4.65,4.65,0,0,0-2.31-2.52c-.42.03-1.14,1.02-1.74,1.98H7.98v-6c.93-.21,1.59-.45,1.59-1.11,0-.78-2.97-.87-3.48-.87-.27,0-.45.15-.42.42.15,1.17.21,4.17.24,7.56H2.22c-.39,0-.66.15-.66.6,0,.48.27.6.66.6H5.94c0,3.9-.03,8.04-.06,10.41-1.47.51-3.06.99-4.8,1.41a.368.368,0,0,0-.33.45c.24,1.59.78,2.85,1.41,2.85.51,0,.78-.72.87-1.47A38.045,38.045,0,0,0,12,219.21c1.02-.72.63-1.53-.51-1.02q-1.575.765-3.51,1.53Zm11.34.39v1.11c0,1.92-.27,9.09-.27,10.29a.813.813,0,0,0,.9.87c.96,0,1.44-.33,1.44-1.02,0-1.08-.12-8.79-.12-10.65v-1.41l4.2-1.8a52.519,52.519,0,0,1-.24,8.61c-.12.81-.45,1.23-1.23,1.26a12.51,12.51,0,0,1-1.56-.15c-.54-.03-.69.54-.12.81.57.24.84.51.9.93a.844.844,0,0,0,.96.78,3.14,3.14,0,0,0,3.18-2.94,77.009,77.009,0,0,0,.21-9.21c.54-.27.9-.54.9-.87,0-.51-1.65-1.92-2.43-1.92-.45.03-1.02.96-1.38,1.74l-3.39,1.44c0-2.28.03-5.25.06-6.39.93-.18,1.56-.51,1.56-1.02,0-.78-1.71-.93-3.54-.93-.27,0-.45.15-.39.42a75.419,75.419,0,0,1,.36,8.76l-3.84,1.62c.03-2.79.03-5.16.06-5.7.75-.09,1.53-.42,1.5-1.02,0-.66-1.32-.93-3.36-.93-.51,0-.6.12-.54.54.18,1.2.24,4.47.27,7.98L9.63,213.3a.547.547,0,0,0-.36.81c.18.42.48.45.84.3l3.3-1.41c0,4.59-.06,9.21-.06,9.87,0,2.91,1.05,3.66,8.04,3.66,6.78,0,8.07-1.17,8.07-1.92,0-.69-.57-.54-.69-1.44-.06-.51-.12-1.38-.12-1.74-.09-.6-.63-.63-.81-.06a19,19,0,0,1-.66,1.98c-.33.69-1.26,1.14-5.85,1.14-5.52,0-5.88-.24-5.88-1.95,0-.72,0-5.88.03-10.41Z" transform="translate(-0.618 24.42)" fill="#fff"/>
</svg>
