<svg xmlns="http://www.w3.org/2000/svg" width="253.207" height="69.57" viewBox="0 0 253.207 69.57">
  <path id="パス_61" data-name="パス 61" d="M29.58,17.71c3,3.45,8.76,10.44,12.18,14.46,1.14,1.41,2.16,2.34,2.55,2.34.45,0,.81-.3.93-1.53.03-.42.03-1.17.03-1.62.09-8.88.12-13.83.18-15.39.03-.96.24-1.41,1.68-1.65,1.02-.15,1.05-1.08-.03-1.08-.42,0-2.07.06-2.7.06-1.47,0-2.28-.09-3.48-.09-1.17,0-1.17.96-.03,1.08,2.25.24,2.58.63,2.67,1.8.09.96.21,7.65.21,13.98,0,.12-.12.18-.21.06-4.26-4.95-9.15-10.68-12.9-15.12-1.38-1.65-1.86-1.71-2.31-1.74-.6-.03-3.24-.06-3.66-.06-1.08,0-1.2.96-.03,1.08,1.62.21,1.89.36,2.7,1.17a1.973,1.973,0,0,1,.54,1.65v3.66c0,5.07-.15,8.4-.21,9.72-.09,1.86-.24,2.19-2.01,2.46-1.17.15-1.11,1.11.03,1.11.99,0,2.34-.06,3.24-.06,1.14,0,2.25.06,3.06.06,1.2,0,1.23-.99.09-1.11-2.4-.27-2.49-.6-2.58-2.76-.06-.84-.09-5.07-.09-9.51V17.95C29.43,17.65,29.52,17.62,29.58,17.71Zm22.2,7.08c.33-2.64,1.74-3.72,3.33-3.72a3.5,3.5,0,0,1,3.57,3.45c0,.15-.03.27-.15.33a36.116,36.116,0,0,1-5.46.27,10.24,10.24,0,0,1-1.11-.06C51.81,25.03,51.78,24.97,51.78,24.79Zm-.09,1.71c5.73,0,7.26-.33,8.46-.66.54-.15,1.14-.54,1.14-1.08,0-.27-.15-.36-.33-.45a4.74,4.74,0,0,0-4.86-4.74,6.566,6.566,0,0,0-4.2,1.71,7.889,7.889,0,0,0-2.58,6c0,4.08,2.43,7.11,5.91,7.11a7.833,7.833,0,0,0,5.25-2.07c.75-.75.48-1.59-.45-1.02a5.8,5.8,0,0,1-3.36,1.08C53.76,32.38,51.75,30.49,51.69,26.5Zm20.28,0c-.45-.03-.87-.06-1.17-.06-3.39,0-7.32,1.53-7.32,4.29a3.414,3.414,0,0,0,3.21,3.72c1.38,0,2.97-.66,5.13-2.49.06,1.5.18,2.34,1.14,2.37a5.362,5.362,0,0,0,2.85-.72c.63-.36.63-1.17,0-1.14-.57,0-1.44.03-1.71-.45a1.293,1.293,0,0,1-.09-.6c0-.36.09-5.01.09-6.96s-.69-4.89-4.26-4.89a12.132,12.132,0,0,0-5.22,2.34,1.037,1.037,0,0,0-.42.9,3.054,3.054,0,0,0,.3,1.35c.39.9,1.08.72,1.32.09.27-.66.42-1.5.72-2.07a2,2,0,0,1,2.04-1.02c1.47,0,3.27.84,3.39,3.81Zm0,3.18a1.255,1.255,0,0,1-.36,1.08,4.2,4.2,0,0,1-3.36,1.74,2.071,2.071,0,0,1-2.31-2.22c0-1.56,1.38-2.52,3.45-2.55a11.115,11.115,0,0,1,2.37.12c.12.03.21.03.21.21ZM86.76,19.57c-.96,0-1.86.48-4.35,2.94a15.254,15.254,0,0,0-.18-2.37c-.06-.33-.21-.57-.45-.57a.956.956,0,0,0-.51.18,25.814,25.814,0,0,1-2.73,1.38c-.48.21-.48.72,0,.9,1.14.36,1.44.57,1.47,1.02a9.925,9.925,0,0,1,.09,1.98v4.92a11.7,11.7,0,0,1-.09,1.89c-.06.72-.12.84-1.38,1.17-.81.21-.72,1.05.09,1.05.72,0,1.5-.06,2.79-.06s2.34.06,2.97.06c.84,0,.96-.84.06-1.02-1.74-.33-2.01-.45-2.07-1.32-.03-.45-.06-1.05-.06-1.8V24.01a.631.631,0,0,1,.15-.45,3.417,3.417,0,0,1,2.58-1.44,2.07,2.07,0,0,1,1.59.75c.45.51.51.57.78.57.3,0,.57-.33.66-.57a3.028,3.028,0,0,0,.42-1.59A1.739,1.739,0,0,0,86.76,19.57Zm17.82,5.97c0-2.73-2.13-5.97-5.34-5.97-1.62,0-4.62,1.83-5.43,2.22V12.34a7.061,7.061,0,0,1,.24-1.8c.06-.39-.06-.63-.33-.63a1.758,1.758,0,0,0-.75.27,15.165,15.165,0,0,1-3.12,1.02c-.87.12-.84.84-.06,1.02,1.05.27,1.38.45,1.53.69.12.18.21.87.21,3.39V27.88c0,1.95-.06,4.17-.15,5.28-.06.57,0,.87.36.84.33-.03.96-.39,1.2-.27a6.544,6.544,0,0,0,2.97.72,7.679,7.679,0,0,0,4.35-1.29A8.506,8.506,0,0,0,104.58,25.54ZM102,26.83c0,3.9-1.89,5.94-4.68,5.94a4.895,4.895,0,0,1-3.12-1.02c-.24-.18-.21-.39-.27-.84a9.967,9.967,0,0,1-.12-1.8V23.8c0-.39.03-.63.24-.81a5.041,5.041,0,0,1,3.63-1.38C100.38,21.61,102,23.59,102,26.83Zm6.6-3.63c1.08,2.34,2.94,6.6,4.38,10.08a.629.629,0,0,1-.03.48c-.51.99-.99,1.98-1.56,3.06-.72,1.2-1.08,1.83-1.83,3a4.908,4.908,0,0,0-.9,1.95c0,.51.66,1.08,1.68,1.08a.729.729,0,0,0,.81-.57c.24-.75.69-2.1,2.13-5.67,2.85-6.81,5.04-11.43,6.03-13.68.51-1.11.72-1.41,1.83-1.68,1.08-.24.96-1.17-.06-1.14-.78,0-1.71.06-2.37.06-.87,0-1.8-.06-2.37-.06-.99.03-.99.93-.03,1.11,1.5.3,1.65.51,1.35,1.59-.3.87-1.59,4.2-3.21,7.77-.06.12-.15.09-.24-.06-.78-1.98-2.19-5.4-3.33-8.19-.24-.66-.09-.84,1.08-1.11.84-.18.81-1.11-.15-1.11-.57,0-1.95.06-2.55.06-.87,0-2.04-.09-2.79-.06-.96.03-.99.93-.03,1.08C107.76,21.46,107.91,21.85,108.6,23.2Zm35.64,4.17c0-1.83-.81-3.48-4.08-4.8-1.08-.45-1.98-.78-3.3-1.35-1.74-.69-2.76-1.68-2.76-3.63,0-1.92.93-3.48,3.6-3.48,2.22,0,3.03.78,3.21.99a3.321,3.321,0,0,1,.9,2.37c.12,1.05,1.11.99,1.14-.18a22.689,22.689,0,0,1,.36-4.29c.12-.66-.6-.69-1.02-.15-.3.36-.45.45-.54.42a7.349,7.349,0,0,0-3.12-.57c-3.99,0-6.9,2.58-6.9,5.88a5.374,5.374,0,0,0,3.75,4.98c.81.36,2.49.93,3.66,1.53a3.646,3.646,0,0,1,2.52,3.63c0,1.92-1.2,4.23-4.62,4.23-2.91,0-3.45-.99-3.81-1.5a6.652,6.652,0,0,1-.66-2.82c-.06-.84-.87-.87-1.08.09a16.836,16.836,0,0,0-.15,4.17c.09.9,2.1,1.62,4.32,1.62a8.769,8.769,0,0,0,5.61-1.74A6.316,6.316,0,0,0,144.24,27.37ZM150.03,34c1.08,0,1.8.06,2.55.06,1.05,0,1.05-.96.12-1.11-1.38-.27-1.5-.51-1.5-1.92V24.07a20.9,20.9,0,0,1,.24-3.84c.06-.45-.12-.66-.42-.66a1.584,1.584,0,0,0-.75.3,7.537,7.537,0,0,1-2.55.93c-.72.12-.69.78-.15.99,1.2.48,1.29.6,1.32,1.08a8.1,8.1,0,0,1,.06,1.35v6.96c0,1.26-.18,1.5-1.47,1.77-.96.18-.93,1.11.09,1.11C148.11,34.06,149.19,34,150.03,34Zm.06-21.69a1.707,1.707,0,0,0-1.68,1.8A1.586,1.586,0,0,0,150,15.79a1.7,1.7,0,0,0,1.68-1.83A1.632,1.632,0,0,0,150.09,12.31Zm10.95,16.32c-2.52,0-3.39-2.1-3.39-3.99,0-2.31.84-3.63,2.85-3.63,2.22,0,3.39,1.65,3.39,4.05C163.89,27.49,162.87,28.63,161.04,28.63Zm-1.38,5.76c1.26.12,1.92.21,2.88.3,2.25.27,3.39,1.23,3.39,2.88,0,2.1-1.65,3.63-4.05,3.63-3.36,0-4.95-1.92-4.95-3.33a2.442,2.442,0,0,1,.69-1.71,20.38,20.38,0,0,1,1.74-1.8Zm8.22-12.9a4.834,4.834,0,0,0,.72-1.35c.18-.51-.18-.93-.72-.42a2.211,2.211,0,0,1-1.56.84,8.5,8.5,0,0,1-2.94-.66,7.261,7.261,0,0,0-2.07-.33,6.63,6.63,0,0,0-3.24,1.02,5.51,5.51,0,0,0-2.7,4.74,4.661,4.661,0,0,0,3.21,4.56c-.54.48-1.71,1.47-2.13,1.95a.966.966,0,0,0,.06.75,2.65,2.65,0,0,0,1.77,1.53,29.449,29.449,0,0,0-3.21,3.09,1.852,1.852,0,0,0-.45,1.14c0,1.92,1.8,4.5,5.85,4.5a7.9,7.9,0,0,0,4.68-1.56,6.427,6.427,0,0,0,2.94-4.98c0-2.25-1.5-3.54-4.44-3.81-1.14-.09-2.4-.15-3.12-.21-.9-.12-1.65-.33-1.65-.93a2.4,2.4,0,0,1,.75-1.26h.36a6.629,6.629,0,0,0,4.71-2.01,5.2,5.2,0,0,0,1.41-4.05,6.8,6.8,0,0,0-.42-1.86,6.1,6.1,0,0,0,1.65-.24A.934.934,0,0,0,167.88,21.49Zm5.94,1.74a4.367,4.367,0,0,1,3.39-1.65c1.98,0,3.42.87,3.42,3.93V29.2c0,1.83-.03,2.43-.06,2.7-.06.66-.3.87-1.32,1.11-.96.21-.84,1.05.15,1.05,1.17,0,1.62-.06,2.46-.06.75,0,1.68.06,2.31.06,1.14,0,1.05-.9.03-1.08-1.05-.21-1.23-.48-1.26-1.08-.03-.48-.03-.72-.03-1.05V24.37c0-2.52-1.38-4.8-4.26-4.8a4.919,4.919,0,0,0-2.4.66,15.654,15.654,0,0,0-2.34,1.62c-.18.15-.24.09-.24-.03V13.99a15.787,15.787,0,0,1,.24-3.54.438.438,0,0,0-.39-.57,2.171,2.171,0,0,0-1.02.39,7.834,7.834,0,0,1-2.82.9c-1.02.12-.81.96-.15,1.02,1.56.33,1.74.48,1.8,1.14.06.69.06,1.32.06,3.3V28.48c0,1.53,0,2.1-.06,3.18-.06.99-.3,1.14-1.2,1.32-1.11.18-1.11,1.08,0,1.08.72,0,1.26-.06,2.4-.06,1.11,0,1.83.06,2.52.06.9,0,1.02-.9,0-1.08-1.2-.24-1.26-.48-1.32-1.29-.03-.36-.06-1.26-.06-2.82V24.04C173.67,23.56,173.67,23.41,173.82,23.23Zm16.95-1.44h1.56c1.32,0,1.65-.06,1.77-.21a2.082,2.082,0,0,0,.42-1.2c0-.21-.06-.3-.24-.27s-.93.06-1.62.06h-1.89c.03-3.66.12-4.35.27-4.68.24-.57-.09-.87-.6-.54a6.29,6.29,0,0,0-1.68,1.65,14.289,14.289,0,0,0-.24,3.57,6.032,6.032,0,0,0-1.83.12c-.18.09-.81.75-.81,1.08,0,.18.06.36.27.39.24.03.63.03,1.98.03h.39v8.28c0,3.72,1.38,4.35,2.82,4.35a4.709,4.709,0,0,0,3-1.14c.81-.78.45-1.38-.18-1.2a3.812,3.812,0,0,1-1.62.3c-1.26,0-1.77-.78-1.77-2.61Zm10.44,3.51c-1.14-.45-2.04-.99-2.04-2.37,0-1.02.51-2.04,2.28-2.04a2.712,2.712,0,0,1,2.58,1.29,5.085,5.085,0,0,1,.51,1.53c.15.81,1.08.66,1.08-.33a22.2,22.2,0,0,1,.3-3.78c.09-.48-.45-.51-.81-.24-.18.12-.33.36-.54.51-.09.06-.12.09-.33.03a6.091,6.091,0,0,0-1.98-.33,5.824,5.824,0,0,0-3.6,1.14,3.862,3.862,0,0,0-1.65,3.12,3.883,3.883,0,0,0,2.82,3.51c.87.33,2.01.75,2.88,1.11a2.369,2.369,0,0,1,1.59,2.22q0,2.43-2.61,2.43a3.361,3.361,0,0,1-3.42-2.01c-.12-.33-.36-.99-.42-1.17-.27-.9-1.2-.72-1.11.21.15,1.5.24,2.64.24,3.69,0,.84.75.63,1.08.24.18-.24.33-.18.51-.09a5.871,5.871,0,0,0,2.43.48,6.347,6.347,0,0,0,3.24-.87,4.558,4.558,0,0,0,2.4-3.99c0-1.83-1.41-2.79-2.79-3.36Zm10.53-.51c.33-2.64,1.74-3.72,3.33-3.72a3.5,3.5,0,0,1,3.57,3.45c0,.15-.03.27-.15.33a36.116,36.116,0,0,1-5.46.27,10.24,10.24,0,0,1-1.11-.06C211.77,25.03,211.74,24.97,211.74,24.79Zm-.09,1.71c5.73,0,7.26-.33,8.46-.66.54-.15,1.14-.54,1.14-1.08,0-.27-.15-.36-.33-.45a4.74,4.74,0,0,0-4.86-4.74,6.566,6.566,0,0,0-4.2,1.71,7.889,7.889,0,0,0-2.58,6c0,4.08,2.43,7.11,5.91,7.11a7.833,7.833,0,0,0,5.25-2.07c.75-.75.48-1.59-.45-1.02a5.8,5.8,0,0,1-3.36,1.08C213.72,32.38,211.71,30.49,211.65,26.5Zm14.46-1.71c.33-2.64,1.74-3.72,3.33-3.72a3.5,3.5,0,0,1,3.57,3.45c0,.15-.03.27-.15.33a36.116,36.116,0,0,1-5.46.27,10.24,10.24,0,0,1-1.11-.06C226.14,25.03,226.11,24.97,226.11,24.79Zm-.09,1.71c5.73,0,7.26-.33,8.46-.66.54-.15,1.14-.54,1.14-1.08,0-.27-.15-.36-.33-.45a4.74,4.74,0,0,0-4.86-4.74,6.566,6.566,0,0,0-4.2,1.71,7.889,7.889,0,0,0-2.58,6c0,4.08,2.43,7.11,5.91,7.11a7.833,7.833,0,0,0,5.25-2.07c.75-.75.48-1.59-.45-1.02A5.8,5.8,0,0,1,231,32.38C228.09,32.38,226.08,30.49,226.02,26.5ZM240.96,34c1.08,0,1.8.06,2.55.06,1.05,0,1.05-.96.12-1.11-1.38-.27-1.5-.51-1.5-1.92V24.07a20.9,20.9,0,0,1,.24-3.84c.06-.45-.12-.66-.42-.66a1.584,1.584,0,0,0-.75.3,7.537,7.537,0,0,1-2.55.93c-.72.12-.69.78-.15.99,1.2.48,1.29.6,1.32,1.08a8.1,8.1,0,0,1,.06,1.35v6.96c0,1.26-.18,1.5-1.47,1.77-.96.18-.93,1.11.09,1.11C239.04,34.06,240.12,34,240.96,34Zm.06-21.69a1.707,1.707,0,0,0-1.68,1.8,1.586,1.586,0,0,0,1.59,1.68,1.7,1.7,0,0,0,1.68-1.83A1.632,1.632,0,0,0,241.02,12.31Zm7.2,16.5a20.863,20.863,0,0,1-.09,2.82c-.06.87-.15,1.08-1.5,1.35-.9.15-.93,1.08.09,1.08.78,0,1.62-.06,2.61-.06,1.08,0,2.07.06,2.73.06.96,0,1.02-.93.15-1.08-1.5-.27-1.62-.48-1.65-1.32a16.085,16.085,0,0,1-.09-2.4v-5.1a1.012,1.012,0,0,1,.21-.78,4.83,4.83,0,0,1,3.39-1.83c2.28,0,3.39,1.44,3.39,3.66v2.01c0,2.91-.06,3.6-.09,4.2-.03.96-.12,1.26-1.71,1.56-.93.15-.93,1.08.15,1.08.57,0,1.74-.06,2.52-.06,1.02,0,1.83.06,2.79.06.99,0,1.02-.93.09-1.08-1.32-.24-1.5-.36-1.5-1.32v-6.9c0-3.36-1.65-5.19-4.17-5.19a4.707,4.707,0,0,0-2.52.78,21.906,21.906,0,0,0-2.49,1.8,10.247,10.247,0,0,0-.15-2.1c-.06-.33-.18-.48-.45-.48a2.039,2.039,0,0,0-.78.33,10.553,10.553,0,0,1-2.4,1.2.486.486,0,0,0-.06.93c1.38.45,1.53.72,1.53,1.62Zm21.21-.18c-2.52,0-3.39-2.1-3.39-3.99,0-2.31.84-3.63,2.85-3.63,2.22,0,3.39,1.65,3.39,4.05C272.28,27.49,271.26,28.63,269.43,28.63Zm-1.38,5.76c1.26.12,1.92.21,2.88.3,2.25.27,3.39,1.23,3.39,2.88,0,2.1-1.65,3.63-4.05,3.63-3.36,0-4.95-1.92-4.95-3.33a2.442,2.442,0,0,1,.69-1.71,20.38,20.38,0,0,1,1.74-1.8Zm8.22-12.9a4.834,4.834,0,0,0,.72-1.35c.18-.51-.18-.93-.72-.42a2.211,2.211,0,0,1-1.56.84,8.5,8.5,0,0,1-2.94-.66,7.262,7.262,0,0,0-2.07-.33,6.63,6.63,0,0,0-3.24,1.02,5.51,5.51,0,0,0-2.7,4.74,4.661,4.661,0,0,0,3.21,4.56c-.54.48-1.71,1.47-2.13,1.95a.966.966,0,0,0,.06.75,2.65,2.65,0,0,0,1.77,1.53,29.45,29.45,0,0,0-3.21,3.09,1.852,1.852,0,0,0-.45,1.14c0,1.92,1.8,4.5,5.85,4.5a7.9,7.9,0,0,0,4.68-1.56,6.427,6.427,0,0,0,2.94-4.98c0-2.25-1.5-3.54-4.44-3.81-1.14-.09-2.4-.15-3.12-.21-.9-.12-1.65-.33-1.65-.93a2.4,2.4,0,0,1,.75-1.26h.36a6.629,6.629,0,0,0,4.71-2.01,5.2,5.2,0,0,0,1.41-4.05,6.8,6.8,0,0,0-.42-1.86,6.1,6.1,0,0,0,1.65-.24A.934.934,0,0,0,276.27,21.49ZM131.955,71.5c-.45-.03-.87-.06-1.17-.06-3.39,0-7.32,1.53-7.32,4.29a3.414,3.414,0,0,0,3.21,3.72c1.38,0,2.97-.66,5.13-2.49.06,1.5.18,2.34,1.14,2.37a5.362,5.362,0,0,0,2.85-.72c.63-.36.63-1.17,0-1.14-.57,0-1.44.03-1.71-.45a1.293,1.293,0,0,1-.09-.6c0-.36.09-5.01.09-6.96s-.69-4.89-4.26-4.89a12.131,12.131,0,0,0-5.22,2.34,1.037,1.037,0,0,0-.42.9,3.054,3.054,0,0,0,.3,1.35c.39.9,1.08.72,1.32.09.27-.66.42-1.5.72-2.07a2,2,0,0,1,2.04-1.02c1.47,0,3.27.84,3.39,3.81Zm0,3.18a1.255,1.255,0,0,1-.36,1.08,4.2,4.2,0,0,1-3.36,1.74,2.071,2.071,0,0,1-2.31-2.22c0-1.56,1.38-2.52,3.45-2.55a11.114,11.114,0,0,1,2.37.12c.12.03.21.03.21.21Zm14.79-10.11c-.96,0-1.86.48-4.35,2.94a15.255,15.255,0,0,0-.18-2.37c-.06-.33-.21-.57-.45-.57a.956.956,0,0,0-.51.18,25.814,25.814,0,0,1-2.73,1.38c-.48.21-.48.72,0,.9,1.14.36,1.44.57,1.47,1.02a9.926,9.926,0,0,1,.09,1.98v4.92a11.7,11.7,0,0,1-.09,1.89c-.06.72-.12.84-1.38,1.17-.81.21-.72,1.05.09,1.05.72,0,1.5-.06,2.79-.06s2.34.06,2.97.06c.84,0,.96-.84.06-1.02-1.74-.33-2.01-.45-2.07-1.32-.03-.45-.06-1.05-.06-1.8V69.01a.631.631,0,0,1,.15-.45,3.417,3.417,0,0,1,2.58-1.44,2.07,2.07,0,0,1,1.59.75c.45.51.51.57.78.57.3,0,.57-.33.66-.57a3.028,3.028,0,0,0,.42-1.59A1.739,1.739,0,0,0,146.745,64.57Zm5.82,5.22c.33-2.64,1.74-3.72,3.33-3.72a3.5,3.5,0,0,1,3.57,3.45c0,.15-.03.27-.15.33a36.115,36.115,0,0,1-5.46.27,10.241,10.241,0,0,1-1.11-.06C152.6,70.03,152.565,69.97,152.565,69.79Zm-.09,1.71c5.73,0,7.26-.33,8.46-.66.54-.15,1.14-.54,1.14-1.08,0-.27-.15-.36-.33-.45a4.74,4.74,0,0,0-4.86-4.74,6.566,6.566,0,0,0-4.2,1.71,7.889,7.889,0,0,0-2.58,6c0,4.08,2.43,7.11,5.91,7.11a7.833,7.833,0,0,0,5.25-2.07c.75-.75.48-1.59-.45-1.02a5.8,5.8,0,0,1-3.36,1.08C154.545,77.38,152.535,75.49,152.475,71.5Zm20.28,0c-.45-.03-.87-.06-1.17-.06-3.39,0-7.32,1.53-7.32,4.29a3.414,3.414,0,0,0,3.21,3.72c1.38,0,2.97-.66,5.13-2.49.06,1.5.18,2.34,1.14,2.37a5.362,5.362,0,0,0,2.85-.72c.63-.36.63-1.17,0-1.14-.57,0-1.44.03-1.71-.45a1.293,1.293,0,0,1-.09-.6c0-.36.09-5.01.09-6.96s-.69-4.89-4.26-4.89a12.132,12.132,0,0,0-5.22,2.34,1.037,1.037,0,0,0-.42.9,3.054,3.054,0,0,0,.3,1.35c.39.9,1.08.72,1.32.09.27-.66.42-1.5.72-2.07a2,2,0,0,1,2.04-1.02c1.47,0,3.27.84,3.39,3.81Zm0,3.18a1.255,1.255,0,0,1-.36,1.08,4.2,4.2,0,0,1-3.36,1.74,2.071,2.071,0,0,1-2.31-2.22c0-1.56,1.38-2.52,3.45-2.55a11.115,11.115,0,0,1,2.37.12c.12.03.21.03.21.21Z" transform="translate(-23.83 -9.88)" fill="#fff"/>
</svg>
