<svg xmlns="http://www.w3.org/2000/svg" width="156" height="48.76" viewBox="0 0 156 48.76">
  <g id="グループ_94" data-name="グループ 94" transform="translate(-562.5 -5946.24)">
    <path id="パス_28" data-name="パス 28" d="M9.51-19.68c1.08-.12,1.02-1.08.06-1.08-.66,0-2.25.06-3.63.06-1.14,0-2.88-.06-3.51-.06-1.08,0-1.08.96.06,1.08,1.98.24,2.07.66,2.16,1.77.06.69.06.81.06,3.96v7.08c0,2.85-.03,3.3-.06,3.87C4.59-1.74,4.5-1.32,2.43-1.05,1.41-.93,1.44.06,2.4.06,3.21.06,4.86,0,6.12,0,7.77,0,8.85.06,9.48.06c1.08,0,1.05-.99.09-1.11-2.04-.3-2.22-.57-2.28-1.92-.03-.66-.06-1.11-.06-3.9v-7.08c0-2.85.03-3.27.06-3.96C7.32-19.02,7.53-19.44,9.51-19.68ZM16.86-5.19a20.862,20.862,0,0,1-.09,2.82c-.06.87-.15,1.08-1.5,1.35-.9.15-.93,1.08.09,1.08.78,0,1.62-.06,2.61-.06,1.08,0,2.07.06,2.73.06.96,0,1.02-.93.15-1.08-1.5-.27-1.62-.48-1.65-1.32a16.087,16.087,0,0,1-.09-2.4v-5.1a1.012,1.012,0,0,1,.21-.78,4.83,4.83,0,0,1,3.39-1.83c2.28,0,3.39,1.44,3.39,3.66v2.01c0,2.91-.06,3.6-.09,4.2-.03.96-.12,1.26-1.71,1.56-.93.15-.93,1.08.15,1.08.57,0,1.74-.06,2.52-.06,1.02,0,1.83.06,2.79.06.99,0,1.02-.93.09-1.08-1.32-.24-1.5-.36-1.5-1.32v-6.9c0-3.36-1.65-5.19-4.17-5.19a4.707,4.707,0,0,0-2.52.78,21.906,21.906,0,0,0-2.49,1.8,10.247,10.247,0,0,0-.15-2.1c-.06-.33-.18-.48-.45-.48a2.039,2.039,0,0,0-.78.33,10.553,10.553,0,0,1-2.4,1.2.486.486,0,0,0-.06.93c1.38.45,1.53.72,1.53,1.62ZM39.93-8.7c-1.14-.45-2.04-.99-2.04-2.37,0-1.02.51-2.04,2.28-2.04a2.712,2.712,0,0,1,2.58,1.29,5.084,5.084,0,0,1,.51,1.53c.15.81,1.08.66,1.08-.33a22.2,22.2,0,0,1,.3-3.78c.09-.48-.45-.51-.81-.24-.18.12-.33.36-.54.51-.09.06-.12.09-.33.03a6.091,6.091,0,0,0-1.98-.33,5.824,5.824,0,0,0-3.6,1.14,3.862,3.862,0,0,0-1.65,3.12,3.883,3.883,0,0,0,2.82,3.51c.87.33,2.01.75,2.88,1.11a2.369,2.369,0,0,1,1.59,2.22q0,2.43-2.61,2.43a3.361,3.361,0,0,1-3.42-2.01c-.12-.33-.36-.99-.42-1.17-.27-.9-1.2-.72-1.11.21.15,1.5.24,2.64.24,3.69,0,.84.75.63,1.08.24.18-.24.33-.18.51-.09a5.871,5.871,0,0,0,2.43.48,6.347,6.347,0,0,0,3.24-.87,4.558,4.558,0,0,0,2.4-3.99c0-1.83-1.41-2.79-2.79-3.36ZM54.9-12.21h1.56c1.32,0,1.65-.06,1.77-.21a2.082,2.082,0,0,0,.42-1.2c0-.21-.06-.3-.24-.27s-.93.06-1.62.06H54.9c.03-3.66.12-4.35.27-4.68.24-.57-.09-.87-.6-.54a6.291,6.291,0,0,0-1.68,1.65,14.29,14.29,0,0,0-.24,3.57,6.032,6.032,0,0,0-1.83.12c-.18.09-.81.75-.81,1.08,0,.18.06.36.27.39.24.03.63.03,1.98.03h.39v8.28c0,3.72,1.38,4.35,2.82,4.35a4.709,4.709,0,0,0,3-1.14c.81-.78.45-1.38-.18-1.2a3.812,3.812,0,0,1-1.62.3c-1.26,0-1.77-.78-1.77-2.61ZM72.15-7.5c-.45-.03-.87-.06-1.17-.06-3.39,0-7.32,1.53-7.32,4.29A3.414,3.414,0,0,0,66.87.45c1.38,0,2.97-.66,5.13-2.49.06,1.5.18,2.34,1.14,2.37a5.362,5.362,0,0,0,2.85-.72c.63-.36.63-1.17,0-1.14-.57,0-1.44.03-1.71-.45a1.293,1.293,0,0,1-.09-.6c0-.36.09-5.01.09-6.96s-.69-4.89-4.26-4.89a12.132,12.132,0,0,0-5.22,2.34,1.037,1.037,0,0,0-.42.9,3.054,3.054,0,0,0,.3,1.35c.39.9,1.08.72,1.32.09.27-.66.42-1.5.72-2.07a2,2,0,0,1,2.04-1.02c1.47,0,3.27.84,3.39,3.81Zm0,3.18a1.255,1.255,0,0,1-.36,1.08A4.2,4.2,0,0,1,68.43-1.5a2.071,2.071,0,0,1-2.31-2.22c0-1.56,1.38-2.52,3.45-2.55a11.115,11.115,0,0,1,2.37.12c.12.03.21.03.21.21ZM86.82-5.37c-2.52,0-3.39-2.1-3.39-3.99,0-2.31.84-3.63,2.85-3.63,2.22,0,3.39,1.65,3.39,4.05C89.67-6.51,88.65-5.37,86.82-5.37ZM85.44.39c1.26.12,1.92.21,2.88.3,2.25.27,3.39,1.23,3.39,2.88,0,2.1-1.65,3.63-4.05,3.63-3.36,0-4.95-1.92-4.95-3.33a2.442,2.442,0,0,1,.69-1.71A20.383,20.383,0,0,1,85.14.36Zm8.22-12.9a4.834,4.834,0,0,0,.72-1.35c.18-.51-.18-.93-.72-.42a2.211,2.211,0,0,1-1.56.84,8.5,8.5,0,0,1-2.94-.66,7.261,7.261,0,0,0-2.07-.33,6.63,6.63,0,0,0-3.24,1.02,5.51,5.51,0,0,0-2.7,4.74,4.661,4.661,0,0,0,3.21,4.56c-.54.48-1.71,1.47-2.13,1.95a.966.966,0,0,0,.06.75A2.65,2.65,0,0,0,84.06.12a29.45,29.45,0,0,0-3.21,3.09,1.852,1.852,0,0,0-.45,1.14c0,1.92,1.8,4.5,5.85,4.5a7.9,7.9,0,0,0,4.68-1.56,6.427,6.427,0,0,0,2.94-4.98c0-2.25-1.5-3.54-4.44-3.81-1.14-.09-2.4-.15-3.12-.21-.9-.12-1.65-.33-1.65-.93a2.4,2.4,0,0,1,.75-1.26h.36a6.629,6.629,0,0,0,4.71-2.01,5.2,5.2,0,0,0,1.41-4.05,6.8,6.8,0,0,0-.42-1.86,6.1,6.1,0,0,0,1.65-.24A.934.934,0,0,0,93.66-12.51Zm13.56-1.92c-.96,0-1.86.48-4.35,2.94a15.254,15.254,0,0,0-.18-2.37c-.06-.33-.21-.57-.45-.57a.956.956,0,0,0-.51.18A25.814,25.814,0,0,1,99-12.87c-.48.21-.48.72,0,.9,1.14.36,1.44.57,1.47,1.02a9.925,9.925,0,0,1,.09,1.98v4.92a11.7,11.7,0,0,1-.09,1.89c-.06.72-.12.84-1.38,1.17-.81.21-.72,1.05.09,1.05.72,0,1.5-.06,2.79-.06s2.34.06,2.97.06c.84,0,.96-.84.06-1.02-1.74-.33-2.01-.45-2.07-1.32-.03-.45-.06-1.05-.06-1.8V-9.99a.631.631,0,0,1,.15-.45,3.417,3.417,0,0,1,2.58-1.44,2.07,2.07,0,0,1,1.59.75c.45.51.51.57.78.57.3,0,.57-.33.66-.57a3.028,3.028,0,0,0,.42-1.59A1.739,1.739,0,0,0,107.22-14.43ZM122.19-7.5c-.45-.03-.87-.06-1.17-.06-3.39,0-7.32,1.53-7.32,4.29A3.414,3.414,0,0,0,116.91.45c1.38,0,2.97-.66,5.13-2.49.06,1.5.18,2.34,1.14,2.37a5.362,5.362,0,0,0,2.85-.72c.63-.36.63-1.17,0-1.14-.57,0-1.44.03-1.71-.45a1.293,1.293,0,0,1-.09-.6c0-.36.09-5.01.09-6.96s-.69-4.89-4.26-4.89a12.131,12.131,0,0,0-5.22,2.34,1.037,1.037,0,0,0-.42.9,3.054,3.054,0,0,0,.3,1.35c.39.9,1.08.72,1.32.09.27-.66.42-1.5.72-2.07a2,2,0,0,1,2.04-1.02c1.47,0,3.27.84,3.39,3.81Zm0,3.18a1.255,1.255,0,0,1-.36,1.08,4.2,4.2,0,0,1-3.36,1.74,2.071,2.071,0,0,1-2.31-2.22c0-1.56,1.38-2.52,3.45-2.55a11.115,11.115,0,0,1,2.37.12c.12.03.21.03.21.21Zm21.93-7.65a3.686,3.686,0,0,0-3.48-2.46,4.383,4.383,0,0,0-2.76.87c-1.14.84-1.98,1.44-2.31,1.71a15.579,15.579,0,0,0-.15-2.07c-.06-.3-.24-.51-.45-.51a1.173,1.173,0,0,0-.66.3,13.147,13.147,0,0,1-2.52,1.29.461.461,0,0,0,0,.9c1.23.36,1.41.69,1.44,1.02a8.762,8.762,0,0,1,.09,1.65v4.41a21.6,21.6,0,0,1-.06,2.64c-.12.84-.27.93-1.59,1.23-.81.15-.78,1.05.09,1.05.75,0,1.8-.06,2.64-.06.81,0,2.28.06,2.82.06.87,0,.93-.93.18-1.05-1.5-.3-1.68-.54-1.74-1.35-.03-.33-.09-1.08-.09-2.22v-5.55c0-.24,0-.36.15-.51a4.419,4.419,0,0,1,3.36-1.77c2.04,0,3.3.96,3.3,4.2V-4.2c0,1.17-.03,1.8-.06,2.1-.06.57-.15.78-1.59,1.08-.93.15-.81,1.08.09,1.08.6,0,1.68-.06,2.49-.06s2.28.06,2.73.06c.87,0,.96-.84.06-1.05-1.38-.33-1.47-.45-1.47-1.65V-9.51a5.416,5.416,0,0,0-.15-1.35c0-.06.06-.12.12-.24a4.625,4.625,0,0,1,3.18-1.29c1.95,0,3.27.96,3.27,4.02v3.36a22.973,22.973,0,0,1-.12,3.12c-.06.33-.3.63-1.62.9-.87.15-.78,1.05.06,1.05.54,0,2.28-.06,2.88-.06,1.14,0,1.89.06,2.55.06.87,0,.96-.84.12-1.05-1.26-.3-1.44-.33-1.53-.93a17.2,17.2,0,0,1-.06-1.92V-9.51c0-2.58-1.41-4.92-4.17-4.92a4.927,4.927,0,0,0-2.61.72C145.74-13.17,144.69-12.45,144.12-11.97Z" transform="translate(562 5967)" fill="#8d857b"/>
    <line id="線_11" data-name="線 11" x2="156" transform="translate(562.5 5994.5)" fill="none" stroke="#8c857c" stroke-width="1"/>
  </g>
</svg>
