<svg xmlns="http://www.w3.org/2000/svg" width="231.46" height="175.158" viewBox="0 0 231.46 175.158">
  <g id="グループ_90" data-name="グループ 90" transform="translate(-256.5 -724.37)">
    <path id="パス_29" data-name="パス 29" d="M16.05-1.86v-9.03h8.28c-.03,3.33-.06,6.78-.06,9.03ZM5.79-10.89h8.1v9.03H5.82Zm10.26-9.03c.51-.18.78-.39.78-.72a.11.11,0,0,0-.03-.09h7.53c.03,1.32,0,4.83,0,8.64H16.05Zm-9.96-.81h7.83v8.64H5.79c0-2.25.03-6.99.12-8.61Zm.84-1.2a7.778,7.778,0,0,0-3.12-1.32.407.407,0,0,0-.42.42c.48,4.41.12,20.31.12,23.91a.786.786,0,0,0,.87.9c.99,0,1.44-.39,1.44-1.05V-.66H24.24V.72a.923.923,0,0,0,.96,1.02c.84,0,1.41-.24,1.41-1.17,0-2.25-.33-16.14-.12-20.55.66-.27,1.29-.57,1.29-1.05,0-.69-1.92-2.13-2.61-2.13-.33,0-.9.63-1.35,1.23ZM48.96-9.48l-.03-2.25v-4.92H57.3c0,1.5-.03,4.8-.03,7.17Zm-10.17,0V-11.7c0-.66,0-3.69.06-4.65a2.258,2.258,0,0,0,.93-.3h6.99c.03,2.46.03,4.65.03,5.25,0,.48,0,1.14-.03,1.92Zm10.17-8.37c0-1.98.03-3.87.06-4.77.93-.18,1.56-.57,1.56-1.08,0-.75-1.74-.93-3.75-.93a.388.388,0,0,0-.42.48,62.383,62.383,0,0,1,.36,6.3H39.36a8.762,8.762,0,0,0-2.46-1.2c-.27-.09-.54.06-.48.39.33,2.76.12,10.92.09,12.75a.782.782,0,0,0,.87.84c.96,0,1.44-.3,1.44-.96V-8.28h7.92c-.06,3.6-.21,8.49-.21,9.48a.877.877,0,0,0,.99.9c.99,0,1.56-.39,1.56-1.08,0-.87-.06-5.73-.12-9.3h8.28v1.41a.923.923,0,0,0,.96,1.02c.87,0,1.38-.21,1.38-1.14,0-1.29-.12-6.57-.03-9.21.6-.24,1.23-.54,1.23-.96,0-.66-1.92-2.1-2.61-2.1-.36,0-1.02.75-1.5,1.41Zm24.6-4.02H89.4c0,.96-.03,2.49-.03,3.57H73.29c0-1.14,0-2.28-.03-3.48ZM89.34-17.1a.967.967,0,0,0,.36.78c-.42.12-1.08.99-1.62,1.77H74.58c-.39,0-.66.15-.66.6,0,.48.27.6.66.6H80.1a18.013,18.013,0,0,1-1.2,3.36c-1.29.03-2.67,0-4.14-.06-.24,0-.39.06-.39.33,0,1.65.3,2.7.9,2.79.48.09.81-.48,1.02-1.14a70,70,0,0,0,12.3-1.38,13.874,13.874,0,0,0,.84,1.29,1.125,1.125,0,0,0,1.26.57,1.211,1.211,0,0,0,.99-1.56c-.3-1.35-1.8-2.79-4.53-3.24-.6-.12-.84.45-.48.78.33.3.66.66.99,1.02a68.174,68.174,0,0,1-6.87.57q.63-.945,1.26-1.98c.66-.06,1.44-.27,1.44-.75,0-.21-.21-.42-.54-.6h7.86c1.08,0,1.56-.21,1.53-.63,0-.54-1.29-1.71-2.07-2.16.87,0,1.35-.21,1.35-1.14-.03-.78-.06-2.76-.03-4.2.54-.24,1.05-.51,1.05-.9,0-.66-1.8-1.98-2.43-1.98-.33,0-.93.69-1.38,1.29H73.53a8.8,8.8,0,0,0-2.28-1.02c-.39-.06-.57.09-.54.57.24,3.06.3,6.42.27,9.15-.06,7.08-1.2,10.8-4.05,14.58-.6.81.18,1.38.87.75,4.71-3.9,5.22-9.84,5.37-14.46.06-1.26.09-2.43.09-3.6ZM83.58-.15V-3.57h6.18c1.11,0,1.65-.27,1.65-.69,0-.72-2.16-2.52-2.76-2.52-.45,0-1.29,1.08-1.92,2.01H83.58V-6.24c.81-.18,1.35-.39,1.35-.96,0-.72-2.67-.84-3.18-.84-.27,0-.45.15-.42.42.06.66.12,1.68.15,2.85h-6.6c-.39,0-.66.15-.66.6,0,.48.27.6.66.6h6.6c.03,1.17.03,2.4,0,3.42H72.06c-.39,0-.66.15-.66.6,0,.48.27.6.66.6H92.85c1.11,0,1.68-.27,1.68-.72,0-.75-2.22-2.61-2.85-2.64-.48.03-1.32,1.2-1.98,2.16Zm26.04-22.32c0,.39.48.54,1.11.93.51.33.66.69.66,1.59,0,1.14-.15,4.08-.15,5.49a3.412,3.412,0,0,0,1.08,2.58c-3.06,1.47-4.8,3.66-4.71,7.02.12,3.78,3.99,4.83,6.9,4.83,3.3,0,6.75-.48,6.75-1.98,0-.66-.75-1.11-1.77-1.11-1.11,0-2.73.72-4.98.72-2.64,0-4.86-.45-4.98-3.27a4.758,4.758,0,0,1,4.41-4.95c.96-.09,2.19-.12,2.97-.18,1.53-.12,2.64-.57,2.64-1.5,0-.75-1.08-1.29-2.31-1.26-1.5.03-2.13.75-3,.78s-1.14-.6-1.14-1.8c0-1.92.96-5.22.96-6.33,0-1.47-1.68-2.31-3.06-2.31C110.4-23.22,109.62-22.89,109.62-22.47ZM135.21-4.59c-.72-.06-.9.39-.39.84a20.639,20.639,0,0,1,2.16,2.07A12.1,12.1,0,0,1,138.45.63c.36.75.81,1.2,1.47,1.2,1.32,0,1.89-1.5,1.08-3.06A7.2,7.2,0,0,0,135.21-4.59ZM84.69,55.11a13.144,13.144,0,0,1-2.61-4.62H93c1.2,0,1.68-.27,1.68-.69,0-.72-2.19-2.52-2.79-2.52-.45,0-1.29,1.08-1.92,2.01H75.54V46.38H88.59c1.05,0,1.56-.24,1.56-.63,0-.69-2.04-2.4-2.61-2.4-.42,0-1.17.96-1.77,1.83H75.54l.03-2.85H88.26c1.08,0,1.59-.24,1.59-.63-.03-.69-2.07-2.4-2.64-2.4-.42,0-1.17.96-1.77,1.83H75.57c.03-1.17.06-2.19.09-2.76l.3-.06H89.97c1.08,0,1.59-.24,1.59-.66,0-.72-2.1-2.46-2.67-2.46-.45,0-1.23,1.02-1.83,1.92H76.5a7.656,7.656,0,0,0-2.82-1.2.409.409,0,0,0-.42.42c.24,2.34.27,7.89.21,12.96H67.98c-.39,0-.66.15-.66.6,0,.48.27.6.66.6h5.49c-.03,3.39-.09,6.39-.09,7.92-1.38.3-2.91.54-4.53.75-.24.03-.36.12-.33.39.27,1.62.78,3,1.41,3,.51,0,.78-.66.9-1.35a43.1,43.1,0,0,0,11.01-3.99c1.17-.63.87-1.62-.39-1.11a53.082,53.082,0,0,1-5.85,1.83l-.03-7.44H80.7c1.65,6.3,5.34,10.14,11.1,11.4.9.21,1.08,0,1.47-.51a2.339,2.339,0,0,1,1.26-.87c.69-.27.78-.84-.15-.93a15.061,15.061,0,0,1-8.88-3.63,22.45,22.45,0,0,0,5.64-2.73c.84.36,1.35.33,1.47-.06.18-.54-.99-1.71-1.86-2.25-.3-.21-.48-.06-.69.15A18.621,18.621,0,0,1,84.69,55.11Zm33.99-18a19.605,19.605,0,0,1,2.52,2.49c1.02,1.2,1.68,2.19,2.67,1.92a1.475,1.475,0,0,0,.96-2.01c-.51-1.8-3.45-3.24-5.61-3.54C118.29,35.85,118.11,36.6,118.68,37.11Zm-15.57,6.42a15.887,15.887,0,0,0,6.81-5.19c.87.18,1.53.09,1.56-.48.03-.66-2.1-1.77-3.06-2.07a.452.452,0,0,0-.6.36c-.99,2.61-3.3,4.8-5.43,6.6C101.91,43.35,102.36,43.92,103.11,43.53Zm6.78,15V56.34c0-.51-.03-3.24.03-4.11h9.54c0,1.29-.03,4.23-.03,6.3Zm.48-7.5a6.905,6.905,0,0,0-2.46-.99.358.358,0,0,0-.42.39c.3,2.82.12,8.76.12,10.86a.738.738,0,0,0,.84.81c.96,0,1.44-.3,1.44-.93V59.73h9.51v.99a.923.923,0,0,0,.96,1.02c.87,0,1.38-.21,1.38-1.14,0-1.14-.12-5.61-.03-7.83.51-.21.99-.48.99-.87,0-.63-1.8-1.98-2.43-1.98-.3,0-.81.57-1.23,1.11Zm17.25-1.8c-4.65-.93-9.3-3.36-12-7.41.36-.06.54-.21.54-.42,0-.51-1.47-1.08-2.61-1.29a.56.56,0,0,0-.69.33c-2.76,5.46-7.02,9.33-12.24,12.63-.75.45-.3,1.35.48.99a33.366,33.366,0,0,0,13.53-11.43,18.552,18.552,0,0,0,10.47,9.03c.75.24.99.06,1.41-.57a2.372,2.372,0,0,1,1.29-.9C128.4,49.95,128.58,49.41,127.62,49.23ZM141.03,54c-.87-.21-1.17.45-.66,1.02a20.1,20.1,0,0,1,1.8,2.28c.78,1.14,1.2,2.04,2.04,1.92a1.352,1.352,0,0,0,1.2-1.68C145.2,55.86,143.19,54.54,141.03,54Zm12.27-3c0-.9,0-1.74.03-2.43.48-.09,1.26-.3,1.26-.78,0-.54-1.59-.78-3.09-.78-.36,0-.45.18-.39.54.09.6.15,2.01.18,3.45h-17.1c-.39,0-.66.15-.66.6,0,.48.27.6.66.6h17.13l.06,2.34c0,1.65,0,3.09-.06,4.29-.03.66-.33.87-.96.9-.33,0-1.26-.09-1.89-.15-.6-.03-.75.72-.03.99,1.89.69,1.74,1.56,2.67,1.56a2.118,2.118,0,0,0,2.22-2.25c-.03-2.34-.03-5.22-.03-7.68h5.19c1.14,0,1.56-.24,1.56-.63,0-.69-2.04-2.4-2.61-2.4-.42,0-1.17.96-1.77,1.83Zm-5.28-5.7V40.8h7.8c1.11,0,1.59-.24,1.59-.66,0-.69-2.07-2.43-2.64-2.43-.42,0-1.2,1.02-1.8,1.89h-4.95V37.08c.93-.21,1.59-.45,1.59-1.11,0-.78-2.94-.87-3.45-.87-.27,0-.45.15-.42.42.09.84.15,2.37.18,4.08h-9.27c-.39,0-.66.15-.66.6,0,.48.27.6.66.6h9.3c.03,1.56.03,3.15,0,4.5H134.13c-.39,0-.66.15-.66.6,0,.48.27.6.66.6h24.66c1.2,0,1.65-.24,1.65-.66,0-.75-2.16-2.52-2.73-2.52-.45,0-1.26,1.08-1.89,1.98Z" transform="translate(256 749)" fill="#b7a997"/>
    <path id="パス_30" data-name="パス 30" d="M5.024-10.272c.128,0,.144.032.144.272v7.136c0,.816-.016,1.232-.032,1.424-.048.592-.16.768-1.328.9C3.2-.5,3.264.032,3.792.032,4.08.032,5.264,0,5.856,0,6.48,0,6.88.032,7.84.032c.72,0,.72-.512.08-.576-1.232-.128-1.36-.32-1.376-.9-.016-.352-.032-.672-.032-1.344v-7.264c0-.176.016-.192.112-.192,2.752,0,3.152-.032,3.376.1.208.128.336.448.416,1.168.08.64.64.64.64-.1A9.55,9.55,0,0,1,11.28-11.1a.276.276,0,0,0-.432-.32,1.466,1.466,0,0,1-1.184.384h-7.2c-.48,0-.768-.032-.992-.352a.305.305,0,0,0-.528.16A19.087,19.087,0,0,1,.768-8.848c-.064.576.464.576.624.048.3-1.008.48-1.3.768-1.392A16.633,16.633,0,0,1,5.024-10.272ZM16.592-4c-.24-.016-.464-.032-.624-.032-1.808,0-3.9.816-3.9,2.288A1.821,1.821,0,0,0,13.776.24a4.4,4.4,0,0,0,2.736-1.328c.032.8.1,1.248.608,1.264a2.86,2.86,0,0,0,1.52-.384c.336-.192.336-.624,0-.608-.3,0-.768.016-.912-.24a.69.69,0,0,1-.048-.32c0-.192.048-2.672.048-3.712S17.36-7.7,15.456-7.7a6.47,6.47,0,0,0-2.784,1.248.553.553,0,0,0-.224.48,1.629,1.629,0,0,0,.16.72c.208.48.576.384.7.048.144-.352.224-.8.384-1.1a1.068,1.068,0,0,1,1.088-.544c.784,0,1.744.448,1.808,2.032Zm0,1.7a.669.669,0,0,1-.192.576A2.24,2.24,0,0,1,14.608-.8a1.1,1.1,0,0,1-1.232-1.184c0-.832.736-1.344,1.84-1.36a5.928,5.928,0,0,1,1.264.064c.064.016.112.016.112.112Zm5.936-.464a11.126,11.126,0,0,1-.048,1.5c-.032.464-.08.576-.8.72-.48.08-.5.576.048.576C22.144.032,22.592,0,23.12,0c.576,0,1.1.032,1.456.032.512,0,.544-.5.08-.576-.8-.144-.864-.256-.88-.7a8.58,8.58,0,0,1-.048-1.28v-2.72a.54.54,0,0,1,.112-.416,2.576,2.576,0,0,1,1.808-.976,1.709,1.709,0,0,1,1.808,1.952v1.072c0,1.552-.032,1.92-.048,2.24-.016.512-.064.672-.912.832-.5.08-.5.576.08.576C26.88.032,27.5,0,27.92,0c.544,0,.976.032,1.488.032.528,0,.544-.5.048-.576-.7-.128-.8-.192-.8-.7v-3.68c0-1.792-.88-2.768-2.224-2.768a2.51,2.51,0,0,0-1.344.416,11.683,11.683,0,0,0-1.328.96,5.465,5.465,0,0,0-.08-1.12c-.032-.176-.1-.256-.24-.256a1.088,1.088,0,0,0-.416.176,5.629,5.629,0,0,1-1.28.64.259.259,0,0,0-.032.5c.736.24.816.384.816.864ZM36.88-4c-.24-.016-.464-.032-.624-.032-1.808,0-3.9.816-3.9,2.288A1.821,1.821,0,0,0,34.064.24,4.4,4.4,0,0,0,36.8-1.088c.032.8.1,1.248.608,1.264a2.86,2.86,0,0,0,1.52-.384c.336-.192.336-.624,0-.608-.3,0-.768.016-.912-.24a.69.69,0,0,1-.048-.32c0-.192.048-2.672.048-3.712S37.648-7.7,35.744-7.7A6.47,6.47,0,0,0,32.96-6.448a.553.553,0,0,0-.224.48,1.629,1.629,0,0,0,.16.72c.208.48.576.384.7.048.144-.352.224-.8.384-1.1a1.068,1.068,0,0,1,1.088-.544c.784,0,1.744.448,1.808,2.032Zm0,1.7a.669.669,0,0,1-.192.576A2.24,2.24,0,0,1,34.9-.8a1.1,1.1,0,0,1-1.232-1.184c0-.832.736-1.344,1.84-1.36a5.928,5.928,0,0,1,1.264.064c.064.016.112.016.112.112Zm6.992-8.64a7.026,7.026,0,0,1,.1-1.472c.1-.272,0-.448-.192-.448a.993.993,0,0,0-.4.16,6.943,6.943,0,0,1-1.712.512c-.4.08-.384.448-.016.544.784.176.944.24.976.688.032.3.032.624.032,1.856v6.1c0,1.264-.032,1.616-.048,1.824-.048.352-.1.512-.8.64-.5.08-.432.576.048.576C42.368.032,42.64,0,43.328,0c.5,0,1.088.032,1.392.032.528,0,.56-.5.064-.576-.752-.144-.848-.288-.88-.656-.016-.208-.032-.5-.032-1.552v-.416c.256-.176.512-.336.784-.528.112-.1.16-.064.192,0C45.712-2.4,46.48-1.36,46.9-.8c.48.64.816.832,1.12.864A6.188,6.188,0,0,0,49.664.048c.56-.1.512-.576.032-.592-.816-.032-1.024-.128-1.712-.9-.608-.72-1.584-1.936-2.3-2.992.72-.624,1.424-1.232,2.064-1.76a3.325,3.325,0,0,1,1.12-.672c.288-.112.368-.224.368-.368,0-.128-.1-.224-.416-.224s-.8.048-1.264.064c-.48.016-1.024.016-1.392.016-.56,0-.576.512-.048.592.608.112.784.16.784.272,0,.128-.144.256-.48.592a18.191,18.191,0,0,1-2.544,2.112ZM56.768-4c-.24-.016-.464-.032-.624-.032-1.808,0-3.9.816-3.9,2.288A1.821,1.821,0,0,0,53.952.24a4.4,4.4,0,0,0,2.736-1.328c.032.8.1,1.248.608,1.264a2.86,2.86,0,0,0,1.52-.384c.336-.192.336-.624,0-.608-.3,0-.768.016-.912-.24a.69.69,0,0,1-.048-.32c0-.192.048-2.672.048-3.712S57.536-7.7,55.632-7.7a6.47,6.47,0,0,0-2.784,1.248.553.553,0,0,0-.224.48,1.629,1.629,0,0,0,.16.72c.208.48.576.384.7.048.144-.352.224-.8.384-1.1a1.068,1.068,0,0,1,1.088-.544c.784,0,1.744.448,1.808,2.032Zm0,1.7a.669.669,0,0,1-.192.576A2.24,2.24,0,0,1,54.784-.8a1.1,1.1,0,0,1-1.232-1.184c0-.832.736-1.344,1.84-1.36a5.928,5.928,0,0,1,1.264.064c.064.016.112.016.112.112ZM62.176-5.76c.576,1.248,1.568,3.52,2.336,5.376a.336.336,0,0,1-.016.256C64.224.4,63.968.928,63.664,1.5c-.384.64-.576.976-.976,1.6a2.617,2.617,0,0,0-.48,1.04c0,.272.352.576.9.576a.389.389,0,0,0,.432-.3c.128-.4.368-1.12,1.136-3.024,1.52-3.632,2.688-6.1,3.216-7.3.272-.592.384-.752.976-.9.576-.128.512-.624-.032-.608-.416,0-.912.032-1.264.032-.464,0-.96-.032-1.264-.032-.528.016-.528.5-.016.592.8.16.88.272.72.848-.16.464-.848,2.24-1.712,4.144-.032.064-.08.048-.128-.032C64.752-2.912,64-4.736,63.392-6.224c-.128-.352-.048-.448.576-.592.448-.1.432-.592-.08-.592-.3,0-1.04.032-1.36.032-.464,0-1.088-.048-1.488-.032-.512.016-.528.5-.016.576C61.728-6.688,61.808-6.48,62.176-5.76ZM75.856-4c-.24-.016-.464-.032-.624-.032-1.808,0-3.9.816-3.9,2.288A1.821,1.821,0,0,0,73.04.24a4.4,4.4,0,0,0,2.736-1.328c.032.8.1,1.248.608,1.264A2.86,2.86,0,0,0,77.9-.208c.336-.192.336-.624,0-.608-.3,0-.768.016-.912-.24a.69.69,0,0,1-.048-.32c0-.192.048-2.672.048-3.712S76.624-7.7,74.72-7.7a6.47,6.47,0,0,0-2.784,1.248.553.553,0,0,0-.224.48,1.629,1.629,0,0,0,.16.72c.208.48.576.384.7.048.144-.352.224-.8.384-1.1a1.068,1.068,0,0,1,1.088-.544c.784,0,1.744.448,1.808,2.032Zm0,1.7a.669.669,0,0,1-.192.576A2.24,2.24,0,0,1,73.872-.8,1.1,1.1,0,0,1,72.64-1.984c0-.832.736-1.344,1.84-1.36a5.928,5.928,0,0,1,1.264.064c.064.016.112.016.112.112Zm11.76.352C87.12-.8,86.88-.7,86-.528c-.528.112-.48.576.032.576.224,0,.992-.048,1.712-.048.7,0,1.136.032,1.6.032.576,0,.624-.5.064-.576-1.152-.192-1.232-.32-.912-1.2.352-1.008.688-1.84.944-2.464.048-.08.1-.144.176-.144h3.36c.224,0,.272.032.32.176.384.944.96,2.3,1.184,2.96.128.368.08.528-.576.656-.576.1-.544.592.064.592C94.3.032,95.072,0,95.584,0c.624,0,1.232.032,1.6.032.576,0,.672-.512-.032-.592a1.373,1.373,0,0,1-1.264-1.024c-1.008-2.288-2.576-6.1-3.488-8.544a2.744,2.744,0,0,1-.224-.88c-.032-.192-.1-.24-.256-.24-.24,0-.784.544-.816.7-.032.1-.112.4-.256.752C90.144-8.128,88.3-3.552,87.616-1.952Zm3.728-7.216c.64,1.6,1.1,2.9,1.536,3.872.032.08.048.144-.144.144H89.888c-.1,0-.112-.016-.1-.1C90.192-6.176,91.04-8.448,91.344-9.168Zm9.68,6.4a11.126,11.126,0,0,1-.048,1.5c-.032.464-.08.576-.8.72-.48.08-.5.576.048.576.416,0,.864-.032,1.392-.032.576,0,1.1.032,1.456.032.512,0,.544-.5.08-.576-.8-.144-.864-.256-.88-.7a8.579,8.579,0,0,1-.048-1.28v-2.72a.54.54,0,0,1,.112-.416,2.576,2.576,0,0,1,1.808-.976,1.709,1.709,0,0,1,1.808,1.952v1.072c0,1.552-.032,1.92-.048,2.24-.016.512-.064.672-.912.832-.5.08-.5.576.08.576.3,0,.928-.032,1.344-.032.544,0,.976.032,1.488.032.528,0,.544-.5.048-.576-.7-.128-.8-.192-.8-.7v-3.68c0-1.792-.88-2.768-2.224-2.768a2.51,2.51,0,0,0-1.344.416,11.683,11.683,0,0,0-1.328.96,5.465,5.465,0,0,0-.08-1.12c-.032-.176-.1-.256-.24-.256a1.088,1.088,0,0,0-.416.176,5.629,5.629,0,0,1-1.28.64.259.259,0,0,0-.032.5c.736.24.816.384.816.864ZM116.672-7.44A2.862,2.862,0,0,0,115.44-7.7a4.629,4.629,0,0,0-2.432.736,4.029,4.029,0,0,0-2.032,3.584c0,2.08,1.408,3.584,2.864,3.584a4.542,4.542,0,0,0,2.8-1.248c.048.816.144,1.312.512,1.312A4,4,0,0,0,118.9-.3c.432-.256.3-.592-.016-.592-.112,0-.3.016-.368.016-.608,0-.64-.288-.64-1.632v-8.672a4,4,0,0,1,.16-1.376.233.233,0,0,0-.176-.3,2.38,2.38,0,0,0-.656.224,7.11,7.11,0,0,1-1.584.448c-.448.064-.432.48,0,.56.736.144.976.24,1.008.5a7.417,7.417,0,0,1,.048,1.072Zm-1.984.608a2.638,2.638,0,0,1,1.776.544.511.511,0,0,1,.208.464V-2.16a.8.8,0,0,1-.112.528,2.571,2.571,0,0,1-1.888.784c-1.52,0-2.368-1.44-2.368-3.056C112.3-5.856,113.168-6.832,114.688-6.832ZM50.176,19.448c.064,0,.08.032.08.112v2.608c0,.832-.016,1.1-.048,1.5-.032.512-.144.608-1.088.768-.544.064-.528.608,0,.608.384,0,.96-.048,1.76-.048.96,0,1.392.032,1.888.032.592,0,.624-.528.016-.592-.992-.16-1.088-.24-1.136-.8-.016-.288-.032-.608-.032-1.632v-5.28a13.978,13.978,0,0,1,.048-1.584c.048-.336.224-.512,1.12-.624.608-.064.592-.592.016-.592-.384,0-1.04.032-1.792.032-.848,0-1.552-.032-1.872-.032-.64,0-.608.512.016.576.928.144,1.04.256,1.072.72.016.3.032.5.032,1.552v1.712c0,.08,0,.128-.08.128H43.984c-.128,0-.144-.048-.144-.192V16.68c0-.848,0-1.2.032-1.5.032-.416.3-.544,1.168-.672.576-.08.576-.576.016-.576-.368,0-1.1.032-2.048.032-.8,0-1.472-.032-1.728-.032-.528,0-.56.512,0,.576.992.128,1.152.288,1.184.688.016.272.032.7.032,1.616V22.04c0,.928-.016,1.216-.032,1.568-.032.56-.208.7-1.136.832-.528.048-.544.592.016.592.272,0,1.1-.032,1.824-.032.784,0,1.584.032,1.9.032.592,0,.592-.544,0-.592-1.088-.112-1.168-.352-1.2-.832-.016-.288-.032-.608-.032-1.536v-2.48c0-.112.032-.144.128-.144ZM60.368,21c-.24-.016-.464-.032-.624-.032-1.808,0-3.9.816-3.9,2.288a1.821,1.821,0,0,0,1.712,1.984,4.4,4.4,0,0,0,2.736-1.328c.032.8.1,1.248.608,1.264a2.86,2.86,0,0,0,1.52-.384c.336-.192.336-.624,0-.608-.3,0-.768.016-.912-.24a.69.69,0,0,1-.048-.32c0-.192.048-2.672.048-3.712S61.136,17.3,59.232,17.3a6.47,6.47,0,0,0-2.784,1.248.553.553,0,0,0-.224.48,1.629,1.629,0,0,0,.16.72c.208.48.576.384.7.048.144-.352.224-.8.384-1.1a1.068,1.068,0,0,1,1.088-.544c.784,0,1.744.448,1.808,2.032Zm0,1.7a.669.669,0,0,1-.192.576,2.24,2.24,0,0,1-1.792.928,1.1,1.1,0,0,1-1.232-1.184c0-.832.736-1.344,1.84-1.36a5.928,5.928,0,0,1,1.264.064c.064.016.112.016.112.112Zm7.344-2.336c-.608-.24-1.088-.528-1.088-1.264,0-.544.272-1.088,1.216-1.088a1.447,1.447,0,0,1,1.376.688,2.712,2.712,0,0,1,.272.816c.08.432.576.352.576-.176a11.839,11.839,0,0,1,.16-2.016c.048-.256-.24-.272-.432-.128-.1.064-.176.192-.288.272-.048.032-.064.048-.176.016a3.248,3.248,0,0,0-1.056-.176,3.106,3.106,0,0,0-1.92.608,1.955,1.955,0,0,0,.624,3.536c.464.176,1.072.4,1.536.592a1.263,1.263,0,0,1,.848,1.184q0,1.3-1.392,1.3a1.792,1.792,0,0,1-1.824-1.072c-.064-.176-.192-.528-.224-.624-.144-.48-.64-.384-.592.112.08.8.128,1.408.128,1.968,0,.448.4.336.576.128.1-.128.176-.1.272-.048a3.131,3.131,0,0,0,1.3.256,3.385,3.385,0,0,0,1.728-.464,2.431,2.431,0,0,0,1.28-2.128,2,2,0,0,0-1.488-1.792Zm7.216-.272C75.1,18.68,75.856,18.1,76.7,18.1a1.865,1.865,0,0,1,1.9,1.84c0,.08-.016.144-.08.176a19.261,19.261,0,0,1-2.912.144,5.461,5.461,0,0,1-.592-.032C74.944,20.216,74.928,20.184,74.928,20.088ZM74.88,21a15.922,15.922,0,0,0,4.512-.352c.288-.08.608-.288.608-.576,0-.144-.08-.192-.176-.24A2.528,2.528,0,0,0,77.232,17.3a3.5,3.5,0,0,0-2.24.912,4.207,4.207,0,0,0-1.376,3.2c0,2.176,1.3,3.792,3.152,3.792a4.177,4.177,0,0,0,2.8-1.1c.4-.4.256-.848-.24-.544a3.093,3.093,0,0,1-1.792.576C75.984,24.136,74.912,23.128,74.88,21Zm8.576.288c.016.176.176.208.288.208a27.828,27.828,0,0,0,3.92-.176.9.9,0,0,0,.4-.7c0-.144-.048-.208-.384-.224-.48-.016-3.584.048-3.92.08A1.18,1.18,0,0,0,83.456,21.288Zm10.8-6.56c.128,0,.144.032.144.272v7.136c0,.816-.016,1.232-.032,1.424-.048.592-.16.768-1.328.9-.608.048-.544.576-.016.576.288,0,1.472-.032,2.064-.032.624,0,1.024.032,1.984.032.72,0,.72-.512.08-.576-1.232-.128-1.36-.32-1.376-.9-.016-.352-.032-.672-.032-1.344V14.952c0-.176.016-.192.112-.192,2.752,0,3.152-.032,3.376.1.208.128.336.448.416,1.168.08.64.64.64.64-.1a9.55,9.55,0,0,1,.224-2.032.276.276,0,0,0-.432-.32,1.466,1.466,0,0,1-1.184.384H91.7c-.48,0-.768-.032-.992-.352a.305.305,0,0,0-.528.16A19.086,19.086,0,0,1,90,16.152c-.064.576.464.576.624.048.3-1.008.48-1.3.768-1.392A16.633,16.633,0,0,1,94.256,14.728Zm8.144,5.36c.176-1.408.928-1.984,1.776-1.984a1.865,1.865,0,0,1,1.9,1.84c0,.08-.016.144-.08.176a19.261,19.261,0,0,1-2.912.144,5.461,5.461,0,0,1-.592-.032C102.416,20.216,102.4,20.184,102.4,20.088Zm-.048.912a15.922,15.922,0,0,0,4.512-.352c.288-.08.608-.288.608-.576,0-.144-.08-.192-.176-.24A2.528,2.528,0,0,0,104.7,17.3a3.5,3.5,0,0,0-2.24.912,4.207,4.207,0,0,0-1.376,3.2c0,2.176,1.3,3.792,3.152,3.792a4.177,4.177,0,0,0,2.8-1.1c.4-.4.256-.848-.24-.544a3.093,3.093,0,0,1-1.792.576C103.456,24.136,102.384,23.128,102.352,21Zm14.656-2.384a1.966,1.966,0,0,0-1.856-1.312,2.338,2.338,0,0,0-1.472.464c-.608.448-1.056.768-1.232.912a8.309,8.309,0,0,0-.08-1.1c-.032-.16-.128-.272-.24-.272a.626.626,0,0,0-.352.16,7.012,7.012,0,0,1-1.344.688.246.246,0,0,0,0,.48c.656.192.752.368.768.544a4.672,4.672,0,0,1,.048.88v2.352a11.521,11.521,0,0,1-.032,1.408c-.064.448-.144.5-.848.656-.432.08-.416.56.048.56.4,0,.96-.032,1.408-.032.432,0,1.216.032,1.5.032.464,0,.5-.5.1-.56-.8-.16-.9-.288-.928-.72-.016-.176-.048-.576-.048-1.184v-2.96c0-.128,0-.192.08-.272a2.357,2.357,0,0,1,1.792-.944c1.088,0,1.76.512,1.76,2.24V22.76c0,.624-.016.96-.032,1.12-.032.3-.08.416-.848.576-.5.08-.432.576.048.576.32,0,.9-.032,1.328-.032s1.216.032,1.456.032c.464,0,.512-.448.032-.56-.736-.176-.784-.24-.784-.88V19.928a2.888,2.888,0,0,0-.08-.72c0-.032.032-.064.064-.128a2.467,2.467,0,0,1,1.7-.688c1.04,0,1.744.512,1.744,2.144v1.792a12.253,12.253,0,0,1-.064,1.664c-.032.176-.16.336-.864.48-.464.08-.416.56.032.56.288,0,1.216-.032,1.536-.032.608,0,1.008.032,1.36.032.464,0,.512-.448.064-.56-.672-.16-.768-.176-.816-.5a9.174,9.174,0,0,1-.032-1.024V19.928A2.336,2.336,0,0,0,119.7,17.3a2.628,2.628,0,0,0-1.392.384C117.872,17.976,117.312,18.36,117.008,18.616ZM127.872,19.8c0-.272.016-.368.128-.448a2.836,2.836,0,0,1,2.048-.96c1.12,0,2.272.864,2.272,2.9,0,1.824-.768,3.056-2.56,3.056a3.092,3.092,0,0,1-1.792-.5c-.08-.064-.1-.112-.1-.24Zm0,5.216a2.934,2.934,0,0,0,1.184.256,4.66,4.66,0,0,0,2.7-.976,4.344,4.344,0,0,0,1.888-3.7,3.062,3.062,0,0,0-2.72-3.3c-.928,0-1.424.3-3.056,1.424-.016-.88-.1-1.424-.384-1.424a7.245,7.245,0,0,0-1.824.736c-.256.176-.24.464.08.528.8.144.848.288.88.672.016.256.032.736.032,1.408v5.3c0,1.184-.016,1.92-.048,2.352-.048.352-.08.464-.832.672-.416.1-.384.56.064.56.32,0,1.184-.128,2.512-.128h.64c.528,0,.528-.5,0-.576-.96-.144-1.12-.208-1.12-1.056ZM138.72,23.8c-.016-.208-.032-.5-.032-1.568V14.056a7.025,7.025,0,0,1,.1-1.472c.1-.288,0-.448-.192-.448a1.089,1.089,0,0,0-.4.16,6.942,6.942,0,0,1-1.712.512c-.384.08-.368.448-.016.528.784.176.912.256.976.688.032.32.032.64.032,1.872v6.1a15.1,15.1,0,0,1-.048,1.824c-.064.352-.128.512-.816.64-.48.08-.416.576.048.576.528,0,.816-.032,1.5-.032.5,0,1.072.032,1.392.032.512,0,.544-.5.064-.576C138.848,24.312,138.752,24.168,138.72,23.8Zm8.352-2.8c-.24-.016-.464-.032-.624-.032-1.808,0-3.9.816-3.9,2.288a1.821,1.821,0,0,0,1.712,1.984,4.4,4.4,0,0,0,2.736-1.328c.032.8.1,1.248.608,1.264a2.86,2.86,0,0,0,1.52-.384c.336-.192.336-.624,0-.608-.3,0-.768.016-.912-.24a.69.69,0,0,1-.048-.32c0-.192.048-2.672.048-3.712s-.368-2.608-2.272-2.608a6.47,6.47,0,0,0-2.784,1.248.553.553,0,0,0-.224.48,1.629,1.629,0,0,0,.16.72c.208.48.576.384.7.048.144-.352.224-.8.384-1.1a1.068,1.068,0,0,1,1.088-.544c.784,0,1.744.448,1.808,2.032Zm0,1.7a.669.669,0,0,1-.192.576,2.24,2.24,0,0,1-1.792.928,1.1,1.1,0,0,1-1.232-1.184c0-.832.736-1.344,1.84-1.36a5.928,5.928,0,0,1,1.264.064c.064.016.112.016.112.112Zm6.848-4.208h.832c.7,0,.88-.032.944-.112a1.111,1.111,0,0,0,.224-.64c0-.112-.032-.16-.128-.144s-.5.032-.864.032H153.92a9.061,9.061,0,0,1,.144-2.5c.128-.3-.048-.464-.32-.288a3.355,3.355,0,0,0-.9.88,7.621,7.621,0,0,0-.128,1.9,3.217,3.217,0,0,0-.976.064c-.1.048-.432.4-.432.576,0,.1.032.192.144.208.128.016.336.016,1.056.016h.208V22.9c0,1.984.736,2.32,1.5,2.32a2.511,2.511,0,0,0,1.6-.608c.432-.416.24-.736-.1-.64a2.033,2.033,0,0,1-.864.16c-.672,0-.944-.416-.944-1.392Zm5.968,1.6c.176-1.408.928-1.984,1.776-1.984a1.865,1.865,0,0,1,1.9,1.84c0,.08-.016.144-.08.176a19.262,19.262,0,0,1-2.912.144,5.461,5.461,0,0,1-.592-.032C159.9,20.216,159.888,20.184,159.888,20.088ZM159.84,21a15.922,15.922,0,0,0,4.512-.352c.288-.08.608-.288.608-.576,0-.144-.08-.192-.176-.24a2.528,2.528,0,0,0-2.592-2.528,3.5,3.5,0,0,0-2.24.912,4.207,4.207,0,0,0-1.376,3.2c0,2.176,1.3,3.792,3.152,3.792a4.177,4.177,0,0,0,2.8-1.1c.4-.4.256-.848-.24-.544a3.093,3.093,0,0,1-1.792.576C160.944,24.136,159.872,23.128,159.84,21Z" transform="translate(323 870)" fill="#b7a997"/>
    <line id="線_10" data-name="線 10" x2="208" transform="translate(256.5 834.5)" fill="none" stroke="#b7a997" stroke-width="1"/>
  </g>
</svg>
