<svg xmlns="http://www.w3.org/2000/svg" width="203" height="42.87" viewBox="0 0 203 42.87">
  <g id="グループ_91" data-name="グループ 91" transform="translate(-340.5 -1707.13)">
    <path id="パス_32" data-name="パス 32" d="M27.09-21.81c1.14,0,1.59-.24,1.59-.66,0-.69-2.07-2.4-2.64-2.4-.42,0-1.2.99-1.8,1.86H6.54a7.519,7.519,0,0,0-2.46-1.23c-.39-.06-.6.09-.57.57.18,3.12.27,6.66.24,9.42C3.69-7.56,2.91-3.36.78.54c-.51.9.39,1.44,1.08.66C5.4-2.82,5.73-8.82,5.88-13.47c.12-3.06.15-5.4.09-8.34ZM12.9-16.98c0-1.02.03-2.01.03-2.46.75-.12,1.2-.39,1.2-.81,0-.66-1.98-.87-2.88-.87a.347.347,0,0,0-.39.42c.09.84.15,2.34.15,3.72H7.32c-.39,0-.66.15-.66.6,0,.48.27.6.66.6h2.91A16.094,16.094,0,0,1,6.15-9.15c-.63.75-.03,1.35.78.78a14.636,14.636,0,0,0,4.08-4.2c-.03,1.77-.12,4.32-.12,4.8a.689.689,0,0,0,.75.78c.81,0,1.26-.21,1.26-.87,0-.75-.03-5.28-.03-6.12v-1.8h3.27c.66,0,1.14-.15,1.14-.57a4.1,4.1,0,0,0-2.01-2.07c-.33,0-.87.72-1.35,1.44Zm1.71,2.22c-.72-.18-.96.36-.6.84.27.39.57.81.81,1.2.33.6.54,1.2,1.17,1.17a1.086,1.086,0,0,0,1.14-1.2C17.1-13.86,15.84-14.43,14.61-14.76ZM18.27.12V-3.03h6.15c.99,0,1.53-.21,1.53-.63,0-.66-2.01-2.31-2.55-2.31-.39,0-1.11.93-1.68,1.74H18.27V-5.7c.93-.21,1.59-.45,1.59-1.08,0-.78-2.91-.87-3.42-.87-.27,0-.45.15-.42.42.15,1.47.21,4.92.18,7.35H12.27V-4.47c.93-.21,1.56-.45,1.56-1.08,0-.78-2.85-.87-3.36-.87a.377.377,0,0,0-.42.45c.15,1.26.18,4.05.15,6.09H5.31c-.39,0-.66.15-.66.6,0,.48.27.6.66.6H27.3c1.14,0,1.59-.24,1.59-.66,0-.69-2.07-2.4-2.64-2.4-.42,0-1.2.99-1.8,1.86ZM27.3-15.9c.78,0,1.29-.18,1.26-.6,0-.6-1.65-2.19-2.19-2.19-.36,0-.99.81-1.5,1.59H23.16c0-.99.03-1.92.03-2.34.75-.12,1.2-.39,1.2-.81,0-.66-1.98-.87-2.88-.87a.347.347,0,0,0-.39.42c.09.81.15,2.25.15,3.6H18.09c-.39,0-.66.15-.66.6,0,.48.27.6.66.6h2.55a13.859,13.859,0,0,1-5.1,6.27c-.75.69-.15,1.35.66.84a13.574,13.574,0,0,0,5.07-4.23c-.03,1.77-.12,4.71-.12,5.25a.689.689,0,0,0,.75.78c.81,0,1.26-.21,1.26-.87,0-.75-.03-5.28-.03-6.12v-.75a9.511,9.511,0,0,0,3.3,5.28c.54.39.87.24,1.23-.27a2.19,2.19,0,0,1,1.17-.72c.6-.21.6-.63-.03-.87a8.915,8.915,0,0,1-5.04-4.59Zm12.57,3.72V-14.4c0-.57,0-3.06.06-3.87l.18-.03h6.96c.06,2.22.03,4.29-.06,6.12Zm16.8-6.12c0,1.35-.03,4.14-.03,6.12H49.08c.09-1.77.09-3.93.12-6.12Zm-.06,7.32v1.02a.923.923,0,0,0,.96,1.02c.84,0,1.35-.21,1.35-1.14,0-1.11-.12-5.61-.03-7.86.54-.21,1.05-.48,1.05-.87,0-.66-1.83-1.98-2.46-1.98-.33,0-.93.69-1.38,1.29H49.2v-3.33c.96-.24,1.29-.54,1.32-.96.06-.66-2.43-.96-3.42-.96-.33,0-.42.12-.39.48.12,1.53.3,3.63.33,4.62v.15H40.62a7.033,7.033,0,0,0-2.64-1.11.358.358,0,0,0-.42.39c.3,2.79.12,8.58.12,10.65a.728.728,0,0,0,.81.81c.93,0,1.41-.3,1.41-.93v-1.29h7.02l-.06.57A11.986,11.986,0,0,1,45.09-5.1,10.053,10.053,0,0,1,42.9-8.43c.15-.21.27-.36.36-.51.33-.48.3-.66-.24-1.08-.51-.39-.72-.33-.93.03a10.632,10.632,0,0,1-1.32,1.74,16.109,16.109,0,0,1-2.64,2.01c-.45.27-.54.48-.24.81.3.36.87,1.02,1.14,1.35s.57.33.84-.06c.3-.36,1.08-1.77,1.68-2.58l.48-.6a13.526,13.526,0,0,0,2.13,3.48C42.12-1.5,38.97.06,34.83.9c-1.02.21-.72,1.26.12,1.14,4.92-.72,8.34-2.25,10.59-4.5,3.45,3,8.28,4.14,12.96,4.29a1.38,1.38,0,0,0,1.44-.78A2.862,2.862,0,0,1,61.23.12c.78-.3.66-1.05-.27-.99-5.49.09-10.71-.48-14.31-2.91A12.966,12.966,0,0,0,48.9-9.81c.06-.36.09-.75.12-1.17Z" transform="translate(340 1732)" fill="#8d857b"/>
    <path id="パス_33" data-name="パス 33" d="M5.024-10.272c.128,0,.144.032.144.272v7.136c0,.816-.016,1.232-.032,1.424-.048.592-.16.768-1.328.9C3.2-.5,3.264.032,3.792.032,4.08.032,5.264,0,5.856,0,6.48,0,6.88.032,7.84.032c.72,0,.72-.512.08-.576-1.232-.128-1.36-.32-1.376-.9-.016-.352-.032-.672-.032-1.344v-7.264c0-.176.016-.192.112-.192,2.752,0,3.152-.032,3.376.1.208.128.336.448.416,1.168.08.64.64.64.64-.1A9.55,9.55,0,0,1,11.28-11.1a.276.276,0,0,0-.432-.32,1.466,1.466,0,0,1-1.184.384h-7.2c-.48,0-.768-.032-.992-.352a.305.305,0,0,0-.528.16A19.087,19.087,0,0,1,.768-8.848c-.064.576.464.576.624.048.3-1.008.48-1.3.768-1.392A16.633,16.633,0,0,1,5.024-10.272ZM16.112-5.744a2.329,2.329,0,0,1,1.808-.88c1.056,0,1.824.464,1.824,2.1V-2.56c0,.976-.016,1.3-.032,1.44-.032.352-.16.464-.7.592-.512.112-.448.56.08.56C19.712.032,19.952,0,20.4,0c.4,0,.9.032,1.232.032.608,0,.56-.48.016-.576-.56-.112-.656-.256-.672-.576-.016-.256-.016-.384-.016-.56V-5.136A2.3,2.3,0,0,0,18.688-7.7a2.624,2.624,0,0,0-1.28.352,8.349,8.349,0,0,0-1.248.864c-.1.08-.128.048-.128-.016v-4.176a8.42,8.42,0,0,1,.128-1.888.234.234,0,0,0-.208-.3,1.158,1.158,0,0,0-.544.208,4.178,4.178,0,0,1-1.5.48c-.544.064-.432.512-.08.544.832.176.928.256.96.608.032.368.032.7.032,1.76v6.32c0,.816,0,1.12-.032,1.7-.032.528-.16.608-.64.7-.592.1-.592.576,0,.576.384,0,.672-.032,1.28-.032.592,0,.976.032,1.344.032.48,0,.544-.48,0-.576-.64-.128-.672-.256-.7-.688-.016-.192-.032-.672-.032-1.5V-5.312C16.032-5.568,16.032-5.648,16.112-5.744Zm10,.832C26.288-6.32,27.04-6.9,27.888-6.9a1.865,1.865,0,0,1,1.9,1.84c0,.08-.016.144-.08.176a19.262,19.262,0,0,1-2.912.144,5.461,5.461,0,0,1-.592-.032C26.128-4.784,26.112-4.816,26.112-4.912ZM26.064-4a15.922,15.922,0,0,0,4.512-.352c.288-.08.608-.288.608-.576,0-.144-.08-.192-.176-.24A2.528,2.528,0,0,0,28.416-7.7a3.5,3.5,0,0,0-2.24.912,4.207,4.207,0,0,0-1.376,3.2c0,2.176,1.3,3.792,3.152,3.792a4.177,4.177,0,0,0,2.8-1.1c.4-.4.256-.848-.24-.544a3.093,3.093,0,0,1-1.792.576C27.168-.864,26.1-1.872,26.064-4Zm23.28-1.552c.064,0,.08.032.08.112v2.608c0,.832-.016,1.1-.048,1.5-.032.512-.144.608-1.088.768-.544.064-.528.608,0,.608.384,0,.96-.048,1.76-.048.96,0,1.392.032,1.888.032.592,0,.624-.528.016-.592-.992-.16-1.088-.24-1.136-.8-.016-.288-.032-.608-.032-1.632v-5.28a13.978,13.978,0,0,1,.048-1.584c.048-.336.224-.512,1.12-.624.608-.064.592-.592.016-.592-.384,0-1.04.032-1.792.032-.848,0-1.552-.032-1.872-.032-.64,0-.608.512.016.576.928.144,1.04.256,1.072.72.016.3.032.5.032,1.552v1.712c0,.08,0,.128-.08.128H43.152c-.128,0-.144-.048-.144-.192V-8.32c0-.848,0-1.2.032-1.5.032-.416.3-.544,1.168-.672.576-.08.576-.576.016-.576-.368,0-1.1.032-2.048.032-.8,0-1.472-.032-1.728-.032-.528,0-.56.512,0,.576.992.128,1.152.288,1.184.688.016.272.032.7.032,1.616V-2.96c0,.928-.016,1.216-.032,1.568-.032.56-.208.7-1.136.832-.528.048-.544.592.016.592.272,0,1.1-.032,1.824-.032.784,0,1.584.032,1.9.032.592,0,.592-.544,0-.592-1.088-.112-1.168-.352-1.2-.832-.016-.288-.032-.608-.032-1.536v-2.48c0-.112.032-.144.128-.144ZM56.624,0c.576,0,.96.032,1.36.032.56,0,.56-.512.064-.592-.736-.144-.8-.272-.8-1.024V-5.3a11.147,11.147,0,0,1,.128-2.048c.032-.24-.064-.352-.224-.352a.845.845,0,0,0-.4.16,4.02,4.02,0,0,1-1.36.5c-.384.064-.368.416-.08.528.64.256.688.32.7.576a4.318,4.318,0,0,1,.032.72V-1.5c0,.672-.1.8-.784.944-.512.1-.5.592.048.592C55.6.032,56.176,0,56.624,0Zm.032-11.568a.91.91,0,0,0-.9.96.846.846,0,0,0,.848.9.9.9,0,0,0,.9-.976A.87.87,0,0,0,56.656-11.568Zm6.9,6.928c-.608-.24-1.088-.528-1.088-1.264,0-.544.272-1.088,1.216-1.088a1.447,1.447,0,0,1,1.376.688,2.712,2.712,0,0,1,.272.816c.08.432.576.352.576-.176a11.839,11.839,0,0,1,.16-2.016c.048-.256-.24-.272-.432-.128-.1.064-.176.192-.288.272-.048.032-.064.048-.176.016A3.248,3.248,0,0,0,64.112-7.7a3.106,3.106,0,0,0-1.92.608,2.06,2.06,0,0,0-.88,1.664,2.071,2.071,0,0,0,1.5,1.872c.464.176,1.072.4,1.536.592A1.263,1.263,0,0,1,65.2-1.776q0,1.3-1.392,1.3a1.792,1.792,0,0,1-1.824-1.072c-.064-.176-.192-.528-.224-.624-.144-.48-.64-.384-.592.112.08.8.128,1.408.128,1.968,0,.448.4.336.576.128.1-.128.176-.1.272-.048a3.131,3.131,0,0,0,1.3.256,3.385,3.385,0,0,0,1.728-.464,2.431,2.431,0,0,0,1.28-2.128A2,2,0,0,0,64.96-4.144Zm7.984-1.872h.832c.7,0,.88-.032.944-.112a1.111,1.111,0,0,0,.224-.64c0-.112-.032-.16-.128-.144s-.5.032-.864.032H71.536a9.061,9.061,0,0,1,.144-2.5c.128-.3-.048-.464-.32-.288a3.355,3.355,0,0,0-.9.88,7.621,7.621,0,0,0-.128,1.9,3.217,3.217,0,0,0-.976.064c-.1.048-.432.4-.432.576,0,.1.032.192.144.208.128.016.336.016,1.056.016h.208V-2.1c0,1.984.736,2.32,1.5,2.32a2.511,2.511,0,0,0,1.6-.608c.432-.416.24-.736-.1-.64a2.033,2.033,0,0,1-.864.16c-.672,0-.944-.416-.944-1.392ZM80.384-7.7a4.357,4.357,0,0,0-2.832,1.088,3.813,3.813,0,0,0-1.36,3.12A3.534,3.534,0,0,0,79.584.288,4.282,4.282,0,0,0,82.8-1.248a4.2,4.2,0,0,0,.944-2.864A3.472,3.472,0,0,0,80.384-7.7ZM82.4-3.5C82.4-1.68,81.536-.5,80.256-.5,78.272-.5,77.52-2.288,77.52-4c0-1.136.384-2.88,2.176-2.88C81.7-6.88,82.4-4.928,82.4-3.5ZM91.216-7.7c-.512,0-.992.256-2.32,1.568a8.136,8.136,0,0,0-.1-1.264c-.032-.176-.112-.3-.24-.3a.51.51,0,0,0-.272.1,13.767,13.767,0,0,1-1.456.736c-.256.112-.256.384,0,.48.608.192.768.3.784.544a5.293,5.293,0,0,1,.048,1.056V-2.16a6.237,6.237,0,0,1-.048,1.008c-.032.384-.064.448-.736.624-.432.112-.384.56.048.56.384,0,.8-.032,1.488-.032S89.664.032,90,.032c.448,0,.512-.448.032-.544-.928-.176-1.072-.24-1.1-.7-.016-.24-.032-.56-.032-.96V-5.328a.337.337,0,0,1,.08-.24,1.822,1.822,0,0,1,1.376-.768,1.1,1.1,0,0,1,.848.4c.24.272.272.3.416.3.16,0,.3-.176.352-.3a1.615,1.615,0,0,0,.224-.848A.927.927,0,0,0,91.216-7.7ZM96.192-5.76c.576,1.248,1.568,3.52,2.336,5.376a.336.336,0,0,1-.016.256C98.24.4,97.984.928,97.68,1.5c-.384.64-.576.976-.976,1.6a2.617,2.617,0,0,0-.48,1.04c0,.272.352.576.9.576a.389.389,0,0,0,.432-.3c.128-.4.368-1.12,1.136-3.024,1.52-3.632,2.688-6.1,3.216-7.3.272-.592.384-.752.976-.9.576-.128.512-.624-.032-.608-.416,0-.912.032-1.264.032-.464,0-.96-.032-1.264-.032-.528.016-.528.5-.016.592.8.16.88.272.72.848-.16.464-.848,2.24-1.712,4.144-.032.064-.08.048-.128-.032-.416-1.056-1.168-2.88-1.776-4.368-.128-.352-.048-.448.576-.592.448-.1.432-.592-.08-.592-.3,0-1.04.032-1.36.032-.464,0-1.088-.048-1.488-.032-.512.016-.528.5-.016.576C95.744-6.688,95.824-6.48,96.192-5.76Z" transform="translate(427 1734)" fill="#8d857b"/>
    <line id="線_14" data-name="線 14" x2="203" transform="translate(340.5 1749.5)" fill="none" stroke="#8c857c" stroke-width="1"/>
  </g>
</svg>
