<svg xmlns="http://www.w3.org/2000/svg" width="302" height="77.689" viewBox="0 0 302 77.689">
  <g id="グループ_74" data-name="グループ 74" transform="translate(-23.5 -2123.839)">
    <path id="パス_34" data-name="パス 34" d="M18.69-4.89a13.144,13.144,0,0,1-2.61-4.62H27c1.2,0,1.68-.27,1.68-.69,0-.72-2.19-2.52-2.79-2.52-.45,0-1.29,1.08-1.92,2.01H9.54v-2.91H22.59c1.05,0,1.56-.24,1.56-.63,0-.69-2.04-2.4-2.61-2.4-.42,0-1.17.96-1.77,1.83H9.54l.03-2.85H22.26c1.08,0,1.59-.24,1.59-.63-.03-.69-2.07-2.4-2.64-2.4-.42,0-1.17.96-1.77,1.83H9.57c.03-1.17.06-2.19.09-2.76l.3-.06H23.97c1.08,0,1.59-.24,1.59-.66,0-.72-2.1-2.46-2.67-2.46-.45,0-1.23,1.02-1.83,1.92H10.5a7.656,7.656,0,0,0-2.82-1.2.409.409,0,0,0-.42.42c.24,2.34.27,7.89.21,12.96H1.98c-.39,0-.66.15-.66.6,0,.48.27.6.66.6H7.47c-.03,3.39-.09,6.39-.09,7.92-1.38.3-2.91.54-4.53.75-.24.03-.36.12-.33.39.27,1.62.78,3,1.41,3,.51,0,.78-.66.9-1.35A43.1,43.1,0,0,0,15.84-2.79c1.17-.63.87-1.62-.39-1.11A53.083,53.083,0,0,1,9.6-2.07L9.57-9.51H14.7C16.35-3.21,20.04.63,25.8,1.89c.9.21,1.08,0,1.47-.51A2.339,2.339,0,0,1,28.53.51c.69-.27.78-.84-.15-.93A15.061,15.061,0,0,1,19.5-4.05a22.45,22.45,0,0,0,5.64-2.73c.84.36,1.35.33,1.47-.06.18-.54-.99-1.71-1.86-2.25-.3-.21-.48-.06-.69.15A18.621,18.621,0,0,1,18.69-4.89Zm33.99-18A19.605,19.605,0,0,1,55.2-20.4c1.02,1.2,1.68,2.19,2.67,1.92a1.475,1.475,0,0,0,.96-2.01c-.51-1.8-3.45-3.24-5.61-3.54C52.29-24.15,52.11-23.4,52.68-22.89ZM37.11-16.47a15.887,15.887,0,0,0,6.81-5.19c.87.18,1.53.09,1.56-.48.03-.66-2.1-1.77-3.06-2.07a.452.452,0,0,0-.6.36c-.99,2.61-3.3,4.8-5.43,6.6C35.91-16.65,36.36-16.08,37.11-16.47Zm6.78,15V-3.66c0-.51-.03-3.24.03-4.11h9.54c0,1.29-.03,4.23-.03,6.3Zm.48-7.5a6.905,6.905,0,0,0-2.46-.99.358.358,0,0,0-.42.39c.3,2.82.12,8.76.12,10.86a.738.738,0,0,0,.84.81c.96,0,1.44-.3,1.44-.93V-.27H53.4V.72a.923.923,0,0,0,.96,1.02c.87,0,1.38-.21,1.38-1.14,0-1.14-.12-5.61-.03-7.83.51-.21.99-.48.99-.87,0-.63-1.8-1.98-2.43-1.98-.3,0-.81.57-1.23,1.11Zm17.25-1.8c-4.65-.93-9.3-3.36-12-7.41.36-.06.54-.21.54-.42,0-.51-1.47-1.08-2.61-1.29a.56.56,0,0,0-.69.33C44.1-14.1,39.84-10.23,34.62-6.93c-.75.45-.3,1.35.48.99A33.366,33.366,0,0,0,48.63-17.37,18.552,18.552,0,0,0,59.1-8.34c.75.24.99.06,1.41-.57a2.372,2.372,0,0,1,1.29-.9C62.4-10.05,62.58-10.59,61.62-10.77ZM75.03-6c-.87-.21-1.17.45-.66,1.02a20.1,20.1,0,0,1,1.8,2.28c.78,1.14,1.2,2.04,2.04,1.92a1.352,1.352,0,0,0,1.2-1.68C79.2-4.14,77.19-5.46,75.03-6ZM87.3-9c0-.9,0-1.74.03-2.43.48-.09,1.26-.3,1.26-.78,0-.54-1.59-.78-3.09-.78-.36,0-.45.18-.39.54.09.6.15,2.01.18,3.45H68.19c-.39,0-.66.15-.66.6,0,.48.27.6.66.6H85.32l.06,2.34c0,1.65,0,3.09-.06,4.29-.03.66-.33.87-.96.9-.33,0-1.26-.09-1.89-.15-.6-.03-.75.72-.03.99,1.89.69,1.74,1.56,2.67,1.56A2.118,2.118,0,0,0,87.33-.12c-.03-2.34-.03-5.22-.03-7.68h5.19c1.14,0,1.56-.24,1.56-.63,0-.69-2.04-2.4-2.61-2.4-.42,0-1.17.96-1.77,1.83Zm-5.28-5.7v-4.5h7.8c1.11,0,1.59-.24,1.59-.66,0-.69-2.07-2.43-2.64-2.43-.42,0-1.2,1.02-1.8,1.89H82.02v-2.52c.93-.21,1.59-.45,1.59-1.11,0-.78-2.94-.87-3.45-.87-.27,0-.45.15-.42.42.09.84.15,2.37.18,4.08H70.65c-.39,0-.66.15-.66.6,0,.48.27.6.66.6h9.3c.03,1.56.03,3.15,0,4.5H68.13c-.39,0-.66.15-.66.6,0,.48.27.6.66.6H92.79c1.2,0,1.65-.24,1.65-.66,0-.75-2.16-2.52-2.73-2.52-.45,0-1.26,1.08-1.89,1.98Zm33.6-.96c-1.41,4.02-5.73,9.87-8.61,9.87-.87,0-1.68-1.41-1.83-3.72a7.937,7.937,0,0,1,2.37-6.6,8.634,8.634,0,0,1,6.09-2.22,13.309,13.309,0,0,1,2.52.24A9.366,9.366,0,0,1,115.62-15.66Zm-1.89-4.17a11.43,11.43,0,0,0-7.35,2.67,9.783,9.783,0,0,0-3.15,8.34c.27,3.54,1.83,5.73,3.42,5.73,3.6,0,8.61-5.97,10.35-10.77a14.467,14.467,0,0,0,.84-3.69,7.392,7.392,0,0,1,4.65,7.14c0,4.92-3.36,7.11-8.55,8.13-.93.18-.87,1.11.18,1.11,6.18,0,10.8-2.97,10.8-8.73C124.92-15.3,120.9-19.83,113.73-19.83Zm23.25,5.52c0-1.02.03-2.16.03-3.3h6.51v3.3Zm.06-4.5c0-1.23.03-2.31.09-3h6.42v3Zm.93-4.2a7.348,7.348,0,0,0-2.85-1.29.407.407,0,0,0-.42.42c.51,4.59.12,21.3.12,25.08,0,.57.24.9.84.9.96,0,1.38-.39,1.38-1.08,0-1.23-.06-11.34-.06-12.57v-1.56h6.51v.84c0,.48.18,1.02.87,1.02.78,0,1.23-.24,1.23-1.17,0-1.11-.09-6.84-.03-9.06.51-.18.99-.45.99-.84,0-.66-1.68-1.92-2.25-1.92-.33,0-.87.66-1.29,1.23Zm12.93,8.7-.03-3.27v-.03h6.45v3.3Zm6.42-7.5v3h-6.45c0-.96.03-2.25.03-3Zm-5.58-1.2a6.088,6.088,0,0,0-2.7-1.29.358.358,0,0,0-.42.39c.3,2.94.12,9.54.09,11.76a.738.738,0,0,0,.84.81c.9,0,1.35-.27,1.35-.93v-.84h6.42v1.71c0,3.06.09,7.44-.06,9.54-.06.93-.39,1.2-1.23,1.2-.87,0-2.55-.21-2.85-.21a.5.5,0,0,0-.06.99c2.49.6,1.89,1.92,3.09,1.92A2.872,2.872,0,0,0,159.3-.69c0-6.69-.03-15.33.12-20.46.66-.27,1.29-.6,1.29-.99,0-.57-2.01-2.28-2.76-2.28-.21,0-.87.78-1.38,1.41Zm23.43.9c.39.9.63,1.68,1.44,1.74a1.413,1.413,0,0,0,1.53-1.38c.06-1.41-1.47-2.43-3.06-3.06-.87-.36-1.23.3-.87.93C174.54-23.31,174.9-22.68,175.17-22.11ZM171.6-6.15V-9.57h5.64v3.42Zm5.64-8.1v3.48h-5.61c.03-1.38.06-2.79.09-3.48Zm-4.68-1.2a7.86,7.86,0,0,0-2.76-1.2c-.27,0-.48.18-.45.42.42,3.63.12,14.67.12,17.55a.738.738,0,0,0,.81.84c.93,0,1.38-.33,1.38-.99,0-.63-.03-3.81-.03-6.12h5.61c0,1.26-.03,2.49-.06,3.3-.06.78-.3,1.05-.87,1.05-.45,0-1.41-.09-1.59-.09-.57,0-.66.66-.06.96,1.41.57.81,1.68,2.04,1.68a2.33,2.33,0,0,0,2.46-2.58c.03-4.38-.03-9.81.06-13.08.6-.21,1.11-.51,1.11-.9,0-.54-1.83-2.07-2.52-2.07-.21,0-.81.66-1.26,1.23Zm12.57,1.41c.93-.15,1.44-.48,1.44-.93,0-.72-2.13-.84-3.36-.84-.27,0-.45.12-.39.42a60.476,60.476,0,0,1,.24,6.6c0,1.11-.18,5.31-.18,6.06,0,.54.36.78.87.78.9,0,1.44-.21,1.44-.87,0-.72-.06-4.98-.06-5.97Zm3.72-2.7c-.39,0-.51.15-.45.51.3,2.28.42,12.3.24,14.7-.06.78-.36,1.17-1.47,1.17-.63,0-1.44-.06-1.92-.09-.6-.03-.69.72-.03.9a3.933,3.933,0,0,1,1.71.9c.51.48.72.75,1.44.75A2.322,2.322,0,0,0,190.8-.3c0-5.04-.06-11.58,0-14.7.69-.12,1.35-.36,1.35-.81C192.15-16.41,190.44-16.74,188.85-16.74Zm-5.64-2.91.03-.03a11.131,11.131,0,0,0,3.15-3.12c.9.03,1.38-.18,1.38-.63-.03-.54-1.8-1.47-2.91-1.71-.3-.09-.48.12-.51.39a13.51,13.51,0,0,1-2.01,4.44.759.759,0,0,0-.06.66H167.04c-.39,0-.66.15-.66.6,0,.48.27.6.66.6h25.17c1.23,0,1.74-.3,1.74-.72,0-.78-2.28-2.64-2.91-2.64-.48,0-1.35,1.17-2.04,2.16Zm24.72,14.4v-7.86h3.51l-.03,7.86Zm-5.25-7.14v-.72h3.24v7.86h-3.21Zm3.24-8.91v6.99h-3.24c0-2.25.03-5.64.12-6.93.12-.03.24-.03.33-.06Zm5.55,0v6.99h-3.54v-6.36c.39-.15.6-.33.6-.63Zm-7.89-1.2a8.424,8.424,0,0,0-2.73-1.14.409.409,0,0,0-.42.42c.45,4.14.12,18.39.12,21.75,0,.57.27.87.81.87.93,0,1.35-.36,1.35-1.02V-4.05h8.67v1.38a.917.917,0,0,0,.93,1.02c.84,0,1.41-.21,1.41-1.14,0-2.04-.3-14.22-.09-18.09.54-.24,1.05-.54,1.05-.93,0-.66-1.8-2.01-2.43-2.01-.33,0-.93.69-1.38,1.32Zm11.37.99c-.39,0-.66.15-.66.6,0,.48.27.6.66.6h5.1c.03,1.53.09,5.28.09,9.27,0,2.73.03,7.56-.06,9.42-.06.87-.42,1.14-1.23,1.14-.51,0-1.44-.12-2.34-.21-.66-.06-.78.81-.09,1.02,2.64.72,2.31,1.77,3.33,1.77a2.427,2.427,0,0,0,2.52-2.55c.03-6.18-.06-14.43.06-18.96.84-.21,1.41-.48,1.44-.9h2.25c.99,0,1.62-.27,1.62-.72,0-.75-2.16-2.64-2.79-2.64-.48,0-1.35,1.17-2.01,2.16Z" transform="translate(23.5 2149)" fill="#8d857b"/>
    <path id="パス_35" data-name="パス 35" d="M2.688,0c.72,0,1.344.032,1.824.032.656,0,.656-.544.1-.592C3.344-.752,3.2-.864,3.216-1.712c.016-1.232.192-4.416.336-7.072.016-.112.08-.112.112-.048,1.392,2.88,2.56,5.632,3.088,6.88A12.228,12.228,0,0,1,7.44-.112c.128.336.512.4.7-.08.288-.656.48-1.152,1.008-2.192C10.144-4.352,11.44-6.9,12.432-8.8c.032-.032.08-.064.08.064.016,1.232.032,5.76-.016,7.28-.016.56-.064.752-.912.9-.64.1-.624.592,0,.592C11.84.032,12.72,0,13.344,0c.752,0,1.1.032,1.728.032.7,0,.7-.512.1-.592C14.064-.72,14-.816,13.936-1.648c-.08-1.12-.144-7.136-.112-7.952.016-.624.24-.736,1.344-.88.592-.064.624-.608-.016-.608-.656,0-1.744.016-1.984.048-.288.032-.48.192-1.072,1.3-1.344,2.576-3.5,6.8-3.776,7.28-.048.08-.1.08-.128.016-.448-.9-2.624-5.44-3.248-6.672A9.956,9.956,0,0,0,4.1-10.608c-.16-.24-.256-.352-.464-.4-.592-.08-1.92-.048-2.336-.048-.624,0-.592.512-.064.56,1.584.176,1.6.48,1.568,1.1C2.736-8.112,2.4-2.88,2.224-1.6,2.128-.88,2-.736,1.04-.544.48-.48.5.032,1.088.032,1.392.032,2.144,0,2.688,0ZM22.08-7.7a4.357,4.357,0,0,0-2.832,1.088,3.813,3.813,0,0,0-1.36,3.12A3.534,3.534,0,0,0,21.28.288,4.282,4.282,0,0,0,24.5-1.248a4.2,4.2,0,0,0,.944-2.864A3.472,3.472,0,0,0,22.08-7.7ZM24.1-3.5C24.1-1.68,23.232-.5,21.952-.5c-1.984,0-2.736-1.792-2.736-3.5,0-1.136.384-2.88,2.176-2.88C23.392-6.88,24.1-4.928,24.1-3.5Zm5.264.736a11.126,11.126,0,0,1-.048,1.5c-.032.464-.08.576-.8.72-.48.08-.5.576.048.576.416,0,.864-.032,1.392-.032.576,0,1.1.032,1.456.032.512,0,.544-.5.08-.576-.8-.144-.864-.256-.88-.7a8.58,8.58,0,0,1-.048-1.28v-2.72a.54.54,0,0,1,.112-.416A2.576,2.576,0,0,1,32.48-6.64a1.709,1.709,0,0,1,1.808,1.952v1.072c0,1.552-.032,1.92-.048,2.24-.016.512-.064.672-.912.832-.5.08-.5.576.08.576.3,0,.928-.032,1.344-.032.544,0,.976.032,1.488.032.528,0,.544-.5.048-.576-.7-.128-.8-.192-.8-.7v-3.68c0-1.792-.88-2.768-2.224-2.768a2.51,2.51,0,0,0-1.344.416,11.683,11.683,0,0,0-1.328.96,5.465,5.465,0,0,0-.08-1.12c-.032-.176-.1-.256-.24-.256a1.088,1.088,0,0,0-.416.176,5.629,5.629,0,0,1-1.28.64.259.259,0,0,0-.032.5c.736.24.816.384.816.864ZM43.872-7.376H41.44c-.72,0-.912-.016-1.088-.24a.259.259,0,0,0-.448.048A12.613,12.613,0,0,0,39.072-5.5c-.112.512.272.56.48.224.48-.752.72-1.088,1.072-1.088,1.68.016,2.576-.016,3.088-.064-.5.768-3.456,4.608-4.1,5.328-.3.368-.528.592-.528.752,0,.144.08.24.416.32.528.08,2.512.128,3.872.128a3.236,3.236,0,0,0,1.568-.272,4.273,4.273,0,0,0,.944-2.256c0-.384-.32-.416-.512-.064-.512,1.088-.9,1.568-1.552,1.568a21.065,21.065,0,0,1-2.832-.144c-.208-.032-.224-.16-.176-.224.88-1.2,2.3-3.024,3.776-5.024.464-.656.576-.768.608-.848.048-.112.048-.384-.208-.352A4.662,4.662,0,0,1,43.872-7.376ZM50.08-4.912c.176-1.408.928-1.984,1.776-1.984a1.865,1.865,0,0,1,1.9,1.84c0,.08-.016.144-.08.176a19.262,19.262,0,0,1-2.912.144,5.461,5.461,0,0,1-.592-.032C50.1-4.784,50.08-4.816,50.08-4.912ZM50.032-4a15.922,15.922,0,0,0,4.512-.352c.288-.08.608-.288.608-.576,0-.144-.08-.192-.176-.24A2.528,2.528,0,0,0,52.384-7.7a3.5,3.5,0,0,0-2.24.912,4.207,4.207,0,0,0-1.376,3.2c0,2.176,1.3,3.792,3.152,3.792a4.177,4.177,0,0,0,2.8-1.1c.4-.4.256-.848-.24-.544a3.093,3.093,0,0,1-1.792.576C51.136-.864,50.064-1.872,50.032-4Zm8.9,1.232a11.126,11.126,0,0,1-.048,1.5c-.032.464-.08.576-.8.72-.48.08-.5.576.048.576C58.544.032,58.992,0,59.52,0c.576,0,1.1.032,1.456.032.512,0,.544-.5.08-.576-.8-.144-.864-.256-.88-.7a8.58,8.58,0,0,1-.048-1.28v-2.72a.54.54,0,0,1,.112-.416,2.576,2.576,0,0,1,1.808-.976,1.709,1.709,0,0,1,1.808,1.952v1.072c0,1.552-.032,1.92-.048,2.24-.016.512-.064.672-.912.832-.5.08-.5.576.08.576C63.28.032,63.9,0,64.32,0c.544,0,.976.032,1.488.032.528,0,.544-.5.048-.576-.7-.128-.8-.192-.8-.7v-3.68c0-1.792-.88-2.768-2.224-2.768a2.51,2.51,0,0,0-1.344.416,11.684,11.684,0,0,0-1.328.96,5.465,5.465,0,0,0-.08-1.12c-.032-.176-.1-.256-.24-.256a1.088,1.088,0,0,0-.416.176,5.628,5.628,0,0,1-1.28.64.259.259,0,0,0-.032.5c.736.24.816.384.816.864ZM76.736-6.512h.832c.7,0,.88-.032.944-.112a1.111,1.111,0,0,0,.224-.64c0-.112-.032-.16-.128-.144s-.5.032-.864.032H76.736a9.061,9.061,0,0,1,.144-2.5c.128-.3-.048-.464-.32-.288a3.355,3.355,0,0,0-.9.88,7.621,7.621,0,0,0-.128,1.9,3.217,3.217,0,0,0-.976.064c-.1.048-.432.4-.432.576,0,.1.032.192.144.208.128.016.336.016,1.056.016h.208V-2.1c0,1.984.736,2.32,1.5,2.32a2.511,2.511,0,0,0,1.6-.608c.432-.416.24-.736-.1-.64a2.033,2.033,0,0,1-.864.16c-.672,0-.944-.416-.944-1.392ZM85.584-7.7a4.357,4.357,0,0,0-2.832,1.088,3.813,3.813,0,0,0-1.36,3.12A3.534,3.534,0,0,0,84.784.288,4.282,4.282,0,0,0,88-1.248a4.2,4.2,0,0,0,.944-2.864A3.472,3.472,0,0,0,85.584-7.7ZM87.6-3.5C87.6-1.68,86.736-.5,85.456-.5,83.472-.5,82.72-2.288,82.72-4c0-1.136.384-2.88,2.176-2.88C86.9-6.88,87.6-4.928,87.6-3.5Zm6.256-2.768c-.1-.272-.048-.384.72-.576.5-.128.48-.576-.032-.576-.272,0-1.1.048-1.536.048-.448,0-.96-.016-1.408-.016-.512,0-.544.5-.048.576.688.128.784.208,1.072.96.528,1.392,1.664,4.816,1.888,5.5.112.4.208.64.368.64.224,0,.336-.256.448-.464.16-.224,1.552-3.664,1.936-4.56.08-.16.128-.192.224-.016.3.752,1.472,3.76,1.84,4.736,0,.016.112.3.3.3.224,0,.416-.384.576-.752.56-1.44,1.9-4.944,2.3-5.792.16-.3.224-.416.912-.576.432-.08.464-.576-.048-.576-.352,0-.784.032-1.168.032-.624,0-1.3-.048-1.552-.032-.448.016-.464.5-.048.56.928.16,1.04.272.976.624-.128.592-1.056,3.1-1.5,4.272-.08.208-.128.256-.224.064-.32-.752-1.2-2.992-1.552-4.016-.24-.7-.288-.992-.368-1.264-.032-.144-.224-.144-.384.016a1.362,1.362,0,0,0-.288.432c-.24.688-1.424,3.744-1.888,4.848-.048.08-.1.064-.112,0C94.912-2.912,94.144-5.136,93.856-6.272Zm13.072,3.5a11.127,11.127,0,0,1-.048,1.5c-.032.464-.08.576-.8.72-.48.08-.5.576.048.576.416,0,.864-.032,1.392-.032.576,0,1.1.032,1.456.032.512,0,.544-.5.08-.576-.8-.144-.864-.256-.88-.7a8.579,8.579,0,0,1-.048-1.28v-2.72a.54.54,0,0,1,.112-.416,2.576,2.576,0,0,1,1.808-.976,1.709,1.709,0,0,1,1.808,1.952v1.072c0,1.552-.032,1.92-.048,2.24-.016.512-.064.672-.912.832-.5.08-.5.576.08.576.3,0,.928-.032,1.344-.032.544,0,.976.032,1.488.032.528,0,.544-.5.048-.576-.7-.128-.8-.192-.8-.7v-3.68c0-1.792-.88-2.768-2.224-2.768a2.51,2.51,0,0,0-1.344.416,11.683,11.683,0,0,0-1.328.96,5.465,5.465,0,0,0-.08-1.12c-.032-.176-.1-.256-.24-.256a1.088,1.088,0,0,0-.416.176,5.629,5.629,0,0,1-1.28.64.259.259,0,0,0-.032.5c.736.24.816.384.816.864ZM126.784-7.7a4.357,4.357,0,0,0-2.832,1.088,3.813,3.813,0,0,0-1.36,3.12A3.534,3.534,0,0,0,125.984.288,4.282,4.282,0,0,0,129.2-1.248a4.2,4.2,0,0,0,.944-2.864A3.472,3.472,0,0,0,126.784-7.7ZM128.8-3.5c0,1.824-.864,3.008-2.144,3.008-1.984,0-2.736-1.792-2.736-3.5,0-1.136.384-2.88,2.176-2.88C128.1-6.88,128.8-4.928,128.8-3.5Zm5.392.9a10.318,10.318,0,0,1-.048,1.264c-.032.512-.08.656-.752.784-.56.1-.56.592.048.592.288,0,.816-.032,1.472-.032.768,0,1.088.032,1.44.032.64,0,.656-.528.032-.592-.832-.112-.912-.208-.944-.768-.016-.272-.032-.7-.032-1.344V-6.5h.656c.832,0,.976-.032,1.04-.112a1.356,1.356,0,0,0,.256-.672c0-.112-.064-.176-.176-.144a5.426,5.426,0,0,1-.864.048h-.912v-.24c0-3.84.88-4.176,1.728-4.176a2.147,2.147,0,0,1,1.584.816.279.279,0,0,0,.416-.048,1.438,1.438,0,0,0,.432-.9.692.692,0,0,0-.208-.512,1.847,1.847,0,0,0-1.376-.432,3.726,3.726,0,0,0-2.864,1.776,5.779,5.779,0,0,0-.928,3.712,3.846,3.846,0,0,0-1.024.064,1.084,1.084,0,0,0-.384.576c0,.112.032.192.128.208s.512.032,1.28.032Zm26.3-2.944c.064,0,.08.032.08.112v2.608c0,.832-.016,1.1-.048,1.5-.032.512-.144.608-1.088.768-.544.064-.528.608,0,.608.384,0,.96-.048,1.76-.048.96,0,1.392.032,1.888.032.592,0,.624-.528.016-.592-.992-.16-1.088-.24-1.136-.8-.016-.288-.032-.608-.032-1.632v-5.28a13.975,13.975,0,0,1,.048-1.584c.048-.336.224-.512,1.12-.624.608-.064.592-.592.016-.592-.384,0-1.04.032-1.792.032-.848,0-1.552-.032-1.872-.032-.64,0-.608.512.016.576.928.144,1.04.256,1.072.72.016.3.032.5.032,1.552v1.712c0,.08,0,.128-.08.128H154.3c-.128,0-.144-.048-.144-.192V-8.32c0-.848,0-1.2.032-1.5.032-.416.3-.544,1.168-.672.576-.08.576-.576.016-.576-.368,0-1.1.032-2.048.032-.8,0-1.472-.032-1.728-.032-.528,0-.56.512,0,.576.992.128,1.152.288,1.184.688.016.272.032.7.032,1.616V-2.96c0,.928-.016,1.216-.032,1.568-.032.56-.208.7-1.136.832-.528.048-.544.592.016.592.272,0,1.1-.032,1.824-.032.784,0,1.584.032,1.9.032.592,0,.592-.544,0-.592-1.088-.112-1.168-.352-1.2-.832-.016-.288-.032-.608-.032-1.536v-2.48c0-.112.032-.144.128-.144ZM170.688-4c-.24-.016-.464-.032-.624-.032-1.808,0-3.9.816-3.9,2.288A1.821,1.821,0,0,0,167.872.24a4.4,4.4,0,0,0,2.736-1.328c.032.8.1,1.248.608,1.264a2.86,2.86,0,0,0,1.52-.384c.336-.192.336-.624,0-.608-.3,0-.768.016-.912-.24a.69.69,0,0,1-.048-.32c0-.192.048-2.672.048-3.712S171.456-7.7,169.552-7.7a6.47,6.47,0,0,0-2.784,1.248.553.553,0,0,0-.224.48,1.629,1.629,0,0,0,.16.72c.208.48.576.384.7.048.144-.352.224-.8.384-1.1a1.068,1.068,0,0,1,1.088-.544c.784,0,1.744.448,1.808,2.032Zm0,1.7a.669.669,0,0,1-.192.576A2.24,2.24,0,0,1,168.7-.8a1.1,1.1,0,0,1-1.232-1.184c0-.832.736-1.344,1.84-1.36a5.928,5.928,0,0,1,1.264.064c.064.016.112.016.112.112Zm7.344-2.336c-.608-.24-1.088-.528-1.088-1.264,0-.544.272-1.088,1.216-1.088a1.447,1.447,0,0,1,1.376.688,2.712,2.712,0,0,1,.272.816c.08.432.576.352.576-.176a11.841,11.841,0,0,1,.16-2.016c.048-.256-.24-.272-.432-.128-.1.064-.176.192-.288.272-.048.032-.064.048-.176.016a3.248,3.248,0,0,0-1.056-.176,3.106,3.106,0,0,0-1.92.608,2.06,2.06,0,0,0-.88,1.664,2.071,2.071,0,0,0,1.5,1.872c.464.176,1.072.4,1.536.592a1.263,1.263,0,0,1,.848,1.184q0,1.3-1.392,1.3a1.792,1.792,0,0,1-1.824-1.072c-.064-.176-.192-.528-.224-.624-.144-.48-.64-.384-.592.112.08.8.128,1.408.128,1.968,0,.448.4.336.576.128.1-.128.176-.1.272-.048a3.131,3.131,0,0,0,1.3.256,3.385,3.385,0,0,0,1.728-.464,2.431,2.431,0,0,0,1.28-2.128,2,2,0,0,0-1.488-1.792Zm7.216-.272c.176-1.408.928-1.984,1.776-1.984a1.865,1.865,0,0,1,1.9,1.84c0,.08-.016.144-.08.176a19.262,19.262,0,0,1-2.912.144,5.461,5.461,0,0,1-.592-.032C185.264-4.784,185.248-4.816,185.248-4.912ZM185.2-4a15.922,15.922,0,0,0,4.512-.352c.288-.08.608-.288.608-.576,0-.144-.08-.192-.176-.24A2.528,2.528,0,0,0,187.552-7.7a3.5,3.5,0,0,0-2.24.912,4.207,4.207,0,0,0-1.376,3.2c0,2.176,1.3,3.792,3.152,3.792a4.177,4.177,0,0,0,2.8-1.1c.4-.4.256-.848-.24-.544a3.093,3.093,0,0,1-1.792.576C186.3-.864,185.232-1.872,185.2-4Zm15.9-2.512h.832c.7,0,.88-.032.944-.112a1.111,1.111,0,0,0,.224-.64c0-.112-.032-.16-.128-.144s-.5.032-.864.032H201.1a9.061,9.061,0,0,1,.144-2.5c.128-.3-.048-.464-.32-.288a3.355,3.355,0,0,0-.9.88,7.621,7.621,0,0,0-.128,1.9,3.217,3.217,0,0,0-.976.064c-.1.048-.432.4-.432.576,0,.1.032.192.144.208.128.016.336.016,1.056.016h.208V-2.1c0,1.984.736,2.32,1.5,2.32a2.511,2.511,0,0,0,1.6-.608c.432-.416.24-.736-.1-.64a2.033,2.033,0,0,1-.864.16c-.672,0-.944-.416-.944-1.392Zm5.968,1.6C207.248-6.32,208-6.9,208.848-6.9a1.865,1.865,0,0,1,1.9,1.84c0,.08-.016.144-.08.176a19.262,19.262,0,0,1-2.912.144,5.461,5.461,0,0,1-.592-.032C207.088-4.784,207.072-4.816,207.072-4.912ZM207.024-4a15.922,15.922,0,0,0,4.512-.352c.288-.08.608-.288.608-.576,0-.144-.08-.192-.176-.24A2.528,2.528,0,0,0,209.376-7.7a3.5,3.5,0,0,0-2.24.912,4.207,4.207,0,0,0-1.376,3.2c0,2.176,1.3,3.792,3.152,3.792a4.177,4.177,0,0,0,2.8-1.1c.4-.4.256-.848-.24-.544a3.093,3.093,0,0,1-1.792.576C208.128-.864,207.056-1.872,207.024-4ZM221.68-6.384A1.966,1.966,0,0,0,219.824-7.7a2.338,2.338,0,0,0-1.472.464c-.608.448-1.056.768-1.232.912a8.309,8.309,0,0,0-.08-1.1c-.032-.16-.128-.272-.24-.272a.626.626,0,0,0-.352.16,7.012,7.012,0,0,1-1.344.688.246.246,0,0,0,0,.48c.656.192.752.368.768.544a4.674,4.674,0,0,1,.048.88v2.352a11.519,11.519,0,0,1-.032,1.408c-.064.448-.144.5-.848.656-.432.08-.416.56.048.56.4,0,.96-.032,1.408-.032.432,0,1.216.032,1.5.032.464,0,.5-.5.1-.56-.8-.16-.9-.288-.928-.72-.016-.176-.048-.576-.048-1.184v-2.96c0-.128,0-.192.08-.272a2.357,2.357,0,0,1,1.792-.944c1.088,0,1.76.512,1.76,2.24V-2.24c0,.624-.016.96-.032,1.12-.032.3-.08.416-.848.576-.5.08-.432.576.048.576.32,0,.9-.032,1.328-.032s1.216.032,1.456.032c.464,0,.512-.448.032-.56-.736-.176-.784-.24-.784-.88V-5.072a2.889,2.889,0,0,0-.08-.72c0-.032.032-.064.064-.128a2.467,2.467,0,0,1,1.7-.688c1.04,0,1.744.512,1.744,2.144v1.792a12.254,12.254,0,0,1-.064,1.664c-.032.176-.16.336-.864.48-.464.08-.416.56.032.56.288,0,1.216-.032,1.536-.032.608,0,1.008.032,1.36.032.464,0,.512-.448.064-.56-.672-.16-.768-.176-.816-.5a9.173,9.173,0,0,1-.032-1.024V-5.072A2.336,2.336,0,0,0,224.368-7.7a2.628,2.628,0,0,0-1.392.384C222.544-7.024,221.984-6.64,221.68-6.384ZM232.544-5.2c0-.272.016-.368.128-.448a2.836,2.836,0,0,1,2.048-.96c1.12,0,2.272.864,2.272,2.9,0,1.824-.768,3.056-2.56,3.056a3.092,3.092,0,0,1-1.792-.5c-.08-.064-.1-.112-.1-.24Zm0,5.216a2.934,2.934,0,0,0,1.184.256,4.66,4.66,0,0,0,2.7-.976,4.344,4.344,0,0,0,1.888-3.7,3.062,3.062,0,0,0-2.72-3.3c-.928,0-1.424.3-3.056,1.424-.016-.88-.1-1.424-.384-1.424a7.244,7.244,0,0,0-1.824.736c-.256.176-.24.464.08.528.8.144.848.288.88.672.016.256.032.736.032,1.408v5.3c0,1.184-.016,1.92-.048,2.352-.048.352-.08.464-.832.672-.416.1-.384.56.064.56.32,0,1.184-.128,2.512-.128h.64c.528,0,.528-.5,0-.576-.96-.144-1.12-.208-1.12-1.056ZM243.392-1.2c-.016-.208-.032-.5-.032-1.568v-8.176a7.025,7.025,0,0,1,.1-1.472c.1-.288,0-.448-.192-.448a1.089,1.089,0,0,0-.4.16,6.942,6.942,0,0,1-1.712.512c-.384.08-.368.448-.016.528.784.176.912.256.976.688.032.32.032.64.032,1.872v6.1a15.1,15.1,0,0,1-.048,1.824c-.064.352-.128.512-.816.64-.48.08-.416.576.048.576.528,0,.816-.032,1.5-.032.5,0,1.072.032,1.392.032.512,0,.544-.5.064-.576C243.52-.688,243.424-.832,243.392-1.2Zm5.12-3.712c.176-1.408.928-1.984,1.776-1.984a1.865,1.865,0,0,1,1.9,1.84c0,.08-.016.144-.08.176a19.262,19.262,0,0,1-2.912.144,5.461,5.461,0,0,1-.592-.032C248.528-4.784,248.512-4.816,248.512-4.912ZM248.464-4a15.922,15.922,0,0,0,4.512-.352c.288-.08.608-.288.608-.576,0-.144-.08-.192-.176-.24A2.528,2.528,0,0,0,250.816-7.7a3.5,3.5,0,0,0-2.24.912,4.207,4.207,0,0,0-1.376,3.2c0,2.176,1.3,3.792,3.152,3.792a4.177,4.177,0,0,0,2.8-1.1c.4-.4.256-.848-.24-.544a3.093,3.093,0,0,1-1.792.576C249.568-.864,248.5-1.872,248.464-4Z" transform="translate(70.5 2197)" fill="#8d857b"/>
    <line id="線_7" data-name="線 7" x2="302" transform="translate(23.5 2167.5)" fill="none" stroke="#8c857c" stroke-width="1"/>
  </g>
</svg>
