<svg xmlns="http://www.w3.org/2000/svg" width="302" height="73.815" viewBox="0 0 302 73.815">
  <g id="グループ_84" data-name="グループ 84" transform="translate(-18.5 -3835.905)">
    <path id="パス_36" data-name="パス 36" d="M15.96-9.48l-.03-2.25v-4.92H24.3c0,1.5-.03,4.8-.03,7.17Zm-10.17,0V-11.7c0-.66,0-3.69.06-4.65a2.258,2.258,0,0,0,.93-.3h6.99c.03,2.46.03,4.65.03,5.25,0,.48,0,1.14-.03,1.92Zm10.17-8.37c0-1.98.03-3.87.06-4.77.93-.18,1.56-.57,1.56-1.08,0-.75-1.74-.93-3.75-.93a.388.388,0,0,0-.42.48,62.382,62.382,0,0,1,.36,6.3H6.36a8.762,8.762,0,0,0-2.46-1.2c-.27-.09-.54.06-.48.39.33,2.76.12,10.92.09,12.75a.782.782,0,0,0,.87.84c.96,0,1.44-.3,1.44-.96V-8.28h7.92c-.06,3.6-.21,8.49-.21,9.48a.877.877,0,0,0,.99.9c.99,0,1.56-.39,1.56-1.08,0-.87-.06-5.73-.12-9.3h8.28v1.41a.923.923,0,0,0,.96,1.02c.87,0,1.38-.21,1.38-1.14,0-1.29-.12-6.57-.03-9.21.6-.24,1.23-.54,1.23-.96,0-.66-1.92-2.1-2.61-2.1-.36,0-1.02.75-1.5,1.41Zm44.07-2.31c1.2,0,1.74-.3,1.74-.72,0-.78-2.28-2.64-2.91-2.64-.48,0-1.35,1.17-2.01,2.16H49.47v-1.68c.93-.21,1.59-.45,1.59-1.08,0-.81-3.03-.9-3.54-.9a.377.377,0,0,0-.42.45,27.476,27.476,0,0,1,.09,3.21H39.87a7.037,7.037,0,0,0-2.34-1.11c-.39-.06-.57.09-.54.54.21,2.85.27,6.03.24,8.67C37.2-6.84,36.15-3.12,33.69.39c-.6.81.21,1.41.9.72,3.99-3.63,4.59-9.15,4.74-13.71.12-2.82.15-4.92.09-7.56Zm.12,10.41c.75,0,1.32-.21,1.32-.63,0-.66-1.77-2.37-2.34-2.4-.39.03-1.08.96-1.65,1.83H55.29v-3.63c.39-.15.6-.33.6-.63,0-.18-.15-.3-.42-.42a25.689,25.689,0,0,0,3.48-.93c1.17.51,1.68.21,1.29-.36a7.758,7.758,0,0,0-1.38-1.44c-.6-.48-.78-.48-1.44-.12a30.877,30.877,0,0,1-8.25,2.76c-.93.15-.75,1.02.09,1.02a31.747,31.747,0,0,0,4.05-.51v4.26H49.44c-.39,0-.66.15-.66.6,0,.48.27.6.66.6h3.87v5.37H49.26c-.39,0-.66.15-.66.6,0,.48.27.6.66.6H60c.75,0,1.35-.21,1.35-.66a4.8,4.8,0,0,0-2.37-2.43c-.42.03-1.14.99-1.71,1.89H55.29V-9.75ZM43.89-11.61c.81-1.5,1.74-3.21,2.4-4.38.99-.09,1.5-.36,1.59-.66.18-.57-1.05-1.92-1.62-2.1-.33-.09-1.02.48-1.56.99H40.98c-.39,0-.66.15-.66.6,0,.48.27.6.66.6h3.48c-.99,1.92-2.31,4.26-3.33,5.82-.36.54-.42.96.63,1.17.6.12.96.06,1.23-.45l.21-.39h2.49a14.472,14.472,0,0,1-1.71,6.39,12.981,12.981,0,0,1-1.23-3.12v-.03l.45-.69c.3-.51.18-.69-.27-1.05-.51-.42-.63-.27-.9.21a5.075,5.075,0,0,1-.84,1.32,10.456,10.456,0,0,1-1.68,1.56c-.45.3-.45.51-.18.81.24.33.6.75.78.99.33.3.57.27.81-.15.21-.36.6-1.02.93-1.56A11.629,11.629,0,0,0,43.08-2.7,13.942,13.942,0,0,1,38.16.99c-.75.36-.45,1.32.54.99a12.5,12.5,0,0,0,5.43-3.24A8.182,8.182,0,0,0,47.4.78c2.79.96,9.24.93,12.03.81A1.113,1.113,0,0,0,60.6.87a1.139,1.139,0,0,1,.93-.72c.75-.18.75-1.05-.12-.99-4.17.3-9.66.66-13.05-.15a6.834,6.834,0,0,1-3.21-1.53,18.105,18.105,0,0,0,2.49-7.53c.57-.15,1.02-.33,1.02-.72a3.341,3.341,0,0,0-2.07-1.95c-.27,0-.75.57-1.14,1.11Zm38.73-4.05c-1.41,4.02-5.73,9.87-8.61,9.87-.87,0-1.68-1.41-1.83-3.72a7.937,7.937,0,0,1,2.37-6.6,8.634,8.634,0,0,1,6.09-2.22,13.309,13.309,0,0,1,2.52.24A9.366,9.366,0,0,1,82.62-15.66Zm-1.89-4.17a11.43,11.43,0,0,0-7.35,2.67,9.783,9.783,0,0,0-3.15,8.34c.27,3.54,1.83,5.73,3.42,5.73,3.6,0,8.61-5.97,10.35-10.77a14.467,14.467,0,0,0,.84-3.69,7.392,7.392,0,0,1,4.65,7.14c0,4.92-3.36,7.11-8.55,8.13-.93.18-.87,1.11.18,1.11,6.18,0,10.8-2.97,10.8-8.73C91.92-15.3,87.9-19.83,80.73-19.83Zm43.35-1.89c.03.69.03,1.89,0,3.33h-6.12c.03-1.32.06-2.67.09-3.33Zm-6.12,6.6v-2.07h6.12v3.3h-6.12Zm.03,5.91-.03-3.48h6.09l-.03,3.48ZM105.27-4.47h2.91v2.58H105.3Zm.03-4.77c0-.99.03-1.95.06-2.43.09-.03.21-.03.27-.06h2.55v2.49Zm2.88,3.57h-2.91V-8.04h2.91Zm9.81-1.29V-8.01h6.03v.39c0,.48.21,1.02.9,1.02.81,0,1.29-.24,1.29-1.17,0-1.56-.18-10.44-.06-13.44.51-.21,1.02-.48,1.02-.87,0-.66-1.74-1.95-2.31-1.95-.3,0-.81.57-1.2,1.11H118.8a7.118,7.118,0,0,0-2.58-1.11.37.37,0,0,0-.45.39c.39,3.51.12,13.86.12,16.65a.738.738,0,0,0,.81.84,1.539,1.539,0,0,0,.9-.21,9.022,9.022,0,0,1-1.89,4.32,5.113,5.113,0,0,1-.57.57,4.658,4.658,0,0,0-2.22-1.95c-.36,0-.96.78-1.47,1.53h-1.44V-4.47h3.45c.93,0,1.32-.15,1.29-.54,0-.54-1.68-1.95-2.13-1.95-.3,0-.84.66-1.29,1.29h-1.32V-8.04h3.39c.9,0,1.29-.15,1.29-.54-.03-.54-1.68-1.95-2.16-1.95-.3,0-.84.66-1.29,1.29h-1.23v-1.89c.39-.12.6-.33.63-.6h3.27c.9,0,1.32-.15,1.29-.54,0-.57-1.68-1.98-2.16-1.98-.3,0-.84.66-1.32,1.32h-2.07c.3-.39.57-.75.9-1.26.57,0,1.11-.15,1.14-.48.06-.54-1.08-1.17-2.28-1.35-.33-.03-.54.15-.54.39a14.271,14.271,0,0,1-.69,2.7h-2.46c-.09-.06-.21-.12-.3-.18a25.112,25.112,0,0,0,1.68-3h7.26c1.02,0,1.47-.21,1.47-.6,0-.66-1.95-2.25-2.46-2.25-.39,0-1.08.87-1.62,1.65h-4.14c.33-.78.6-1.53.84-2.28.87.06,1.41-.15,1.41-.57a.633.633,0,0,0-.21-.39h4.29c.99,0,1.47-.21,1.47-.6-.03-.66-1.95-2.25-2.46-2.25-.39,0-1.05.87-1.59,1.65h-5.94c.27-.48.51-.93.72-1.32.93-.03,1.26-.21,1.26-.6.03-.48-1.35-1.17-2.4-1.41q-.54-.09-.63.36a15.866,15.866,0,0,1-3,6.27c-.45.72.12,1.17.81.69a12.793,12.793,0,0,0,2.52-2.79h1.83a25.555,25.555,0,0,1-.99,3.24H100.8c-.39,0-.66.15-.66.6,0,.48.27.6.66.6h4.23a23.462,23.462,0,0,1-5.19,7.2c-.57.63.06,1.2.72.72a19.494,19.494,0,0,0,2.73-2.34c.09,3.15-.03,10.44-.06,11.58,0,.54.27.84.78.84.87,0,1.29-.3,1.29-.96V-.69h8.94a15.556,15.556,0,0,1-3.42,1.8c-.81.36-.48,1.26.27,1.02a11.469,11.469,0,0,0,6.12-3.21,10.528,10.528,0,0,0,2.28-4.29c.72-.09,1.08-.27,1.08-.66.03-.54-1.41-.9-2.46-.93Zm9.54,4.32c0-.72-.75-.81-.96-.15a9,9,0,0,1-.6,1.86c-.24.45-.72.66-1.62.66-1.23,0-1.38-.12-1.38-1.02,0-.99,0-3.42.03-4.8.6-.09.9-.27.9-.57,0-.54-1.8-.84-2.43-.84-.42,0-.54.12-.51.54.15,1.86.06,5.34.06,6.27,0,1.92.63,2.22,3.33,2.22,2.4,0,3.69-.51,3.69-1.44C128.04-.63,127.5-.45,127.53-2.64Zm29.28-17.64c1.14,0,1.68-.27,1.68-.69,0-.75-2.22-2.55-2.82-2.55-.45,0-1.29,1.11-1.92,2.04h-5.73V-23.1c.93-.21,1.59-.45,1.59-1.08,0-.81-2.97-.9-3.48-.9a.377.377,0,0,0-.42.45,26.047,26.047,0,0,1,.09,3.15h-9.3c-.39,0-.66.15-.66.6,0,.48.27.6.66.6Zm-15.48,1.5a16.435,16.435,0,0,1,.81,2.13c.33,1.02.54,1.8,1.35,1.92a1.319,1.319,0,0,0,1.65-1.17c.24-1.5-1.32-2.88-2.94-3.69C141.42-19.95,141.03-19.41,141.33-18.78Zm.75,17.82-.03-3.45v-.15h10.71l-.03,3.6Zm-.03-4.8c0-1.14.03-2.61.06-3.24.15-.03.27-.06.39-.09h10.26c.03.75.03,1.98,0,3.33Zm.78-4.53a7.669,7.669,0,0,0-2.7-1.11.372.372,0,0,0-.42.39c.33,3,.12,10.08.09,12.33,0,.54.3.81.87.81.93,0,1.41-.27,1.41-.93V.24H152.7v.84a.917.917,0,0,0,.93,1.02c.87,0,1.38-.21,1.38-1.14-.03-1.29-.15-7.08-.06-9.63.54-.24,1.08-.51,1.08-.9,0-.66-1.83-1.98-2.46-1.98-.33,0-.93.66-1.38,1.26Zm7.41-3.9a15.927,15.927,0,0,0,3.12-3.54c.9.03,1.32-.15,1.35-.57,0-.54-1.65-1.44-2.7-1.71a.5.5,0,0,0-.63.36,18.643,18.643,0,0,1-2.04,4.8.759.759,0,0,0-.06.66H134.22c-.39,0-.66.15-.66.6,0,.48.27.6.66.6h24.72c1.23,0,1.74-.3,1.74-.72,0-.78-2.28-2.64-2.91-2.64-.48,0-1.38,1.17-2.04,2.16Zm21.57,6.75c0-.93,0-5.61.12-7.05.63-.09,1.14-.3,1.14-.69,0-.42-.99-.96-1.8-1.26a49.272,49.272,0,0,0,2.67-6.18c.87.12,1.47-.06,1.47-.54,0-.66-2.07-1.59-3.18-1.8-.33-.06-.48.12-.51.45a35.284,35.284,0,0,1-5.64,13.74c-.45.81.27,1.26.87.6a28.285,28.285,0,0,0,2.79-3.6c.12,4.44-.06,13.02-.06,15.06a.738.738,0,0,0,.81.84c.93,0,1.35-.33,1.35-.99Zm5.85-7.89c0-.54.03-1.68.03-2.28h4.71v3.42h-4.74Zm6.39-5.76c-.39.75-.78,1.5-1.23,2.28h-4.59c-.15-.12-.3-.21-.48-.33a25.418,25.418,0,0,0,1.77-1.95Zm.27,3.96c.33-.12.51-.27.57-.48h4.35c0,.87-.03,2.34-.06,3.42h-4.86Zm4.86,4.14c0,.45.18.96.81.96.72,0,1.11-.21,1.11-1.14,0-.57.03-2.73.03-3.84.51-.21,1.05-.45,1.05-.9,0-.66-1.62-1.95-2.19-1.95-.3,0-.75.51-1.14,1.05h-4.44c.66-.6,1.26-1.23,1.83-1.8.84-.21,1.44-.45,1.44-.78,0-.66-1.65-2.16-2.1-2.16-.3,0-.96.66-1.47,1.26h-3.66c.18-.24.33-.48.48-.72.87.06,1.38-.15,1.35-.6,0-.57-1.53-1.2-2.55-1.41-.33-.09-.48.06-.57.39a22.814,22.814,0,0,1-5.91,7.86c-.6.66-.06,1.32.66.78a19.821,19.821,0,0,0,1.8-1.32c.06,1.65,0,3.9,0,4.68,0,.54.27.81.75.81.78,0,1.23-.27,1.23-.9v-.27h3.33a22.587,22.587,0,0,1-7.68,4.89c-.87.33-.81,1.23.3,1.05a24.727,24.727,0,0,0,7.26-3.3c.36.51.69.99.99,1.5a4.458,4.458,0,0,0-.84-.33c-.3-.06-.36.03-.6.27a23.481,23.481,0,0,1-6.84,4.92c-.72.42-.45,1.26.51.93a23.154,23.154,0,0,0,7.71-4.41.891.891,0,0,0,.63-.21c.18.48.33.96.48,1.5a1.254,1.254,0,0,0-.3-.12c-.3-.09-.39-.06-.66.18A24.744,24.744,0,0,1,173.16.27c-.81.39-.6,1.29.39.99a22.494,22.494,0,0,0,9.66-5.67,5.823,5.823,0,0,1,.06.72c.09,2.58-.6,3.42-1.56,3.45a12.268,12.268,0,0,1-1.86-.09c-.75-.03-.78.72-.09.99a1.643,1.643,0,0,1,1.08.84,1.1,1.1,0,0,0,1.11.66c1.65-.06,3.48-1.59,3.3-5.7a10.456,10.456,0,0,0-3.15-7.62l1.35-.99h.45c1.17,5.46,3.39,10.2,7.5,12.51.87.39,1.08.18,1.38-.33a1.859,1.859,0,0,1,1.08-.87c.42-.21.87-.6-.06-.87a12.145,12.145,0,0,1-6.3-5.04,30,30,0,0,0,4.56-2.73c.9.24,1.26.18,1.41-.21.15-.45-.96-1.53-1.86-2.1a.506.506,0,0,0-.72.15,21.243,21.243,0,0,1-3.99,3.87,22.472,22.472,0,0,1-1.83-4.62.426.426,0,0,0,.24-.27.315.315,0,0,0-.12-.33Z" transform="translate(18 3861)" fill="#8d857b"/>
    <path id="パス_37" data-name="パス 37" d="M10.064-11.04c-.976,0-1.552-.032-1.92-.032-.624,0-.64.5-.08.576.672.112.864.144.864.336,0,.16-.368.512-.784.912A31.611,31.611,0,0,1,5.216-6.5a3.46,3.46,0,0,1-.592.336c-.336.16-.192.4-.128.464A9.157,9.157,0,0,1,5.424-4.64,41.793,41.793,0,0,0,8.672-.848a2.657,2.657,0,0,0,1.36.88,8.22,8.22,0,0,0,2.08,0c.576-.08.512-.528-.016-.576a2.435,2.435,0,0,1-1.7-.608A40.778,40.778,0,0,1,6.016-6.016c-.064-.144-.1-.16-.016-.272.192-.144,2.128-2,3.5-3.184a3.17,3.17,0,0,1,2.048-1.04c.544-.064.576-.56-.016-.56C11.152-11.072,10.624-11.04,10.064-11.04ZM5.072-10.5c.576-.064.544-.576.032-.576-.352,0-1.2.032-1.936.032-.608,0-1.536-.032-1.872-.032-.576,0-.576.512.032.576,1.056.128,1.088.352,1.152.96.032.32.032.416.032,2.1v3.776c0,1.68,0,1.872-.032,2.16C2.416-.848,2.4-.7,1.3-.56.752-.5.768.032,1.28.032,1.712.032,2.592,0,3.264,0c.88,0,1.456.032,1.792.032.576,0,.56-.512.048-.576C4.016-.7,3.968-.864,3.888-1.6c-.032-.352-.032-.448-.032-2.064V-7.44c0-1.52.016-1.744.032-2.112C3.9-10.144,4.016-10.368,5.072-10.5ZM19.28-4c-.24-.016-.464-.032-.624-.032-1.808,0-3.9.816-3.9,2.288A1.821,1.821,0,0,0,16.464.24,4.4,4.4,0,0,0,19.2-1.088c.032.8.1,1.248.608,1.264a2.86,2.86,0,0,0,1.52-.384c.336-.192.336-.624,0-.608-.3,0-.768.016-.912-.24a.69.69,0,0,1-.048-.32c0-.192.048-2.672.048-3.712S20.048-7.7,18.144-7.7A6.47,6.47,0,0,0,15.36-6.448a.553.553,0,0,0-.224.48,1.629,1.629,0,0,0,.16.72c.208.48.576.384.7.048.144-.352.224-.8.384-1.1a1.068,1.068,0,0,1,1.088-.544c.784,0,1.744.448,1.808,2.032Zm0,1.7a.669.669,0,0,1-.192.576A2.24,2.24,0,0,1,17.3-.8a1.1,1.1,0,0,1-1.232-1.184c0-.832.736-1.344,1.84-1.36a5.928,5.928,0,0,1,1.264.064c.064.016.112.016.112.112Zm5.936-.464a11.126,11.126,0,0,1-.048,1.5c-.032.464-.08.576-.8.72-.48.08-.5.576.048.576C24.832.032,25.28,0,25.808,0c.576,0,1.1.032,1.456.032.512,0,.544-.5.08-.576-.8-.144-.864-.256-.88-.7a8.58,8.58,0,0,1-.048-1.28v-2.72a.54.54,0,0,1,.112-.416,2.576,2.576,0,0,1,1.808-.976,1.709,1.709,0,0,1,1.808,1.952v1.072c0,1.552-.032,1.92-.048,2.24-.016.512-.064.672-.912.832-.5.08-.5.576.08.576.3,0,.928-.032,1.344-.032.544,0,.976.032,1.488.032.528,0,.544-.5.048-.576-.7-.128-.8-.192-.8-.7v-3.68c0-1.792-.88-2.768-2.224-2.768a2.51,2.51,0,0,0-1.344.416,11.683,11.683,0,0,0-1.328.96,5.465,5.465,0,0,0-.08-1.12c-.032-.176-.1-.256-.24-.256a1.088,1.088,0,0,0-.416.176,5.629,5.629,0,0,1-1.28.64.259.259,0,0,0-.032.5c.736.24.816.384.816.864Zm10.96,0a11.126,11.126,0,0,1-.048,1.5c-.032.464-.08.576-.8.72-.48.08-.5.576.048.576C35.792.032,36.24,0,36.768,0c.576,0,1.1.032,1.456.032.512,0,.544-.5.08-.576-.8-.144-.864-.256-.88-.7a8.58,8.58,0,0,1-.048-1.28v-2.72a.54.54,0,0,1,.112-.416A2.576,2.576,0,0,1,39.3-6.64,1.709,1.709,0,0,1,41.1-4.688v1.072c0,1.552-.032,1.92-.048,2.24-.016.512-.064.672-.912.832-.5.08-.5.576.08.576.3,0,.928-.032,1.344-.032.544,0,.976.032,1.488.032.528,0,.544-.5.048-.576-.7-.128-.8-.192-.8-.7v-3.68c0-1.792-.88-2.768-2.224-2.768a2.51,2.51,0,0,0-1.344.416,11.683,11.683,0,0,0-1.328.96,5.465,5.465,0,0,0-.08-1.12c-.032-.176-.1-.256-.24-.256a1.088,1.088,0,0,0-.416.176,5.628,5.628,0,0,1-1.28.64.259.259,0,0,0-.032.5c.736.24.816.384.816.864ZM50.32-7.7a4.357,4.357,0,0,0-2.832,1.088,3.813,3.813,0,0,0-1.36,3.12A3.534,3.534,0,0,0,49.52.288a4.282,4.282,0,0,0,3.216-1.536,4.2,4.2,0,0,0,.944-2.864A3.472,3.472,0,0,0,50.32-7.7ZM52.336-3.5c0,1.824-.864,3.008-2.144,3.008-1.984,0-2.736-1.792-2.736-3.5,0-1.136.384-2.88,2.176-2.88C51.632-6.88,52.336-4.928,52.336-3.5Zm5.264.736a11.126,11.126,0,0,1-.048,1.5c-.032.464-.08.576-.8.72-.48.08-.5.576.048.576.416,0,.864-.032,1.392-.032.576,0,1.1.032,1.456.032.512,0,.544-.5.08-.576-.8-.144-.864-.256-.88-.7a8.58,8.58,0,0,1-.048-1.28v-2.72a.54.54,0,0,1,.112-.416A2.576,2.576,0,0,1,60.72-6.64a1.709,1.709,0,0,1,1.808,1.952v1.072c0,1.552-.032,1.92-.048,2.24-.016.512-.064.672-.912.832-.5.08-.5.576.08.576.3,0,.928-.032,1.344-.032.544,0,.976.032,1.488.032.528,0,.544-.5.048-.576-.7-.128-.8-.192-.8-.7v-3.68c0-1.792-.88-2.768-2.224-2.768a2.51,2.51,0,0,0-1.344.416,11.683,11.683,0,0,0-1.328.96,5.465,5.465,0,0,0-.08-1.12c-.032-.176-.1-.256-.24-.256a1.088,1.088,0,0,0-.416.176,5.628,5.628,0,0,1-1.28.64.259.259,0,0,0-.032.5c.736.24.816.384.816.864ZM75.728-4.64C75.12-4.88,74.64-5.168,74.64-5.9c0-.544.272-1.088,1.216-1.088a1.447,1.447,0,0,1,1.376.688,2.712,2.712,0,0,1,.272.816c.08.432.576.352.576-.176a11.839,11.839,0,0,1,.16-2.016c.048-.256-.24-.272-.432-.128-.1.064-.176.192-.288.272-.048.032-.064.048-.176.016A3.248,3.248,0,0,0,76.288-7.7a3.106,3.106,0,0,0-1.92.608,2.06,2.06,0,0,0-.88,1.664,2.071,2.071,0,0,0,1.5,1.872c.464.176,1.072.4,1.536.592a1.263,1.263,0,0,1,.848,1.184q0,1.3-1.392,1.3A1.792,1.792,0,0,1,74.16-1.552c-.064-.176-.192-.528-.224-.624-.144-.48-.64-.384-.592.112.08.8.128,1.408.128,1.968,0,.448.4.336.576.128.1-.128.176-.1.272-.048a3.131,3.131,0,0,0,1.3.256,3.385,3.385,0,0,0,1.728-.464,2.431,2.431,0,0,0,1.28-2.128,2,2,0,0,0-1.488-1.792Zm7.984-1.872h.832c.7,0,.88-.032.944-.112a1.111,1.111,0,0,0,.224-.64c0-.112-.032-.16-.128-.144s-.5.032-.864.032H83.712a9.061,9.061,0,0,1,.144-2.5c.128-.3-.048-.464-.32-.288a3.355,3.355,0,0,0-.9.88,7.621,7.621,0,0,0-.128,1.9,3.217,3.217,0,0,0-.976.064c-.1.048-.432.4-.432.576,0,.1.032.192.144.208.128.016.336.016,1.056.016h.208V-2.1c0,1.984.736,2.32,1.5,2.32a2.511,2.511,0,0,0,1.6-.608c.432-.416.24-.736-.1-.64a2.033,2.033,0,0,1-.864.16c-.672,0-.944-.416-.944-1.392ZM92.912-4c-.24-.016-.464-.032-.624-.032-1.808,0-3.9.816-3.9,2.288A1.821,1.821,0,0,0,90.1.24a4.4,4.4,0,0,0,2.736-1.328c.032.8.1,1.248.608,1.264a2.86,2.86,0,0,0,1.52-.384c.336-.192.336-.624,0-.608-.3,0-.768.016-.912-.24A.69.69,0,0,1,94-1.376c0-.192.048-2.672.048-3.712S93.68-7.7,91.776-7.7a6.47,6.47,0,0,0-2.784,1.248.553.553,0,0,0-.224.48,1.629,1.629,0,0,0,.16.72c.208.48.576.384.7.048.144-.352.224-.8.384-1.1A1.068,1.068,0,0,1,91.1-6.848c.784,0,1.744.448,1.808,2.032Zm0,1.7a.669.669,0,0,1-.192.576A2.24,2.24,0,0,1,90.928-.8,1.1,1.1,0,0,1,89.7-1.984c0-.832.736-1.344,1.84-1.36A5.928,5.928,0,0,1,92.8-3.28c.064.016.112.016.112.112ZM99.76-6.512h.832c.7,0,.88-.032.944-.112a1.111,1.111,0,0,0,.224-.64c0-.112-.032-.16-.128-.144s-.5.032-.864.032H99.76a9.061,9.061,0,0,1,.144-2.5c.128-.3-.048-.464-.32-.288a3.355,3.355,0,0,0-.9.88,7.621,7.621,0,0,0-.128,1.9,3.217,3.217,0,0,0-.976.064c-.1.048-.432.4-.432.576,0,.1.032.192.144.208.128.016.336.016,1.056.016h.208V-2.1c0,1.984.736,2.32,1.5,2.32a2.511,2.511,0,0,0,1.6-.608c.432-.416.24-.736-.1-.64a2.033,2.033,0,0,1-.864.16c-.672,0-.944-.416-.944-1.392ZM106.288-5.5a7.22,7.22,0,0,1,.144-1.824c.048-.224-.08-.352-.224-.352a2.476,2.476,0,0,0-.432.16,5.874,5.874,0,0,1-1.36.352c-.368.064-.448.448-.08.56.592.176.688.384.7.592.032.352.032.688.032.976V-2.4a2.716,2.716,0,0,0,.64,2.032,1.991,1.991,0,0,0,1.5.592,4.3,4.3,0,0,0,2.64-1.472c.032.8.08,1.456.48,1.456a3.278,3.278,0,0,0,1.776-.672c.256-.224.192-.544-.1-.528-.528.048-.672.048-.848-.192a3.879,3.879,0,0,1-.128-1.44v-2.96a10.18,10.18,0,0,1,.1-1.664.227.227,0,0,0-.208-.32c-.064,0-.224.064-.5.128a5.841,5.841,0,0,1-1.536.176c-.5.016-.512.512-.1.576.848.16.96.288,1.008.688a5.644,5.644,0,0,1,.032.688v3.088a.506.506,0,0,1-.064.336,2.421,2.421,0,0,1-1.92,1.024,1.414,1.414,0,0,1-1.472-1.072,4.927,4.927,0,0,1-.1-1.248Zm9.92.592c.176-1.408.928-1.984,1.776-1.984a1.865,1.865,0,0,1,1.9,1.84c0,.08-.016.144-.08.176a19.262,19.262,0,0,1-2.912.144,5.461,5.461,0,0,1-.592-.032C116.224-4.784,116.208-4.816,116.208-4.912ZM116.16-4a15.922,15.922,0,0,0,4.512-.352c.288-.08.608-.288.608-.576,0-.144-.08-.192-.176-.24A2.528,2.528,0,0,0,118.512-7.7a3.5,3.5,0,0,0-2.24.912,4.207,4.207,0,0,0-1.376,3.2c0,2.176,1.3,3.792,3.152,3.792a4.177,4.177,0,0,0,2.8-1.1c.4-.4.256-.848-.24-.544a3.093,3.093,0,0,1-1.792.576C117.264-.864,116.192-1.872,116.16-4ZM131.5,0c.576,0,.96.032,1.36.032.56,0,.56-.512.064-.592-.736-.144-.8-.272-.8-1.024V-5.3a11.149,11.149,0,0,1,.128-2.048c.032-.24-.064-.352-.224-.352a.845.845,0,0,0-.4.16,4.02,4.02,0,0,1-1.36.5c-.384.064-.368.416-.08.528.64.256.688.32.7.576a4.319,4.319,0,0,1,.032.72V-1.5c0,.672-.1.8-.784.944-.512.1-.5.592.048.592C130.48.032,131.056,0,131.5,0Zm.032-11.568a.91.91,0,0,0-.9.96.846.846,0,0,0,.848.9.9.9,0,0,0,.9-.976A.87.87,0,0,0,131.536-11.568Zm5.44,8.8a11.129,11.129,0,0,1-.048,1.5c-.032.464-.08.576-.8.72-.48.08-.5.576.048.576.416,0,.864-.032,1.392-.032.576,0,1.1.032,1.456.032.512,0,.544-.5.08-.576-.8-.144-.864-.256-.88-.7a8.582,8.582,0,0,1-.048-1.28v-2.72a.54.54,0,0,1,.112-.416A2.576,2.576,0,0,1,140.1-6.64,1.709,1.709,0,0,1,141.9-4.688v1.072c0,1.552-.032,1.92-.048,2.24-.016.512-.064.672-.912.832-.5.08-.5.576.08.576.3,0,.928-.032,1.344-.032.544,0,.976.032,1.488.032.528,0,.544-.5.048-.576-.7-.128-.8-.192-.8-.7v-3.68c0-1.792-.88-2.768-2.224-2.768a2.51,2.51,0,0,0-1.344.416,11.683,11.683,0,0,0-1.328.96,5.465,5.465,0,0,0-.08-1.12c-.032-.176-.1-.256-.24-.256a1.088,1.088,0,0,0-.416.176,5.628,5.628,0,0,1-1.28.64.259.259,0,0,0-.032.5c.736.24.816.384.816.864Zm17.808-3.744h.832c.7,0,.88-.032.944-.112a1.11,1.11,0,0,0,.224-.64c0-.112-.032-.16-.128-.144s-.5.032-.864.032h-1.008a9.061,9.061,0,0,1,.144-2.5c.128-.3-.048-.464-.32-.288a3.355,3.355,0,0,0-.9.88,7.621,7.621,0,0,0-.128,1.9,3.217,3.217,0,0,0-.976.064c-.1.048-.432.4-.432.576,0,.1.032.192.144.208.128.016.336.016,1.056.016h.208V-2.1c0,1.984.736,2.32,1.5,2.32a2.511,2.511,0,0,0,1.6-.608c.432-.416.24-.736-.1-.64a2.033,2.033,0,0,1-.864.16c-.672,0-.944-.416-.944-1.392Zm6.752.768a2.329,2.329,0,0,1,1.808-.88c1.056,0,1.824.464,1.824,2.1V-2.56c0,.976-.016,1.3-.032,1.44-.032.352-.16.464-.7.592-.512.112-.448.56.08.56.624,0,.864-.032,1.312-.032.4,0,.9.032,1.232.032.608,0,.56-.48.016-.576-.56-.112-.656-.256-.672-.576-.016-.256-.016-.384-.016-.56V-5.136a2.3,2.3,0,0,0-2.272-2.56,2.623,2.623,0,0,0-1.28.352,8.349,8.349,0,0,0-1.248.864c-.1.08-.128.048-.128-.016v-4.176a8.42,8.42,0,0,1,.128-1.888.234.234,0,0,0-.208-.3,1.158,1.158,0,0,0-.544.208,4.178,4.178,0,0,1-1.5.48c-.544.064-.432.512-.08.544.832.176.928.256.96.608.032.368.032.7.032,1.76v6.32c0,.816,0,1.12-.032,1.7-.032.528-.16.608-.64.7-.592.1-.592.576,0,.576.384,0,.672-.032,1.28-.032.592,0,.976.032,1.344.032.48,0,.544-.48,0-.576-.64-.128-.672-.256-.7-.688-.016-.192-.032-.672-.032-1.5V-5.312C161.456-5.568,161.456-5.648,161.536-5.744Zm10,.832c.176-1.408.928-1.984,1.776-1.984a1.865,1.865,0,0,1,1.9,1.84c0,.08-.016.144-.08.176a19.262,19.262,0,0,1-2.912.144,5.461,5.461,0,0,1-.592-.032C171.552-4.784,171.536-4.816,171.536-4.912ZM171.488-4A15.922,15.922,0,0,0,176-4.352c.288-.08.608-.288.608-.576,0-.144-.08-.192-.176-.24A2.528,2.528,0,0,0,173.84-7.7a3.5,3.5,0,0,0-2.24.912,4.207,4.207,0,0,0-1.376,3.2c0,2.176,1.3,3.792,3.152,3.792a4.177,4.177,0,0,0,2.8-1.1c.4-.4.256-.848-.24-.544a3.093,3.093,0,0,1-1.792.576C172.592-.864,171.52-1.872,171.488-4ZM188.32-2.864c-1.344,0-1.808-1.12-1.808-2.128,0-1.232.448-1.936,1.52-1.936,1.184,0,1.808.88,1.808,2.16C189.84-3.472,189.3-2.864,188.32-2.864ZM187.584.208c.672.064,1.024.112,1.536.16,1.2.144,1.808.656,1.808,1.536a1.975,1.975,0,0,1-2.16,1.936c-1.792,0-2.64-1.024-2.64-1.776a1.3,1.3,0,0,1,.368-.912,10.868,10.868,0,0,1,.928-.96Zm4.384-6.88a2.578,2.578,0,0,0,.384-.72c.1-.272-.1-.5-.384-.224a1.179,1.179,0,0,1-.832.448,4.533,4.533,0,0,1-1.568-.352,3.873,3.873,0,0,0-1.1-.176,3.536,3.536,0,0,0-1.728.544,2.938,2.938,0,0,0-1.44,2.528,2.486,2.486,0,0,0,1.712,2.432c-.288.256-.912.784-1.136,1.04a.515.515,0,0,0,.032.4,1.413,1.413,0,0,0,.944.816,15.707,15.707,0,0,0-1.712,1.648.988.988,0,0,0-.24.608c0,1.024.96,2.4,3.12,2.4a4.214,4.214,0,0,0,2.5-.832,3.428,3.428,0,0,0,1.568-2.656c0-1.2-.8-1.888-2.368-2.032-.608-.048-1.28-.08-1.664-.112-.48-.064-.88-.176-.88-.5a1.279,1.279,0,0,1,.4-.672h.192a3.535,3.535,0,0,0,2.512-1.072,2.774,2.774,0,0,0,.752-2.16A3.626,3.626,0,0,0,190.8-6.3a3.251,3.251,0,0,0,.88-.128A.5.5,0,0,0,191.968-6.672ZM199.136-4c-.24-.016-.464-.032-.624-.032-1.808,0-3.9.816-3.9,2.288A1.821,1.821,0,0,0,196.32.24a4.4,4.4,0,0,0,2.736-1.328c.032.8.1,1.248.608,1.264a2.86,2.86,0,0,0,1.52-.384c.336-.192.336-.624,0-.608-.3,0-.768.016-.912-.24a.69.69,0,0,1-.048-.32c0-.192.048-2.672.048-3.712S199.9-7.7,198-7.7a6.47,6.47,0,0,0-2.784,1.248.553.553,0,0,0-.224.48,1.629,1.629,0,0,0,.16.72c.208.48.576.384.7.048.144-.352.224-.8.384-1.1a1.068,1.068,0,0,1,1.088-.544c.784,0,1.744.448,1.808,2.032Zm0,1.7a.669.669,0,0,1-.192.576,2.24,2.24,0,0,1-1.792.928,1.1,1.1,0,0,1-1.232-1.184c0-.832.736-1.344,1.84-1.36a5.928,5.928,0,0,1,1.264.064c.064.016.112.016.112.112ZM208.624-7.7c-.512,0-.992.256-2.32,1.568a8.135,8.135,0,0,0-.1-1.264c-.032-.176-.112-.3-.24-.3a.51.51,0,0,0-.272.1,13.769,13.769,0,0,1-1.456.736c-.256.112-.256.384,0,.48.608.192.768.3.784.544a5.3,5.3,0,0,1,.048,1.056V-2.16a6.239,6.239,0,0,1-.048,1.008c-.032.384-.064.448-.736.624-.432.112-.384.56.048.56.384,0,.8-.032,1.488-.032s1.248.032,1.584.032c.448,0,.512-.448.032-.544-.928-.176-1.072-.24-1.1-.7-.016-.24-.032-.56-.032-.96V-5.328a.337.337,0,0,1,.08-.24,1.822,1.822,0,0,1,1.376-.768,1.1,1.1,0,0,1,.848.4c.24.272.272.3.416.3.16,0,.3-.176.352-.3a1.615,1.615,0,0,0,.224-.848A.927.927,0,0,0,208.624-7.7Zm9.088.256A2.862,2.862,0,0,0,216.48-7.7a4.629,4.629,0,0,0-2.432.736,4.029,4.029,0,0,0-2.032,3.584c0,2.08,1.408,3.584,2.864,3.584a4.542,4.542,0,0,0,2.8-1.248c.048.816.144,1.312.512,1.312A4,4,0,0,0,219.936-.3c.432-.256.3-.592-.016-.592-.112,0-.3.016-.368.016-.608,0-.64-.288-.64-1.632v-8.672a4,4,0,0,1,.16-1.376.233.233,0,0,0-.176-.3,2.38,2.38,0,0,0-.656.224,7.11,7.11,0,0,1-1.584.448c-.448.064-.432.48,0,.56.736.144.976.24,1.008.5a7.418,7.418,0,0,1,.048,1.072Zm-1.984.608a2.638,2.638,0,0,1,1.776.544.511.511,0,0,1,.208.464V-2.16a.8.8,0,0,1-.112.528,2.571,2.571,0,0,1-1.888.784c-1.52,0-2.368-1.44-2.368-3.056C213.344-5.856,214.208-6.832,215.728-6.832Zm8.352,1.92c.176-1.408.928-1.984,1.776-1.984a1.865,1.865,0,0,1,1.9,1.84c0,.08-.016.144-.08.176a19.262,19.262,0,0,1-2.912.144,5.461,5.461,0,0,1-.592-.032C224.1-4.784,224.08-4.816,224.08-4.912ZM224.032-4a15.922,15.922,0,0,0,4.512-.352c.288-.08.608-.288.608-.576,0-.144-.08-.192-.176-.24A2.528,2.528,0,0,0,226.384-7.7a3.5,3.5,0,0,0-2.24.912,4.207,4.207,0,0,0-1.376,3.2c0,2.176,1.3,3.792,3.152,3.792a4.177,4.177,0,0,0,2.8-1.1c.4-.4.256-.848-.24-.544a3.093,3.093,0,0,1-1.792.576C225.136-.864,224.064-1.872,224.032-4Zm8.9,1.232a11.129,11.129,0,0,1-.048,1.5c-.032.464-.08.576-.8.72-.48.08-.5.576.048.576.416,0,.864-.032,1.392-.032.576,0,1.1.032,1.456.032.512,0,.544-.5.08-.576-.8-.144-.864-.256-.88-.7a8.582,8.582,0,0,1-.048-1.28v-2.72a.54.54,0,0,1,.112-.416,2.576,2.576,0,0,1,1.808-.976,1.709,1.709,0,0,1,1.808,1.952v1.072c0,1.552-.032,1.92-.048,2.24-.016.512-.064.672-.912.832-.5.08-.5.576.08.576.3,0,.928-.032,1.344-.032.544,0,.976.032,1.488.032.528,0,.544-.5.048-.576-.7-.128-.8-.192-.8-.7v-3.68c0-1.792-.88-2.768-2.224-2.768a2.51,2.51,0,0,0-1.344.416,11.683,11.683,0,0,0-1.328.96,5.465,5.465,0,0,0-.08-1.12c-.032-.176-.1-.256-.24-.256a1.088,1.088,0,0,0-.416.176,5.628,5.628,0,0,1-1.28.64.259.259,0,0,0-.032.5c.736.24.816.384.816.864Z" transform="translate(79 3905)" fill="#8d857b"/>
    <line id="線_8" data-name="線 8" x2="302" transform="translate(18.5 3878.5)" fill="none" stroke="#8c857c" stroke-width="1"/>
  </g>
</svg>
